<svg id="Layer_1" data-name="Layer 1" xmlns="http://www.w3.org/2000/svg" viewBox="0 0 20 10"><defs><style>.cls-1{fill:#fff;}</style></defs><title>Beta </title><rect width="20" height="10"/><path class="cls-1" d="M2.62,2.37H4.54a2.7,2.7,0,0,1,1,.14A1.15,1.15,0,0,1,6.09,3a1.38,1.38,0,0,1,.2.8,1.15,1.15,0,0,1-.24.76,1.4,1.4,0,0,1-.73.4A4.7,4.7,0,0,1,4.1,5H2.62ZM2.62,5,4.1,4.57a3.33,3.33,0,0,1,1.72.35A1.21,1.21,0,0,1,6.38,6a1.35,1.35,0,0,1-.23.8,1.42,1.42,0,0,1-.63.47,2.61,2.61,0,0,1-.92.15h-2Zm1.92-.59A.78.78,0,0,0,5,4.28a.51.51,0,0,0,.18-.41A.5.5,0,0,0,5,3.46a.75.75,0,0,0-.5-.15H3.72V4.42ZM4.6,6.49a.72.72,0,0,0,.5-.16.56.56,0,0,0,.17-.43.55.55,0,0,0-.17-.43.76.76,0,0,0-.5-.15H3.72V6.49Z"/><path class="cls-1" d="M8.71,7.49a1.87,1.87,0,0,1-.81-.17,1.49,1.49,0,0,1-.61-.5A1.4,1.4,0,0,1,7.06,6V5.1a1.42,1.42,0,0,1,.79-1.29,1.79,1.79,0,0,1,.84-.19,1.83,1.83,0,0,1,.85.19,1.62,1.62,0,0,1,.62.54,1.32,1.32,0,0,1,.22.75v.74H7.73v-.6h2l-.38.3v-.4a.6.6,0,0,0-.19-.44.71.71,0,0,0-.48-.16.72.72,0,0,0-.33.07.8.8,0,0,0-.23.22A.52.52,0,0,0,8,5.15V6a.52.52,0,0,0,.09.29.56.56,0,0,0,.24.22.74.74,0,0,0,.34.08.73.73,0,0,0,.41-.12.53.53,0,0,0,.23-.32l1,.2a1.11,1.11,0,0,1-.27.58,1.41,1.41,0,0,1-.56.42A1.87,1.87,0,0,1,8.71,7.49Z"/><path class="cls-1" d="M11,3.77h2.4v.82H11Zm1.76,3.69a1.66,1.66,0,0,1-.91-.2.85.85,0,0,1-.3-.75V2.71h1V6.07a.54.54,0,0,0,.09.33.35.35,0,0,0,.29.11h.34v.93l-.29,0Z"/><path class="cls-1" d="M15.26,7.5a1.49,1.49,0,0,1-.91-.26A.94.94,0,0,1,14,6.45a1.12,1.12,0,0,1,.17-.61,1.11,1.11,0,0,1,.52-.39,2.17,2.17,0,0,1,.82-.13h.88v.83a2.07,2.07,0,0,1-.12.77.83.83,0,0,1-.36.44A1.4,1.4,0,0,1,15.26,7.5Zm1-2.41a.49.49,0,0,0-.14-.36.59.59,0,0,0-.41-.13.65.65,0,0,0-.38.1.3.3,0,0,0-.16.25l-1.11-.14a.93.93,0,0,1,.23-.59,1.41,1.41,0,0,1,.58-.41,2.16,2.16,0,0,1,.83-.15,2.06,2.06,0,0,1,.84.16,1.4,1.4,0,0,1,.61.44,1,1,0,0,1,.22.63V7.44H16.28ZM15.6,6.74a.77.77,0,0,0,.48-.16.5.5,0,0,0,.2-.41V5.88h-.52a.88.88,0,0,0-.47.11.39.39,0,0,0-.17.33.41.41,0,0,0,.12.3A.51.51,0,0,0,15.6,6.74Z"/></svg>