

<svg width="98" height="28" viewBox="0 0 98 28" fill="none" xmlns="http://www.w3.org/2000/svg">
    <path d="M82.6651 15.3898V22.4014C81.2184 22.1207 79.8514 21.5025 78.667 20.5931L78.5704 20.5187C77.3881 19.5936 76.4228 18.4014 75.747 17.0318C75.0713 15.6622 74.7026 14.1509 74.6689 12.6116V2.33331C75.7718 2.54659 76.8307 2.95762 77.7985 3.5481C78.1 3.72916 78.3913 3.92781 78.6712 4.1431C79.3411 4.65687 79.9455 5.25717 80.47 5.92956C81.8935 7.74773 82.6691 10.0225 82.6651 12.3681V12.6116H81.3329C80.627 12.6116 79.95 12.9036 79.4508 13.4232C78.9517 13.9428 78.6712 14.6476 78.6712 15.3825L82.6651 15.3898ZM92.086 5.92956C91.2462 6.21726 90.4479 6.6225 89.7129 7.13415C89.5855 7.22165 89.4594 7.31352 89.3375 7.40831C88.4499 8.08836 87.6781 8.91847 87.0541 9.86415C86.4971 10.7076 86.0659 11.6339 85.7751 12.6116H89.3361C89.3361 12.9767 89.2668 13.3383 89.1322 13.6754C88.9975 14.0125 88.8002 14.3186 88.5516 14.5761C88.3029 14.8336 88.0079 15.0374 87.6833 15.1758C87.3588 15.3141 87.0111 15.3844 86.6604 15.3825H85.3352V25.6666C86.7509 25.3924 88.0905 24.7947 89.2577 23.9166L89.3375 23.8583C90.5778 22.9104 91.5861 21.6716 92.2807 20.2423C92.9753 18.8131 93.3367 17.2336 93.3356 15.6319V15.3971V5.59998C92.912 5.68053 92.4941 5.79064 92.0846 5.92956H92.086Z" fill="#191919" />
    <path fill-rule="evenodd" clip-rule="evenodd" d="M40.1177 2.33331L41.9504 4.27801L40.1182 6.2227L38.1886 4.27801L40.1177 2.33331ZM22.4643 8.06932C21.9328 8.23294 21.485 8.59795 21.2151 9.08756C20.9452 9.57716 20.8743 10.1532 21.0173 10.6944L21.5946 12.7362C22.1734 15.0696 21.3052 16.2363 18.7973 16.2363H14.6494L14.4563 14.0005C14.3426 12.454 13.7332 10.9867 12.7198 9.8199C12.2849 9.30628 11.7337 8.90562 11.1129 8.65171C10.4921 8.3978 9.81976 8.29809 9.15268 8.361C8.48876 8.39508 7.84086 8.57869 7.25662 8.89835C6.67238 9.218 6.16666 9.66556 5.77663 10.2081C4.90454 11.376 4.52332 12.8428 4.71531 14.2916C4.75873 15.4921 5.23962 16.6344 6.06603 17.5001C6.4907 17.9016 6.99182 18.212 7.53902 18.4125C8.08623 18.6131 8.66813 18.6996 9.24948 18.6668H12.8171V18.7639C13.0102 20.2223 12.624 21.1944 11.7558 21.6807C10.8876 22.167 8.76547 22.7503 5.48622 23.4307L5.87192 25.6666C6.93291 25.4721 7.80112 25.2777 8.47656 25.0832C9.15167 24.8886 9.82729 24.6945 10.5987 24.4999C11.193 24.3156 11.7734 24.0882 12.3351 23.8195C12.7895 23.5847 13.2111 23.2904 13.589 22.9444C13.9561 22.6598 14.2532 22.2938 14.4573 21.8748C14.6306 21.4018 14.7597 20.9135 14.843 20.4164C14.9396 19.8045 14.9396 19.1811 14.843 18.5692H18.7978C19.5664 18.6049 20.3337 18.476 21.0492 18.191C21.7647 17.906 22.4121 17.4713 22.9488 16.9157C23.9133 15.749 24.1064 14.1936 23.6239 12.1518L22.4643 8.06932ZM9.24898 16.3334C7.70565 16.3334 6.83744 15.5554 6.74114 14.0975C6.63187 13.2738 6.83892 12.4391 7.31995 11.7641C7.53019 11.4403 7.81605 11.1734 8.15247 10.9869C8.48889 10.8004 8.86557 10.7 9.24948 10.6944C9.63247 10.6615 10.0176 10.7241 10.3709 10.8767C10.7242 11.0293 11.0348 11.2672 11.2753 11.5695C11.8803 12.348 12.2187 13.303 12.2398 14.2916L12.4329 16.3334H9.24898ZM17.4497 22.458L19.3793 24.4022L21.3088 22.4575L19.3793 20.6109L17.4497 22.458ZM42.6269 16.9156C43.5914 15.7489 43.8808 14.1935 43.302 12.1517L42.2412 8.06923C41.9725 8.14143 41.7209 8.26745 41.5016 8.43975C41.2823 8.61206 41.0997 8.82713 40.9646 9.07213C40.8296 9.31713 40.7449 9.58704 40.7156 9.86575C40.6863 10.1445 40.713 10.4263 40.7941 10.6943L41.373 12.7361C41.9518 15.0695 41.0835 16.2362 38.5757 16.2362H35.1029L34.7171 14.0004C34.6035 12.4539 33.9941 10.9866 32.9807 9.81981C32.5455 9.30599 31.994 8.90524 31.3728 8.65141C30.7516 8.39758 30.0789 8.29812 29.4116 8.36142C28.7452 8.38418 28.0933 8.56293 27.5073 8.88353C26.9213 9.20412 26.4175 9.65776 26.0355 10.2085C25.1763 11.3453 24.7951 12.7769 24.9742 14.1945C25.0176 15.395 25.4985 16.5373 26.3249 17.4029C26.7496 17.8044 27.2507 18.1148 27.7979 18.3154C28.3451 18.5159 28.927 18.6024 29.5084 18.5697H33.076V18.6667C33.2691 20.1251 32.8829 21.0972 32.0147 21.5835C31.1465 22.0698 29.0244 22.6532 25.7451 23.3336L26.1308 25.5694C27.1918 25.375 28.06 25.1805 28.7355 24.9861C29.4106 24.7915 30.0862 24.5973 30.8576 24.4027C31.4519 24.2185 32.0323 23.9911 32.594 23.7223C33.0484 23.4875 33.47 23.1933 33.8479 22.8473C34.215 22.5627 34.5121 22.1966 34.7161 21.7776C34.8895 21.3046 35.0186 20.8164 35.1019 20.3192C35.1985 19.7074 35.1985 19.084 35.1019 18.4721H38.3826C40.3116 18.5692 41.6624 17.9858 42.6269 16.9156ZM29.5079 16.3333C27.9645 16.3333 27.0963 15.5553 27 14.0974C26.8908 13.2737 27.0978 12.439 27.5788 11.764C27.7891 11.4402 28.0749 11.1733 28.4114 10.9868C28.7478 10.8004 29.1245 10.6999 29.5084 10.6943C29.8914 10.6614 30.2765 10.724 30.6298 10.8766C30.9831 11.0292 31.2937 11.2672 31.5342 11.5694C32.1392 12.3479 32.4776 13.3029 32.4987 14.2915L32.6918 16.3333H29.5079ZM58.9312 2.62469L60.6671 4.27771L58.9312 5.93072L57.2911 4.27771L58.9312 2.62469ZM58.3498 8.06923C58.0809 8.14127 57.8293 8.26716 57.6098 8.4394C57.3903 8.61164 57.2075 8.82668 57.0723 9.0717C56.9371 9.31672 56.8523 9.58668 56.8229 9.86547C56.7935 10.1443 56.8201 10.4262 56.9013 10.6943L57.4801 12.7361C58.1552 15.0695 57.1907 16.2362 54.6828 16.2362H50.8253C50.5552 16.2629 50.2827 16.2237 50.0308 16.122C49.7788 16.0203 49.5549 15.8591 49.3777 15.6519C49.0883 15.2631 48.8952 14.2905 48.7026 12.9297C48.648 12.4885 48.5932 12.1412 48.556 11.9055L48.556 11.9053C48.5277 11.7255 48.5095 11.6106 48.5095 11.5684V11.4713L48.4132 10.4992C48.1399 10.5418 47.8778 10.6388 47.642 10.7845C47.4063 10.9303 47.2016 11.1218 47.04 11.348C46.8784 11.5742 46.7631 11.8305 46.7007 12.1021C46.6384 12.3736 46.6302 12.655 46.6768 12.9297L47.4487 18.7633C47.4334 18.9627 47.4664 19.1629 47.545 19.3466C47.556 19.948 47.399 20.5403 47.092 21.0561C46.7849 21.5718 46.3402 21.9902 45.8086 22.2634C44.5234 22.7835 43.2014 23.206 41.8537 23.5272L42.3362 25.666C45.0372 24.888 46.8699 24.1105 48.1243 23.1385C49.2819 22.1664 49.7644 20.6109 49.475 18.4716C49.9173 18.5839 50.37 18.6492 50.8258 18.6662H54.7806C55.5343 18.7018 56.2867 18.5724 56.9861 18.2871C57.6855 18.0017 58.3153 17.5671 58.8323 17.0132C59.7968 15.9435 60.0862 14.3881 59.5074 12.3463L58.3498 8.06923ZM54.1991 2.62469L55.935 4.27771L54.1991 5.93072L52.559 4.27771L54.1991 2.62469Z" fill="#424242" />
</svg>
