<svg width="100" height="24" viewBox="0 0 100 24" fill="none" xmlns="http://www.w3.org/2000/svg">
<path d="M0.942383 4.86133H3.06152C4.0446 4.86133 4.75423 5.00456 5.19043 5.29102C5.62988 5.57747 5.84961 6.02995 5.84961 6.64844C5.84961 7.0651 5.74219 7.41178 5.52734 7.68848C5.3125 7.96517 5.00326 8.13932 4.59961 8.21094V8.25977C5.10091 8.35417 5.46875 8.54134 5.70312 8.82129C5.94076 9.09798 6.05957 9.47396 6.05957 9.94922C6.05957 10.5905 5.83496 11.0934 5.38574 11.458C4.93978 11.8193 4.31803 12 3.52051 12H0.942383V4.86133ZM2.10938 7.81055H3.23242C3.7207 7.81055 4.07715 7.73405 4.30176 7.58105C4.52637 7.4248 4.63867 7.16113 4.63867 6.79004C4.63867 6.45475 4.5166 6.21224 4.27246 6.0625C4.03158 5.91276 3.64746 5.83789 3.12012 5.83789H2.10938V7.81055ZM2.10938 8.75781V11.0186H3.34961C3.83789 11.0186 4.20573 10.9258 4.45312 10.7402C4.70378 10.5514 4.8291 10.2552 4.8291 9.85156C4.8291 9.48047 4.70215 9.2054 4.44824 9.02637C4.19434 8.84733 3.80859 8.75781 3.29102 8.75781H2.10938ZM10.5303 12.0977C9.69043 12.0977 9.03288 11.8535 8.55762 11.3652C8.08561 10.8737 7.84961 10.1982 7.84961 9.33887C7.84961 8.45671 8.06934 7.76335 8.50879 7.25879C8.94824 6.75423 9.55208 6.50195 10.3203 6.50195C11.0332 6.50195 11.5964 6.71842 12.0098 7.15137C12.4232 7.58431 12.6299 8.18001 12.6299 8.93848V9.55859H9.03125C9.04753 10.0827 9.18913 10.4863 9.45605 10.7695C9.72298 11.0495 10.099 11.1895 10.584 11.1895C10.903 11.1895 11.1992 11.1602 11.4727 11.1016C11.7493 11.0397 12.0456 10.9388 12.3613 10.7988V11.7314C12.0814 11.8649 11.7982 11.9593 11.5117 12.0146C11.2253 12.07 10.8981 12.0977 10.5303 12.0977ZM10.3203 7.37109C9.95573 7.37109 9.66276 7.48665 9.44141 7.71777C9.22331 7.94889 9.0931 8.28581 9.05078 8.72852H11.502C11.4954 8.28255 11.388 7.94564 11.1797 7.71777C10.9714 7.48665 10.6849 7.37109 10.3203 7.37109ZM16.6953 11.1699C16.9753 11.1699 17.2552 11.126 17.5352 11.0381V11.9023C17.4082 11.9577 17.2438 12.0033 17.042 12.0391C16.8434 12.0781 16.6367 12.0977 16.4219 12.0977C15.3346 12.0977 14.791 11.5247 14.791 10.3789V7.46875H14.0537V6.96094L14.8447 6.54102L15.2354 5.39844H15.9434V6.59961H17.4814V7.46875H15.9434V10.3594C15.9434 10.6361 16.0117 10.8411 16.1484 10.9746C16.2884 11.1048 16.4707 11.1699 16.6953 11.1699ZM22.748 12L22.5186 11.248H22.4795C22.2191 11.5768 21.957 11.8014 21.6934 11.9219C21.4297 12.0391 21.0911 12.0977 20.6777 12.0977C20.1471 12.0977 19.7321 11.9544 19.4326 11.668C19.1364 11.3815 18.9883 10.9762 18.9883 10.4521C18.9883 9.89551 19.195 9.47559 19.6084 9.19238C20.0218 8.90918 20.6517 8.75456 21.498 8.72852L22.4307 8.69922V8.41113C22.4307 8.06608 22.3493 7.80892 22.1865 7.63965C22.027 7.46712 21.778 7.38086 21.4395 7.38086C21.1628 7.38086 20.8975 7.42155 20.6436 7.50293C20.3896 7.58431 20.1455 7.68034 19.9111 7.79102L19.54 6.9707C19.833 6.81771 20.1536 6.70215 20.502 6.62402C20.8503 6.54264 21.179 6.50195 21.4883 6.50195C22.1751 6.50195 22.6927 6.65169 23.041 6.95117C23.3926 7.25065 23.5684 7.72103 23.5684 8.3623V12H22.748ZM21.0391 11.2188C21.4557 11.2188 21.7894 11.1032 22.04 10.8721C22.2939 10.6377 22.4209 10.3105 22.4209 9.89062V9.42188L21.7275 9.45117C21.1872 9.4707 20.7933 9.56185 20.5459 9.72461C20.3018 9.88411 20.1797 10.1299 20.1797 10.4619C20.1797 10.7028 20.2513 10.89 20.3945 11.0234C20.5378 11.1536 20.7526 11.2188 21.0391 11.2188Z" fill="black"/>
<path fill-rule="evenodd" clip-rule="evenodd" d="M57.3087 4L58.5655 5.33351L57.3091 6.66701L55.986 5.33351L57.3087 4ZM45.2041 7.93321C44.8396 8.04541 44.5326 8.2957 44.3475 8.63143C44.1625 8.96716 44.1138 9.36215 44.2118 9.73329L44.6077 11.1333C45.0046 12.7334 44.4093 13.5334 42.6896 13.5334H39.8453L39.7129 12.0003C39.6349 10.9399 39.217 9.93372 38.5222 9.13361C38.2239 8.78141 37.846 8.50667 37.4203 8.33256C36.9946 8.15845 36.5335 8.09008 36.0761 8.13322C35.6209 8.15659 35.1766 8.2825 34.776 8.50169C34.3753 8.72088 34.0286 9.02778 33.7611 9.39982C33.1631 10.2007 32.9017 11.2065 33.0333 12.1999C33.0631 13.0232 33.3929 13.8064 33.9596 14.4C34.2508 14.6753 34.5944 14.8882 34.9696 15.0257C35.3448 15.1632 35.7438 15.2225 36.1425 15.2001H38.5889V15.2666C38.7213 16.2667 38.4565 16.9332 37.8611 17.2667C37.2658 17.6002 35.8106 18.0002 33.562 18.4668L33.8264 19.9999C34.554 19.8666 35.1493 19.7333 35.6125 19.5999C36.0754 19.4665 36.5387 19.3333 37.0677 19.1999C37.4752 19.0735 37.8732 18.9176 38.2584 18.7333C38.5699 18.5723 38.859 18.3706 39.1182 18.1333C39.3699 17.9381 39.5736 17.6871 39.7135 17.3998C39.8324 17.0755 39.9209 16.7407 39.978 16.3998C40.0443 15.9802 40.0443 15.5527 39.978 15.1332H42.6899C43.2169 15.1576 43.7431 15.0692 44.2337 14.8738C44.7244 14.6784 45.1683 14.3803 45.5363 13.9993C46.1977 13.1993 46.3301 12.1327 45.9993 10.7326L45.2041 7.93321ZM36.1421 13.6C35.0839 13.6 34.4885 13.0665 34.4225 12.0668C34.3476 11.502 34.4895 10.9296 34.8194 10.4668C34.9635 10.2447 35.1596 10.0617 35.3903 9.93387C35.6209 9.80598 35.8792 9.73711 36.1425 9.73329C36.4051 9.71072 36.6692 9.75365 36.9115 9.85829C37.1537 9.96294 37.3667 10.1261 37.5316 10.3333C37.9465 10.8671 38.1785 11.522 38.193 12.1999L38.3254 13.6H36.1421ZM41.7656 17.7998L43.0888 19.133L44.4119 17.7995L43.0888 16.5332L41.7656 17.7998ZM59.0297 13.9993C59.6911 13.1993 59.8896 12.1327 59.4927 10.7326L58.7652 7.93321C58.581 7.98272 58.4085 8.06913 58.2581 8.18728C58.1077 8.30544 57.9825 8.45291 57.8899 8.62091C57.7973 8.78891 57.7392 8.97399 57.7191 9.16511C57.699 9.35623 57.7174 9.54946 57.773 9.73329L58.1699 11.1333C58.5668 12.7334 57.9714 13.5335 56.2518 13.5335H53.8704L53.6059 12.0003C53.528 10.9399 53.1101 9.93372 52.4152 9.13361C52.1168 8.78127 51.7386 8.50647 51.3127 8.33242C50.8867 8.15836 50.4254 8.09016 49.9678 8.13357C49.5109 8.14917 49.0638 8.27175 48.662 8.49158C48.2602 8.71142 47.9147 9.02249 47.6528 9.40017C47.0636 10.1796 46.8022 11.1614 46.925 12.1334C46.9548 12.9566 47.2845 13.7399 47.8512 14.3335C48.1424 14.6088 48.4861 14.8216 48.8613 14.9592C49.2365 15.0967 49.6355 15.156 50.0342 15.1335H52.4806V15.2001C52.613 16.2001 52.3481 16.8667 51.7528 17.2002C51.1575 17.5336 49.7023 17.9336 47.4536 18.4002L47.7181 19.9334C48.4457 19.8 49.041 19.6667 49.5042 19.5334C49.9671 19.3999 50.4304 19.2668 50.9593 19.1333C51.3669 19.007 51.7648 18.8511 52.15 18.6668C52.4616 18.5058 52.7507 18.304 53.0099 18.0667C53.2616 17.8716 53.4653 17.6206 53.6052 17.3333C53.7241 17.0089 53.8126 16.6741 53.8697 16.3332C53.9359 15.9137 53.9359 15.4862 53.8697 15.0666H56.1194C57.4421 15.1332 58.3683 14.7332 59.0297 13.9993ZM50.0338 13.6C48.9755 13.6 48.3802 13.0665 48.3142 12.0668C48.2392 11.502 48.3812 10.9296 48.7111 10.4668C48.8552 10.2447 49.0512 10.0617 49.2819 9.93387C49.5126 9.80598 49.7709 9.73711 50.0342 9.73329C50.2968 9.71072 50.5609 9.75365 50.8032 9.85829C51.0454 9.96294 51.2584 10.1261 51.4233 10.3333C51.8381 10.8671 52.0702 11.522 52.0847 12.1999L52.2171 13.6H50.0338ZM70.2107 4.19981L71.401 5.3333L70.2107 6.4668L69.086 5.3333L70.2107 4.19981ZM69.8117 7.93321C69.6273 7.98261 69.4547 8.06893 69.3042 8.18704C69.1537 8.30514 69.0284 8.45261 68.9357 8.62062C68.8429 8.78863 68.7848 8.97375 68.7646 9.16492C68.7445 9.35609 68.7628 9.54939 68.8184 9.73329L69.2153 11.1333C69.6782 12.7334 69.0168 13.5335 67.2972 13.5335H64.652C64.4668 13.5517 64.2799 13.5249 64.1072 13.4551C63.9344 13.3854 63.7808 13.2748 63.6594 13.1327C63.4609 12.8662 63.3285 12.1993 63.1964 11.2661C63.159 10.9636 63.1214 10.7255 63.096 10.5639L63.0959 10.5638L63.0959 10.5637C63.0765 10.4404 63.064 10.3616 63.064 10.3326V10.2661L62.998 9.59949C62.8106 9.62871 62.6308 9.69522 62.4692 9.79514C62.3075 9.89506 62.1672 10.0264 62.0564 10.1815C61.9456 10.3366 61.8665 10.5124 61.8237 10.6986C61.781 10.8848 61.7754 11.0777 61.8073 11.2661L62.3366 15.2663C62.3261 15.403 62.3488 15.5403 62.4027 15.6663C62.4102 16.0787 62.3025 16.4848 62.092 16.8385C61.8814 17.1921 61.5765 17.479 61.212 17.6664C60.3307 18.023 59.4242 18.3127 58.5 18.533L58.8309 19.9996C60.683 19.4661 61.9397 18.933 62.7999 18.2664C63.5937 17.5998 63.9246 16.5332 63.7261 15.0663C64.0294 15.1433 64.3398 15.188 64.6523 15.1997H67.3642C67.8811 15.2241 68.397 15.1354 68.8766 14.9397C69.3562 14.7441 69.788 14.4461 70.1425 14.0662C70.8039 13.3327 71.0023 12.2662 70.6054 10.8661L69.8117 7.93321ZM66.9653 4.19981L68.1557 5.3333L66.9653 6.4668L65.8407 5.3333L66.9653 4.19981Z" fill="#191919"/>
<path d="M86.2548 13.1912V19.2013C85.0147 18.9607 83.843 18.4307 82.8278 17.6512L82.745 17.5875C81.7316 16.7945 80.9042 15.7726 80.3249 14.5987C79.7457 13.4248 79.4298 12.1294 79.4009 10.81V2C80.3462 2.18281 81.2538 2.53512 82.0834 3.04125C82.3417 3.19644 82.5915 3.36671 82.8314 3.55125C83.4056 3.99162 83.9236 4.50616 84.3732 5.0825C85.5933 6.64093 86.2581 8.59075 86.2548 10.6012V10.81H85.1128C84.5078 10.81 83.9275 11.0602 83.4996 11.5056C83.0718 11.951 82.8314 12.5551 82.8314 13.185L86.2548 13.1912ZM94.3298 5.0825C93.61 5.3291 92.9257 5.67645 92.2957 6.115C92.1865 6.19 92.0784 6.26875 91.9739 6.35C91.2131 6.93289 90.5516 7.64442 90.0167 8.455C89.5393 9.17797 89.1697 9.97195 88.9204 10.81H91.9727C91.9727 11.1229 91.9133 11.4328 91.7979 11.7218C91.6825 12.0107 91.5134 12.2731 91.3003 12.4938C91.0872 12.7145 90.8342 12.8892 90.5561 13.0078C90.2779 13.1264 89.9799 13.1866 89.6793 13.185H88.5434V22C89.7568 21.7649 90.9051 21.2526 91.9055 20.5L91.9739 20.45C93.037 19.6375 93.9013 18.5757 94.4966 17.3506C95.092 16.1255 95.4018 14.7717 95.4009 13.3988V13.1975V4.8C95.0378 4.86904 94.6795 4.96342 94.3286 5.0825H94.3298Z" fill="#191919"/>
</svg>
