<svg width="41" height="40" viewBox="0 0 41 40" fill="none" xmlns="http://www.w3.org/2000/svg">
<g clip-path="url(#clip0)">
<path d="M40.9984 19.3602C40.9984 18.1016 40.4523 16.8888 39.5195 16.065L21.7272 0.367019C21.0674 -0.11353 20.1801 -0.11353 19.5203 0.367019L1.59149 16.065C0.635898 16.8888 0.0898438 18.1016 0.0898438 19.3602V37.3693H40.9984V19.3602Z" fill="url(#paint0_linear)"/>
<path d="M5.0957 33.8215H35.9933V7.43708C35.9933 6.43021 35.1742 5.60641 34.1731 5.60641H6.91588C5.91478 5.60641 5.0957 6.43021 5.0957 7.43708V33.8215Z" fill="#E7F1F5"/>
<path d="M40.9984 18.6727V39.9999H0.0898438V18.6727C0.0898438 17.4599 0.954429 16.4301 2.11479 16.2013C2.38782 16.1555 2.66085 16.2013 2.91112 16.3615L20.5441 27.2997L38.1771 16.3615C38.4046 16.2242 38.7004 16.1555 38.9734 16.2013C40.1111 16.4301 40.9984 17.437 40.9984 18.6727Z" fill="url(#paint1_linear)"/>
<path d="M40.9984 40L21.0674 25.3775C20.8171 25.1945 20.4531 25.1945 20.2028 25.3775L0.0898438 40H40.9984Z" fill="url(#paint2_linear)"/>
<path d="M19.9288 16.7963V19.8398C19.269 19.7253 18.6547 19.4507 18.1314 19.0617L18.0859 19.0388C17.0166 18.215 16.3567 16.9565 16.334 15.6063C16.334 15.5606 16.334 15.5377 16.334 15.4919V11.1441C16.8345 11.2356 17.3123 11.4187 17.7446 11.6704C17.8811 11.7391 18.0177 11.8306 18.1314 11.9221C18.4272 12.151 18.7002 12.4027 18.9277 12.7002C19.5648 13.4782 19.9061 14.4851 19.9061 15.4919C19.9061 15.5377 19.9061 15.5606 19.9061 15.6063H19.3145C18.6547 15.6063 18.1087 16.1555 18.1087 16.8192H19.9288V16.7963ZM24.7296 12.54V16.7734C24.7296 16.8192 24.7296 16.842 24.7296 16.8649C24.7296 18.2837 24.0698 19.588 22.9321 20.4347L22.8866 20.4576C22.3633 20.8466 21.7718 21.0983 21.1347 21.2127V16.8649C21.1347 16.8192 21.1347 16.7963 21.1347 16.7505H21.7263C22.3861 16.7505 22.9321 16.2013 22.9321 15.5377H21.3395C21.476 15.1029 21.658 14.7139 21.9083 14.3478C22.1813 13.9359 22.5454 13.5697 22.9321 13.2722C22.9776 13.2265 23.0459 13.1807 23.0914 13.1578C23.4327 12.929 23.774 12.7688 24.1608 12.6315C24.3428 12.6315 24.5476 12.5858 24.7296 12.54Z" fill="#416594"/>
</g>
<defs>
<linearGradient id="paint0_linear" x1="20.5401" y1="29.4969" x2="20.5401" y2="-11.7404" gradientUnits="userSpaceOnUse">
<stop offset="1.03747e-07" stop-color="#1589C2"/>
<stop offset="0.0329678" stop-color="#1A8CC4"/>
<stop offset="0.3243" stop-color="#41A3D4"/>
<stop offset="0.5922" stop-color="#5DB3DF"/>
<stop offset="0.8261" stop-color="#6EBDE6"/>
<stop offset="1" stop-color="#74C1E8"/>
</linearGradient>
<linearGradient id="paint1_linear" x1="20.5401" y1="41.9383" x2="20.5401" y2="12.7283" gradientUnits="userSpaceOnUse">
<stop offset="1.03747e-07" stop-color="#1589C2"/>
<stop offset="0.0329678" stop-color="#1A8CC4"/>
<stop offset="0.3243" stop-color="#41A3D4"/>
<stop offset="0.5922" stop-color="#5DB3DF"/>
<stop offset="0.8261" stop-color="#6EBDE6"/>
<stop offset="1" stop-color="#74C1E8"/>
</linearGradient>
<linearGradient id="paint2_linear" x1="20.5401" y1="40.0846" x2="20.5401" y2="25.9841" gradientUnits="userSpaceOnUse">
<stop offset="1.03747e-07" stop-color="#1589C2"/>
<stop offset="0.0329678" stop-color="#1A8CC4"/>
<stop offset="0.3243" stop-color="#41A3D4"/>
<stop offset="0.5922" stop-color="#5DB3DF"/>
<stop offset="0.8261" stop-color="#6EBDE6"/>
<stop offset="1" stop-color="#74C1E8"/>
</linearGradient>
<clipPath id="clip0">
<rect width="40.9086" height="40" fill="white" transform="translate(0.0898438)"/>
</clipPath>
</defs>
</svg>
