<svg width="145" height="24" viewBox="0 0 145 24" fill="none" xmlns="http://www.w3.org/2000/svg">
<path d="M10.8539 13.1912V19.2013C9.61378 18.9607 8.44214 18.4307 7.42694 17.6512L7.34409 17.5875C6.33072 16.7945 5.50329 15.7726 4.92406 14.5987C4.34483 13.4248 4.02889 12.1294 4 10.81V2C4.94532 2.18281 5.85296 2.53512 6.68248 3.04125C6.94087 3.19644 7.19062 3.36671 7.43054 3.55125C8.00469 3.99162 8.52276 4.50616 8.97231 5.0825C10.1925 6.64093 10.8572 8.59075 10.8539 10.6012V10.81H9.71197C9.1069 10.81 8.52661 11.0602 8.09876 11.5056C7.67091 11.951 7.43054 12.5551 7.43054 13.185L10.8539 13.1912ZM18.9289 5.0825C18.2091 5.3291 17.5248 5.67645 16.8949 6.115C16.7856 6.19 16.6775 6.26875 16.5731 6.35C15.8123 6.93289 15.1507 7.64442 14.6158 8.455C14.1384 9.17797 13.7688 9.97195 13.5195 10.81H16.5719C16.5719 11.1229 16.5125 11.4328 16.3971 11.7218C16.2816 12.0107 16.1125 12.2731 15.8994 12.4938C15.6863 12.7145 15.4334 12.8892 15.1552 13.0078C14.877 13.1264 14.579 13.1866 14.2784 13.185H13.1425V22C14.356 21.7649 15.5042 21.2526 16.5046 20.5L16.5731 20.45C17.6361 19.6375 18.5004 18.5757 19.0958 17.3506C19.6912 16.1255 20.0009 14.7717 20 13.3988V13.1975V4.8C19.6369 4.86904 19.2787 4.96342 18.9277 5.0825H18.9289Z" fill="#191919"/>
<path d="M30 6.60296C30 5.98227 30.2465 5.387 30.6853 4.9481C31.1241 4.50921 31.7192 4.26264 32.3398 4.26264H44.0777C44.0777 4.88333 43.8312 5.4786 43.3924 5.91749C42.9536 6.35639 42.3585 6.60296 41.7379 6.60296H38.2829V19.9844H35.8131V6.60296H30ZM52.4126 14.7993H44.4001C44.4001 16.5727 45.44 17.9197 47.2052 17.9197C47.83 17.9182 48.4412 17.7376 48.9665 17.3993C49.4917 17.0611 49.909 16.5793 50.169 16.0111L52.1656 16.7912C51.0217 19.0145 49.6984 19.9792 47.2052 19.9792C43.4798 19.9792 41.9329 16.8354 41.9329 14.1414C41.9329 11.4474 43.4928 8.30619 47.2052 8.30619C50.8189 8.30619 52.4048 11.2472 52.4048 13.7825L52.4126 14.7993ZM44.4469 12.8464H49.9454C49.7426 11.4318 48.7989 10.3761 47.2052 10.3761C45.7026 10.3761 44.7147 11.385 44.4469 12.8464ZM57.1493 19.805H54.8096V8.49082H57.1493V10.3761C57.4768 9.76898 57.958 9.25866 58.5448 8.89627C59.1316 8.53389 59.8033 8.33219 60.4926 8.31139C60.9841 8.30453 61.4723 8.39283 61.9303 8.57143L61.5247 10.7037C61.1239 10.4698 60.6653 10.3535 60.2015 10.3683C59.3721 10.3683 58.6416 10.8181 58.0463 11.7361C57.4509 12.654 57.1493 13.9152 57.1493 15.5976V19.805ZM63.9945 8.49082H66.3343V10.4203C66.7043 9.77768 67.2374 9.24424 67.8798 8.87392C68.5221 8.5036 69.2508 8.30954 69.9922 8.31139C71.9914 8.31139 73.3147 9.54396 73.3147 11.6919V19.805H70.9749V12.4408C70.9749 11.073 70.3925 10.3761 69.2253 10.3761C68.4453 10.3761 67.7642 10.8259 67.1818 11.6997C66.5995 12.5734 66.3291 13.7435 66.3291 15.2257V19.805H63.9893L63.9945 8.49082ZM75.6935 14.1466C75.6443 12.6186 76.182 11.1298 77.1961 9.98602C78.2074 8.86267 79.5775 8.30359 81.2596 8.30359C82.9416 8.30359 84.2831 8.86007 85.2944 9.99382C86.3144 11.1356 86.8603 12.6237 86.8205 14.1544C86.8605 15.6851 86.3147 17.1734 85.2944 18.315C84.284 19.4383 82.9373 20 81.2544 20C79.5723 20 78.2022 19.4383 77.1909 18.315C76.1749 17.1692 75.6371 15.6772 75.6883 14.1466H75.6935ZM78.1632 14.1466C78.1378 15.1011 78.4204 16.0384 78.9692 16.8198C79.2321 17.1763 79.5783 17.4629 79.9776 17.6547C80.3769 17.8464 80.817 17.9374 81.2596 17.9197C81.6991 17.9398 82.1367 17.8496 82.5326 17.6575C82.9285 17.4654 83.2702 17.1775 83.5266 16.8198C84.0929 16.0459 84.3847 15.1052 84.3559 14.1466C84.3851 13.196 84.0929 12.2633 83.5266 11.4994C83.2717 11.1386 82.9309 10.847 82.5352 10.6509C82.1394 10.4547 81.701 10.3603 81.2596 10.3761C80.8152 10.3628 80.3744 10.4582 79.9753 10.654C79.5761 10.8498 79.2308 11.14 78.9692 11.4994C78.4183 12.2702 78.1336 13.1995 78.158 14.1466H78.1632ZM102.065 14.1466C102.016 12.6186 102.554 11.1298 103.568 9.98602C104.579 8.86267 105.947 8.30359 107.632 8.30359C109.316 8.30359 110.66 8.86267 111.672 9.98602C112.693 11.1272 113.239 12.6157 113.198 14.1466C113.24 15.6777 112.694 17.1669 111.672 18.3072C110.661 19.4305 109.314 19.9922 107.632 19.9922C105.947 19.9922 104.579 19.4305 103.568 18.3072C102.552 17.1642 102.013 15.6753 102.06 14.1466H102.065ZM104.535 14.1466C104.51 15.1011 104.792 16.0384 105.341 16.8198C105.604 17.1763 105.95 17.4629 106.35 17.6547C106.749 17.8464 107.189 17.9374 107.632 17.9197C108.071 17.9398 108.509 17.8496 108.905 17.6575C109.301 17.4654 109.642 17.1775 109.899 16.8198C110.465 16.0459 110.757 15.1052 110.728 14.1466C110.757 13.196 110.465 12.2633 109.899 11.4994C109.644 11.1386 109.303 10.847 108.907 10.6509C108.511 10.4547 108.073 10.3603 107.632 10.3761C107.187 10.3628 106.746 10.4582 106.347 10.654C105.948 10.8498 105.603 11.14 105.341 11.4994C104.79 12.2702 104.506 13.1995 104.53 14.1466H104.535ZM95.0513 8.40241C94.4494 8.42187 93.8599 8.5784 93.3277 8.86007C92.8188 9.07599 92.372 9.41565 92.0278 9.8482V4H89.688V19.8934H94.9187C96.8062 19.8934 98.2438 19.2485 99.1277 18.0055C99.7959 17.0746 100.147 15.8108 100.147 14.235C100.147 10.6439 98.3738 8.40241 95.0513 8.40241ZM91.8926 18.0055V14.5132C91.8926 14.4222 91.8926 14.3286 91.8926 14.235C91.8926 14.1414 91.8926 14.0504 91.8926 13.9594C91.8855 13.073 92.1675 12.2084 92.6959 11.4968C92.9416 11.1765 93.2576 10.9169 93.6197 10.7383C93.9817 10.5597 94.3799 10.4668 94.7835 10.4668C95.1872 10.4668 95.5854 10.5597 95.9474 10.7383C96.3094 10.9169 96.6255 11.1765 96.8711 11.4968C97.4093 12.1703 97.6797 13.0908 97.6797 14.235C97.6797 15.3792 97.4197 16.3023 96.8711 16.9966C96.6284 17.3167 96.3135 17.5749 95.9521 17.7503C95.5907 17.9256 95.193 18.0131 94.7913 18.0055H91.8926Z" fill="#191919"/>
<path d="M120.938 4.86133H123.062C123.983 4.86133 124.678 4.99479 125.146 5.26172C125.615 5.52865 125.85 5.98926 125.85 6.64355C125.85 6.91699 125.801 7.16439 125.703 7.38574C125.609 7.60384 125.47 7.78451 125.288 7.92773C125.106 8.06771 124.881 8.16211 124.614 8.21094V8.25977C124.891 8.30859 125.137 8.39486 125.352 8.51855C125.57 8.64225 125.741 8.81966 125.864 9.05078C125.991 9.2819 126.055 9.58138 126.055 9.94922C126.055 10.3854 125.951 10.7565 125.742 11.0625C125.537 11.3685 125.243 11.6012 124.858 11.7607C124.478 11.9202 124.025 12 123.501 12H120.938V4.86133ZM122.109 7.80566H123.232C123.763 7.80566 124.131 7.7194 124.336 7.54688C124.541 7.37435 124.644 7.12207 124.644 6.79004C124.644 6.4515 124.521 6.20736 124.277 6.05762C124.036 5.90788 123.652 5.83301 123.125 5.83301H122.109V7.80566ZM122.109 8.75293V11.0186H123.345C123.892 11.0186 124.276 10.9128 124.497 10.7012C124.718 10.4896 124.829 10.2031 124.829 9.8418C124.829 9.62044 124.779 9.42839 124.678 9.26562C124.58 9.10286 124.419 8.97754 124.194 8.88965C123.97 8.7985 123.667 8.75293 123.286 8.75293H122.109ZM130.315 6.49219C130.797 6.49219 131.211 6.59147 131.556 6.79004C131.901 6.98861 132.166 7.27018 132.352 7.63477C132.537 7.99935 132.63 8.43555 132.63 8.94336V9.55859H129.021C129.035 10.0827 129.174 10.4863 129.441 10.7695C129.712 11.0527 130.089 11.1943 130.574 11.1943C130.919 11.1943 131.229 11.1618 131.502 11.0967C131.779 11.0283 132.063 10.929 132.356 10.7988V11.7314C132.086 11.8584 131.811 11.9512 131.531 12.0098C131.251 12.0684 130.916 12.0977 130.525 12.0977C129.995 12.0977 129.528 11.9951 129.124 11.79C128.724 11.5817 128.41 11.2725 128.182 10.8623C127.957 10.4521 127.845 9.94271 127.845 9.33398C127.845 8.72852 127.947 8.21419 128.152 7.79102C128.357 7.36784 128.646 7.04557 129.017 6.82422C129.388 6.60286 129.821 6.49219 130.315 6.49219ZM130.315 7.35645C129.954 7.35645 129.661 7.47363 129.437 7.70801C129.215 7.94238 129.085 8.28581 129.046 8.73828H131.507C131.504 8.4681 131.458 8.22884 131.37 8.02051C131.285 7.81217 131.155 7.64941 130.979 7.53223C130.807 7.41504 130.586 7.35645 130.315 7.35645ZM136.686 11.1699C136.835 11.1699 136.983 11.1569 137.13 11.1309C137.276 11.1016 137.41 11.0674 137.53 11.0283V11.8975C137.403 11.9528 137.239 12 137.037 12.0391C136.835 12.0781 136.625 12.0977 136.407 12.0977C136.101 12.0977 135.826 12.0472 135.582 11.9463C135.338 11.8421 135.144 11.6647 135.001 11.4141C134.858 11.1634 134.786 10.8167 134.786 10.374V7.46875H134.049V6.95605L134.84 6.55078L135.216 5.39355H135.938V6.59473H137.486V7.46875H135.938V10.3594C135.938 10.6328 136.007 10.8363 136.144 10.9697C136.28 11.1032 136.461 11.1699 136.686 11.1699ZM141.498 6.49219C142.182 6.49219 142.698 6.64355 143.046 6.94629C143.397 7.24902 143.573 7.72103 143.573 8.3623V12H142.758L142.538 11.2334H142.499C142.346 11.4287 142.188 11.5898 142.025 11.7168C141.863 11.8438 141.674 11.9382 141.459 12C141.247 12.0651 140.989 12.0977 140.683 12.0977C140.36 12.0977 140.072 12.0391 139.818 11.9219C139.564 11.8014 139.364 11.6191 139.218 11.375C139.071 11.1309 138.998 10.8216 138.998 10.4473C138.998 9.89062 139.205 9.47233 139.618 9.19238C140.035 8.91243 140.663 8.75781 141.503 8.72852L142.44 8.69434V8.41113C142.44 8.03678 142.353 7.76986 142.177 7.61035C142.004 7.45085 141.76 7.37109 141.444 7.37109C141.174 7.37109 140.912 7.41016 140.658 7.48828C140.404 7.56641 140.157 7.66243 139.916 7.77637L139.545 6.96582C139.809 6.82585 140.108 6.71191 140.443 6.62402C140.782 6.53613 141.133 6.49219 141.498 6.49219ZM142.436 9.41699L141.737 9.44141C141.164 9.46094 140.762 9.55859 140.531 9.73438C140.3 9.91016 140.185 10.151 140.185 10.457C140.185 10.724 140.264 10.9193 140.424 11.043C140.583 11.1634 140.793 11.2236 141.054 11.2236C141.451 11.2236 141.78 11.1113 142.04 10.8867C142.304 10.6589 142.436 10.3252 142.436 9.88574V9.41699Z" fill="#191919"/>
</svg>
