<svg xmlns="http://www.w3.org/2000/svg" width="340.169" height="140.637" viewBox="0 0 340.169 140.637">
  <g id="TB-Type-FA" transform="translate(0.05)">
    <path id="Path_17" data-name="Path 17" d="M13.2,29.934l11.72,11.72,11.72-11.72L24.92,18.8Z" transform="translate(64.396 91.366)" fill="#191919"/>
    <path id="Path_18" data-name="Path 18" d="M108.067,5.9c-6.446,1.758-10.548,8.79-8.79,15.822l3.516,12.306c3.516,14.064-1.758,21.1-16.994,21.1H60.6L59.43,41.645c-1.172-10.548-4.688-18.752-10.548-25.2A25.38,25.38,0,0,0,27.2,7.658,27.021,27.021,0,0,0,6.691,18.792,33.547,33.547,0,0,0,.245,43.4c.586,8.2,3.516,14.65,8.2,19.338s11.134,7.032,19.338,7.032H49.468v.586c1.172,8.79-1.172,14.65-6.446,17.58S24.857,94.384,4.933,98.486l2.344,13.478q9.669-1.758,15.822-3.516c4.1-1.172,8.2-2.344,12.892-3.516a78.262,78.262,0,0,0,10.548-4.1c2.93-1.758,5.274-2.93,7.618-5.274A18.317,18.317,0,0,0,59.43,89.11a48.818,48.818,0,0,0,2.344-8.79,35.422,35.422,0,0,0,0-11.134H85.8c10.548,0,19.338-3.516,25.2-9.962,5.86-7.032,7.032-16.408,4.1-28.713ZM27.787,55.709h0c-9.376,0-14.65-4.688-15.236-13.478a19.646,19.646,0,0,1,3.516-14.064c2.93-4.1,7.032-6.446,11.72-6.446,4.688-.586,9.376,1.758,12.306,5.274,3.516,4.1,5.274,9.376,5.86,16.408l1.172,12.306Z" transform="translate(0 28.673)" fill="#191919"/>
    <path id="Path_19" data-name="Path 19" d="M57.554,11.72,46.42,0,34.7,11.72,46.42,23.44Z" transform="translate(168.883)" fill="#191919"/>
    <path id="Path_20" data-name="Path 20" d="M128.481,59.225c5.86-7.032,7.618-16.408,4.1-28.713L126.137,5.9h0c-7.032,1.758-10.548,8.79-8.79,15.822l3.516,12.306c3.516,14.064-1.758,21.1-16.994,21.1h-21.1L80.43,41.645c-1.172-10.548-4.688-18.752-10.548-25.2A25.38,25.38,0,0,0,48.2,7.658c-8.79.586-15.236,4.1-20.51,11.134a32.806,32.806,0,0,0-6.446,24.025c.586,8.2,3.516,14.65,8.2,19.338s11.134,7.032,19.338,7.032H70.468v.586c1.172,8.79-1.172,14.65-6.446,17.58S45.857,93.8,25.933,97.9l2.344,13.478q9.669-1.758,15.822-3.516c4.1-1.172,8.2-2.344,12.892-3.516a78.259,78.259,0,0,0,10.548-4.1c2.93-1.758,5.274-2.93,7.618-5.274a18.317,18.317,0,0,0,5.274-6.446,48.82,48.82,0,0,0,2.344-8.79,35.423,35.423,0,0,0,0-11.134H102.7C114.417,69.187,122.621,65.671,128.481,59.225ZM48.787,55.709h0c-9.376,0-14.65-4.688-15.236-13.478a19.646,19.646,0,0,1,3.516-14.064c2.93-4.1,7.032-6.446,11.72-6.446,4.688-.586,9.376,1.758,12.306,5.274,3.516,4.1,5.274,9.376,5.86,16.408l1.172,12.306H48.787Z" transform="translate(102.057 28.673)" fill="#191919"/>
    <path id="Path_21" data-name="Path 21" d="M75.01,10.262,64.462.3,54.5,10.262l9.962,9.962Z" transform="translate(265.109 1.458)" fill="#191919"/>
    <path id="Path_22" data-name="Path 22" d="M138.7,5.9h0c-7.032,1.758-10.548,8.79-8.79,15.822l3.516,12.306c4.1,14.064-1.758,21.1-16.994,21.1H93q-6.153,0-8.79-3.516c-1.758-2.344-2.93-8.2-4.1-16.408-.586-4.688-1.172-7.618-1.172-8.2V26.41l-.586-5.86A12.665,12.665,0,0,0,67.8,35.2l4.688,35.159a7.432,7.432,0,0,0,.586,3.516q0,11.427-10.548,17.58c-3.516,1.758-11.134,4.1-24.025,7.618l2.93,12.892c16.408-4.688,27.541-9.376,35.159-15.236,7.032-5.86,9.962-15.236,8.2-28.127A39.568,39.568,0,0,0,93,69.773h24.025c10.548,0,18.752-3.516,24.612-9.962s7.618-15.822,4.1-28.127Z" transform="translate(187.351 28.673)" fill="#191919"/>
    <path id="Path_23" data-name="Path 23" d="M70.11,10.262,59.562.3,49.6,10.262l9.962,9.962Z" transform="translate(241.295 1.458)" fill="#191919"/>
  </g>
</svg>
