<svg width="116" height="24" viewBox="0 0 116 24" fill="none" xmlns="http://www.w3.org/2000/svg">
<path d="M10.8539 13.1912V19.2013C9.61378 18.9607 8.44214 18.4307 7.42694 17.6512L7.34409 17.5875C6.33072 16.7945 5.50329 15.7726 4.92406 14.5987C4.34483 13.4248 4.02889 12.1294 4 10.81V2C4.94532 2.18281 5.85296 2.53512 6.68248 3.04125C6.94087 3.19644 7.19062 3.36671 7.43054 3.55125C8.00469 3.99162 8.52276 4.50616 8.97231 5.0825C10.1925 6.64093 10.8572 8.59075 10.8539 10.6012V10.81H9.71197C9.1069 10.81 8.52661 11.0602 8.09876 11.5056C7.67091 11.951 7.43054 12.5551 7.43054 13.185L10.8539 13.1912ZM18.9289 5.0825C18.2091 5.3291 17.5248 5.67645 16.8949 6.115C16.7856 6.19 16.6775 6.26875 16.5731 6.35C15.8123 6.93289 15.1507 7.64442 14.6158 8.455C14.1384 9.17797 13.7688 9.97195 13.5195 10.81H16.5719C16.5719 11.1229 16.5125 11.4328 16.3971 11.7218C16.2816 12.0107 16.1125 12.2731 15.8994 12.4938C15.6863 12.7145 15.4334 12.8892 15.1552 13.0078C14.877 13.1264 14.579 13.1866 14.2784 13.185H13.1425V22C14.356 21.7649 15.5042 21.2526 16.5046 20.5L16.5731 20.45C17.6361 19.6375 18.5004 18.5757 19.0958 17.3506C19.6912 16.1255 20.0009 14.7717 20 13.3988V13.1975V4.8C19.6369 4.86904 19.2787 4.96342 18.9277 5.0825H18.9289Z" fill="#191919"/>
<path d="M30 6.60296C30 5.98227 30.2465 5.387 30.6853 4.9481C31.1241 4.50921 31.7192 4.26264 32.3398 4.26264H44.0777C44.0777 4.88333 43.8312 5.4786 43.3924 5.91749C42.9536 6.35639 42.3585 6.60296 41.7379 6.60296H38.2829V19.9844H35.8131V6.60296H30ZM52.4126 14.7993H44.4001C44.4001 16.5727 45.44 17.9197 47.2052 17.9197C47.83 17.9182 48.4412 17.7376 48.9665 17.3993C49.4917 17.0611 49.909 16.5793 50.169 16.0111L52.1656 16.7912C51.0217 19.0145 49.6984 19.9792 47.2052 19.9792C43.4798 19.9792 41.9329 16.8354 41.9329 14.1414C41.9329 11.4474 43.4928 8.30619 47.2052 8.30619C50.8189 8.30619 52.4048 11.2472 52.4048 13.7825L52.4126 14.7993ZM44.4469 12.8464H49.9454C49.7426 11.4318 48.7989 10.3761 47.2052 10.3761C45.7026 10.3761 44.7147 11.385 44.4469 12.8464ZM57.1493 19.805H54.8096V8.49082H57.1493V10.3761C57.4768 9.76898 57.958 9.25866 58.5448 8.89627C59.1316 8.53389 59.8033 8.33219 60.4926 8.31139C60.9841 8.30453 61.4723 8.39283 61.9303 8.57143L61.5247 10.7037C61.1239 10.4698 60.6653 10.3535 60.2015 10.3683C59.3721 10.3683 58.6416 10.8181 58.0463 11.7361C57.4509 12.654 57.1493 13.9152 57.1493 15.5976V19.805ZM63.9945 8.49082H66.3343V10.4203C66.7043 9.77768 67.2374 9.24424 67.8798 8.87392C68.5221 8.5036 69.2508 8.30954 69.9922 8.31139C71.9914 8.31139 73.3147 9.54396 73.3147 11.6919V19.805H70.9749V12.4408C70.9749 11.073 70.3925 10.3761 69.2253 10.3761C68.4453 10.3761 67.7642 10.8259 67.1818 11.6997C66.5995 12.5734 66.3291 13.7435 66.3291 15.2257V19.805H63.9893L63.9945 8.49082ZM75.6935 14.1466C75.6443 12.6186 76.182 11.1298 77.1961 9.98602C78.2074 8.86267 79.5775 8.30359 81.2596 8.30359C82.9416 8.30359 84.2831 8.86007 85.2944 9.99382C86.3144 11.1356 86.8603 12.6237 86.8205 14.1544C86.8605 15.6851 86.3147 17.1734 85.2944 18.315C84.284 19.4383 82.9373 20 81.2544 20C79.5723 20 78.2022 19.4383 77.1909 18.315C76.1749 17.1692 75.6371 15.6772 75.6883 14.1466H75.6935ZM78.1632 14.1466C78.1378 15.1011 78.4204 16.0384 78.9692 16.8198C79.2321 17.1763 79.5783 17.4629 79.9776 17.6547C80.3769 17.8464 80.817 17.9374 81.2596 17.9197C81.6991 17.9398 82.1367 17.8496 82.5326 17.6575C82.9285 17.4654 83.2702 17.1775 83.5266 16.8198C84.0929 16.0459 84.3847 15.1052 84.3559 14.1466C84.3851 13.196 84.0929 12.2633 83.5266 11.4994C83.2717 11.1386 82.9309 10.847 82.5352 10.6509C82.1394 10.4547 81.701 10.3603 81.2596 10.3761C80.8152 10.3628 80.3744 10.4582 79.9753 10.654C79.5761 10.8498 79.2308 11.14 78.9692 11.4994C78.4183 12.2702 78.1336 13.1995 78.158 14.1466H78.1632ZM102.065 14.1466C102.016 12.6186 102.554 11.1298 103.568 9.98602C104.579 8.86267 105.947 8.30359 107.632 8.30359C109.316 8.30359 110.66 8.86267 111.672 9.98602C112.693 11.1272 113.239 12.6157 113.198 14.1466C113.24 15.6777 112.694 17.1669 111.672 18.3072C110.661 19.4305 109.314 19.9922 107.632 19.9922C105.947 19.9922 104.579 19.4305 103.568 18.3072C102.552 17.1642 102.013 15.6753 102.06 14.1466H102.065ZM104.535 14.1466C104.51 15.1011 104.792 16.0384 105.341 16.8198C105.604 17.1763 105.95 17.4629 106.35 17.6547C106.749 17.8464 107.189 17.9374 107.632 17.9197C108.071 17.9398 108.509 17.8496 108.905 17.6575C109.301 17.4654 109.642 17.1775 109.899 16.8198C110.465 16.0459 110.757 15.1052 110.728 14.1466C110.757 13.196 110.465 12.2633 109.899 11.4994C109.644 11.1386 109.303 10.847 108.907 10.6509C108.511 10.4547 108.073 10.3603 107.632 10.3761C107.187 10.3628 106.746 10.4582 106.347 10.654C105.948 10.8498 105.603 11.14 105.341 11.4994C104.79 12.2702 104.506 13.1995 104.53 14.1466H104.535ZM95.0513 8.40241C94.4494 8.42187 93.8599 8.5784 93.3277 8.86007C92.8188 9.07599 92.372 9.41565 92.0278 9.8482V4H89.688V19.8934H94.9187C96.8062 19.8934 98.2438 19.2485 99.1277 18.0055C99.7959 17.0746 100.147 15.8108 100.147 14.235C100.147 10.6439 98.3738 8.40241 95.0513 8.40241ZM91.8926 18.0055V14.5132C91.8926 14.4222 91.8926 14.3286 91.8926 14.235C91.8926 14.1414 91.8926 14.0504 91.8926 13.9594C91.8855 13.073 92.1675 12.2084 92.6959 11.4968C92.9416 11.1765 93.2576 10.9169 93.6197 10.7383C93.9817 10.5597 94.3799 10.4668 94.7835 10.4668C95.1872 10.4668 95.5854 10.5597 95.9474 10.7383C96.3094 10.9169 96.6255 11.1765 96.8711 11.4968C97.4093 12.1703 97.6797 13.0908 97.6797 14.235C97.6797 15.3792 97.4197 16.3023 96.8711 16.9966C96.6284 17.3167 96.3135 17.5749 95.9521 17.7503C95.5907 17.9256 95.193 18.0131 94.7913 18.0055H91.8926Z" fill="#191919"/>
</svg>
