<svg xmlns="http://www.w3.org/2000/svg" width="31.535" height="38" viewBox="0 0 31.535 38">
  <g id="Group_77" data-name="Group 77" transform="translate(-1836.465 -33)">
    <g id="TB-Logo" transform="translate(1836.465 33)">
      <path id="Path_8" data-name="Path 8" d="M13.56,21.129V32.481a16.317,16.317,0,0,1-6.78-3l-.158-.158A16.361,16.361,0,0,1,0,16.556V0A16.766,16.766,0,0,1,5.361,1.892,8.665,8.665,0,0,1,6.78,3a12.817,12.817,0,0,1,3,2.838A16.867,16.867,0,0,1,13.56,16.241v.473H11.2a4.576,4.576,0,0,0-4.573,4.573H13.56Z" transform="translate(0)" fill="#191919"/>
      <path id="Path_9" data-name="Path 9" d="M24.96,3.4V19.325h0v.315a16.8,16.8,0,0,1-6.78,13.4l-.158.158A17.6,17.6,0,0,1,11.4,36.039V19.168h2.207A4.576,4.576,0,0,0,18.18,14.6H12.188A14.5,14.5,0,0,1,14.4,10.18,18.03,18.03,0,0,1,18.18,6.238c.158-.158.473-.315.631-.473a18.144,18.144,0,0,1,3.942-1.892A11.047,11.047,0,0,1,24.96,3.4Z" transform="translate(6.575 1.961)" fill="#191919"/>
    </g>
  </g>
</svg>
