<svg width="71" height="24" viewBox="0 0 71 24" fill="none" xmlns="http://www.w3.org/2000/svg">
<path fill-rule="evenodd" clip-rule="evenodd" d="M28.3087 4L29.5655 5.33351L28.3091 6.66701L26.986 5.33351L28.3087 4ZM16.2041 7.93321C15.8396 8.04541 15.5326 8.2957 15.3475 8.63143C15.1625 8.96716 15.1138 9.36215 15.2118 9.73329L15.6077 11.1333C16.0046 12.7334 15.4093 13.5334 13.6896 13.5334H10.8453L10.7129 12.0003C10.6349 10.9399 10.217 9.93372 9.52216 9.13361C9.22391 8.78141 8.84598 8.50667 8.42027 8.33256C7.99456 8.15845 7.53354 8.09008 7.07611 8.13322C6.62086 8.15659 6.17658 8.2825 5.77596 8.50169C5.37534 8.72088 5.02855 9.02778 4.7611 9.39982C4.1631 10.2007 3.90169 11.2065 4.03334 12.1999C4.06312 13.0232 4.39287 13.8064 4.95955 14.4C5.25075 14.6753 5.59438 14.8882 5.9696 15.0257C6.34483 15.1632 6.74385 15.2225 7.14249 15.2001H9.58889V15.2666C9.7213 16.2667 9.45647 16.9332 8.86112 17.2667C8.26578 17.6002 6.8106 18.0002 4.56196 18.4668L4.82645 19.9999C5.55398 19.8666 6.14933 19.7333 6.61249 19.5999C7.07542 19.4665 7.5387 19.3333 8.06767 19.1999C8.47522 19.0735 8.87316 18.9176 9.25837 18.7333C9.56992 18.5723 9.85903 18.3706 10.1182 18.1333C10.3699 17.9381 10.5736 17.6871 10.7135 17.3998C10.8324 17.0755 10.9209 16.7407 10.978 16.3998C11.0443 15.9802 11.0443 15.5527 10.978 15.1332H13.6899C14.2169 15.1576 14.7431 15.0692 15.2337 14.8738C15.7244 14.6784 16.1683 14.3803 16.5363 13.9993C17.1977 13.1993 17.3301 12.1327 16.9993 10.7326L16.2041 7.93321ZM7.14215 13.6C6.08387 13.6 5.48852 13.0665 5.42248 12.0668C5.34756 11.502 5.48953 10.9296 5.81938 10.4668C5.96355 10.2447 6.15957 10.0617 6.39025 9.93387C6.62094 9.80598 6.87924 9.73711 7.14249 9.73329C7.40512 9.71072 7.66922 9.75365 7.91148 9.85829C8.15375 9.96294 8.36673 10.1261 8.53164 10.3333C8.94646 10.8671 9.17851 11.522 9.19302 12.1999L9.32543 13.6H7.14215ZM12.7656 17.7998L14.0888 19.133L15.4119 17.7995L14.0888 16.5332L12.7656 17.7998ZM30.0297 13.9993C30.6911 13.1993 30.8896 12.1327 30.4927 10.7326L29.7652 7.93321C29.581 7.98272 29.4085 8.06913 29.2581 8.18728C29.1077 8.30544 28.9825 8.45291 28.8899 8.62091C28.7973 8.78891 28.7392 8.97399 28.7191 9.16511C28.699 9.35623 28.7174 9.54946 28.773 9.73329L29.1699 11.1333C29.5668 12.7334 28.9714 13.5335 27.2518 13.5335H24.8704L24.6059 12.0003C24.528 10.9399 24.1101 9.93372 23.4152 9.13361C23.1168 8.78127 22.7386 8.50647 22.3127 8.33242C21.8867 8.15836 21.4254 8.09016 20.9678 8.13357C20.5109 8.14917 20.0638 8.27175 19.662 8.49158C19.2602 8.71142 18.9147 9.02249 18.6528 9.40017C18.0636 10.1796 17.8022 11.1614 17.925 12.1334C17.9548 12.9566 18.2845 13.7399 18.8512 14.3335C19.1424 14.6088 19.4861 14.8216 19.8613 14.9592C20.2365 15.0967 20.6355 15.156 21.0342 15.1335H23.4806V15.2001C23.613 16.2001 23.3481 16.8667 22.7528 17.2002C22.1575 17.5336 20.7023 17.9336 18.4536 18.4002L18.7181 19.9334C19.4457 19.8 20.041 19.6667 20.5042 19.5334C20.9671 19.3999 21.4304 19.2668 21.9593 19.1333C22.3669 19.007 22.7648 18.8511 23.15 18.6668C23.4616 18.5058 23.7507 18.304 24.0099 18.0667C24.2616 17.8716 24.4653 17.6206 24.6052 17.3333C24.7241 17.0089 24.8126 16.6741 24.8697 16.3332C24.9359 15.9137 24.9359 15.4862 24.8697 15.0666H27.1194C28.4421 15.1332 29.3683 14.7332 30.0297 13.9993ZM21.0338 13.6C19.9755 13.6 19.3802 13.0665 19.3142 12.0668C19.2392 11.502 19.3812 10.9296 19.7111 10.4668C19.8552 10.2447 20.0512 10.0617 20.2819 9.93387C20.5126 9.80598 20.7709 9.73711 21.0342 9.73329C21.2968 9.71072 21.5609 9.75365 21.8032 9.85829C22.0454 9.96294 22.2584 10.1261 22.4233 10.3333C22.8381 10.8671 23.0702 11.522 23.0847 12.1999L23.2171 13.6H21.0338ZM41.2107 4.19981L42.401 5.3333L41.2107 6.4668L40.086 5.3333L41.2107 4.19981ZM40.8117 7.93321C40.6273 7.98261 40.4547 8.06893 40.3042 8.18704C40.1537 8.30514 40.0284 8.45261 39.9357 8.62062C39.8429 8.78863 39.7848 8.97375 39.7646 9.16492C39.7445 9.35609 39.7628 9.54939 39.8184 9.73329L40.2153 11.1333C40.6782 12.7334 40.0168 13.5335 38.2972 13.5335H35.652C35.4668 13.5517 35.2799 13.5249 35.1072 13.4551C34.9344 13.3854 34.7808 13.2748 34.6594 13.1327C34.4609 12.8662 34.3285 12.1993 34.1964 11.2661C34.159 10.9636 34.1214 10.7255 34.096 10.5639L34.0959 10.5638L34.0959 10.5637C34.0765 10.4404 34.064 10.3616 34.064 10.3326V10.2661L33.998 9.59949C33.8106 9.62871 33.6308 9.69522 33.4692 9.79514C33.3075 9.89506 33.1672 10.0264 33.0564 10.1815C32.9456 10.3366 32.8665 10.5124 32.8237 10.6986C32.781 10.8848 32.7754 11.0777 32.8073 11.2661L33.3366 15.2663C33.3261 15.403 33.3488 15.5403 33.4027 15.6663C33.4102 16.0787 33.3025 16.4848 33.092 16.8385C32.8814 17.1921 32.5765 17.479 32.212 17.6664C31.3307 18.023 30.4242 18.3127 29.5 18.533L29.8309 19.9996C31.683 19.4661 32.9397 18.933 33.7999 18.2664C34.5937 17.5998 34.9246 16.5332 34.7261 15.0663C35.0294 15.1433 35.3398 15.188 35.6523 15.1997H38.3642C38.8811 15.2241 39.397 15.1354 39.8766 14.9397C40.3562 14.7441 40.788 14.4461 41.1425 14.0662C41.8039 13.3327 42.0023 12.2662 41.6054 10.8661L40.8117 7.93321ZM37.9653 4.19981L39.1557 5.3333L37.9653 6.4668L36.8407 5.3333L37.9653 4.19981Z" fill="#191919"/>
<path d="M57.2553 13.1912V19.2013C56.0151 18.9607 54.8435 18.4307 53.8283 17.6512L53.7455 17.5875C52.7321 16.7945 51.9047 15.7726 51.3254 14.5987C50.7462 13.4248 50.4303 12.1294 50.4014 10.81V2C51.3467 2.18281 52.2543 2.53512 53.0838 3.04125C53.3422 3.19644 53.592 3.36671 53.8319 3.55125C54.4061 3.99162 54.9241 4.50616 55.3737 5.0825C56.5938 6.64093 57.2586 8.59075 57.2553 10.6012V10.81H56.1133C55.5083 10.81 54.928 11.0602 54.5001 11.5056C54.0723 11.951 53.8319 12.5551 53.8319 13.185L57.2553 13.1912ZM65.3303 5.0825C64.6105 5.3291 63.9262 5.67645 63.2962 6.115C63.187 6.19 63.0789 6.26875 62.9744 6.35C62.2136 6.93289 61.552 7.64442 61.0172 8.455C60.5398 9.17797 60.1702 9.97195 59.9209 10.81H62.9732C62.9732 11.1229 62.9138 11.4328 62.7984 11.7218C62.683 12.0107 62.5139 12.2731 62.3008 12.4938C62.0876 12.7145 61.8347 12.8892 61.5565 13.0078C61.2784 13.1264 60.9804 13.1866 60.6798 13.185H59.5439V22C60.7573 21.7649 61.9056 21.2526 62.906 20.5L62.9744 20.45C64.0375 19.6375 64.9017 18.5757 65.4971 17.3506C66.0925 16.1255 66.4023 14.7717 66.4014 13.3988V13.1975V4.8C66.0383 4.86904 65.68 4.96342 65.3291 5.0825H65.3303Z" fill="#191919"/>
</svg>
