<svg width="137" height="28" viewBox="0 0 137 28" fill="none" xmlns="http://www.w3.org/2000/svg">
    <path d="M12.6618 15.39V22.4016C11.2151 22.1209 9.84826 21.5027 8.66392 20.5933L8.56726 20.5189C7.38505 19.5938 6.41977 18.4016 5.74403 17.032C5.0683 15.6624 4.69972 14.1511 4.66602 12.6118V2.3335C5.76883 2.54677 6.8277 2.95781 7.79542 3.54829C8.09686 3.72934 8.38822 3.92799 8.66812 4.14329C9.33793 4.65706 9.94231 5.25735 10.4668 5.92975C11.8902 7.74792 12.6657 10.0227 12.6618 12.3683V12.6118H11.3297C10.6238 12.6118 9.9468 12.9038 9.44766 13.4234C8.94853 13.943 8.66812 14.6478 8.66812 15.3827L12.6618 15.39ZM22.0822 5.92975C21.2425 6.21744 20.4442 6.62268 19.7093 7.13433C19.5818 7.22183 19.4557 7.3137 19.3339 7.4085C18.4463 8.08854 17.6745 8.91865 17.0505 9.86433C16.4936 10.7078 16.0624 11.6341 15.7716 12.6118H19.3325C19.3325 12.9769 19.2632 13.3384 19.1285 13.6756C18.9939 14.0127 18.7966 14.3188 18.548 14.5763C18.2993 14.8338 18.0043 15.0376 17.6797 15.1759C17.3552 15.3143 17.0076 15.3846 16.6569 15.3827H15.3318V25.6668C16.7474 25.3926 18.0869 24.7949 19.254 23.9168L19.3339 23.8585C20.5741 22.9105 21.5823 21.6718 22.2769 20.2425C22.9715 18.8133 23.3328 17.2338 23.3318 15.632V15.3972V5.60016C22.9082 5.68071 22.4902 5.79082 22.0808 5.92975H22.0822Z" fill="#191919" />
    <path d="M31.998 7.2537C31.998 6.47783 32.3062 5.73374 32.8547 5.18513C33.4032 4.63651 34.1471 4.3283 34.9228 4.3283H49.5952C49.5952 5.10416 49.2871 5.84825 48.7386 6.39687C48.1901 6.94549 47.4462 7.2537 46.6705 7.2537H42.3516V23.9805H39.2644V7.2537H31.998ZM60.0138 17.4991H49.9982C49.9982 19.7159 51.2981 21.3996 53.5046 21.3996C54.2855 21.3978 55.0495 21.172 55.7061 20.7492C56.3627 20.3263 56.8844 19.7241 57.2093 19.0138L59.705 19.9889C58.2752 22.7681 56.6211 23.974 53.5046 23.974C48.8478 23.974 46.9142 20.0442 46.9142 16.6767C46.9142 13.3093 48.864 9.38274 53.5046 9.38274C58.0217 9.38274 60.004 13.059 60.004 16.2282L60.0138 17.4991ZM50.0567 15.058H56.9298C56.6763 13.2898 55.4967 11.9701 53.5046 11.9701C51.6263 11.9701 50.3914 13.2313 50.0567 15.058ZM65.9347 23.7562H63.01V9.61352H65.9347V11.9701C66.344 11.2112 66.9455 10.5733 67.679 10.1203C68.4125 9.66736 69.2522 9.41524 70.1138 9.38924C70.7282 9.38066 71.3385 9.49104 71.9109 9.71429L71.404 12.3797C70.903 12.0872 70.3297 11.9419 69.7499 11.9603C68.7132 11.9603 67.8001 12.5227 67.0559 13.6701C66.3117 14.8175 65.9347 16.394 65.9347 18.497V23.7562ZM74.4912 9.61352H77.4159V12.0254C77.8784 11.2221 78.5449 10.5553 79.3478 10.0924C80.1507 9.6295 81.0616 9.38693 81.9883 9.38924C84.4873 9.38924 86.1414 10.93 86.1414 13.6148V23.7562H83.2167V14.551C83.2167 12.8412 82.4887 11.9701 81.0296 11.9701C80.0547 11.9701 79.2033 12.5324 78.4753 13.6246C77.7474 14.7167 77.4094 16.1794 77.4094 18.0322V23.7562H74.4847L74.4912 9.61352ZM89.1149 16.6832C89.0534 14.7733 89.7256 12.9123 90.9932 11.4825C92.2573 10.0783 93.9699 9.37949 96.0725 9.37949C98.1751 9.37949 99.8519 10.0751 101.116 11.4923C102.391 12.9195 103.073 14.7797 103.024 16.693C103.074 18.6064 102.391 20.4667 101.116 21.8937C99.853 23.2979 98.1696 24 96.066 24C93.9634 24 92.2508 23.2979 90.9867 21.8937C89.7167 20.4615 89.0444 18.5966 89.1084 16.6832H89.1149ZM92.2021 16.6832C92.1703 17.8764 92.5235 19.0481 93.2095 20.0247C93.5382 20.4703 93.971 20.8286 94.47 21.0683C94.9691 21.308 95.5193 21.4218 96.0725 21.3996C96.622 21.4247 97.169 21.312 97.6638 21.0719C98.1587 20.8318 98.5858 20.4718 98.9062 20.0247C99.6141 19.0574 99.979 17.8814 99.9429 16.6832C99.9795 15.495 99.6142 14.3292 98.9062 13.3743C98.5876 12.9233 98.1617 12.5587 97.667 12.3136C97.1723 12.0684 96.6243 11.9504 96.0725 11.9701C95.5171 11.9536 94.966 12.0728 94.4671 12.3175C93.9682 12.5622 93.5365 12.9249 93.2095 13.3743C92.5209 14.3377 92.165 15.4993 92.1956 16.6832H92.2021ZM122.08 16.6832C122.018 14.7733 122.691 12.9123 123.958 11.4825C125.222 10.0783 126.932 9.37949 129.038 9.37949C131.143 9.37949 132.823 10.0783 134.088 11.4825C135.364 12.909 136.046 14.7697 135.995 16.6832C136.049 18.5972 135.366 20.4587 134.088 21.884C132.825 23.2882 131.141 23.9902 129.038 23.9902C126.932 23.9902 125.222 23.2882 123.958 21.884C122.688 20.4552 122.014 18.5941 122.073 16.6832H122.08ZM125.167 16.6832C125.135 17.8764 125.489 19.0481 126.175 20.0247C126.503 20.4703 126.936 20.8286 127.435 21.0683C127.934 21.308 128.484 21.4218 129.038 21.3996C129.587 21.4247 130.134 21.312 130.629 21.0719C131.124 20.8318 131.551 20.4718 131.871 20.0247C132.579 19.0574 132.944 17.8814 132.908 16.6832C132.944 15.495 132.579 14.3292 131.871 13.3743C131.553 12.9233 131.127 12.5587 130.632 12.3136C130.137 12.0684 129.589 11.9504 129.038 11.9701C128.482 11.9536 127.931 12.0728 127.432 12.3175C126.933 12.5622 126.502 12.9249 126.175 13.3743C125.486 14.3377 125.13 15.4993 125.161 16.6832H125.167ZM113.312 9.50301C112.56 9.52734 111.823 9.723 111.158 10.0751C110.522 10.345 109.963 10.7696 109.533 11.3103V4H106.608V23.8667H113.146C115.506 23.8667 117.303 23.0606 118.408 21.5069C119.243 20.3432 119.682 18.7635 119.682 16.7938C119.682 12.3049 117.465 9.50301 113.312 9.50301ZM109.364 21.5069V17.1416C109.364 17.0278 109.364 16.9108 109.364 16.7938C109.364 16.6767 109.364 16.563 109.364 16.4492C109.355 15.3412 109.707 14.2605 110.368 13.371C110.675 12.9706 111.07 12.6462 111.523 12.4229C111.975 12.1997 112.473 12.0835 112.977 12.0835C113.482 12.0835 113.98 12.1997 114.432 12.4229C114.885 12.6462 115.28 12.9706 115.587 13.371C116.26 14.2129 116.598 15.3636 116.598 16.7938C116.598 18.224 116.273 19.3779 115.587 20.2457C115.284 20.6459 114.89 20.9687 114.438 21.1878C113.986 21.407 113.489 21.5163 112.987 21.5069H109.364Z" fill="#424242" />
</svg>