
<svg id="Layer_1" data-name="Layer 1" xmlns="http://www.w3.org/2000/svg" viewBox="0 0 110 25.23"><defs><style>.cls-1{fill:#fff;}</style></defs><title>White ternobo logo</title><path class="cls-1" d="M9,14.11V21.7a11.05,11.05,0,0,1-4.5-2l-.11-.08a11.07,11.07,0,0,1-3.9-5.55,11.34,11.34,0,0,1-.49-3V0A11,11,0,0,1,3.52,1.31,9.24,9.24,0,0,1,4.5,2a10.91,10.91,0,0,1,2,1.93,11,11,0,0,1,2.47,7v.26H7.5a3,3,0,0,0-3,3Z"/><path class="cls-1" d="M21,3.53V14.11h0v.26a10.85,10.85,0,0,1-.09,1.4,11,11,0,0,1-4.41,7.49l-.09.06A11,11,0,0,1,12,25.23V14.11h1.5a3,3,0,0,0,3-3h-4a11,11,0,0,1,4-5.62q.21-.17.42-.3A11.09,11.09,0,0,1,21,3.53Z"/><path class="cls-1" d="M25,11h0a2.37,2.37,0,0,1,2.38-2.38h12A2.39,2.39,0,0,1,37,11H33.49V24.67H31V11Z"/><path class="cls-1" d="M47.92,19.38H39.73a2.88,2.88,0,0,0,2.87,3.19,3.36,3.36,0,0,0,3-1.95l2,.8c-1.17,2.27-2.53,3.26-5.07,3.26-3.81,0-5.39-3.21-5.39-6s1.58-6,5.39-6,5.32,3,5.32,5.6Zm-8.14-2H45.4a2.72,2.72,0,0,0-2.8-2.52A2.81,2.81,0,0,0,39.78,17.38Z"/><path class="cls-1" d="M52.76,24.49H50.37V12.94h2.39v1.92a4,4,0,0,1,3.41-2.11,4,4,0,0,1,1.47.28l-.41,2.18a2.55,2.55,0,0,0-1.36-.35,2.64,2.64,0,0,0-2.2,1.4,7,7,0,0,0-.91,3.94Z"/><path class="cls-1" d="M59.75,12.94h2.38v2a4.3,4.3,0,0,1,3.74-2.16,3.17,3.17,0,0,1,3.39,3.47v8.27H66.88V17c0-1.4-.6-2.11-1.79-2.11A2.54,2.54,0,0,0,63,16.22a6.57,6.57,0,0,0-.87,3.59v4.68H59.75Z"/><path class="cls-1" d="M71.69,18.71a6.13,6.13,0,0,1,1.54-4.24,5.35,5.35,0,0,1,4.15-1.72,5.28,5.28,0,0,1,4.12,1.72,6.1,6.1,0,0,1,1.56,4.24A6.11,6.11,0,0,1,81.5,23a5.28,5.28,0,0,1-4.12,1.72A5.35,5.35,0,0,1,73.23,23,6.14,6.14,0,0,1,71.69,18.71Zm2.52,0A4.51,4.51,0,0,0,75,21.44a2.76,2.76,0,0,0,2.34,1.13,2.69,2.69,0,0,0,2.31-1.13,4.34,4.34,0,0,0,.85-2.73,4.29,4.29,0,0,0-.85-2.7,2.71,2.71,0,0,0-2.31-1.15A2.77,2.77,0,0,0,75,16,4.46,4.46,0,0,0,74.21,18.71Z"/><path class="cls-1" d="M98.63,18.71a6.09,6.09,0,0,1,1.54-4.24,5.83,5.83,0,0,1,8.27,0A6.15,6.15,0,0,1,110,18.71,6.16,6.16,0,0,1,108.44,23a5.83,5.83,0,0,1-8.27,0A6.09,6.09,0,0,1,98.63,18.71Zm2.52,0a4.51,4.51,0,0,0,.83,2.73,2.75,2.75,0,0,0,2.33,1.13,2.7,2.7,0,0,0,2.32-1.13,4.4,4.4,0,0,0,.85-2.73,4.35,4.35,0,0,0-.85-2.7,2.71,2.71,0,0,0-2.32-1.15A2.77,2.77,0,0,0,102,16,4.46,4.46,0,0,0,101.15,18.71Z"/><path class="cls-1" d="M91.47,12.85a4.14,4.14,0,0,0-1.76.45,3.3,3.3,0,0,0-1.33,1v-6H86V24.58h5.35a5,5,0,0,0,4.29-1.93,6.43,6.43,0,0,0,1.05-3.84C96.68,15.14,94.87,12.85,91.47,12.85Zm-3.23,9.8V18.52A4.2,4.2,0,0,1,89.06,16a2.7,2.7,0,0,1,4.27,0,4.38,4.38,0,0,1,.82,2.8,4.47,4.47,0,0,1-.82,2.81,2.6,2.6,0,0,1-2.13,1Z"/></svg>
