<svg width="236" height="286" viewBox="0 0 236 286" fill="none" xmlns="http://www.w3.org/2000/svg">
<g clip-path="url(#clip0_878_5417)">
<path d="M37.8206 244.374C36.4741 247.208 33.8881 248.6 31.2486 249.882C28.6013 251.15 25.7315 251.891 22.8002 252.061C16.4931 252.445 10.7568 250.802 6.40169 245.826C5.6358 244.888 5.07216 243.802 4.74607 242.636C2.67103 236.064 1.05956 229.409 0.545526 222.481C0.368926 220.072 0.403615 217.682 0.309009 215.282C0.28378 214.678 0.510837 214.023 -0.00634766 213.49V202.176C0.55823 201.173 0.720532 199.993 0.447765 198.875C0.263786 198.002 0.230722 197.104 0.350005 196.22C0.886111 191.667 1.21408 187.088 1.69658 182.541C2.05759 179.129 2.63693 175.744 3.43104 172.407C4.03967 169.887 4.18789 167.176 4.75869 164.606C5.29164 162.213 5.31687 159.763 5.92866 157.379C6.68867 154.415 7.14593 151.373 7.71988 148.363C8.3096 145.273 9.59625 142.401 10.5013 139.41C12.2106 133.741 14.4937 128.306 17.9437 123.513C20.6747 119.715 23.8188 116.172 28.2622 114.141C29.3549 113.628 30.4089 113.037 31.4157 112.371C32.0181 111.977 32.4217 111.87 32.7781 112.604C33.0934 113.259 33.3489 113.939 32.4974 114.346C28.6091 116.194 25.6668 119.258 22.4691 122.004C20.2805 123.894 19.5899 126.706 17.95 128.932C15.3673 132.434 13.8504 136.465 12.6331 140.559C11.9078 143.025 10.5581 145.377 10.6937 148.079C10.6886 148.342 10.6227 148.599 10.5013 148.832C8.71956 152.658 8.81101 156.843 8.16453 160.89C7.8681 162.742 6.84634 164.395 6.75489 166.319C6.56568 170.413 5.14027 174.337 4.92582 178.472C4.82176 180.434 4.12167 182.421 3.95768 184.455C3.74324 187.145 3.28282 189.809 3.17244 192.504C3.0873 194.542 2.62372 196.598 2.73725 198.567C2.92962 201.898 1.79118 205.18 2.51966 208.474C2.917 210.256 2.6048 212.01 2.50073 213.764C2.26002 217.367 2.41335 220.984 2.958 224.553C3.56349 228.332 3.58871 232.212 4.93844 235.912C5.77098 238.186 6.25032 240.602 7.19954 242.875C8.66595 246.383 11.2456 248.437 14.8501 249.444C20.0535 250.899 25.1906 250.673 30.2773 248.994C32.7292 248.198 34.8935 246.701 36.5024 244.689C36.8304 244.059 37.253 243.899 37.8206 244.374Z" fill="#97CDEF"/>
<path d="M35.2755 244.63C31.4912 245.952 28.2178 244.796 25.2692 242.384C23.7852 241.2 22.6453 239.641 21.9675 237.868C20.3907 233.661 18.7414 229.416 18.6562 224.897C18.5805 220.734 19.7757 216.709 21.7215 213.018C23.4213 209.787 26.5527 208.191 29.6432 206.632C30.8069 206.046 32.0053 205.539 33.3014 204.944C31.5354 203.089 31.6268 200.557 30.3528 198.627C30.1289 198.287 30.3843 197.921 30.4348 197.565C30.6051 196.369 30.7186 195.153 30.2519 194.001C29.3689 191.834 29.4919 189.642 29.7851 187.387C30.0599 185.519 30.0429 183.62 29.7347 181.757C29.7158 181.653 29.6212 181.53 29.6559 181.442C30.7943 179.007 29.5013 176.249 30.6808 173.824C31.0672 173.019 31.2523 172.133 31.22 171.242C31.1853 169.626 31.1664 168.048 31.9422 166.499C32.4909 165.406 32.3774 164.411 30.7186 163.958C28.3755 163.328 27.852 161.328 29.3846 159.461C28.1421 159.539 26.9974 159.901 25.8054 159.492C23.5979 158.736 22.7842 156.45 24.2286 154.598C25.6729 152.747 27.647 152.054 29.905 152.205C31.1664 152.29 31.4218 152.025 30.8984 150.785C30.2167 149.26 29.4109 147.794 28.489 146.401C27.0605 144.14 27.0321 142.937 28.2115 141.548C29.0031 140.603 31.0497 140.015 31.9958 140.663C36.2216 143.576 39.6211 147.277 41.1853 152.205C41.8759 154.375 41.1632 156.822 40.2203 158.979C39.8734 159.776 39.5391 160.453 39.8103 161.347C40.173 162.553 39.5454 163.624 39.0598 164.625C38.2343 166.252 37.8867 168.078 38.0569 169.894C38.2493 172.06 38.3723 174.303 37.0793 176.293C36.9042 176.556 36.8313 176.874 36.8744 177.187C37.4578 179.603 36.8964 182.043 36.682 184.399C36.4833 186.603 37.1109 188.656 36.969 190.839C36.846 192.691 36.6883 194.807 37.6249 196.658C37.7388 196.836 37.7868 197.048 37.7605 197.257C36.9847 199.234 38.1925 201.149 37.9308 203.098C37.8267 203.864 38.2462 203.672 38.6782 203.621C40.296 203.426 41.8128 202.787 43.4085 202.532C48.1137 201.773 52.6516 200.359 57.1644 198.92C63.2066 196.989 69.0092 194.511 74.3513 190.984C77.1895 189.113 80.2075 187.52 83.1813 185.86C83.4871 185.713 83.7511 185.492 83.949 185.217C84.1468 184.942 84.2721 184.622 84.3134 184.285C84.5023 183.046 84.6224 181.797 84.6729 180.544C84.7234 177.515 84.5688 174.479 84.7202 171.456C84.9126 167.526 85.1081 163.583 85.7167 159.69C86.1015 157.237 86.3317 154.749 86.9214 152.306C87.489 149.947 87.6877 147.488 88.0819 145.063C88.5477 142.178 89.2405 139.335 90.1538 136.56C91.472 132.57 91.4878 132.51 87.5395 131.376C82.9668 130.063 78.76 128.064 75.0293 125.094C74.8243 124.351 75.5087 124.13 75.865 123.743C80.4913 118.723 83.0804 112.929 83.4083 106.007C83.5382 102.578 83.381 99.1436 82.9384 95.7406C83.3453 95.0887 83.7994 95.4257 84.1999 95.7122C84.5501 95.9992 84.9333 96.2434 85.3415 96.4397C87.6562 98.6 90.3209 100.219 93.1024 101.721C95.8838 103.223 98.3846 105.116 101.034 106.8C102.178 107.531 103.326 108.281 104.503 108.964C107.451 110.686 107.943 113.244 107.243 116.264C106.646 118.975 105.909 121.655 105.035 124.291C104.263 126.536 104.263 128.813 104.323 131.121C104.348 132.066 104.793 132.529 105.78 132.564C110.195 132.712 114.439 131.83 118.545 130.325C120.018 129.731 121.295 128.739 122.232 127.459C122.61 126.974 122.913 126.382 123.6 126.231C123.865 126.262 124.096 126.328 123.998 126.681C121.891 129.906 119.04 131.883 115.121 132.397C111.882 132.819 108.741 133.801 105.433 133.934C102.573 134.047 99.8321 133.323 97.0254 133.14C96.6628 133.115 96.3064 133.001 95.9437 132.979C92.8627 132.781 93.0267 132.834 92.1595 135.795C90.4155 141.778 89.9961 147.979 88.946 154.06C88.3468 157.54 88.3752 161.212 87.8328 164.767C87.2021 168.861 87.6341 173.008 87.3913 177.127C87.2872 178.916 87.1327 180.736 87.0759 182.544C87.0759 182.859 86.9403 183.174 87.2304 183.41C87.6278 183.725 87.8959 183.319 88.2017 183.161C90.5732 181.942 92.8469 180.443 95.3383 179.552C100.289 177.779 105.266 176.066 110.28 174.46C114.802 173.015 119.195 171.135 123.897 170.313C130.223 169.207 136.322 167.189 142.575 165.822C145.47 165.192 148.397 164.704 151.279 163.958C153.487 163.388 155.237 165.135 154.553 166.978C153.124 168.732 151.036 169.582 149.192 170.757C145.238 173.218 141.023 175.235 136.625 176.768C134.567 177.496 132.443 178.024 130.283 178.343C128.646 178.589 126.896 177.867 125.215 177.486C123.834 177.171 122.453 177.53 121.065 177.398C120.371 177.332 119.804 177.896 119.905 178.762C119.99 179.562 120.415 179.977 121.238 179.996C123.112 180.037 124.991 179.911 126.858 180.182C127.694 180.305 128.495 180.497 129.113 181.143C129.876 181.936 130.955 181.914 131.888 182.005C134.219 182.235 135.887 183.221 136.546 185.517C137.132 187.573 135.956 190.451 134.184 191.79C132.572 193.002 130.63 193.204 128.782 193.708C128.448 193.506 128.321 193.147 128.151 192.835C126.546 190.121 124.115 188.908 121.011 188.902C120.601 188.902 120.109 188.789 120.021 189.381C119.993 189.59 120.022 189.803 120.104 189.998C120.186 190.193 120.319 190.362 120.488 190.489C120.585 190.579 120.699 190.648 120.823 190.694C120.946 190.739 121.078 190.759 121.21 190.754C123.471 190.514 125.067 191.843 126.688 193.081C127.243 193.506 127.908 193.673 128.482 194.026C128.949 198.12 126.357 199.915 123.121 201.25C122.569 201.436 122.431 200.957 122.156 200.674C120.45 198.907 118.558 197.524 115.915 197.72C115.436 197.757 114.745 197.443 114.701 198.268C114.657 199.093 115.139 199.553 115.963 199.508C117.451 199.427 118.7 200.031 119.927 200.768C120.357 200.961 120.752 201.224 121.097 201.546C121.793 202.358 122.468 202.393 123.159 201.546C124.49 205.372 122.55 208.2 120.248 209.639C119.327 210.212 118.375 210.741 117.438 211.293C117.318 211.395 117.169 211.46 117.012 211.48C116.854 211.5 116.695 211.473 116.552 211.403C113.714 210.496 110.917 209.557 108.403 207.876C103.014 204.276 97.0759 203.117 90.712 204.27C86.5146 205.032 82.6452 206.66 78.8325 208.584C73.8877 211.075 69.3939 214.231 64.8622 217.329C61.756 219.449 58.9619 222.034 55.821 224.088C52.9828 225.949 50.5356 228.307 47.7384 230.238C45.0736 232.077 42.2669 233.922 40.0878 236.435C39.2616 237.38 38.2493 238.142 37.3884 239.065C36.25 240.284 35.5972 241.622 35.6634 243.297C35.6947 243.534 35.6764 243.775 35.6097 244.004C35.5429 244.234 35.4291 244.446 35.2755 244.63Z" fill="#97CDEF"/>
<path d="M164.443 129.899C163.834 130.712 162.866 131.061 162.131 131.732C161.466 132.96 160.144 133.244 159.031 133.71C156.43 134.803 153.708 135.527 150.832 135.48C142.507 136.11 134.714 134.661 127.88 129.544C127.25 129.078 126.717 128.508 126.14 127.988C127.316 126.476 127.36 126.413 125.868 125.182C122.942 122.745 121.542 119.463 120.69 115.905C119.672 111.644 119.722 107.386 120.492 103.037C121.387 97.9985 123.311 93.3283 124.802 88.5007C125.47 86.326 125.974 84.1051 126.313 81.8559C126.877 78.0612 126.628 74.2696 126.786 70.4875C126.893 67.7918 126.553 64.9418 125.348 62.4131C123.894 59.3521 122.63 56.2155 121.302 53.1042C119.895 49.8164 117.906 46.8468 116.386 43.6315C115.004 40.7059 113.036 38.004 112.453 34.7666C111.57 29.8917 110.217 25.0641 110.678 20.0286C110.794 18.7248 110.397 17.673 109.344 16.8794C109.186 16.6714 109.061 16.4411 108.972 16.1961C108.703 13.7019 108.432 12.902 105.149 12.2942C99.3374 11.2172 93.661 11.9069 87.953 13.5728C82.592 15.1474 78.1423 18.0005 74.2855 21.8834C72.2199 23.965 70.7472 26.4686 69.2398 29.0194C65.8466 34.7792 65.9317 41.1027 65.2442 47.379C64.5568 53.6553 65.5028 59.9252 65.7141 66.1857C65.8434 70.0214 66.5309 73.8697 67.108 77.7022C67.6851 81.5347 68.4514 85.3263 68.1487 89.2218C68.0626 90.1635 68.1276 91.1128 68.341 92.034C69.0411 94.9186 68.7416 97.7686 67.9815 100.578C67.0828 103.897 66.8368 107.433 64.828 110.397C62.4754 113.877 60.8261 117.759 58.5618 121.29C57.149 123.494 56.2093 125.843 56.121 128.489C56.132 128.673 56.1024 128.857 56.0343 129.028C55.9662 129.2 55.8612 129.354 55.7268 129.481C53.1125 128.416 50.2112 128.252 47.6757 126.961C39.9464 122.981 35.3201 116.834 33.9546 108.114C33.3869 104.476 34.4119 101.308 35.7143 98.1024C37.6064 93.4007 40.6244 89.5178 44.5001 86.2585C47.414 83.8053 50.0819 81.0718 52.939 78.5462C56.1809 75.6773 58.3916 72.0085 58.5429 67.225C58.7101 61.8431 58.6407 56.458 58.7763 51.0792C59.0138 40.5709 62.0179 30.3103 67.4864 21.3292C72.4785 13.0626 79.6718 6.69505 89.0789 3.46402C95.7739 1.16513 102.469 1.73198 109.028 4.21981C110.567 4.80241 111.677 6.04947 113.027 6.93439C113.342 7.32173 113.8 7.46974 114.225 7.65239C118.29 9.39073 121.51 12.225 124.143 15.667C126.373 18.5831 127.612 22.0976 129.429 25.2782C131.854 29.5453 132.986 34.3226 134.837 38.8196C135.029 39.3027 135.18 39.8009 135.288 40.3091C137.445 50.018 139.753 59.6985 141.223 69.5427C142.264 76.515 141.617 83.3297 140.031 90.2327C138.416 97.2616 137.719 104.52 139.482 111.713C140.964 117.753 143.963 122.918 149.202 126.451C152.992 129.086 157.632 130.209 162.21 129.6C162.983 129.522 163.78 129.21 164.443 129.899Z" fill="#192D4B"/>
<path d="M227.908 98.1653C227.813 99.2738 228.129 100.055 229.169 100.744C231.594 102.404 232.225 105.153 232.909 107.789C233.934 111.719 234.691 115.7 235.376 119.715C236.754 127.827 235.972 135.417 232.285 142.852C230.497 146.464 227.813 149.408 225.89 152.879C225.23 154.069 224.499 155.209 224.045 156.503C223.397 158.495 222.408 160.358 221.121 162.011C219.04 164.575 218.283 167.815 216.728 170.662C214.13 175.436 212.585 180.664 210.989 185.841C209.45 190.82 207.703 195.736 206.706 200.881C205.76 205.854 203.688 210.543 202.689 215.515C201.828 219.805 201.601 224.242 200.223 228.399C199.028 232.008 197.416 235.569 195.06 238.545C192.657 241.578 189.047 243.086 185.246 243.659C179.198 244.57 174.423 242.189 170.778 237.408C168.69 234.672 166.508 232.055 165.865 228.443C165.016 223.697 165.234 219.197 167.864 215.008C168.085 214.656 168.242 214.265 168.561 213.629C167.104 214.316 166.066 215.005 165.638 216.394C165.502 216.953 165.261 217.481 164.928 217.95C162.844 220.469 162.055 223.511 161.027 226.528C160.381 228.418 160.712 230.685 159.11 232.278C158.995 232.424 158.912 232.591 158.865 232.77C158.817 232.948 158.807 233.135 158.835 233.318C159.416 236.523 158.022 239.458 157.599 242.538C153.774 235.207 152.755 227.737 156.628 219.899C154.058 220.844 152.43 222.579 150.756 224.446C149.608 220.312 150.642 216.888 152.979 213.645C154.763 211.158 156.999 209.028 159.57 207.365C161.284 206.261 163.276 205.663 165.316 205.64C166.732 205.596 168.154 205.64 169.567 205.64C170.44 205.64 171.232 205.602 171.336 206.852C171.393 207.539 171.733 207.551 172.374 207.038C175.259 204.733 176.309 201.256 178.031 198.252C181.5 192.218 185.089 186.209 187.407 179.634C189.299 174.243 190.948 168.747 191.8 163.032C192.683 157.099 192.84 151.159 192.648 145.198C192.522 141.34 191.563 137.53 191.8 133.65C192.178 127.393 192.601 121.179 195.716 115.442C197.113 112.875 198.258 110.038 198.258 106.958C198.404 107.019 198.527 107.125 198.608 107.261C198.688 107.398 198.723 107.556 198.706 107.714C198.734 108.869 199.57 108.472 200.175 108.495C201.122 108.526 200.715 107.802 200.771 107.37C200.91 106.359 200.494 105.279 201.185 104.341C202.061 104.527 201.91 105.267 201.907 105.837C201.87 107.876 202.107 109.91 202.613 111.886C203.036 113.48 202.761 115.221 202.544 116.878C202.339 118.433 202.027 119.976 201.8 121.529C201.096 123.192 201.535 125.094 200.781 126.722C199.747 128.955 200.466 130.876 201.629 132.756C201.996 133.391 202.491 133.944 203.081 134.381C203.671 134.817 204.345 135.128 205.06 135.294C205.511 135.395 206.006 135.47 206.29 135.902C207.899 136.875 209.623 136.805 211.38 136.465C212.039 136.352 212.695 136.28 213.326 136.585C213.774 137.432 212.938 137.498 212.553 137.75C209.246 139.898 206.597 142.917 204.899 146.473C203.294 149.796 202.544 153.433 203.301 157.253C203.682 159.186 203.597 161.208 203.985 163.164C204.029 163.347 204.007 163.54 203.922 163.709C204.452 161.759 205.309 159.722 206.129 157.7C207.075 155.326 207.87 152.803 209.314 150.618C210.09 149.44 210.797 148.215 211.522 147.006C212.068 146.092 212.651 145.214 213.496 144.587C215.924 142.789 218.289 140.899 221.115 139.699C224.398 138.308 226.514 135.659 228.368 132.756C228.778 132.126 228.759 131.606 228.113 131.143C227.893 130.998 227.706 130.807 227.566 130.584C227.426 130.361 227.335 130.11 227.299 129.849C227.244 129.461 227.244 129.068 227.299 128.681C227.911 127.793 227.911 127.793 228.898 129.125C229.453 128.637 229.336 128.029 229.311 127.421C229.182 124.228 228.498 121.094 228.233 117.914C228.128 116.978 228.157 116.032 228.318 115.105C228.68 113.281 229.299 112.818 231.125 112.979C231.777 113.036 232.786 113.609 232.938 112.488C233.073 111.483 231.992 111.392 231.27 111.181C230.547 110.97 229.828 111.256 229.144 111.552C228.621 111.779 228.091 112.088 227.536 111.606C227.189 110.888 227.536 110.217 227.671 109.534C228.378 108 228.933 107.736 230.431 108.11C230.885 108.224 231.557 108.768 231.762 108.088C231.935 107.506 231.194 107.188 230.639 107.018C230.039 106.848 229.426 106.73 228.807 106.665C228.299 106.605 227.747 106.64 227.429 106.101C227.267 105.771 227.2 105.403 227.236 105.037C227.466 103.185 227.627 101.346 227.265 99.4816C227.164 99.0376 227.056 98.285 227.908 98.1653Z" fill="#97CDEF"/>
<path d="M164.443 129.9C162.664 129.761 160.93 130.334 159.135 130.189C154.471 129.808 150.39 128.231 146.795 125.116C142.156 121.101 139.857 115.858 138.681 110.12C137.735 105.56 138.252 100.896 138.615 96.2636C139.006 91.2439 140.772 86.5012 141.305 81.5571C141.699 77.9166 141.422 74.229 140.99 70.6106C140.173 63.9029 138.684 57.2928 137.205 50.7142C136.259 46.466 135.704 42.0918 134.099 37.9948C132.428 33.7308 131.277 29.2401 128.959 25.2533C126.534 21.0933 125.067 16.3381 121.248 13.0188C118.889 10.975 116.587 8.95013 113.623 7.87312C113.125 7.69677 112.677 7.59285 113.027 6.92838C115.944 4.64839 119.154 4.27049 122.598 5.47661C127.174 7.07953 131.113 9.59571 134.112 13.4692C135.654 14.4139 136.609 15.9633 137.672 17.3395C140.119 20.4639 141.885 24.0649 142.857 27.9112C144.9 32.4428 145.925 37.2673 147.019 42.0824C147.934 46.1039 148.501 50.182 149.019 54.2602C149.712 59.7523 150.554 65.2255 150.863 70.7681C151.106 75.2052 151.412 79.6455 152.078 84.048C152.207 84.9046 152.658 84.7031 153.169 84.6779C155.357 84.5991 157.502 84.089 159.741 84.4259C164.332 85.1219 167.804 87.4995 170.368 91.225C173.929 96.399 174.969 102.2 174.894 108.432C174.824 113.981 172.938 118.824 170.27 123.45C168.81 125.966 167.079 128.379 164.443 129.9Z" fill="#121D30"/>
<path d="M55.7388 129.481C55.3604 125.51 57.4134 122.392 59.2866 119.177C61.5193 115.344 63.8404 111.537 65.7167 107.525C67.0538 104.675 67.2935 101.406 68.0031 98.3229C68.5581 95.9327 67.9242 93.5992 67.8107 91.2153C67.6625 88.1134 67.3313 85.0304 67.18 81.9505C67.0349 78.9997 66.1677 76.2159 65.9595 73.3092C65.7924 70.9284 65.2752 68.5666 65.2121 66.1858C65.1175 62.7438 64.8432 59.3238 64.6035 55.8944C64.3165 51.7343 64.736 47.5617 65.1112 43.408C65.3492 40.299 65.7811 37.2079 66.4042 34.1526C66.4545 33.8452 66.5315 33.5428 66.6344 33.2488C69.8983 25.3759 74.8337 18.8729 82.6135 15.1128C86.5899 13.1312 90.9068 11.9215 95.335 11.548C98.8039 11.296 102.188 11.233 105.6 11.907C108.438 12.4581 109.267 13.3997 109.245 16.3158C108.542 17.9722 106.798 18.0699 105.486 18.4478C100.919 19.7828 96.4263 21.3596 92.0269 23.1715C86.3253 25.4861 82.0143 29.5013 79.5861 35.3052C77.9514 39.3949 77.0577 43.7422 76.9466 48.1443C76.8614 51.2336 76.9876 54.3198 76.9623 57.406C76.9623 59.4466 76.7983 61.4999 76.7384 63.5216C76.5528 68.9156 76.9567 74.3136 77.9431 79.6201C78.3846 81.9221 79.3874 83.9817 80.611 85.9562C82.1878 88.5039 82.9572 91.3098 83.3514 94.2542C83.4177 94.7297 83.4681 95.199 83.1938 95.6241C84.8809 104.165 84.1398 112.346 79.5482 119.945C78.3264 121.898 76.8022 123.646 75.0323 125.122C71.0778 127.755 67.0065 130.114 62.1248 130.558C59.9374 130.795 57.7269 130.422 55.7388 129.481Z" fill="#121D30"/>
<path d="M175.445 270.802C175.408 270.355 175.36 269.952 175.338 269.542C175.31 269.045 175.108 268.913 174.625 269.105C172.938 269.779 171.157 269.35 169.438 269.388C168.4 269.413 168.463 269.627 168.59 270.386C169.368 274.99 167.42 278.212 163.055 279.598C160.05 280.542 156.593 278.807 155.726 275.819C155.373 274.597 154.72 274.106 153.462 274.187C151.892 274.293 150.361 274.721 148.965 275.447C146.638 276.637 144.323 277.84 142.059 279.169C138.208 281.43 133.885 282.633 129.643 283.928C127.007 284.74 124.282 285.232 121.598 285.927C120.838 286.126 120.592 286.022 120.554 285.194C120.356 280.549 122.292 276.795 125.443 273.586C127.041 271.955 128.959 270.616 129.056 267.99C129.104 266.73 129.012 265.874 127.48 265.672C126.176 265.522 124.914 265.122 123.762 264.494C122.141 263.581 121.374 261.128 123.172 259.771C124.146 259.04 124.774 258.004 125.461 257.009C127.42 254.175 130.255 252.206 132.752 249.914C134.903 247.939 135.512 246.541 134.777 244.015C134.55 243.244 134.023 242.781 133.465 242.315C133.15 242.05 132.771 241.849 132.425 241.613C129.104 239.351 128.785 237.834 130.532 234.237C132.387 230.417 134.922 227.054 137.316 223.59C139.189 220.869 139.296 217.515 140.198 214.457C141.1 211.4 139.883 208.676 140.103 205.797C140.304 203.463 140.313 201.116 140.129 198.781C140.085 198.312 139.898 197.619 140.684 197.521C141.469 197.424 141.598 198.098 141.658 198.671C141.895 200.844 141.81 203.098 142.371 205.18C143.519 209.428 142.841 213.878 144.168 218.114C144.799 220.104 144.686 222.337 144.799 224.465C144.875 225.767 145.087 227.056 145.43 228.314C145.988 230.417 146.357 232.562 146.824 234.684C147.376 237.204 148.678 239.496 149.347 241.927C149.946 244.097 151.087 245.968 151.999 247.911C152.765 249.564 153.26 251.611 155.133 252.635C155.786 252.99 155.619 253.967 156.111 254.363C157.915 255.815 158.246 258.479 160.586 259.531C161.327 259.865 161.686 260.926 162.33 261.61C163.985 263.357 166.032 264.526 168.126 265.389C170.05 266.182 172.308 266.138 174.455 265.971C174.555 265.954 174.65 265.918 174.736 265.864C174.821 265.81 174.895 265.739 174.953 265.656C176.3 263.767 176.294 263.767 178.287 264.161C178.354 264.163 178.422 264.153 178.485 264.129C178.549 264.105 178.607 264.069 178.656 264.022C181.494 261.389 184.729 259.163 186.82 255.768C187.451 254.726 188.482 253.964 189.063 252.789C189.46 251.989 190.248 252.89 190.8 253.138C191.267 253.346 191.935 253.617 191.513 254.398C190.113 257.031 189.173 259.991 186.303 261.575C185.688 261.912 185.474 262.621 185.105 263.187C184.365 264.409 183.253 265.363 181.932 265.908C179.911 266.677 178.217 268.065 176.187 268.796C175.193 269.205 176.016 270.197 175.445 270.802Z" fill="#97CDEF"/>
<path d="M88.1232 216.608C88.4007 219.052 89.0503 221.461 89.0282 223.93C89.003 226.906 89.3972 229.851 89.8229 232.748C90.5199 237.544 90.5293 242.4 91.2641 247.19C91.5606 249.111 91.4912 251.104 91.5952 253.063C91.8624 257.748 91.7569 262.446 91.2799 267.115C91.0623 269.18 90.1604 271.123 89.9964 273.215C89.9649 273.643 89.6243 273.807 89.1891 273.731C86.2626 273.227 83.3708 273.772 80.5389 274.298C71.3538 276.01 62.4153 278.846 53.9259 282.744C52.6645 283.32 51.217 284.492 49.9083 282.618C48.7888 281.015 48.8392 279.179 50.0786 277.535C52.6614 274.112 55.4775 270.853 59.1041 268.573C61.5702 267.02 63.8344 265.19 66.2753 263.622C68.6342 262.107 71.2831 260.747 72.7874 258.127C73.0601 257.75 73.4027 257.43 73.7965 257.182C74.5747 256.638 75.2072 255.911 75.6382 255.066C75.868 254.625 75.9786 254.131 75.9593 253.634C75.9399 253.137 75.7912 252.654 75.5278 252.232C74.935 251.328 74.0204 251.69 73.251 251.992C72.8574 252.141 72.4363 252.204 72.0162 252.177C71.5961 252.149 71.187 252.031 70.8164 251.832C69.6149 251.268 69.3248 250.015 69.9397 248.85C70.848 247.127 72.5414 246.157 73.8186 244.806C77.5777 240.841 80.7564 236.467 83.9825 232.087C86.108 229.192 86.9627 225.917 86.168 222.428C85.8179 220.891 86.4612 219.279 85.6192 217.846C86.0923 216.662 87.0131 216.451 88.1232 216.608Z" fill="#97CDEF"/>
<path d="M150.841 135.48C152.153 135.187 153.455 134.825 154.78 134.611C157.448 134.185 159.826 133.036 162.131 131.732C164.193 132.258 166.139 132.841 167.7 134.551C171.355 138.563 172.815 143.441 173.777 148.571C174.263 151.181 174.581 153.824 175.086 156.444C175.278 157.458 176.23 158.062 176.467 159.278C176.921 161.574 176.968 163.942 177.643 166.178C178.003 167.371 177.643 168.461 177.564 169.588C177.41 171.906 178.529 174.082 178.217 176.422C177.545 181.476 177.445 186.616 175.915 191.538C175.874 191.667 175.735 191.761 175.546 191.991C175.158 190.007 174.982 188.086 174.389 186.304C173.638 184.062 173.443 181.646 172.251 179.543C171.478 178.185 171.579 176.608 171.336 175.134C170.876 172.331 170.037 171.503 167.277 171.421C163.966 171.32 161.658 167.283 163.32 164.379C164.795 161.793 165.55 158.859 165.505 155.883C165.527 155.084 165.351 154.292 164.992 153.577C164.632 152.863 164.101 152.248 163.446 151.789C159.977 149.27 156.637 150.715 153.213 151.455C150.504 152.041 147.747 152.513 145.013 152.025C143.077 151.682 141.573 148.744 142.099 146.546C142.673 144.134 143.332 141.803 145.448 140.014C147.117 138.604 148.498 136.881 150.63 136.084C150.86 135.987 151.103 135.795 150.841 135.48Z" fill="#97CDEF"/>
<path d="M88.1229 216.608C87.2557 216.955 86.3191 217.15 85.6001 217.817C82.1911 220.337 78.1135 221.534 74.427 223.517C71.9389 224.859 69.4381 226.169 66.9941 227.589C64.1906 229.217 61.3397 230.761 58.5142 232.348C55.6886 233.935 53.0648 235.976 50.3622 237.827C48.3471 239.207 46.4644 240.85 44.0141 241.477C43.4115 241.664 42.8527 241.971 42.3711 242.378C41.0154 243.362 39.4633 244.043 37.8205 244.374C37.5938 244.314 37.3559 244.308 37.1266 244.358C36.8973 244.408 36.6833 244.512 36.5023 244.661L35.2756 244.617C34.7994 241.468 36.4865 239.433 38.5206 237.248C40.9772 234.609 44.2411 233.025 46.6315 230.367C47.1329 229.813 47.9592 229.554 48.6214 229.142C51.2326 227.517 53.2635 225.164 55.8746 223.511C57.9307 222.201 59.7756 220.564 61.7529 219.131C64.4145 217.2 67.1675 215.39 69.785 213.402C71.4658 212.124 73.3359 211.198 75.146 210.152C77.0382 209.053 78.9145 207.791 80.9202 206.981C86.7701 204.623 92.6262 202.645 99.2613 203.791C104.181 204.638 107.946 207.485 112.229 209.441C113.897 210.203 115.698 210.678 117.442 211.286L118.514 211.872C114.48 212.07 111.008 213.223 107.234 213.05C100.639 212.766 94.1147 213.424 88.1229 216.608Z" fill="#4F90B2"/>
<path d="M142.856 27.9111C141.516 26.0216 141.087 23.7322 140.043 21.6947C138.467 18.6305 136.051 16.2466 134.121 13.4785C135.562 11.2993 138.281 10.4679 139.671 8.20054C140.021 7.6337 140.803 7.30618 141.428 6.94088C143.112 5.92685 144.137 4.22316 145.613 2.98239C146.584 2.16676 147.738 1.60936 148.539 0.491411C149.028 -0.185658 150.245 -0.185658 151.031 0.692957C152.705 2.58245 153.761 4.8089 154.78 7.07C155.026 7.6148 154.566 7.69983 154.276 7.84154C152.74 8.58159 151.973 10.2601 150.513 11.0127C149.053 11.7654 147.893 12.8204 146.675 13.7966C145.256 14.9366 143.478 15.7554 142.522 17.6889C147.426 16.6056 152.317 16.0608 157.048 14.6343C159.277 13.9572 161.702 14.3194 163.884 13.2549C164.465 12.9747 165.146 13.3778 165.423 14.1997C165.758 15.1444 165.613 16.0671 165.6 16.9961C165.565 19.3297 165.395 21.66 165.417 23.9936C165.433 25.376 162.642 26.3869 161.201 26.4814C159.375 26.6042 157.543 25.8768 155.704 26.6829C155.073 26.9569 154.244 26.6137 153.497 26.6105C149.968 26.5916 146.559 27.5553 143.061 27.6907C142.986 27.6938 142.92 27.8355 142.856 27.9111Z" fill="#356F94"/>
<path d="M201.273 104.41V109.307C200.226 108.646 199.336 108.737 198.258 109.723V106.961C198.775 104.738 198.504 102.496 198.516 100.253C198.516 98.1529 198.119 96.0052 198.772 93.9236C198.854 93.6816 198.888 93.426 198.873 93.171C198.352 87.7072 201.9 82.9646 207.406 82.9677C210.017 82.9677 212.723 82.6969 215.426 83.1472C217.28 83.4621 219.279 83.9691 221.282 83.4621C222.707 83.1063 226.35 85.635 226.791 87.175C226.998 88.0326 227.326 88.8565 227.766 89.6219C227.924 89.8301 228.027 90.0754 228.064 90.3345C228.101 90.5935 228.071 90.8578 227.977 91.102C227.513 92.2833 227.502 93.5942 227.945 94.7833C228.285 95.8852 228.272 97.0653 227.908 98.1592C227.851 98.2443 227.731 98.3356 227.744 98.408C228.128 101.031 227.649 103.642 227.649 106.259C228.636 107.204 228.217 108.328 227.999 109.408L227.684 111.578C227.835 111.792 228.04 112.034 227.999 112.277C227.564 114.481 228.314 116.717 227.936 118.925C227.829 119.54 227.835 120.169 227.952 120.783C228.122 121.712 228.267 122.672 227.952 123.57C227.394 125.239 227.756 126.939 227.602 128.608V129.792C227.469 133.987 226.101 135.461 221.821 136.358C219.075 136.923 216.258 137.056 213.471 136.755L211.263 136.799C209.579 136.601 207.794 137.114 206.236 136.05C202.373 135.259 200.393 132.768 199.825 128.989C199.752 128.398 199.883 127.799 200.197 127.292C200.897 125.925 200.941 124.341 201.033 122.814C201.061 122.342 201.033 121.91 201.509 121.646C202.597 123.22 202.257 125.069 202.569 126.791C202.615 127.315 202.627 127.841 202.603 128.366C202.707 130.479 203.786 131.65 205.893 131.858C207.2 131.96 208.513 131.971 209.822 131.893C213.114 131.77 216.397 131.55 219.699 131.594C222.796 131.632 224.01 130.529 224.294 127.453C224.63 123.702 224.727 119.933 224.584 116.169C224.473 113.055 224.518 109.912 224.483 106.788C224.429 101.576 224.669 96.317 223.414 91.1744C222.944 89.2534 220.67 87.1309 218.816 87.2695C216.025 87.4773 213.294 86.9703 210.535 86.816C205.366 86.5263 203.266 88.9889 202.335 93.5678C201.837 96.0556 202.02 98.6663 201.941 101.227C201.916 102.348 201.96 103.456 201.273 104.41Z" fill="#192D4B"/>
<path d="M109.589 16.6182C111.021 17.2858 111.251 18.5077 111.106 19.9027C111.065 20.3153 111.157 20.7436 111.125 21.1624C110.835 24.9036 111.907 28.4779 112.386 32.1278C113.165 37.9253 116.486 42.5357 118.984 47.5334C120.469 50.5125 121.976 53.457 123.197 56.5683C124.219 59.1727 125.802 61.607 126.414 64.331C126.943 66.4434 127.241 68.607 127.303 70.7836C127.303 73.2589 126.404 75.753 127.319 78.2156C127.508 78.729 127.218 79.132 127.123 79.5761C126.89 80.6783 126.294 81.7364 126.783 82.9236C126.94 83.2984 126.723 83.6511 126.54 83.9597C125.807 85.1168 125.475 86.4819 125.594 87.8458C125.688 88.8818 124.89 89.6691 124.531 90.5572C123.441 93.1048 122.565 95.7381 121.91 98.4301C121.157 101.828 120.223 105.204 120.393 108.841C120.507 111.313 120.589 113.751 121.207 116.131C121.746 118.213 122.311 120.354 123.563 122.131C124.417 123.343 125.628 124.307 126.716 125.355C127.088 125.718 127.978 125.67 127.735 126.492C127.505 127.245 127.123 127.969 126.142 127.985C125.423 127.569 124.9 126.823 124.004 126.706C123.913 126.599 123.821 126.489 123.733 126.391C121.526 125.484 120.103 123.815 119.353 121.592C119.055 120.591 118.638 119.629 118.113 118.726C117.469 117.698 117.108 116.519 117.066 115.306C116.896 110.557 116.783 105.805 117.404 101.072C117.525 100.402 117.728 99.7495 118.009 99.1292C118.632 97.6301 119.049 96.0539 119.249 94.4432C119.334 93.6024 119.491 92.727 119.968 92.0562C121.749 89.5369 122.377 86.6081 122.859 83.7078C123.298 81.0656 123.49 78.3542 123.806 75.6806C124.08 73.3722 123.326 71.1269 123.834 68.8595C124.055 67.8738 123.373 67.0613 123.115 66.1701C123.132 64.5531 122.658 62.9688 121.756 61.6259C121.283 60.9362 121.213 60.0671 121.027 59.2546C120.675 57.5699 120.006 55.9672 119.056 54.5308C118.832 52.6917 117.407 51.325 117.063 49.53C116.915 48.6544 116.529 47.8363 115.947 47.165C115.333 46.4563 114.871 45.6301 114.588 44.737C114.535 44.4814 114.424 44.2415 114.263 44.0365C114.101 43.8315 113.894 43.667 113.657 43.556C113.387 43.4527 113.16 43.2594 113.015 43.0088C112.871 42.7582 112.817 42.4655 112.863 42.1799C112.926 41.4713 112.617 40.8509 112.386 40.2148C110.71 35.6596 109.7 30.8867 109.387 26.0436C109.223 23.2377 109.64 20.4129 109.195 17.607C109.164 17.4219 109.184 17.2318 109.253 17.0574C109.323 16.883 109.439 16.731 109.589 16.6182Z" fill="#1D567B"/>
<path d="M129.123 181.143C126.666 180.258 124.118 180.421 121.57 180.421C120.977 180.421 119.993 180.692 119.769 179.713C119.615 179.058 118.949 178.387 119.63 177.672C119.941 177.36 120.318 177.123 120.734 176.978C121.149 176.832 121.593 176.784 122.03 176.834C124.364 176.989 126.66 177.502 128.968 177.779C132.153 178.141 135.143 176.954 138.063 175.802C140.438 174.857 142.869 174.063 145.042 172.652C146.704 171.569 148.492 170.684 150.204 169.68C151.667 168.817 153.102 167.907 154.553 167.019C155.184 167.648 155.499 168.366 154.578 168.946C153.083 169.891 152.055 171.323 150.69 172.41C149.163 173.641 147.416 174.504 145.874 175.688C143.987 177.085 141.823 178.063 139.526 178.557C138.533 178.784 137.725 179.373 136.789 179.644C134.282 180.38 131.759 181.076 129.123 181.143Z" fill="#4F90B3"/>
<path d="M99.5327 159.073C101.832 159.073 103.188 160.449 104.165 162.084C105.383 164.121 104.66 166.238 103.484 168.007C102.8 169.037 101.321 169.349 100.359 170.322C99.6115 171.075 96.912 169.969 96.3413 168.968C95.9597 168.294 95.4299 167.708 95.1303 166.99C93.708 163.652 95.4709 160.213 98.9146 158.976C99.1164 158.9 99.4034 159.051 99.5327 159.073Z" fill="#97CDEF"/>
<path d="M98.3219 219.14C100.473 219.083 102.69 220.916 102.996 222.9C103.049 223.259 103.046 223.754 103.273 223.936C104.9 225.259 103.951 226.657 103.472 228.049C103.407 228.221 103.308 228.378 103.182 228.511C103.055 228.644 102.902 228.751 102.734 228.824C100.955 229.702 99.1135 230.339 97.1551 229.526C95.9504 229.029 95.3544 227.876 94.8404 226.761C93.6862 224.242 94.3737 220.51 96.9659 219.244C97.3915 219.051 97.8718 219.014 98.3219 219.14Z" fill="#97CDEF"/>
<path d="M105.767 259.084C105.937 260.215 105.625 261.367 104.506 262.091C103.717 262.602 104.329 263.685 103.408 264.154C101.516 265.099 99.8101 264.664 98.0788 263.808C95.7924 262.674 94.9536 260.224 96.3222 257.604C98.0851 254.231 101.98 253.195 104.758 255.951C105.537 256.728 105.783 257.519 105.767 259.084Z" fill="#97CDEF"/>
<path d="M33.3424 273.784C33.2446 271.675 33.1405 269.936 33.0838 268.198C32.9892 265.345 32.8252 262.488 32.8756 259.635C32.9261 256.782 33.191 253.86 33.3991 250.972C33.4338 250.468 33.1784 249.665 34.1308 249.737C35.0831 249.81 34.8624 250.462 34.8561 251.133C34.8119 255.352 34.6511 259.569 34.7583 263.798C34.8435 267.045 35.3291 270.257 35.2787 273.501C35.2787 274.383 35.4395 275.488 34.0929 275.391C32.7463 275.293 33.6104 274.058 33.3424 273.784Z" fill="#98CEEF"/>
<path d="M128.479 194.026C127.889 194.382 127.445 194.149 126.947 193.758C125.146 192.347 123.427 190.864 120.816 191.132C119.555 191.264 119.514 189.872 119.501 189.009C119.501 188.042 120.498 188.455 120.98 188.48C124.099 188.631 126.761 189.705 128.467 192.527C128.674 192.886 128.783 193.293 128.782 193.708L128.479 194.026Z" fill="#5091B3"/>
<path d="M123.15 201.546C122.775 203.017 122.352 203.121 121.204 202.176C119.599 200.841 117.95 199.685 115.638 199.927C114.314 200.066 114.266 198.85 114.219 197.928C114.156 196.646 115.206 197.348 115.685 197.298C118.016 197.033 119.839 198.28 121.699 199.455C122.428 199.915 122.33 200.907 123.118 201.247C123.125 201.351 123.134 201.452 123.15 201.546Z" fill="#5091B3"/>
<path d="M29.1767 224.535C25.4429 224.513 23.4435 220.274 24.9225 216.416C27.0733 210.811 31.6806 208.109 36.7862 206.229C41.3474 204.56 46.0321 203.249 50.7975 202.308C53.3961 201.788 56.127 201.508 58.5174 200.472C61.2106 199.31 64.0646 198.548 66.6347 196.964C68.7602 195.657 70.8542 194.016 73.4969 193.679C74.023 193.605 74.5044 193.343 74.8529 192.943C76.2405 191.418 78.2083 190.87 79.8986 189.844C83.0112 187.939 86.6062 186.918 89.4539 184.556C90.0794 184 90.8409 183.619 91.6614 183.451C94.2631 182.979 96.3917 181.193 98.9461 180.673C101.087 180.242 103.238 179.984 105.354 179.326C107.767 178.573 109.384 180.299 110.838 181.917C112.084 183.303 111.746 184.793 111.22 186.458C109.895 190.678 106.259 191.45 102.749 192.413C101.504 192.757 100.176 192.813 98.9493 193.305C95.4961 194.684 91.8506 195.371 88.2492 196.218C88.094 196.238 87.9402 196.269 87.7888 196.309C85.266 197.254 82.6548 198.063 80.1824 199.011C76.7608 200.324 73.2698 201.625 69.9333 203.237C67.278 204.522 64.3925 205.341 61.7625 206.667C58.9243 208.093 55.8968 209.139 53.2163 210.88C52.6424 211.252 52.1504 211.973 51.3242 211.249C51.0088 210.984 50.7881 211.415 50.5515 211.586C47.0101 214.105 43.1848 216.171 39.4132 218.306C37.1237 219.603 35.3135 221.515 33.0556 222.819C31.7721 223.543 30.7377 224.686 29.1767 224.535Z" fill="white"/>
<path d="M123.371 65.9526C124.169 67.2343 124.67 68.5381 124.093 70.0969C123.885 70.6606 124.109 71.3188 124.289 71.9392C124.541 72.8209 124.664 73.6586 124.225 74.6412C123.721 75.7749 124.191 77.1006 123.948 78.4044C123.396 81.3678 123.44 84.3878 122.371 87.3386C121.759 89.0328 121.302 90.7113 120.315 92.2638C119.467 93.6022 119.883 95.3909 119.24 96.786C117.619 100.297 117.31 104.076 117.322 107.764C117.322 110.699 116.748 113.81 117.808 116.616C119.158 120.2 120.179 124.092 123.734 126.379C122.983 127.232 122.277 128.123 121.476 128.923C119.779 130.621 117.546 131.269 115.317 131.842C112.187 132.672 108.962 133.09 105.724 133.086C104.317 133.086 103.983 132.472 103.831 131.247C103.374 127.364 104.872 123.853 105.793 120.225C106.332 118.106 107.035 116.034 107.095 113.804C107.15 113.101 107.018 112.396 106.714 111.76C106.409 111.124 105.943 110.579 105.361 110.179C102.633 108.154 99.6025 106.589 96.8462 104.618C93.8913 102.499 90.5391 101.088 87.6063 98.9495C86.6381 98.2346 85.7142 97.5103 85.0109 96.5183C84.8155 96.4469 84.6418 96.3266 84.5063 96.1688C84.1342 95.6807 83.2165 95.372 83.7243 94.5564C84.232 93.7408 84.9668 94.0651 85.6416 94.3927C90.5486 97.7969 95.9601 99.6864 101.964 99.7777C102.33 99.7777 102.693 99.8407 103.059 99.8627C104.071 99.9257 105.033 99.5919 105.969 99.3179C107.253 98.94 106.635 97.6867 106.733 96.8742C107.162 93.2747 108.849 90.261 110.76 87.2945C113.03 83.7548 115.954 80.7537 118.533 77.4691C119.59 76.1111 120.48 74.6308 121.182 73.0603C121.227 72.9088 121.282 72.7605 121.346 72.6163C121.945 70.9535 122.128 69.1963 122.538 67.4926C122.693 66.9194 122.589 66.1857 123.371 65.9526Z" fill="#356F94"/>
<path d="M85.5814 94.7142C85.0422 94.563 84.4493 93.8702 83.9731 94.6858C83.5695 95.3818 84.4272 95.5739 84.6953 96.0053C84.8025 96.1754 84.916 96.3454 85.0296 96.5155C84.1245 96.8304 84.0583 95.4007 83.1942 95.6243C82.6252 91.4921 81.1999 87.5238 79.0094 83.9724C76.947 80.5808 76.8745 76.6002 76.6001 72.7488C76.3131 68.7872 76.0987 64.8318 76.4487 60.845C76.8335 56.4677 76.2217 52.0683 76.5023 47.6752C76.783 43.2822 77.4484 38.9773 79.3405 34.9464C80.8921 33.9418 82.7306 33.9355 84.4399 33.7402C85.7391 33.5922 87.0573 32.7955 88.4228 33.4788C88.6845 33.7309 88.8534 34.0638 88.9021 34.4236C89.5108 36.6847 89.7441 39.056 90.9173 41.1533C91.1822 41.6226 91.2515 42.1674 90.6334 42.5043C88.8706 41.1596 87.5177 41.8461 85.9031 43.0586C84.0803 44.4348 81.7183 44.8882 79.5739 45.7039C77.6628 46.4313 77.4894 46.8879 78.672 48.5822C78.8008 48.7465 78.8952 48.935 78.9495 49.1364C78.9989 49.5032 78.9174 49.8756 78.7193 50.1883C77.4579 52.1533 77.9624 54.0869 78.8044 56.0079C79.4698 57.5289 80.8543 58.1651 82.2734 58.6941C83.1532 59.009 84.115 59.0594 85.0169 59.324C85.695 59.5287 86.2279 59.9884 86.8176 60.3474C89.5392 61.8433 90.4285 63.4966 89.8419 65.9435C89.3815 66.2804 89.0125 65.9183 88.7224 65.6947C85.2314 63.0179 80.1195 66.3245 79.3279 69.8484C79.2895 69.9487 79.2744 70.0564 79.2838 70.1634C79.8577 72.4465 80.028 74.9217 82.2229 76.4617C82.8536 76.8963 83.6956 77.0915 83.9069 77.9859C83.8501 82.7316 84.3642 87.3798 85.9378 91.8925C86.2752 92.8089 87.0068 93.9521 85.5814 94.7142Z" fill="#D2E9F6"/>
<path d="M88.4576 33.696C85.8906 33.7526 83.4119 34.3982 80.889 34.7635C80.375 34.836 79.8578 34.8863 79.3406 34.9462C79.2965 34.3163 79.656 33.8471 79.9429 33.3716C83.3898 27.5677 88.3472 23.7131 94.7994 21.6693C98.899 20.3656 102.923 18.769 107.023 17.4274C107.852 17.1566 108.653 16.996 109.252 16.3284L109.593 16.6433C110.29 22.0724 109.246 27.6212 110.807 33C111.614 35.7744 112.008 38.6685 113.263 41.3106C113.481 41.7672 113.661 42.1892 113.03 42.4632C112.434 42.9482 112.106 42.5293 111.769 42.0979C111.267 41.4492 110.794 41.2917 110.277 42.1136C110.047 42.479 109.681 42.7151 109.24 42.3215C106.259 39.8022 105.856 36.3381 105.771 32.7922C105.745 31.8474 105.629 31.5325 104.667 31.8915C103.264 32.4143 101.762 32.2064 100.315 32.304C96.9564 32.5087 93.7492 33.5637 90.4254 33.929C89.7411 33.9794 89.0694 34.1368 88.4576 33.696Z" fill="#356F94"/>
<path d="M40.8262 100.713C41.4222 97.9795 41.2866 94.9752 42.8066 92.9975C43.945 91.5142 44.2919 89.3161 46.4553 88.3871C47.4802 87.9431 48.442 86.7149 49.3692 85.7922C50.5518 84.6144 52.0907 84.1452 53.494 83.9405C54.623 83.7799 56.1966 83.8901 57.1995 84.8853C57.8964 85.5812 57.6441 88.3493 57.2562 89.2405C56.0736 91.9173 53.3395 93.2841 51.9204 95.753C50.3436 98.5148 48.7101 101.242 48.8015 104.59C48.8796 105.586 48.6318 106.58 48.0951 107.424C47.436 108.369 46.4742 109.064 45.2853 108.756C43.9009 108.394 42.5638 107.877 41.87 106.369C40.9965 104.495 41.4916 102.448 40.8262 100.713Z" fill="#1D567B"/>
<path d="M115.275 28.0937C115.884 26.6735 114.938 24.7777 116.698 23.707C116.783 23.6492 116.855 23.5741 116.909 23.4868C116.963 23.3994 116.998 23.3016 117.012 23.1998C117.026 23.098 117.019 22.9943 116.99 22.8956C116.961 22.7969 116.912 22.7053 116.846 22.6268C116.067 21.4648 116.471 20.5074 118.129 19.2635C119.075 18.5581 119.984 18.6526 120.778 19.5154C121.958 20.7751 122.939 22.0631 122.86 24.0376C122.821 25.5974 123.15 27.1445 123.822 28.5535C124.012 28.9239 124.055 29.3527 123.941 29.7533C123.853 30.0997 123.705 30.506 123.806 30.8114C125.039 34.54 125.127 38.445 125.641 42.2838C125.706 42.7473 125.845 43.1972 126.054 43.6159C126.805 45.0929 125.196 45.9683 125.143 47.2469C125.143 47.4799 124.714 47.2469 124.512 47.1083C121.772 45.0992 120.075 42.2712 118.385 39.4212C116.385 36.0579 115.931 32.2884 115.37 28.5409C115.342 28.3866 115.304 28.2354 115.275 28.0937Z" fill="#1D567B"/>
<path d="M201.273 104.41C201.424 102.13 201.525 99.8442 201.746 97.5705C201.831 96.6698 201.591 95.8196 201.604 94.9252C201.636 92.7208 202.613 90.8817 203.603 89.0772C204.903 86.7028 207.369 86.3595 209.728 86.3438C212.733 86.3217 215.719 87.0334 218.747 86.7469C220.639 86.5705 223.6 89.2473 223.912 91.1084C224.985 97.4666 224.84 103.875 224.915 110.287C224.963 114.447 225.054 118.61 225.067 122.773C225.069 124.391 224.964 126.007 224.751 127.61C224.288 131.137 222.616 132.482 218.939 132.148C216.221 131.899 213.54 132.372 210.835 132.29C209.434 132.246 208.015 132.369 206.606 132.457C203.796 132.633 202.055 130.857 202.071 128.067C202.059 125.923 201.872 123.784 201.513 121.671C201.513 119.955 202.064 118.295 202.143 116.61C202.228 114.721 202.774 112.756 201.951 110.876C201.32 109.477 201.557 108 201.522 106.546C201.487 105.831 201.746 105.078 201.273 104.41Z" fill="#D2E9F6"/>
<path d="M194.575 149.585C194.426 146.092 194.922 142.578 194.259 139.095C194.221 138.893 194.322 138.582 194.215 138.484C192.768 137.183 194.25 135.965 194.3 134.705C194.329 134.04 194.858 133.789 195.432 134.003C196.65 134.45 197.955 134.812 198.542 136.182C199.532 138.493 200.582 140.814 200.197 143.425C199.866 145.667 200.957 147.733 200.866 149.934C200.661 154.727 200.62 159.536 200.194 164.313C199.91 167.462 199.813 170.668 198.618 173.732C197.87 175.65 198.737 177.94 197.763 179.876C195.846 183.674 195.199 187.923 193.402 191.796C192.686 193.342 192.077 195.074 191.371 196.69C190.056 199.703 188.791 202.764 186.259 205.067C185.256 205.98 184.092 206.326 182.938 205.857C181.904 205.435 181.733 204.282 181.639 203.196C181.491 201.527 182.269 199.889 181.749 198.217C181.743 198.139 181.752 198.061 181.777 197.987C181.801 197.913 181.84 197.845 181.891 197.786C184.313 194.589 184.414 190.401 186.719 187.041C188.258 184.78 188.763 181.744 189.721 179.08C190.781 176.138 191.213 173.096 192.168 170.168C192.85 168.086 193.086 165.897 193.562 163.765C194.579 159.111 194.919 154.336 194.575 149.585Z" fill="white"/>
<path d="M213.465 136.78C214.466 136.45 215.525 136.334 216.574 136.44C218.917 136.73 221.14 136.075 223.379 135.609C225.366 135.196 226.508 133.836 227.009 131.899C227.189 131.203 227.4 130.514 227.596 129.818C227.687 130.06 227.716 130.366 227.883 130.526C228.365 130.986 229.368 131.241 229.28 131.874C229.176 132.617 228.526 133.304 228.056 133.975C225.975 136.972 223.297 139.076 219.939 140.733C215.883 142.739 212.15 145.371 210.163 149.931C209.305 151.909 208.394 153.909 207.429 155.852C206.082 158.569 205.603 161.643 203.834 164.313C203.121 161.139 203.026 158.04 202.742 154.954C202.512 152.457 203.313 150.297 203.976 147.966C205.127 143.916 208.075 141.353 210.702 138.503C211.418 137.735 212.55 137.344 213.465 136.78Z" fill="#4F90B2"/>
<path d="M227.602 128.634C227.201 127.135 226.744 125.642 227.435 124.09C227.596 123.761 227.663 123.393 227.627 123.028C227.179 120.632 227.794 118.22 227.441 115.801C227.242 114.441 227.586 113.001 227.684 111.597C228.406 111.795 228.835 111.175 229.393 110.948C230.778 110.378 231.916 110.835 233.108 111.483C233.663 111.798 233.616 112.154 233.423 112.658C233.231 113.162 233.083 113.666 232.399 113.603C232.243 113.58 232.088 113.55 231.935 113.512C229.172 113.055 228.236 113.911 228.526 116.787C228.892 120.396 229.349 123.992 229.746 127.595C229.776 127.954 229.735 128.316 229.623 128.659C229.491 129.106 229.702 129.818 228.879 129.812C228.166 129.812 228.337 129.182 228.151 128.791C228.072 128.627 228.078 127.689 227.602 128.634Z" fill="#5091B3"/>
<path d="M228.002 109.427C228.097 108.35 227.848 107.311 227.652 106.278C229.229 106.375 230.907 106.048 232.067 107.537C232.285 107.818 232.878 108.067 232.383 108.542C232.014 108.888 231.642 109.21 231.024 108.835C229.86 108.13 228.712 107.799 228.002 109.427Z" fill="#5191B3"/>
<path d="M206.243 136.075C207.851 136.768 209.671 136.075 211.27 136.824C209.479 137.237 207.738 137.429 206.243 136.075Z" fill="#EBF1F8"/>
<path d="M88.4573 33.696C91.2766 33.5259 93.9981 32.7512 96.7733 32.3166C98.5756 32.0397 100.392 31.8599 102.213 31.7781C103.33 31.7246 104.392 31.627 105.408 31.1483C106.054 30.8334 106.458 30.8114 106.382 31.8033C106.102 35.4658 106.338 39.0086 109.258 41.7673C109.405 41.9758 109.512 42.2096 109.574 42.4569C109.649 42.5986 109.693 42.7718 109.596 42.8884C108.464 44.1102 108.445 45.3636 109.447 46.6673C108.817 49.3252 109.589 50.6605 112.229 51.432C114.079 51.9503 115.896 52.5814 117.669 53.3215C118.3 53.586 118.93 53.8443 119.296 54.4647C120.684 55.8723 121.075 57.724 121.504 59.5379C121.699 60.3536 121.772 61.2542 122.308 61.8746C123.364 63.1028 123.5 64.4853 123.364 65.9685C122.96 67.7856 122.573 69.6089 122.144 71.4229C122.018 71.9582 121.995 72.5534 121.513 72.9565C121.285 72.7009 121.134 72.3858 121.078 72.048C121.022 71.7101 121.064 71.3634 121.198 71.0481C121.563 69.9459 121.286 68.9917 120.636 68.0942C120.399 67.814 120.2 67.5037 120.043 67.1715C119.119 64.6931 117.013 64.5168 114.868 64.5892C112.724 64.6616 111.444 65.9906 110.517 67.7383C108.309 71.8921 110.889 76.4174 115.458 77.4314C116.616 77.6865 117.921 77.1165 118.814 76.1214C119.387 75.441 119.887 74.7021 120.305 73.917C120.57 73.4509 120.753 72.799 121.529 72.9407C121.112 74.7169 120.069 76.1497 118.984 77.5511C116.357 80.9301 113.374 84.0195 111.012 87.6284C108.804 91.0075 106.966 94.481 107.117 98.6505C107.145 99.4661 106.698 99.5952 106.199 99.7463C104.38 100.319 102.551 100.231 100.646 100.14C98.8105 100.052 97.1139 99.3968 95.3163 99.3622C94.5875 99.3463 93.8721 99.1631 93.2255 98.8268C90.627 97.5514 87.814 96.6759 85.5624 94.7329C86.4012 93.7882 85.8273 92.8434 85.4993 91.9616C83.9793 87.9244 83.5851 83.714 83.4243 79.4626C83.4022 78.8989 83.3044 78.3069 83.7018 77.8062C83.7901 77.5417 84.0171 77.5606 84.2 77.6235C88.7506 79.0659 91.4248 74.4964 91.2419 70.9001C91.1536 69.1208 90.1035 67.7037 89.6494 66.0693C89.5674 62.7375 89.1227 61.7896 86.5684 60.7157C87.0288 59.9379 88.1451 60.1993 88.6213 59.3962C89.3025 58.2783 89.6368 57.1351 89.3908 55.8251C89.23 54.9717 89.0281 53.9356 88.0821 53.9356C87.136 53.9356 86.0007 54.197 85.5813 55.422C85.3038 56.2219 85.0862 56.9966 85.2502 57.8594C85.3668 58.4672 85.4867 59.1191 85.1083 59.6828C83.7365 59.4025 82.2858 59.3868 81.0402 58.6751C77.6469 56.7352 76.6882 53.4916 78.3943 49.9236C78.5154 49.6367 78.6207 49.3434 78.7097 49.045C79.7503 47.8672 81.2672 48.4151 82.5223 48.138C85.2912 47.5491 87.7005 46.2139 90.2423 45.1558C90.9802 44.8408 91.2325 44.2803 90.7153 43.5182C90.504 43.2033 90.0846 42.8884 90.4189 42.4223C91.2356 41.931 90.627 41.4177 90.3905 40.98C89.1764 38.6937 88.8578 36.1775 88.4573 33.696Z" fill="#97CDEF"/>
<path d="M119.293 54.4396C116.833 53.3277 114.296 52.3942 111.702 51.6463C109.069 50.8842 108.123 48.8121 109.242 46.5226C109.406 46.2077 109.662 46.0093 110.002 46.1542C112.29 47.1304 114.602 48.0552 116.94 48.9286C117.124 49.0281 117.293 49.1532 117.441 49.3002C117.489 50.9315 119.018 51.9392 119.211 53.5138C119.236 53.8255 119.264 54.1342 119.293 54.4396Z" fill="#356F94"/>
<path d="M117.432 49.3063C114.909 48.856 112.702 47.6751 110.4 46.639C110.006 46.4626 109.656 46.3052 109.242 46.5288C107.688 45.1431 107.713 44.8188 109.558 42.4349C109.604 42.4121 109.648 42.3835 109.687 42.3498C110.176 41.7767 110.397 40.7753 111.245 40.8131C111.592 40.8319 112.156 41.5909 112.298 42.2648C112.32 42.3687 112.765 42.3876 113.014 42.4475C115.181 44.2866 116.218 46.8531 117.432 49.3063Z" fill="#192D4B"/>
<path d="M89.6684 66.0503C91.4628 68.387 92.062 70.8087 91.1632 73.8067C90.1225 77.2708 86.8744 79.2012 83.7208 77.7872C81.6868 76.7953 79.9681 75.523 79.7284 73.0383C79.6433 72.1628 78.735 71.6999 78.8359 70.6575C79.1198 67.6879 80.9331 65.9118 83.4086 64.8505C85.6287 63.8995 87.8993 64.0128 89.6684 66.0503Z" fill="#EB5B5D"/>
<path d="M90.4315 42.4223C90.6586 42.7655 90.8825 43.1151 91.119 43.452C92.0083 44.7117 91.6299 45.4612 90.0783 45.6722C89.6685 45.7035 89.2739 45.8407 88.9333 46.0704C88.5928 46.3001 88.3179 46.6143 88.1357 46.9823C88.0987 47.0707 88.0566 47.1569 88.0096 47.2405C86.5432 46.6768 85.5309 47.949 84.26 48.1852C82.4215 48.5001 80.5987 48.9473 78.7224 49.0575C77.2339 48.5789 77.5492 47.2625 77.6249 46.2611C77.6848 45.4864 78.7224 45.6313 79.3373 45.3667C82.0588 44.2173 85.1493 43.8394 87.3284 41.5437C88.1925 40.6241 89.1228 40.9012 90.4315 42.4223Z" fill="#192D4C"/>
<path d="M85.1273 59.6827C84.9601 58.1837 84.6637 56.7476 85.1998 55.1857C85.7359 53.6237 87.1487 53.6835 88.1137 53.378C88.839 53.1513 89.5769 54.4236 89.6905 55.5415C89.7882 56.5366 89.9396 57.4531 89.5612 58.4765C89.0219 59.9377 88.1484 60.7124 86.5937 60.703C86.108 60.3534 85.7485 59.8338 85.1273 59.6827Z" fill="#192D4C"/>
<path d="M97.893 56.7603C97.8488 54.2094 98.2714 51.9452 98.1074 49.6558C98.0822 49.3093 98.1074 49.1361 97.7921 48.9315C96.5843 48.0843 96.5559 46.5727 97.7637 45.6658C98.4228 45.1682 99.0661 44.6108 99.9239 44.4345C101.365 44.1384 102.447 45.0139 103.008 46.4027C104.102 49.07 103.563 51.9074 104.124 54.6062C104.342 55.6549 104.727 56.9649 104.588 57.7302C104.254 59.5976 105.275 61.2572 105.036 62.8696C104.757 65.0155 104.71 67.1853 104.897 69.3411C104.989 70.7803 104.345 72.2856 103.951 73.7342C103.768 74.3861 100.223 76.0362 99.536 75.9103C99.4319 75.8914 99.3121 75.8095 99.2206 75.8441C97.6817 76.4929 96.5117 75.6678 95.1715 75.06C93.1658 74.1467 92.3585 73.0004 92.6486 70.7488C92.904 68.6798 94.0393 67.2249 95.7769 66.2392C96.7735 65.6724 96.6473 64.5576 96.8397 63.827C97.4452 61.4493 98.2493 59.0308 97.893 56.7603Z" fill="#356F94"/>
<path d="M121.548 72.9186C120.337 73.6776 120.258 75.1955 119.274 76.1812C117.518 77.9384 115.518 78.3352 113.333 77.1039C110.328 75.4128 109.145 72.7612 109.214 69.4735C109.268 66.9762 112.999 63.9435 115.635 64.1199C118.713 64.3435 120.845 66.1448 121.721 69.1302C122.106 70.4465 121.179 71.6495 121.529 72.9249L121.548 72.9186Z" fill="#EB5B5D"/>
<path d="M99.9143 81.6197C98.3375 81.7488 97.1455 82.8195 96.3855 84.5138C96.1742 84.9924 96.108 85.7293 95.2786 85.5089C94.3987 85.2695 94.9632 84.6145 95.0263 84.2146C95.78 79.8436 100.356 77.8848 104.455 80.7505C105.231 81.2922 106.158 81.7929 106.303 82.9171C106.382 83.5249 106.666 84.2051 105.654 84.3091C104.963 84.3815 104.232 85.0586 103.762 83.7989C103.219 82.3093 101.8 81.563 99.9143 81.6197Z" fill="#1A2E4C"/>
<path d="M110.867 56.9996C110.908 55.3463 112.636 53.2962 114.09 53.2616C115.036 53.2396 115.559 54.2063 115.729 54.8141C116.187 56.417 116.158 58.0956 115.19 59.6134C114.638 60.4795 113.658 60.8479 112.907 60.6338C112.157 60.4196 111.151 59.9284 111.16 58.7159C111.116 58.136 111.017 57.5614 110.867 56.9996Z" fill="#192E4C"/>
<path d="M212.427 111.59L212.474 116.229C211.51 116.05 210.6 115.65 209.816 115.061L209.75 115.01C208.955 114.399 208.309 113.618 207.858 112.724C207.4 111.818 207.146 110.822 207.113 109.808L207.044 103.009C208.011 103.186 208.922 103.587 209.706 104.18C210.155 104.517 210.56 104.91 210.91 105.349C211.87 106.556 212.396 108.049 212.405 109.591V109.751H211.522C211.289 109.755 211.058 109.806 210.845 109.901C210.631 109.995 210.439 110.132 210.28 110.302C209.953 110.656 209.773 111.121 209.778 111.603L212.427 111.59ZM218.602 105.267C218.041 105.463 217.51 105.737 217.025 106.079C216.94 106.139 216.858 106.202 216.779 106.265C215.659 107.148 214.846 108.359 214.455 109.729L216.814 109.704C216.817 109.945 216.773 110.185 216.684 110.409C216.6 110.632 216.471 110.836 216.306 111.008C216.145 111.179 215.951 111.317 215.735 111.411C215.522 111.504 215.293 111.554 215.06 111.556H214.184L214.253 118.358C215.194 118.163 216.078 117.757 216.839 117.171L216.893 117.133C217.713 116.489 218.371 115.663 218.816 114.721C219.267 113.765 219.496 112.719 219.485 111.663V111.508L219.419 105.027C219.138 105.084 218.862 105.159 218.592 105.254L218.602 105.267Z" fill="#1A1A1A"/>
</g>
<defs>
<clipPath id="clip0_878_5417">
<rect width="236" height="286" fill="white"/>
</clipPath>
</defs>
</svg>
