<svg xmlns="http://www.w3.org/2000/svg" xmlns:xlink="http://www.w3.org/1999/xlink" width="1019.745" height="797.909" viewBox="0 0 1019.745 797.909">
  <defs>
    <linearGradient id="linear-gradient" y1="0.5" x2="1" y2="0.5" gradientUnits="objectBoundingBox">
      <stop offset="0" stop-color="gray" stop-opacity="0.251"/>
      <stop offset="0.54" stop-color="gray" stop-opacity="0.122"/>
      <stop offset="1" stop-color="gray" stop-opacity="0.102"/>
    </linearGradient>
  </defs>
  <g id="undraw_empty_xct9" transform="translate(0.004 -0.003)">
    <ellipse id="Ellipse_20" data-name="Ellipse 20" cx="177.88" cy="33.697" rx="177.88" ry="33.697" transform="translate(179.829 715.064)" fill="#2196f3" opacity="0.1"/>
    <path id="Path_292" data-name="Path 292" d="M687.707,167.556c-65.374-2.263-127.637-23.374-187.092-46.465s-118.344-48.667-182.152-60.9c-41.041-7.869-87.98-8.99-121.041,12.99-31.828,21.212-42.111,57.728-47.637,91.637-4.162,25.515-6.606,52.374,4.788,76.263,7.919,16.586,21.96,30.525,31.677,46.414,33.808,55.273,9.909,123.435-26.717,177.4-17.172,25.313-37.121,49.5-50.384,76.414s-19.394,57.869-7.788,85.4c11.5,27.273,38.9,47.717,68.586,62.111,60.293,29.243,131.314,37.606,200.617,42.354,153.364,10.485,307.537,5.95,461.305,1.394,56.909-1.677,114.061-3.384,170.041-12.182,31.091-4.889,63.182-12.646,85.758-31.374,28.647-23.768,35.748-64.01,16.546-93.808-32.2-50-121.213-62.414-143.748-116.061-12.384-29.535.333-62.424,18.344-89.808,38.626-58.758,103.364-110.3,106.768-177.455,2.343-46.121-28.778-92.314-76.9-114.142-50.435-22.879-120.384-20-157.576,17.869C812.768,154.566,745.435,169.566,687.707,167.556Z" transform="translate(-95.23 -55.03)" fill="#2196f3" opacity="0.1"/>
    <path id="Path_293" data-name="Path 293" d="M633.505,419.454,602.566,398.6h0l15.606-23.232-81.718-6.515-29.364,22.707-36.758-20.606-30.657,3.687-.364-8.081a228.05,228.05,0,0,0-2.535-25.152c.131-2.525.222-5.424.212-8.576,0-13.283-1.8-30.889-9.7-42.626l1.818-16.343-14.748-17.424a111.5,111.5,0,0,1,8.081-13.6c.505-.727,1.01-1.434,1.556-2.121a36.676,36.676,0,0,0,34.243-36.364,23.256,23.256,0,0,0-.1-2.657,9.616,9.616,0,0,0-.111-1.071c1.869,1.01,3.758,2.02,5.647,3.03.354.505.758,1.01,1.2,1.606h0l.091.111.566.7.182.212c.2.242.414.475.626.717l.141.162c.535.6,1.1,1.2,1.707,1.8a1.814,1.814,0,0,1,.2.192l.758.707.212.192c.646.576,1.333,1.131,2.02,1.657l.222.162.869.6.283.182c.333.2.677.414,1.01.606l.121.071c.394.212.8.414,1.2.606l.2.081q.515.222,1.01.424l.313.111c.354.121.7.232,1.061.333l.222.061c.444.111.889.2,1.343.273h.051a10.977,10.977,0,0,0,1.293.131h.293a11.107,11.107,0,0,0,1.162,0h.252a11.961,11.961,0,0,0,1.444-.172,15.939,15.939,0,0,0,6.364-2.283,5.552,5.552,0,0,0,1.293-1.2c2.02-2.646-.2-5.545-.2-5.545h0c-.788-1.879-5.9-3.2-5.9-3.2s-16.162-6.747-16.162-12.121-4.04-33.253-45.748-39.626c0,0-27.131-1.525-34.758,13l-.162,1.7c-2.242,1.4-4.1,4.222-6.313,5.051a10.315,10.315,0,0,0-2.737,1.01v-.192h0a2.605,2.605,0,0,0-.616.8,8.08,8.08,0,0,0-.838,3.03,11.413,11.413,0,0,1-1.323,3.667,8.164,8.164,0,0,1-.606.929h0l-.172.273a7.374,7.374,0,0,0,3.434-.556,17.1,17.1,0,0,1-1.01,4.04,3.353,3.353,0,0,0,3.111-1.859V182l.131-.182a8.53,8.53,0,0,0,.626-1.465l-.111.121c.2-.657.384-1.323.606-1.97a3.091,3.091,0,0,1,.495-1.01,2.444,2.444,0,0,1,2.091-.7l-.414,8.758H385a11.95,11.95,0,0,1-.889,1.838c-1.434,2.323-4.04,3.909-5,6.455a9.494,9.494,0,0,0-.465,3.818c0,.758.091,1.525.151,2.283v-.061c.141,2.02.182,3.939-.909,5.566-.747,1.111-1.949,1.949-2.364,3.212a3.131,3.131,0,0,0-.151,1.091A12.251,12.251,0,0,0,376.06,213a.142.142,0,0,0,0-.061,4.929,4.929,0,0,1,.172,2.384c-.455,2.02-2.909,3.707-2.788,5.636a2.171,2.171,0,0,0,.111.747,4.091,4.091,0,0,0,2.283,2.02,8.889,8.889,0,0,0,5.131,1.131,6.748,6.748,0,0,0,1.919-.657c-.707,1.626-1.434,3.232-2.172,4.758-.111.242-.232.485-.354.727,0,0-6.242-4.172-9.788,4.333a18.869,18.869,0,0,0-2.192,5.7,13.568,13.568,0,0,1-.747,2.343,15.081,15.081,0,0,1-6.747,6.061c-7.232,3.313-36.445,39.748-36.96,49.182a55.041,55.041,0,0,1-1.859,10.889,64.8,64.8,0,0,0-1.737,25.747,49.262,49.262,0,0,0,1.788,8.212c3.1,9.424,5.172,27.01,5.172,27.01l3.354,30.525a86.863,86.863,0,0,0,.545,12.616c-3.424,3.909-17.172,20.2-11.919,24.636,4.04,3.495,11.111,2.919,15.081,2.2-3.343,8.273-8.606,22.657-9.3,32.535-1.01,14.616,1.727,33.98,6.061,41.414S349.888,539.6,349.888,539.6s-.677,26.162,4.485,35.667,7.243,29.222,7.243,29.222,4.818,16.646,2.4,22.768,4.475,11.212-2.758,15.283-16.485,95.819-16.485,95.819-3.727,60.132,0,63.192a3.782,3.782,0,0,0,.636.374v20.2s-2.586,4.242,7.929,5.1c7.2.576,27.616,1.879,39.728,2.636l9.384.586s22.222,4.424,32.041,0,27.222-4.323,24.636-16.01a33.245,33.245,0,0,0-1.374-4.677c-2.838-7.253-7.657-8.081-16.535-10.1-.515-.111-1.01-.212-1.465-.293-9.354-1.626-12.424,2.727-17.667-2.939-4.556-4.9-19.061-10.384-24-12.121.121-.364.273-.717.394-1.091a7.4,7.4,0,0,1-3.748-1.828l13.384.849,7.97.495s18.889,3.768,27.273,0,23.131-3.667,20.929-13.6a28.506,28.506,0,0,0-1.162-3.98c-2.414-6.162-6.515-6.838-14.061-8.545-.434-.091-.838-.182-1.242-.253-7.949-1.384-10.556,2.313-15.01-2.495-3.818-4.1-15.869-8.7-20.2-10.263,0-2.242-3.03-5.434-4.939-8.636-2.242-3.737,1.9-16.818,1.9-16.818l2.364-54.273a10.486,10.486,0,0,1,2.828-.808s10.687-10.2,8.273-21.071a69.824,69.824,0,0,1-.768-9.929c3.515-3.263,8.354-8.081,9.727-11.051,2.242-4.838,0-28.283,0-28.283V503.081l17.879,1.808,16.222,1.667,4.939.505,16.222,1.636,37.283,3.768,33.6-6.364,14.535-2.747,29.889-5.657V424.565ZM387.434,177.12l-2.081-.222C386.04,176.928,386.767,177.059,387.434,177.12Z" transform="translate(-92.978 -54.059)" fill="url(#linear-gradient)"/>
    <path id="Path_294" data-name="Path 294" d="M559.344,464.146c-10.1,14.455-46.414,6.8-46.414,6.8l-28.141-26.333L481,441.045l6.354-13.495s2.02.556,5.485,1.545C511.03,434.378,567.869,451.995,559.344,464.146Z" transform="translate(-91.332 -51.266)" fill="#efb7b9"/>
    <path id="Path_295" data-name="Path 295" d="M492.818,429.1c-1.242,4.323-4.646,10.8-8.03,15.515L481,441.045l6.354-13.495S489.394,428.106,492.818,429.1Z" transform="translate(-91.332 -51.266)" opacity="0.1"/>
    <path id="Path_296" data-name="Path 296" d="M397.4,278.424s-25.94,11.505-24.667,39.758a465.8,465.8,0,0,0,5.94,54.3s-5.3,42.515,16.778,53.475,42.515,19.97,42.515,19.97,34.546,3.717,38.839,5.253,17.707-21.94,15.232-25.6-34.182-11.323-38.222-17.424-13.384-9.869-13.384-9.869-9.646-5.838-10.3-11.111,1.889-9.2,2.535-11.515,2.283-24.647,2.283-24.647S445.832,271.525,397.4,278.424Z" transform="translate(-92.426 -52.777)" fill="#dce6f2"/>
    <path id="Path_297" data-name="Path 297" d="M414.424,370.39s-35.586,5.96-32.142,18.414C382.282,388.8,395.2,375.36,414.424,370.39Z" transform="translate(-92.332 -51.843)" opacity="0.1"/>
    <path id="Path_298" data-name="Path 298" d="M414.532,375.38s-19.566,15.97-15.737,16.788S414.532,375.38,414.532,375.38Z" transform="translate(-92.167 -51.793)" opacity="0.1"/>
    <path id="Path_299" data-name="Path 299" d="M423.711,380.89s-5.242,10.737-2.02,10.01S423.711,380.89,423.711,380.89Z" transform="translate(-91.942 -51.737)" opacity="0.1"/>
    <path id="Path_300" data-name="Path 300" d="M495.213,431.737l-2.162-.616c.616-2.02.788-3.657.283-4.414-2.475-3.657-34.162-11.313-38.192-17.424s-13.384-9.869-13.384-9.869-9.646-5.838-10.3-11.111,1.889-9.2,2.535-11.515,2.283-24.657,2.283-24.657,10.859-79.485-37.576-72.586c0,0-25.94,11.515-24.677,39.768a464.509,464.509,0,0,0,5.95,54.3s-5.3,42.515,16.778,53.475,42.515,19.97,42.515,19.97,34.536,3.707,38.839,5.253c1.626.586,4.566-2.434,7.445-6.586l1.636,1.525,28.142,26.323s36.313,7.667,46.414-6.788C570.274,454.626,513.445,437.01,495.213,431.737Z" transform="translate(-92.413 -52.766)" opacity="0.1"/>
    <path id="Path_301" data-name="Path 301" d="M382.431,173.5a8.586,8.586,0,0,0-2.8,1.081c-1.01.838-1.01,2.273-1.263,3.525a11.6,11.6,0,0,1-2.02,4.828,7.262,7.262,0,0,0,3.364-.556,17.311,17.311,0,0,1-1.01,4.04,3.273,3.273,0,0,0,3.03-1.848A19.454,19.454,0,0,0,383,181.023a2.918,2.918,0,0,1,.485-1.01c.929-1.1,2.657-.606,4.091-.465a6.717,6.717,0,0,0,6.141-2.95c1.525-2.313,1.616-8.232-2.02-8.859C387.9,167.114,385.532,172.347,382.431,173.5Z" transform="translate(-92.389 -53.892)" fill="#965d7b"/>
    <g id="Group_103" data-name="Group 103" transform="translate(284.112 120.425)" opacity="0.1">
      <path id="Path_302" data-name="Path 302" d="M379.516,175.755c.091-.495.151-1.01.263-1.505h0c-.96.838-1.01,2.263-1.263,3.525a11.107,11.107,0,0,1-.6,2.131A11.575,11.575,0,0,0,379.516,175.755Z" transform="translate(-376.486 -174.25)"/>
      <path id="Path_303" data-name="Path 303" d="M379.854,184.04a16.8,16.8,0,0,0,1.01-4.04,7.232,7.232,0,0,1-3.2.556,11.689,11.689,0,0,1-1.162,2.02,7.192,7.192,0,0,0,3.354-.545,16.793,16.793,0,0,1-1.01,4.04,3.283,3.283,0,0,0,3.03-1.848,7.541,7.541,0,0,0,.606-1.444A3.03,3.03,0,0,1,379.854,184.04Z" transform="translate(-376.5 -174.192)"/>
      <path id="Path_304" data-name="Path 304" d="M388.648,177.225c-1.434-.141-3.172-.636-4.1.465a3.121,3.121,0,0,0-.485,1.01c-.091.263-.172.535-.242.808.96-.758,2.515-.354,3.818-.222a6.748,6.748,0,0,0,6.141-2.95,5.6,5.6,0,0,0,.677-1.586,6.727,6.727,0,0,1-5.808,2.475Z" transform="translate(-376.426 -174.245)"/>
    </g>
    <path id="Path_305" data-name="Path 305" d="M317.292,201l15.4,18.525-2.01,18.7L312.07,209.081Z" transform="translate(3.154 2.031)" fill="#dce6f2"/>
    <path id="Path_306" data-name="Path 306" d="M332.686,219.525,330.8,237.111l-.121,1.111-16.8-26.3-1.808-2.838.525-.818L317.282,201l1.04,1.253Z" transform="translate(3.154 2.031)" opacity="0.1"/>
    <path id="Path_307" data-name="Path 307" d="M436.268,231.472c-5.212,1.495-10.192,6.626-14.525,12.859a109.738,109.738,0,0,0-7.839,13.475c-1.424,2.849-2.677,5.586-3.717,7.97l-.727,1.7c-1.758,4.152-2.737,6.929-2.737,6.929s-39.9-30-33.586-32.02c2.121-.677,4.909-5.222,7.667-10.95l.343-.727c1.747-3.677,3.465-7.778,4.99-11.636,3.121-7.929,5.434-14.818,5.434-14.818S452.178,226.927,436.268,231.472Z" transform="translate(-92.428 -53.522)" fill="#efb7b9"/>
    <path id="Path_308" data-name="Path 308" d="M459.26,202.58s9.212,16.667,21.586,14.394,7.283-8.95,7.283-8.95Z" transform="translate(-91.551 -53.539)" fill="#444053"/>
    <path id="Path_309" data-name="Path 309" d="M442.332,774.123c-8.162,3.727-26.616,0-26.616,0l-7.778-.485c-10.1-.646-27.01-1.737-32.99-2.222-8.727-.717-6.586-4.293-6.586-4.293V745.517l42.344-10.727s16.737,5.727,21.323,10.727c4.354,4.768,6.9,1.1,14.667,2.475.384.071.788.151,1.212.252,7.374,1.687,11.374,2.354,13.737,8.465a28.383,28.383,0,0,1,1.141,3.939C464.969,770.487,450.484,770.416,442.332,774.123Z" transform="translate(-92.472 -48.161)" fill="#a36468"/>
    <path id="Path_310" data-name="Path 310" d="M461.646,756.577a31.646,31.646,0,0,1-4.768,2.444c-5.556,2.535-10.838,5.626-16.455,8.02s-11.667,4.1-17.748,3.646c-3.182-.232-6.434-1.01-9.475-.1a21.883,21.883,0,0,0-5.263,2.919c-10.1-.646-27.01-1.737-32.99-2.222-8.727-.717-6.586-4.293-6.586-4.293v-2.525c.313,0,.667-.091,1.071-.121a19.069,19.069,0,0,1,6.162.919c4.384,1.192,8.747,2.364,13.131,3.535a10.374,10.374,0,0,1,5.051-6.444,16.1,16.1,0,0,1,8.141-1.869c6.8.091,13.232,3.313,20.02,3.636a11.03,11.03,0,0,0,5.546-.929c.929-.465,1.747-1.141,2.656-1.657a19.4,19.4,0,0,1,4.576-1.546,100.751,100.751,0,0,0,13.081-4.222c1.212-.475,2.626-1.333,2.465-2.626-.212-1.717-2.909-1.919-3.616-3.5a2.02,2.02,0,0,1,.081-1.788c.384.071.788.151,1.212.253C455.282,749.8,459.282,750.466,461.646,756.577Z" transform="translate(-92.472 -48.029)" opacity="0.1"/>
    <path id="Path_311" data-name="Path 311" d="M433.923,820.993c-9.6,4.384-31.313,0-31.313,0l-9.141-.535c-11.839-.758-31.778-2.02-38.818-2.616-10.273-.849-7.747-5.051-7.747-5.051V787.326L396.731,774.7s19.7,6.737,25.091,12.626c5.121,5.606,8.081,1.293,17.263,2.909.455.081.929.182,1.424.293,8.677,2.02,13.384,2.778,16.162,9.97a32.422,32.422,0,0,1,1.343,4.636C460.519,816.71,443.519,816.619,433.923,820.993Z" transform="translate(-92.69 -47.757)" fill="#a36468"/>
    <path id="Path_312" data-name="Path 312" d="M456.651,800.342a37.613,37.613,0,0,1-5.606,2.879c-6.535,2.98-12.758,6.616-19.364,9.434s-13.727,4.818-20.889,4.293c-3.737-.273-7.566-1.212-11.111-.121a25.76,25.76,0,0,0-6.212,3.475c-11.839-.758-31.778-2.02-38.818-2.616-10.273-.849-7.747-5.051-7.747-5.051v-2.97a12.6,12.6,0,0,1,1.263-.141,22.159,22.159,0,0,1,7.253,1.081l15.444,4.162a12.223,12.223,0,0,1,5.99-7.586,18.848,18.848,0,0,1,9.586-2.2c8,.111,15.566,3.9,23.556,4.283a13.04,13.04,0,0,0,6.505-1.081c1.1-.556,2.02-1.354,3.131-1.949a21.972,21.972,0,0,1,5.384-1.818,120.889,120.889,0,0,0,15.313-4.97c1.424-.566,3.091-1.576,2.9-3.091-.253-2.02-3.424-2.263-4.263-4.121a2.434,2.434,0,0,1,.1-2.1c.455.081.929.182,1.424.293C449.166,792.362,453.873,793.15,456.651,800.342Z" transform="translate(-92.69 -47.602)" opacity="0.1"/>
    <path id="Path_313" data-name="Path 313" d="M411.881,647.54l-2.7,63.465s-4.04,12.96-1.848,16.667,5.889,7.4,4.545,9.6-17.505,25.889-22.727,16.8-10.374-48.485-10.374-48.485l4.818-48.657Z" transform="translate(-92.365 -49.043)" fill="#444053"/>
    <path id="Path_314" data-name="Path 314" d="M423.282,491l7.495,10.02v87.152s2.192,23.232,0,28.03-13.3,14.394-13.3,14.394l-9.343-47.98,2.02-50.758Z" transform="translate(-92.068 -50.624)" fill="#444053"/>
    <path id="Path_315" data-name="Path 315" d="M411.881,647.54l-2.7,63.465s-4.04,12.96-1.848,16.667,5.889,7.4,4.545,9.6-17.505,25.889-22.727,16.8-10.374-48.485-10.374-48.485l4.818-48.657Z" transform="translate(-92.365 -49.043)" opacity="0.1"/>
    <path id="Path_316" data-name="Path 316" d="M423.282,491l7.495,10.02v87.152s2.192,23.232,0,28.03-13.3,14.394-13.3,14.394l-9.343-47.98,2.02-50.758Z" transform="translate(-92.068 -50.624)" opacity="0.1"/>
    <path id="Path_317" data-name="Path 317" d="M431.6,454.443v47.142l-8.414,36.7s-2.7,88.556-.343,99.324-8.081,20.879-8.081,20.879-6.061.677-6.061,5.384-10.1,18.182-10.1,18.182l.333,26.263s4.384,49.162-2.354,58.586,2.354,10.778,2.354,10.778c-8.414,27.606-48.818,21.212-52.465,18.182s0-62.627,0-62.627,9.03-90.909,16.1-94.95.343-9.091,2.7-15.152-2.354-22.556-2.354-22.556-2.02-19.535-7.071-28.96-4.384-35.354-4.384-35.354S337.313,517.4,333.111,510s-6.909-26.6-5.9-41.081c.687-9.788,5.828-24.04,9.091-32.243,1.566-3.929,2.7-6.475,2.7-6.475l.96.253L395.132,444.9Z" transform="translate(-92.888 -51.239)" fill="#444053"/>
    <path id="Path_318" data-name="Path 318" d="M436.132,231.473c-5.212,1.495-10.192,6.626-14.525,12.859h-1.131a36.081,36.081,0,0,1-31.313-18.111A35.533,35.533,0,0,1,385.99,219c3.121-7.929,5.434-14.818,5.434-14.818S452.041,226.928,436.132,231.473Z" transform="translate(-92.292 -53.523)" opacity="0.1"/>
    <path id="Path_319" data-name="Path 319" d="M456.6,206.562a36.111,36.111,0,1,1-67.556-17.7,35.278,35.278,0,0,1,3.818-5.515,36.545,36.545,0,0,1,8.3-7.293,36.111,36.111,0,0,1,55.384,27.859C456.572,204.8,456.6,205.683,456.6,206.562Z" transform="translate(-92.308 -53.864)" fill="#efb7b9"/>
    <path id="Path_320" data-name="Path 320" d="M426.379,292.4l-.121,1.111-16.8-26.263c-1.758,4.151-2.737,6.929-2.737,6.929s-39.9-30.041-33.586-32.061c2.121-.677,4.909-5.222,7.667-10.95l.343-.727c2.929,8.727,19.95,26.172,27.03,33.162.818.808,1.495,1.475,2.02,1.96l1.081,1.01.566.566C414.42,269.794,425.289,281.511,426.379,292.4Z" transform="translate(-92.428 -53.257)" opacity="0.1"/>
    <path id="Path_321" data-name="Path 321" d="M439.46,381.514l-1.838,59.162-.323,10.535s-21.778-2.02-42.1-4.242c-16.364-1.788-31.788-3.717-34.162-4.849-3.03-1.424-9.525-2.525-14.647-3.222-3.96-.535-7.071-.818-7.071-.818s-1.162.343-2.949.667c-3.9.707-10.748,1.283-14.737-2.182-5.1-4.434,8.3-20.546,11.647-24.414l.737-.838-1.263-11.667-3.283-30.253s-2.02-17.424-5.051-26.768a49.372,49.372,0,0,1-1.748-8.131,65.131,65.131,0,0,1,1.7-25.515,55.637,55.637,0,0,0,1.818-10.8c.505-9.343,29.04-45.455,36.111-48.738a14.99,14.99,0,0,0,7.232-7.212,13.772,13.772,0,0,0,1.1-3.141c3.03-13.131,10.7-7.919,10.7-7.919,1.849,10.273,30.465,37.465,30.465,37.465l.566.566c2.838,2.909,15.485,16.566,14.586,28.222a34.211,34.211,0,0,0,1.909,12.768,215.912,215.912,0,0,1,9.95,56.566Z" transform="translate(-92.954 -53.26)" fill="#dce6f2"/>
    <path id="Path_322" data-name="Path 322" d="M398.263,310.45s-7.071,17.172-12.374,19.95S400.788,336.258,398.263,310.45Z" transform="translate(-92.302 -52.449)" opacity="0.1"/>
    <path id="Path_323" data-name="Path 323" d="M403.542,342.2s-16.162,2.02-16.162,5.051S403.542,342.2,403.542,342.2Z" transform="translate(-92.278 -52.128)" opacity="0.1"/>
    <path id="Path_324" data-name="Path 324" d="M420.439,361.7s-23.485,50-30.051,51.515S420.439,361.7,420.439,361.7Z" transform="translate(-92.255 -51.931)" opacity="0.1"/>
    <path id="Path_325" data-name="Path 325" d="M410.869,271.151,391.445,279.6,368,244.181a13.778,13.778,0,0,0,1.1-3.141c3.03-13.131,10.7-7.919,10.7-7.919,1.848,10.273,30.465,37.465,30.465,37.465Z" transform="translate(-92.474 -53.241)" opacity="0.1"/>
    <path id="Path_326" data-name="Path 326" d="M411.869,269.151,392.444,277.6,369,242.181a13.785,13.785,0,0,0,1.1-3.141c3.03-13.131,10.7-7.919,10.7-7.919,1.848,10.273,30.465,37.465,30.465,37.465Z" transform="translate(-92.463 -53.261)" fill="#dce6f2"/>
    <path id="Path_327" data-name="Path 327" d="M437.194,450.588s-21.778-2.02-42.1-4.242l36.465,9.546V467c-1.6,1.444-2.98,2.192-3.879,1.808-4.2-1.768-38.5-7.323-38.5-7.323s-19.919-10.1-41.414-22.222a16.6,16.6,0,0,1-1.515-.95,23.877,23.877,0,0,1-6.364-6.374c-3.97-5.747-5.909-13.131-6.748-20.374a88.106,88.106,0,0,1-.525-12.505,102.533,102.533,0,0,1,1.293-14.131,464.708,464.708,0,0,1-3.03-54.546C331.133,302.1,357.648,292,357.648,292c48.738-4.293,33.626,74.5,33.626,74.5s-2.818,22.222-3.586,24.5-3.525,6.061-3.152,11.364S394.224,414,394.224,414s9.091,4.263,12.838,10.576c2.727,4.657,20.444,10.97,30.455,15.475Z" transform="translate(-92.849 -52.637)" opacity="0.1"/>
    <path id="Path_328" data-name="Path 328" d="M452.977,184.184a11.433,11.433,0,0,1-1.01,4.828,29.86,29.86,0,0,1-1.8,3.6,16.567,16.567,0,0,1-4.424,5.5c-2.333,1.667-5.283,2.131-8.081,2.808s-5.707,1.758-7.3,4.141a14.486,14.486,0,0,0-1.707,4.95,10.646,10.646,0,0,1-2.02,4.788,3.97,3.97,0,0,1-4.727,1.131,4.778,4.778,0,0,1-1.828-2.354c-1.151-2.6-1.444-5.475-1.909-8.273s-1.121-5.677-2.838-7.929-4.758-3.737-7.455-2.859a7.182,7.182,0,0,0-4.04,3.919A22.466,22.466,0,0,0,402.31,204q-1.879,10.283-4.434,20.445a1.878,1.878,0,0,1-.333.768,1.455,1.455,0,0,1-1.01.424c-2.263.3-4.434-1.283-6.717-1.111a3.857,3.857,0,0,0-.7.111,36.091,36.091,0,0,1,3.646-41.212l.182-.051a10.889,10.889,0,0,0,4.04-2.545,42.656,42.656,0,0,0,4.04-4.677l.808-1.01a46.073,46.073,0,0,1,7.879-7.485A8.082,8.082,0,0,1,412.4,166.2a7.958,7.958,0,0,1,2.545-.081,64.213,64.213,0,0,0,10.515.394,67.463,67.463,0,0,1,7.384-.747c6.394.182,11.849,4.7,15.889,9.647C450.906,177.952,452.846,180.871,452.977,184.184Z" transform="translate(-92.309 -53.911)" opacity="0.1"/>
    <path id="Path_329" data-name="Path 329" d="M384.434,189.881c-1.4,2.3-3.939,3.869-4.889,6.394-1.394,3.667.96,8.232-1.2,11.505-.717,1.1-1.9,1.919-2.3,3.182-.687,2.131,1.192,4.4.707,6.6s-3.374,4.04-2.606,6.182a4.04,4.04,0,0,0,2.222,2.02,8.687,8.687,0,0,0,5.051,1.121c2.758-.455,4.808-3.162,7.606-3.364,2.273-.162,4.444,1.414,6.707,1.121a1.515,1.515,0,0,0,1.01-.434,1.748,1.748,0,0,0,.333-.768q2.546-10.152,4.445-20.445a22.02,22.02,0,0,1,1.515-5.576,7.243,7.243,0,0,1,4.04-3.919c2.7-.869,5.727.606,7.455,2.859s2.384,5.131,2.849,7.929.758,5.677,1.9,8.273a4.828,4.828,0,0,0,1.838,2.364c1.515.879,3.556.182,4.717-1.131a10.536,10.536,0,0,0,2.02-4.8,14.425,14.425,0,0,1,1.707-4.939c1.6-2.384,4.515-3.465,7.3-4.141s5.727-1.152,8.081-2.818a16.626,16.626,0,0,0,4.424-5.485c1.495-2.606,2.889-5.434,2.768-8.434-.131-3.273-2.071-6.192-4.141-8.737-4.04-4.949-9.505-9.465-15.9-9.636a62.835,62.835,0,0,0-7.384.747,63.2,63.2,0,0,1-10.515-.4,8.263,8.263,0,0,0-2.545.091,7.615,7.615,0,0,0-2.677,1.455,46.089,46.089,0,0,0-7.889,7.475,57.893,57.893,0,0,1-4.869,5.657,10.96,10.96,0,0,1-4.04,2.556c-1.01.283-2.02.081-2.98.394C386.212,183.709,385.818,187.6,384.434,189.881Z" transform="translate(-92.413 -53.921)" fill="#965d7b"/>
    <path id="Path_330" data-name="Path 330" d="M480.846,216.964c-8.081,1.485-14.778-5.051-18.485-9.818a39.616,39.616,0,0,1-3.1-4.566L487,207.812l1.121.212S493.22,214.7,480.846,216.964Z" transform="translate(-91.551 -53.539)" opacity="0.1"/>
    <g id="Group_104" data-name="Group 104" transform="translate(281.55 128.253)" opacity="0.1">
      <path id="Path_331" data-name="Path 331" d="M376.729,214.209a8.413,8.413,0,0,0-.586-3.879c0,.1-.091.2-.121.3-.434,1.354.152,2.758.525,4.162A3.028,3.028,0,0,0,376.729,214.209Z" transform="translate(-373.944 -181.714)"/>
      <path id="Path_332" data-name="Path 332" d="M379.1,197.8a22.439,22.439,0,0,0,.081,4.192,22.507,22.507,0,0,0-.081-4.192Z" transform="translate(-373.912 -181.84)"/>
      <path id="Path_333" data-name="Path 333" d="M449.3,188.515a16.567,16.567,0,0,1-4.424,5.495c-2.333,1.667-5.273,2.131-8.081,2.808s-5.707,1.758-7.3,4.141a14.553,14.553,0,0,0-1.707,4.949,10.577,10.577,0,0,1-2.02,4.8c-1.162,1.313-3.2,2.02-4.717,1.131a4.828,4.828,0,0,1-1.838-2.364c-1.141-2.6-1.444-5.465-1.9-8.273s-1.131-5.677-2.849-7.929-4.758-3.737-7.455-2.859a7.212,7.212,0,0,0-4.04,3.919,22.017,22.017,0,0,0-1.515,5.576q-1.889,10.293-4.444,20.445a1.748,1.748,0,0,1-.333.768,1.515,1.515,0,0,1-1.01.434c-2.263.293-4.434-1.283-6.707-1.121-2.8.2-4.848,2.909-7.606,3.354a8.535,8.535,0,0,1-5.05-1.121,5.4,5.4,0,0,1-1.848-1.313,2.727,2.727,0,0,0-.374,2.354,3.939,3.939,0,0,0,2.222,2.02,8.535,8.535,0,0,0,5.051,1.121c2.758-.444,4.808-3.152,7.606-3.354,2.273-.162,4.444,1.414,6.707,1.121a1.515,1.515,0,0,0,1.01-.434,1.748,1.748,0,0,0,.333-.768q2.545-10.1,4.444-20.445a22.02,22.02,0,0,1,1.515-5.576,7.212,7.212,0,0,1,4.04-3.919c2.7-.879,5.727.606,7.455,2.859s2.384,5.131,2.849,7.929.758,5.677,1.9,8.273a4.828,4.828,0,0,0,1.838,2.364c1.515.879,3.556.182,4.717-1.131a10.577,10.577,0,0,0,2.02-4.8,14.556,14.556,0,0,1,1.707-4.949c1.6-2.384,4.515-3.455,7.3-4.141s5.727-1.141,8.081-2.808a16.564,16.564,0,0,0,4.424-5.495c1.495-2.6,2.889-5.424,2.768-8.424A10.858,10.858,0,0,0,451.95,182a19.849,19.849,0,0,1-2.646,6.515Z" transform="translate(-373.964 -182)"/>
    </g>
    <path id="Path_334" data-name="Path 334" d="M451.96,188.935a35.686,35.686,0,0,1,4.5,15c-9-5.051-17.465-10.6-21.738-12.525-7.444-3.364-35.283-2.859-45.748-2.545a35.286,35.286,0,0,1,3.818-5.515,36.547,36.547,0,0,1,8.333-7.293,36.132,36.132,0,0,1,50.889,12.859Z" transform="translate(-92.262 -53.864)" opacity="0.1"/>
    <path id="Path_335" data-name="Path 335" d="M483.371,212.681c-4.859,1.495-12.788-1.394-21.01-5.535a39.616,39.616,0,0,1-3.1-4.566L487,207.812C488.836,209.065,489.3,210.853,483.371,212.681Z" transform="translate(-91.551 -53.539)" opacity="0.1"/>
    <path id="Path_336" data-name="Path 336" d="M422.636,154.08s-26.515-1.515-33.97,12.879l-1.2,12.758-2.02-.222-.4,8.677s40.525-1.768,49.748,2.394,37.879,25.131,49.364,21.6-1.01-6.818-1.01-6.818-15.808-6.7-15.808-11.95S463.414,160.394,422.636,154.08Z" transform="translate(-92.301 -54.03)" fill="#444053"/>
    <path id="Path_337" data-name="Path 337" d="M371.63,622.28s16.919,16.414,24.243,15.152C395.873,637.432,375.165,635.664,371.63,622.28Z" transform="translate(-92.437 -49.298)" opacity="0.1"/>
    <path id="Path_338" data-name="Path 338" d="M368.13,629.81s1.515,8.445,5.556,7.616S368.13,629.81,368.13,629.81Z" transform="translate(-92.472 -49.222)" opacity="0.1"/>
    <path id="Path_339" data-name="Path 339" d="M394.584,769.53s-24.02,18.687-19.97,19.192S394.584,769.53,394.584,769.53Z" transform="translate(-92.411 -47.81)" opacity="0.1"/>
    <path id="Path_340" data-name="Path 340" d="M330.96,347.457,408.738,334.8v73.637l-73.9-3.869Z" transform="translate(3.345 3.383)" fill="#2196f3"/>
    <path id="Path_341" data-name="Path 341" d="M330.96,347.457,408.738,334.8v73.637l-73.9-3.869Z" transform="translate(3.345 3.383)" opacity="0.05"/>
    <path id="Path_342" data-name="Path 342" d="M407.96,334.8l93.273,6.98-5.162,64.081-88.111,2.576Z" transform="translate(4.123 3.383)" fill="#2196f3"/>
    <path id="Path_343" data-name="Path 343" d="M407.96,334.8l93.273,6.98-5.162,64.081-88.111,2.576Z" transform="translate(4.123 3.383)" opacity="0.1"/>
    <path id="Path_344" data-name="Path 344" d="M436.637,312.55,407.96,335.025,501.233,342l15.243-23Z" transform="translate(4.123 3.158)" fill="#2196f3"/>
    <path id="Path_345" data-name="Path 345" d="M303.08,323.115l70.02-8.525L409.02,335l-77.778,12.657Z" transform="translate(3.063 3.179)" fill="#2196f3"/>
    <path id="Path_346" data-name="Path 346" d="M425.789,353.795V454.472l-36.435-3.737-15.849-1.616-4.828-.505-15.839-1.626-21.879-2.242V347.33l77.768,5.293Z" transform="translate(3.345 3.51)" fill="#2196f3"/>
    <path id="Path_347" data-name="Path 347" d="M501.063,341.71v98.182l-29.2,5.606-14.2,2.727-32.818,6.3V353.852Z" transform="translate(4.293 3.453)" fill="#2196f3"/>
    <path id="Path_348" data-name="Path 348" d="M501.063,341.71v98.182l-29.2,5.606-14.2,2.727-32.818,6.3V353.852Z" transform="translate(4.293 3.453)" opacity="0.05"/>
    <path id="Path_349" data-name="Path 349" d="M303.08,368.522l28.162-21.192,94.829,6.465-13.96,23.515Z" transform="translate(3.063 3.51)" fill="#2196f3"/>
    <path id="Path_350" data-name="Path 350" d="M303.08,368.522l28.162-21.192,94.829,6.465-13.96,23.515Z" transform="translate(3.063 3.51)" fill="#fff" opacity="0.1"/>
    <path id="Path_351" data-name="Path 351" d="M501.063,341.71,424.84,353.852l24.808,22.222,81.647-13.7Z" transform="translate(4.293 3.453)" fill="#2196f3"/>
    <path id="Path_352" data-name="Path 352" d="M501.063,341.71,424.84,353.852l24.808,22.222,81.647-13.7Z" transform="translate(4.293 3.453)" fill="#fff" opacity="0.1"/>
    <path id="Path_353" data-name="Path 353" d="M471.532,444.676l-14.2,2.727v-20.98l13.3-3.354Z" transform="translate(4.622 4.275)" fill="#fff" opacity="0.1"/>
    <path id="Path_354" data-name="Path 354" d="M388.929,435.96v13.879l-15.849-1.616V435.96Z" transform="translate(3.77 4.406)" fill="#fff" opacity="0.1"/>
    <path id="Path_355" data-name="Path 355" d="M368.458,440.29v7.384l-15.838-1.626V440.29Z" transform="translate(3.563 4.449)" fill="#fff" opacity="0.1"/>
    <path id="Path_356" data-name="Path 356" d="M511.4,484.1c-10.859,13.889-46.717,4.293-46.717,4.293l-26.647-27.8-3.616-3.768,7.071-13.131s2.02.667,5.394,1.838C464.743,451.781,520.542,472.417,511.4,484.1Z" transform="translate(-91.802 -51.102)" opacity="0.1"/>
    <path id="Path_357" data-name="Path 357" d="M510.4,482.1c-10.859,13.889-46.717,4.293-46.717,4.293l-26.647-27.8-3.616-3.768,7.071-13.131s2.02.667,5.394,1.838C463.743,449.781,519.542,470.417,510.4,482.1Z" transform="translate(-91.812 -51.123)" fill="#efb7b9"/>
    <path id="Path_358" data-name="Path 358" d="M445.845,443.538c-1.475,4.242-5.222,10.525-8.849,15.061l-3.616-3.768,7.071-13.131S442.481,442.367,445.845,443.538Z" transform="translate(-91.813 -51.123)" opacity="0.1"/>
    <path id="Path_359" data-name="Path 359" d="M358.648,288s-26.515,10.1-26.768,38.384a464.727,464.727,0,0,0,3.03,54.546S327.335,423.1,348.8,435.225s41.414,22.222,41.414,22.222,34.293,5.556,38.505,7.323,18.849-20.96,16.576-24.748-33.5-13.131-37.2-19.445-12.838-10.566-12.838-10.566-9.313-6.354-9.687-11.657,2.374-9.091,3.152-11.364,3.6-24.495,3.6-24.495S407.385,283.658,358.648,288Z" transform="translate(-92.839 -52.678)" fill="#dce6f2"/>
    <path id="Path_360" data-name="Path 360" d="M370.713,380.7s-35.859,4.04-33.081,16.667C337.632,397.367,351.258,384.629,370.713,380.7Z" transform="translate(-92.782 -51.739)" opacity="0.1"/>
    <path id="Path_361" data-name="Path 361" d="M370.551,385.7s-20.354,14.9-16.616,15.909S370.551,385.7,370.551,385.7Z" transform="translate(-92.62 -51.688)" opacity="0.1"/>
    <path id="Path_362" data-name="Path 362" d="M379.415,391.7s-5.808,10.445-2.525,9.9S379.415,391.7,379.415,391.7Z" transform="translate(-92.394 -51.628)" opacity="0.1"/>
    <path id="Path_363" data-name="Path 363" d="M749.343,167.421s-38.384-2.313-33.9,24.616c0,0-.9,4.758,3.414,6.919,0,0,.071-2.02,3.939-1.323a17.687,17.687,0,0,0,4.172.2,8.656,8.656,0,0,0,5.111-2.111h0s10.8-4.455,15-22.111c0,0,3.111-3.859,3.03-4.849l-6.485,2.778s2.212,4.677.465,8.566c0,0-.2-8.394-1.454-8.2-.253,0-3.364,1.626-3.364,1.626s3.808,8.141.929,14.071c0,0,1.091-10.04-2.121-13.485l-4.566,2.667s4.455,8.414,1.434,15.283c0,0,.778-10.535-2.394-14.636l-4.141,3.222s4.192,8.3,1.636,14c0,0-.333-12.263-2.535-13.192,0,0-3.616,3.192-4.162,4.505,0,0,2.859,6.061,1.081,9.2,0,0-1.091-8.172-2.02-8.212,0,0-3.606,5.414-3.98,9.091a19.655,19.655,0,0,1,3.1-9.636,10.818,10.818,0,0,0-5.515,2.859s.555-3.828,6.4-4.162c0,0,3.03-4.111,3.778-4.364,0,0-5.818-.485-9.343,1.081,0,0,3.1-3.606,10.414-2.02l4.041-3.333s-7.657-1.01-10.909.111c0,0,3.738-3.192,12.01-.869l4.445-2.657s-6.525-1.414-10.414-.9c0,0,4.1-2.212,11.717.182l3.182-1.424s-4.788-.939-6.182-1.091-1.475-.535-1.475-.535a16.526,16.526,0,0,1,8.98,1.01S749.484,167.845,749.343,167.421Z" transform="translate(-88.966 -53.895)" fill="#2196f3"/>
    <path id="Path_364" data-name="Path 364" d="M864.8,300.76s-38.384-2.313-33.9,24.616c0,0-.9,4.758,3.414,6.919,0,0,.071-2.02,3.949-1.323a17.684,17.684,0,0,0,4.172.2,8.647,8.647,0,0,0,5.051-2.1h0s10.808-4.465,15.01-22.121c0,0,3.1-3.849,2.98-4.838l-6.485,2.768s2.212,4.677.475,8.566c0,0-.212-8.394-1.455-8.2-.253,0-3.374,1.626-3.374,1.626s3.818,8.152.939,14.071c0,0,1.091-10.04-2.131-13.485l-4.515,2.636s4.454,8.414,1.434,15.283c0,0,.778-10.535-2.394-14.636l-4.131,3.232s4.182,8.293,1.636,13.99c0,0-.333-12.263-2.535-13.192,0,0-3.616,3.192-4.172,4.505,0,0,2.869,6.061,1.091,9.2,0,0-1.091-8.172-2.02-8.212,0,0-3.606,5.414-3.98,9.091a19.718,19.718,0,0,1,3.111-9.636,10.868,10.868,0,0,0-5.525,2.859s.566-3.828,6.414-4.162c0,0,2.98-4.111,3.778-4.364,0,0-5.818-.485-9.344,1.081,0,0,3.1-3.606,10.4-1.97l4.04-3.333s-7.667-1.01-10.909.111c0,0,3.737-3.192,12.01-.869l4.444-2.657s-6.535-1.4-10.424-.9c0,0,4.111-2.212,11.727.182l3.182-1.424s-4.788-.939-6.192-1.091-1.475-.535-1.475-.535a16.556,16.556,0,0,1,8.99,1.01S864.924,301.185,864.8,300.76Z" transform="translate(-87.799 -52.547)" fill="#2196f3" opacity="0.1"/>
    <path id="Path_365" data-name="Path 365" d="M633.872,277.47S642.71,240,615.4,239.874c0,0-4.535-1.7-7.394,2.182,0,0,1.949.414.626,4.111a17.978,17.978,0,0,0-.909,4.04,8.676,8.676,0,0,0,1.2,5.384h0s2.556,11.414,19.192,18.566c0,0,3.273,3.717,4.263,3.758l-1.616-6.859s-4.99,1.384-8.525-1.01c0,0,8.313,1.222,8.323,0,0-.253-1.01-3.6-1.01-3.6s-8.677,2.364-14.03-1.485c0,0,9.707,2.788,13.657.212l-1.818-4.97s-9.091,2.96-15.313-1.192c0,0,10.253,2.566,14.838.141l-2.475-4.626s-8.889,2.707-14.071-.778c0,0,12.121,1.758,13.434-.242,0,0-2.525-4.111-3.727-4.879,0,0-6.424,1.8-9.253-.495,0,0,8.232.313,8.424-.556,0,0-4.717-4.475-8.313-5.485a19.8,19.8,0,0,1,8.98,4.707A10.9,10.9,0,0,0,618,240.874s3.677,1.212,3.03,7.071c0,0,3.535,3.636,3.646,4.465,0,0,1.465-5.646.525-9.394,0,0,3.03,3.677.172,10.6l2.586,4.6s2.344-7.374,1.747-10.768c0,0,2.515,4.222-1.192,11.98l1.869,4.838s2.495-6.2,2.657-10.1c0,0,1.485,4.424-2.182,11.525l.869,3.374s1.737-4.556,2.121-5.909.778-1.364.778-1.364a16.547,16.547,0,0,1-2.515,8.687S633.438,277.52,633.872,277.47Z" transform="translate(-90.052 -53.166)" fill="#2196f3" opacity="0.1"/>
    <path id="Path_366" data-name="Path 366" d="M550.827,289.827S520,266.766,508.978,291.746c0,0-3.364,3.485-.949,7.657,0,0,1.151-1.626,4.04,1.071a17.686,17.686,0,0,0,3.374,2.465,8.667,8.667,0,0,0,5.424,1.01h0s11.475,2.212,24.687-10.222c0,0,4.717-1.515,5.162-2.4l-6.96-1.222s-.727,5.121-4.313,7.414c0,0,4.434-7.131,3.283-7.647-.232-.111-3.707-.505-3.707-.505s-1.293,8.909-6.95,12.273c0,0,6.434-7.788,5.636-12.434l-5.283-.283s-.9,9.485-7.2,13.566c0,0,6.434-8.374,6.061-13.545l-5.232.424s-1.061,9.222-6.323,12.576c0,0,6.455-10.424,5.131-12.4,0,0-4.778.677-5.96,1.465,0,0-.919,6.606-4.151,8.283,0,0,3.586-7.424,2.859-7.939,0,0-5.99,2.535-8.343,5.424a19.727,19.727,0,0,1,7.9-6.343,10.879,10.879,0,0,0-6.182-.647s2.566-2.889,7.636.051c0,0,4.748-1.788,5.556-1.566,0,0-4.6-3.606-8.4-4.232,0,0,4.586-1.313,9.788,4.04l5.242-.535s-5.828-5.051-9.172-5.9c0,0,4.879-.616,10.505,5.869l5.172.232s-4.677-4.768-8.2-6.485c0,0,4.636.4,9.687,6.6l3.445.555s-3.485-3.414-4.576-4.3-.939-1.263-.939-1.263a16.6,16.6,0,0,1,6.959,5.778S550.7,290.241,550.827,289.827Z" transform="translate(-91.067 -52.755)" fill="#2196f3" opacity="0.1"/>
    <path id="Path_367" data-name="Path 367" d="M652.437,77.717s-30.828-23.071-41.849,1.919c0,0-3.364,3.485-.949,7.657,0,0,1.152-1.626,4.04,1.071a17.974,17.974,0,0,0,3.384,2.455,8.657,8.657,0,0,0,5.424,1.01h0S633.962,94.04,647.174,81.6c0,0,4.717-1.505,5.152-2.4l-6.96-1.2s-.717,5.121-4.313,7.414c0,0,4.444-7.131,3.293-7.646-.232-.111-3.707-.505-3.707-.505s-1.333,8.929-6.99,12.273c0,0,6.424-7.788,5.636-12.434L634,76.808s-.909,9.485-7.2,13.556c0,0,6.434-8.374,6.061-13.546l-5.222.424s-1.071,9.232-6.333,12.586c0,0,6.465-10.424,5.141-12.4,0,0-4.778.677-5.96,1.465,0,0-.919,6.606-4.152,8.283,0,0,3.586-7.424,2.859-7.95,0,0-5.99,2.545-8.343,5.434a19.637,19.637,0,0,1,7.9-6.343,10.808,10.808,0,0,0-6.192-.646s2.576-2.889,7.647.051c0,0,4.748-1.8,5.556-1.566,0,0-4.6-3.606-8.4-4.242,0,0,4.576-1.3,9.778,4.04l5.242-.535s-5.818-5.051-9.172-5.909c0,0,4.879-.606,10.515,5.879l5.172.222s-4.677-4.768-8.212-6.475c0,0,4.646.4,9.7,6.6l3.434.556s-3.495-3.374-4.586-4.242-.939-1.253-.939-1.253a16.566,16.566,0,0,1,6.96,5.778S652.265,78.1,652.437,77.717Z" transform="translate(-90.04 -54.899)" fill="#2196f3" opacity="0.1"/>
    <path id="Path_368" data-name="Path 368" d="M769.027,106.8S756.7,70.33,733.461,84.663c0,0-4.747,1.01-5.121,5.768,0,0,1.869-.687,2.7,3.152a18.186,18.186,0,0,0,1.384,3.95,8.748,8.748,0,0,0,3.879,3.929h0s8.2,8.333,26.141,5.576c0,0,4.737,1.434,5.606.939L763,103.017s-3.495,3.808-7.758,3.657c0,0,7.707-3.354,7.071-4.434-.131-.212-2.768-2.505-2.768-2.505s-6.121,6.6-12.687,6.162c0,0,9.707-2.768,11.687-7.071L754.36,95.6s-6.121,7.293-13.626,7.071c0,0,10.1-3.242,12.657-7.727l-4.546-2.616s-6.061,7-12.343,6.778c0,0,11.232-4.919,11.263-7.3,0,0-4.313-2.152-5.737-2.172,0,0-4.505,4.919-8.081,4.475,0,0,7.151-4.091,6.849-4.929,0,0-6.364-1.3-9.95-.253a19.687,19.687,0,0,1,10.1-.758,10.9,10.9,0,0,0-4.737-4.04s3.758-.919,6.273,4.374c0,0,4.929,1.222,5.455,1.859,0,0-1.737-5.566-4.515-8.253,0,0,4.515,1.525,5.747,8.909l4.626,2.525s-1.909-7.485-4.212-10.1c0,0,4.374,2.263,5.323,10.8l4.141,3.121s-1.152-6.586-3.091-10c0,0,3.6,2.97,4.242,10.939l2.515,2.4s-.929-4.788-1.313-6.141-.071-1.444-.071-1.444a16.655,16.655,0,0,1,2.455,8.707S768.673,107.068,769.027,106.8Z" transform="translate(-88.832 -54.764)" fill="#2196f3" opacity="0.1"/>
    <path id="Path_369" data-name="Path 369" d="M689.353,108.332s-38.283-4.263-35.121,22.9c0,0-1.141,4.707,3.03,7.071,0,0,.172-2.02,4.04-1.111a18.586,18.586,0,0,0,4.162.414,8.687,8.687,0,0,0,5.2-1.848h0s11.02-3.909,16.162-21.333c0,0,3.293-3.687,3.222-4.687l-6.616,2.444s2.02,4.778,0,8.576c0,0,.212-8.394-1.01-8.263-.253,0-3.444,1.455-3.444,1.455s3.394,8.333.222,14.141c0,0,1.6-9.98-1.444-13.576l-4.7,2.424s4.04,8.636.657,15.343c0,0,1.313-10.485-1.646-14.737l-4.293,3.03s3.758,8.495.919,14.061c0,0,.293-12.263-1.859-13.3,0,0-3.778,3.03-4.394,4.283,0,0,2.556,6.162.626,9.242,0,0-.677-8.212-1.566-8.293,0,0-3.879,5.222-4.444,8.909a19.667,19.667,0,0,1,3.6-9.475A10.869,10.869,0,0,0,655,128.575s.747-3.788,6.606-3.828c0,0,3.182-3.95,4.04-4.162,0,0-5.788-.778-9.394.606,0,0,3.283-3.455,10.5-1.444L671,116.625s-7.687-1.556-10.94-.545c0,0,3.9-3.03,12.04-.253l4.576-2.434s-6.455-1.737-10.364-1.424c0,0,4.212-2.02,11.7.778l3.253-1.263s-4.737-1.182-6.131-1.4-1.444-.606-1.444-.606a16.616,16.616,0,0,1,8.929,1.455S689.424,108.757,689.353,108.332Z" transform="translate(-89.583 -54.494)" fill="#2196f3" opacity="0.1"/>
    <path id="Path_370" data-name="Path 370" d="M1020.953,402.5s-38.263-4.263-35.1,22.869c0,0-1.141,4.707,3.03,7.071,0,0,.172-2.02,4.04-1.121a17.468,17.468,0,0,0,4.161.414,8.616,8.616,0,0,0,5.2-1.848h0s11.02-3.909,16.111-21.323c0,0,3.293-3.7,3.222-4.687L1015,406.311s2.02,4.788,0,8.586c0,0,.212-8.4-1.01-8.263-.252,0-3.444,1.444-3.444,1.444s3.394,8.333.222,14.141c0,0,1.6-9.97-1.445-13.576l-4.7,2.434s4.04,8.636.667,15.344c0,0,1.3-10.485-1.656-14.748l-4.293,3.03s3.757,8.5.919,14.051c0,0,.293-12.263-1.859-13.293,0,0-3.768,3.03-4.394,4.283,0,0,2.566,6.162.626,9.242,0,0-.677-8.212-1.566-8.293,0,0-3.879,5.222-4.444,8.909a19.665,19.665,0,0,1,3.6-9.475,10.778,10.778,0,0,0-5.657,2.576s.748-3.8,6.606-3.838c0,0,3.192-3.95,4.04-4.152,0,0-5.788-.788-9.394.6,0,0,3.283-3.444,10.505-1.434l4.243-3.121s-7.6-1.434-10.9-.444c0,0,3.9-3.03,12.04-.263l4.576-2.424s-6.455-1.737-10.364-1.424c0,0,4.212-2.02,11.7.778l3.253-1.273s-4.737-1.182-6.131-1.394-1.444-.606-1.444-.606a16.556,16.556,0,0,1,8.929,1.444S1021.054,402.937,1020.953,402.5Z" transform="translate(-86.232 -51.521)" fill="#2196f3" opacity="0.1"/>
    <path id="Path_371" data-name="Path 371" d="M1078.863,437.882s-38.263-4.253-35.1,22.869c0,0-1.131,4.707,3.03,7.071,0,0,.172-2.02,4.04-1.111a17.825,17.825,0,0,0,4.151.4,8.726,8.726,0,0,0,5.182-1.838h0s11.01-3.909,16.1-21.333c0,0,3.3-3.687,3.222-4.687l-6.616,2.434s2.02,4.788,0,8.586c0,0,.212-8.394-1.01-8.263-.253,0-3.444,1.445-3.444,1.445s3.394,8.333.222,14.141c0,0,1.6-9.97-1.444-13.566l-4.7,2.424s4.04,8.636.667,15.344c0,0,1.3-10.485-1.657-14.737l-4.293,3.03s3.758,8.495.93,14.061c0,0,.283-12.273-1.869-13.3,0,0-3.768,3.03-4.394,4.283,0,0,2.566,6.162.626,9.242,0,0-.677-8.212-1.566-8.293,0,0-3.879,5.222-4.434,8.909a19.718,19.718,0,0,1,3.586-9.475,10.868,10.868,0,0,0-5.657,2.576s.758-3.8,6.616-3.828c0,0,3.182-3.95,4.041-4.162,0,0-5.788-.778-9.394.606,0,0,3.283-3.455,10.505-1.444l4.242-3.121s-7.6-1.434-10.9-.444c0,0,3.9-3.03,12.041-.253l4.576-2.434s-6.455-1.737-10.364-1.424c0,0,4.212-2.02,11.7.778l3.253-1.263s-4.737-1.182-6.121-1.4-1.454-.606-1.454-.606a16.617,16.617,0,0,1,8.929,1.455S1078.964,438.317,1078.863,437.882Z" transform="translate(-85.647 -51.164)" fill="#2196f3" opacity="0.1"/>
    <path id="Path_372" data-name="Path 372" d="M950.377,139.967s-30.828-23.061-41.849,1.919c0,0-3.364,3.485-.949,7.657,0,0,1.151-1.626,4.04,1.071a17.686,17.686,0,0,0,3.374,2.465,8.677,8.677,0,0,0,5.424,1.01h0s11.475,2.212,24.7-10.222c0,0,4.707-1.515,5.151-2.4l-6.939-1.253s-.727,5.121-4.313,7.414c0,0,4.434-7.131,3.283-7.647-.232-.111-3.7-.505-3.7-.505s-1.3,8.909-6.96,12.273c0,0,6.434-7.788,5.636-12.434l-5.283-.283s-.9,9.485-7.2,13.566c0,0,6.444-8.374,6.061-13.546l-5.232.424s-1.01,9.222-6.323,12.576c0,0,6.465-10.424,5.131-12.4,0,0-4.778.677-5.96,1.465,0,0-.909,6.606-4.141,8.283,0,0,3.576-7.424,2.849-7.939,0,0-5.99,2.535-8.344,5.424a19.729,19.729,0,0,1,7.9-6.343,10.878,10.878,0,0,0-6.182-.646s2.576-2.889,7.647.05c0,0,4.737-1.788,5.545-1.566,0,0-4.6-3.606-8.4-4.232,0,0,4.586-1.313,9.788,4.04l5.242-.535s-5.818-5.051-9.172-5.9c0,0,4.879-.616,10.505,5.869l5.182.232s-4.687-4.768-8.212-6.485c0,0,4.646.4,9.687,6.6l3.444.556s-3.485-3.414-4.576-4.3-.929-1.182-.929-1.182a16.607,16.607,0,0,1,6.949,5.778S950.246,140.381,950.377,139.967Z" transform="translate(-87.03 -54.27)" fill="#2196f3" opacity="0.1"/>
    <path id="Path_373" data-name="Path 373" d="M973.919,304.956s-10.626-37-34.525-23.717c0,0-4.788.737-5.384,5.525,0,0,1.9-.6,2.556,3.273a17.914,17.914,0,0,0,1.212,4.04,8.678,8.678,0,0,0,3.7,4.121h0s7.818,8.687,25.859,6.747c0,0,4.667,1.636,5.556,1.192l-4.778-5.192s-3.667,3.657-7.909,3.313c0,0,7.839-3.03,7.232-4.111-.121-.222-2.646-2.636-2.646-2.636s-6.4,6.323-12.95,5.586c0,0,9.828-2.323,11.99-6.505l-4.041-3.414s-6.444,7.01-13.929,6.465c0,0,10.182-2.8,12.99-7.152l-4.424-2.818s-6.414,6.717-12.636,6.212c0,0,11.444-4.414,11.586-6.788,0,0-4.222-2.343-5.647-2.424,0,0-4.717,4.707-8.3,4.1,0,0,7.333-3.768,7.071-4.616,0,0-6.3-1.586-9.929-.707a19.707,19.707,0,0,1,10.1-.293,10.84,10.84,0,0,0-4.546-4.242s3.8-.758,6.061,4.646c0,0,4.859,1.434,5.364,2.1,0,0-1.485-5.646-4.141-8.444,0,0,4.444,1.717,5.343,9.152l4.505,2.737s-1.576-7.576-3.757-10.242c0,0,4.263,2.455,4.838,11.02l4.04,3.3s-.859-6.626-2.636-10.1c0,0,3.465,3.131,3.748,11.111l2.4,2.525s-.707-4.828-1.01-6.2,0-1.566,0-1.566a16.556,16.556,0,0,1,2.071,8.808S973.555,305.2,973.919,304.956Z" transform="translate(-86.754 -52.773)" fill="#2196f3" opacity="0.1"/>
    <path id="Path_374" data-name="Path 374" d="M739.535,387.423s-20.636-32.505-39.8-13.051c0,0-4.384,2.02-3.616,6.818,0,0,1.667-1.111,3.384,2.424a17.3,17.3,0,0,0,2.283,3.495,8.627,8.627,0,0,0,4.7,2.909h0s9.949,6.141,26.717-.808c0,0,4.939.263,5.667-.414l-6.061-3.636s-2.495,4.546-6.667,5.4c0,0,6.687-5.051,5.788-5.98-.172-.182-3.283-1.778-3.283-1.778s-4.374,7.859-10.859,9c0,0,8.778-5,9.687-9.626l-4.839-2.131s-4.212,8.535-11.545,10.1c0,0,8.99-5.545,10.455-10.515l-5.051-1.455s-4.263,8.253-10.374,9.515c0,0,9.737-7.455,9.2-9.778,0,0-4.707-1.061-6.061-.737,0,0-3.2,5.849-6.818,6.273,0,0,5.98-5.677,5.485-6.424,0,0-6.5.253-9.727,2.121a19.657,19.657,0,0,1,9.636-3.131,10.838,10.838,0,0,0-5.545-2.8s3.424-1.788,7.071,2.758c0,0,5.051,0,5.747.505,0,0-3.03-5.051-6.353-6.939,0,0,4.747.4,7.7,7.283l5.1,1.354s-3.646-6.818-6.485-8.768c0,0,4.778,1.152,7.737,9.222l4.768,2.02s-2.687-6.111-5.384-8.97c0,0,4.2,2.02,6.717,9.606l3.03,1.747s-2.02-4.434-2.738-5.657-.434-1.505-.434-1.505a16.565,16.565,0,0,1,4.454,7.869S739.263,387.766,739.535,387.423Z" transform="translate(-89.159 -51.866)" fill="#2196f3" opacity="0.1"/>
    <path id="Path_375" data-name="Path 375" d="M873.8,223.011s-19.626-33.121-39.394-14.273c0,0-4.444,1.919-3.818,6.707,0,0,1.687-1.071,3.3,2.515a17.452,17.452,0,0,0,2.172,3.576,8.577,8.577,0,0,0,4.606,3.03h0s9.748,6.444,26.727,0c0,0,4.929.414,5.677-.242l-5.929-3.818s-2.626,4.455-6.828,5.192c0,0,6.838-4.879,5.98-5.8-.182-.192-3.233-1.889-3.233-1.889s-4.616,7.727-11.111,8.667c0,0,8.929-4.727,9.97-9.313l-4.768-2.242s-4.475,8.414-11.859,9.758c0,0,9.162-5.263,10.778-10.182l-4.99-1.616s-4.525,8.081-10.667,9.192c0,0,9.96-7.152,9.495-9.485,0,0-4.667-1.212-6.061-.929,0,0-3.384,5.748-7.01,6.061,0,0,6.152-5.475,5.687-6.242,0,0-6.505.05-9.788,1.818a19.717,19.717,0,0,1,9.727-2.828A10.858,10.858,0,0,0,837,207.7s3.485-1.687,7.071,2.97c0,0,5.051.172,5.727.687,0,0-2.859-5.051-6.131-7.131,0,0,4.727.545,7.465,7.515l5.051,1.515s-3.424-6.929-6.212-8.97c0,0,4.747,1.3,7.454,9.455l4.7,2.192s-2.495-6.192-5.05-9.091c0,0,4.131,2.152,6.424,9.808l2.96,1.838s-1.9-4.495-2.566-5.737-.384-1.515-.384-1.515a16.6,16.6,0,0,1,4.212,8S873.51,223.344,873.8,223.011Z" transform="translate(-87.8 -53.535)" fill="#2196f3"/>
    <path id="Path_376" data-name="Path 376" d="M750.766,292.1s1.01-38.485-25.727-33.061c0,0-4.788-.737-6.808,3.646,0,0,2.02,0,1.455,3.889a17.724,17.724,0,0,0-.061,4.182A8.635,8.635,0,0,0,721.9,275.8h0s4.818,10.646,22.606,14.263c0,0,3.949,2.98,4.939,2.818l-3.03-6.384s-4.6,2.364-8.546.758c0,0,8.384-.495,8.152-1.727,0-.253-1.737-3.323-1.737-3.323s-8.02,4.091-14.03,1.4c0,0,10.1.758,13.4-2.566l-2.818-4.475s-8.263,4.727-15.232,1.939c0,0,10.556.424,14.556-2.879l-3.364-4.04s-8.151,4.465-13.929,2.1c0,0,12.243-.737,13.131-2.97,0,0-3.313-3.505-4.646-4.04,0,0-5.919,3.03-9.152,1.394,0,0,8.081-1.354,8.131-2.253,0,0-5.525-3.424-9.253-3.677a19.666,19.666,0,0,1,9.748,2.788,10.858,10.858,0,0,0-3.03-5.424s3.848.434,4.374,6.263c0,0,4.212,2.848,4.485,3.636,0,0,.293-5.828-1.394-9.3,0,0,3.717,2.98,2.323,10.333l3.465,3.98s.788-7.7-.475-10.9c0,0,3.313,3.626,1.273,11.97l2.8,4.354s1.192-6.576.555-10.445c0,0,2.344,4.04.2,11.727l1.535,3.131s.778-4.818.879-6.222.485-1.495.485-1.495a16.586,16.586,0,0,1-.7,9.02S750.321,292.227,750.766,292.1Z" transform="translate(-88.934 -52.974)" fill="#2196f3"/>
    <ellipse id="Ellipse_21" data-name="Ellipse 21" cx="27.202" cy="4.596" rx="27.202" ry="4.596" transform="translate(678.831 718.942)" fill="#2196f3" opacity="0.1"/>
    <ellipse id="Ellipse_22" data-name="Ellipse 22" cx="27.202" cy="4.596" rx="27.202" ry="4.596" transform="translate(579.669 788.721)" fill="#2196f3" opacity="0.1"/>
    <ellipse id="Ellipse_23" data-name="Ellipse 23" cx="27.202" cy="4.596" rx="27.202" ry="4.596" transform="translate(66.879 752.973)" fill="#2196f3" opacity="0.1"/>
    <ellipse id="Ellipse_24" data-name="Ellipse 24" cx="27.202" cy="4.596" rx="27.202" ry="4.596" transform="translate(785.993 784.125)" fill="#2196f3" opacity="0.1"/>
    <ellipse id="Ellipse_25" data-name="Ellipse 25" cx="40.616" cy="6.869" rx="40.616" ry="6.869" transform="translate(800.902 723.538)" fill="#2196f3"/>
    <path id="Path_377" data-name="Path 377" d="M945.376,767.187a11.729,11.729,0,0,0,3.869-5.839c.505-2.323-.485-5.1-2.7-5.949-2.485-.949-5.141.768-7.161,2.505s-4.313,3.727-6.95,3.364a10.606,10.606,0,0,0,3.273-9.909,4.151,4.151,0,0,0-.909-2.02c-1.384-1.475-3.879-.838-5.535.323-5.253,3.7-6.717,10.828-6.748,17.253-.525-2.313-.081-4.727-.091-7.071s-.667-5.051-2.677-6.283a7.99,7.99,0,0,0-4.041-1.01c-2.364-.081-5,.151-6.606,1.879-2.02,2.141-1.485,5.747.253,8.081s4.394,3.838,6.838,5.475a15.28,15.28,0,0,1,4.889,4.657,4.749,4.749,0,0,1,.353.828h14.808A40.849,40.849,0,0,0,945.376,767.187Z" transform="translate(-87.019 -48.023)" fill="#2196f3"/>
    <path id="Path_378" data-name="Path 378" d="M170.29,783.954s15.505-.475,20.2-3.808,23.869-7.3,25.03-1.959,23.313,26.556,5.8,26.7-40.7-2.727-45.364-5.576S170.29,783.954,170.29,783.954Z" transform="translate(-94.471 -47.749)" fill="#a8a8a8"/>
    <path id="Path_379" data-name="Path 379" d="M221.613,802.941c-17.515.141-40.7-2.727-45.364-5.576-3.556-2.162-4.97-9.929-5.444-13.515h-.515s1.01,12.515,5.646,15.354,27.849,5.717,45.364,5.576c5.051,0,6.8-1.838,6.707-4.505C227.3,801.9,225.371,802.911,221.613,802.941Z" transform="translate(-94.471 -47.665)" opacity="0.2"/>
  </g>
</svg>
