<?xml version="1.0" encoding="utf-8"?>
<!-- Generator: Adobe Illustrator 24.2.1, SVG Export Plug-In . SVG Version: 6.00 Build 0)  -->
<svg version="1.1" id="Layer_1" xmlns="http://www.w3.org/2000/svg" xmlns:xlink="http://www.w3.org/1999/xlink" x="0px" y="0px"
	 viewBox="0 0 984 718.5" style="enable-background:new 0 0 984 718.5;" xml:space="preserve">
<style type="text/css">
	.st0{fill:#212121;}
	.st1{fill:#424242;}
	.st2{fill:#DDDDDD;}
	.st3{fill:#7A7B7F;}
	.st4{fill:#636363;}
	.st5{fill:#B9BBC2;}
	.st6{fill:#006BBD;}
	.st7{fill:#28282E;}
	.st8{fill:#2A2A2A;}
	.st9{opacity:0.1;enable-background:new    ;}
	.st10{fill:#757575;}
	.st11{fill:#EEEEEE;}
	.st12{fill:#C8C8C8;}
	.st13{fill:#202125;}
</style>
<rect x="252.6" class="st0" width="610.4" height="718.5"/>
<rect x="252.6" class="st1" width="610.4" height="107.5"/>
<circle class="st2" cx="830.9" cy="69.2" r="3.3"/>
<circle class="st2" cx="830.9" cy="55" r="3.3"/>
<circle class="st2" cx="830.9" cy="40.9" r="3.3"/>
<path class="st2" d="M773.5,35.3c-3.4,3.4-3.4,8-3.9,12.3c-0.6,4.4-0.2,8.8,1.1,13c1.3,4,3,5,7.1,3.8c2.2-0.6,4.3-1.7,6.9-2.8
	c-0.9,6.8-1.8,6.9-2.7,13.3h16.7c-1.4-6.8-2.8-7.2-4.2-13.9c0.2-0.5,0.1-1.2-0.3-1.6c-4-4.2-6.7-9.4-11-13.3
	c-2.8-2.6-5.2-5.6-7.2-8.8C775.3,36.5,775,35,773.5,35.3z"/>
<path class="st3" d="M796.6,60.5c5.2-0.4,8.4-2.9,10-8.1c3.2-10.6,0.6-17.3-9.1-22.5c-1.5-0.8-2.8-1.9-3.9-3.3
	c-1.8-2.1-4.2-3.2-7-1.2c-0.5,3.3,0.7,6.4,1.5,9.5c2,8,4.4,15.8,7.2,23.6C795.5,59.3,795.9,60,796.6,60.5z"/>
<path class="st4" d="M796.6,60.5c-2.3-7.7-4.6-15.4-7-23.1c-1.2-3.9-1.4-8.1-3-11.9c-0.2-0.1-0.3,0-0.5,0.1c-2,0.3-1.5,1.8-1.3,2.9
	c1.2,6,3.1,11.8,5.4,17.5c-2.4-5.7-4.1-11.7-6.2-17.6c-0.4-1.2-0.5-2.5-1.5-3.4l-2,0.6c-1,1.4-0.2,2.7,0.3,3.9
	c2.6,7,5,14.2,8.1,19.5c-3.8-6.6-7.1-13.5-9.8-20.6c-0.4-1-0.6-2.3-2.2-2.2l-1.3,0.3c-1,1.7,0.1,3.1,0.7,4.5
	c3.5,9.1,8.4,17.7,14.5,25.3C792.4,58.1,793.5,60.7,796.6,60.5L796.6,60.5z"/>
<path class="st3" d="M796.6,60.5c-4.3-1.5-6-5.5-8.3-8.8c-5.4-7.8-9.6-16.3-12.6-25.2c-3.3,0.5-4.4,2.1-3.5,5
	c0.4,1.3,0.9,2.6,1.3,3.8c6.2,9.3,14.3,16.9,21,25.8C795.1,60.9,796,61.1,796.6,60.5z"/>
<path class="st3" d="M776.9,26.2c1.9,2.1,2.4,4.9,3.4,7.5c2.7,6.6,6.1,12.8,10.3,18.6c-3.4-8.9-7.4-17.5-10-26.7
	C779.1,24.6,777.9,24.6,776.9,26.2z"/>
<path class="st3" d="M782.5,24.9c0.9,6.2,3.5,11.9,5.7,17.6c0.6,1.6,1.5,3.2,2.5,4.6c-1.1-3.8-2.1-7.6-3.2-11.4
	c-0.7-2.4-1.3-4.9-1.9-7.3c-0.3-1-0.5-2,0.4-2.8C784.9,25.2,784,23.8,782.5,24.9z"/>
<path class="st2" d="M516.1,70.4l0.6-0.1c2.9-0.6,5-1.1,6.1-1.5c0.9-0.2,1.7-0.7,2.3-1.3c0.4-0.7,0.5-1.6,0.4-2.4l-0.6-6
	c0-1.1-0.4-2.1-1-3c-0.5-0.7-1.3-1-2.2-1c-0.5,0-1.1,0.2-1.5,0.5c-0.4,0.3-0.7,0.8-0.9,1.3c-0.2,0.5-0.3,1.1-0.2,1.7
	c0,0.6,0.3,1.1,0.7,1.5c0.5,0.4,1.2,0.5,1.8,0.5h10.5V66h-10.5c-1.8,0.1-3.6-0.6-5-1.9c-1.3-1.3-2.1-3.1-2.2-5
	c-0.1-1.5,0.1-3,0.7-4.4c0.5-1.3,1.4-2.5,2.5-3.4c1.1-0.9,2.5-1.4,3.9-1.4c1.4-0.1,2.8,0.3,4,1c1.2,0.8,2.2,1.8,2.9,3.1
	c0.8,1.4,1.2,3,1.4,4.6l0.6,6c0.3,1.9,0,3.8-0.8,5.5c-0.9,1.5-2.2,2.6-3.8,3.2c-2.6,1-5.3,1.8-8,2.3l-0.3,0.1h-0.3L516.1,70.4z"/>
<path class="st2" d="M531.5,60.7h8.2c0.2,0,0.4,0,0.6-0.1c0.2,0,0.3-0.1,0.4-0.2c0.2-0.1,0.3-0.3,0.4-0.5c0.1-0.2,0.1-0.5,0.1-0.7
	c0-0.3-0.1-0.5-0.3-0.7l-8.3-11.7l1-4l13.6-5l1.7,5l-11.4,4.1l0.4-1.3l6.6,9.7c0.6,0.9,1.1,2,1.4,3.1c0.2,1,0.3,2,0.1,3
	c-0.2,0.9-0.5,1.7-1.1,2.4c-0.6,0.7-1.3,1.3-2.1,1.7c-1,0.4-2.1,0.6-3.1,0.6h-8.2L531.5,60.7z M531.6,60.7h0.2V66h-0.2V60.7z
	 M533.7,36.3l9.2-3.3l1.1,3.3l-9.2,3.3L533.7,36.3z M550.6,66c-1.1,0-2.2-0.2-3.2-0.7c-1-0.5-1.9-1.2-2.7-2.1
	c-0.9-1-1.7-2.1-2.4-3.3c-0.4-0.6-0.7-1.2-1-1.8l3.6-2.3l0.5,0.8c0.2,0.3,0.3,0.5,0.5,0.8c0.4,0.7,1,1.4,1.6,1.9
	c0.4,0.4,0.9,0.8,1.5,1c0.5,0.2,1.1,0.3,1.7,0.3h0.5V66H550.6z"/>
<path class="st2" d="M550.8,60.7h6.6c0.7,0.1,1.4-0.1,2-0.4c0.4-0.3,0.6-0.8,0.4-1.3l-0.4-4.6l4.7-0.5l0.4,4.6
	c0.2,1.3,0,2.7-0.6,3.9c-0.5,1.1-1.4,2.1-2.5,2.7c-1.2,0.7-2.6,1-4,0.9h-6.6L550.8,60.7z M551.9,47.8l3-3.1l3.1,3.1l-3.1,3
	L551.9,47.8z M559.4,47.8l3-3.1l3.1,3.1l-3.1,3L559.4,47.8z M567,66c-1.9,0.1-3.7-0.5-5.1-1.8c-1.3-1.4-2.1-3.3-2.1-5.3l4.7-0.4
	c0,0.5,0.2,0.9,0.3,1.4c0.1,0.3,0.4,0.5,0.7,0.6c0.5,0.1,1,0.2,1.5,0.2V66z"/>
<path class="st2" d="M566.6,60.7h2c2.7-0.1,5.4-0.5,8-1.3c0.9-0.2,1.6-0.7,2.1-1.4l0.2-1.2c0.1-0.4,0-0.9-0.2-1.3
	c-0.2-0.4-0.5-0.8-0.8-1.1c-0.4-0.3-0.8-0.5-1.3-0.5c-0.5,0-0.9,0-1.4,0.2c-0.4,0.2-0.8,0.4-1.1,0.8c-0.3,0.4-0.5,0.8-0.5,1.3
	l-0.2,1.5c0.5,0.5,1,1,1.6,1.3c1,0.5,2,0.9,3.1,1.1c1.6,0.3,3.3,0.5,5,0.5h2.2V66h-2.2c-2.3,0-4.6-0.4-6.8-1.3
	c-2.1-0.7-4-1.8-5.7-3.2c-1.5-1.3-2.2-2.6-2-4l0.2-2.2c0.1-1.3,0.6-2.6,1.4-3.7c0.8-1.1,1.8-1.9,3-2.4c1.2-0.5,2.5-0.7,3.8-0.6
	c1.3,0.1,2.5,0.6,3.5,1.4c1,0.8,1.8,1.8,2.3,3c0.5,1.2,0.8,2.5,0.7,3.8l-0.1,1.7c-0.1,1.3-0.9,2.5-2.5,3.6c-1.8,1.3-3.8,2.2-5.9,2.8
	c-2.1,0.7-4.3,1-6.6,1h-2L566.6,60.7z M566.7,60.7h0.2V66h-0.2V60.7z M573.2,42.6l3.5-3.5l3.5,3.5l-3.5,3.5L573.2,42.6z"/>
<path class="st2" d="M585,60.7h8.2c0.2,0,0.4,0,0.6-0.1c0.2,0,0.3-0.1,0.4-0.2c0.2-0.1,0.3-0.3,0.4-0.5c0.1-0.2,0.1-0.5,0.1-0.7
	c0-0.3-0.1-0.5-0.3-0.7l-8.2-11.7l1-4l13.6-5l1.7,5L591.1,47l0.4-1.3l6.6,9.7c0.6,0.9,1.1,2,1.4,3.1c0.2,1,0.3,2,0.1,3
	c-0.2,0.9-0.5,1.7-1.1,2.4c-0.6,0.7-1.3,1.3-2.1,1.7c-1,0.4-2.1,0.6-3.1,0.6H585V60.7z M585.1,60.7h0.2V66h-0.2V60.7z M587.2,36.3
	l9.2-3.3l1.2,3.3l-9.2,3.3L587.2,36.3z"/>
<path class="st5" d="M705.4,269.1c2.5,0.4,1.5,2.2,1.3,3.6c-2.1,12.7-2,25.7,0.3,38.4c3.2,16.8,9,20.2,24.9,14.3
	c4.5-1.7,8.9-4,13.8-6.2c-2.5,17.7-5,16.6-7.4,34h44.2c-4.3-19.9-8.6-21.5-12.8-41.4c-0.9-3.8-2.8-7.3-3.7-11.2
	c-0.6-2.8-0.5-4.4,2.5-5.8c5-2.5,8.4-9.8,7.5-15.2c-0.8-4.6-2.8-8.6-7.8-9.8c-5.7-1.3-11.3-1.5-15.6,3.6c-4.2,5-6,4.9-7.5-1.5
	c-2.4-10.4-7.7-17.1-18.1-20.9c-7.7-2.8-8.5-3.6-13.7,3.4C710.1,258.9,708,264.2,705.4,269.1z"/>
<path class="st6" d="M705.4,269.1c2.3-1,3.2-3,4.1-5.2c2.1-5.5,5-10.5,9.9-14.1c1-0.8,2.1-2,3.5-0.3c2.4,3,6,4.2,9.5,5.3
	c4.9,1.6,8,4.6,9.1,9.9c0.8,4.4,2.5,8.6,4.9,12.3c2.3,3.4,3.6,3.5,5.3-0.1c3.8-7.8,10.2-7.8,17.7-5.6c4.2,1.3,5.5,5.2,5.7,9.2
	c0.4,6.1-3.3,11.7-9,13.7c-1.2,0.3-1.9,1.5-1.6,2.7c0,0.1,0,0.1,0.1,0.2c0.9,5.2,0.9,10.7,5.3,14.6c5.5-1,9.8,0.7,14,4.7
	c3.6,3.4,9.2,3.8,13.3,1c1.5-1,2.4-0.6,3.6,0.2c4.8,3,9.8,3.6,14.8,0.5s6.1-7.8,5.3-13.2c-0.1-1-0.6-2.2,0.5-3
	c6.6-4.1,5.3-10.1,3.5-16c-0.8-2.7-0.9-4.5,0.7-7c2.5-3.9,1.5-8.4,0-12.5c-0.7-1.8-0.7-3.8,0-5.6c3.4-9.4-0.9-18.1-10-21.4
	c-0.7-0.3-2-0.4-2.1-0.7c-0.9-7-8.1-8.6-11.3-13.7s-7.3-9.4-14.4-6.7c-1.5,0.6-1.8-0.5-2.5-1.3c-4.7-4.7-10.2-6.9-16.7-4.5
	c-2.1,0.8-3.6-0.9-5.1-0.6c-6.3,0.9-11.1-2.4-16.5-4.8c-6-2.7-13.1-2-18.5,1.8c-1.8,1.2-2.9,0.7-4.6,0c-8.6-3.5-16.5-0.3-20.7,8.1
	c-0.5,1-0.6,2.1-2.2,2.6c-8.4,2.8-10.8,8.8-6.7,16.6c0.5,1,1.1,1.9,1.8,2.7c2,2.1,3.7,3.7,0.6,6.8c-2.2,2.3-0.6,5.9,1.1,8.6
	c0.9,1.5,1.9,2.5,0.1,4.4c-1.9,1.9-2.3,4.9-0.8,7.3C699,269.2,702,269.8,705.4,269.1z"/>
<polygon class="st7" points="692.3,353.1 653,313.8 653,353.1 "/>
<image style="overflow:visible;opacity:0.1;enable-background:new    ;" width="773" height="410" xlink:href="EBA48F74.png"  transform="matrix(1 0 0 1 0 64.57)">
</image>
<rect x="120.8" y="184.6" class="st8" width="532.1" height="168.6"/>
<image style="overflow:visible;opacity:0.1;enable-background:new    ;" width="711" height="339" xlink:href="EBA48F7E.png"  transform="matrix(1 0 0 1 273 500.57)">
</image>
<rect x="393.1" y="620.5" class="st9" width="469.9" height="98"/>
<path class="st2" d="M169,289.8c-1,0-2.1-0.4-2.8-1.1c-0.7-0.7-1.1-1.7-1.1-2.8c0-1,0.4-2,1.1-2.7c0.7-0.7,1.7-1.1,2.8-1.1
	c2.1,0,3.8,1.6,3.8,3.7c0,0,0,0.1,0,0.1c0,1-0.4,2-1.1,2.8C171,289.4,170,289.8,169,289.8z M165.9,254.5h6.4l-0.8,23.7h-5
	L165.9,254.5z"/>
<path class="st2" d="M189.7,288.2c-1.9,0.1-3.8-0.3-5.5-1.1c-1.4-0.7-2.5-1.9-3-3.4c-0.7-2.1-1.1-4.2-1.1-6.4l-0.9-23l5.5-0.3
	l0.9,23.3v0.7c0,0.9,0.1,1.8,0.4,2.6c0.2,0.5,0.6,0.9,1.1,1.1c0.9,0.2,1.8,0.3,2.6,0.3h0.5v6.2L189.7,288.2z"/>
<path class="st2" d="M189.7,282h67.6c0.9,0,1.7-0.2,2.5-0.6c0.7-0.4,1.3-0.9,1.7-1.6l3.7-7.1c0.7-1.3,1.6-2.4,2.9-3.3
	c1.2-0.8,2.5-1.2,3.9-1.3c1.4,0,2.8,0.3,4,1c1.6,0.9,2.8,2.3,3.6,3.9c0.8,1.8,1.2,3.8,1.1,5.8c-0.1,2.1-0.7,4.2-1.7,6.1
	c-0.5,1-1.2,1.8-2.1,2.5c-0.9,0.6-1.9,1-3,1.1c-1.1,0.1-2.3-0.2-3.3-0.7l-7.8-4l2.6-5.2l8.3,4.2c0.1,0.1,0.3,0.2,0.5,0.2
	c0.1,0,0.3-0.1,0.4-0.1c0.1-0.1,0.2-0.2,0.2-0.4c0.6-1,1-2.1,1.2-3.3c0.2-0.9,0.1-1.9-0.1-2.8c-0.3-0.8-0.8-1.5-1.6-1.9
	c-0.5-0.3-1.2-0.4-1.8-0.4c-0.6,0.1-1.2,0.4-1.7,0.8c-0.6,0.5-1.1,1.1-1.4,1.8l-3,5.7c-0.9,1.7-2.1,3.2-3.7,4.3
	c-1.5,1-3.3,1.6-5.1,1.6h-67.6V282z M284.8,288.2c-1.7,0-3.3-0.4-4.8-1.3c-1.3-0.9-2.4-2.1-3-3.5c-0.7-1.7-1-3.5-1-5.3h4.6
	c0,0.8,0.1,1.5,0.5,2.2c0.3,0.6,0.8,1.1,1.4,1.4c0.7,0.3,1.5,0.5,2.3,0.5L284.8,288.2z"/>
<path class="st2" d="M284.3,282h69.4c1.5,0,2.5-0.3,3-0.8c0.5-0.6,0.7-1.4,0.7-2.2v-6.2h5.1v6.3c0,1.5-0.4,3-1,4.4
	c-0.6,1.4-1.6,2.6-2.9,3.5c-1.5,1-3.2,1.4-4.9,1.4h-69.3V282z M365.8,288.2c-1.6,0-3.2-0.4-4.6-1.4c-1.3-0.9-2.3-2.1-3-3.5
	c-0.6-1.4-1-2.8-1-4.4h5.1c-0.1,0.8,0.2,1.6,0.8,2.2c0.7,0.6,1.6,0.9,2.6,0.8h0.5c1,0.1,1.9-0.3,2.6-0.9c0.4-0.6,0.7-1.4,0.6-2.1
	v-6.2h5.1v6.3c0,1.5-0.3,3-0.9,4.4c-0.6,1.4-1.6,2.6-2.9,3.5C369.3,287.8,367.6,288.3,365.8,288.2L365.8,288.2z M363.4,264l3.8-3.8
	l3.8,3.8l-3.8,3.8L363.4,264z M368.8,257.2l3.2-3.1l3.1,3.1l-3.1,3.1L368.8,257.2z M378.1,288.2c-1.6,0-3.3-0.4-4.6-1.3
	c-1.3-0.8-2.3-2-3-3.4c-0.7-1.4-1-2.9-0.9-4.5h5.1c-0.1,0.8,0.2,1.7,0.8,2.3c0.8,0.6,1.7,0.9,2.6,0.8c0.8,0,1.6-0.1,2.4-0.5
	c0.6-0.3,1.1-0.9,1.2-1.6c0.2-1,0.1-2.1-0.2-3.1l-2-7.5l5.3-1.5l2,7.5c0.7,2.2,0.7,4.5,0.1,6.7c-0.5,1.9-1.7,3.5-3.3,4.5
	C381.9,287.7,380,288.2,378.1,288.2L378.1,288.2z M372.9,264l3.8-3.8l3.8,3.8l-3.8,3.8L372.9,264z"/>
<path class="st2" d="M401.4,295l0.9-0.2l0.9-0.3c1.7-0.4,3.4-1,5-1.6c2.2-0.8,3.5-3.1,2.9-5.4l-2-14.4l5.4-0.9l2,14.5
	c0.4,2.2,0.2,4.5-0.7,6.6c-0.8,1.7-2.2,3.2-3.9,4.1c-2.2,1.2-4.6,2.2-7.1,2.9c-0.3,0.1-0.7,0.2-1,0.3c-0.3,0.1-0.7,0.2-1,0.3
	L401.4,295z M418.3,288.2c-1.5,0.1-3-0.4-4.3-1.2c-1.2-1-2.1-2.3-2.6-3.8c-0.8-2.4-1.4-5-1.6-7.5l-0.1-0.9l5.1-0.8l0,0.3
	c0.2,1.7,0.5,3.5,0.9,5.1c0.1,0.8,0.5,1.5,1,2c0.5,0.4,1.1,0.6,1.7,0.5h0.3v6.2L418.3,288.2z"/>
<path class="st2" d="M418.1,282h71c1,0,2-0.1,3-0.5c0.7-0.3,1.3-0.8,1.5-1.6c0.2-1,0.2-2.1-0.2-3.1l-2-7.5l5.3-1.5l2,7.5
	c0.7,2.2,0.7,4.6,0,6.8c-0.6,1.9-1.8,3.5-3.5,4.5c-1.8,1.1-4,1.6-6.1,1.6h-71L418.1,282z M485.3,295.5l4.3-4.3l4.3,4.3l-4.3,4.3
	L485.3,295.5z"/>
<path class="st2" d="M525.2,288.2c-1.6,0-3.1-0.3-4.5-0.9c-1.2-0.5-2.2-1.3-3-2.3c-0.7-0.9-1.2-2.1-1.2-3.3c0-0.4-0.1-0.8-0.1-1.4
	s0-1.2,0-1.8h5.1c0,0.3,0,0.7,0,1.1s0,0.8,0.1,1v0.1c0.1,0.4,0.4,0.8,0.8,1c0.6,0.2,1.3,0.3,1.9,0.3h5c1.6,0,2.7-0.3,3.2-0.9
	c0.5-0.7,0.6-1.6,0.3-2.4c-0.8-2.2-1.8-4.2-3-6.2c-1.4-2.5-3-4.9-4.7-7.4l4.5-3.6c2,2.7,3.8,5.5,5.5,8.4c1.4,2.3,2.5,4.8,3.2,7.4
	c0.5,1.8,0.4,3.7-0.1,5.4c-0.5,1.7-1.7,3.1-3.2,4c-1.9,1.1-4,1.6-6.2,1.5L525.2,288.2z"/>
<path class="st2" d="M545.9,295l1-0.2l0.8-0.2c2.5-0.5,5-1.1,7.5-1.9c1.2-0.3,2.2-1,2.9-1.9c0.5-1.1,0.7-2.3,0.5-3.4l-0.8-8
	c-0.1-1.6-0.6-3.1-1.6-4.3c-0.8-1-2-1.5-3.3-1.4c-0.8,0-1.5,0.3-2.2,0.8c-0.6,0.5-1.1,1.1-1.3,1.9c-0.3,0.8-0.4,1.6-0.3,2.5
	c0.1,0.9,0.4,1.7,1.1,2.3c0.7,0.6,1.7,0.9,2.6,0.8c1.4,0,2.7-0.1,4.1-0.3c1.1-0.1,2.2-0.3,3.3-0.6l1.5,6c-2.9,0.7-5.9,1.1-8.9,1.1
	c-1.6,0-3.1-0.4-4.5-1.1c-1.3-0.7-2.5-1.8-3.3-3.1c-0.8-1.4-1.3-3-1.5-4.6c-0.1-1.9,0.2-3.8,0.9-5.5c0.7-1.7,1.8-3.2,3.2-4.4
	c1.4-1.1,3.1-1.8,5-1.9c1.8-0.1,3.5,0.3,5,1.3c1.6,1,2.8,2.3,3.7,3.9c1,1.8,1.6,3.8,1.8,5.9l0.8,8.1c0.3,3,0,5.4-1,7.1
	c-1.2,1.9-3,3.3-5,4c-3.5,1.3-7.1,2.3-10.7,3c-0.1,0-0.1,0.1-0.2,0c-0.1,0-0.1,0-0.2,0L545.9,295z"/>
<path class="st2" d="M566.7,295l0.9-0.2l0.9-0.3c1.7-0.4,3.4-1,5-1.6c1-0.4,1.8-1.1,2.4-2c0.5-1.1,0.7-2.3,0.5-3.4l-2-14.4l5.4-0.9
	l2,14.5c0.4,2.2,0.2,4.5-0.7,6.6c-0.8,1.7-2.2,3.2-3.9,4.1c-2.2,1.2-4.6,2.2-7.1,2.9c-0.3,0.1-0.7,0.2-1,0.3c-0.3,0.1-0.7,0.2-1,0.3
	L566.7,295z"/>
<path class="st2" d="M596.3,288.2c-1.6,0-3.1-0.3-4.5-0.9c-1.2-0.5-2.2-1.3-3-2.3c-0.7-1-1.1-2.1-1.2-3.3c0-0.4-0.1-0.8-0.1-1.4
	s0-1.2,0-1.8h5.1c0,0.3,0,0.7,0,1.1s0,0.8,0.1,1v0.1c0.1,0.5,0.4,0.8,0.8,1c0.6,0.2,1.3,0.3,1.9,0.3h5c1.6,0,2.7-0.3,3.2-0.9
	c0.5-0.7,0.6-1.6,0.3-2.4c-0.8-2.2-1.8-4.2-3-6.2c-1.4-2.5-3-4.9-4.7-7.4l4.5-3.6c2,2.7,3.8,5.5,5.5,8.4c1.4,2.3,2.5,4.8,3.2,7.4
	c0.5,1.8,0.4,3.7-0.1,5.4c-0.6,1.7-1.7,3.1-3.2,4c-1.9,1.1-4,1.6-6.2,1.5L596.3,288.2z"/>
<rect x="386.9" y="207.5" class="st1" width="222.5" height="13.3"/>
<polygon class="st10" points="301.6,571 335,537.6 335,571 "/>
<image style="overflow:visible;opacity:0.1;enable-background:new    ;" width="692" height="384" xlink:href="EBA48F7F.png"  transform="matrix(1 0 0 1 215 308.57)">
</image>
<rect x="335" y="427.8" class="st10" width="451.9" height="143.1"/>
<rect x="563.3" y="454.3" class="st11" width="189" height="11.3"/>
<rect x="368" y="488.1" class="st12" width="384.2" height="8.2"/>
<rect x="368" y="505" class="st12" width="384.2" height="8.2"/>
<rect x="368" y="522" class="st12" width="384.2" height="8.2"/>
<rect x="433.3" y="662.8" class="st1" width="391.1" height="13.3"/>
<rect x="252.6" y="620.5" class="st13" width="140.5" height="98"/>
<path id="Path_289" class="st12" d="M336.5,654.8l-18.5,7.9l18.5-2.5L336.5,654.8 M318,676.3l18.5,7.9v-5.5L318,676.3 M341.4,647.3
	v17.2l-36.9,4.9l36.9,4.9v17.2l-51.7-22.2L341.4,647.3z"/>
</svg>
