<?xml version="1.0" encoding="utf-8"?>
<!-- Generator: Adobe Illustrator 24.2.1, SVG Export Plug-In . SVG Version: 6.00 Build 0)  -->
<svg version="1.1" id="Layer_1" xmlns="http://www.w3.org/2000/svg" xmlns:xlink="http://www.w3.org/1999/xlink" x="0px" y="0px"
	 viewBox="0 0 996 879.7" style="enable-background:new 0 0 996 879.7;" xml:space="preserve">
<style type="text/css">
	.st0{fill:#202125;}
	.st1{fill:#DDDDDD;}
	.st2{fill:#7A7B7F;}
	.st3{fill:#636363;}
	.st4{fill:#EEEEEE;}
	.st5{fill:#2A2A2A;}
	.st6{fill:#424242;}
	.st7{fill:#FFD600;}
</style>
<rect x="199.6" class="st0" width="610.4" height="718.5"/>
<circle class="st1" cx="777.9" cy="69.2" r="3.3"/>
<circle class="st1" cx="777.9" cy="55" r="3.3"/>
<circle class="st1" cx="777.9" cy="40.9" r="3.3"/>
<path class="st1" d="M720.5,35.3c-3.4,3.4-3.4,8-3.9,12.3c-0.6,4.4-0.2,8.8,1.1,13c1.3,4,3,5,7.1,3.8c2.2-0.6,4.3-1.7,6.9-2.8
	c-0.9,6.8-1.8,6.9-2.7,13.3h16.7c-1.4-6.8-2.8-7.2-4.2-13.9c0.2-0.5,0.1-1.2-0.3-1.6c-4-4.2-6.7-9.4-11-13.3
	c-2.8-2.6-5.2-5.6-7.2-8.8C722.3,36.5,722,35,720.5,35.3z"/>
<path class="st2" d="M743.6,60.5c5.2-0.4,8.4-2.9,10-8.1c3.2-10.6,0.6-17.3-9.1-22.5c-1.5-0.8-2.8-1.9-3.9-3.3
	c-1.8-2.1-4.2-3.2-7-1.2c-0.5,3.3,0.7,6.4,1.5,9.5c2,8,4.4,15.8,7.2,23.6C742.5,59.3,742.9,60,743.6,60.5z"/>
<path class="st3" d="M743.6,60.5c-2.3-7.7-4.6-15.4-7-23.1c-1.2-3.9-1.4-8.1-3-11.9c-0.2-0.1-0.3,0-0.5,0.1c-2,0.3-1.5,1.8-1.3,2.9
	c1.2,6,3.1,11.8,5.4,17.5c-2.4-5.7-4.1-11.7-6.2-17.6c-0.4-1.2-0.5-2.5-1.5-3.4l-2,0.6c-1,1.4-0.2,2.7,0.3,3.9
	c2.6,7,5,14.2,8.1,19.5c-3.8-6.6-7.1-13.5-9.8-20.6c-0.4-1-0.6-2.3-2.2-2.2l-1.3,0.3c-1,1.7,0.1,3.1,0.7,4.5
	c3.5,9.1,8.4,17.7,14.5,25.3C739.4,58.1,740.5,60.7,743.6,60.5L743.6,60.5z"/>
<path class="st2" d="M743.6,60.5c-4.3-1.5-6-5.5-8.3-8.8c-5.4-7.8-9.6-16.3-12.6-25.2c-3.3,0.5-4.4,2.1-3.5,5
	c0.4,1.3,0.9,2.6,1.3,3.8c6.2,9.3,14.3,16.9,21,25.8C742.1,60.9,743,61.1,743.6,60.5z"/>
<path class="st2" d="M723.9,26.2c1.9,2.1,2.4,4.9,3.4,7.5c2.7,6.6,6.1,12.8,10.3,18.6c-3.4-8.9-7.4-17.5-10-26.7
	C726.1,24.6,724.9,24.6,723.9,26.2z"/>
<path class="st2" d="M729.5,24.9c0.9,6.2,3.5,11.9,5.7,17.6c0.6,1.6,1.5,3.2,2.5,4.6c-1.1-3.8-2.1-7.6-3.2-11.4
	c-0.7-2.4-1.3-4.9-1.9-7.3c-0.3-1-0.5-2,0.4-2.8C731.9,25.2,731,23.8,729.5,24.9z"/>
<g>
	<path class="st4" d="M301,65.4c-0.7,0-1.4-0.3-1.9-0.8c-0.5-0.5-0.8-1.2-0.8-2c0-0.7,0.3-1.4,0.8-1.9c1.1-1.1,2.8-1.1,3.8,0
		c0,0,0,0,0,0c0.5,0.5,0.8,1.2,0.8,1.9c0,0.7-0.3,1.4-0.8,1.9C302.5,65.1,301.8,65.4,301,65.4z"/>
	<path class="st4" d="M315.1,65.2c-1.1,0-2.2-0.2-3.2-0.6c-0.8-0.3-1.6-0.9-2.1-1.6c-0.5-0.7-0.8-1.5-0.8-2.3c0-0.3,0-0.6-0.1-1
		s0-0.8,0-1.3h3.6c0,0.2,0,0.5,0,0.8s0,0.5,0,0.7v0c0.1,0.3,0.3,0.6,0.6,0.7c0.4,0.1,0.9,0.2,1.4,0.2h3.1c0.8,0.1,1.6-0.1,2.2-0.6
		c0.4-0.5,0.4-1.1,0.2-1.7l3.7-1c0.4,1.2,0.3,2.6-0.1,3.8c-0.4,1.2-1.2,2.1-2.3,2.8c-1.3,0.7-2.8,1.1-4.3,1L315.1,65.2z M326.1,65.2
		c-1,0-2-0.3-2.9-0.8c-0.8-0.6-1.5-1.4-1.9-2.2c-0.6-1.1-1-2.2-1.3-3.4v-0.1l-2.6-10.3l3.8-1l2.6,10.3v0.1c0.2,0.6,0.4,1.3,0.6,1.9
		c0.1,0.4,0.4,0.7,0.6,1c0.3,0.2,0.7,0.4,1.1,0.3h1.7v4.3L326.1,65.2z"/>
	<path class="st4" d="M327.4,60.9h5.9c0.7,0.1,1.5-0.1,2.1-0.5c0.4-0.4,0.6-0.9,0.5-1.5l-0.4-4.3l3.8-0.4l0.4,4.3
		c0.1,1.2-0.1,2.4-0.6,3.5c-0.5,1-1.3,1.8-2.2,2.3c-1.1,0.6-2.3,0.9-3.6,0.8h-5.9V60.9z M327.9,70.4l2.6-2.7l2.7,2.7l-2.7,2.6
		L327.9,70.4z M334.6,70.4l2.6-2.7l2.7,2.7l-2.7,2.6L334.6,70.4z M342.3,65.2c-1.7,0.1-3.3-0.5-4.5-1.6c-1.2-1.3-1.8-3-1.9-4.7
		l3.8-0.3c0,0.5,0.1,1,0.3,1.4c0.1,0.3,0.4,0.6,0.7,0.7c0.5,0.1,1,0.2,1.5,0.2V65.2z"/>
	<path class="st4" d="M341.9,60.9h2.2c0.7,0.1,1.5-0.1,2.1-0.5c0.4-0.4,0.6-0.9,0.5-1.5l-0.4-4.3l3.9-0.4l0.4,4.3
		c0.2,1.2,0,2.4-0.5,3.5c-0.5,1-1.3,1.8-2.2,2.3c-1.1,0.6-2.3,0.9-3.6,0.8H342L341.9,60.9z M343.8,48.7l3-3l3,3l-3,3L343.8,48.7z
		 M353.1,65.2c-1.7,0.1-3.3-0.5-4.5-1.6c-1.2-1.3-1.8-2.9-1.9-4.7l3.9-0.4c0,0.5,0.1,1,0.3,1.4c0.2,0.3,0.4,0.6,0.8,0.7
		c0.5,0.2,1,0.2,1.5,0.2L353.1,65.2z"/>
	<path class="st4" d="M352.7,60.9h7.5c0.2,0,0.4,0,0.6-0.1c0.2,0,0.3-0.1,0.5-0.2c0.2-0.2,0.4-0.4,0.5-0.6c0.1-0.3,0.1-0.5,0.1-0.8
		c0-0.3-0.1-0.6-0.3-0.8l-7.7-11l0.9-3.3l12.6-4.7l1.4,4l-10.9,4l0.3-1.1l6.4,9.3c0.6,0.8,1,1.8,1.2,2.8c0.2,0.9,0.2,1.8,0,2.6
		c-0.2,0.8-0.5,1.5-1.1,2.1c-0.5,0.6-1.1,1.1-1.8,1.4c-0.8,0.3-1.7,0.5-2.6,0.5h-7.5L352.7,60.9z M352.8,60.9h0.2v4.3h-0.1
		L352.8,60.9z"/>
	<path class="st4" d="M391.9,73.5c-3.2,0.8-5.9,0.5-8-0.8c-2.2-1.4-3.7-3.8-4-6.3c-0.5-3.3-0.1-6.8,1.1-9.9l3.6,1.4
		c-0.9,2.2-1.3,4.6-1.1,7c0.1,1.7,0.9,3.2,2.3,4.1c1.6,0.8,3.5,1,5.2,0.4l0.5-0.1L392,69c1-0.2,2-0.6,3-1c0.6-0.3,1.2-0.8,1.5-1.4
		c0.4-0.8,0.5-1.7,0.4-2.6L396,41.5l3.9-0.2l0.9,22.6c0.1,1.6-0.1,3.1-0.7,4.6c-0.5,1.2-1.4,2.1-2.4,2.8c-1.3,0.8-2.7,1.4-4.2,1.8
		L391.9,73.5z M403.1,65.2c-1.1,0-2.2-0.3-3.1-0.8c-1-0.5-1.7-1.3-2.3-2.3c-0.6-1.1-0.9-2.3-0.9-3.5l3.8-0.2
		c-0.1,0.7,0.2,1.4,0.7,1.9c0.5,0.4,1.2,0.6,1.8,0.5h0.7v4.3H403.1z"/>
	<path class="st4" d="M403.4,60.9h5.9c0.7,0.1,1.5-0.1,2.1-0.5c0.4-0.4,0.6-0.9,0.5-1.5l-0.4-4.3l3.8-0.4l0.4,4.3
		c0.1,1.2-0.1,2.4-0.6,3.5c-0.5,1-1.3,1.8-2.2,2.3c-1.1,0.6-2.4,0.9-3.6,0.8h-5.9L403.4,60.9z M403.9,70.4l2.6-2.7l2.7,2.7l-2.7,2.6
		L403.9,70.4z M410.6,70.4l2.6-2.7l2.7,2.7l-2.7,2.6L410.6,70.4z M418.3,65.2c-1.7,0.1-3.3-0.5-4.5-1.6c-1.2-1.3-1.8-3-1.9-4.7
		l3.8-0.3c0,0.5,0.1,1,0.3,1.4c0.1,0.3,0.4,0.6,0.7,0.7c0.5,0.1,1,0.2,1.5,0.2L418.3,65.2z"/>
	<path class="st4" d="M417.9,60.9h0.4c0.6,0,1.2-0.1,1.7-0.4c0.5-0.3,0.9-0.7,1.2-1.2l2.6-5c0.5-0.9,1.1-1.7,2-2.3
		c0.8-0.5,1.8-0.9,2.7-0.9c1,0,2,0.2,2.8,0.7c1.1,0.6,2,1.6,2.5,2.7c0.6,1.3,0.9,2.7,0.8,4c-0.1,1.5-0.5,3-1.2,4.3
		c-0.4,0.7-0.9,1.3-1.5,1.7c-0.6,0.4-1.4,0.7-2.1,0.8c-0.8,0.1-1.6-0.1-2.3-0.5l-5.4-2.8l1.8-3.6l5.8,2.9c0.1,0.1,0.2,0.1,0.3,0.1
		c0.1,0,0.2,0,0.3-0.1c0.1-0.1,0.1-0.2,0.1-0.3c0.4-0.7,0.7-1.5,0.8-2.3c0.1-0.7,0.1-1.4-0.1-2c-0.2-0.6-0.6-1-1.1-1.3
		c-0.4-0.2-0.8-0.3-1.3-0.3c-0.4,0.1-0.9,0.3-1.2,0.5c-0.4,0.3-0.8,0.8-1,1.3l-2.1,4c-0.6,1.2-1.5,2.2-2.6,3
		c-1.1,0.7-2.3,1.1-3.6,1.1h-0.4L417.9,60.9z M437.5,65.2c-1.2,0-2.3-0.3-3.4-0.9c-0.9-0.6-1.7-1.5-2.1-2.5
		c-0.5-1.2-0.7-2.5-0.7-3.7h3.3c0,0.5,0.1,1.1,0.3,1.5c0.2,0.4,0.6,0.8,1,1c0.5,0.2,1.1,0.3,1.6,0.3L437.5,65.2z"/>
	<path class="st4" d="M437.2,60.9h7.5c0.2,0,0.4,0,0.6-0.1c0.2,0,0.3-0.1,0.5-0.2c0.2-0.2,0.4-0.4,0.5-0.6c0.1-0.3,0.1-0.5,0.1-0.8
		c0-0.3-0.1-0.6-0.3-0.8l-7.7-11l0.9-3.3l12.6-4.6l1.4,4l-10.9,4l0.3-1.1l6.4,9.4c0.6,0.8,0.9,1.8,1.2,2.8c0.2,0.9,0.2,1.8,0,2.6
		c-0.2,0.8-0.5,1.5-1.1,2.1c-0.5,0.6-1.1,1.1-1.8,1.4c-0.8,0.3-1.7,0.5-2.6,0.5h-7.4V60.9z M437.3,60.9h0.1v4.3h-0.1V60.9z
		 M454.9,65.2c-1,0-2-0.2-2.9-0.6c-0.9-0.5-1.8-1.1-2.5-1.8c-0.8-0.9-1.6-1.9-2.2-3c-0.4-0.7-0.7-1.2-1-1.7l2.9-1.8
		c0.2,0.3,0.3,0.5,0.5,0.8l0.5,0.8c0.5,0.7,1,1.3,1.5,1.9c0.4,0.4,0.9,0.7,1.4,0.9c0.5,0.2,1.1,0.3,1.6,0.3h0.5v4.3L454.9,65.2z"/>
	<path class="st4" d="M455,60.9h5.3c0.7,0,1.4-0.1,2.1-0.3c0.5-0.2,0.8-0.6,1-1.1c0.2-0.7,0.1-1.5-0.1-2.2l-1.4-5.2l3.7-1.1l1.4,5.4
		c0.5,1.5,0.5,3.1,0,4.6c-0.4,1.3-1.3,2.4-2.5,3.1c-1.3,0.7-2.7,1.1-4.2,1.1H455V60.9z M456.8,45.9l2.6-2.7l2.7,2.7l-2.7,2.6
		L456.8,45.9z M463.5,45.9l2.6-2.7l2.7,2.7l-2.7,2.6L463.5,45.9z"/>
	<path class="st4" d="M480,41.5l3.8-0.2l0.9,23.9l-3.8,0.2L480,41.5z"/>
	<path class="st4" d="M486,70c0.2,0,0.4-0.1,0.6-0.2l0.6-0.2c1.2-0.3,2.4-0.7,3.5-1.2c0.7-0.3,1.3-0.8,1.7-1.4
		c0.4-0.7,0.5-1.6,0.3-2.4l-1.4-10l3.8-0.6l1.4,10.2c0.3,1.5,0.1,3.1-0.5,4.6c-0.6,1.2-1.5,2.2-2.7,2.9c-1.6,0.9-3.3,1.5-5,2
		c-0.2,0.1-0.5,0.2-0.7,0.2c-0.2,0.1-0.5,0.1-0.7,0.2L486,70z"/>
	<path class="st4" d="M514.9,65.2c-1.1,0-2.2-0.2-3.2-0.6c-0.8-0.3-1.6-0.9-2.1-1.6c-0.5-0.7-0.8-1.5-0.8-2.3c0-0.3,0-0.6-0.1-1
		s0-0.8,0-1.3h3.6c0,0.2,0,0.5,0,0.8c0,0.2,0,0.5,0.1,0.7v0c0.1,0.3,0.3,0.6,0.6,0.7c0.4,0.1,0.9,0.2,1.3,0.2h3.5
		c0.8,0.1,1.6-0.1,2.2-0.6c0.4-0.5,0.4-1.1,0.2-1.7c-0.6-1.5-1.3-3-2.1-4.3c-1-1.7-2.1-3.5-3.3-5.2l3.1-2.5c1.4,1.9,2.7,3.9,3.8,5.9
		c1,1.6,1.7,3.4,2.2,5.2c0.3,1.2,0.3,2.6-0.1,3.8c-0.4,1.2-1.2,2.2-2.3,2.8c-1.3,0.7-2.8,1.1-4.3,1L514.9,65.2z"/>
	<path class="st4" d="M529.4,70c0.2,0,0.4-0.1,0.5-0.1c2.8-0.6,4.7-1.1,5.8-1.4c0.9-0.2,1.7-0.6,2.3-1.3c0.4-0.7,0.5-1.6,0.3-2.4
		l-0.6-5.6c0-1.1-0.4-2.1-1.1-3c-0.5-0.7-1.4-1-2.2-1c-0.6,0-1.1,0.2-1.5,0.5c-0.4,0.4-0.8,0.8-0.9,1.3c-0.2,0.5-0.3,1.1-0.2,1.7
		c0,0.6,0.3,1.2,0.7,1.7c0.5,0.4,1.2,0.6,1.9,0.5h9.6v4.3h-9.6c-1.7,0.1-3.3-0.5-4.5-1.7c-1.2-1.2-1.9-2.8-2-4.5
		c-0.1-1.3,0.1-2.7,0.6-3.9c0.5-1.2,1.3-2.2,2.3-3c1-0.8,2.2-1.2,3.5-1.3c1.2-0.1,2.5,0.2,3.5,0.9c1.1,0.7,2,1.6,2.6,2.8
		c0.7,1.3,1.1,2.7,1.2,4.1l0.6,5.6c0.3,1.7,0,3.4-0.7,5c-0.8,1.3-2,2.3-3.5,2.8c-2.4,0.9-4.8,1.6-7.3,2l-0.3,0.1l-0.3,0.1L529.4,70z
		"/>
	<path class="st4" d="M543.5,60.9h0.5c1.9,0,3.6,0,5.1-0.2c1.5-0.1,2.9-0.4,4.3-0.7l8.5-2.1l-0.1,1l-7.4-4h-0.1
		c-0.6-0.3-1.2-0.5-1.8-0.5c-0.6,0-1.2,0.2-1.8,0.5c-0.6,0.3-1,0.8-1.3,1.4l-0.6,1.1l-3.4-2.1l0.7-1.2c0.6-1.2,1.6-2.3,2.8-3
		c1.1-0.7,2.3-1.1,3.6-1.1c1.3,0,2.7,0.4,3.8,1.1l8.8,5.2l-0.6,5l-10.2,2.8c-1.6,0.4-3.2,0.7-4.8,0.8c-1.6,0.1-3.4,0.2-5.4,0.2h-0.7
		L543.5,60.9z M549.7,44.8l3-3l3,3l-3,3L549.7,44.8z"/>
	<path class="st4" d="M583.7,62.6c-0.9,0.1-1.8,0-2.6-0.4c-0.9-0.4-1.7-0.9-2.4-1.6c-0.7-0.7-1.2-1.5-1.5-2.4
		c-0.3-1.1-0.4-2.2-0.2-3.4c0.2-1.1,0.7-2.1,1.5-3c0.7-0.9,1.6-1.5,2.7-1.8l6-2l1.2,3.8l-6,2.1c-0.6,0.2-1.1,0.6-1.3,1.2
		c-0.3,0.5-0.4,1.1-0.2,1.7c0.3,1.1,1.4,1.9,2.6,1.7l4.5-0.7l0.6,4.2l-2.8,0.5L583.7,62.6z M593.3,65.2c-1.3,0-2.6-0.3-3.8-1
		c-1.1-0.7-2.1-1.6-2.7-2.8c-0.7-1.2-1-2.5-1-3.8V47h3.8v10.6c0,0.6,0.2,1.2,0.5,1.7c0.3,0.5,0.8,0.9,1.3,1.2
		c0.6,0.3,1.2,0.4,1.8,0.4h0.7v4.3L593.3,65.2z"/>
	<path class="st4" d="M593.6,60.9h0.4c0.6,0,1.2-0.1,1.7-0.4c0.5-0.3,0.9-0.7,1.2-1.2l2.6-5c0.5-0.9,1.1-1.7,2-2.3
		c0.8-0.5,1.8-0.9,2.7-0.9c1,0,2,0.2,2.8,0.7c1.1,0.6,2,1.6,2.5,2.7c0.6,1.3,0.9,2.7,0.8,4c-0.1,1.5-0.5,3-1.2,4.3
		c-0.4,0.7-0.9,1.3-1.5,1.7c-0.6,0.4-1.4,0.7-2.1,0.8c-0.8,0.1-1.6-0.1-2.3-0.5l-5.4-2.8l1.8-3.6l5.8,2.9c0.1,0.1,0.2,0.1,0.3,0.1
		c0.1,0,0.2,0,0.3-0.1c0.1-0.1,0.1-0.2,0.1-0.3c0.4-0.7,0.7-1.5,0.8-2.3c0.1-0.7,0.1-1.4-0.1-2c-0.2-0.6-0.6-1-1.1-1.3
		c-0.4-0.2-0.8-0.3-1.3-0.3c-0.4,0.1-0.9,0.3-1.2,0.5c-0.4,0.3-0.8,0.8-1,1.3l-2.1,4c-0.6,1.2-1.5,2.2-2.6,3
		c-1.1,0.7-2.3,1.1-3.6,1.1h-0.4L593.6,60.9z"/>
	<path class="st4" d="M615.7,70l0.7-0.1c0.2,0,0.4-0.1,0.6-0.1c1.8-0.3,3.5-0.8,5.2-1.3c0.8-0.2,1.5-0.7,2-1.3
		c0.4-0.7,0.5-1.6,0.4-2.4l-0.5-5.6c-0.1-1.1-0.4-2.1-1.1-3c-0.6-0.7-1.4-1.1-2.3-1c-0.5,0-1.1,0.2-1.5,0.5
		c-0.4,0.3-0.7,0.8-0.9,1.3c-0.2,0.5-0.3,1.1-0.2,1.7c0,0.6,0.3,1.2,0.8,1.6c0.5,0.4,1.2,0.6,1.8,0.6c1,0,1.9-0.1,2.9-0.2
		c0.8-0.1,1.6-0.2,2.3-0.5l1,4.2c-0.9,0.2-1.9,0.4-2.8,0.6c-1.1,0.2-2.3,0.2-3.4,0.2c-1.1,0-2.2-0.2-3.2-0.8
		c-0.9-0.5-1.7-1.3-2.3-2.2c-0.6-1-0.9-2.1-1-3.2c-0.1-1.3,0.1-2.6,0.6-3.8c0.5-1.2,1.3-2.2,2.3-3c1-0.8,2.2-1.2,3.5-1.3
		c1.2-0.1,2.5,0.2,3.5,0.9c1.1,0.7,2,1.6,2.6,2.8c0.7,1.3,1.1,2.7,1.2,4.2l0.6,5.7c0.3,1.7,0,3.5-0.7,5c-0.8,1.3-2.1,2.3-3.5,2.8
		c-2.4,0.9-4.9,1.6-7.5,2c0,0-0.1,0-0.1,0c0,0-0.1,0-0.1,0L615.7,70z"/>
	<path class="st4" d="M630.3,70c0.2,0,0.4-0.1,0.6-0.2l0.6-0.2c1.2-0.3,2.4-0.7,3.5-1.2c1.6-0.5,2.4-2.2,2-3.8l-1.4-10l3.8-0.6
		l1.4,10.2c0.3,1.5,0.1,3.1-0.5,4.6c-0.6,1.2-1.5,2.2-2.7,2.9c-1.6,0.9-3.3,1.5-5,2c-0.2,0.1-0.5,0.2-0.7,0.2
		c-0.2,0.1-0.5,0.1-0.7,0.2L630.3,70z M634.3,48.3l3-3l3,3l-3,3L634.3,48.3z"/>
	<path class="st4" d="M642.7,70l0.6-0.2l0.6-0.2c1.2-0.3,2.4-0.7,3.5-1.2c0.7-0.3,1.3-0.8,1.7-1.4c0.4-0.7,0.5-1.6,0.3-2.4l-1.4-10
		l3.8-0.6l1.4,10.2c0.3,1.5,0.1,3.1-0.5,4.6c-0.6,1.2-1.5,2.2-2.7,2.9c-1.6,0.9-3.3,1.5-5,2c-0.2,0.1-0.5,0.2-0.7,0.2
		c-0.2,0.1-0.5,0.1-0.7,0.2L642.7,70z"/>
</g>
<rect x="228.4" y="109.8" class="st2" width="552.8" height="0.5"/>
<image style="overflow:visible;opacity:0.2;enable-background:new    ;" width="648" height="493" xlink:href="A5B2E3C2.png"  transform="matrix(1 0 0 1 0 25.73)">
</image>
<rect x="120.1" y="145.1" class="st5" width="407.8" height="252.3"/>
<image style="overflow:visible;opacity:0.2;enable-background:new    ;" width="648" height="494" xlink:href="A5B2E3C5.png"  transform="matrix(1 0 0 1 0 312.73)">
</image>
<rect x="120.1" y="432.5" class="st5" width="407.8" height="252.3"/>
<image style="overflow:visible;enable-background:new    ;" width="649" height="493" id="image" xlink:href="A5B2E3C4.png"  transform="matrix(1 0 0 1 347 107.73)">
</image>
<rect x="467.4" y="226.8" class="st5" width="407.8" height="252.3"/>
<rect x="467.4" y="226.8" class="st6" width="407.8" height="38.3"/>
<rect x="659.3" y="145.9" class="st6" width="121.9" height="6.1"/>
<rect x="568.3" y="166.7" class="st6" width="213" height="4.8"/>
<rect x="568.3" y="179.3" class="st6" width="213" height="4.8"/>
<rect x="568.3" y="191.9" class="st6" width="213" height="4.8"/>
<image style="overflow:visible;enable-background:new    ;" width="649" height="493" id="image_2_" xlink:href="A5B2E3CB.png"  transform="matrix(1 0 0 1 347 386.73)">
</image>
<rect x="467.4" y="505.9" class="st5" width="407.8" height="252.3"/>
<rect x="467.4" y="505.9" class="st6" width="407.8" height="38.3"/>
<rect x="120.1" y="145.1" class="st6" width="407.8" height="38.3"/>
<rect x="120.1" y="432.5" class="st6" width="407.8" height="38.3"/>
<path class="st7" d="M339.1,352.3c-1.7,0-3,1.3-3,3s1.3,3,3,3s3-1.3,3-3S340.7,352.3,339.1,352.3z"/>
<path class="st7" d="M381.2,230.1h-9v-4.8c0-5-4-9-9-9h-72.3c-5,0-9,4-9,9v4.8h-9c-5,0-9,4-9,9c0,19.6,9.2,33.9,24,38
	c5.1,11.2,13.2,20.8,23.4,27.6c2.4,1.7,3.7,4.4,3.7,7.3v16.6c-5.3,1.4-9,6.2-9,11.6h-3c-5,0-9,4-9,9v18.1c0,1.7,1.3,3,3,3h60.2
	c1.7,0,3-1.3,3-3v-18c0-5-4-9-9-9h-3c0-5.5-3.7-10.3-9-11.6V312c0-2.9,1.4-5.6,3.8-7.3c10.2-6.9,18.3-16.4,23.4-27.6
	c14.9-4,24-18.4,24-38C390.3,234.1,386.3,230.1,381.2,230.1C381.3,230.1,381.2,230.1,381.2,230.1z M269.9,239.1c0-1.7,1.3-3,3-3l0,0
	h9v13.4c0,6.8,1,13.5,3.1,20C275.4,264.9,269.9,253.9,269.9,239.1L269.9,239.1z M351.1,346.2c1.7,0,3,1.3,3,3v15H300v-15
	c0-1.7,1.3-3,3-3H351.1z M366.2,249.5c0,20.1-10,38.9-26.7,50.1c-4.1,2.8-6.5,7.4-6.4,12.3v19.2c0,1.7,1.3,3,3,3c3.3,0,6,2.7,6,6
	H312c0-3.2,2.6-5.9,5.8-6h0.2c1.7,0,3-1.3,3-3V312c0-4.9-2.4-9.5-6.4-12.3c-16.7-11.2-26.7-30-26.7-50.2v-24.3c0-1.7,1.3-3,3-3h72.2
	c1.7,0,3,1.3,3,3L366.2,249.5z M369.1,269.5c2-6.5,3.1-13.2,3.1-20v-13.4h9c1.7,0,3,1.3,3,3C384.2,253.9,378.7,264.9,369.1,269.5
	L369.1,269.5z"/>
<path class="st7" d="M350.9,251.8c-0.4-1.1-1.3-1.8-2.4-2l-13-1.9l-5.8-11.8c-0.7-1.5-2.5-2.1-4-1.4c-0.6,0.3-1.1,0.8-1.4,1.4
	l-5.8,11.8l-13,1.9c-1.6,0.2-2.8,1.7-2.6,3.4c0.1,0.7,0.4,1.3,0.9,1.7l9.4,9.2L311,277c-0.3,1.6,0.8,3.2,2.4,3.5
	c0.7,0.1,1.4,0,2-0.3l11.6-6.1l11.6,6.1c1.5,0.8,3.3,0.2,4.1-1.2c0.3-0.6,0.4-1.3,0.3-2l-2.2-12.9l9.4-9.2
	C350.9,254.1,351.2,252.9,350.9,251.8z M335.4,260.8c-0.7,0.7-1,1.7-0.9,2.7l1.5,8.5l-7.6-4c-0.9-0.5-1.9-0.5-2.8,0l-7.6,4l1.5-8.5
	c0.2-1-0.2-2-0.9-2.7l-6.2-6l8.5-1.2c1-0.1,1.8-0.8,2.3-1.6l3.8-7.7l3.8,7.7c0.4,0.9,1.3,1.5,2.3,1.6l8.5,1.2L335.4,260.8z"/>
<path class="st7" d="M327,352.3h-12c-1.7,0-3,1.3-3,3s1.3,3,3,3h12c1.7,0,3-1.3,3-3S328.7,352.3,327,352.3L327,352.3z"/>
<path class="st7" d="M355.5,632.5v-19c0-1.7-1.3-3-3-3h-11.1c-0.8-3.3-2.7-6.1-5.5-8V593l4.6-8.6c0.2-0.4,0.4-0.9,0.4-1.4v-26.8
	l5-4.9c0.6-0.6,0.9-1.3,0.9-2.1v-20.2c0-5.8-4.7-10.5-10.5-10.5h-2.5V516c1-1.7,1.5-3.6,1.5-5.6v-3c0-6.1-5-11.1-11.1-11.1
	s-11.1,5-11.1,11.1v3c0,2,0.5,3.9,1.5,5.6v2.4h-2.5c-5.8,0-10.5,4.7-10.5,10.5v20.2c0,0.8,0.3,1.6,0.9,2.1l5,4.9V583
	c0,0.5,0.1,1,0.4,1.4l4.6,8.6v9.6c-2.8,1.9-4.7,4.7-5.5,8h-11.1c-1.7,0-3,1.3-3,3v19c-7,1.5-12,7.6-12,14.7c0,1.7,1.3,3,3,3h26.9
	c1.7,0,3-1.3,3-3s-1.3-3-3-3h-23.4c1.3-3.6,4.7-6,8.5-6h56.9c3.8,0,7.2,2.4,8.5,6h-23.4c-1.7,0-3,1.3-3,3s1.3,3,3,3h26.9
	c1.7,0,3-1.3,3-3C367.4,640.1,362.4,634,355.5,632.5z M307.5,528.9c0-2.5,2-4.5,4.5-4.5h3.6c2.7,0,4.9-2.2,4.9-4.9v-4.3
	c0-0.7-0.2-1.3-0.6-1.8c-0.6-0.9-1-1.9-0.9-3v-3c0-2.8,2.3-5.1,5.1-5.1c2.8,0,5.1,2.3,5.1,5.1v3c0,1.1-0.3,2.1-0.9,3
	c-0.4,0.5-0.6,1.2-0.6,1.8v4.4c0,2.7,2.2,4.9,4.9,4.9h3.6c2.5,0,4.5,2,4.5,4.5v19l-2.8,2.8L326.1,539c-1.2-1.2-3.1-1.2-4.2,0
	c0,0,0,0,0,0l-11.7,11.7l-2.8-2.8L307.5,528.9L307.5,528.9z M317.9,590.8l-4.6-8.6v-26.1l10.7-10.8l10.8,10.8v26.1l-4.6,8.6
	c-0.2,0.4-0.4,0.9-0.4,1.4v12c0,1.2,0.7,2.2,1.7,2.7c1.6,0.7,2.8,2,3.5,3.6h-22c0.7-1.6,2-2.8,3.5-3.6c1-0.5,1.7-1.6,1.7-2.7v-12
	C318.2,591.7,318.1,591.2,317.9,590.8L317.9,590.8z M298.6,632.2v-15.6h50.8v15.6L298.6,632.2z"/>
<path class="st7" d="M324,644.3c-1.7,0-3,1.3-3,3c0,0.8,0.3,1.6,0.9,2.2c1.2,1.2,3.1,1.2,4.2,0c0,0,0,0,0,0c1.2-1.2,1.2-3.1,0-4.2
	C325.6,644.6,324.8,644.3,324,644.3z"/>
<path class="st7" d="M720.8,700.8h-17.5v-11.5c0-1.7-1.3-3-3-3h-14.9l-9.7-40.1l17,9c1.5,0.8,3.3,0.2,4-1.3c0.3-0.6,0.4-1.2,0.3-1.8
	l-4-23.9l17.4-16.9c1.2-1.1,1.2-3,0.1-4.2c-0.5-0.5-1.1-0.8-1.7-0.9l-23.9-3.5L673.9,581c-0.8-1.5-2.6-2.1-4-1.3
	c-0.6,0.3-1,0.7-1.3,1.3l-10.8,21.6l-23.8,3.4c-1.6,0.3-2.8,1.8-2.5,3.4c0.1,0.6,0.4,1.2,0.9,1.7l17.4,16.9l-4.1,23.9
	c-0.3,1.6,0.9,3.2,2.5,3.4c0.6,0.1,1.3,0,1.8-0.3l17-9l-9.8,40.2h-14.9c-1.7,0-3,1.3-3,3v11.5h-17.6c-1.7,0-3,1.3-3,3v14.5
	c0,1.7,1.3,3,3,3h99.1c1.7,0,3-1.3,3-3v-14.4C723.8,702.2,722.5,700.8,720.8,700.8z M652.4,647.1l3.3-19.5c0.2-1-0.2-1.9-0.9-2.6
	l-14.2-13.8l19.6-3c1-0.1,1.8-0.8,2.2-1.6l8.8-17.6l8.7,17.8c0.4,0.9,1.3,1.5,2.2,1.6l19.6,3L687.7,625c-0.7,0.7-1,1.7-0.9,2.6
	l3.3,19.5l-17.5-9.1h-0.5c-0.6-0.2-1.2-0.2-1.8,0h-0.5L652.4,647.1z M671.3,653.3l7.8,32.8h-15.7L671.3,653.3z M645.2,692.1h52.1
	v8.5h-52.1V692.1z M717.8,715.3h-93.2v-8.5h93.2V715.3z"/>
<path class="st7" d="M739.5,299.9c-1.5-1.5-3.4-2.5-5.4-3.1c-1-0.3-2-0.4-3-0.4h-95.7c-9.2,0-16.7,7.5-16.7,16.7v102.8h-16.7
	c-1.3,0-2.4,1.1-2.4,2.4v0v4.8c0,9.2,7.5,16.7,16.7,16.7h95.6c6.6,0,12-5.4,12-12V320.3h16.7c1.3,0,2.4-1.1,2.4-2.4v0v-9.6
	C743,305.1,741.7,302.1,739.5,299.9z M616.3,435c-6.6,0-11.9-5.4-12-12v-2.4h90.8v2.4c0,4.5,1.8,8.8,5,12H616.3z M721.3,301.4
	c-0.1,0.2-0.3,0.4-0.4,0.6c-0.2,0.4-0.5,0.8-0.7,1.2c-0.1,0.2-0.2,0.5-0.3,0.7c-0.2,0.5-0.3,0.9-0.4,1.4c-0.1,0.2-0.1,0.4-0.2,0.7
	c-0.1,0.7-0.2,1.5-0.2,2.2v119.6c0,3.9-3.2,7.1-7.2,7.1c-6.6,0-12-5.3-12-12v-4.8c0-1.3-1.1-2.4-2.4-2.4l0,0h-74.1V313.1
	c0-6.6,5.4-12,12-12h86.1C721.4,301.3,721.3,301.4,721.3,301.4L721.3,301.4z M738.2,315.5h-14.3v-7.2c0-4,3.2-7.2,7.2-7.2
	c0.6,0,1.2,0.1,1.8,0.2c1.2,0.3,2.4,1,3.3,1.9c1.3,1.3,2.1,3.2,2.1,5.1L738.2,315.5z"/>
<path class="st7" d="M671.3,325.1c-9.2,0-16.7,7.5-16.7,16.7c0,9.2,7.5,16.7,16.7,16.7c9.2,0,16.7-7.5,16.7-16.7
	C688,332.6,680.5,325.1,671.3,325.1C671.3,325.1,671.3,325.1,671.3,325.1z M671.3,353.8c-6.6,0-11.9-5.4-11.9-12
	c0-6.6,5.4-11.9,12-11.9c6.6,0,11.9,5.4,11.9,11.9C683.2,348.4,677.9,353.8,671.3,353.8z"/>
<path class="st7" d="M707,385c0-0.4-0.1-0.7-0.3-1.1l-14-24.2c0.6-0.3,1-0.8,1.4-1.3c1.1-1.9,1.3-4.2,0.6-6.3
	c-0.2-0.9-0.3-1.8-0.2-2.7c0.5-0.7,1-1.4,1.7-1.9c3.1-1.7,4.2-5.6,2.5-8.7c-0.6-1.1-1.5-1.9-2.5-2.5c-0.7-0.5-1.2-1.2-1.7-1.9
	c-0.1-0.9,0-1.8,0.2-2.7c1.5-3.1,0.1-6.9-3.1-8.3c-1.1-0.5-2.3-0.7-3.4-0.5c-0.9-0.1-1.8-0.3-2.6-0.6c-0.6-0.7-1-1.4-1.3-2.3
	c-0.7-2.1-2.2-3.9-4.3-4.8c-2.2-0.4-4.4,0.1-6.2,1.4c-1.4,1.4-3.7,1.4-5.1,0c0,0,0,0,0,0c-1.8-1.3-4-1.8-6.2-1.4
	c-2,0.9-3.6,2.7-4.3,4.8c-0.3,0.8-0.8,1.6-1.3,2.3c-0.8,0.3-1.7,0.5-2.6,0.6c-3.4-0.4-6.6,2-7,5.4c-0.2,1.2,0,2.4,0.5,3.5
	c0.2,0.9,0.3,1.8,0.2,2.7c-0.5,0.7-1,1.4-1.7,1.9c-3.1,1.7-4.2,5.6-2.5,8.7c0.6,1.1,1.5,1.9,2.5,2.5c0.7,0.5,1.2,1.2,1.7,1.9
	c0.1,0.9,0,1.8-0.2,2.7c-0.7,2.1-0.5,4.4,0.6,6.3c0.4,0.5,0.9,1,1.4,1.3l-14,24.2c-0.7,1.1-0.3,2.6,0.9,3.3c0.3,0.2,0.7,0.3,1,0.3
	l9.5,0.6l5.2,7.9c0.4,0.7,1.2,1.1,2,1.1h0.1c0.8,0,1.6-0.5,2-1.2l14.7-25.4l14.7,25.4c0.4,0.7,1.2,1.2,2,1.2h0.1
	c0.8,0,1.6-0.4,2-1.1l5.2-7.9l9.5-0.6C706,387.5,707.1,386.4,707,385C707,385,707,385,707,385z M654.4,390.1l-2.9-4.5l4-7l-4.1-2.4
	l-4,7L642,383l12.7-22c0.8,0.1,1.6,0.2,2.3,0.5c0.6,0.7,1,1.4,1.3,2.3c0.7,2.1,2.2,3.9,4.3,4.8c0.5,0.2,1,0.2,1.5,0.2
	c1.1,0,2.2-0.3,3.1-0.8L654.4,390.1z M666.4,363.1c-0.7,0.5-1.6,0.8-2.4,1c-0.6-0.7-1.1-1.5-1.4-2.4c-1-3.4-4.1-5.6-7.6-5.5
	c-0.9-0.1-1.8-0.3-2.6-0.6c-0.1-0.9,0-1.8,0.2-2.7c0.4-1.6,0.5-3.4,0.1-5c-0.7-1.5-1.7-2.9-3-3.9c-0.6-0.6-1.8-1.7-1.8-2.1
	s1.2-1.6,1.8-2.1c1.3-1,2.3-2.4,3-3.9c0.4-1.6,0.3-3.4-0.1-5c-0.2-0.9-0.3-1.8-0.2-2.7c0.8-0.4,1.7-0.6,2.7-0.6
	c1.7-0.1,3.3-0.6,4.8-1.5c1.3-1.1,2.2-2.5,2.8-4.1c0.3-0.9,0.8-1.6,1.4-2.3l0,0c0.8,0.2,1.6,0.5,2.4,1c1.5,0.9,3.1,1.5,4.8,1.6
	c1.7-0.1,3.4-0.7,4.8-1.6c0.7-0.5,1.6-0.8,2.4-1c0.6,0.7,1.1,1.5,1.4,2.4c1,3.4,4.1,5.6,7.6,5.5c0.9,0.1,1.8,0.3,2.6,0.6
	c0.1,0.9,0,1.8-0.2,2.7c-0.4,1.6-0.5,3.4-0.1,5c0.7,1.5,1.7,2.9,3,3.9c0.6,0.6,1.8,1.7,1.8,2.1s-1.2,1.6-1.8,2.1
	c-1.3,1-2.3,2.4-3,3.9c-0.4,1.6-0.3,3.4,0.1,5c0.2,0.9,0.3,1.8,0.2,2.7c-0.8,0.4-1.7,0.6-2.7,0.6c-1.7,0.1-3.3,0.6-4.8,1.5
	c-1.3,1.1-2.2,2.5-2.8,4.1c-0.3,0.9-0.8,1.7-1.4,2.4c-0.9-0.2-1.7-0.5-2.4-1C673.3,360.9,669.3,360.9,666.4,363.1L666.4,363.1z
	 M695.2,383.3l-4-7l-4.2,2.4l4,7l-2.9,4.5l-12.8-22.1c1.4,0.8,3,1,4.6,0.6c2-1,3.6-2.7,4.3-4.9c0.3-0.8,0.8-1.6,1.4-2.3
	c0.7-0.3,1.5-0.5,2.3-0.5l12.7,22L695.2,383.3z"/>
</svg>
