<?xml version="1.0" encoding="utf-8"?>
<!-- Generator: Adobe Illustrator 24.2.1, SVG Export Plug-In . SVG Version: 6.00 Build 0)  -->
<svg version="1.1" id="Layer_1" xmlns="http://www.w3.org/2000/svg" xmlns:xlink="http://www.w3.org/1999/xlink" x="0px" y="0px"
	 viewBox="0 0 954 1056" style="enable-background:new 0 0 954 1056;" xml:space="preserve">
<style type="text/css">
	.st0{fill:#212121;}
	.st1{fill:none;}
	.st2{opacity:8.000000e-02;fill:#FFFFFF;enable-background:new    ;}
	.st3{fill:#2A2A2A;}
	.st4{fill:#7A7B7F;}
	.st5{fill:#DDDDDD;}
	.st6{fill:#636363;}
	.st7{fill:#757575;}
	.st8{fill:#424242;}
	.st9{fill:#2196F3;}
	.st10{clip-path:url(#SVGID_2_);}
</style>
<rect x="283.2" y="105.4" class="st0" width="610.4" height="718.5"/>
<line class="st1" x1="843.7" y1="212.8" x2="339.2" y2="212.8"/>
<polygon class="st2" points="488.1,491.3 488.1,635.3 663,491.3 488.1,347.3 "/>
<image style="overflow:visible;opacity:0.6;enable-background:new    ;" width="321" height="321" xlink:href="31963B2C.png"  transform="matrix(1 0 0 1 436 0)">
</image>
<circle class="st3" cx="596.5" cy="159.3" r="39.8"/>
<g id="Iconly_Light-outline_Search">
	<g id="Search-6">
		<path id="Search-7" class="st4" d="M613.5,179.8l-0.2-0.1l-6-5.9c-3.3,2.6-7.4,4-11.6,4c-10-0.2-17.9-8.5-17.7-18.5
			s8.5-17.9,18.5-17.7c9.8,0.2,17.7,8.3,17.7,18.1c0,4.6-1.8,8.9-4.9,12.2l6,5.8c0.5,0.5,0.5,1.4,0,1.9l0,0l0,0
			C615,180.1,614.2,180.2,613.5,179.8L613.5,179.8z M580.1,159.6c-0.2,8.7,6.7,15.8,15.3,16c8.7,0.2,15.8-6.7,16-15.3
			c0.2-8.7-6.7-15.8-15.3-16c-0.1,0-0.2,0-0.4,0C587.3,144.2,580.2,151.1,580.1,159.6L580.1,159.6z"/>
	</g>
</g>
<image style="overflow:visible;opacity:0.6;enable-background:new    ;" width="459" height="459" xlink:href="31963B2B.png"  transform="matrix(1 0 0 1 495 257)">
</image>
<circle class="st3" cx="724.3" cy="485.1" r="108.9"/>
<path class="st5" d="M819.9,160.8v15c-3.2-0.6-6.3-1.9-8.9-3.9l-0.2-0.2c-5.3-4-8.5-10.3-8.7-16.9c0-0.2,0-0.4,0-0.5v-21.5
	c2.5,0.5,4.8,1.3,7,2.6c0.7,0.4,1.3,0.8,1.9,1.3c5.6,4.1,8.9,10.7,8.9,17.6c0,0.2,0,0.4,0,0.5h-3c-3.3,0-6,2.7-6,5.9L819.9,160.8z"
	/>
<path class="st5" d="M843.7,139.8v21l0,0c0,0.2,0,0.3,0,0.5c0,0.9-0.1,1.9-0.2,2.8c-0.7,6-3.9,11.4-8.8,14.9l-0.2,0.1
	c-2.6,1.9-5.6,3.2-8.8,3.8v-21.6c0-0.2,0-0.4,0-0.5h3c3.3,0,5.9-2.7,6-5.9h-7.9c0.6-2.1,1.6-4.1,2.8-5.9c1.4-2,3.1-3.8,5.1-5.3
	l0.8-0.6c1.6-1.1,3.4-2,5.3-2.6C841.9,140.2,842.8,140,843.7,139.8z"/>
<circle class="st5" cx="342.5" cy="171.6" r="3.3"/>
<circle class="st5" cx="342.5" cy="157.5" r="3.3"/>
<circle class="st5" cx="342.5" cy="143.3" r="3.3"/>
<path class="st5" d="M398,137.7c3.4,3.4,3.4,8,3.9,12.2c0.6,4.4,0.2,8.8-1.1,13c-1.3,4-3,5-7.1,3.8c-2.2-0.6-4.3-1.7-6.9-2.8
	c0.9,6.8,1.8,6.9,2.7,13.3h-16.7c1.4-6.7,2.8-7.2,4.2-13.9c-0.2-0.5-0.1-1.2,0.3-1.6c4-4.1,6.7-9.4,11-13.3c2.8-2.6,5.2-5.6,7.2-8.8
	C396.2,138.9,396.4,137.4,398,137.7z"/>
<path class="st4" d="M374.8,162.9c-5.2-0.4-8.4-2.9-10-8.1c-3.2-10.6-0.6-17.3,9.1-22.5c1.5-0.8,2.8-1.9,3.9-3.3
	c1.8-2.1,4.2-3.2,6.9-1.2c0.5,3.3-0.7,6.4-1.5,9.5c-2,8-4.4,15.8-7.2,23.6C376,161.7,375.5,162.4,374.8,162.9z"/>
<path class="st6" d="M374.8,162.9c2.3-7.7,4.6-15.4,7-23.1c1.2-3.9,1.4-8.1,3-11.9c0.2-0.1,0.3,0,0.5,0.1c2,0.3,1.5,1.8,1.3,2.9
	c-1.3,6-3.1,11.8-5.4,17.5c2.4-5.7,4.1-11.7,6.2-17.6c0.4-1.2,0.5-2.5,1.5-3.4l2,0.7c1,1.4,0.2,2.7-0.3,3.9c-2.6,7-5,14.2-8.1,19.5
	c3.8-6.6,7.1-13.5,9.8-20.6c0.4-1,0.6-2.3,2.2-2.2l1.3,0.3c1.1,1.7-0.1,3.1-0.7,4.5c-3.5,9.1-8.4,17.7-14.5,25.3
	C379.1,160.5,377.9,163.1,374.8,162.9L374.8,162.9z"/>
<path class="st4" d="M374.9,162.9c4.3-1.5,6.1-5.5,8.3-8.8c5.4-7.8,9.6-16.3,12.6-25.2c3.3,0.5,4.4,2.1,3.5,5
	c-0.4,1.3-0.9,2.6-1.3,3.8c-6.2,9.2-14.3,16.9-21,25.7C376.3,163.3,375.5,163.6,374.9,162.9z"/>
<path class="st4" d="M394.5,128.6c-1.9,2.1-2.4,4.9-3.4,7.5c-2.7,6.6-6.1,12.8-10.3,18.6c3.4-8.9,7.4-17.5,10.1-26.7
	C392.3,127,393.5,127.1,394.5,128.6z"/>
<path class="st4" d="M388.9,127.3c-0.9,6.2-3.5,11.9-5.7,17.6c-0.6,1.6-1.5,3.2-2.5,4.6c1.1-3.8,2.1-7.6,3.2-11.4
	c0.7-2.4,1.3-4.9,1.9-7.3c0.3-1.1,0.5-2-0.4-2.8C386.5,127.6,387.5,126.2,388.9,127.3z"/>
<image style="overflow:visible;opacity:0.6;enable-background:new    ;" width="670" height="876" xlink:href="31963B34.png"  transform="matrix(1 0 0 1 0 180)">
</image>
<rect x="120.2" y="299.3" class="st3" width="429.7" height="634.9"/>
<path class="st5" d="M599.5,654.7c-2.3,0.7-4.9,0.4-7-0.8c-1.9-1.2-3.2-3.3-3.5-5.5c-0.4-2.9-0.1-5.9,1-8.7l3.2,1.3
	c-0.8,1.9-1.1,4-1,6.1c0.1,1.4,0.8,2.8,2,3.5c1.4,0.7,3.1,0.8,4.6,0.4c0.1,0,0.3-0.1,0.4-0.1c0.1,0,0.3,0,0.4-0.1
	c1-0.2,1.9-0.5,2.8-0.8c0.6-0.2,1-0.6,1.3-1.2c0.3-0.7,0.4-1.4,0.2-2.2c-0.1-0.7-0.5-3.5-1.2-8.4l3.3-0.5c0.7,4.7,1.1,7.5,1.2,8.4
	c0.3,1.4,0.1,2.8-0.3,4.1c-0.4,1.1-1.2,2-2.2,2.5c-1.3,0.7-2.6,1.3-4,1.6l-0.5,0.2L599.5,654.7z M609.7,647.5
	c-0.9,0-1.8-0.3-2.5-0.8c-0.8-0.5-1.4-1.2-1.9-2c-0.5-0.9-0.9-1.9-1.1-2.9l2.3-1v0.2c0.1,0.6,0.3,1.1,0.6,1.6c0.2,0.4,0.6,0.7,1,0.8
	c0.5,0.2,1,0.3,1.6,0.3h0.2h0.1c0.6,0,1.1-0.2,1.6-0.5c0.3-0.4,0.4-0.8,0.4-1.3v-3.8h3.2v3.8c0,0.9-0.2,1.8-0.6,2.6
	c-0.4,0.9-1,1.6-1.8,2.1C611.7,647.3,610.7,647.5,609.7,647.5L609.7,647.5z M617.3,647.5c-1.1,0-2.1-0.3-3-0.9
	c-0.8-0.5-1.4-1.3-1.8-2.1c-0.4-0.8-0.6-1.7-0.6-2.6l3-0.1c0,0.5,0.2,0.9,0.5,1.3c0.4,0.4,1,0.6,1.6,0.5c0.5,0,1.1-0.1,1.5-0.3
	c0.3-0.1,0.6-0.4,0.7-0.7c0.1-0.3,0.1-0.6,0-0.9l-1-3.8l3-0.9l1,3.8c0.3,1,0.3,2.2-0.1,3.2c-0.3,1-1,1.8-1.8,2.4
	C619.5,647.2,618.4,647.5,617.3,647.5L617.3,647.5z M625.8,647.5c-1.5,0-2.9-0.5-4-1.5s-1.9-2.4-2.2-3.9l2.8-1.1
	c0.2,0.8,0.6,1.5,1.2,2c0.6,0.5,1.4,0.8,2.2,0.8V647.5z"/>
<path class="st5" d="M625.5,643.7h24.2c0.6,0,1.2-0.1,1.8-0.3c0.4-0.2,0.8-0.5,0.9-1c0.1-0.6,0.1-1.3-0.1-1.9l-1.2-4.5l3.2-1
	l1.3,4.7c0.4,1.3,0.4,2.7,0,4c-0.4,1.1-1.2,2.1-2.2,2.7c-1.1,0.7-2.4,1-3.7,1h-24.2V643.7z M644.7,651.9l2.3-2.3l2.3,2.3l-2.3,2.3
	L644.7,651.9z M650.5,651.9l2.3-2.3l2.3,2.3l-2.3,2.3L650.5,651.9z"/>
<path class="st5" d="M660.5,651.7c0.2,0,0.3-0.1,0.5-0.1c2.4-0.5,4.1-1,5.1-1.2c0.8-0.2,1.5-0.6,2-1.1c0.4-0.7,0.5-1.4,0.3-2.1
	l-0.5-4.9c0-1-0.4-1.9-0.9-2.6c-0.5-0.6-1.2-0.9-1.9-0.8c-0.5,0-1,0.2-1.3,0.5c-0.4,0.3-0.7,0.7-0.8,1.1c-0.2,0.5-0.2,1-0.2,1.5
	s0.2,1.1,0.6,1.4c0.5,0.3,1.1,0.5,1.7,0.5h8.3v3.8h-8.3c-1.4,0.1-2.9-0.5-3.9-1.4c-1-1.1-1.7-2.5-1.7-3.9c-0.1-1.2,0.1-2.3,0.5-3.4
	c0.4-1,1.1-2,2-2.6c0.9-0.7,1.9-1.1,3-1.1c1.1-0.1,2.2,0.2,3.1,0.8c1,0.6,1.7,1.4,2.3,2.4c0.6,1.1,1,2.4,1.1,3.6l0.5,4.9
	c0.2,1.5,0,3-0.7,4.4c-0.7,1.1-1.8,2-3,2.5c-2.1,0.8-4.2,1.4-6.4,1.8l-0.2,0.1l-0.2,0.1L660.5,651.7z"/>
<path class="st5" d="M672.8,643.7h21.5c0.6,0.1,1.3-0.1,1.8-0.4c0.4-0.3,0.5-0.8,0.4-1.3l-0.3-3.8l3.4-0.3l0.3,3.8
	c0.1,1-0.1,2.1-0.5,3s-1.1,1.6-2,2c-1,0.5-2,0.8-3.1,0.7h-21.5L672.8,643.7z M693.3,633.1l2.6-2.6l2.6,2.6l-2.6,2.6L693.3,633.1z
	 M702.2,647.5c-1.5,0.1-2.9-0.4-4-1.4c-1-1.1-1.6-2.6-1.6-4.1l3.4-0.3c0,0.4,0.1,0.9,0.3,1.3c0.1,0.3,0.4,0.5,0.7,0.6
	c0.4,0.1,0.9,0.2,1.3,0.2L702.2,647.5z"/>
<path class="st5" d="M701.8,643.7h22c0.6,0,1.2-0.1,1.8-0.3c0.4-0.2,0.8-0.5,0.9-1c0.1-0.6,0.1-1.3-0.1-1.9l-1.2-4.5l3.2-1l1.2,4.6
	c0.4,1.4,0.4,2.8,0,4.1c-0.4,1.2-1.1,2.1-2.2,2.8c-1.1,0.7-2.4,1-3.7,1h-22L701.8,643.7z M721.9,652l2.6-2.6l2.6,2.6l-2.6,2.6
	L721.9,652z"/>
<path class="st5" d="M746.2,645.2c-0.8,0.1-1.6,0-2.3-0.3c-2.6-1-4.1-3.8-3.5-6.5c0.2-1,0.6-1.9,1.3-2.7c0.6-0.7,1.4-1.3,2.3-1.6
	l5.3-1.8l1,3.3l-5.2,1.8c-0.5,0.2-1,0.5-1.2,1c-0.2,0.4-0.3,1-0.2,1.5s0.4,0.9,0.8,1.2c0.4,0.3,0.9,0.4,1.4,0.3l3.9-0.7l0.5,3.7
	L748,645L746.2,645.2z M754.7,647.5c-1.2,0-2.3-0.3-3.3-0.9c-1-0.6-1.8-1.4-2.3-2.4c-0.6-1-0.9-2.2-0.9-3.3v-9.2h3.3v9.2
	c0,0.5,0.2,1,0.4,1.5c0.3,0.4,0.7,0.8,1.1,1.1c0.5,0.3,1,0.4,1.6,0.4h0.6v3.8h-0.5V647.5z"/>
<path class="st5" d="M754.9,643.7h19.6v3.8h-19.6V643.7z M774.5,643.7h0.7c0.5,0,1-0.1,1.4-0.3c0.3-0.1,0.5-0.4,0.7-0.7
	c0.1-0.3,0.2-0.6,0.1-0.9l-0.6-15.1l3.4-0.2l0.6,15.1c0.1,1-0.1,2-0.6,2.9c-0.4,0.9-1.1,1.6-1.9,2.1c-0.9,0.6-2,0.8-3.1,0.8h-0.7
	L774.5,643.7z"/>
<path class="st5" d="M790.7,647.5c-1.2,0.1-2.3-0.2-3.4-0.6c-0.8-0.4-1.5-1.2-1.8-2.1c-0.4-1.3-0.7-2.6-0.7-3.9l-0.5-14.1l3.4-0.2
	l0.5,14.2v0.4c0,0.5,0.1,1.1,0.3,1.6c0.1,0.3,0.4,0.6,0.7,0.7c0.5,0.1,1.1,0.2,1.6,0.2h0.3v3.8L790.7,647.5z"/>
<path class="st5" d="M790.8,643.7h19.7v3.8h-19.7V643.7z M810.3,643.7h1.6c1.1,0,2.2-0.1,3.3-0.3c1.2-0.2,2.3-0.5,3.4-0.9
	c1-0.4,1.6-0.8,1.8-1.2l0.2-1c0-0.4,0-0.8-0.2-1.2s-0.4-0.7-0.8-1c-0.4-0.3-0.8-0.4-1.2-0.5c-0.4,0-0.9,0-1.2,0.2
	c-0.8,0.3-1.3,1.1-1.5,1.9l-0.1,1.3c0.4,0.5,0.8,0.9,1.3,1.2c0.8,0.5,1.8,0.8,2.7,1c1.4,0.3,2.7,0.5,4.1,0.4h1.8v3.8h-1.8
	c-1.8,0-3.7-0.4-5.4-1c-1.6-0.6-3.2-1.4-4.5-2.5c-1-0.7-1.6-1.8-1.6-3l0.2-1.8c0.1-1,0.5-2,1.1-2.9c0.6-0.8,1.4-1.5,2.3-1.9
	c0.9-0.4,2-0.6,3-0.5s1.9,0.5,2.7,1.1c1.6,1.3,2.4,3.3,2.3,5.3l-0.1,1.4c-0.2,1.2-0.9,2.2-2,2.8c-1.4,1-3,1.7-4.7,2.2
	s-3.4,0.8-5.2,0.8h-1.6L810.3,643.7z M813.2,629l2.3-2.3l2.3,2.3l-2.3,2.3L813.2,629z M819.1,629l2.3-2.3l2.3,2.3l-2.3,2.3
	L819.1,629z"/>
<path class="st5" d="M825.3,643.7h19.9c0.5,0,1-0.1,1.5-0.4c0.4-0.2,0.8-0.6,1-1l2.3-4.4c0.4-0.8,1-1.5,1.7-2s1.5-0.8,2.4-0.8
	s1.7,0.2,2.5,0.6c1,0.5,1.7,1.4,2.2,2.4c0.5,1.1,0.7,2.3,0.7,3.5c-0.1,1.3-0.4,2.6-1,3.7c-0.3,0.6-0.8,1.1-1.3,1.5
	c-1.1,0.8-2.6,0.9-3.8,0.2l-4.7-2.4l1.6-3.2l5,2.6c0.1,0.1,0.2,0.1,0.3,0.1s0.2,0,0.2-0.1c0.1-0.1,0.1-0.1,0.1-0.2
	c0.3-0.6,0.6-1.3,0.7-2c0.1-0.6,0.1-1.2-0.1-1.7c-0.2-0.5-0.5-0.9-1-1.2c-0.3-0.2-0.7-0.3-1.1-0.2c-0.4,0.1-0.7,0.2-1,0.5
	c-0.4,0.3-0.6,0.7-0.8,1.1l-1.8,3.5c-0.5,1-1.3,2-2.3,2.6c-0.9,0.7-2,1-3.2,1h-20L825.3,643.7L825.3,643.7z"/>
<g>
	<path class="st7" d="M756.3,524.7h-68.8v-70.1h40.1v-11.5h-40.1c-6.3,0-11.4,5.1-11.5,11.5v68.8c0,6.3,5.1,11.4,11.5,11.5h68.8
		c6.3,0,11.4-5.1,11.5-11.5v-40.1h-11.5V524.7z"/>
	<path class="st7" d="M767.8,425.9h-11.5v17.2h-17.2c0.1,0,0,11.5,0,11.5h17.2v17.1c0.1,0,11.5,0,11.5,0v-17.1H785v-11.5h-17.2
		V425.9z"/>
	<rect x="699" y="466.1" class="st7" width="45.9" height="11.5"/>
	<polygon class="st7" points="699,483.3 699,494.7 744.9,494.7 744.9,483.3 727.7,483.3 	"/>
	<rect x="699" y="500.5" class="st7" width="45.9" height="11.5"/>
</g>
<path class="st5" d="M367.8,478.4h-87.5v-89.1h51v-14.6h-51c-8,0-14.6,6.5-14.6,14.6v87.5c0,8,6.5,14.6,14.6,14.6h87.5
	c8,0,14.6-6.5,14.6-14.6v-51h-14.6V478.4z"/>
<path class="st5" d="M382.4,352.8h-14.6v21.9H346c0.1,0.1,0,14.6,0,14.6h21.9v21.8c0.1,0.1,14.6,0,14.6,0v-21.8h21.9v-14.6h-21.9
	v-21.9H382.4z"/>
<rect x="294.9" y="403.9" class="st5" width="58.3" height="14.6"/>
<polygon class="st5" points="294.9,425.7 294.9,440.3 353.3,440.3 353.3,425.7 331.4,425.7 "/>
<rect x="294.9" y="447.6" class="st5" width="58.3" height="14.6"/>
<rect x="120.2" y="869.5" class="st8" width="429.7" height="65.1"/>
<g id="Iconly_Two-tone_Heart">
	<g id="Heart-5">
		<path id="Path_33961-2" class="st5" d="M334.6,918.7c-3.9-2.3-7.5-5-10.9-8c-2.3-2.2-4.1-4.8-5.2-7.8c-1.9-5.7,0.3-12.3,6.7-14.2
			c3.3-1,6.9-0.4,9.8,1.6l0,0c2.8-2,6.4-2.6,9.8-1.6c6.3,1.9,8.6,8.5,6.7,14.2c-1.1,3-2.9,5.6-5.2,7.8c-3.3,3-7,5.7-10.9,8L335,919
			L334.6,918.7z"/>
	</g>
</g>
<rect x="346" y="657.7" class="st4" width="171.7" height="9.7"/>
<rect x="420.9" y="621.9" class="st4" width="96.8" height="9.7"/>
<rect x="346" y="553.5" class="st9" width="171.7" height="34.1"/>
<rect x="346" y="693.5" class="st4" width="171.7" height="9.7"/>
<rect x="346" y="729.2" class="st4" width="171.7" height="9.7"/>
<rect x="346" y="763.6" class="st4" width="171.7" height="9.7"/>
<rect x="346" y="799.4" class="st4" width="171.7" height="9.7"/>
<g>
	<g>
		<defs>
			<rect id="SVGID_1_" x="149.7" y="587.6" width="174.4" height="221.5"/>
		</defs>
		<clipPath id="SVGID_2_">
			<use xlink:href="#SVGID_1_"  style="overflow:visible;"/>
		</clipPath>
		<g class="st10">
			
				<image style="overflow:visible;enable-background:new    ;" width="3905" height="2929" xlink:href="C:\Users\Jeyran\Downloads\jj-ying-7JX0-bfiuxQ-unsplash (4).jpg"  transform="matrix(8.000000e-02 0 0 8.000000e-02 79.46 578.9)">
			</image>
		</g>
	</g>
</g>
<g>
	<rect x="148.7" y="586.4" width="176.4" height="223.9"/>
</g>
</svg>
