<?xml version="1.0" encoding="utf-8"?>
<!-- Generator: Adobe Illustrator 24.2.1, SVG Export Plug-In . SVG Version: 6.00 Build 0)  -->
<svg version="1.1" id="Layer_1" xmlns="http://www.w3.org/2000/svg" xmlns:xlink="http://www.w3.org/1999/xlink" x="0px" y="0px"
	 viewBox="0 0 1760 1076.7" style="enable-background:new 0 0 1760 1076.7;" xml:space="preserve">
<style type="text/css">
	.st0{fill:#212121;}
	.st1{fill:#16171B;}
	.st2{fill:#7A7B7F;}
	.st3{opacity:8.000000e-02;fill:#FFFFFF;enable-background:new    ;}
	.st4{fill:#2A2A2A;}
	.st5{fill:#DDDDDD;}
	.st6{fill:#636363;}
	.st7{fill:#B9BBC2;}
	.st8{fill:#006BBD;}
	.st9{fill:#FE9A21;}
	.st10{fill:#CE7D1A;}
	.st11{fill:#FD9A22;}
	.st12{fill:#FC9921;}
	.st13{fill:#FB9922;}
	.st14{fill:#2196F3;}
	.st15{fill:#FFFFFF;}
	.st16{fill:#424242;}
	.st17{fill:#757575;}
	.st18{fill:#494A4E;}
	.st19{opacity:0.2;}
	.st20{fill:#CCCCCC;}
	.st21{opacity:0.2;fill:#494A4E;enable-background:new    ;}
	.st22{clip-path:url(#SVGID_2_);}
	.st23{fill:#28282E;}
</style>
<rect x="259.6" y="120.7" class="st0" width="1220.9" height="718.5"/>
<path class="st1" d="M795.1,154.8h149.8c11.5,0,20.8,9.3,20.8,20.8l0,0c0,11.5-9.3,20.8-20.8,20.8H795.1c-11.5,0-20.8-9.3-20.8-20.8
	l0,0C774.4,164.1,783.7,154.8,795.1,154.8z"/>
<rect x="315.6" y="227.9" class="st2" width="1108.8" height="0.5"/>
<polygon class="st3" points="870,63 756.9,63 870,176.1 983.1,63 "/>
<polygon class="st3" points="358.5,627 358.5,720.1 471.6,627 358.5,534 "/>
<image style="overflow:visible;opacity:0.6;enable-background:new    ;" width="320" height="320" xlink:href="9E66EDC1.png"  transform="matrix(1 0 0 1 710 15.71)">
</image>
<circle class="st4" cx="870" cy="174.6" r="39.8"/>
<g id="Iconly_Light-outline_Search">
	<g id="Search-6">
		<path id="Search-7" class="st2" d="M887,195.1l-0.2-0.1l-6-5.9c-3.3,2.6-7.4,4-11.6,4c-10-0.2-17.9-8.5-17.7-18.5
			s8.5-17.9,18.5-17.7c9.8,0.2,17.7,8.3,17.7,18.1c0,4.5-1.8,8.9-4.9,12.2l6,5.8c0.6,0.5,0.6,1.4,0,2l0,0l0,0
			C888.4,195.5,887.6,195.5,887,195.1L887,195.1z M853.6,174.9c-0.2,8.7,6.7,15.8,15.3,16s15.8-6.7,16-15.3
			c0.2-8.7-6.7-15.8-15.3-16c-0.1,0-0.2,0-0.4,0C860.7,159.5,853.7,166.4,853.6,174.9L853.6,174.9z"/>
	</g>
</g>
<image style="overflow:visible;opacity:0.6;enable-background:new    ;" width="381" height="382" xlink:href="9E66EDC0.png"  transform="matrix(1 0 0 1 333 432.71)">
</image>
<ellipse transform="matrix(0.7071 -0.7071 0.7071 0.7071 -287.1979 552.6429)" class="st4" cx="523.5" cy="623" rx="70.4" ry="70.4"/>
<path class="st5" d="M1400.6,176.1v15c-3.2-0.6-6.3-1.9-8.9-3.9l-0.2-0.2c-5.4-4-8.6-10.3-8.7-17v-22c2.5,0.5,4.8,1.3,7,2.6
	c0.7,0.4,1.3,0.8,1.9,1.3c1.5,1.1,2.8,2.4,4,3.8c3.2,3.9,4.9,8.8,4.9,13.8c0,0.2,0,0.3,0,0.5h-3c-3.3,0-6,2.7-6,6L1400.6,176.1
	L1400.6,176.1z"/>
<path class="st5" d="M1424.4,155.1v21l0,0l0,0c0,0.2,0,0.3,0,0.5c0,0.9-0.1,1.9-0.2,2.8c-0.8,5.9-3.9,11.3-8.7,14.9l-0.2,0.1
	c-2.6,1.9-5.6,3.2-8.8,3.8v-21.5c0-0.2,0-0.4,0-0.5h3c3.3,0,6-2.7,6-6h-7.9c0.6-2.1,1.6-4.1,2.8-5.9c1.4-2,3.1-3.8,5.1-5.3
	c0.3-0.2,0.6-0.4,0.8-0.6c1.6-1.1,3.4-2,5.3-2.6C1422.6,155.5,1423.5,155.3,1424.4,155.1z"/>
<circle class="st5" cx="318.9" cy="186.9" r="3.3"/>
<circle class="st5" cx="318.9" cy="172.8" r="3.3"/>
<circle class="st5" cx="318.9" cy="158.6" r="3.3"/>
<path class="st5" d="M374.3,153c3.4,3.4,3.4,8,3.9,12.3c0.6,4.4,0.2,8.8-1.1,13c-1.3,4-3,5-7.1,3.8c-2.2-0.6-4.3-1.7-6.9-2.8
	c1,6.8,1.8,6.9,2.7,13.3h-16.7c1.4-6.8,2.8-7.2,4.2-13.9c-0.2-0.5-0.1-1.2,0.3-1.6c4-4.1,6.7-9.4,11-13.3c2.8-2.6,5.2-5.6,7.2-8.8
	C372.5,154.2,372.7,152.7,374.3,153z"/>
<path class="st2" d="M351.2,178.2c-5.2-0.4-8.4-2.9-10-8.1c-3.2-10.6-0.6-17.3,9.1-22.6c1.5-0.8,2.8-1.9,3.9-3.3
	c1.8-2.1,4.2-3.2,6.9-1.2c0.5,3.3-0.7,6.4-1.5,9.5c-2,8-4.4,15.8-7.2,23.6C352.3,177,351.9,177.7,351.2,178.2z"/>
<path class="st6" d="M351.2,178.2c2.3-7.7,4.6-15.4,7-23.1c1.2-3.9,1.4-8.1,3-11.9c0.2-0.1,0.3,0,0.5,0.1c2,0.3,1.5,1.8,1.3,2.9
	c-1.2,6-3.1,11.8-5.4,17.5c2.4-5.7,4.1-11.7,6.2-17.6c0.4-1.2,0.5-2.5,1.5-3.4l2,0.6c1,1.4,0.2,2.7-0.3,3.9c-2.6,7-5,14.2-8.1,19.5
	c3.8-6.6,7.1-13.5,9.8-20.6c0.4-1,0.6-2.3,2.2-2.2l1.3,0.3c1.1,1.7-0.1,3.1-0.7,4.5c-3.5,9.1-8.4,17.7-14.5,25.3
	C355.4,175.8,354.3,178.4,351.2,178.2L351.2,178.2z"/>
<path class="st2" d="M351.2,178.2c4.3-1.5,6.1-5.5,8.3-8.8c5.4-7.8,9.6-16.2,12.6-25.2c3.3,0.5,4.4,2.1,3.5,5
	c-0.4,1.3-0.9,2.6-1.3,3.8c-6.2,9.3-14.3,16.9-21,25.8C352.6,178.6,351.8,178.9,351.2,178.2z"/>
<path class="st2" d="M370.9,143.9c-1.9,2.1-2.4,4.9-3.4,7.5c-2.7,6.6-6.1,12.8-10.3,18.6c3.4-8.9,7.4-17.5,10.1-26.7
	C368.7,142.3,369.9,142.3,370.9,143.9z"/>
<path class="st2" d="M365.3,142.6c-0.9,6.2-3.5,11.9-5.7,17.6c-0.6,1.6-1.5,3.2-2.5,4.6c1.1-3.8,2.1-7.6,3.2-11.4
	c0.7-2.4,1.3-4.9,1.9-7.3c0.3-1.1,0.5-2-0.4-2.9C362.9,142.9,363.8,141.5,365.3,142.6z"/>
<image style="overflow:visible;opacity:0.6;enable-background:new    ;" width="600" height="306" xlink:href="9E66EDCE.png"  transform="matrix(1 0 0 1 570 136.71)">
</image>
<rect x="690.7" y="255.8" class="st4" width="358.7" height="65.3"/>
<g transform="translate(570 229.71)">
	
		<image style="overflow:visible;enable-background:new    ;" width="600" height="431" id="image" xlink:href="9E66EDD8.png"  transform="matrix(1 0 0 1 570 229.71)">
	</image>
</g>
<rect x="690.7" y="348.8" class="st4" width="358.7" height="190.4"/>
<g transform="translate(570 437.71)">
	
		<image style="overflow:visible;enable-background:new    ;" width="600" height="431" id="image_2_" xlink:href="9E66EDD9.png"  transform="matrix(1 0 0 1 570 437.71)">
	</image>
</g>
<rect x="690.7" y="556.9" class="st4" width="358.7" height="190.4"/>
<g transform="translate(570 645.71)">
	
		<image style="overflow:visible;enable-background:new    ;" width="600" height="431" id="image_3_" xlink:href="9E66EDDA.png"  transform="matrix(1 0 0 1 570 645.71)">
	</image>
</g>
<rect x="690.7" y="765" class="st4" width="358.7" height="190.4"/>
<path class="st5" d="M742.8,293.5c-0.3,0-0.7-0.1-0.9-0.4c-0.2-0.2-0.4-0.6-0.4-0.9s0.1-0.6,0.4-0.9c0.2-0.2,0.5-0.4,0.9-0.4
	c0.3,0,0.6,0.1,0.9,0.4c0.2,0.2,0.4,0.5,0.4,0.9c0,0.3-0.1,0.7-0.4,0.9C743.5,293.3,743.2,293.5,742.8,293.5z"/>
<path class="st5" d="M752,297.2c-1.2,0.4-2.6,0.2-3.7-0.4c-1-0.7-1.7-1.7-1.9-2.9c-0.2-1.5-0.1-3.1,0.5-4.6l1.7,0.7
	c-0.4,1-0.6,2.1-0.5,3.2c0,0.8,0.4,1.5,1.1,1.9c0.8,0.4,1.6,0.4,2.4,0.2h0.2h0.2c0.5-0.1,1-0.3,1.5-0.5c0.3-0.1,0.5-0.3,0.7-0.6
	c0.2-0.4,0.2-0.8,0.1-1.1c0-0.4-0.3-1.9-0.6-4.4l1.7-0.3c0.4,2.5,0.6,4,0.7,4.4c0.1,0.7,0.1,1.5-0.2,2.2c-0.2,0.6-0.6,1-1.2,1.4
	c-0.7,0.4-1.4,0.7-2.1,0.9l-0.3,0.1L752,297.2z M749.7,288.3l1.4-1.4l1.4,1.4l-1.4,1.4L749.7,288.3z M756.8,293.4
	c-0.5,0-1-0.2-1.5-0.5c-0.5-0.4-0.8-1-1-1.6c-0.3-0.9-0.5-1.7-0.7-2.6c0,0,0,0,0-0.1l0,0l1.7-0.3c0,0.1,0,0.3,0,0.4
	c0.1,0.8,0.2,1.4,0.3,1.8c0.1,0.3,0.2,0.6,0.4,0.8c0.2,0.1,0.4,0.2,0.6,0.2h0.5v2L756.8,293.4z"/>
<path class="st5" d="M757.1,291.4h21.8v2h-21.8V291.4z M778.7,291.4h3.5c0.1,0,0.2,0,0.3,0l0.2-0.1c0.1-0.1,0.2-0.2,0.2-0.3
	c0-0.1,0-0.3,0-0.4s-0.1-0.3-0.1-0.4l-3.6-5.1l0.4-1.5l5.8-2.1l0.6,1.9l-5,1.8l0.1-0.5l3,4.3c0.3,0.4,0.4,0.8,0.5,1.3
	c0.1,0.4,0.1,0.8,0,1.2c-0.1,0.4-0.2,0.7-0.5,1c-0.2,0.3-0.5,0.5-0.8,0.6c-0.4,0.2-0.8,0.2-1.2,0.2h-3.5L778.7,291.4z"/>
<path class="st5" d="M798,293.4c-1.2,0-2.2,0-2.8,0c-0.5,0-1-0.1-1.5-0.1c-0.3,0-0.7-0.1-1-0.3l0,0c-0.7-0.3-1.2-0.8-1.5-1.5
	s-0.3-1.5-0.1-2.3l0.6-2.3l1.7,0.5l-0.6,2.4c-0.1,0.3-0.1,0.6,0,0.9c0.1,0.2,0.3,0.4,0.5,0.5l0,0c0.2,0.1,0.4,0.1,0.6,0.2
	c0.4,0.1,0.8,0.1,1.3,0.1c0.6,0,1.5,0,2.6,0L798,293.4z M795.3,286.6l1.2-1.2l1.2,1.2l-1.2,1.2L795.3,286.6z M798,291.4h3.9
	c0.3,0,0.7,0,1-0.2c0.2-0.2,0.3-0.4,0.2-0.7l-0.2-2l1.8-0.2l0.2,2c0.1,0.5,0,1.1-0.3,1.6c-0.2,0.5-0.6,0.8-1,1.1
	c-0.5,0.3-1.1,0.4-1.6,0.4h-4L798,291.4L798,291.4z M798.4,286.6l1.2-1.2l1.2,1.2l-1.2,1.2L798.4,286.6z M806,293.4
	c-0.8,0-1.5-0.2-2.1-0.7c-0.5-0.6-0.8-1.4-0.9-2.2l1.8-0.2c0,0.2,0.1,0.5,0.2,0.7c0.1,0.1,0.2,0.3,0.3,0.3c0.2,0.1,0.4,0.1,0.7,0.1
	V293.4z"/>
<path class="st5" d="M805.9,291.4h22.7c0.3,0,0.7,0,1-0.2c0.2-0.2,0.3-0.4,0.2-0.7l-0.2-2l1.8-0.2l0.2,2c0.1,0.5,0,1.1-0.3,1.6
	c-0.2,0.5-0.6,0.8-1,1.1c-0.5,0.3-1.1,0.4-1.7,0.4h-22.8L805.9,291.4L805.9,291.4z M827.8,295.7l1.4-1.4l1.4,1.4l-1.4,1.4
	L827.8,295.7z M832.8,293.4c-0.8,0-1.5-0.2-2.1-0.7c-0.5-0.6-0.8-1.4-0.9-2.2l1.8-0.2c0,0.2,0.1,0.4,0.2,0.7
	c0.1,0.1,0.2,0.3,0.3,0.3c0.2,0.1,0.5,0.1,0.7,0.1V293.4z"/>
<path class="st5" d="M832.6,291.4h24.1c0.3,0,0.7,0,1-0.1c0.2-0.1,0.4-0.3,0.5-0.5c0.1-0.3,0.1-0.7,0-1l-0.6-2.4l1.7-0.5l0.7,2.5
	c0.2,0.7,0.2,1.4,0,2.1c-0.2,0.6-0.6,1.1-1.2,1.4c-0.6,0.4-1.3,0.5-2,0.5h-24.1v-2H832.6z M853.8,284.5l1.2-1.2l1.2,1.2l-1.2,1.2
	L853.8,284.5z M855.5,282.3l1-1l1,1l-1,1L855.5,282.3z M856.8,284.5l1.2-1.2l1.2,1.2l-1.2,1.2L856.8,284.5z"/>
<path class="st5" d="M865.8,282.4l1.8-0.1l0.4,11l-1.8,0.1L865.8,282.4z"/>
<path class="st5" d="M868.5,295.6l0.3-0.1l0.3-0.1c0.6-0.1,1.1-0.3,1.6-0.5c0.3-0.1,0.6-0.4,0.8-0.6c0.2-0.3,0.2-0.7,0.2-1.1
	l-0.7-4.6l1.8-0.3l0.7,4.7c0.1,0.7,0.1,1.5-0.2,2.1s-0.7,1-1.3,1.3c-0.7,0.4-1.5,0.7-2.3,0.9c-0.1,0-0.2,0.1-0.3,0.1l-0.3,0.1
	L868.5,295.6z"/>
<path class="st5" d="M885.8,293.4c-1.2,0-2.2,0-2.8,0c-0.5,0-1-0.1-1.5-0.1c-0.3-0.1-0.7-0.2-1-0.3l0,0c-0.7-0.3-1.2-0.8-1.5-1.5
	s-0.3-1.5,0-2.3l0.6-2.3l1.7,0.5l-0.6,2.4c-0.1,0.3-0.1,0.6,0,0.9c0.1,0.2,0.3,0.4,0.5,0.5l0,0c0.2,0.1,0.4,0.1,0.6,0.2
	c0.4,0.1,0.8,0.1,1.3,0.1c0.6,0,1.5,0,2.6,0L885.8,293.4z M883,286.6l1.2-1.2l1.2,1.2l-1.2,1.2L883,286.6z M885.8,291.4
	c1.1,0,2,0,2.6,0s1,0,1.3-0.1c0.2,0,0.4-0.1,0.6-0.2l0,0c0.2-0.1,0.4-0.2,0.5-0.3c0.1-0.1,0.2-0.3,0.2-0.5c0-0.3-0.1-0.5-0.1-0.8
	l-0.6-2.2l1.7-0.5l0.6,2.3c0.1,0.5,0.2,1.1,0.1,1.6c0,0.5-0.2,0.9-0.5,1.3s-0.7,0.7-1.1,0.9H891c-0.3,0.1-0.6,0.2-0.9,0.3
	c-0.5,0.1-0.9,0.1-1.4,0.1c-0.6,0-1.5,0-2.8,0L885.8,291.4z M886.1,286.6l1.2-1.2l1.2,1.2l-1.2,1.2L886.1,286.6z"/>
<path class="st5" d="M894.7,282.4l1.8-0.1l0.4,11l-1.8,0.1L894.7,282.4z"/>
<path class="st5" d="M902.5,292.2c-0.4,0.1-0.8,0-1.2-0.2s-0.8-0.4-1.1-0.8c-0.3-0.3-0.5-0.7-0.7-1.1c-0.3-1-0.1-2.1,0.6-3
	c0.3-0.4,0.8-0.7,1.3-0.9l2.8-0.9l0.5,1.8l-2.8,1c-0.3,0.1-0.5,0.3-0.6,0.5s-0.2,0.5-0.1,0.8c0.1,0.3,0.2,0.5,0.4,0.6
	c0.2,0.2,0.5,0.2,0.7,0.2l2.1-0.3l0.3,2l-1.3,0.2L902.5,292.2z M907,293.4c-0.6,0-1.2-0.2-1.7-0.5s-0.9-0.8-1.2-1.3
	s-0.5-1.2-0.5-1.8V285h1.8v4.9c0,0.3,0.1,0.5,0.2,0.8c0.3,0.5,0.9,0.8,1.4,0.8h0.3v2L907,293.4z"/>
<path class="st5" d="M907.1,291.4H930c0.3,0,0.7,0,1-0.1c0.2-0.1,0.4-0.3,0.5-0.5c0.1-0.3,0.1-0.7-0.1-1l-0.6-2.4l1.7-0.5l0.7,2.4
	c0.2,0.7,0.2,1.5,0,2.2c-0.2,0.6-0.6,1.1-1.1,1.5c-0.6,0.4-1.3,0.5-2,0.5h-23L907.1,291.4L907.1,291.4z M928.9,295.7l1.4-1.4
	l1.4,1.4l-1.4,1.4L928.9,295.7z"/>
<path class="st5" d="M933.6,295.6l0.3-0.1l0.3-0.1c0.6-0.1,1.1-0.3,1.6-0.5c0.3-0.1,0.6-0.4,0.8-0.6c0.2-0.3,0.2-0.7,0.2-1.1
	l-0.7-4.6l1.8-0.3l0.7,4.7c0.1,0.7,0.1,1.5-0.2,2.1s-0.7,1-1.3,1.3c-0.7,0.4-1.5,0.7-2.3,0.9c-0.1,0-0.2,0.1-0.3,0.1
	s-0.2,0.1-0.3,0.1L933.6,295.6z M939.1,293.4c-0.5,0-1-0.1-1.4-0.4s-0.7-0.7-0.8-1.2c-0.3-0.8-0.4-1.6-0.5-2.4v-0.3l1.7-0.3v0.1
	c0.1,0.6,0.1,1.1,0.3,1.7c0,0.2,0.1,0.5,0.3,0.7c0.2,0.1,0.4,0.2,0.5,0.2h0.1v2L939.1,293.4z"/>
<path class="st5" d="M939,291.4h21.8c0.7,0,1.4-0.1,2.1-0.2c0.8-0.1,1.5-0.3,2.3-0.5l4.1-1.1l-0.1,0.5l-3.6-1.7
	c-0.4-0.2-0.8-0.3-1.3-0.1c-0.4,0.1-0.8,0.4-1,0.8l-0.3,0.5l-1.5-1l0.3-0.6c0.3-0.6,0.8-1,1.3-1.4c0.5-0.3,1.1-0.5,1.6-0.5
	c0.6,0,1.2,0.2,1.7,0.5l4.1,2.2l-0.3,2.3l-4.7,1.5c-0.8,0.3-1.6,0.5-2.5,0.6c-0.8,0.1-1.6,0.2-2.4,0.2H939V291.4z M964.3,295.6
	l1.4-1.4l1.4,1.4l-1.4,1.4L964.3,295.6z M970.8,293.4c-0.5,0-1-0.1-1.4-0.4s-0.8-0.6-1-1.1c-0.3-0.4-0.4-0.9-0.4-1.5h1.8
	c0,0.2,0.1,0.3,0.2,0.5c0.1,0.1,0.2,0.3,0.4,0.3c0.2,0.1,0.4,0.1,0.5,0.1h1v2L970.8,293.4z"/>
<path class="st5" d="M971.7,291.4h24.1c0.3,0,0.7,0,1-0.1c0.2-0.1,0.4-0.3,0.5-0.5c0.1-0.3,0.1-0.7,0-1l-0.6-2.4l1.7-0.5l0.7,2.5
	c0.2,0.7,0.2,1.4,0,2.1c-0.2,0.6-0.6,1.1-1.2,1.4c-0.6,0.4-1.3,0.5-2,0.5h-24.1v-2H971.7z M993.1,284.5l1.2-1.2l1.2,1.2l-1.2,1.2
	L993.1,284.5z M996.2,284.5l1.2-1.2l1.2,1.2l-1.2,1.2L996.2,284.5z"/>
<path class="st5" d="M742,470.3c-0.3,0-0.6-0.1-0.8-0.4c-0.2-0.2-0.3-0.5-0.3-0.8s0.1-0.6,0.3-0.8c0.2-0.2,0.5-0.3,0.8-0.3
	c0.6,0,1.1,0.5,1.1,1.2c0,0.3-0.1,0.6-0.3,0.8S742.3,470.3,742,470.3z M741,459.8h2l-0.2,7.1h-1.5L741,459.8z"/>
<path class="st5" d="M744.9,467l1.1-0.8l3.7,1.9c0.1,0,0.1,0,0.2,0c0,0,0.1,0,0.1-0.1c0.2-0.3,0.3-0.7,0.3-1c0.1-0.3,0.1-0.6,0-0.8
	c-0.1-0.2-0.3-0.4-0.5-0.6c-0.2-0.1-0.3-0.1-0.5-0.1s-0.4,0.1-0.5,0.2c-0.2,0.1-0.3,0.3-0.4,0.5l-0.8,1.6l-1.4-0.8l1-2
	c0.2-0.4,0.5-0.7,0.8-0.9c0.3-0.2,0.7-0.4,1.2-0.4c0.4,0,0.8,0.1,1.2,0.3c0.5,0.3,0.8,0.7,1.1,1.1c0.3,0.5,0.4,1.1,0.3,1.7
	c0,0.6-0.2,1.3-0.5,1.8c-0.2,0.3-0.4,0.5-0.7,0.7s-0.6,0.3-0.9,0.3c-0.3,0-0.7,0-1-0.2l-2.3-1.2l0.2,5.8H745L744.9,467z
	 M753.1,469.8c-0.5,0-1-0.1-1.4-0.4s-0.7-0.6-0.9-1.1s-0.3-1-0.3-1.6h1.4c0,0.2,0,0.4,0.1,0.6s0.2,0.3,0.4,0.4s0.4,0.1,0.7,0.1
	V469.8z"/>
<path class="st5" d="M752.9,468h11.9c0.3,0,0.6,0,0.9-0.2c0.2-0.2,0.3-0.4,0.2-0.6l-0.2-1.8l1.6-0.2l0.2,1.8c0.1,0.5,0,1-0.2,1.5
	c-0.2,0.4-0.6,0.8-1,1c-0.5,0.3-1,0.4-1.5,0.4h-11.9V468z M762.6,462.8l1.1-1.1l1.1,1.1l-1.1,1.1L762.6,462.8z M765.5,462.8l1.1-1.1
	l1.1,1.1l-1.1,1.1L765.5,462.8z M768.7,469.8c-0.7,0-1.4-0.2-1.9-0.7s-0.8-1.3-0.8-2l1.6-0.1c0,0.2,0.1,0.4,0.2,0.6
	c0.1,0.1,0.2,0.2,0.3,0.3c0.2,0.1,0.4,0.1,0.6,0.1L768.7,469.8z"/>
<path class="st5" d="M768.5,468h9.9c0.3,0,0.6,0,0.9-0.3c0.2-0.2,0.2-0.4,0.2-0.7v-1.8h1.5v1.8c0,0.4-0.1,0.9-0.3,1.3
	s-0.5,0.8-0.9,1c-0.4,0.3-0.9,0.4-1.4,0.4h-9.9V468z M782,469.8c-0.5,0-0.9-0.1-1.3-0.4c-0.4-0.3-0.7-0.6-0.9-1s-0.3-0.8-0.3-1.3
	h1.5c0,0.2,0.1,0.5,0.3,0.7s0.5,0.3,0.8,0.3h0.1c0.2,0,0.4,0,0.6-0.1c0.1-0.1,0.2-0.2,0.3-0.3c0.1-0.1,0.1-0.3,0.1-0.4v-1.8h1.5v1.8
	c0,0.4-0.1,0.9-0.3,1.3s-0.5,0.8-0.9,1C783,469.7,782.5,469.8,782,469.8z M785.8,469.8c-0.5,0-1-0.1-1.4-0.4c-0.4-0.2-0.7-0.6-0.9-1
	s-0.3-0.8-0.3-1.3h1.5c0,0.2,0.1,0.5,0.3,0.6c0.2,0.2,0.5,0.3,0.8,0.3s0.5,0,0.7-0.1s0.3-0.2,0.3-0.3c0.1-0.1,0.1-0.3,0-0.5
	l-0.5-1.8l1.5-0.4l0.5,1.8c0.2,0.5,0.2,1,0,1.5s-0.5,0.9-0.9,1.2C786.9,469.7,786.3,469.9,785.8,469.8L785.8,469.8z M789.9,469.8
	c-0.7,0-1.4-0.2-1.9-0.7s-0.9-1.2-1.1-1.9l1.4-0.5c0.1,0.4,0.3,0.7,0.6,1c0.3,0.2,0.7,0.4,1.1,0.4L789.9,469.8z"/>
<path class="st5" d="M801.5,468.5c-0.4-0.2-0.8-0.5-1.1-0.9s-0.4-0.9-0.5-1.4c0-0.5,0.1-1,0.3-1.5c0.2-0.4,0.5-0.8,0.9-1.1
	c0.4-0.3,0.8-0.4,1.3-0.5c0.5,0,1,0,1.4,0.3c0.5,0.2,0.8,0.5,1.1,1c0.3,0.4,0.4,0.9,0.5,1.4c0,0.5,0,1-0.3,1.5
	c-0.4,0.8-1.1,1.5-1.9,1.9c-1,0.5-2,0.7-3.1,0.7h-10.4V468h10.4c0.6,0,1.2,0,1.8-0.2c0.4-0.1,0.8-0.3,1.1-0.5s0.5-0.5,0.6-0.9
	c0.1-0.3,0.1-0.5,0-0.8s-0.3-0.5-0.5-0.6s-0.4-0.1-0.6-0.1c-0.2,0-0.4,0.1-0.5,0.1c-0.2,0.1-0.3,0.2-0.3,0.4
	c-0.1,0.2-0.2,0.5-0.1,0.8c0.1,0.3,0.3,0.5,0.6,0.6l3.2,1.5c0.2,0.1,0.5,0.1,0.8,0s0.5-0.3,0.6-0.5s0.1-0.5,0-0.8s-0.3-0.5-0.5-0.6
	l-5.2-2.7l0.8-1.6l5.3,2.8c0.4,0.2,0.8,0.6,1,1c0.5,0.8,0.6,1.8,0.2,2.7c-0.2,0.4-0.5,0.8-0.9,1.1c-0.4,0.3-0.8,0.4-1.3,0.5
	c-0.5,0-0.9,0-1.3-0.2L801.5,468.5z"/>
<path class="st5" d="M818.7,473.3c-1.1,0.3-2.4,0.2-3.4-0.4c-0.9-0.6-1.6-1.6-1.7-2.7c-0.2-1.4,0-2.9,0.5-4.2l1.5,0.6
	c-0.4,0.9-0.6,2-0.5,3c0,0.7,0.4,1.3,1,1.7c0.7,0.3,1.5,0.4,2.2,0.2h0.2h0.2c0.5-0.1,0.9-0.2,1.4-0.4c0.3-0.1,0.5-0.3,0.6-0.6
	c0.1-0.3,0.2-0.7,0.1-1c0-0.3-0.2-1.7-0.6-4.1l1.6-0.3c0.3,2.3,0.5,3.6,0.6,4.1c0.1,0.7,0.1,1.4-0.2,2c-0.2,0.5-0.6,0.9-1.1,1.2
	c-0.6,0.4-1.3,0.6-2,0.8L818.7,473.3L818.7,473.3z M823.7,469.8c-0.4,0-0.9-0.1-1.2-0.4c-0.4-0.3-0.7-0.6-0.9-1
	c-0.3-0.4-0.4-0.9-0.5-1.4l1.1-0.5v0.1c0,0.3,0.1,0.6,0.3,0.8c0.1,0.2,0.3,0.3,0.5,0.4s0.5,0.1,0.8,0.1h0.1h0.1
	c0.3,0,0.5-0.1,0.8-0.3c0.1-0.2,0.2-0.4,0.2-0.6v-1.8h1.5v1.8c0,0.4-0.1,0.9-0.3,1.3s-0.5,0.8-0.9,1
	C824.6,469.7,824.2,469.8,823.7,469.8L823.7,469.8z M827.4,469.8c-1,0-1.9-0.5-2.3-1.5c-0.2-0.4-0.3-0.8-0.3-1.3h1.5
	c0,0.2,0.1,0.4,0.2,0.6c0.2,0.2,0.5,0.3,0.8,0.3s0.5,0,0.8-0.1c0.2-0.1,0.3-0.2,0.3-0.3c0.1-0.1,0.1-0.3,0-0.5l-0.5-1.8l1.5-0.4
	l0.5,1.8c0.2,0.5,0.2,1,0,1.5s-0.5,0.9-0.9,1.2C828.5,469.7,827.9,469.9,827.4,469.8L827.4,469.8z M831.5,469.8
	c-0.7,0-1.5-0.2-2-0.7c-0.6-0.5-0.9-1.2-1.1-1.9l1.4-0.5c0.1,0.4,0.3,0.7,0.6,1c0.3,0.2,0.7,0.4,1.1,0.4V469.8z"/>
<path class="st5" d="M831.3,468h11.8c0.3,0,0.6,0,0.9-0.1c0.2-0.1,0.4-0.3,0.4-0.5c0.1-0.3,0.1-0.6,0-0.9l-0.6-2.2l1.6-0.5l0.6,2.3
	c0.2,0.7,0.2,1.3,0,2c-0.2,0.5-0.6,1-1.1,1.3s-1.2,0.5-1.8,0.5h-11.8L831.3,468L831.3,468z M840.7,472l1.1-1.1l1.1,1.1l-1.1,1.1
	L840.7,472z M843.5,472l1.1-1.1l1.1,1.1l-1.1,1.1L843.5,472z"/>
<path class="st5" d="M848.4,471.9h0.2c1.2-0.2,2-0.4,2.5-0.6c0.4-0.1,0.7-0.3,1-0.6c0.2-0.3,0.2-0.7,0.1-1l-0.3-2.4
	c0-0.5-0.2-0.9-0.5-1.3c-0.2-0.3-0.6-0.4-1-0.4c-0.2,0-0.5,0.1-0.7,0.2s-0.3,0.3-0.4,0.6c-0.1,0.2-0.1,0.5-0.1,0.7
	c0,0.3,0.1,0.5,0.3,0.7s0.5,0.2,0.8,0.2h4.1v1.8h-4.1c-0.7,0-1.4-0.2-1.9-0.7s-0.8-1.2-0.8-1.9c0-0.6,0-1.1,0.3-1.6
	c0.2-0.5,0.6-1,1-1.3c0.9-0.7,2.1-0.7,3-0.2c0.5,0.3,0.8,0.7,1.1,1.2s0.5,1.2,0.5,1.8l0.3,2.4c0.1,0.7,0,1.5-0.3,2.1s-0.8,1-1.5,1.2
	c-1,0.4-2,0.7-3.1,0.9h-0.1h-0.1L848.4,471.9z"/>
<path class="st5" d="M854.4,468h10.7c0.3,0,0.6,0,0.9-0.1c0.2-0.1,0.4-0.3,0.5-0.5c0.1-0.3,0.1-0.6,0-0.9l-0.6-2.2l1.6-0.5l0.6,2.2
	c0.2,0.7,0.2,1.3,0,2c-0.2,0.6-0.5,1-1,1.3s-1.2,0.5-1.8,0.5h-10.8V468H854.4z M864.4,461.6l1.3-1.3l1.3,1.3l-1.3,1.3L864.4,461.6z"
	/>
<path class="st5" d="M876,468.7c-0.4,0-0.8,0-1.1-0.2c-0.4-0.2-0.7-0.4-1-0.7c-0.3-0.3-0.5-0.6-0.6-1c-0.2-0.5-0.2-1-0.1-1.4
	c0.1-0.5,0.3-0.9,0.6-1.3s0.7-0.6,1.1-0.8l2.6-0.9l0.5,1.6l-2.5,0.9c-0.3,0.1-0.5,0.3-0.6,0.5s-0.1,0.5-0.1,0.7
	c0.1,0.2,0.2,0.4,0.4,0.6c0.2,0.1,0.4,0.2,0.7,0.2l1.9-0.3l0.3,1.8l-1.2,0.2L876,468.7z M880.1,469.8c-0.6,0-1.1-0.1-1.6-0.4
	s-0.9-0.7-1.2-1.2s-0.4-1.1-0.4-1.6v-4.5h1.6v4.5c0,0.2,0.1,0.5,0.2,0.7c0.1,0.2,0.3,0.4,0.5,0.5s0.5,0.2,0.8,0.2h0.3v1.8H880.1z"/>
<path class="st5" d="M880.2,468h9.7c0.3,0,0.5-0.1,0.7-0.2s0.4-0.3,0.5-0.5l1.1-2.1c0.2-0.4,0.5-0.7,0.8-1c0.3-0.2,0.7-0.4,1.2-0.4
	c0.4,0,0.8,0.1,1.2,0.3c0.5,0.3,0.9,0.7,1.1,1.2c0.2,0.5,0.4,1.1,0.3,1.7c0,0.6-0.2,1.3-0.5,1.8c-0.2,0.3-0.4,0.5-0.6,0.7
	c-0.3,0.2-0.6,0.3-0.9,0.3c-0.3,0-0.7,0-1-0.2l-2.3-1.2l0.8-1.5l2.5,1.3c0,0,0.1,0.1,0.2,0.1h0.1c0,0,0-0.1,0.1-0.1
	c0.2-0.3,0.3-0.7,0.3-1c0.1-0.3,0.1-0.6,0-0.8c-0.1-0.2-0.2-0.4-0.5-0.6c-0.2-0.1-0.3-0.1-0.5-0.1s-0.4,0.1-0.5,0.2
	c-0.2,0.1-0.3,0.3-0.4,0.5l-0.9,1.7c-0.3,0.5-0.6,0.9-1.1,1.3c-0.5,0.3-1,0.5-1.5,0.5h-9.7L880.2,468z"/>
<path class="st5" d="M901.7,469.8c-0.6,0-1.1-0.1-1.6-0.3c-0.4-0.2-0.7-0.6-0.9-1c-0.2-0.6-0.3-1.3-0.3-1.9l-0.3-6.9l1.6-0.1
	l0.3,6.9v0.2c0,0.3,0,0.5,0.1,0.8c0.1,0.2,0.2,0.3,0.3,0.3c0.3,0.1,0.5,0.1,0.8,0.1h0.2v1.8L901.7,469.8z"/>
<path class="st5" d="M901.7,468h10.7c0.3,0,0.6,0,0.9-0.1c0.2-0.1,0.4-0.3,0.5-0.5c0.1-0.3,0.1-0.6,0-0.9l-0.6-2.2l1.6-0.5l0.6,2.2
	c0.2,0.7,0.2,1.3,0,2c-0.2,0.6-0.5,1-1,1.3s-1.2,0.5-1.8,0.5h-10.8V468H901.7z M911.7,461.6l1.3-1.3l1.3,1.3l-1.3,1.3L911.7,461.6z"
	/>
<path class="st5" d="M915.5,471.9l0.3-0.1l0.3-0.1c0.5-0.1,1-0.3,1.5-0.5c0.3-0.1,0.5-0.3,0.7-0.6c0.2-0.3,0.2-0.7,0.1-1l-0.6-4.3
	l1.6-0.3l0.6,4.3c0.1,0.7,0.1,1.4-0.2,2c-0.3,0.5-0.7,0.9-1.2,1.2c-0.7,0.4-1.4,0.7-2.1,0.9l-0.3,0.1l-0.3,0.1L915.5,471.9z
	 M920.5,469.9c-0.5,0-0.9-0.1-1.3-0.4c-0.4-0.3-0.6-0.7-0.8-1.1c-0.2-0.7-0.4-1.5-0.5-2.2v-0.3l1.5-0.2v0.1c0.1,0.5,0.1,1,0.3,1.5
	c0,0.2,0.1,0.4,0.3,0.6c0.1,0.1,0.3,0.2,0.5,0.1h0.1v1.8L920.5,469.9z"/>
<path class="st5" d="M920.5,468h10.7c0.3,0,0.6,0,0.9-0.1c0.2-0.1,0.4-0.3,0.5-0.5c0.1-0.3,0.1-0.6,0-0.9l-0.6-2.2l1.6-0.5l0.6,2.2
	c0.2,0.7,0.2,1.3,0,2c-0.2,0.6-0.5,1-1,1.3s-1.2,0.5-1.8,0.5h-10.8V468H920.5z M930.3,472l1.3-1.3l1.3,1.3l-1.3,1.3L930.3,472z"/>
<path class="st5" d="M945.5,469.8c-1.1,0-2,0-2.5,0c-0.4,0-0.9,0-1.3-0.1c-0.3-0.1-0.6-0.1-0.9-0.3l0,0c-0.6-0.2-1.1-0.7-1.3-1.4
	c-0.2-0.7-0.3-1.4-0.1-2.1l0.5-2.1l1.6,0.5l-0.6,2.2c-0.1,0.3-0.1,0.5,0,0.8c0.1,0.2,0.3,0.4,0.5,0.5l0,0c0.2,0.1,0.4,0.1,0.6,0.1
	c0.4,0,0.8,0.1,1.2,0.1h2.4L945.5,469.8z M945.5,468h3.2c0.1,0,0.2,0,0.3,0s0.1,0,0.2-0.1c0.1-0.1,0.2-0.2,0.2-0.3
	c0-0.1,0-0.2,0-0.3c0-0.1-0.1-0.2-0.1-0.4l-3.2-4.7l0.4-1.4l5.4-2l0.6,1.7l-4.6,1.7l0.1-0.5l2.7,4c0.2,0.4,0.4,0.8,0.5,1.2
	c0.1,0.4,0.1,0.8,0,1.1c-0.1,0.3-0.2,0.7-0.5,0.9c-0.2,0.3-0.5,0.5-0.8,0.6c-0.4,0.1-0.7,0.2-1.1,0.2h-3.2L945.5,468z M953,469.8
	c-0.4,0-0.8-0.1-1.2-0.3c-0.4-0.2-0.7-0.5-1-0.8c-0.4-0.4-0.7-0.8-0.9-1.3c-0.2-0.3-0.3-0.5-0.4-0.7l1.2-0.8l0.2,0.4l0.2,0.3
	c0.2,0.3,0.4,0.6,0.7,0.8c0.2,0.2,0.4,0.3,0.6,0.4c0.2,0.1,0.5,0.1,0.7,0.1h0.2v1.8L953,469.8z"/>
<path class="st5" d="M953.1,468h11.8c0.3,0,0.6,0,0.9-0.1c0.2-0.1,0.4-0.3,0.4-0.5c0.1-0.3,0.1-0.6,0-0.9l-0.6-2.2l1.6-0.5l0.6,2.3
	c0.2,0.7,0.2,1.3,0,2c-0.2,0.5-0.6,1-1.1,1.3s-1.2,0.5-1.8,0.5h-11.8L953.1,468L953.1,468z M962.4,472l1.1-1.1l1.1,1.1l-1.1,1.1
	L962.4,472z M965.3,472l1.1-1.1l1.1,1.1l-1.1,1.1L965.3,472z"/>
<path class="st5" d="M978,473.3c-1.1,0.3-2.4,0.2-3.4-0.4c-0.9-0.6-1.6-1.6-1.7-2.7c-0.2-1.4,0-2.9,0.5-4.2l1.5,0.6
	c-0.4,1-0.5,2-0.5,3c0,0.7,0.4,1.3,1,1.7c0.7,0.3,1.5,0.4,2.2,0.2h0.2h0.2c0.5-0.1,0.9-0.2,1.4-0.4c0.3-0.1,0.5-0.3,0.6-0.6
	c0.1-0.3,0.2-0.7,0.1-1l-0.6-4.1l1.6-0.3c0.3,2.3,0.5,3.6,0.6,4.1c0.1,0.7,0.1,1.4-0.2,2c-0.2,0.5-0.6,0.9-1.1,1.2
	c-0.6,0.4-1.3,0.6-2,0.8L978,473.3L978,473.3z M975.8,465.1l1.3-1.3l1.3,1.3l-1.3,1.3L975.8,465.1z M982.5,469.8
	c-0.5,0-1-0.2-1.3-0.5c-0.4-0.4-0.8-0.9-1-1.5c-0.3-0.8-0.5-1.6-0.6-2.4l0,0l0,0l1.6-0.3c0,0.1,0,0.3,0,0.4c0.1,0.5,0.2,1.1,0.3,1.6
	c0,0.3,0.2,0.5,0.3,0.7c0.2,0.1,0.4,0.2,0.6,0.2h0.4v1.8L982.5,469.8z"/>
<path class="st5" d="M982.7,468h9.7c0.3,0,0.5-0.1,0.7-0.2s0.4-0.3,0.5-0.5l1.1-2.1c0.2-0.4,0.5-0.7,0.8-1c0.3-0.2,0.7-0.4,1.2-0.4
	c0.4,0,0.8,0.1,1.2,0.3c0.5,0.3,0.8,0.7,1.1,1.2s0.4,1.1,0.3,1.7c0,0.6-0.2,1.3-0.5,1.8c-0.2,0.3-0.4,0.5-0.6,0.7
	c-0.3,0.2-0.6,0.3-0.9,0.3c-0.3,0-0.7,0-1-0.2l-2.3-1.2l0.8-1.5l2.5,1.3l0.1,0.1h0.1l0.1-0.1c0.2-0.3,0.3-0.7,0.4-1
	c0.1-0.3,0.1-0.6,0-0.8c-0.1-0.2-0.2-0.4-0.5-0.6c-0.2-0.1-0.3-0.1-0.5-0.1s-0.4,0.1-0.5,0.2c-0.2,0.1-0.3,0.3-0.4,0.5l-0.9,1.7
	c-0.3,0.5-0.6,1-1.1,1.3c-0.4,0.3-1,0.5-1.5,0.5h-9.7V468H982.7z"/>
<path class="st5" d="M783.7,677.3c-0.3,0-0.6-0.1-0.8-0.3s-0.3-0.5-0.3-0.8s0.1-0.6,0.3-0.8s0.5-0.3,0.8-0.3c0.6,0,1.1,0.5,1.1,1.1
	l0,0c0,0.3-0.1,0.6-0.3,0.8S784,677.3,783.7,677.3z M782.7,666.8h1.9l-0.2,7H783L782.7,666.8z"/>
<path class="st5" d="M786.6,674l1.1-0.7l3.7,1.9c0.1,0,0.1,0,0.2,0c0.1,0,0.1-0.1,0.1-0.1c0.2-0.3,0.3-0.7,0.3-1
	c0.1-0.3,0-0.6,0-0.8c-0.1-0.2-0.3-0.4-0.5-0.6c-0.2-0.1-0.3-0.1-0.5-0.1s-0.4,0.1-0.5,0.2c-0.2,0.2-0.3,0.3-0.4,0.5l-0.8,1.6
	l-1.4-0.8l1-2c0.2-0.4,0.5-0.7,0.8-0.9s0.7-0.3,1.2-0.4c0.4,0,0.8,0.1,1.2,0.3c0.5,0.3,0.8,0.7,1.1,1.2c0.2,0.5,0.4,1.1,0.3,1.7
	c0,0.6-0.2,1.3-0.5,1.8c-0.2,0.3-0.4,0.5-0.6,0.7c-0.3,0.2-0.6,0.3-0.9,0.3c-0.3,0-0.7,0-1-0.2l-2.3-1.2l0.2,5.8h-1.6L786.6,674z
	 M794.8,676.8c-0.5,0-1-0.1-1.4-0.4c-0.4-0.3-0.7-0.6-0.9-1c-0.2-0.5-0.3-1-0.3-1.6h1.4c0,0.2,0,0.5,0.2,0.7
	c0.1,0.2,0.2,0.3,0.4,0.4c0.2,0.1,0.4,0.1,0.7,0.1v1.8H794.8z"/>
<path class="st5" d="M794.6,675h11.9c0.3,0,0.6,0,0.9-0.2c0.2-0.2,0.3-0.4,0.2-0.6l-0.2-1.8l1.6-0.2l0.2,1.8c0.1,0.5,0,1-0.2,1.5
	c-0.2,0.4-0.5,0.8-1,1s-1,0.4-1.5,0.3h-11.9V675z M804.3,669.8l1.1-1.1l1.1,1.1l-1.1,1.1L804.3,669.8z M807.2,669.8l1.1-1.1l1.1,1.1
	l-1.1,1.1L807.2,669.8z M810.4,676.8c-0.7,0-1.4-0.2-1.9-0.7s-0.8-1.3-0.8-2l1.6-0.1c0,0.2,0.1,0.4,0.1,0.6c0.1,0.1,0.2,0.2,0.3,0.3
	c0.2,0.1,0.4,0.1,0.6,0.1L810.4,676.8z"/>
<path class="st5" d="M810.2,675h9.9c0.3,0,0.6,0,0.9-0.2c0.1-0.2,0.2-0.4,0.2-0.7v-1.8h1.5v1.8c0,0.4-0.1,0.9-0.3,1.3
	c-0.2,0.4-0.5,0.7-0.9,1s-0.9,0.4-1.4,0.4h-9.9V675z M823.8,676.8c-0.5,0-0.9-0.1-1.3-0.4c-0.4-0.3-0.7-0.6-0.9-1s-0.3-0.8-0.3-1.3
	h1.5c0,0.2,0.1,0.5,0.3,0.7s0.5,0.3,0.8,0.3h0.1c0.2,0,0.4,0,0.6-0.1c0.1-0.1,0.2-0.2,0.3-0.3c0-0.1,0.1-0.3,0.1-0.4v-1.8h1.5v1.8
	c0,0.4-0.1,0.9-0.3,1.3c-0.2,0.4-0.5,0.8-0.9,1C824.8,676.7,824.3,676.9,823.8,676.8z M827.5,676.8c-0.5,0-1-0.1-1.4-0.4
	c-0.4-0.2-0.7-0.6-0.9-1s-0.3-0.8-0.3-1.3h1.5c0,0.2,0.1,0.5,0.3,0.6c0.2,0.2,0.5,0.3,0.8,0.3s0.5,0,0.8-0.1
	c0.2-0.1,0.3-0.2,0.3-0.3c0.1-0.1,0.1-0.3,0-0.5l-0.5-1.8l1.5-0.4l0.5,1.8c0.2,0.5,0.2,1,0,1.5s-0.5,0.9-0.9,1.2
	C828.6,676.7,828.1,676.9,827.5,676.8z M831.6,676.8c-0.7,0-1.4-0.2-1.9-0.7c-0.6-0.5-0.9-1.2-1.1-1.9l1.4-0.5
	c0.1,0.4,0.3,0.7,0.6,1c0.3,0.2,0.7,0.4,1.1,0.4L831.6,676.8z"/>
<path class="st5" d="M843.2,675.5c-0.5-0.2-0.8-0.5-1.1-0.9s-0.4-0.9-0.5-1.4c0-0.5,0-1,0.3-1.5c0.2-0.4,0.5-0.8,0.9-1.1
	c1.2-0.9,2.9-0.6,3.8,0.7c0,0,0,0,0,0.1c0.3,0.4,0.5,0.9,0.5,1.4s-0.1,1-0.3,1.5c-0.4,0.8-1.1,1.5-1.9,1.9c-1,0.5-2,0.7-3.1,0.7
	h-10.4V675h10.4c0.6,0,1.2,0,1.8-0.2c0.4-0.1,0.8-0.3,1.1-0.5s0.5-0.5,0.6-0.8s0.1-0.6,0-0.8c-0.1-0.3-0.3-0.5-0.5-0.6
	s-0.4-0.1-0.6-0.1c-0.2,0-0.4,0.1-0.5,0.2c-0.2,0.1-0.3,0.2-0.3,0.4c-0.1,0.2-0.2,0.5-0.1,0.8c0.1,0.3,0.3,0.5,0.6,0.6l3.2,1.5
	c0.2,0.1,0.5,0.1,0.8,0s0.5-0.3,0.6-0.5s0.1-0.5,0-0.8s-0.3-0.5-0.5-0.6l-5.3-2.7l0.7-1.6l5.3,2.8c0.4,0.2,0.8,0.5,1,0.9
	c0.3,0.4,0.4,0.9,0.5,1.3c0.1,1-0.3,1.9-1.1,2.4c-0.4,0.3-0.8,0.4-1.2,0.5c-0.5,0-0.9,0-1.3-0.2L843.2,675.5z"/>
<path class="st5" d="M860.5,682c-0.7,0.2-1.5,0.2-2.2,0c-1.4-0.4-2.6-1.5-2.9-2.9c-0.2-0.7-0.2-1.5,0-2.2s0.6-1.4,1.2-1.9
	c0.7-0.6,1.5-1,2.3-1.3l4-1v0.4l-3.3-1.7c-0.2-0.1-0.5-0.2-0.8-0.2s-0.5,0.1-0.8,0.2c-0.2,0.1-0.5,0.3-0.6,0.6l-0.3,0.5l-1.4-0.9
	l0.3-0.5c0.3-0.5,0.7-0.9,1.2-1.3c0.5-0.3,1-0.4,1.5-0.5c0.6,0,1.1,0.2,1.6,0.4l4,2.2l-0.2,2.1l-4.8,1.3c-0.6,0.1-1.2,0.4-1.6,0.8
	c-0.4,0.3-0.6,0.7-0.7,1.1c-0.1,0.4-0.1,0.8,0,1.2s0.3,0.8,0.7,1.1c0.3,0.3,0.7,0.5,1.2,0.6s0.9,0.1,1.4,0l3.8-1.1l0.4,1.8
	L860.5,682z"/>
<path class="st5" d="M866.3,666.8l1.6-0.1l0.4,10.2l-1.6,0.1L866.3,666.8z"/>
<path class="st5" d="M868.8,678.9l0.3-0.1l0.3-0.1c0.5-0.1,1-0.3,1.5-0.5c0.3-0.1,0.5-0.3,0.7-0.6s0.2-0.7,0.1-1l-0.6-4.3l1.6-0.3
	l0.6,4.3c0.1,0.7,0.1,1.4-0.2,2c-0.2,0.5-0.6,1-1.2,1.2c-0.7,0.4-1.4,0.7-2.1,0.9l-0.3,0.1l-0.3,0.1L868.8,678.9z M873.8,676.9
	c-0.5,0-0.9-0.1-1.3-0.3c-0.4-0.3-0.6-0.7-0.8-1.1c-0.2-0.7-0.4-1.5-0.5-2.2V673l1.5-0.2v0.1c0.1,0.5,0.1,1,0.3,1.5
	c0,0.2,0.1,0.4,0.3,0.6c0.1,0.1,0.3,0.2,0.5,0.1h0.1L873.8,676.9L873.8,676.9z"/>
<path class="st5" d="M873.8,675h9.8c0.8,0,1.5,0,2.2-0.1c0.6,0,1.2-0.2,1.8-0.3l3.6-0.9v0.4l-3.2-1.7l0,0c-0.5-0.3-1.1-0.3-1.5,0
	c-0.2,0.1-0.4,0.3-0.6,0.6l-0.3,0.5l-1.4-0.9l0.3-0.5c0.3-0.5,0.7-1,1.2-1.3s1-0.5,1.5-0.5c0.6,0,1.1,0.2,1.6,0.5l3.8,2.2l-0.2,2.1
	l-4.3,1.2c-0.7,0.2-1.4,0.3-2.1,0.3c-0.7,0.1-1.5,0.1-2.3,0.1h-9.8L873.8,675z M886.8,678.9l1.3-1.3l1.3,1.3l-1.3,1.3L886.8,678.9z"
	/>
<path class="st5" d="M903.8,676.8h-2.6c-0.4,0-0.9-0.1-1.3-0.1c-0.3,0-0.6-0.1-0.9-0.3l0,0c-0.6-0.3-1.1-0.7-1.3-1.4s-0.3-1.4,0-2.1
	l0.5-2.2l1.6,0.5l-0.6,2.2c-0.1,0.3-0.1,0.5,0,0.8c0.1,0.2,0.3,0.4,0.5,0.5l0,0c0.2,0.1,0.4,0.1,0.6,0.2c0.4,0,0.8,0.1,1.2,0.1
	c0.5,0,1.3,0,2.4,0L903.8,676.8z M903.8,675h3.2c0.1,0,0.2,0,0.3,0s0.1,0,0.2-0.1c0.1-0.1,0.2-0.2,0.2-0.3s0.1-0.2,0-0.3
	c0-0.1-0.1-0.2-0.1-0.3l-3.3-4.7l0.4-1.4l5.4-2l0.6,1.7l-4.7,1.7l0.1-0.5l2.7,4c0.2,0.4,0.4,0.8,0.5,1.2s0.1,0.7,0,1.1
	c-0.2,0.7-0.6,1.2-1.3,1.5c-0.4,0.1-0.7,0.2-1.1,0.2h-3.2L903.8,675z M911.3,676.8c-0.4,0-0.8-0.1-1.2-0.3s-0.7-0.5-1-0.8
	c-0.4-0.4-0.7-0.8-1-1.3c-0.1-0.2-0.3-0.5-0.4-0.7l1.2-0.8l0.2,0.3c0.1,0.1,0.1,0.2,0.2,0.3c0.2,0.3,0.4,0.6,0.7,0.8
	c0.2,0.2,0.4,0.3,0.6,0.4c0.2,0.1,0.4,0.1,0.7,0.1h0.2v1.8L911.3,676.8z"/>
<path class="st5" d="M911.3,675h11.8c0.3,0,0.6,0,0.9-0.1c0.2-0.1,0.4-0.3,0.4-0.5c0.1-0.3,0.1-0.6,0-0.9l-0.6-2.2l1.6-0.5l0.6,2.3
	c0.2,0.7,0.2,1.3,0,2c-0.2,0.6-0.6,1-1.1,1.3s-1.2,0.5-1.8,0.5h-11.8L911.3,675L911.3,675z M920.7,679l1.1-1.1l1.2,1.1l-1.1,1.1
	L920.7,679z M923.5,679l1.1-1.1l1.1,1.1l-1.1,1.1L923.5,679z"/>
<path class="st5" d="M936.3,680.3c-1.1,0.3-2.4,0.2-3.4-0.4c-0.9-0.6-1.6-1.6-1.7-2.7c-0.2-1.4,0-2.9,0.5-4.2l1.5,0.6
	c-0.4,0.9-0.6,2-0.5,3c0,0.7,0.4,1.4,1,1.7c0.7,0.3,1.5,0.4,2.2,0.2h0.2h0.2c0.5-0.1,0.9-0.2,1.4-0.4c0.3-0.1,0.5-0.3,0.6-0.6
	s0.2-0.7,0.1-1c0-0.3-0.2-1.7-0.6-4.1l1.6-0.3c0.3,2.3,0.5,3.6,0.6,4.1c0.1,0.7,0.1,1.4-0.2,2c-0.2,0.5-0.6,1-1.1,1.2
	c-0.6,0.4-1.3,0.6-2,0.8L936.3,680.3L936.3,680.3z M934.2,672.1l1.3-1.3l1.3,1.3l-1.3,1.3L934.2,672.1z M940.8,676.8
	c-0.5,0-1-0.2-1.3-0.5c-0.4-0.4-0.8-0.9-1-1.4c-0.3-0.8-0.5-1.6-0.6-2.4l0,0l0,0l1.6-0.3c0,0.1,0,0.3,0,0.4c0.1,0.7,0.2,1.3,0.3,1.6
	s0.2,0.5,0.3,0.7c0.2,0.1,0.4,0.2,0.6,0.2h0.4v1.8L940.8,676.8z"/>
<path class="st5" d="M941,675h9.7c0.3,0,0.5-0.1,0.7-0.2c0.2-0.1,0.4-0.3,0.5-0.5l1.1-2.1c0.2-0.4,0.5-0.7,0.8-1
	c0.3-0.2,0.7-0.4,1.2-0.4c0.4,0,0.8,0.1,1.2,0.3c0.5,0.3,0.8,0.7,1.1,1.2s0.4,1.1,0.3,1.7c0,0.6-0.2,1.3-0.5,1.8
	c-0.2,0.3-0.4,0.5-0.6,0.7c-0.3,0.2-0.6,0.3-0.9,0.3c-0.3,0-0.7-0.1-1-0.2l-2.3-1.2l0.8-1.5l2.5,1.3l0.1,0.1h0.1l0.1-0.1
	c0.2-0.3,0.3-0.6,0.3-1c0.1-0.3,0.1-0.6,0-0.8s-0.3-0.4-0.5-0.6c-0.2-0.1-0.4-0.1-0.5-0.1c-0.2,0-0.4,0.1-0.5,0.2
	c-0.2,0.2-0.3,0.3-0.4,0.5l-0.9,1.7c-0.3,0.5-0.6,1-1.1,1.3c-0.4,0.3-1,0.5-1.5,0.5H941V675z"/>
<path class="st5" d="M742.7,876.6c-0.3,0-0.6-0.1-0.8-0.3s-0.3-0.5-0.3-0.8s0.1-0.6,0.3-0.8s0.5-0.3,0.8-0.3s0.6,0.1,0.8,0.3
	s0.3,0.5,0.3,0.8s-0.1,0.6-0.3,0.8S743,876.6,742.7,876.6z M741.7,866.1h1.9l-0.2,7.1H742L741.7,866.1z"/>
<path class="st5" d="M745.5,873.3l1.1-0.8l3.7,1.9c0.1,0,0.1,0,0.2,0c0,0,0.1,0,0.1-0.1c0.2-0.3,0.3-0.7,0.3-1
	c0.1-0.3,0.1-0.6,0-0.8s-0.3-0.4-0.5-0.6c-0.2-0.1-0.3-0.1-0.5-0.1s-0.4,0.1-0.5,0.2c-0.2,0.1-0.3,0.3-0.4,0.5l-0.8,1.6l-1.4-0.8
	l1-2c0.2-0.4,0.5-0.7,0.8-0.9s0.7-0.4,1.2-0.4c0.4,0,0.8,0.1,1.2,0.3c0.5,0.3,0.8,0.7,1.1,1.2s0.4,1.1,0.3,1.7
	c0,0.6-0.2,1.3-0.5,1.8c-0.2,0.3-0.4,0.5-0.7,0.7s-0.6,0.3-0.9,0.3c-0.3,0-0.7,0-1-0.2l-2.3-1.2l0.2,5.8h-1.6L745.5,873.3z
	 M753.8,876.1c-0.5,0-1-0.1-1.4-0.4c-0.4-0.3-0.7-0.6-0.9-1.1s-0.3-1-0.3-1.6h1.4c0,0.2,0,0.4,0.1,0.7c0.1,0.2,0.2,0.3,0.4,0.4
	c0.2,0.1,0.4,0.1,0.7,0.1V876.1z"/>
<path class="st5" d="M753.6,874.3h11.9c0.3,0,0.6,0,0.9-0.2c0.2-0.2,0.3-0.4,0.2-0.6l-0.2-1.8l1.6-0.2l0.2,1.8c0.1,0.5,0,1-0.2,1.5
	c-0.2,0.4-0.6,0.8-1,1c-0.5,0.3-1,0.4-1.5,0.4h-11.9V874.3z M763.3,869.1l1.1-1.1l1.1,1.1l-1.1,1.1L763.3,869.1z M766.2,869.1
	l1.1-1.1l1.1,1.1l-1.1,1.1L766.2,869.1z M769.4,876.1c-0.7,0-1.4-0.2-1.9-0.7s-0.8-1.3-0.8-2l1.6-0.1c0,0.2,0.1,0.4,0.2,0.6
	c0.1,0.1,0.2,0.2,0.3,0.3c0.2,0.1,0.4,0.1,0.6,0.1L769.4,876.1z"/>
<path class="st5" d="M769.2,874.3h9.9c0.3,0,0.7-0.1,0.9-0.3s0.2-0.4,0.2-0.7v-1.8h1.5v1.8c0,0.4-0.1,0.9-0.3,1.3
	c-0.2,0.4-0.5,0.8-0.9,1c-0.4,0.3-0.9,0.4-1.4,0.4h-9.9V874.3z M782.7,876.1c-0.5,0-0.9-0.1-1.3-0.4c-0.4-0.3-0.7-0.6-0.9-1
	s-0.3-0.8-0.3-1.3h1.5c0,0.2,0.1,0.5,0.3,0.7s0.5,0.3,0.8,0.3h0.1c0.2,0,0.4,0,0.6-0.2c0.1-0.1,0.2-0.2,0.3-0.3s0.1-0.3,0.1-0.4
	v-1.8h1.5v1.8c0,0.4-0.1,0.9-0.3,1.3c-0.2,0.4-0.5,0.8-0.9,1C783.8,876,783.3,876.1,782.7,876.1L782.7,876.1z M786.5,876.1
	c-0.5,0-1-0.1-1.4-0.4c-0.4-0.2-0.7-0.6-0.9-1s-0.3-0.8-0.3-1.3h1.5c0,0.2,0.1,0.5,0.3,0.6c0.2,0.2,0.5,0.3,0.8,0.3s0.5,0,0.7-0.1
	s0.3-0.2,0.3-0.3c0-0.2,0-0.3,0-0.5l-0.5-1.8l1.5-0.4l0.5,1.8c0.2,0.5,0.2,1,0,1.5s-0.5,0.9-0.9,1.2
	C787.6,876,787,876.1,786.5,876.1L786.5,876.1z M790.6,876.1c-0.7,0-1.4-0.2-1.9-0.7s-0.9-1.2-1.1-1.9l1.4-0.5
	c0.1,0.4,0.3,0.7,0.6,1c0.3,0.2,0.7,0.4,1.1,0.4L790.6,876.1z"/>
<path class="st5" d="M802.2,874.8c-0.5-0.2-0.8-0.5-1.1-0.9s-0.4-0.9-0.5-1.4c0-0.5,0.1-1,0.3-1.5c0.2-0.4,0.5-0.8,0.9-1.1
	c0.8-0.6,1.8-0.6,2.7-0.2c0.5,0.2,0.8,0.6,1.1,1s0.4,0.9,0.5,1.4c0,0.5,0,1-0.3,1.5c-0.4,0.8-1.1,1.5-1.9,1.9c-1,0.5-2,0.7-3.1,0.7
	h-10.4v-1.8h10.4c0.6,0,1.2,0,1.8-0.2c0.4-0.1,0.8-0.3,1.1-0.5s0.5-0.5,0.6-0.9c0.2-0.5,0-1.2-0.5-1.4c-0.2-0.1-0.4-0.1-0.6-0.1
	c-0.2,0-0.4,0.1-0.5,0.2c-0.2,0.1-0.3,0.2-0.3,0.4c-0.1,0.2-0.2,0.5-0.1,0.8c0.1,0.3,0.3,0.5,0.6,0.6l3.2,1.5c0.2,0.1,0.5,0.1,0.8,0
	s0.5-0.3,0.6-0.5s0.1-0.5,0-0.8s-0.3-0.5-0.5-0.6l-5.3-2.7l0.8-1.6l5.3,2.8c0.4,0.2,0.8,0.6,1,1c0.5,0.8,0.6,1.8,0.2,2.7
	c-0.2,0.4-0.5,0.7-0.9,1s-0.8,0.4-1.3,0.5c-0.5,0-0.9,0-1.3-0.2L802.2,874.8z"/>
<path class="st5" d="M819.4,879.6c-1.1,0.3-2.4,0.2-3.4-0.4c-0.9-0.6-1.6-1.6-1.7-2.7c-0.2-1.4,0-2.9,0.5-4.2l1.5,0.6
	c-0.4,0.9-0.6,2-0.5,3c0,0.7,0.4,1.4,1,1.7c0.7,0.3,1.5,0.4,2.2,0.2h0.2h0.2c0.5-0.1,0.9-0.2,1.4-0.4c0.3-0.1,0.5-0.3,0.7-0.5
	c0.1-0.2,0.2-0.5,0.1-0.8c0-0.2-0.2-0.3-0.7-0.5s-1-0.4-1.5-0.5l0.5-1.7h0.1c0.7,0.3,1.4,0.7,2,1.2c0.6,0.3,1.1,0.9,1.2,1.5
	c0.1,0.5,0,1.1-0.2,1.6c-0.3,0.5-0.6,0.8-1.1,1.1c-0.6,0.3-1.3,0.6-2,0.8h-0.2L819.4,879.6z M823.9,876.1c-0.4,0-0.8,0-1.2-0.1
	c-0.4,0-0.7-0.1-1.1-0.2c-0.4-0.1-0.9-0.3-1.5-0.5l-0.4-0.1l-0.4-0.1l0.5-1.7h0.1h0.1c1.2,0.3,2,0.6,2.5,0.7
	c0.5,0.1,0.9,0.2,1.4,0.2L823.9,876.1L823.9,876.1z"/>
<path class="st5" d="M823.8,874.3h11.9c0.3,0,0.6,0,0.9-0.2c0.2-0.2,0.3-0.4,0.2-0.6l-0.2-1.8l1.6-0.2l0.2,1.8c0.1,0.5,0,1-0.2,1.5
	c-0.2,0.4-0.6,0.8-1,1c-0.5,0.3-1,0.4-1.5,0.4h-11.9V874.3z M833.4,869.1l1.1-1.1l1.1,1.1l-1.1,1.1L833.4,869.1z M836.3,869.1
	l1.1-1.1l1.1,1.1l-1.1,1.1L836.3,869.1z M839.5,876.1c-0.7,0-1.4-0.2-1.9-0.7s-0.8-1.3-0.8-2l1.6-0.1c0,0.2,0.1,0.4,0.2,0.6
	c0.1,0.1,0.2,0.2,0.3,0.3c0.2,0.1,0.4,0.1,0.6,0.1L839.5,876.1z"/>
<path class="st5" d="M839.3,874.3h9.8c0.9,0,1.9-0.1,2.8-0.2c0.6-0.1,1.3-0.3,1.8-0.7c0.4-0.3,0.8-0.7,0.9-1.2c0-0.1,0-0.2,0-0.3
	s-0.1-0.2-0.2-0.2c-0.1,0-0.2,0-0.3,0l-2.6,0.3l1.6,2c0.2,0.1,0.3,0.2,0.5,0.2c0.3,0,0.6,0.1,1,0.1h1.7h0.3v1.8h-0.2
	c-1,0-1.8,0-2.3-0.1c-0.5,0-1-0.2-1.5-0.4c-0.4-0.2-0.8-0.5-1.1-0.9l-2-2.7l0.5-1.4l3.6-0.5c0.5-0.1,1,0,1.4,0.3s0.7,0.7,0.9,1.2
	s0.1,1-0.1,1.5c-0.3,0.7-0.8,1.2-1.5,1.5c-0.8,0.5-1.7,0.9-2.6,1.1c-0.9,0.3-1.8,0.4-2.8,0.4h-9.8L839.3,874.3z"/>
<path class="st5" d="M856.6,874.3H867c0.3,0,0.6,0,0.9-0.2c0.2-0.2,0.2-0.4,0.2-0.6l-0.2-1.8l1.6-0.2l0.2,1.8c0.1,0.5,0,1-0.3,1.5
	c-0.2,0.4-0.5,0.8-1,1c-0.5,0.3-1,0.4-1.5,0.4h-10.5v-1.9H856.6z M866.6,869.1l1.3-1.3l1.3,1.3l-1.3,1.3L866.6,869.1z M870.9,876.1
	c-0.7,0-1.4-0.2-1.9-0.7s-0.8-1.3-0.8-2l1.6-0.2c0,0.2,0,0.4,0.1,0.6c0.1,0.1,0.2,0.2,0.3,0.3c0.2,0.1,0.4,0.1,0.6,0.1L870.9,876.1z
	"/>
<path class="st5" d="M870.7,874.3h9.6c0.3,0,0.7-0.1,0.9-0.2c0.2-0.2,0.4-0.5,0.4-0.8l1.6,0.1c0,0.5-0.2,1-0.5,1.4
	c-0.2,0.4-0.6,0.7-1,0.9c-0.5,0.2-1,0.3-1.5,0.3h-9.6L870.7,874.3z M883.8,876.1c-0.4,0-0.9-0.1-1.2-0.4c-0.3-0.3-0.6-0.6-0.8-1
	s-0.2-0.9-0.2-1.4l0.2-1.8l1.6,0.2l-0.2,1.8c0,0.2,0,0.5,0.1,0.7c0.1,0.1,0.3,0.2,0.4,0.2L883.8,876.1z M883.8,874.3h4.7
	c0.2,0,0.5-0.1,0.7-0.2c0.2-0.1,0.4-0.2,0.5-0.4s0.2-0.3,0.2-0.5c0-0.4-0.1-0.7-0.4-1c-0.3-0.3-0.6-0.4-1-0.4
	c-0.2,0-0.5,0.1-0.7,0.2c-0.3,0.2-0.5,0.4-0.7,0.6c-0.2,0.3-0.6,0.7-1,1.3l-1.3,1.8l-1.3-1.2l1.2-1.7c0.5-0.7,1-1.3,1.3-1.7
	s0.7-0.7,1.1-0.9c0.4-0.2,0.8-0.3,1.3-0.3s1.1,0.1,1.5,0.4c0.4,0.3,0.8,0.7,1.1,1.1c0.3,0.5,0.4,1,0.4,1.6c0,0.5-0.1,1-0.4,1.5
	c-0.3,0.4-0.6,0.8-1.1,1.1c-0.4,0.3-0.9,0.4-1.5,0.4h-4.7L883.8,874.3z"/>
<path class="st5" d="M901.7,881.3c-0.7,0.2-1.5,0.2-2.2,0s-1.3-0.5-1.8-1s-0.9-1.2-1.1-1.9c-0.2-0.7-0.2-1.5,0-2.2s0.6-1.4,1.2-1.9
	c0.7-0.6,1.5-1,2.3-1.3l4-1v0.4l-3.3-1.7c-0.2-0.1-0.5-0.2-0.8-0.2s-0.5,0.1-0.8,0.2c-0.2,0.1-0.5,0.3-0.6,0.6l-0.3,0.5l-1.4-0.9
	l0.3-0.5c0.3-0.5,0.7-0.9,1.2-1.3c0.5-0.3,1-0.4,1.5-0.4c0.6,0,1.1,0.2,1.6,0.4l4,2.2l-0.2,2.1l-4.8,1.3c-0.6,0.1-1.2,0.4-1.6,0.8
	c-0.3,0.3-0.6,0.7-0.7,1.1c-0.1,0.4-0.1,0.8,0,1.2s0.3,0.8,0.7,1.1c0.3,0.3,0.7,0.5,1.2,0.6s1,0.1,1.4,0l3.8-1l0.4,1.8L901.7,881.3z
	"/>
<path class="st5" d="M907.5,866l1.6-0.1l0.4,10.2l-1.6,0.1L907.5,866z"/>
<path class="st5" d="M910,878.1l0.3-0.1l0.3-0.1c0.5-0.1,1-0.3,1.5-0.5c0.3-0.1,0.5-0.3,0.7-0.6s0.2-0.7,0.1-1l-0.6-4.3l1.6-0.3
	l0.6,4.3c0.1,0.7,0.1,1.4-0.2,2c-0.2,0.5-0.7,1-1.2,1.2c-0.7,0.4-1.4,0.7-2.1,0.8l-0.3,0.1l-0.3,0.1L910,878.1z M915,876.1
	c-0.5,0-0.9-0.1-1.3-0.3c-0.4-0.3-0.6-0.7-0.8-1.1c-0.2-0.7-0.4-1.5-0.5-2.2v-0.3l1.5-0.2v0.1c0.1,0.5,0.1,1,0.3,1.5
	c0,0.2,0.1,0.4,0.3,0.6c0.1,0.1,0.3,0.2,0.5,0.2h0.1L915,876.1L915,876.1z"/>
<path class="st5" d="M915,874.3h9.6v1.8H915V874.3z M924.5,874.3h2.4v1.8h-2.4V874.3z M925.9,874.3h4.7c0.2,0,0.5-0.1,0.7-0.2
	c0.2-0.1,0.4-0.2,0.5-0.4s0.2-0.3,0.2-0.5c0-0.4-0.1-0.7-0.4-1c-0.3-0.3-0.6-0.4-1-0.4c-0.3,0-0.5,0.1-0.7,0.2
	c-0.3,0.2-0.5,0.4-0.7,0.6c-0.2,0.3-0.6,0.7-1,1.3l-1.3,1.8l-1.3-1.2l1.2-1.7c0.5-0.7,1-1.3,1.3-1.7s0.7-0.7,1.1-0.9
	c0.4-0.2,0.8-0.3,1.3-0.3s1,0.1,1.5,0.4c0.4,0.3,0.8,0.7,1.1,1.1c0.3,0.5,0.4,1,0.4,1.6c0,0.5-0.1,1-0.4,1.5
	c-0.3,0.4-0.6,0.8-1.1,1.1c-0.4,0.3-0.9,0.4-1.5,0.4h-4.6V874.3z M926.2,866l1.6-0.1l0.3,7.5l-1.6,0.8L926.2,866z"/>
<path class="st5" d="M944.8,876.1c-1.1,0-2,0-2.5,0c-0.4,0-0.9,0-1.3-0.1c-0.3-0.1-0.6-0.1-0.9-0.3l0,0c-0.6-0.2-1.1-0.7-1.3-1.3
	c-0.2-0.7-0.3-1.4-0.1-2.1l0.5-2.1l1.6,0.5l-0.6,2.2c-0.1,0.3-0.1,0.5,0,0.8c0.1,0.2,0.3,0.4,0.5,0.5l0,0c0.2,0.1,0.4,0.1,0.6,0.2
	c0.4,0,0.8,0.1,1.2,0.1h2.4L944.8,876.1z M944.8,874.3h3.2c0.1,0,0.2,0,0.3,0s0.1,0,0.2-0.1c0.1-0.1,0.2-0.2,0.2-0.3s0-0.2,0-0.3
	s-0.1-0.2-0.1-0.3l-3.3-4.7l0.4-1.4l5.4-2l0.6,1.7l-4.6,1.7l0.1-0.5l2.7,4c0.2,0.4,0.4,0.8,0.5,1.2s0.1,0.8,0,1.1s-0.2,0.7-0.5,0.9
	c-0.2,0.3-0.5,0.5-0.8,0.6c-0.4,0.1-0.7,0.2-1.1,0.2h-3.2L944.8,874.3z M952.3,876.1c-0.4,0-0.8-0.1-1.2-0.3s-0.7-0.5-1-0.8
	c-0.4-0.4-0.7-0.8-0.9-1.3c-0.2-0.3-0.3-0.5-0.4-0.7l1.2-0.8l0.2,0.3l0.2,0.3c0.2,0.3,0.4,0.5,0.7,0.8c0.2,0.2,0.4,0.3,0.6,0.4
	c0.2,0.1,0.5,0.1,0.7,0.1h0.2v1.8L952.3,876.1z"/>
<path class="st5" d="M952.4,874.3h11.8c0.3,0,0.6,0,0.9-0.1c0.2-0.1,0.4-0.3,0.4-0.5c0.1-0.3,0.1-0.6,0-0.9l-0.6-2.2l1.6-0.5
	l0.6,2.3c0.2,0.7,0.2,1.3,0,2c-0.2,0.6-0.6,1-1.1,1.3s-1.2,0.5-1.8,0.5h-11.8L952.4,874.3L952.4,874.3z M961.7,878.3l1.1-1.1
	l1.1,1.1l-1.1,1.1L961.7,878.3z M964.5,878.3l1.1-1.1l1.1,1.1l-1.1,1.1L964.5,878.3z"/>
<path class="st5" d="M977.3,879.6c-1.1,0.3-2.4,0.2-3.4-0.4c-0.9-0.6-1.6-1.6-1.7-2.7c-0.2-1.4,0-2.9,0.5-4.2l1.5,0.6
	c-0.4,0.9-0.6,2-0.5,3c0,0.7,0.4,1.3,1,1.7c0.7,0.3,1.5,0.4,2.2,0.2h0.2h0.2c0.5-0.1,0.9-0.2,1.4-0.4c0.3-0.1,0.5-0.3,0.6-0.6
	s0.2-0.7,0.1-1l-0.6-4.1l1.6-0.3c0.3,2.3,0.5,3.6,0.6,4.1c0.1,0.7,0.1,1.4-0.2,2c-0.2,0.5-0.6,0.9-1.1,1.2c-0.6,0.4-1.3,0.6-2,0.8
	L977.3,879.6L977.3,879.6z M975.2,871.4l1.3-1.3l1.3,1.3l-1.3,1.3L975.2,871.4z M981.8,876.1c-0.5,0-1-0.2-1.3-0.5
	c-0.4-0.4-0.8-0.9-1-1.5c-0.3-0.8-0.5-1.6-0.6-2.4l0,0l0,0l1.6-0.3c0,0.1,0,0.3,0,0.4c0.1,0.5,0.2,1.1,0.3,1.6
	c0.1,0.3,0.2,0.5,0.3,0.7c0.2,0.1,0.4,0.2,0.6,0.2h0.4v1.8H981.8z"/>
<path class="st5" d="M982,874.3h9.7c0.3,0,0.5-0.1,0.7-0.2c0.2-0.1,0.4-0.3,0.5-0.5l1.1-2.1c0.2-0.4,0.5-0.7,0.8-1
	c0.3-0.2,0.7-0.4,1.2-0.4c0.4,0,0.8,0.1,1.2,0.3c0.5,0.3,0.8,0.7,1.1,1.2s0.4,1.1,0.3,1.7c0,0.6-0.2,1.3-0.5,1.8
	c-0.2,0.3-0.4,0.5-0.6,0.7c-0.3,0.2-0.6,0.3-0.9,0.3c-0.3,0-0.7,0-1-0.2l-2.3-1.2l0.8-1.5l2.5,1.3l0.1,0.1h0.1c0,0,0-0.1,0.1-0.1
	c0.2-0.3,0.3-0.6,0.3-1c0.1-0.3,0.1-0.6,0-0.8s-0.2-0.4-0.5-0.6c-0.2-0.1-0.3-0.1-0.5-0.1s-0.4,0.1-0.5,0.2
	c-0.2,0.1-0.3,0.3-0.4,0.5l-0.9,1.7c-0.3,0.5-0.6,1-1.1,1.3c-0.4,0.3-1,0.5-1.5,0.5H982V874.3z"/>
<path class="st7" d="M863.4,600.4c0.9,0.2,0.6,0.8,0.5,1.3c-0.8,4.8-0.8,9.7,0.1,14.5c1.2,6.3,3.4,7.6,9.4,5.4
	c1.7-0.6,3.4-1.5,5.2-2.4c-1,6.7-1.9,6.3-2.8,12.8h16.7c-1.6-7.5-3.2-8.1-4.9-15.7c-0.3-1.4-1.1-2.8-1.4-4.2
	c-0.2-1.1-0.2-1.7,0.9-2.2c2-1.2,3.1-3.4,2.8-5.7c-0.3-1.8-1.1-3.3-3-3.7c-2.2-0.5-4.3-0.6-5.9,1.4s-2.3,1.8-2.8-0.6
	c-0.9-3.9-2.9-6.5-6.8-7.9c-2.9-1.1-3.2-1.4-5.2,1.3C865.2,596.6,864.2,598.5,863.4,600.4z"/>
<path class="st8" d="M863.4,600.4c0.8-0.4,1.3-1.1,1.5-2c0.7-2.1,2-4,3.7-5.3c0.4-0.3,0.8-0.8,1.3-0.1c1,1,2.2,1.7,3.6,2
	c1.8,0.5,3.1,1.9,3.4,3.7c0.3,1.7,0.9,3.2,1.8,4.7c0.9,1.3,1.4,1.3,2,0c1.4-2.9,3.8-3,6.7-2.1c1.6,0.5,2.1,2,2.1,3.5
	c0.2,2.3-1.2,4.4-3.4,5.2c-0.4,0.1-0.7,0.6-0.6,1c0,0,0,0,0,0.1c0.4,2,0.3,4,2,5.5c2-0.4,4,0.3,5.3,1.8c1.4,1.3,3.5,1.4,5,0.4
	c0.4-0.3,1-0.3,1.3,0.1c1.6,1.2,3.9,1.3,5.6,0.2c1.8-1.1,2.3-2.9,2-5c0-0.4-0.2-0.8,0.2-1.1c2.5-1.6,2-3.8,1.3-6
	c-0.4-0.9-0.3-1.9,0.3-2.7c0.9-1.5,0.6-3.2,0-4.7c-0.3-0.7-0.3-1.4,0-2.1c1.3-3-0.1-6.6-3.2-7.9c-0.2-0.1-0.4-0.2-0.6-0.2
	c-0.3-0.1-0.8-0.2-0.8-0.3c-0.3-2.6-3-3.3-4.3-5.2s-2.8-3.5-5.4-2.5c-0.6,0.2-0.7-0.2-1-0.5c-1.8-1.8-3.9-2.6-6.3-1.7
	c-0.8,0.3-1.3-0.3-1.9-0.2c-2.4,0.3-4.2-0.9-6.2-1.8c-2.3-1-4.9-0.8-7,0.7c-0.5,0.3-1.2,0.3-1.7,0c-2.9-1.4-6.3-0.1-7.7,2.8
	c0,0.1-0.1,0.2-0.1,0.3c-0.2,0.4-0.2,0.8-0.8,1c-3.2,1-4.1,3.3-2.5,6.3c0.2,0.4,0.4,0.7,0.7,1c0.8,0.8,1.4,1.4,0.2,2.6
	c-0.8,0.9-0.2,2.2,0.4,3.2c0.3,0.6,0.7,0.9,0,1.7c-0.7,0.7-0.8,1.9-0.3,2.7C860.7,600.4,862.1,600.9,863.4,600.4z"/>
<path class="st2" d="M884.7,823.5c0.8,0.3,0.4,1,0.3,1.5c-1.1,7.6-2.2,6.7-3.2,14.3h20.3c-2.1-9.8-4.2-11.1-6.3-20.9
	c-0.1-0.6-0.1-1.2-0.1-1.9c-0.5-1-1.2-1.9-2-2.7c-1-1.1-1.3-2.7-0.7-4.1c0.9-2.3,0-5-2.1-6.3c-1-0.7-2.1-1.3-3.3-0.8
	s-1.2,1.8-1.2,2.9c0,4.3-0.4,8.6-0.9,12.8C885.2,820.1,884.2,821.7,884.7,823.5z"/>
<path class="st5" d="M884.7,823.5c1.9-5.8,2-11.8,2.3-17.7c0-1-0.5-2.4,0.7-2.8s2.5,0.3,3.4,1.2c1.8,1.4,2.3,4,1.1,5.9
	c-0.8,0.9-0.6,2.3,0.3,3.1l0,0c1.1,1.1,1.5,2.8,3.2,3.2c5.5-4.2,7.2-9.8,6.2-16.4c-0.5-2.6-1.4-5.2-2.6-7.5
	c-2.7-5.9-10.8-8.6-15.6-8.2c-4.1,0.3-8.2,1.1-12.2,2.4c-3.1,1.1-3.6,2.3-2.4,5.3c0.3,0.5,0.5,1,0.8,1.5c1.4,1.8,3.4,2,5.4,1.8
	c3.9-0.3,5.8,2.3,7.8,4.9c0.3,0.3,0.4,0.8,0.4,1.2c-0.3,4.1-0.7,8.2-2.4,12c-1.2,2.6-2.4,3.2-5.2,2.7c-2.3-0.5-4.5-1.2-6.6-2.2
	c-0.9-0.4-1.8-0.8-2.8-0.2c-2.1,1.6-0.3,2.8,0.5,4c0.5,1,1.5,1.4,2.3,2c0.6,0.4,1.5,0.7,1.3,1.7s-1.1,0.7-1.7,1
	c-0.3,0.1-0.5,0.2-0.7,0.4c-0.3,5.5,0.5,6.2,5.9,5.4C878.1,827.5,881.9,826.6,884.7,823.5z"/>
<path class="st2" d="M866.5,813.7c3,0.4,5.6,2.2,8.6,2.8c4,0.8,5.6,0.1,7-3.7s1.6-7.5,2.1-11.3c0-0.6-0.1-1.1-0.5-1.5
	c-2.2-3.1-4.5-5.8-8.9-5.2c-1.7,0.1-3.4-0.4-4.8-1.3c-2.6,4.7-3,9.8-3.4,15C866.5,810.2,866.6,811.9,866.5,813.7z"/>
<path class="st2" d="M868.3,822.7c1.1-0.3,2.8,0.3,3.1-1.1s-1.3-2.1-2.4-2.8c-0.6-0.4-1.3-0.8-2-1.2
	C867.2,819.4,867.6,821.1,868.3,822.7z"/>
<path class="st2" d="M867.2,379.3c-3.7,3.8-3.8,8.8-4.3,13.5c-0.6,4.8-0.2,9.7,1.3,14.3c1.5,4.5,3.3,5.5,7.8,4.2
	c2.4-0.7,4.7-1.9,7.6-3c-1,7.5-2,7.6-3,14.6H895c-1.5-7.4-3.1-7.9-4.6-15.3c0.3-0.6,0.1-1.3-0.3-1.8c-4.4-4.6-7.4-10.3-12.1-14.6
	c-3-2.9-5.7-6.2-8-9.7C869.2,380.6,869,379,867.2,379.3z"/>
<path class="st9" d="M892.7,407c5.7-0.5,9.3-3.3,11-8.9c3.5-11.7,0.7-19.1-10-24.8c-1.7-0.9-3.1-2.1-4.3-3.6c-2-2.3-4.7-3.5-7.6-1.3
	c-0.6,3.7,0.8,7.1,1.6,10.5c2.2,8.8,4.9,17.4,7.9,25.9C891.4,405.7,891.9,406.5,892.7,407z"/>
<path class="st10" d="M892.7,407c-2.6-8.5-5.1-17-7.7-25.5c-1.3-4.3-1.5-8.9-3.3-13.1c-0.2-0.1-0.4,0-0.5,0.1
	c-2.1,0.4-1.6,2-1.4,3.2c1.4,6.6,3.4,13.1,5.9,19.3c-2.7-6.3-4.5-12.9-6.8-19.4c-0.5-1.3-0.5-2.8-1.7-3.7l-2.2,0.7
	c-1.1,1.5-0.2,3,0.3,4.3c2.9,7.8,5.5,15.6,8.9,21.5c-4.2-7.2-7.8-14.8-10.8-22.7c-0.4-1.1-0.7-2.6-2.5-2.4l-1.4,0.3
	c-1.2,1.9,0.2,3.4,0.8,5c3.9,10,9.3,19.4,16,27.8C888,404.4,889.3,407.3,892.7,407L892.7,407z"/>
<path class="st11" d="M892.7,407c-4.7-1.7-6.7-6.1-9.2-9.7c-5.9-8.5-10.6-17.9-13.9-27.7c-3.6,0.6-4.8,2.3-3.9,5.5
	c0.4,1.4,1,2.8,1.5,4.2c6.8,10.2,15.7,18.6,23,28.3C891.1,407.5,892,407.7,892.7,407z"/>
<path class="st12" d="M871,369.3c2.1,2.4,2.6,5.4,3.7,8.2c3,7.2,6.7,14.1,11.3,20.5c-3.7-9.8-8.2-19.3-11.1-29.4
	C873.4,367.5,872.1,367.5,871,369.3z"/>
<path class="st13" d="M877.2,367.9c1,6.8,3.9,13,6.3,19.4c0.7,1.8,1.6,3.5,2.8,5c-1.2-4.2-2.4-8.4-3.5-12.6c-0.7-2.7-1.4-5.4-2.1-8
	c-0.3-1.1-0.6-2.2,0.5-3.1C879.8,368.2,878.8,366.7,877.2,367.9z"/>
<circle class="st14" cx="839.6" cy="414.1" r="8.9"/>
<polyline class="st14" points="835.1,415.3 837.6,417.8 844.5,410.9 "/>
<polygon class="st15" points="837.7,419.2 834.4,416 835.8,414.6 837.7,416.4 843.8,410.2 845.3,411.6 "/>
<circle class="st14" cx="839.6" cy="623.3" r="8.9"/>
<polyline class="st14" points="835.1,624.5 837.6,627 844.5,620.1 "/>
<polygon class="st15" points="837.7,628.5 834.4,625.2 835.8,623.8 837.7,625.6 843.8,619.4 845.3,620.8 "/>
<circle class="st14" cx="839.6" cy="830.3" r="8.9"/>
<polyline class="st14" points="835.1,831.5 837.6,834.1 844.5,827.2 "/>
<polygon class="st15" points="837.7,835.5 834.4,832.3 835.8,830.8 837.7,832.6 843.8,826.5 845.3,827.9 "/>
<path class="st5" d="M716.1,365.3h-6.6c-1.5-0.1-2.9,0.3-4.1,1.2c-1,0.9-1.6,2.3-1.5,3.7v15.4c0,0.3,0.1,0.6,0.2,0.9l0.1,0.2
	l0.1,0.1c0.3,0.4,0.9,0.7,1.4,0.6c0.3,0,0.6-0.1,0.8-0.2l6.2-3.5l6.2,3.5c0.3,0.1,0.6,0.2,0.9,0.2c0.5,0,1-0.2,1.3-0.5
	c0.3-0.4,0.5-0.8,0.5-1.3V370C721.7,367,719.7,365.3,716.1,365.3z M720.1,385.6c0,0.1-0.1,0.2-0.2,0.2l0,0h-0.1l-6.2-3.5l0,0
	c-0.5-0.3-1-0.3-1.5,0l-6.2,3.5h-0.1c-0.1,0-0.2,0-0.2-0.1v-0.1l0,0v-15.5c0-2.2,1.3-3.3,4-3.3h6.6c2.6,0,4,1,4,3.1L720.1,385.6z"/>
<path class="st5" d="M716.1,571.2h-6.6c-1.5-0.1-2.9,0.3-4.1,1.2c-1,0.9-1.6,2.3-1.5,3.7v15.4c0,0.3,0.1,0.6,0.2,0.9l0.1,0.2
	l0.1,0.1c0.3,0.4,0.9,0.6,1.4,0.7c0.3,0,0.6-0.1,0.8-0.2l6.2-3.5l6.2,3.5c0.3,0.1,0.6,0.2,0.9,0.2c0.5,0,1-0.2,1.3-0.5
	c0.3-0.4,0.5-0.8,0.5-1.3V576C721.7,572.9,719.7,571.2,716.1,571.2z M720.1,591.5c0,0.1-0.1,0.2-0.2,0.2l0,0h-0.1l-6.2-3.5l0,0
	c-0.5-0.3-1-0.3-1.5,0l-6.2,3.5h-0.1c-0.1,0-0.2,0-0.2-0.1v-0.1l0,0V576c0-2.2,1.3-3.3,4-3.3h6.6c2.6,0,4,1,4,3.1L720.1,591.5z"/>
<path class="st5" d="M716.1,781.5h-6.6c-1.5-0.1-2.9,0.3-4.1,1.2c-1,0.9-1.6,2.3-1.5,3.7v15.4c0,0.3,0.1,0.6,0.2,0.9l0.1,0.2
	l0.1,0.1c0.3,0.4,0.9,0.7,1.4,0.7c0.3,0,0.6-0.1,0.8-0.2l6.2-3.5l6.2,3.5c0.3,0.1,0.6,0.2,0.9,0.2c0.5,0,0.9-0.2,1.3-0.5
	c0.3-0.4,0.5-0.8,0.5-1.3v-15.6C721.7,783.3,719.7,781.5,716.1,781.5z M720.1,801.8c0,0.1,0,0.1-0.1,0.2c0,0-0.1,0.1-0.2,0.1h-0.1
	l-6.2-3.5l0,0c-0.5-0.3-1-0.3-1.5,0l-6.2,3.5h-0.1c-0.1,0-0.2-0.1-0.2-0.1v-0.1l0,0v-15.5c0-2.2,1.3-3.3,4-3.3h6.6c2.6,0,4,1,4,3.1
	V801.8z"/>
<rect x="690.7" y="497.1" class="st16" width="358.7" height="42.1"/>
<g id="Iconly_Two-tone_Heart">
	<g id="Heart-5">
		<path id="Path_33961-2" class="st5" d="M869.7,528.4c-2.5-1.5-4.9-3.2-7-5.2c-1.5-1.4-2.6-3.1-3.3-5.1c-1.3-3.7,0.2-8,4.3-9.2
			c2.2-0.7,4.5-0.3,6.3,1l0,0c1.8-1.3,4.2-1.7,6.3-1c4.1,1.3,5.6,5.5,4.3,9.2c-0.7,1.9-1.9,3.6-3.3,5c-2.1,2-4.5,3.7-7,5.2l-0.3,0.2
			L869.7,528.4z"/>
	</g>
</g>
<rect x="690.7" y="705.2" class="st16" width="358.7" height="42.1"/>
<g id="Iconly_Two-tone_Heart-2">
	<g id="Heart-5-2">
		<path id="Path_33961-2-2" class="st5" d="M869.7,736.5c-2.5-1.5-4.9-3.2-7-5.2c-1.5-1.4-2.6-3.1-3.3-5.1c-1.3-3.7,0.2-7.9,4.3-9.2
			c2.2-0.7,4.5-0.3,6.3,1l0,0c1.8-1.3,4.2-1.7,6.3-1c4.1,1.3,5.6,5.5,4.3,9.2c-0.7,1.9-1.9,3.7-3.3,5.1c-2.1,2-4.5,3.7-7,5.2
			l-0.3,0.2L869.7,736.5z"/>
	</g>
</g>
<rect x="690.7" y="913.4" class="st16" width="358.7" height="42.1"/>
<g id="Iconly_Two-tone_Heart-3">
	<g id="Heart-5-3">
		<path id="Path_33961-2-3" class="st5" d="M869.7,944.6c-2.5-1.5-4.9-3.2-7-5.2c-1.5-1.4-2.6-3.1-3.3-5c-1.3-3.7,0.2-8,4.3-9.2
			c2.2-0.7,4.5-0.3,6.3,1l0,0c1.8-1.3,4.2-1.7,6.3-1c4.1,1.3,5.6,5.5,4.3,9.2c-0.7,1.9-1.9,3.7-3.3,5.1c-2.1,2-4.5,3.7-7,5.2
			l-0.3,0.2L869.7,944.6z"/>
	</g>
</g>
<image style="overflow:visible;opacity:0.6;enable-background:new    ;" width="518" height="431" xlink:href="9E66EDDB.png"  transform="matrix(1 0 0 1 196 136.71)">
</image>
<rect x="316.1" y="255.8" class="st4" width="277.8" height="190.3"/>
<rect x="316.1" y="255.8" class="st16" width="277.8" height="53.3"/>
<image style="overflow:visible;opacity:0.6;enable-background:new    ;" width="519" height="651" xlink:href="9E66EDDC.png"  transform="matrix(1 0 0 1 0 383.71)">
</image>
<rect x="120.7" y="502.9" class="st4" width="277.8" height="410.5"/>
<path class="st2" d="M480.9,310.8c5.9,5.9,5.9,13.8,6.8,21.2c1,7.6,0.3,15.3-2,22.5c-2.3,7-5.2,8.7-12.2,6.6
	c-3.8-1.1-7.4-2.9-11.9-4.8c1.6,11.7,3.2,11.9,4.7,23h-28.8c2.4-11.7,4.8-12.4,7.3-24.1c-0.4-0.9-0.2-2,0.5-2.8
	c7-7.2,11.6-16.2,19-23c4.7-4.6,8.9-9.7,12.5-15.3C477.8,312.8,478.1,310.3,480.9,310.8z"/>
<path class="st9" d="M440.9,354.4c-8.9-0.7-14.6-5.1-17.2-14c-5.5-18.4-1-29.9,15.7-39c2.6-1.4,4.9-3.3,6.8-5.6
	c3.1-3.7,7.3-5.5,12-2c0.9,5.8-1.2,11.1-2.6,16.5c-3.5,13.8-7.6,27.4-12.4,40.8C442.9,352.4,442.1,353.6,440.9,354.4z"/>
<path class="st10" d="M440.9,354.4c4-13.3,8-26.7,12.1-40c2.1-6.8,2.4-14,5.2-20.6c0.3-0.1,0.6-0.1,0.8,0.1c3.4,0.5,2.6,3.1,2.2,5
	c-2.2,10.4-5.3,20.5-9.3,30.3c4.2-9.9,7.1-20.3,10.7-30.5c0.7-2,0.8-4.4,2.7-5.9l3.5,1.2c1.8,2.4,0.3,4.7-0.5,6.8
	c-4.5,12.2-8.6,24.5-14,33.7c5.7-10.1,12.2-22.4,16.9-35.7c0.6-1.7,1.1-4,3.9-3.8l2.2,0.5c1.8,2.9-0.2,5.3-1.2,7.8
	c-6.1,15.8-14.6,30.5-25.2,43.7C448.3,350.1,446.3,354.7,440.9,354.4L440.9,354.4z"/>
<path class="st11" d="M440.9,354.4c7.4-2.6,10.5-9.5,14.4-15.3c9.3-13.4,16.6-28.1,21.8-43.6c5.6,0.9,7.6,3.7,6.1,8.7
	c-0.7,2.2-1.5,4.4-2.3,6.6c-10.7,16-24.7,29.2-36.2,44.5C443.4,355.1,442,355.5,440.9,354.4z"/>
<path class="st12" d="M474.9,295.1c-3.3,3.7-4.1,8.5-5.8,12.9c-4.5,11.5-10.8,22-17.8,32.1c5.8-15.4,12.9-30.3,17.4-46.1
	C471.1,292.4,473.3,292.4,474.9,295.1z"/>
<path class="st13" d="M465.2,292.9c-1.6,10.7-6.1,20.5-9.9,30.5c-1,2.8-2.5,5.5-4.4,7.9c1.8-6.6,3.7-13.2,5.5-19.8
	c1.1-4.2,2.2-8.5,3.4-12.6c0.5-1.8,0.9-3.5-0.7-4.9C461,293.4,462.8,291,465.2,292.9z"/>
<path class="st5" d="M350.1,411c-0.8,0-1.5-0.6-1.5-1.4l0,0c0-0.4,0.1-0.7,0.4-1s0.6-0.4,1-0.4s0.7,0.1,1,0.4s0.4,0.6,0.4,1
	s-0.2,0.7-0.4,1C350.9,410.8,350.5,411,350.1,411z M348.9,397.8h2.4l-0.3,8.9h-1.9L348.9,397.8z"/>
<path class="st5" d="M353.7,406.9l1.4-0.9l4.7,2.4c0.1,0,0.2,0.1,0.3,0.1c0.1,0,0.1-0.1,0.2-0.2c0.2-0.4,0.3-0.8,0.4-1.3
	c0.1-0.3,0-0.7-0.1-1s-0.3-0.6-0.6-0.7c-0.2-0.1-0.4-0.2-0.7-0.1c-0.2,0-0.5,0.1-0.6,0.3c-0.2,0.2-0.4,0.4-0.5,0.7l-1,2l-1.7-1
	l1.3-2.5c0.2-0.5,0.6-0.9,1-1.2c0.9-0.6,2.1-0.6,3-0.1c0.6,0.3,1.1,0.8,1.4,1.4c0.3,0.7,0.5,1.4,0.4,2.2c0,0.8-0.3,1.6-0.6,2.3
	c-0.2,0.4-0.5,0.7-0.8,0.9c-0.3,0.2-0.7,0.4-1.1,0.4s-0.8-0.1-1.2-0.3l-3-1.5l0.2,7.2l-2,0.1L353.7,406.9z M364,410.4
	c-0.6,0-1.3-0.1-1.8-0.5c-0.5-0.3-0.9-0.8-1.1-1.3c-0.3-0.6-0.4-1.3-0.4-2h1.7c0,0.3,0.1,0.6,0.2,0.8c0.1,0.2,0.3,0.4,0.5,0.5
	c0.3,0.1,0.6,0.2,0.9,0.2L364,410.4L364,410.4z"/>
<path class="st5" d="M363.8,408.1h15c0.4,0,0.8-0.1,1.1-0.3c0.2-0.2,0.3-0.5,0.3-0.8l-0.2-2.3l2-0.2l0.2,2.3c0.1,0.6,0,1.3-0.3,1.9
	c-0.3,0.5-0.7,1-1.2,1.3c-0.6,0.3-1.3,0.5-1.9,0.5h-15V408.1z M376,401.6l1.4-1.4l1.4,1.4l-1.4,1.4L376,401.6z M379.6,401.6l1.4-1.4
	l1.4,1.4L381,403L379.6,401.6z M383.6,410.4c-0.9,0-1.7-0.3-2.4-0.9c-0.6-0.7-1-1.6-1-2.5l2-0.2c0,0.3,0.1,0.5,0.2,0.8
	c0.1,0.2,0.2,0.3,0.4,0.4c0.3,0.1,0.5,0.1,0.8,0.1V410.4z"/>
<path class="st5" d="M383.4,408.1h12.4c0.4,0.1,0.8-0.1,1.1-0.3c0.2-0.2,0.3-0.5,0.3-0.8v-2.3h1.9v2.3c0,0.6-0.1,1.1-0.4,1.6
	s-0.6,1-1.1,1.3c-0.5,0.4-1.1,0.5-1.8,0.5h-12.4V408.1z M400.4,410.4c-0.6,0-1.2-0.2-1.6-0.5c-0.5-0.3-0.8-0.8-1.1-1.3
	c-0.3-0.5-0.4-1.1-0.4-1.6h1.8c0,0.3,0.1,0.6,0.3,0.8c0.3,0.2,0.6,0.4,1,0.3h0.2c0.3,0,0.5-0.1,0.8-0.2c0.2-0.1,0.3-0.2,0.4-0.4
	c0.1-0.2,0.1-0.4,0.1-0.5v-2.3h1.9v2.3c0,0.6-0.1,1.1-0.4,1.6c-0.2,0.5-0.6,1-1.1,1.3C401.7,410.3,401,410.5,400.4,410.4
	L400.4,410.4z M405.1,410.4c-0.6,0-1.2-0.2-1.7-0.5s-0.9-0.8-1.2-1.3c-0.3-0.5-0.4-1-0.4-1.6h1.9c0,0.3,0.1,0.6,0.3,0.8
	c0.3,0.2,0.6,0.4,1,0.3c0.3,0,0.6,0,0.9-0.2c0.2-0.1,0.3-0.2,0.4-0.4c0.1-0.2,0.1-0.4,0-0.6l-0.6-2.3l1.9-0.5l0.6,2.3
	c0.2,0.6,0.2,1.3,0,1.9s-0.6,1.1-1.1,1.5C406.5,410.3,405.8,410.5,405.1,410.4z M410.2,410.4c-0.9,0-1.8-0.3-2.4-0.9
	c-0.7-0.6-1.2-1.5-1.4-2.4l1.7-0.7c0.1,0.5,0.4,0.9,0.7,1.2c0.4,0.3,0.9,0.5,1.3,0.5L410.2,410.4L410.2,410.4z"/>
<path class="st5" d="M410,408.1h14.8c0.4,0,0.7,0,1.1-0.2c0.3-0.1,0.5-0.3,0.5-0.6c0.1-0.4,0.1-0.8,0-1.2l-0.7-2.8l2-0.6l0.8,2.9
	c0.3,0.8,0.3,1.7,0,2.5c-0.2,0.7-0.7,1.3-1.4,1.6c-0.7,0.4-1.5,0.6-2.3,0.6H410V408.1z M421.8,413.1l1.4-1.4l1.4,1.4l-1.4,1.4
	L421.8,413.1z M425.3,413.1l1.4-1.4l1.4,1.4l-1.4,1.4L425.3,413.1z"/>
<path class="st5" d="M429.5,413l0.3-0.1l0.3-0.1c0.6-0.2,1.3-0.4,1.9-0.6c0.4-0.2,0.7-0.4,0.9-0.7c0.2-0.4,0.3-0.8,0.2-1.3l-0.8-5.4
	l2-0.3l0.7,5.4c0.2,0.8,0.1,1.7-0.3,2.5c-0.3,0.7-0.8,1.2-1.5,1.5c-0.8,0.5-1.7,0.8-2.6,1.1c-0.1,0-0.2,0.1-0.4,0.1l-0.4,0.1
	L429.5,413z M430.1,401.8l1.4-1.4l1.4,1.4l-1.4,1.4L430.1,401.8z M432.1,399.2l1.2-1.2l1.2,1.2l-1.2,1.2L432.1,399.2z M435.8,410.5
	c-0.6,0-1.1-0.1-1.6-0.4c-0.5-0.4-0.8-0.9-1-1.4c-0.3-0.9-0.5-1.9-0.6-2.8v-0.3l1.9-0.3v0.1c0.1,0.6,0.2,1.3,0.3,1.9
	c0,0.3,0.2,0.5,0.4,0.8c0.2,0.1,0.4,0.2,0.6,0.2h0.2v2.3L435.8,410.5z M433.7,401.8l1.4-1.4l1.4,1.4l-1.4,1.4L433.7,401.8z
	 M435.8,408.2h1.3v2.3h-1.3V408.2z"/>
<path class="st5" d="M437,408.1h14.8c0.4,0,0.7,0,1.1-0.2c0.3-0.1,0.5-0.3,0.5-0.6c0.1-0.4,0.1-0.8,0-1.2l-0.7-2.8l2-0.6l0.8,2.9
	c0.3,0.8,0.3,1.7,0,2.5c-0.2,0.7-0.7,1.3-1.3,1.6c-0.7,0.4-1.5,0.6-2.3,0.6H437V408.1z M449.3,400.1l1.4-1.4l1.4,1.4l-1.4,1.4
	L449.3,400.1z M452.9,400.1l1.4-1.4l1.4,1.4l-1.4,1.4L452.9,400.1z"/>
<path class="st5" d="M457.9,397.8l2-0.1l0.5,12.7l-2,0.1L457.9,397.8z"/>
<path class="st5" d="M461.1,413l0.3-0.1l0.3-0.1c0.6-0.2,1.3-0.4,1.9-0.6c0.4-0.1,0.7-0.4,0.9-0.7c0.2-0.4,0.3-0.8,0.2-1.3l-0.8-5.4
	l2-0.3l0.8,5.4c0.2,0.8,0.1,1.7-0.3,2.5c-0.3,0.7-0.8,1.2-1.5,1.5c-0.8,0.5-1.7,0.8-2.6,1.1c-0.1,0-0.3,0.1-0.4,0.1l-0.4,0.1
	L461.1,413z M467.4,410.5c-0.6,0-1.1-0.1-1.6-0.4c-0.5-0.4-0.8-0.9-1-1.4c-0.3-0.9-0.5-1.9-0.6-2.8v-0.3l1.9-0.3v0.1
	c0.1,0.6,0.2,1.3,0.3,1.9c0.1,0.3,0.2,0.5,0.4,0.8c0.2,0.1,0.4,0.2,0.6,0.2h0.1L467.4,410.5L467.4,410.5z"/>
<path class="st5" d="M467.3,408.1h15c0.4,0,0.8-0.1,1.1-0.3c0.2-0.2,0.3-0.5,0.3-0.8l-0.2-2.3l2-0.2l0.2,2.3c0.1,0.6,0,1.3-0.3,1.9
	c-0.3,0.5-0.7,1-1.2,1.3c-0.6,0.3-1.3,0.5-1.9,0.5h-15V408.1z M479.5,401.6l1.4-1.4l1.4,1.4l-1.4,1.4L479.5,401.6z M483,401.6
	l1.4-1.4l1.4,1.4l-1.4,1.4L483,401.6z M487,410.4c-0.9,0-1.7-0.3-2.4-0.9c-0.6-0.7-1-1.6-1-2.5l2-0.2c0,0.3,0.1,0.5,0.2,0.8
	c0.1,0.2,0.2,0.3,0.4,0.4c0.3,0.1,0.5,0.1,0.8,0.1V410.4z"/>
<path class="st5" d="M486.9,408.1h12.8c0.4,0.1,0.8-0.1,1.1-0.3c0.2-0.2,0.3-0.5,0.3-0.8v-2.3h1.9v2.3c0,0.6-0.1,1.1-0.4,1.6
	c-0.2,0.5-0.6,1-1.1,1.3c-0.5,0.4-1.2,0.5-1.8,0.5h-12.8V408.1z M504.3,410.4c-0.6,0-1.2-0.2-1.7-0.5s-0.9-0.8-1.1-1.3
	s-0.4-1.1-0.4-1.6h1.9c0,0.3,0.1,0.6,0.3,0.8c0.3,0.2,0.6,0.3,1,0.3h0.2c0.5,0.1,1.1-0.2,1.2-0.8c0-0.1,0-0.3,0-0.4v-2.3h1.9v2.3
	c0,0.6-0.1,1.1-0.3,1.6c-0.2,0.5-0.6,1-1.1,1.3C505.6,410.3,504.9,410.5,504.3,410.4z M508.9,410.4c-1.2,0-2.3-0.7-2.8-1.8
	c-0.3-0.5-0.4-1.1-0.4-1.7h1.9c0,0.3,0.1,0.6,0.3,0.9c0.3,0.2,0.6,0.3,1,0.3c0.3,0,0.6,0,0.9-0.2c0.2-0.1,0.4-0.3,0.5-0.6
	c0.1-0.4,0.1-0.8-0.1-1.2l-0.8-2.8l2-0.6l0.8,2.8c0.3,0.8,0.3,1.7,0.1,2.5c-0.2,0.7-0.6,1.3-1.2,1.7
	C510.3,410.3,509.6,410.5,508.9,410.4z"/>
<path class="st5" d="M514.7,397.8l2-0.1l0.5,12.7l-2,0.1L514.7,397.8z"/>
<path class="st5" d="M530.3,414.8c-1.4,0.4-3,0.3-4.3-0.5c-1.2-0.8-2-2-2.1-3.4c-0.3-1.8-0.1-3.6,0.6-5.3l2,0.8
	c-0.5,1.2-0.7,2.4-0.6,3.7c0,0.9,0.5,1.7,1.2,2.2c0.9,0.4,1.9,0.5,2.8,0.2h0.3l0.2-0.1c0.6-0.1,1.2-0.3,1.7-0.5
	c0.3-0.1,0.6-0.4,0.8-0.7c0.1-0.4,0.2-0.8,0.1-1.3c-0.1-0.4-0.3-2.1-0.8-5.1l2-0.3c0.4,2.9,0.7,4.6,0.8,5.1c0.1,0.8,0.1,1.7-0.2,2.5
	c-0.3,0.6-0.7,1.2-1.3,1.5c-0.8,0.5-1.6,0.8-2.5,1l-0.3,0.1L530.3,414.8z M527.6,404.5l1.6-1.6l1.6,1.6l-1.6,1.6L527.6,404.5z
	 M535.9,410.4c-0.6,0-1.2-0.2-1.7-0.6c-0.6-0.5-1-1.1-1.2-1.8c-0.4-1-0.6-2-0.8-3.1c0,0,0,0,0-0.1c0,0,0,0,0-0.1l2-0.3
	c0,0.2,0,0.3,0.1,0.5c0.1,0.7,0.2,1.3,0.4,2c0.1,0.3,0.2,0.6,0.4,0.9c0.2,0.2,0.5,0.3,0.7,0.2h0.5v2.3L535.9,410.4z"/>
<path class="st5" d="M536.2,408.1h12.2c0.3,0,0.6-0.1,0.9-0.2c0.3-0.1,0.5-0.3,0.6-0.6l1.4-2.6c0.2-0.5,0.6-0.9,1.1-1.2
	c0.4-0.3,0.9-0.4,1.5-0.5c0.5,0,1,0.1,1.5,0.4c0.6,0.3,1.1,0.8,1.3,1.5c0.3,0.7,0.5,1.4,0.4,2.1c0,0.8-0.3,1.6-0.7,2.3
	c-0.2,0.4-0.5,0.7-0.8,0.9c-0.3,0.2-0.7,0.4-1.1,0.4c-0.4,0-0.8-0.1-1.2-0.3l-2.9-1.5l1-1.9l3.1,1.6c0,0,0.1,0.1,0.2,0.1
	c0.1,0,0.1,0,0.1-0.1l0.1-0.1c0.2-0.4,0.4-0.8,0.4-1.2c0.1-0.4,0.1-0.7-0.1-1.1c-0.1-0.3-0.3-0.6-0.6-0.7c-0.2-0.1-0.4-0.2-0.7-0.1
	c-0.2,0-0.5,0.1-0.6,0.3c-0.2,0.2-0.4,0.4-0.5,0.7l-1.1,2.1c-0.3,0.6-0.8,1.2-1.4,1.6c-0.6,0.4-1.2,0.6-1.9,0.6h-12.2V408.1z"/>
<path class="st5" d="M444.7,732.7c-1.5,0.5-3.2,0.3-4.5-0.5c-1.2-0.8-2.1-2.1-2.3-3.6c-0.3-1.9-0.1-3.8,0.6-5.6l2.1,0.8
	c-0.5,1.2-0.7,2.6-0.6,3.9c0,0.9,0.5,1.8,1.3,2.3c0.9,0.5,2,0.5,3,0.2l0.3-0.1c0.1,0,0.2,0,0.3-0.1c0.6-0.1,1.2-0.3,1.8-0.5
	c0.4-0.1,0.7-0.4,0.9-0.7c0.2-0.4,0.2-0.9,0.1-1.4s-0.3-2.3-0.8-5.4l2.1-0.4c0.5,3,0.7,4.8,0.8,5.4c0.2,0.9,0.1,1.8-0.2,2.6
	c-0.3,0.7-0.8,1.3-1.4,1.7c-0.8,0.5-1.7,0.8-2.6,1l-0.4,0.1L444.7,732.7z M451.3,728c-0.6,0-1.2-0.2-1.6-0.5
	c-0.5-0.3-0.9-0.8-1.2-1.3c-0.3-0.6-0.6-1.2-0.7-1.9l1.5-0.6v0.1c0,0.4,0.2,0.7,0.4,1.1c0.2,0.2,0.4,0.4,0.7,0.5
	c0.3,0.1,0.7,0.2,1,0.2h0.1h0.1c0.4,0,0.7-0.1,1-0.4c0.2-0.2,0.3-0.5,0.3-0.8v-2.5h2v2.5c0,0.6-0.1,1.2-0.4,1.7
	c-0.3,0.6-0.7,1-1.2,1.4C452.6,727.8,452,728,451.3,728L451.3,728z M456.3,728c-0.7,0-1.4-0.2-1.9-0.5s-0.9-0.8-1.2-1.4
	c-0.2-0.5-0.4-1.1-0.4-1.7h2c0,0.3,0.1,0.6,0.3,0.8c0.3,0.3,0.6,0.4,1,0.3c0.3,0,0.7,0,1-0.2c0.4-0.1,0.6-0.6,0.5-1l-0.6-2.5l2-0.6
	l0.6,2.4c0.2,0.7,0.2,1.4,0,2.1c-0.2,0.6-0.6,1.2-1.2,1.6C457.8,727.8,457,728,456.3,728L456.3,728z M461.8,728c-1,0-1.9-0.3-2.6-1
	s-1.2-1.6-1.4-2.5l1.8-0.7c0.1,0.5,0.4,1,0.8,1.3s0.9,0.5,1.4,0.5L461.8,728L461.8,728z"/>
<path class="st5" d="M461.6,725.6h15.6c0.4,0,0.8,0,1.2-0.2c0.3-0.1,0.5-0.3,0.6-0.6c0.1-0.4,0.1-0.8,0-1.2l-0.8-2.9l2.1-0.6l0.8,3
	c0.3,0.8,0.3,1.8,0,2.6c-0.3,0.7-0.8,1.3-1.4,1.7c-0.7,0.4-1.5,0.6-2.4,0.6h-15.6v-2.4H461.6z M474,730.9l1.5-1.5l1.5,1.5l-1.5,1.5
	L474,730.9z M477.8,730.9l1.5-1.5l1.5,1.5l-1.5,1.5L477.8,730.9z"/>
<path class="st5" d="M484.2,730.7c0.1,0,0.2-0.1,0.3-0.1c1.5-0.3,2.6-0.6,3.3-0.8c0.5-0.1,0.9-0.4,1.3-0.7c0.2-0.4,0.3-0.9,0.2-1.4
	l-0.3-3.2c0-0.6-0.2-1.2-0.6-1.7c-0.3-0.4-0.8-0.6-1.3-0.5c-0.3,0-0.6,0.1-0.9,0.3c-0.2,0.2-0.4,0.5-0.5,0.7c-0.1,0.3-0.2,0.7-0.1,1
	c0,0.3,0.1,0.7,0.4,0.9s0.7,0.3,1.1,0.3h5.4v2.4H487c-0.9,0-1.8-0.3-2.5-0.9c-0.7-0.7-1.1-1.6-1.1-2.5c0-0.7,0.1-1.5,0.4-2.2
	s0.7-1.3,1.3-1.7c0.6-0.5,1.3-0.7,2-0.7s1.4,0.1,2,0.5s1.1,0.9,1.5,1.6c0.4,0.7,0.6,1.5,0.7,2.3l0.3,3.2c0.2,0.9,0,1.9-0.4,2.8
	c-0.4,0.7-1.1,1.3-1.9,1.6c-1.3,0.5-2.7,0.9-4.1,1.2h-0.1H485L484.2,730.7z"/>
<path class="st5" d="M492.2,725.6h13.9c0.4,0,0.8-0.1,1.2-0.3c0.2-0.2,0.3-0.5,0.3-0.8l-0.2-2.4l2.2-0.2l0.2,2.4
	c0.1,0.7,0,1.4-0.3,2s-0.7,1-1.3,1.3c-0.6,0.3-1.3,0.5-2,0.5h-13.9L492.2,725.6z M505.4,718.7l1.7-1.7l1.7,1.7l-1.7,1.7L505.4,718.7
	z M511.1,728c-0.9,0.1-1.9-0.3-2.6-0.9c-0.7-0.7-1-1.7-1.1-2.6l2.2-0.2c0,0.3,0.1,0.6,0.2,0.8s0.2,0.3,0.4,0.4
	c0.3,0.1,0.6,0.1,0.8,0.1v2.4H511.1z"/>
<path class="st5" d="M510.9,725.6h14.2c0.4,0,0.8,0,1.2-0.2c0.3-0.1,0.5-0.3,0.6-0.6c0.1-0.4,0.1-0.8-0.1-1.2l-0.8-2.9l2.1-0.6
	l0.8,2.9c0.3,0.9,0.3,1.8,0,2.7c-0.2,0.7-0.7,1.4-1.4,1.8c-0.7,0.4-1.6,0.6-2.4,0.6h-14.2L510.9,725.6L510.9,725.6z M523.9,730.9
	l1.7-1.7l1.7,1.7l-1.7,1.7L523.9,730.9z"/>
<path class="st5" d="M539.6,726.5c-0.5,0.1-1,0-1.5-0.2s-1-0.5-1.3-0.9c-0.4-0.4-0.7-0.9-0.8-1.4c-0.2-0.6-0.2-1.3-0.1-1.9
	c0.1-0.6,0.4-1.2,0.8-1.7c0.4-0.5,0.9-0.8,1.5-1l3.4-1.1l0.7,2.2l-3.4,1.2c-0.3,0.1-0.6,0.3-0.8,0.6s-0.2,0.6-0.1,0.9
	c0.2,0.6,0.8,1.1,1.4,1l2.5-0.4l0.4,2.4l-1.6,0.3L539.6,726.5z M545.1,728c-0.7,0-1.5-0.2-2.1-0.6c-1.3-0.8-2.1-2.2-2.1-3.7v-6h2.1
	v6c0,0.3,0.1,0.7,0.3,0.9c0.2,0.3,0.4,0.5,0.7,0.7s0.7,0.3,1,0.3h0.4v2.4L545.1,728z"/>
<path class="st5" d="M545.2,725.6h12.7v2.4h-12.7V725.6z M557.9,725.6h0.5c0.3,0,0.6,0,0.9-0.2c0.2-0.1,0.3-0.2,0.4-0.4
	c0.1-0.2,0.1-0.4,0.1-0.6l-0.4-9.8l2.2-0.1l0.4,9.8c0,0.6-0.1,1.3-0.4,1.8c-0.3,0.6-0.7,1-1.2,1.4c-0.6,0.4-1.3,0.5-2,0.5h-0.5
	V725.6z"/>
<path class="st5" d="M568.4,728c-0.7,0-1.5-0.1-2.2-0.4c-0.5-0.3-1-0.8-1.2-1.3c-0.3-0.8-0.4-1.7-0.5-2.5l-0.4-9.1l2.2-0.1l0.3,9.2
	v0.3c0,0.3,0.1,0.7,0.2,1c0.1,0.2,0.2,0.4,0.4,0.4c0.3,0.1,0.7,0.1,1,0.1h0.2v2.5l0,0V728z"/>
<path class="st5" d="M568.4,725.6h12.7v2.4h-12.7V725.6z M581,725.6h1c1.5,0,3-0.3,4.4-0.8c0.7-0.3,1-0.5,1.2-0.8l0.1-0.7
	c0-0.3,0-0.5-0.1-0.8s-0.3-0.5-0.5-0.6c-0.2-0.2-0.5-0.3-0.8-0.3c-0.6-0.1-1.1,0.2-1.4,0.6c-0.2,0.2-0.3,0.5-0.3,0.7l-0.1,0.8
	c0.2,0.3,0.5,0.6,0.9,0.8c0.5,0.3,1.1,0.5,1.8,0.7c0.9,0.2,1.8,0.3,2.7,0.3h1.2v2.4h-1.2c-1.2,0-2.4-0.2-3.5-0.6
	c-1.1-0.4-2-0.9-2.9-1.6c-0.7-0.5-1.1-1.2-1.1-2l0.1-1.2c0.1-0.7,0.3-1.3,0.7-1.8s0.9-0.9,1.5-1.2s1.3-0.4,1.9-0.3
	c0.6,0.1,1.3,0.3,1.8,0.7s0.9,0.9,1.2,1.5s0.4,1.2,0.3,1.9l-0.1,0.9c-0.1,0.8-0.6,1.4-1.3,1.8c-0.9,0.6-1.9,1.1-3,1.4
	c-1.1,0.3-2.2,0.5-3.4,0.5h-1L581,725.6z M582.9,716l1.5-1.5l1.5,1.5l-1.5,1.5L582.9,716z M586.7,716l1.5-1.5l1.5,1.5l-1.5,1.5
	L586.7,716z"/>
<path class="st5" d="M590.7,725.6h12.9c0.3,0,0.7-0.1,1-0.2c0.3-0.1,0.5-0.4,0.7-0.7l1.5-2.8c0.3-0.5,0.6-1,1.1-1.3s1-0.5,1.5-0.5
	c0.6,0,1.1,0.1,1.6,0.4c0.6,0.3,1.1,0.9,1.4,1.5c0.3,0.7,0.5,1.5,0.4,2.3c0,0.8-0.3,1.7-0.7,2.4c-0.2,0.4-0.5,0.7-0.8,1
	c-0.4,0.3-0.8,0.4-1.2,0.4s-0.9-0.1-1.3-0.3l-3.1-1.6l1-2.1l3.3,1.7c0.1,0,0.1,0.1,0.2,0.1c0,0,0.1,0,0.2,0l0.1-0.1
	c0.2-0.4,0.4-0.9,0.5-1.3c0.1-0.4,0.1-0.8-0.1-1.1c-0.1-0.3-0.3-0.6-0.6-0.8c-0.2-0.1-0.5-0.2-0.7-0.1c-0.2,0-0.5,0.1-0.7,0.3
	s-0.4,0.4-0.6,0.7l-1.2,2.3c-0.3,0.7-0.9,1.3-1.5,1.7s-1.3,0.6-2,0.6h-12.9L590.7,725.6L590.7,725.6z"/>
<ellipse transform="matrix(0.1602 -0.9871 0.9871 0.1602 68.4121 814.2088)" class="st14" cx="512.7" cy="366.9" rx="11.1" ry="11.1"/>
<polyline class="st14" points="507.2,368.4 510.3,371.6 519,362.9 "/>
<polygon class="st15" points="510.3,373 506.5,369.1 507.9,367.7 510.3,370.2 518.3,362.2 519.7,363.6 "/>
<image style="overflow:visible;opacity:0.1;enable-background:new    ;" width="459" height="841" xlink:href="9E66EDDD.png"  transform="matrix(1 0 0 1 1055 166.71)">
</image>
<rect x="1146" y="255.8" class="st4" width="277.9" height="660.1"/>
<rect x="1200.4" y="415.8" class="st2" width="169.1" height="0.5"/>
<rect x="1200.4" y="581.7" class="st2" width="169.1" height="0.5"/>
<rect x="1200.4" y="757.9" class="st2" width="169.1" height="0.5"/>
<path class="st17" d="M566.5,0h607c21.1,0,38.3,17.1,38.3,38.3l0,0c0,21.1-17.1,38.3-38.3,38.3h-607c-21.1,0-38.3-17.1-38.3-38.3
	l0,0C528.3,17.1,545.4,0,566.5,0z"/>
<g id="Iconly_Light-outline_Search-2">
	<g id="Search-6-2">
		<path id="Search-7-2" class="st5" d="M587.8,60.4l-0.2-0.2l-7.1-6.9c-3.9,3-8.6,4.7-13.5,4.7c-11.8,0.1-21.5-9.4-21.7-21.2
			c0.3-12,10.2-21.5,22.1-21.2c11.6,0.2,21,9.6,21.2,21.2c0,5.3-2,10.4-5.7,14.3l7,6.8c0.6,0.6,0.6,1.6,0,2.3l0,0
			C589.4,60.8,588.5,60.8,587.8,60.4L587.8,60.4z M548.7,36.8c0.2,10.1,8.6,18.2,18.8,17.9c9.8-0.2,17.7-8.1,17.9-17.9
			c-0.2-10.1-8.6-18.2-18.8-17.9C556.8,19.1,548.9,27,548.7,36.8z"/>
	</g>
</g>
<path class="st5" d="M647.7,45.4c-0.5,0-1-0.2-1.3-0.5s-0.5-0.8-0.5-1.3s0.2-0.9,0.5-1.3c0.3-0.3,0.8-0.5,1.3-0.5s0.9,0.2,1.3,0.5
	c0.3,0.3,0.5,0.8,0.5,1.3s-0.2,0.9-0.5,1.3C648.6,45.3,648.1,45.4,647.7,45.4z M646.2,29.1h3l-0.3,11h-2.3L646.2,29.1z"/>
<path class="st5" d="M660.2,50.2c-1.8,0.5-3.7,0.3-5.3-0.6c-1.5-0.9-2.4-2.5-2.7-4.2c-0.3-2.2-0.1-4.5,0.7-6.5l2.4,1
	c-0.6,1.5-0.8,3-0.8,4.6c0,1.1,0.6,2.1,1.5,2.7c1.1,0.6,2.3,0.7,3.5,0.3h0.2c0.1,0,0.2,0,0.2-0.1c0.7-0.2,1.4-0.4,2.2-0.6
	c0.4-0.1,0.7-0.4,1-0.7c0.2-0.4,0.3-0.8,0.2-1.2c0-0.3-0.4-0.5-1-0.8c-0.8-0.3-1.6-0.6-2.4-0.8l0.8-2.7h0.1c1.1,0.5,2.2,1.1,3.2,1.8
	c1,0.5,1.7,1.4,1.9,2.4c0.1,0.8,0,1.7-0.4,2.5c-0.4,0.7-1,1.3-1.7,1.7c-1,0.5-2,0.9-3.1,1.2l-0.3,0.1L660.2,50.2z M667.3,44.7
	c-0.6,0-1.3,0-1.9-0.1c-0.6-0.1-1.1-0.2-1.7-0.3c-0.6-0.2-1.4-0.4-2.4-0.7l-0.6-0.2l-0.7-0.2l0.8-2.7h0.1h0.1c1.8,0.5,3.2,0.9,4,1.1
	c0.7,0.2,1.5,0.3,2.2,0.3L667.3,44.7z"/>
<path class="st5" d="M667,41.8h32.8c0.5,0,0.9-0.1,1.4-0.2c0.3-0.1,0.6-0.4,0.7-0.7c0.1-0.5,0.1-1-0.1-1.5l-0.9-3.5l2.5-0.7l0.9,3.4
	c0.3,1,0.3,2.1,0,3.1c-0.3,0.9-0.8,1.6-1.6,2.1c-0.9,0.5-1.8,0.8-2.8,0.7H667V41.8z M698.4,32l2-2l2,2l-2,2L698.4,32z"/>
<path class="st5" d="M705.7,30.1c0-0.6,0.2-1.3,0.7-1.7c0.5-0.4,1.2-0.5,1.8-0.4l2.3,0.4c0.3,0.1,0.5,0,0.8-0.1
	c0.2-0.1,0.3-0.3,0.3-0.5v-0.1l1.3-0.1v0.5c0,0.6-0.2,1.3-0.7,1.7c-0.5,0.4-1.2,0.5-1.8,0.4l-2.3-0.4c-0.3-0.1-0.5,0-0.8,0.1
	c-0.2,0.1-0.3,0.3-0.3,0.5v0.1l-1.3,0.1V30.1z M707.9,31.4l2.5-0.1l0.5,13.4l-2.5,0.1L707.9,31.4z"/>
<path class="st5" d="M722,44.8c-1,0-1.8-0.8-1.8-1.8l0,0c0-0.5,0.2-0.9,0.5-1.3c0.3-0.3,0.8-0.5,1.3-0.5s0.9,0.2,1.3,0.5
	c0.3,0.3,0.5,0.8,0.5,1.3s-0.2,0.9-0.5,1.3C722.9,44.6,722.5,44.8,722,44.8z M720.4,42.3l1.6-3.8l1.3,0.6l-1.7,3.8L720.4,42.3z"/>
<path class="st5" d="M735,50.2c-1.8,0.5-3.7,0.3-5.3-0.6c-1.5-0.9-2.4-2.5-2.7-4.2c-0.3-2.2-0.1-4.5,0.7-6.5l2.4,1
	c-0.6,1.5-0.9,3-0.8,4.6c0.1,1.1,0.6,2.1,1.6,2.6c1.1,0.6,2.3,0.7,3.5,0.3h0.2c0.1,0,0.2,0,0.2-0.1c0.7-0.2,1.4-0.4,2.2-0.6
	c0.4-0.1,0.7-0.4,1-0.7c0.2-0.4,0.3-0.8,0.2-1.2c0-0.3-0.4-0.5-1-0.8c-0.8-0.3-1.6-0.6-2.4-0.8l0.8-2.7h0.1c1.1,0.5,2.2,1.1,3.2,1.8
	c0.9,0.5,1.6,1.4,1.9,2.4c0.1,0.8,0,1.7-0.4,2.5c-0.4,0.7-1,1.3-1.7,1.7c-1,0.6-2,1-3.1,1.2l-0.3,0.1H735z M742.1,44.7
	c-0.6,0-1.3,0-1.9-0.1c-0.6-0.1-1.1-0.2-1.7-0.3c-0.6-0.2-1.4-0.4-2.4-0.7l-0.6-0.2l-0.7-0.2l0.8-2.7h0.1h0.1c1.8,0.5,3.2,0.9,4,1.1
	c0.7,0.2,1.5,0.3,2.2,0.3L742.1,44.7z"/>
<path class="st5" d="M741.8,41.8h32.8c0.5,0,0.9-0.1,1.4-0.2c0.3-0.1,0.6-0.4,0.7-0.7c0.1-0.5,0.1-1-0.1-1.5l-0.9-3.5l2.5-0.7
	l0.9,3.4c0.3,1,0.3,2.1,0,3.1c-0.3,0.9-0.8,1.6-1.6,2.1c-0.9,0.5-1.8,0.8-2.8,0.7h-32.8v-2.7H741.8z M773.3,32l2-2l2,2l-2,2
	L773.3,32z"/>
<path class="st5" d="M780.5,30.1c0-0.6,0.2-1.3,0.7-1.7c0.5-0.4,1.2-0.5,1.8-0.4l2.3,0.4c0.3,0.1,0.5,0,0.8-0.1
	c0.2-0.1,0.3-0.3,0.3-0.5v-0.1l1.3-0.1v0.5c0,0.6-0.2,1.3-0.7,1.7c-0.5,0.4-1.2,0.5-1.8,0.4l-2.3-0.4c-0.3-0.1-0.5,0-0.8,0.1
	c-0.2,0.1-0.3,0.3-0.3,0.5v0.1l-1.3,0.1V30.1z M782.7,31.4l2.5-0.1l0.5,13.4l-2.5,0.1L782.7,31.4z"/>
<path class="st5" d="M802.3,50.2c-1.8,0.5-3.7,0.3-5.3-0.6c-1.5-0.9-2.4-2.5-2.7-4.2c-0.3-2.2-0.1-4.5,0.7-6.5l2.4,1
	c-0.6,1.5-0.8,3-0.8,4.6c0,1.1,0.6,2.1,1.5,2.7c1.1,0.5,2.3,0.6,3.5,0.3c0.1,0,0.2-0.1,0.3-0.1l0.3-0.1c0.7-0.2,1.4-0.4,2.1-0.7
	c0.4-0.2,0.8-0.5,1-0.9c0.2-0.5,0.3-1.1,0.2-1.6s-0.4-2.7-0.9-6.3l2.5-0.4c0.5,3.5,0.8,5.6,0.9,6.4c0.2,1,0.1,2.1-0.3,3.1
	c-0.3,0.8-0.9,1.5-1.7,1.9c-1,0.6-2,1-3.1,1.2l-0.4,0.1L802.3,50.2z M799,37.4l2-2l2,2l-2,2L799,37.4z M809.3,44.7
	c-0.8,0-1.5-0.2-2.1-0.7c-0.7-0.6-1.2-1.4-1.5-2.3c-0.5-1.2-0.8-2.5-0.9-3.8v-0.1v-0.1l2.5-0.4c0,0.2,0.1,0.4,0.1,0.6
	c0.1,0.8,0.3,1.7,0.5,2.5c0.1,0.4,0.3,0.8,0.5,1.1c0.2,0.2,0.6,0.3,0.9,0.3h0.7v2.8h-0.7V44.7z"/>
<path class="st5" d="M809.6,41.8h34.6c0.5,0,1-0.1,1.4-0.3c0.3-0.2,0.4-0.6,0.3-1l-0.3-2.8l2.5-0.3l0.3,2.8c0.1,0.8,0,1.6-0.4,2.3
	c-0.3,0.7-0.8,1.2-1.5,1.5c-0.7,0.4-1.6,0.6-2.4,0.6h-34.6v-2.8H809.6z M840.1,33.8l1.7-1.8l1.8,1.8l-1.8,1.7L840.1,33.8z
	 M844.6,33.8l1.7-1.8l1.8,1.8l-1.8,1.7L844.6,33.8z M850.1,44.7c-1.1,0.1-2.2-0.3-3-1c-0.8-0.9-1.2-2-1.2-3.1l2.5-0.2
	c0,0.3,0.1,0.6,0.2,0.9c0.1,0.2,0.3,0.4,0.5,0.5c0.3,0.1,0.7,0.1,1,0.1V44.7z"/>
<path class="st5" d="M849.9,41.8h31.4c0.5,0.1,1-0.1,1.4-0.4c0.2-0.3,0.3-0.6,0.3-1v-2.9h2.4v2.9c0,0.7-0.2,1.4-0.5,2
	c-0.3,0.7-0.8,1.2-1.4,1.6c-0.6,0.4-1.4,0.7-2.2,0.7h-31.4V41.8z M887,44.7c-0.7,0-1.4-0.2-2-0.6c-0.6-0.4-1.1-0.9-1.4-1.6
	c-0.3-0.6-0.5-1.3-0.5-2h2.3c0,0.4,0.2,0.7,0.4,1c0.3,0.3,0.8,0.4,1.2,0.4h0.2c0.3,0,0.7-0.1,1-0.2c0.2-0.1,0.3-0.3,0.4-0.5
	c0.1-0.2,0.1-0.4,0.1-0.7v-2.9h2.2v2.9c0,0.7-0.1,1.4-0.4,2C889.9,43.8,888.5,44.7,887,44.7z M892.8,44.7c-0.8,0-1.5-0.2-2.1-0.6
	c-1.2-0.8-1.9-2.1-2-3.6h2.3c0,0.4,0.2,0.7,0.4,1c0.3,0.3,0.7,0.4,1.2,0.4c0.4,0,0.8-0.1,1.2-0.2c0.2-0.1,0.4-0.3,0.5-0.5
	s0.1-0.5,0-0.7l-0.7-2.8l2.3-0.7l0.8,2.8c0.2,0.8,0.2,1.6,0,2.4c-0.3,0.7-0.7,1.4-1.4,1.8C894.5,44.5,893.7,44.8,892.8,44.7
	L892.8,44.7z M899.2,44.7c-1.1,0-2.2-0.4-3-1.1c-0.9-0.8-1.5-1.8-1.7-3l2.2-0.8c0.1,0.6,0.4,1.1,0.9,1.5s1.1,0.6,1.7,0.6L899.2,44.7
	z"/>
<path class="st5" d="M899,41.8h31.3c1.3,0,2.4,0,3.4-0.1s1.9-0.2,2.8-0.5l5.6-1.4l-0.1,0.7l-4.9-2.6l0,0c-0.4-0.2-0.8-0.3-1.2-0.3
	s-0.8,0.1-1.2,0.3s-0.7,0.5-0.9,0.9l-0.4,0.7l-2.2-1.4l0.5-0.8c0.4-0.8,1.1-1.5,1.8-2s1.5-0.7,2.4-0.7s1.7,0.2,2.5,0.7l5.9,3.4
	l-0.4,3.3l-6.8,1.8c-1.1,0.3-2.1,0.5-3.2,0.5c-1.1,0.1-2.3,0.1-3.6,0.1H899V41.8z M935.3,47.9l2-2l2,2l-2,2L935.3,47.9z"/>
<path class="st5" d="M950.8,47.9l0.4-0.1l0.4-0.1c0.8-0.2,1.6-0.4,2.3-0.8c1-0.3,1.6-1.4,1.3-2.5l-0.9-6.6l2.5-0.4l0.9,6.7
	c0.2,1,0.1,2-0.3,3c-0.4,0.8-1,1.5-1.8,1.9c-1,0.6-2.1,1-3.3,1.3c-0.2,0.1-0.3,0.1-0.5,0.2l-0.5,0.1L950.8,47.9z"/>
<path class="st5" d="M964.5,44.7c-0.7,0-1.4-0.1-2.1-0.4c-0.6-0.2-1-0.6-1.4-1.1c-0.3-0.4-0.5-1-0.5-1.5c0-0.2,0-0.4,0-0.7
	s0-0.5,0-0.8h2.3c0,0.2,0,0.3,0,0.5s0,0.3,0,0.5l0,0c0,0.2,0.2,0.4,0.4,0.5c0.3,0.1,0.6,0.1,0.9,0.1h2.3c0.5,0.1,1-0.1,1.5-0.4
	c0.2-0.3,0.3-0.7,0.1-1.1c-0.4-1-0.8-2-1.4-2.9c-0.7-1.2-1.4-2.3-2.2-3.4l2.1-1.7c0.9,1.2,1.8,2.5,2.5,3.9c0.7,1.1,1.1,2.2,1.5,3.4
	c0.2,0.8,0.2,1.7-0.1,2.5s-0.8,1.4-1.5,1.9c-0.9,0.5-1.8,0.7-2.8,0.7H964.5z"/>
<path class="st5" d="M982.8,43c-0.6,0.1-1.2,0-1.8-0.3c-0.6-0.2-1.1-0.6-1.6-1.1c-0.4-0.5-0.8-1-1-1.6c-0.2-0.7-0.3-1.5-0.1-2.2
	s0.5-1.4,1-2s1.1-1,1.8-1.2l4-1.3l0.8,2.5l-4,1.4c-0.4,0.1-0.7,0.4-0.9,0.8c-0.2,0.3-0.2,0.7-0.1,1.1c0.1,0.4,0.3,0.7,0.6,0.9
	s0.7,0.3,1.1,0.3l3-0.5l0.4,2.8l-1.8,0.3L982.8,43z M989.2,44.7c-0.9,0-1.7-0.2-2.5-0.7c-0.7-0.4-1.4-1.1-1.8-1.8
	c-0.4-0.8-0.6-1.6-0.6-2.5v-7h2.5v7c0,0.4,0.1,0.8,0.3,1.1s0.5,0.6,0.9,0.8s0.8,0.3,1.2,0.3h0.4v2.8L989.2,44.7z"/>
<path class="st5" d="M989.4,41.8h31.1v2.9h-31.1V41.8z M1020.3,41.8h5c0.1,0,0.3,0,0.4,0c0.5-0.1,0.8-0.6,0.7-1.1
	c0-0.2-0.1-0.4-0.2-0.5l-5.1-7.2l0.6-2.1l8.3-3.1l0.9,2.7l-7.2,2.6l0.2-0.7l4.2,6.2c0.4,0.6,0.6,1.2,0.8,1.8c0.1,0.6,0.1,1.2,0,1.7
	s-0.4,1-0.7,1.4c-0.3,0.4-0.7,0.7-1.2,0.9s-1.1,0.3-1.7,0.3h-5L1020.3,41.8z"/>
<path class="st5" d="M1036.9,47.9l0.4-0.1l0.4-0.1c0.8-0.2,1.6-0.4,2.3-0.8c0.5-0.2,0.8-0.5,1.1-0.9c0.2-0.5,0.3-1.1,0.2-1.6
	l-0.9-6.6l2.5-0.4l0.9,6.7c0.2,1,0.1,2.1-0.3,3c-0.4,0.8-1,1.5-1.8,1.9c-1,0.6-2.1,1-3.3,1.3c-0.2,0.1-0.3,0.1-0.5,0.2l-0.5,0.1
	L1036.9,47.9z M1039.5,33.5l2-2l2,2l-2,2L1039.5,33.5z M1044.7,44.7c-0.7,0-1.4-0.2-2-0.5c-0.6-0.4-1-1.1-1.2-1.8
	c-0.4-1.1-0.6-2.3-0.8-3.5v-0.4l2.4-0.4v0.1c0.1,0.8,0.2,1.6,0.4,2.4c0.1,0.4,0.2,0.7,0.4,1c0.2,0.2,0.5,0.3,0.8,0.2h0.1v2.9H1044.7
	z"/>
<path class="st5" d="M1044.6,41.8h34.6c0.5,0,1-0.1,1.4-0.3c0.3-0.2,0.4-0.6,0.3-1l-0.3-2.8l2.5-0.3l0.3,2.8c0.1,0.8,0,1.6-0.4,2.3
	c-0.3,0.7-0.8,1.2-1.5,1.5c-0.7,0.4-1.6,0.6-2.4,0.6h-34.6L1044.6,41.8L1044.6,41.8z M1075.1,48.1l1.7-1.8l1.8,1.8l-1.8,1.7
	L1075.1,48.1z M1079.6,48.1l1.7-1.8l1.8,1.8l-1.8,1.7L1079.6,48.1z M1085.1,44.7c-1.1,0.1-2.2-0.3-3-1c-0.8-0.9-1.2-2-1.2-3.1
	l2.5-0.2c0,0.3,0.1,0.6,0.2,0.9c0.1,0.2,0.3,0.4,0.5,0.5c0.3,0.1,0.7,0.1,1,0.1V44.7z"/>
<path class="st5" d="M1084.9,41.8h31.3c1.3,0,2.4,0,3.4-0.1s1.9-0.2,2.9-0.5l5.6-1.4l-0.1,0.7l-4.9-2.6l0,0
	c-0.4-0.2-0.8-0.3-1.2-0.3c-0.4,0-0.8,0.1-1.2,0.3c-0.4,0.2-0.7,0.5-0.9,0.9l-0.4,0.7l-2.2-1.4l0.5-0.8c0.4-0.8,1.1-1.5,1.8-2
	c0.7-0.5,1.5-0.7,2.4-0.7s1.8,0.2,2.5,0.7l5.8,3.4l-0.4,3.3l-6.8,1.8c-1,0.3-2.1,0.5-3.2,0.5c-1.1,0.1-2.3,0.1-3.6,0.1h-31.4
	L1084.9,41.8z M1119,48l1.7-1.8l1.8,1.8l-1.8,1.7L1119,48z M1121.5,51.2l1.4-1.4l1.5,1.4l-1.5,1.5L1121.5,51.2z M1123.4,48l1.8-1.8
	l1.7,1.8l-1.7,1.7L1123.4,48z"/>
<path class="st5" d="M1130.4,47.9l0.4-0.1l0.4-0.1c0.8-0.2,1.6-0.4,2.3-0.8c1-0.3,1.6-1.4,1.3-2.5l-0.9-6.6l2.5-0.4l0.9,6.7
	c0.2,1,0.1,2-0.3,3c-0.4,0.8-1,1.5-1.8,1.9c-1,0.6-2.1,1-3.3,1.3c-0.2,0.1-0.3,0.1-0.5,0.2l-0.5,0.1L1130.4,47.9z M1138.2,44.7
	c-0.7,0-1.4-0.2-2-0.5c-0.6-0.4-1-1.1-1.2-1.7c-0.4-1.1-0.6-2.3-0.8-3.5v-0.4l2.4-0.4v0.1c0.1,0.8,0.2,1.6,0.4,2.4
	c0.1,0.4,0.2,0.7,0.4,1c0.2,0.2,0.5,0.3,0.8,0.2h0.1v2.8L1138.2,44.7z"/>
<path class="st5" d="M1172.6,42.6c-0.7-0.3-1.3-0.8-1.7-1.4c-0.4-0.6-0.7-1.4-0.8-2.1c-0.1-0.8,0.1-1.6,0.4-2.3s0.8-1.3,1.5-1.7
	c0.6-0.4,1.3-0.7,2-0.8s1.5,0.1,2.2,0.4c0.7,0.3,1.3,0.8,1.7,1.5c0.9,1.3,1,3,0.3,4.5c-0.6,1.3-1.7,2.4-3,3
	c-1.5,0.8-3.2,1.1-4.8,1.1h-32.3v-2.9h32.3c1,0,1.9-0.1,2.8-0.3c0.6-0.1,1.2-0.4,1.7-0.8c0.4-0.4,0.8-0.8,1-1.3
	c0.2-0.4,0.2-0.8,0.1-1.3c-0.1-0.4-0.4-0.8-0.8-1c-0.3-0.1-0.6-0.2-0.9-0.2s-0.6,0.1-0.8,0.2c-0.2,0.1-0.4,0.4-0.5,0.6
	c-0.2,0.4-0.3,0.8-0.1,1.3c0.1,0.4,0.4,0.8,0.9,1l4.9,2.4c0.4,0.2,0.8,0.2,1.2,0.1c0.4-0.1,0.7-0.4,0.9-0.8c0.2-0.4,0.2-0.8,0-1.2
	c-0.1-0.4-0.5-0.8-0.9-0.9l-8.2-4.3l1.2-2.5l8.2,4.3c0.7,0.3,1.2,0.9,1.6,1.5s0.6,1.3,0.7,2.1c0.1,0.7-0.1,1.5-0.4,2.2
	s-0.8,1.2-1.4,1.7c-0.6,0.4-1.2,0.7-1.9,0.7c-0.7,0.1-1.4-0.1-2.1-0.4L1172.6,42.6z"/>
<rect x="1412.9" y="618.4" class="st18" width="11" height="102.8"/>
<rect x="1412.9" y="787.7" class="st18" width="11" height="102.8"/>
<rect x="1412.9" y="449.2" class="st18" width="11" height="102.8"/>
<circle class="st18" cx="1310" cy="688" r="10.2"/>
<polygon class="st15" points="1307.8,693.8 1304.2,690.2 1305.6,688.8 1307.8,690.9 1315,683.7 1316.4,685.1 "/>
<g class="st19">
	<path class="st2" d="M1337.7,647.7c-3.5,6.6-3.7,13.6-3.3,20.8c0.1,2.7,0.7,5.4,1.7,7.9c1.3,3,2.7,3.7,6,3.2s6.1-2.1,9.3-3.7
		c-0.5,3.4-0.9,6.5-1.3,9.7c-0.5,3.8-1.1,7.7-1.7,11.5c-0.1,0.8,0.1,1,0.9,1c5.6,0,11.2,0,16.8,0c1.4,0,0.7-0.9,0.6-1.4
		c-1.9-9.1-3.9-18.2-5.8-27.3c0-0.4-0.2-0.7-0.5-1c-0.9-0.9-0.8-1.7-0.2-2.7c2.5-4,0.5-7.5-4.3-7.6c-0.8,0-1.7-0.4-2.2-1
		c-0.6-0.7-1.4-1.3-2.3-1.8c-0.7-0.3-1.5-0.5-1.3-1.4s0.4-2.2,1.7-2.6c1.2-0.3,2.4-0.5,3.7-0.4c1.3,0,2.6-0.2,3.8-0.5
		c0.4-0.1,0.8-0.3,0.7-0.8s-0.4-0.6-0.8-0.7c-0.6-0.1-1.2-0.2-1.7-0.2c-6.2,0.1-12.3-0.2-18.4-1.1
		C1338.6,647.4,1338.1,647.2,1337.7,647.7z"/>
	<path class="st20" d="M1337.7,647.7c7.3,1.5,14.8,1.4,22.2,1.7c-0.9,0.8-2.1,0.7-3.2,0.8s-2,0.1-2.9,0.2c-3.3,0.3-3.7,0.8-4.4,4
		c-0.2,0.7,0,0.9,0.7,1c0.4,0,0.8,0.1,1.1,0.3c2.2,1.5,4.1,3.1,7.2,3.3c2.5,0.1,3.2,3.8,1.6,6.2s-1.4,2.5,0.9,4.2
		c1.4-0.4,2.6-1.3,3.3-2.5c3-3.9,4.5-8.8,4.4-13.8s-3.2-9.5-7.8-11.3c-5.7-2.6-12.2-2.7-18-0.4c-2.5,0.7-4.5,2.8-5.2,5.3
		C1337.4,647,1337.2,647.4,1337.7,647.7z"/>
</g>
<rect x="1191.1" y="646.2" class="st21" width="92.2" height="51.2"/>
<g class="st19">
	<path class="st5" d="M1218.7,679.6c-1.1,0.3-2.2,0.2-3.2-0.4c-0.9-0.6-1.5-1.5-1.6-2.5c-0.2-1.3-0.1-2.6,0.4-3.9l1.9,0.8
		c-0.3,0.7-0.4,1.5-0.4,2.3c0,0.5,0.3,1,0.7,1.3c0.5,0.3,1.1,0.3,1.7,0.1h0.2h0.2c0.4-0.1,0.7-0.2,1.1-0.3c0.2-0.1,0.3-0.2,0.4-0.4
		s0.1-0.4,0-0.6c0-0.3-0.2-1.5-0.5-3.5l2-0.3c0.3,1.9,0.5,3.1,0.5,3.5c0.1,0.6,0.1,1.2-0.1,1.8c-0.2,0.5-0.5,0.9-0.9,1.2
		c-0.6,0.4-1.2,0.6-1.8,0.8l-0.3,0.1L1218.7,679.6z M1216.4,671.9l1.4-1.4l1.4,1.4l-1.4,1.4L1216.4,671.9z M1222.5,676.6
		c-0.5,0-0.9-0.2-1.3-0.5c-0.4-0.4-0.8-0.8-1-1.4c-0.3-0.7-0.5-1.5-0.6-2.2l0,0c0,0,0,0,0-0.1l2-0.3c0,0.1,0,0.2,0,0.3
		c0.1,0.6,0.2,1,0.2,1.3c0,0.2,0.1,0.3,0.2,0.5c0.1,0.1,0.2,0.1,0.3,0.1h0.3L1222.5,676.6L1222.5,676.6z"/>
	<path class="st5" d="M1222.7,674.3h2.9c0.1,0,0.1,0,0.2,0h0.1v-0.1v-0.1c0,0,0-0.1-0.1-0.1l-2.8-4l0.5-1.7l4.6-1.7l0.7,2.1
		l-3.6,1.3l0.2-0.6l2.1,3.1c0.2,0.4,0.4,0.7,0.5,1.2c0.1,0.3,0.1,0.7,0.1,1.1c0,0.3-0.1,0.6-0.3,0.9c-0.2,0.3-0.5,0.5-0.8,0.7
		c-0.4,0.2-0.8,0.2-1.2,0.2h-2.9L1222.7,674.3z M1222.7,674.3L1222.7,674.3v2.3l0,0V674.3z"/>
	<path class="st5" d="M1237.1,679.6c-1,0.3-2.2,0.2-3.1-0.3c-0.9-0.6-1.5-1.5-1.6-2.5c-0.2-1.3-0.1-2.6,0.4-3.9l1.9,0.8
		c-0.3,0.7-0.4,1.5-0.4,2.3c0,0.5,0.3,1,0.7,1.3c0.5,0.3,1.1,0.3,1.7,0.1l0.2-0.1h0.2c0.3-0.1,0.7-0.2,1-0.3
		c0.2-0.1,0.3-0.2,0.4-0.4s0.1-0.5,0.1-0.7l-0.3-8.3l2-0.1l0.3,8.2c0,0.6,0,1.2-0.2,1.8c-0.2,0.5-0.5,0.9-0.9,1.2
		c-0.5,0.4-1.1,0.6-1.7,0.8L1237.1,679.6z"/>
	<path class="st5" d="M1245.3,676.6c-0.5,0-1.1-0.1-1.6-0.3c-0.4-0.2-0.7-0.6-0.9-1c-0.2-0.6-0.3-1.2-0.3-1.8l-0.2-5.9l2-0.1l0.2,6
		v0.1c0,0.2,0,0.3,0,0.5c0,0.1,0.1,0.1,0.2,0.2c0.2,0,0.4,0,0.5,0h0.1L1245.3,676.6L1245.3,676.6z"/>
	<path class="st5" d="M1245.3,674.3h0.8c0.2,0,0.4,0,0.5-0.1c0.1,0,0.1-0.1,0.1-0.3l-0.1-1.6l2-0.2l0.2,1.6c0.1,0.5,0,1-0.2,1.5
		c-0.2,0.4-0.5,0.8-0.9,1c-0.5,0.2-1,0.4-1.5,0.4h-0.8L1245.3,674.3z M1245.9,678.5l1.4-1.4l1.4,1.4l-1.4,1.4L1245.9,678.5z
		 M1249.3,676.6c-0.7,0-1.4-0.2-1.9-0.7s-0.8-1.2-0.8-1.9l2-0.2c0,0.1,0,0.2,0.1,0.3c0,0.1,0.1,0.1,0.2,0.1s0.3,0,0.4,0
		L1249.3,676.6z"/>
	<path class="st5" d="M1249.2,674.3h1c0.2,0,0.4,0,0.6-0.1c0.1,0,0.2-0.1,0.2-0.3s0-0.4-0.1-0.5l-0.5-1.9l2-0.6l0.5,1.9
		c0.2,0.6,0.2,1.3,0,1.9c-0.2,0.6-0.5,1-1,1.3s-1.2,0.5-1.8,0.5h-1L1249.2,674.3z M1249.5,669l1.4-1.4l1.4,1.4l-1.4,1.4L1249.5,669z
		"/>
	<path class="st5" d="M1256.8,676.6c-0.4,0-0.8-0.1-1.2-0.3c-0.3-0.2-0.6-0.4-0.8-0.8c-0.2-0.3-0.3-0.6-0.3-1v-0.8h1.9v0.4l0,0v0.1
		c0,0,0,0,0.1,0h1.8c0.2,0,0.3,0,0.3-0.1s0-0.2,0-0.3c-0.2-0.5-0.5-1-0.8-1.5c-0.3-0.6-0.7-1.2-1.1-1.8l1.7-1.3
		c0.5,0.7,1,1.4,1.4,2.2c0.4,0.6,0.6,1.3,0.8,2c0.2,0.5,0.2,1.1,0,1.6s-0.5,0.9-0.9,1.2c-0.5,0.3-1,0.4-1.6,0.4L1256.8,676.6z"/>
</g>
<path class="st2" d="M1345.8,861.6c-0.5,3.4-1,6.7-1.5,10.1h18.8l-2.3-10.2c-0.6-0.5-1.3-0.9-2.1-0.9c-4.9-0.8-5.6-1.4-6.1-6.3
	c-0.4-3.9-0.1-7.8-0.2-11.7c0-1.7,0.9-3.3,2.4-4.2c1.8-1.2,2.6-3.5,1.7-5.5c-0.6-2.1-2.6-3.5-4.7-3.4c-5.6,0.2-9.9-2.9-14.1-5.8
	c-4.8-3.4-4.7-3.6-6.5,2c-1.6,6.9-2.9,13.9-1,21c1.8,6.8,5,8.7,11.7,6.4c4-1.4,4.1-1.3,3.6,2.9
	C1345.2,857.8,1344.4,859.8,1345.8,861.6z"/>
<path class="st20" d="M1331.6,825.6l2.1-4.7c3.3,5.4,8.9,6.7,13.7,9.4c1,0.5,2.2,0.6,3.3,0.1c2.1-0.6,4.3,0.5,5,2.7l0,0
	c0.9,2.3-0.1,4-2.2,5.1c-1,0.5-2.1,0.8-2.1,2.4c0,5.2-0.4,10.3,0.3,15.5c0.5,3.8,2.2,5.9,6.3,5.2c0.9-0.1,1.8,0,2.7,0.2
	c4.2-0.1,8.3-0.4,12.4-0.2c2.7,0.1,3.3-0.9,3.2-3.3c-0.1-5.2-1.1-10.1-4.9-13.9c-4.4-4.4-6.1-9.7-6.2-15.8
	c-0.1-8.9-7.1-16.1-16-16.5c-9.4-0.6-16.9,4.7-18.4,13.1C1330.5,825.6,1331,825.7,1331.6,825.6z"/>
<path class="st20" d="M1331.6,825.6l-0.7-0.9c-3.2,10.4-4.8,21.2-4.6,32c0,3.3,1,5.2,5.1,4.9c4.8-0.4,9.6-0.1,14.3,0
	c0.5-3.8,1-7.7,1.6-11.9c-2.7,1.1-5,2.2-7.5,3c-4.7,1.5-6.8,0.4-8.2-4.3C1329.3,840.7,1330.1,833.2,1331.6,825.6z"/>
<rect x="1191.1" y="819.9" class="st16" width="92.2" height="51.2"/>
<path class="st5" d="M1218.7,853.5c-1.1,0.3-2.2,0.2-3.2-0.4c-0.9-0.6-1.5-1.5-1.6-2.5c-0.2-1.3-0.1-2.6,0.4-3.9l1.9,0.8
	c-0.3,0.7-0.4,1.5-0.4,2.3c0,0.5,0.3,1,0.7,1.3c0.5,0.2,1.1,0.3,1.7,0.1h0.2h0.2c0.4-0.1,0.7-0.2,1.1-0.3c0.2-0.1,0.3-0.2,0.4-0.4
	s0.1-0.4,0-0.6c0-0.3-0.2-1.5-0.5-3.5l2-0.3c0.3,1.9,0.5,3.1,0.5,3.5c0.1,0.6,0.1,1.2-0.1,1.8c-0.2,0.5-0.5,0.9-0.9,1.2
	c-0.6,0.4-1.2,0.6-1.8,0.8l-0.3,0.1L1218.7,853.5z M1216.4,845.8l1.4-1.4l1.4,1.4l-1.4,1.4L1216.4,845.8z M1222.5,850.5
	c-0.5,0-0.9-0.2-1.3-0.5c-0.4-0.4-0.8-0.8-1-1.4c-0.3-0.7-0.5-1.5-0.6-2.2l0,0l0,0l2-0.3c0,0.1,0,0.2,0,0.3c0.1,0.6,0.2,1,0.2,1.3
	c0,0.2,0.1,0.3,0.2,0.5c0.1,0.1,0.2,0.1,0.3,0.1h0.3L1222.5,850.5L1222.5,850.5z"/>
<path class="st5" d="M1222.7,848.2h2.9h0.2h0.1v-0.1V848c0,0,0-0.1-0.1-0.1l-2.8-4l0.5-1.7l4.6-1.7l0.7,2.1l-3.7,1.3l0.2-0.6
	l2.1,3.1c0.2,0.4,0.4,0.7,0.5,1.2c0.1,0.3,0.1,0.7,0.1,1.1c0,0.3-0.2,0.6-0.3,0.9c-0.2,0.3-0.5,0.5-0.8,0.7
	c-0.4,0.2-0.8,0.3-1.2,0.3h-2.9L1222.7,848.2z M1222.7,848.2L1222.7,848.2v2.3l0,0V848.2z"/>
<path class="st5" d="M1237.1,853.5c-1,0.3-2.2,0.2-3.1-0.3c-0.9-0.6-1.5-1.5-1.6-2.5c-0.2-1.3-0.1-2.6,0.4-3.9l1.9,0.8
	c-0.3,0.7-0.4,1.5-0.4,2.3c0,0.5,0.3,1,0.7,1.3c0.5,0.3,1.1,0.3,1.7,0.1l0.2-0.1l0.2-0.1c0.3-0.1,0.7-0.2,1-0.3
	c0.2-0.1,0.3-0.2,0.4-0.4s0.1-0.5,0.1-0.7l-0.3-8.3l2-0.1l0.3,8.2c0,0.6,0,1.2-0.2,1.8c-0.2,0.5-0.5,0.9-0.9,1.2
	c-0.5,0.3-1.1,0.6-1.7,0.8L1237.1,853.5z"/>
<path class="st5" d="M1245.3,850.5c-0.5,0-1.1-0.1-1.6-0.3c-0.4-0.2-0.7-0.6-0.9-1c-0.2-0.6-0.3-1.2-0.3-1.8l-0.2-5.9l2-0.1l0.2,6
	v0.1c0,0.2,0,0.3,0,0.5c0,0.1,0.1,0.2,0.2,0.2c0.2,0,0.4,0,0.5,0h0.1L1245.3,850.5L1245.3,850.5z"/>
<path class="st5" d="M1245.3,848.2h0.8c0.2,0,0.4,0,0.5-0.1s0.1-0.2,0.1-0.3l-0.1-1.6l2-0.2l0.2,1.6c0.1,0.5,0,1-0.2,1.5
	c-0.2,0.4-0.5,0.8-0.9,1c-0.5,0.2-1,0.4-1.5,0.4h-0.8L1245.3,848.2z M1245.9,852.4l1.4-1.4l1.4,1.4l-1.4,1.4L1245.9,852.4z
	 M1249.3,850.5c-0.7,0-1.4-0.2-1.9-0.7s-0.8-1.2-0.8-1.9l2-0.2c0,0.1,0,0.2,0.1,0.3c0,0.1,0.1,0.1,0.2,0.1s0.3,0,0.4,0L1249.3,850.5
	z"/>
<path class="st5" d="M1249.2,848.2h1c0.2,0,0.4,0,0.6-0.1c0.1,0,0.2-0.1,0.2-0.3s0-0.4-0.1-0.5l-0.5-1.9l2-0.6l0.5,1.9
	c0.2,0.6,0.2,1.3,0,1.9c-0.2,0.6-0.5,1-1,1.3s-1.1,0.5-1.8,0.5h-1L1249.2,848.2z M1249.5,842.9l1.4-1.4l1.4,1.4l-1.4,1.4
	L1249.5,842.9z"/>
<path class="st5" d="M1256.8,850.5c-0.4,0-0.8-0.1-1.2-0.3c-0.3-0.2-0.6-0.4-0.8-0.8c-0.2-0.3-0.3-0.6-0.3-1v-0.8h1.9v0.4l0,0v0.1
	h0.1h1.8c0.2,0,0.3,0,0.3-0.1s0-0.2,0-0.3c-0.2-0.5-0.5-1-0.8-1.5c-0.3-0.6-0.7-1.2-1.1-1.8l1.7-1.3c0.5,0.7,1,1.4,1.4,2.2
	c0.4,0.6,0.6,1.3,0.8,2c0.2,0.5,0.2,1.1,0,1.6s-0.5,0.9-0.9,1.2c-0.5,0.3-1,0.5-1.6,0.4L1256.8,850.5z"/>
<path class="st20" d="M1358.3,500c0.8,0.7,1.6,1.3,2.4,1.9c1.1,0.8,2.6,0.8,3.7,0c1-0.7,1.4-2,0.9-3.1c-0.1-0.3-0.4-0.8-0.2-0.9
	c2.2-0.4,2.4-2.9,4.3-3.7c1.8-0.7,3.5-1.8,4.7-3.3c0.7-0.9,1.5-2,0.8-3.2s-0.4-1.7,0.5-2.6c2.9-2.9,2-6.6-1.8-8
	c-0.7-0.2-1.4-0.4-2.2-0.6c0.8-1.6,1.5-3.3,1.8-5c0.8-4.7-2.5-7.6-7.1-6.3c-0.9,0.3-1.8,0.7-2.7,1.1c-0.4-0.5-0.2-1.1-0.3-1.6
	c-0.7-5.5-5.2-7.9-10-5.2c-1.7,0.9-2.8,1.2-4.5-0.2c-2.9-2.3-6-1.5-8.1,1.7c-0.7,1.1-1.4,1.6-2.5,0.5c-0.4-0.4-0.9-0.7-1.5-0.9
	c-2.6-1.2-3.9-0.2-3.7,2.5c0,0.6,0.1,1.2,0.2,1.7c0.2,1.6,0.6,3.2-2,3c-0.8,0-1.5,0.6-1.5,1.4c0,0.1,0,0.2,0,0.3
	c0.1,1.1-0.5,1-1.2,0.8s-1.7-0.6-2.3,0.2s0.2,1.7,0.6,2.4c0.5,0.8,1.1,1.6,1.8,2.3c1,1,2.4,1.6,1,3.6c-0.8,1.2,0.8,2.4,3.3,2.6
	c2.5,1.1,4.6-0.1,6.6-1.3c1.5-0.8,3.1-1.4,4.7-1.6c1-0.1,1.4,0.1,1.7,1.1c1,3,1.6,3.5,4.8,3.4c1.6,0,3.2-0.1,4.8-0.4
	c-1.8,0.3-3.6,0.2-5.4,0.8c-1.5,0.5-1.7,1.1-0.9,2.5c0.2,0.3,0.4,0.6,0.7,1c1.6,2.3,1.6,2.3,4,1.1s4.4-0.7,5.6,1.2
	c0.9,1.6,0.6,2.9-1.1,4.2c-0.8,0.6-2.3,0.8-2.1,2C1356.3,497.1,1356.7,498.9,1358.3,500z"/>
<path class="st2" d="M1358.3,500c-0.2-0.4-0.4-0.8-0.6-1.2c-0.5-1-1.3-2.1-1.4-3.1s1.7-1.1,2.4-1.8c1.2-1.1,1.9-2.3,1.3-4
	c-0.4-1.7-1.9-2.9-3.6-3c-0.8-0.1-1.7,0.1-2.4,0.4c-0.9,0.5-2.3,1.6-2.5,1.4c-1-1-1.8-2.1-2.5-3.3c-0.6-0.9,0-1.1,0.8-1.3
	c2.1-0.4,4.2-0.9,6.2-1.5c-1.8,0-3.7,0-5.6,0c-3.2,0-3.9-0.5-4.3-3.7c-0.2-1.2-0.5-1.1-1.5-1c-2.3,0.3-4.6,1.2-6.5,2.5
	c-1.6,0.8-3.4,1.2-5.3,1.1c-1.9,7.1-2.1,14.7-0.4,21.9c0.2,0.8,0.4,1.5,0.7,2.2c1.3,3,2.7,3.8,5.9,3.2s6.1-2,9.3-3.7
	c-0.5,3.5-0.9,6.7-1.4,9.9c-0.5,3.8-1.1,7.5-1.6,11.3c-0.1,0.8,0,1.1,0.8,1.1c5.6,0,11.2,0,16.7,0c1.1,0,0.8-0.6,0.7-1.3
	c-1.7-7.8-3.3-15.5-5-23.3C1358.4,501.8,1357.8,500.9,1358.3,500z"/>
<rect x="1191.1" y="475" class="st16" width="92.2" height="51.2"/>
<g class="st19">
	<path class="st5" d="M1218.7,508.2c-1.1,0.3-2.2,0.2-3.2-0.4c-0.9-0.6-1.5-1.5-1.6-2.5c-0.2-1.3-0.1-2.6,0.4-3.9l1.9,0.8
		c-0.3,0.7-0.4,1.5-0.4,2.3c0,0.5,0.3,1,0.7,1.3c0.5,0.3,1.1,0.3,1.7,0.1h0.2h0.2c0.4-0.1,0.7-0.2,1.1-0.3c0.2-0.1,0.3-0.2,0.4-0.4
		c0.1-0.2,0.1-0.4,0-0.6c0-0.3-0.2-1.5-0.5-3.5l2-0.3c0.3,1.9,0.5,3.1,0.5,3.5c0.1,0.6,0.1,1.2-0.1,1.8c-0.2,0.5-0.5,0.9-0.9,1.2
		c-0.6,0.4-1.2,0.6-1.8,0.8l-0.3,0.1H1218.7z M1216.4,500.5l1.4-1.4l1.4,1.4l-1.4,1.4L1216.4,500.5z M1222.5,505.2
		c-0.5,0-0.9-0.2-1.3-0.5c-0.4-0.4-0.8-0.8-1-1.4c-0.3-0.7-0.5-1.5-0.6-2.2l0,0l0,0l2-0.3c0,0.1,0,0.2,0,0.3c0.1,0.6,0.2,1,0.2,1.3
		c0,0.2,0.1,0.3,0.2,0.5c0.1,0.1,0.2,0.1,0.3,0.1h0.3L1222.5,505.2L1222.5,505.2z"/>
	<path class="st5" d="M1222.7,502.9h2.9h0.2h0.1v-0.1v-0.1c0,0,0-0.1-0.1-0.1l-2.8-4l0.5-1.7l4.6-1.7l0.7,2.1l-3.7,1.3l0.2-0.6
		l2.1,3.1c0.2,0.4,0.4,0.7,0.5,1.2c0.1,0.3,0.1,0.7,0.1,1.1c0,0.3-0.2,0.6-0.3,0.9c-0.2,0.3-0.5,0.5-0.8,0.7
		c-0.4,0.2-0.8,0.2-1.2,0.2h-2.9L1222.7,502.9z M1222.7,502.9L1222.7,502.9v2.3l0,0V502.9z"/>
	<path class="st5" d="M1237.1,508.2c-1,0.3-2.2,0.2-3.1-0.3c-0.9-0.6-1.5-1.5-1.6-2.5c-0.2-1.3-0.1-2.6,0.4-3.9l1.9,0.8
		c-0.3,0.7-0.4,1.5-0.4,2.3c0,0.5,0.3,1,0.7,1.3c0.5,0.3,1.1,0.3,1.7,0.1h0.2l0.2-0.1c0.3-0.1,0.7-0.2,1-0.3
		c0.2-0.1,0.3-0.2,0.4-0.4c0.1-0.2,0.1-0.5,0.1-0.7l-0.3-8.3l2-0.1l0.3,8.2c0,0.6,0,1.2-0.2,1.7s-0.5,0.9-0.9,1.2
		c-0.5,0.4-1.1,0.6-1.7,0.8L1237.1,508.2z"/>
	<path class="st5" d="M1245.3,505.2c-0.5,0-1.1-0.1-1.6-0.3c-0.4-0.2-0.7-0.6-0.9-1c-0.2-0.6-0.3-1.2-0.3-1.8l-0.2-5.9l2-0.1l0.2,6
		v0.1c0,0.2,0,0.3,0,0.5c0,0.1,0.1,0.1,0.2,0.2c0.2,0,0.4,0,0.5,0h0.1L1245.3,505.2L1245.3,505.2z"/>
	<path class="st5" d="M1245.3,502.9h0.8c0.2,0,0.4,0,0.5-0.1c0.1,0,0.1-0.1,0.1-0.3l-0.1-1.6l2-0.2l0.2,1.6c0.1,0.5,0,1-0.2,1.5
		c-0.2,0.4-0.5,0.8-0.9,1c-0.5,0.2-1,0.4-1.5,0.4h-0.8L1245.3,502.9z M1245.9,507.1l1.4-1.4l1.4,1.4l-1.4,1.4L1245.9,507.1z
		 M1249.3,505.2c-0.7,0-1.4-0.2-1.9-0.7s-0.8-1.2-0.8-1.9l2-0.2c0,0.1,0,0.2,0.1,0.4c0,0.1,0.1,0.1,0.2,0.1s0.3,0,0.4,0
		L1249.3,505.2z"/>
	<path class="st5" d="M1249.2,502.9h1c0.2,0,0.4,0,0.6-0.1c0.1,0,0.2-0.1,0.2-0.3c0-0.2,0-0.4-0.1-0.5l-0.5-1.9l2-0.6l0.5,1.9
		c0.2,0.6,0.2,1.3,0,1.9s-0.5,1-1,1.3s-1.2,0.5-1.8,0.5h-1L1249.2,502.9z M1249.5,497.6l1.4-1.4l1.4,1.4l-1.4,1.4L1249.5,497.6z"/>
	<path class="st5" d="M1256.8,505.2c-0.4,0-0.8-0.1-1.2-0.3c-0.3-0.2-0.6-0.4-0.8-0.8c-0.2-0.3-0.3-0.6-0.3-1v-0.8h1.9v0.4l0,0v0.1
		h0.1h1.8c0.2,0,0.3,0,0.3-0.1s0-0.2,0-0.3c-0.2-0.5-0.5-1-0.8-1.5c-0.3-0.6-0.7-1.2-1.1-1.8l1.7-1.4c0.5,0.7,1,1.4,1.4,2.2
		c0.4,0.6,0.6,1.3,0.8,2c0.2,0.5,0.2,1.1,0,1.6s-0.5,0.9-0.9,1.2c-0.5,0.3-1,0.4-1.6,0.4L1256.8,505.2z"/>
</g>
<circle class="st18" cx="1309" cy="343.2" r="10.2"/>
<polygon class="st15" points="1306.8,348.9 1303.2,345.3 1304.6,343.9 1306.8,346.1 1314,338.8 1315.4,340.3 "/>
<path class="st20" d="M1355.3,329.1c1.7-0.3,2.6-1.6,3.4-3c2.4-3.8,3.4-8.2,2.9-12.6c-0.1-1.3,0.1-1.6,1.4-1.6
	c6.4-0.2,11.5-5.5,11.4-11.9c-0.2-6.4-5.5-11.5-11.9-11.4c-5.4,0.1-10,4-11.1,9.3c-0.3,1.7-0.7,2.1-2.6,1.7c-4.4-1.2-9-0.8-13.1,1.1
	c-2.2,1-4.1,2.5-4.6,5.1c-0.7,3.5,0.6,6.1,3.5,8.2c2.4,1.6,4.9,2.9,7.5,4.1c0.8,0.4,1.9,0.2,2.5-0.5c0.8-0.7,1.7-1.2,2.8-1.2
	c2.1-0.2,4,1.3,4.3,3.4c0,0.4,0,0.8,0,1.2c-0.4,1.6,0.2,3.3,1.3,4.4C1354,326.4,1354,328.1,1355.3,329.1z"/>
<path class="st2" d="M1355.3,329.1c-0.5-2-1.5-3.9-3-5.3c-0.6-0.5-0.4-1-0.3-1.7c0.7-2-0.1-4.3-1.9-5.4c-1.9-1.2-4.5-0.9-6,0.8
	c-0.5,0.5-0.8,0.9-1.6,0.5c-2.4-1.1-4.7-2.4-7-3.8c-2.9-2-4.8-4.5-4.4-8.2c-1.7,7.7-3.6,15.3-2.3,23.3c0.3,2.4,0.9,4.8,2,7
	c1.2,2.3,2.6,2.8,5.1,2.4c3.4-0.7,6.7-2,9.7-3.8l-1.4,9.9c-0.5,3.8-1,7.5-1.6,11.3c-0.2,1,0.3,1.1,1,1.1c5.4,0,10.9,0,16.3,0
	c1.3,0,1-0.6,0.9-1.4c-1.8-8.3-3.5-16.5-5.3-24.8C1355.4,330.2,1355.4,329.6,1355.3,329.1z"/>
<rect x="1191.1" y="305.8" class="st16" width="92.2" height="51.2"/>
<path class="st5" d="M1218.7,337.7c-1.1,0.3-2.2,0.2-3.2-0.4c-0.9-0.6-1.5-1.5-1.6-2.5c-0.2-1.3-0.1-2.6,0.4-3.9l1.9,0.8
	c-0.3,0.7-0.4,1.5-0.4,2.3c0,0.5,0.3,1,0.7,1.3c0.5,0.3,1.1,0.3,1.7,0.1h0.2h0.2c0.4-0.1,0.7-0.2,1.1-0.3c0.2-0.1,0.3-0.2,0.4-0.4
	c0.1-0.2,0.1-0.4,0-0.6c0-0.3-0.2-1.5-0.5-3.5l2-0.3c0.3,1.9,0.5,3.1,0.5,3.5c0.1,0.6,0.1,1.2-0.1,1.8c-0.2,0.5-0.5,0.9-0.9,1.2
	c-0.6,0.4-1.2,0.6-1.8,0.8l-0.3,0.1H1218.7z M1216.4,330l1.4-1.4l1.4,1.4l-1.4,1.4L1216.4,330z M1222.5,334.7
	c-0.5,0-0.9-0.2-1.3-0.5c-0.4-0.4-0.8-0.8-1-1.4c-0.3-0.7-0.5-1.5-0.6-2.2v-0.1l0,0l2-0.3c0,0.1,0,0.2,0,0.3c0.1,0.6,0.2,1,0.2,1.3
	c0,0.2,0.1,0.3,0.2,0.5c0.1,0.1,0.2,0.1,0.3,0.1h0.3L1222.5,334.7L1222.5,334.7z"/>
<path class="st5" d="M1222.7,332.4h2.9c0.1,0,0.1,0,0.2,0h0.1v-0.1v-0.1c0,0,0-0.1-0.1-0.1l-2.8-4l0.5-1.7l4.6-1.7l0.7,2.1l-3.7,1.3
	l0.2-0.6l2.1,3.1c0.2,0.4,0.4,0.7,0.5,1.2c0.1,0.3,0.1,0.7,0.1,1.1c0,0.3-0.1,0.6-0.3,0.9c-0.2,0.3-0.5,0.5-0.8,0.7
	c-0.4,0.2-0.8,0.2-1.2,0.2h-2.9L1222.7,332.4z M1222.7,332.4L1222.7,332.4v2.3l0,0V332.4z"/>
<path class="st5" d="M1237.1,337.7c-1,0.3-2.2,0.2-3.1-0.3c-0.9-0.6-1.5-1.5-1.6-2.5c-0.2-1.3-0.1-2.6,0.4-3.9l1.9,0.8
	c-0.3,0.7-0.4,1.5-0.4,2.3c0,0.5,0.3,1,0.7,1.3c0.5,0.3,1.1,0.3,1.7,0.1l0.2-0.1h0.2c0.3-0.1,0.7-0.2,1-0.3c0.2-0.1,0.3-0.2,0.4-0.4
	c0.1-0.2,0.1-0.5,0.1-0.7l-0.3-8.3l2-0.1l0.3,8.2c0,0.6,0,1.2-0.2,1.8c-0.2,0.5-0.5,0.9-0.9,1.2c-0.5,0.4-1.1,0.6-1.7,0.8
	L1237.1,337.7z"/>
<path class="st5" d="M1245.3,334.7c-0.5,0-1.1-0.1-1.6-0.3c-0.4-0.2-0.7-0.6-0.9-1c-0.2-0.6-0.3-1.2-0.3-1.8l-0.2-5.9l2-0.1l0.2,6
	v0.1c0,0.2,0,0.3,0,0.5c0,0.1,0.1,0.1,0.2,0.2c0.2,0,0.4,0,0.5,0h0.1L1245.3,334.7L1245.3,334.7z"/>
<path class="st5" d="M1245.3,332.4h0.8c0.2,0,0.4,0,0.5-0.1s0.1-0.2,0.1-0.3l-0.1-1.6l2-0.2l0.2,1.6c0.1,0.5,0,1-0.2,1.5
	c-0.2,0.4-0.5,0.8-0.9,1c-0.5,0.2-1,0.4-1.5,0.4h-0.8L1245.3,332.4z M1245.9,336.6l1.4-1.4l1.4,1.4l-1.4,1.4L1245.9,336.6z
	 M1249.3,334.7c-0.7,0-1.4-0.2-1.9-0.7s-0.8-1.2-0.8-1.9l2-0.2c0,0.1,0,0.2,0.1,0.4c0,0.1,0.1,0.1,0.2,0.1s0.3,0,0.4,0L1249.3,334.7
	z"/>
<path class="st5" d="M1249.2,332.4h1c0.2,0,0.4,0,0.6-0.1c0.1,0,0.2-0.1,0.2-0.3c0-0.2,0-0.4-0.1-0.5l-0.5-1.9l2-0.6l0.5,1.9
	c0.2,0.6,0.2,1.3,0,1.9s-0.5,1-1,1.4c-0.5,0.3-1.2,0.5-1.8,0.5h-1L1249.2,332.4z M1249.5,327.1l1.4-1.4l1.4,1.4l-1.4,1.4
	L1249.5,327.1z"/>
<path class="st5" d="M1256.8,334.7c-0.4,0-0.8-0.1-1.2-0.3c-0.3-0.2-0.6-0.4-0.8-0.8c-0.2-0.3-0.3-0.6-0.3-1v-0.8h1.9v0.4l0,0v0.1
	c0,0,0,0,0.1,0h1.8c0.2,0,0.3,0,0.3-0.1s0-0.2,0-0.3c-0.2-0.5-0.5-1-0.8-1.5c-0.3-0.6-0.7-1.2-1.1-1.8l1.7-1.4
	c0.5,0.7,1,1.4,1.4,2.2c0.4,0.6,0.6,1.3,0.8,2c0.2,0.5,0.2,1.1,0,1.6s-0.5,0.9-0.9,1.2c-0.5,0.3-1,0.4-1.6,0.4L1256.8,334.7z"/>
<rect x="1412.9" y="280" class="st18" width="11" height="102.8"/>
<path class="st2" d="M544.2,648.6h-44.5v-45.3h25.9v-7.4h-25.9c-4.1,0-7.4,3.3-7.4,7.4v44.5c0,4.1,3.3,7.4,7.4,7.4h44.5
	c4.1,0,7.4-3.3,7.4-7.4v-25.9h-7.4L544.2,648.6L544.2,648.6z"/>
<path class="st2" d="M551.6,584.8h-7.4v11.1h-11.1v7.4h11.1v11.1h7.4v-11.1h11.1v-7.4h-11.1V584.8z"/>
<rect x="507.1" y="610.7" class="st2" width="29.7" height="7.4"/>
<polygon class="st2" points="507.1,621.8 507.1,629.2 536.8,629.2 536.8,621.8 525.7,621.8 "/>
<rect x="507.1" y="633" class="st2" width="29.7" height="7.4"/>
<path class="st5" d="M280.8,618.7h-56.5v-57.6h33v-9.4h-33c-5.2,0-9.4,4.2-9.4,9.4v56.5c0,5.2,4.2,9.4,9.4,9.4h56.5
	c5.2,0,9.4-4.2,9.4-9.4v-33h-9.4V618.7z"/>
<path class="st5" d="M290.2,537.5h-9.4v14.1h-14.1v9.4h14.1v14.1h9.4V561h14.1v-9.4h-14.1V537.5z"/>
<rect x="233.6" y="570.5" class="st5" width="37.7" height="9.4"/>
<polygon class="st5" points="233.6,584.6 233.6,594.1 271.4,594.1 271.4,584.6 257.2,584.6 "/>
<rect x="233.6" y="598.8" class="st5" width="37.7" height="9.4"/>
<rect x="120.7" y="871.5" class="st18" width="277.8" height="42.1"/>
<g id="Iconly_Two-tone_Heart-4">
	<g id="Heart-5-4">
		<path id="Path_33961-2-4" class="st5" d="M259.3,903.3c-2.5-1.5-4.9-3.2-7-5.2c-1.5-1.4-2.6-3.1-3.3-5.1c-1.3-3.7,0.2-7.9,4.3-9.2
			c2.1-0.7,4.5-0.3,6.3,1l0,0c1.8-1.3,4.2-1.7,6.3-1c4.1,1.3,5.6,5.5,4.3,9.2c-0.7,1.9-1.8,3.7-3.3,5.1c-2.1,2-4.5,3.7-7,5.2
			l-0.3,0.2L259.3,903.3z"/>
	</g>
</g>
<rect x="266.6" y="734.6" class="st2" width="111" height="6.3"/>
<rect x="315.1" y="711.5" class="st2" width="62.6" height="6.3"/>
<rect x="266.6" y="667.2" class="st14" width="111" height="22.1"/>
<rect x="266.6" y="757.7" class="st2" width="111" height="6.3"/>
<rect x="266.6" y="780.8" class="st2" width="111" height="6.3"/>
<rect x="266.6" y="803" class="st2" width="111" height="6.3"/>
<rect x="266.6" y="826.2" class="st2" width="111" height="6.3"/>
<g>
	<g>
		<defs>
			<rect id="SVGID_1_" x="139.7" y="689.3" width="112.8" height="143.2"/>
		</defs>
		<clipPath id="SVGID_2_">
			<use xlink:href="#SVGID_1_"  style="overflow:visible;"/>
		</clipPath>
		<g class="st22">
			
				<image style="overflow:visible;enable-background:new    ;" width="3905" height="2929" xlink:href="C:\Users\Jeyran\Downloads\jj-ying-7JX0-bfiuxQ-unsplash (4).jpg"  transform="matrix(5.000000e-02 0 0 5.000000e-02 94.33 683.65)">
			</image>
		</g>
	</g>
</g>
<g>
	<rect x="139.7" y="689.3" width="112.8" height="143.2"/>
</g>
<polygon class="st3" points="1450.2,664.9 1450.2,572.1 1357.4,664.9 1450.2,757.7 "/>
<image style="overflow:visible;opacity:0.6;enable-background:new    ;" width="499" height="439" xlink:href="E4E05DA6.png"  transform="matrix(1 0 0 1 1261 447.71)">
</image>
<rect x="1381.5" y="567.4" class="st4" width="257.8" height="198.1"/>
<path class="st2" d="M1566.4,633.7c-5.7,10.8-6.2,22.5-5.4,34.3c0.2,4.5,1.2,8.9,2.8,13.1c2.1,5,4.5,6.2,9.9,5.2s10.1-3.4,15.3-6.1
	c-0.8,5.6-1.5,10.8-2.2,16c-0.9,6.3-1.8,12.7-2.8,19c-0.2,1.3,0.2,1.7,1.4,1.7c9.2,0,18.5,0,27.7,0c2.3,0,1.2-1.5,1-2.4
	c-3.2-15-6.4-30-9.6-45c-0.1-0.6-0.4-1.2-0.8-1.7c-1.5-1.5-1.3-2.8-0.3-4.5c4.1-6.6,0.8-12.4-7-12.5c-1.4,0-2.7-0.6-3.7-1.7
	c-1.1-1.2-2.3-2.2-3.8-2.9c-1.1-0.5-2.4-0.8-2.1-2.4c0.4-1.7,0.6-3.7,2.8-4.2c2-0.5,4-0.7,6-0.7c2.1,0,4.3-0.3,6.3-0.9
	c0.6-0.2,1.2-0.5,1.2-1.3s-0.7-1-1.3-1.2c-0.9-0.2-1.9-0.3-2.9-0.3c-10.2,0.2-20.3-0.4-30.4-1.9
	C1568,633.1,1567.1,632.9,1566.4,633.7z"/>
<path class="st20" d="M1566.4,633.7c12.1,2.5,24.3,2.4,36.6,2.8c-1.6,1.4-3.5,1.1-5.3,1.4c-1.6,0.3-3.2,0.1-4.8,0.3
	c-5.5,0.5-6.2,1.3-7.3,6.7c-0.3,1.2,0,1.5,1.1,1.6c0.6,0,1.3,0.2,1.8,0.6c3.6,2.5,6.8,5.1,11.9,5.4c4.1,0.2,5.3,6.3,2.7,10.3
	c-2.5,3.8-2.4,4.2,1.5,6.9c2.3-0.7,4.2-2.2,5.5-4.2c4.8-6.8,7.6-14.4,7.2-22.7c-0.4-8.8-5-15.1-13-18.7c-9.7-4.4-19.7-4.4-29.7-0.7
	c-4.2,1.5-7.4,4.2-8.6,8.8C1565.9,632.5,1565.7,633.2,1566.4,633.7z"/>
<rect x="1411.5" y="610.6" class="st16" width="105.9" height="58.8"/>
<path class="st5" d="M1443.2,648.7c-1.2,0.4-2.5,0.2-3.6-0.4c-1-0.6-1.7-1.7-1.9-2.9c-0.2-1.5-0.1-3,0.5-4.4l2.2,0.9
	c-0.3,0.8-0.5,1.7-0.5,2.7c0,0.6,0.3,1.1,0.8,1.5c0.6,0.3,1.3,0.3,1.9,0.1h0.2h0.2c0.4-0.1,0.8-0.2,1.2-0.4c0.2-0.1,0.4-0.2,0.5-0.4
	s0.1-0.5,0-0.7c-0.1-0.3-0.3-1.7-0.6-4l2.3-0.4c0.3,2.2,0.5,3.6,0.6,4c0.1,0.7,0.1,1.4-0.1,2.1c-0.2,0.6-0.6,1.1-1.1,1.4
	c-0.6,0.4-1.4,0.7-2.1,0.9l-0.3,0.1L1443.2,648.7z M1440.6,639.9l1.6-1.6l1.6,1.6l-1.6,1.6L1440.6,639.9z M1447.6,645.3
	c-0.5,0-1-0.2-1.4-0.5c-0.5-0.4-0.9-1-1.1-1.6c-0.3-0.8-0.6-1.7-0.7-2.5c0,0,0,0,0-0.1c0,0,0,0,0-0.1l2.3-0.4c0,0.1,0,0.3,0.1,0.3
	c0.1,0.7,0.2,1.2,0.3,1.5c0,0.2,0.1,0.4,0.2,0.5s0.2,0.1,0.4,0.1h0.4v2.6L1447.6,645.3z"/>
<path class="st5" d="M1447.8,642.6h3.3c0.1,0,0.1,0,0.2,0h0.1v-0.1v-0.1c0-0.1,0-0.1-0.1-0.2l-3.2-4.5l0.5-2l5.3-2l0.8,2.5l-4.2,1.5
	l0.2-0.6l2.4,3.5c0.3,0.4,0.5,0.9,0.6,1.3c0.1,0.4,0.2,0.8,0.1,1.2s-0.2,0.7-0.4,1c-0.3,0.3-0.6,0.6-1,0.8s-0.9,0.3-1.4,0.3h-3.3
	L1447.8,642.6z M1447.8,642.6L1447.8,642.6v2.6l0,0V642.6z"/>
<path class="st5" d="M1464.4,648.7c-1.2,0.4-2.5,0.2-3.6-0.4c-1-0.7-1.7-1.7-1.8-2.9c-0.3-1.5-0.1-3,0.4-4.4l2.2,0.9
	c-0.3,0.8-0.5,1.7-0.5,2.6c0,0.6,0.3,1.2,0.8,1.5c0.6,0.3,1.3,0.3,1.9,0.1l0.3-0.1l0.2-0.1c0.4-0.1,0.8-0.2,1.2-0.4
	c0.2-0.1,0.4-0.2,0.4-0.4c0.1-0.3,0.1-0.5,0.1-0.8l-0.4-9.5l2.3-0.1l0.4,9.5c0,0.7,0,1.4-0.3,2c-0.2,0.5-0.5,1-1,1.3
	c-0.6,0.4-1.2,0.7-1.9,0.9L1464.4,648.7z"/>
<path class="st5" d="M1473.8,645.3c-0.6,0-1.2-0.1-1.8-0.4c-0.5-0.3-0.8-0.7-1-1.1c-0.2-0.7-0.4-1.4-0.4-2.1l-0.3-6.7l2.3-0.1
	l0.3,6.9v0.2c0,0.2,0,0.4,0,0.6c0,0.1,0.1,0.2,0.2,0.2c0.2,0,0.4,0,0.6,0h0.1v2.6L1473.8,645.3z"/>
<path class="st5" d="M1473.8,642.6h0.9c0.2,0,0.4,0,0.6-0.1c0.1,0,0.1-0.2,0.1-0.3l-0.2-1.8l2.3-0.2l0.2,1.8c0.1,0.6,0,1.2-0.3,1.7
	c-0.2,0.5-0.6,0.9-1.1,1.2s-1.1,0.4-1.7,0.4h-0.9L1473.8,642.6L1473.8,642.6z M1474.4,647.5l1.6-1.6l1.6,1.6l-1.6,1.6L1474.4,647.5z
	 M1478.4,645.3c-0.8,0-1.6-0.2-2.1-0.8c-0.6-0.6-0.9-1.4-0.9-2.2l2.3-0.2c0,0.1,0,0.3,0.1,0.4c0,0.1,0.1,0.1,0.2,0.2
	c0.1,0,0.3,0,0.4,0V645.3z"/>
<path class="st5" d="M1478.3,642.6h1.2c0.2,0,0.5,0,0.7-0.1c0.1,0,0.2-0.2,0.3-0.3c0-0.2,0-0.4-0.1-0.6l-0.6-2.2l2.3-0.7l0.6,2.2
	c0.2,0.7,0.2,1.5,0,2.2c-0.2,0.6-0.6,1.2-1.1,1.5c-0.6,0.4-1.3,0.6-2,0.6h-1.2L1478.3,642.6z M1478.6,636.6l1.6-1.6l1.6,1.6
	l-1.6,1.6L1478.6,636.6z"/>
<path class="st5" d="M1487,645.3c-0.5,0-1-0.1-1.4-0.3s-0.8-0.5-1-0.9c-0.2-0.3-0.4-0.8-0.4-1.2V642h2.2v0.5l0,0c0,0.1,0,0.1,0,0.1
	h0.1h2.1c0.2,0,0.3,0,0.3-0.1c0.1-0.1,0.1-0.2,0-0.4c-0.3-0.6-0.5-1.2-0.9-1.7c-0.4-0.7-0.8-1.4-1.3-2.1l1.9-1.6
	c0.6,0.8,1.1,1.6,1.6,2.5c0.4,0.7,0.8,1.5,1,2.2c0.2,0.6,0.2,1.3,0,1.9c-0.2,0.5-0.5,1-1,1.3s-1.2,0.5-1.8,0.5L1487,645.3z"/>
<rect x="1411.5" y="669.4" class="st16" width="105.9" height="58.8"/>
<path class="st5" d="M1436,705.3h0.2c1.1-0.2,1.9-0.4,2.3-0.5c0.3-0.1,0.6-0.2,0.8-0.4c0.1-0.2,0.1-0.5,0.1-0.7l-0.3-2.3
	c0-0.4-0.1-0.7-0.3-1c-0.2-0.2-0.4-0.3-0.7-0.3c-0.2,0-0.3,0-0.4,0.1s-0.2,0.2-0.3,0.4c-0.1,0.2-0.1,0.4-0.1,0.5
	c0,0.2,0.1,0.3,0.2,0.4c0.2,0.1,0.4,0.1,0.6,0.1h4.3v2.6h-4.3c-0.8,0-1.6-0.3-2.1-0.8c-0.6-0.6-0.9-1.3-0.9-2.2
	c-0.1-0.6,0-1.3,0.3-1.9c0.2-0.6,0.6-1.1,1.1-1.4c0.5-0.4,1-0.6,1.6-0.6s1.2,0.1,1.7,0.4c0.5,0.3,1,0.8,1.3,1.3
	c0.3,0.6,0.5,1.3,0.6,1.9l0.3,2.3c0.1,0.8,0,1.6-0.3,2.3c-0.3,0.6-0.9,1.1-1.5,1.3c-1,0.4-2.1,0.7-3.2,1h-0.1h-0.1L1436,705.3z"/>
<path class="st5" d="M1442.3,701.5h0.7c0.2,0,0.4,0,0.6-0.1c0.1-0.1,0.1-0.2,0.1-0.4v-1.8h2.2v1.8c0,0.5-0.1,1-0.3,1.5
	c-0.2,0.5-0.6,0.9-1,1.2c-0.5,0.3-1,0.5-1.6,0.5h-0.7L1442.3,701.5z M1446.5,704.1c-0.5,0-1.1-0.2-1.5-0.5s-0.8-0.7-1-1.2
	c-0.2-0.4-0.3-0.9-0.3-1.4h2.2c0,0.1,0.1,0.3,0.2,0.4c0.1,0.1,0.3,0.1,0.5,0.1h0.1c0.2,0,0.4,0,0.5-0.1s0.1-0.2,0.1-0.4v-1.8h2.2
	v1.8c0,0.5-0.1,1-0.3,1.5c-0.2,0.5-0.6,0.9-1,1.2C1447.6,704,1447,704.1,1446.5,704.1L1446.5,704.1z M1445.2,696.4l1.4-1.4l1.4,1.4
	l-1.4,1.4L1445.2,696.4z M1447.1,694.1l1.1-1.1l1.1,1.1l-1.1,1.1L1447.1,694.1z M1450,704.1c-0.5,0-1.1-0.1-1.5-0.5
	c-0.4-0.3-0.8-0.7-1-1.2s-0.3-1-0.3-1.5h2.2c0,0.1,0,0.3,0.1,0.4c0.2,0.1,0.3,0.1,0.5,0.1s0.4,0,0.5-0.1s0.2-0.2,0.2-0.3
	c0-0.2,0-0.4-0.1-0.6l-0.6-2.2l2.3-0.7l0.6,2.2c0.2,0.7,0.2,1.4,0,2.2c-0.1,0.6-0.5,1.2-1,1.6C1451.3,703.9,1450.7,704.1,1450,704.1
	L1450,704.1z M1448.4,696.4l1.4-1.4l1.4,1.4l-1.4,1.4L1448.4,696.4z"/>
<path class="st5" d="M1463,707.5c-1.2,0.4-2.5,0.2-3.6-0.4c-1-0.6-1.7-1.7-1.8-2.9c-0.2-1.5-0.1-3,0.4-4.4l2.2,0.9
	c-0.3,0.8-0.5,1.7-0.5,2.7c0,0.6,0.3,1.2,0.8,1.5c0.7,0.2,1.4,0.2,2.2,0l0.2-0.1c0.4-0.1,0.8-0.2,1.2-0.4c0.2-0.1,0.4-0.2,0.5-0.5
	s0.1-0.5,0.1-0.8l-0.4-9.5l2.3-0.1l0.4,9.5c0,0.7,0,1.4-0.3,2c-0.2,0.5-0.6,1-1,1.3c-0.6,0.4-1.2,0.7-1.9,0.9
	C1463.6,707.4,1463.3,707.5,1463,707.5z M1467.6,704.1c-1.1,0-2.1-0.6-2.6-1.5c-0.3-0.5-0.4-1.1-0.4-1.6l2.3-0.1
	c0,0.2,0,0.4,0.2,0.5s0.4,0.1,0.5,0.1h0.3v2.6H1467.6z"/>
<path class="st5" d="M1467.8,701.5L1467.8,701.5c0.3,0,0.5,0,0.8-0.1c0.2-0.1,0.3-0.3,0.2-0.5l2.3,0.2c0,0.6-0.2,1.1-0.5,1.6
	c-0.3,0.4-0.7,0.8-1.2,1s-1,0.4-1.6,0.4h-0.1L1467.8,701.5L1467.8,701.5z M1471.3,704.1c-0.5,0-1-0.1-1.4-0.4
	c-0.4-0.3-0.7-0.7-0.9-1.2c-0.2-0.5-0.3-1.1-0.2-1.6l0.2-1.8l2.3,0.2l-0.2,1.8c0,0.1,0,0.2,0,0.3l0.1,0.1L1471.3,704.1z
	 M1471.3,701.5h4.7c0.2,0,0.3,0,0.4-0.1s0.3-0.2,0.3-0.3c0.1-0.1,0.1-0.2,0.1-0.3c0-0.2-0.1-0.5-0.3-0.7c-0.2-0.2-0.4-0.3-0.7-0.2
	c-0.2,0-0.4,0.1-0.5,0.2c-0.2,0.2-0.4,0.3-0.6,0.5c-0.2,0.3-0.5,0.7-0.9,1.2l-1.3,1.8l-1.8-1.7l1.2-1.6c0.6-0.8,1.1-1.4,1.4-1.8
	c0.3-0.4,0.7-0.7,1.2-0.9c0.4-0.2,0.9-0.3,1.4-0.3c0.6,0,1.2,0.2,1.7,0.5s0.9,0.8,1.2,1.3c0.3,0.5,0.4,1.2,0.4,1.8s-0.2,1.1-0.4,1.7
	c-0.3,0.5-0.7,0.9-1.2,1.2s-1,0.5-1.6,0.5h-4.8L1471.3,701.5z M1480.1,704.1c-0.5,0-0.9-0.1-1.3-0.3s-0.8-0.4-1.1-0.7l1.6-1.9
	c0.1,0.1,0.2,0.2,0.3,0.2c0.2,0.1,0.3,0.1,0.5,0.1h0.2v2.6L1480.1,704.1z"/>
<path class="st5" d="M1480.1,701.5h2.9c0.2,0,0.4,0,0.6-0.1c0.1,0,0.1-0.2,0.1-0.3l-0.2-1.8l2.3-0.2l0.2,1.8c0.1,0.6,0,1.2-0.3,1.7
	c-0.2,0.5-0.6,0.9-1.1,1.2s-1.1,0.4-1.7,0.4h-2.8V701.5z M1480.4,696.6l1.4-1.4l1.4,1.4l-1.4,1.4L1480.4,696.6z M1483.6,696.6
	l1.4-1.4l1.4,1.4l-1.3,1.4L1483.6,696.6z M1486.7,704.1c-0.8,0-1.6-0.2-2.2-0.8s-0.9-1.4-0.9-2.2l2.3-0.2c0,0.1,0,0.3,0.1,0.4
	c0,0.1,0.1,0.1,0.2,0.1c0.2,0,0.3,0,0.5,0V704.1z"/>
<path class="st5" d="M1486.6,701.5h0.2c0.2,0,0.4,0,0.5-0.1s0.3-0.2,0.3-0.3l1.1-2.1c0.2-0.4,0.6-0.8,1-1.1s0.8-0.4,1.3-0.4
	s1,0.1,1.4,0.3c0.5,0.3,1,0.7,1.2,1.3c0.3,0.6,0.4,1.3,0.4,1.9c0,0.7-0.2,1.4-0.6,2c-0.2,0.3-0.4,0.6-0.8,0.9
	c-0.3,0.2-0.7,0.3-1.1,0.4c-0.4,0-0.8-0.1-1.1-0.3l-2.3-1.2l1.1-2.2l2.5,1.3h-0.1h-0.1h-0.1c0.1-0.2,0.2-0.5,0.3-0.8
	c0.1-0.2,0.1-0.4,0-0.6c0-0.2-0.2-0.3-0.3-0.4c-0.1-0.1-0.3-0.1-0.4-0.1c-0.2,0-0.3,0.1-0.4,0.2c-0.1,0.2-0.3,0.3-0.4,0.5l-0.8,1.5
	c-0.3,0.6-0.7,1.1-1.2,1.4c-0.5,0.4-1.1,0.5-1.7,0.5h-0.2L1486.6,701.5z"/>
<rect x="1418.8" y="668.9" class="st23" width="90.8" height="1"/>
</svg>
