<?xml version="1.0" encoding="utf-8"?>
<!-- Generator: Adobe Illustrator 24.2.1, SVG Export Plug-In . SVG Version: 6.00 Build 0)  -->
<svg version="1.1" id="Layer_1" xmlns="http://www.w3.org/2000/svg" xmlns:xlink="http://www.w3.org/1999/xlink" x="0px" y="0px"
	 viewBox="0 0 1052 1019" style="enable-background:new 0 0 1052 1019;" xml:space="preserve">
<style type="text/css">
	.st0{fill:#212121;}
	.st1{fill:#7A7B7F;}
	.st2{fill:#EEEEEE;}
	.st3{fill:#DDDDDD;}
	.st4{fill:#636363;}
	.st5{fill:#28282E;}
	.st6{fill:#2A2A2A;}
	.st7{fill:#B9BBC2;}
	.st8{fill:#006BBD;}
	.st9{fill:#FE9A21;}
	.st10{fill:#CE7D1A;}
	.st11{fill:#FD9A22;}
	.st12{fill:#FC9921;}
	.st13{fill:#FB9922;}
	.st14{fill:#2196F3;}
	.st15{fill:#FFFFFF;}
	.st16{fill:#424242;}
	.st17{fill:#16171B;}
	.st18{opacity:8.000000e-02;fill:#FFFFFF;enable-background:new    ;}
	.st19{fill:#494A4E;}
	.st20{opacity:0.2;}
	.st21{fill:#CCCCCC;}
	.st22{opacity:0.2;fill:#494A4E;enable-background:new    ;}
	.st23{fill:#0373AB;}
	.st24{clip-path:url(#SVGID_2_);}
	.st25{fill:#757575;}
	.st26{fill:none;stroke:#28282E;stroke-miterlimit:10;}
</style>
<rect x="152.4" y="109.4" class="st0" width="777.2" height="537.3"/>
<rect x="194.3" y="189.5" class="st1" width="698.8" height="0.5"/>
<path class="st2" d="M878.3,150.8V162c-2.4-0.5-4.7-1.4-6.7-2.9l-0.2-0.1c-4-3-6.4-7.7-6.5-12.7v-16.5c1.8,0.3,3.6,1,5.2,1.9
	c0.5,0.3,1,0.6,1.5,1c4.2,3.1,6.6,8,6.6,13.2v0.4H876c-2.5,0-4.5,2-4.5,4.5L878.3,150.8z"/>
<path class="st2" d="M896.1,135.1v15.7l0,0l0,0c0,0,0,0.3,0,0.4c0,0.7,0,1.4-0.1,2.1c-0.6,4.4-2.9,8.5-6.5,11.1l-0.1,0.1
	c-1.9,1.4-4.2,2.4-6.5,2.8v-16.5h2.2c2.5,0,4.5-2,4.5-4.5h-6c1.1-3.3,3.2-6.3,6-8.3c0.2-0.1,0.4-0.3,0.6-0.4c1.2-0.8,2.6-1.5,4-1.9
	C894.7,135.4,895.4,135.3,896.1,135.1z"/>
<circle class="st3" cx="196.8" cy="148.3" r="2.5"/>
<circle class="st3" cx="196.8" cy="137.8" r="2.5"/>
<path class="st3" d="M238.3,133.6c2.5,2.6,2.6,5.9,2.9,9.2c0.4,3.3,0.1,6.6-0.9,9.7c-1,3-2.3,3.8-5.3,2.9c-1.6-0.5-3.2-1.3-5.1-2.1
	c0.7,5.1,1.4,5.1,2.1,10h-12.5c1-5.1,2.1-5.4,3.1-10.4c-0.2-0.4-0.1-0.9,0.2-1.2c3-3.1,5-7,8.2-10c2.1-2,3.9-4.2,5.4-6.6
	C236.9,134.4,237.1,133.4,238.3,133.6z"/>
<path class="st1" d="M221,152.4c-3.6,0-6.7-2.5-7.5-6c-2.4-7.9-0.4-12.9,6.8-16.9c1.1-0.6,2.1-1.5,2.9-2.4c1.4-1.6,3.2-2.4,5.2-0.9
	c0.4,2.5-0.5,4.8-1.1,7.1c-1.5,6-3.3,11.8-5.4,17.6C221.8,151.6,221.5,152.1,221,152.4z"/>
<path class="st4" d="M221,152.4c1.7-5.8,3.4-11.6,5.2-17.3c0.9-2.9,1-6.1,2.2-8.9c0.1,0,0.3,0,0.4,0.1c1.5,0.2,1.1,1.4,0.9,2.2
	c-0.9,4.5-2.3,8.9-4,13.1c1.8-4.3,3.1-8.8,4.6-13.2c0.3-0.9,0.3-1.9,1.2-2.5l1.5,0.5c0.8,1,0.1,2-0.2,2.9
	c-1.9,5.3-3.7,10.6-6.1,14.6c2.8-4.9,5.3-10.1,7.2-15.4c0.3-0.8,0.5-1.8,1.7-1.6l0.9,0.2c0.8,1.3-0.1,2.3-0.5,3.4
	c-2.6,6.8-6.3,13.2-10.9,18.9C224.1,150.6,223.3,152.6,221,152.4L221,152.4z"/>
<path class="st1" d="M221,152.4c3.2-1.1,4.5-4.1,6.2-6.6c4-5.8,7.2-12.1,9.4-18.8c2.4,0.4,3.3,1.6,2.6,3.8c-0.3,1-0.7,1.9-1,2.9
	c-4.6,6.9-10.7,12.6-15.7,19.3C222,152.7,221.4,152.9,221,152.4z"/>
<path class="st1" d="M235.7,126.8c-1.4,1.6-1.8,3.7-2.5,5.6c-2,4.9-4.6,9.6-7.7,13.9c2.5-6.6,5.6-13.1,7.5-20
	C234,125.6,234.9,125.6,235.7,126.8z"/>
<path class="st1" d="M231.4,125.8c-0.7,4.6-2.6,8.9-4.3,13.2c-0.5,1.2-1.1,2.4-1.9,3.4c0.8-2.9,1.6-5.7,2.4-8.6
	c0.5-1.8,0.9-3.7,1.4-5.5c0.2-0.8,0.4-1.5-0.3-2.1C229.7,126,230.4,125,231.4,125.8z"/>
<circle class="st3" cx="196.8" cy="158.9" r="2.5"/>
<image style="overflow:visible;opacity:0.6;enable-background:new    ;" width="510" height="290" xlink:href="97892971.png"  transform="matrix(1 0 0 1 286 91)">
</image>
<rect x="406.9" y="210.4" class="st5" width="268.2" height="48.8"/>
<image style="overflow:visible;opacity:0.6;enable-background:new    ;" width="510" height="384" xlink:href="97892970.png"  transform="matrix(1 0 0 1 286 160)">
</image>
<rect x="406.9" y="280" class="st6" width="268.2" height="142.4"/>
<image style="overflow:visible;opacity:0.6;enable-background:new    ;" width="510" height="383" xlink:href="9789296B.png"  transform="matrix(1 0 0 1 286 316)">
</image>
<rect x="406.9" y="435.6" class="st6" width="268.2" height="142.4"/>
<image style="overflow:visible;opacity:0.6;enable-background:new    ;" width="510" height="383" xlink:href="9789296C.png"  transform="matrix(1 0 0 1 286 472)">
</image>
<rect x="406.9" y="591.3" class="st6" width="268.2" height="142.4"/>
<path class="st3" d="M445.9,238.6c-0.5,0-0.9-0.4-0.9-0.9l0,0c0-0.2,0.1-0.5,0.3-0.6c0.4-0.4,1-0.4,1.3,0c0.2,0.2,0.3,0.4,0.3,0.6
	c0,0.3-0.1,0.5-0.3,0.7C446.4,238.5,446.2,238.6,445.9,238.6z"/>
<path class="st3" d="M452.8,241.4c-0.9,0.3-1.9,0.2-2.8-0.3c-0.8-0.5-1.3-1.3-1.4-2.2c-0.2-1.2,0-2.3,0.4-3.4l1.3,0.5
	c-0.3,0.8-0.4,1.6-0.4,2.4c0,0.6,0.3,1.1,0.8,1.4c0.6,0.3,1.2,0.3,1.8,0.1h0.2h0.1c0.4-0.1,0.8-0.2,1.1-0.3c0.2-0.1,0.4-0.2,0.5-0.4
	c0.1-0.3,0.2-0.6,0.1-0.9c0-0.3-0.2-1.4-0.5-3.3l1.3-0.2c0.3,1.8,0.4,3,0.5,3.3c0.1,0.5,0.1,1.1-0.1,1.6c-0.2,0.4-0.5,0.8-0.9,1
	c-0.5,0.3-1,0.5-1.6,0.6l-0.2,0.1L452.8,241.4z M451,234.7l1-1l1,1l-1,1L451,234.7z M456.4,238.5c-0.4,0-0.8-0.1-1.1-0.4
	c-0.4-0.3-0.6-0.7-0.8-1.2c-0.2-0.6-0.4-1.3-0.5-2l0,0l0,0l1.3-0.2c0,0.1,0,0.2,0,0.3c0.1,0.6,0.2,1,0.2,1.3c0,0.2,0.1,0.4,0.3,0.6
	c0.1,0.1,0.3,0.2,0.5,0.2h0.3v1.5L456.4,238.5z"/>
<path class="st3" d="M456.6,237.1h16.3v1.5h-16.3V237.1z M472.7,237.1h2.6c0.1,0,0.1,0,0.2,0s0.1,0,0.2-0.1s0.1-0.1,0.2-0.2
	c0-0.1,0-0.2,0-0.3s0-0.2-0.1-0.3l-2.7-3.8l0.3-1.1l4.4-1.6l0.5,1.4l-3.8,1.4l0.1-0.4l2.2,3.2c0.2,0.3,0.3,0.6,0.4,1
	c0.1,0.3,0.1,0.6,0,0.9c-0.1,0.3-0.2,0.5-0.4,0.7c-0.2,0.2-0.4,0.4-0.6,0.5c-0.3,0.1-0.6,0.2-0.9,0.2h-2.6L472.7,237.1z"/>
<path class="st3" d="M487.2,238.5c-0.9,0-1.6,0-2.1,0c-0.4,0-0.7,0-1.1-0.1c-0.2,0-0.5-0.1-0.7-0.2l0,0c-0.5-0.2-0.9-0.6-1.1-1.1
	c-0.2-0.6-0.2-1.1,0-1.7l0.5-1.7l1.3,0.4l-0.5,1.8c-0.1,0.2-0.1,0.4,0,0.6c0.1,0.2,0.2,0.3,0.4,0.4l0,0c0.1,0.1,0.3,0.1,0.5,0.1
	c0.3,0,0.6,0.1,1,0.1h1.9L487.2,238.5z M485.2,233.5l0.9-0.9l0.9,0.9l-0.9,0.9L485.2,233.5z M487.2,237.1h2.9c0.3,0,0.5,0,0.7-0.2
	c0.1-0.1,0.2-0.3,0.2-0.5l-0.1-1.5l1.3-0.1l0.1,1.5c0.1,0.4,0,0.8-0.2,1.2c-0.2,0.3-0.4,0.6-0.8,0.8s-0.8,0.3-1.2,0.3h-2.9V237.1z
	 M487.5,233.5l0.9-0.9l0.9,0.9l-0.9,0.9L487.5,233.5z M493.2,238.5c-0.6,0-1.1-0.2-1.6-0.6c-0.4-0.4-0.6-1-0.6-1.6l1.3-0.1
	c0,0.2,0,0.3,0.1,0.5c0.1,0.1,0.1,0.2,0.3,0.2c0.2,0.1,0.3,0.1,0.5,0.1L493.2,238.5z"/>
<path class="st3" d="M493.1,237.1h17c0.3,0,0.5,0,0.7-0.2c0.1-0.1,0.2-0.3,0.2-0.5l-0.1-1.5l1.3-0.1l0.1,1.5c0.1,0.4,0,0.8-0.2,1.2
	c-0.2,0.3-0.4,0.6-0.8,0.8s-0.8,0.3-1.2,0.3h-17L493.1,237.1z M509.4,240.3l1-1l1,1l-1,1L509.4,240.3z M513.1,238.5
	c-0.6,0-1.1-0.2-1.6-0.6c-0.4-0.4-0.6-1-0.6-1.6l1.3-0.1c0,0.2,0,0.3,0.1,0.5c0.1,0.1,0.1,0.2,0.3,0.2c0.2,0.1,0.3,0.1,0.5,0.1
	L513.1,238.5L513.1,238.5z"/>
<path class="st3" d="M513,237.1h18c0.2,0,0.5,0,0.7-0.1s0.3-0.2,0.4-0.4c0.1-0.2,0.1-0.5,0-0.8l-0.5-1.8l1.3-0.4l0.5,1.9
	c0.2,0.5,0.2,1.1,0,1.6c-0.2,0.4-0.5,0.8-0.9,1.1s-0.9,0.4-1.5,0.4h-18V237.1z M528.8,231.9l0.9-0.9l0.9,0.9l-0.9,0.9L528.8,231.9z
	 M530.2,230.3l0.8-0.8l0.8,0.8l-0.8,0.8L530.2,230.3z M531.2,231.9l0.9-0.9l0.9,0.9l-0.9,0.9L531.2,231.9z"/>
<path class="st3" d="M537.8,230.4l1.3-0.1l0.3,8.2l-1.3,0.1L537.8,230.4z"/>
<path class="st3" d="M539.9,240.2l0.2-0.1c0.1,0,0.1,0,0.2-0.1c0.4-0.1,0.8-0.2,1.2-0.4c0.2-0.1,0.4-0.3,0.6-0.5
	c0.1-0.3,0.2-0.6,0.1-0.8l-0.5-3.5l1.3-0.2l0.5,3.5c0.1,0.5,0,1.1-0.2,1.6c-0.2,0.4-0.5,0.8-0.9,1c-0.5,0.3-1.1,0.5-1.7,0.7
	c-0.1,0-0.2,0.1-0.2,0.1l-0.2,0.1L539.9,240.2z"/>
<path class="st3" d="M552.8,238.5c-0.9,0-1.6,0-2.1,0c-0.4,0-0.7,0-1.1-0.1c-0.2,0-0.5-0.1-0.7-0.2l0,0c-0.5-0.2-0.9-0.6-1.1-1.1
	c-0.2-0.6-0.2-1.1,0-1.7l0.5-1.7l1.3,0.4l-0.5,1.8c-0.1,0.2-0.1,0.4,0,0.6c0.1,0.2,0.2,0.3,0.4,0.4l0,0c0.1,0.1,0.3,0.1,0.5,0.1
	c0.3,0,0.6,0.1,0.9,0.1h1.9L552.8,238.5z M550.7,233.5l0.9-0.9l0.9,0.9l-0.9,0.9L550.7,233.5z M552.8,237.1c0.9,0,1.5,0,2,0
	c0.3,0,0.6,0,0.9-0.1c0.2,0,0.3-0.1,0.5-0.1l0,0c0.1,0,0.3-0.1,0.4-0.2c0.1-0.1,0.1-0.2,0.1-0.3c0-0.2,0-0.4-0.1-0.6l-0.5-1.7
	l1.3-0.4l0.5,1.7c0.1,0.4,0.1,0.8,0.1,1.2s-0.2,0.7-0.4,1s-0.5,0.5-0.8,0.6h-0.1c-0.2,0.1-0.5,0.2-0.7,0.2c-0.4,0-0.7,0.1-1.1,0.1
	c-0.5,0-1.1,0-2.1,0L552.8,237.1z M553,233.5l0.9-0.9l0.9,0.9l-0.9,0.9L553,233.5z"/>
<path class="st3" d="M559.5,230.4l1.3-0.1l0.3,8.2l-1.3,0.1L559.5,230.4z"/>
<path class="st3" d="M565.3,237.6c-0.3,0-0.6,0-0.9-0.1c-0.3-0.1-0.6-0.3-0.8-0.6c-0.2-0.2-0.4-0.5-0.5-0.8
	c-0.2-0.8-0.1-1.6,0.5-2.2c0.2-0.3,0.6-0.5,0.9-0.6l2.1-0.7l0.4,1.3l-2.1,0.7c-0.2,0.1-0.4,0.2-0.5,0.4s-0.1,0.4-0.1,0.6
	c0,0.2,0.2,0.4,0.3,0.5c0.2,0.1,0.4,0.2,0.6,0.1l1.6-0.3l0.2,1.5l-1,0.2L565.3,237.6z M568.7,238.5c-0.5,0-0.9-0.1-1.3-0.4
	c-0.4-0.2-0.7-0.6-0.9-1s-0.3-0.9-0.3-1.3v-3.6h1.3v3.6c0,0.2,0.1,0.4,0.2,0.6c0.1,0.2,0.3,0.3,0.5,0.4c0.2,0.1,0.4,0.2,0.6,0.2h0.2
	v1.5H568.7z"/>
<path class="st3" d="M568.8,237.1H586c0.2,0,0.5,0,0.7-0.1s0.3-0.2,0.4-0.4c0.1-0.2,0.1-0.5,0-0.8l-0.5-1.8l1.3-0.4l0.5,1.8
	c0.2,0.5,0.2,1.1,0,1.6c-0.1,0.5-0.4,0.8-0.8,1.1c-0.4,0.3-1,0.4-1.5,0.4h-17.2v-1.4H568.8z M585,240.3l1-1l1,1l-1,1L585,240.3z"/>
<path class="st3" d="M588.6,240.2c0.1,0,0.1,0,0.2-0.1l0.2-0.1c0.4-0.1,0.8-0.2,1.2-0.4c0.2-0.1,0.4-0.3,0.6-0.5
	c0.1-0.3,0.2-0.5,0.1-0.8l-0.5-3.5l1.3-0.2l0.5,3.5c0.1,0.5,0,1.1-0.2,1.6c-0.2,0.4-0.5,0.8-0.9,1c-0.5,0.3-1.1,0.5-1.7,0.7
	c-0.1,0-0.2,0.1-0.3,0.1l-0.2,0.1L588.6,240.2z M592.7,238.5c-0.4,0-0.7-0.1-1-0.3s-0.5-0.6-0.6-0.9c-0.2-0.6-0.3-1.2-0.4-1.8v-0.2
	l1.2-0.2v0.1c0,0.4,0.1,0.8,0.2,1.3c0,0.2,0.1,0.4,0.2,0.5c0.1,0.1,0.3,0.1,0.4,0.1h0.1v1.5h-0.1V238.5z"/>
<path class="st3" d="M592.6,237.1h16.3c0.5,0,1.1,0,1.6-0.1c0.6-0.1,1.1-0.2,1.7-0.4l3.1-0.8v0.4l-2.7-1.3c-0.6-0.3-1.3-0.1-1.7,0.5
	l0,0l-0.2,0.4l-1.2-0.7l0.2-0.4c0.2-0.4,0.6-0.8,1-1s0.8-0.3,1.2-0.4c0.5,0,0.9,0.1,1.3,0.3l3.1,1.7l-0.2,1.7l-3.6,1.1
	c-0.6,0.2-1.2,0.3-1.8,0.4c-0.6,0.1-1.2,0.1-1.8,0.1h-16.3L592.6,237.1L592.6,237.1z M611.5,240.2l1-1l1,1l-1,1L611.5,240.2z
	 M616.4,238.5c-0.4,0-0.7-0.1-1.1-0.3c-0.3-0.2-0.6-0.5-0.8-0.8s-0.3-0.7-0.3-1.1h1.3c0,0.1,0,0.3,0.1,0.4c0.1,0.1,0.2,0.2,0.3,0.3
	s0.3,0.1,0.4,0.1h0.8v1.5L616.4,238.5L616.4,238.5z"/>
<path class="st3" d="M617,237.1h18c0.2,0,0.5,0,0.7-0.1s0.3-0.2,0.4-0.4c0.1-0.2,0.1-0.5,0-0.8l-0.5-1.8l1.3-0.4l0.5,1.9
	c0.2,0.5,0.2,1.1,0,1.6s-0.5,0.8-0.9,1.1s-0.9,0.4-1.5,0.4h-18V237.1z M633,231.9l0.9-0.9l0.9,0.9l-0.9,0.9L633,231.9z M635.4,231.9
	l0.9-0.9l0.9,0.9l-0.9,0.9L635.4,231.9z"/>
<path class="st3" d="M445.3,370.9c-0.2,0-0.5-0.1-0.6-0.3c-0.2-0.2-0.3-0.4-0.3-0.6s0.1-0.4,0.3-0.6c0.2-0.2,0.4-0.3,0.6-0.3
	s0.4,0.1,0.6,0.3c0.2,0.2,0.2,0.4,0.2,0.6s-0.1,0.4-0.2,0.6C445.7,370.8,445.5,370.9,445.3,370.9z M444.6,363h1.4l-0.1,5.3h-1.1
	L444.6,363z"/>
<path class="st3" d="M447.4,368.4l0.8-0.6l2.8,1.5h0.1c0,0,0.1,0,0.1-0.1c0.1-0.2,0.2-0.5,0.3-0.7c0.1-0.2,0.1-0.4,0-0.6
	s-0.2-0.3-0.4-0.4c-0.1-0.1-0.3-0.1-0.4-0.1s-0.3,0.1-0.4,0.2s-0.2,0.2-0.3,0.4l-0.6,1.2l-1-0.6l0.8-1.5c0.1-0.3,0.4-0.5,0.6-0.7
	c0.3-0.2,0.6-0.3,0.9-0.3c0.7,0,1.4,0.4,1.7,1.1c0.2,0.4,0.3,0.8,0.2,1.3c0,0.5-0.2,0.9-0.4,1.4c-0.1,0.2-0.3,0.4-0.5,0.5
	s-0.4,0.2-0.7,0.2c-0.2,0-0.5,0-0.7-0.2l-1.8-0.9l0.2,4.3h-1.2L447.4,368.4z M453.6,370.5c-0.4,0-0.7-0.1-1.1-0.3
	c-0.3-0.2-0.5-0.5-0.7-0.8c-0.2-0.4-0.2-0.8-0.2-1.2h1c0,0.2,0,0.3,0.1,0.5c0.1,0.1,0.2,0.2,0.3,0.3c0.2,0.1,0.3,0.1,0.5,0.1
	L453.6,370.5z"/>
<path class="st3" d="M453.5,369.1h8.9c0.2,0,0.5,0,0.7-0.1c0.1-0.1,0.2-0.3,0.2-0.5l-0.1-1.4l1.2-0.1l0.1,1.4c0,0.4,0,0.8-0.2,1.1
	c-0.2,0.3-0.4,0.6-0.7,0.7c-0.4,0.2-0.7,0.3-1.1,0.3h-8.9L453.5,369.1z M460.7,365.2l0.8-0.9l0.9,0.9l-0.9,0.8L460.7,365.2z
	 M462.8,365.2l0.8-0.9l0.9,0.9l-0.9,0.8L462.8,365.2z M465.2,370.5c-0.5,0-1-0.2-1.4-0.5c-0.4-0.4-0.6-0.9-0.6-1.5l1.2-0.1
	c0,0.2,0,0.3,0.1,0.5c0,0.1,0.1,0.2,0.2,0.2c0.2,0,0.3,0.1,0.5,0.1L465.2,370.5L465.2,370.5z"/>
<path class="st3" d="M465.1,369.1h7.4c0.2,0,0.5,0,0.7-0.2c0.1-0.1,0.2-0.3,0.2-0.5V367h1.1v1.4c0,0.3-0.1,0.7-0.2,1
	c-0.2,0.3-0.4,0.6-0.7,0.8c-0.3,0.2-0.7,0.3-1.1,0.3h-7.4V369.1z M475.2,370.5c-0.4,0-0.7-0.1-1-0.3c-0.3-0.2-0.5-0.5-0.7-0.8
	s-0.2-0.7-0.2-1h1.1c0,0.2,0.1,0.4,0.2,0.5c0.2,0.1,0.4,0.2,0.6,0.2h0.1c0.2,0,0.3,0,0.5-0.1c0.1-0.1,0.2-0.1,0.2-0.2s0.1-0.2,0-0.3
	v-1.4h1.1v1.4c0,0.3-0.1,0.7-0.2,1C476.6,370.1,475.9,370.5,475.2,370.5L475.2,370.5z M478,370.5c-0.4,0-0.7-0.1-1-0.3
	c-0.3-0.2-0.5-0.5-0.7-0.8s-0.2-0.6-0.2-1h1.1c0,0.2,0.1,0.3,0.2,0.5c0.2,0.1,0.4,0.2,0.6,0.2s0.4,0,0.6-0.1c0.1,0,0.2-0.1,0.3-0.3
	c0-0.1,0-0.2,0-0.3l-0.4-1.4l1.1-0.3l0.4,1.4c0.1,0.4,0.1,0.8,0,1.2c-0.1,0.4-0.4,0.7-0.7,0.9C478.9,370.4,478.4,370.5,478,370.5
	L478,370.5z M481.1,370.5c-0.5,0-1-0.2-1.4-0.5c-0.4-0.4-0.7-0.9-0.8-1.4l1-0.4c0.1,0.6,0.6,1,1.2,1L481.1,370.5z"/>
<path class="st3" d="M489.8,369.5c-0.3-0.1-0.6-0.4-0.8-0.7c-0.2-0.3-0.3-0.6-0.4-1c0-0.4,0-0.8,0.2-1.1c0.2-0.3,0.4-0.6,0.7-0.8
	c0.3-0.2,0.6-0.3,1-0.4c0.7-0.1,1.5,0.3,1.9,0.9c0.2,0.3,0.3,0.7,0.4,1.1c0,0.4,0,0.8-0.2,1.1c-0.3,0.6-0.8,1.1-1.4,1.4
	c-0.7,0.4-1.5,0.5-2.3,0.5H481v-1.4h7.8c0.5,0,0.9,0,1.4-0.1c0.3-0.1,0.6-0.2,0.8-0.4c0.2-0.2,0.4-0.4,0.5-0.6
	c0.2-0.4,0-0.9-0.4-1.1c-0.1-0.1-0.3-0.1-0.4-0.1s-0.3,0-0.4,0.1s-0.2,0.2-0.3,0.3c-0.1,0.2-0.1,0.4-0.1,0.6
	c0.1,0.2,0.2,0.4,0.4,0.5l2.4,1.1c0.2,0.1,0.4,0.1,0.6,0s0.3-0.2,0.4-0.4c0.2-0.4,0-0.8-0.4-1l-3.9-2.1l0.6-1.2l3.9,2.1
	c0.3,0.2,0.6,0.4,0.8,0.7c0.2,0.3,0.3,0.6,0.3,1c0,0.3,0,0.7-0.2,1s-0.4,0.6-0.7,0.8c-0.6,0.4-1.3,0.5-1.9,0.2L489.8,369.5z"/>
<path class="st3" d="M502.6,373.1c-0.9,0.3-1.8,0.2-2.5-0.3c-0.7-0.4-1.2-1.2-1.3-2c-0.2-1.1,0-2.1,0.4-3.1l1.2,0.5
	c-0.3,0.7-0.4,1.5-0.4,2.2c0,0.5,0.3,1,0.7,1.3c0.5,0.3,1.1,0.3,1.7,0.1h0.1h0.1c0.3-0.1,0.7-0.2,1-0.3c0.2-0.1,0.4-0.2,0.5-0.4
	c0.1-0.3,0.1-0.5,0.1-0.8s-0.2-1.3-0.4-3l1.2-0.2l0.5,3.1c0.1,0.5,0,1-0.1,1.5c-0.2,0.4-0.4,0.7-0.8,0.9c-0.5,0.2-0.9,0.4-1.5,0.5
	h-0.2L502.6,373.1z M506.3,370.5c-0.3,0-0.6-0.1-0.9-0.3c-0.3-0.2-0.5-0.4-0.7-0.7c-0.2-0.3-0.3-0.7-0.4-1.1l0.8-0.4v0.1
	c0,0.2,0.1,0.4,0.2,0.6c0.1,0.1,0.2,0.2,0.4,0.3c0.2,0.1,0.4,0.1,0.6,0.1h0.1c0.2,0,0.4-0.1,0.6-0.2c0.1-0.1,0.2-0.3,0.1-0.5V367
	h1.1v1.4c0,0.3-0.1,0.7-0.2,1c-0.2,0.3-0.4,0.6-0.7,0.8C507.1,370.4,506.7,370.5,506.3,370.5z M509.1,370.5c-0.4,0-0.8-0.1-1.1-0.3
	c-0.3-0.2-0.5-0.5-0.7-0.8c-0.1-0.3-0.2-0.6-0.2-0.9h1.1c0,0.2,0.1,0.3,0.2,0.5c0.2,0.1,0.4,0.2,0.6,0.2s0.4,0,0.6-0.1
	c0.1,0,0.2-0.1,0.3-0.2c0-0.1,0-0.2,0-0.3l-0.4-1.4l1.1-0.3l0.4,1.4c0.1,0.4,0.1,0.8,0,1.2c-0.1,0.4-0.4,0.7-0.7,0.9
	C509.9,370.4,509.5,370.5,509.1,370.5z M512.2,370.5c-0.5,0-1.1-0.2-1.5-0.5c-0.4-0.4-0.7-0.9-0.8-1.4l1-0.4
	c0.1,0.3,0.2,0.5,0.4,0.7c0.2,0.2,0.5,0.3,0.8,0.3L512.2,370.5z"/>
<path class="st3" d="M512.1,369.1h8.8c0.2,0,0.4,0,0.7-0.1c0.2-0.1,0.3-0.2,0.3-0.4c0.1-0.2,0.1-0.5,0-0.7l-0.4-1.7l1.2-0.4l0.5,1.7
	c0.2,0.5,0.2,1,0,1.5c-0.1,0.4-0.4,0.8-0.8,1c-0.4,0.2-0.9,0.4-1.3,0.3h-8.8L512.1,369.1z M519.1,372.1l0.8-0.9l0.8,0.9l-0.8,0.8
	L519.1,372.1z M521.2,372.1l0.8-0.9l0.8,0.9L522,373L521.2,372.1z"/>
<path class="st3" d="M524.8,372h0.2c0.9-0.2,1.5-0.3,1.8-0.5c0.3-0.1,0.5-0.2,0.7-0.4c0.1-0.2,0.2-0.5,0.1-0.8l-0.2-1.8
	c0-0.4-0.1-0.7-0.3-1c-0.2-0.2-0.4-0.3-0.7-0.3c-0.2,0-0.4,0.1-0.5,0.2s-0.2,0.3-0.3,0.4c-0.1,0.2-0.1,0.4-0.1,0.5
	c0,0.2,0.1,0.4,0.2,0.5c0.2,0.1,0.4,0.2,0.6,0.2h3v1.4h-3c-0.5,0-1-0.1-1.4-0.5s-0.6-0.9-0.6-1.4c0-0.4,0-0.8,0.2-1.2
	c0.1-0.4,0.4-0.7,0.7-1s0.7-0.4,1.1-0.4c0.4,0,0.8,0.1,1.1,0.3c0.3,0.2,0.6,0.5,0.8,0.9s0.4,0.9,0.4,1.3l0.2,1.8
	c0.1,0.5,0,1.1-0.2,1.6c-0.2,0.4-0.6,0.7-1.1,0.9c-0.8,0.3-1.5,0.5-2.3,0.6h-0.1H525L524.8,372z"/>
<path class="st3" d="M529.3,369.1h8c0.2,0,0.5,0,0.7-0.1s0.3-0.2,0.3-0.4c0.1-0.2,0.1-0.5,0-0.7l-0.4-1.7l1.1-0.3l0.5,1.7
	c0.1,0.5,0.1,1,0,1.5c-0.1,0.4-0.4,0.8-0.8,1c-0.4,0.2-0.9,0.4-1.4,0.4h-8L529.3,369.1z M536.8,364.4l1-1l0.9,1l-0.9,1L536.8,364.4z
	"/>
<path class="st3" d="M545.5,369.7c-0.3,0-0.6,0-0.8-0.1c-0.3-0.1-0.5-0.3-0.8-0.5c-0.2-0.2-0.4-0.5-0.5-0.8s-0.1-0.7-0.1-1.1
	c0.1-0.4,0.2-0.7,0.5-1c0.2-0.3,0.5-0.5,0.9-0.6l1.9-0.6l0.4,1.2l-1.9,0.7c-0.2,0.1-0.4,0.2-0.5,0.4c-0.1,0.2-0.1,0.4-0.1,0.5
	c0.1,0.4,0.5,0.6,0.8,0.5l1.4-0.2l0.2,1.3l-0.9,0.1L545.5,369.7z M548.5,370.5c-0.4,0-0.8-0.1-1.2-0.3c-0.4-0.2-0.7-0.5-0.9-0.9
	s-0.3-0.8-0.3-1.2v-3.4h1.2v3.4c0,0.2,0.1,0.4,0.2,0.5c0.1,0.2,0.2,0.3,0.4,0.4s0.4,0.1,0.6,0.1h0.2v1.4H548.5z"/>
<path class="st3" d="M548.6,369.1h7.2c0.2,0,0.4,0,0.5-0.1c0.2-0.1,0.3-0.2,0.4-0.4l0.8-1.6c0.1-0.3,0.4-0.5,0.6-0.7
	c0.3-0.2,0.6-0.3,0.9-0.3c0.3,0,0.6,0.1,0.9,0.2c0.3,0.2,0.6,0.5,0.8,0.9s0.3,0.8,0.2,1.3c0,0.5-0.2,0.9-0.4,1.4
	c-0.1,0.2-0.3,0.4-0.5,0.5s-0.4,0.2-0.7,0.2s-0.5,0-0.7-0.2l-1.7-0.9l0.6-1.2l1.8,0.9h0.1h0.1V369c0.1-0.2,0.2-0.5,0.3-0.7
	s0.1-0.4,0-0.6s-0.2-0.3-0.3-0.4s-0.3-0.1-0.4-0.1c-0.1,0-0.3,0.1-0.4,0.2c-0.1,0.1-0.2,0.2-0.3,0.4l-0.7,1.3
	c-0.2,0.4-0.5,0.7-0.8,1c-0.3,0.2-0.7,0.3-1.2,0.3h-7.2L548.6,369.1z"/>
<path class="st3" d="M564.7,370.5c-0.4,0-0.8-0.1-1.2-0.2c-0.3-0.2-0.5-0.4-0.7-0.8c-0.2-0.5-0.2-0.9-0.3-1.4l-0.2-5.1l1.2-0.1
	l0.2,5.2v0.1c0,0.2,0,0.4,0.1,0.6c0,0.1,0.1,0.2,0.3,0.2s0.4,0.1,0.6,0.1h0.1L564.7,370.5L564.7,370.5z"/>
<path class="st3" d="M564.7,369.1h8c0.2,0,0.4,0,0.7-0.1c0.2-0.1,0.3-0.2,0.3-0.4c0.1-0.2,0.1-0.5,0-0.7l-0.5-1.7l1.2-0.4l0.5,1.7
	c0.2,0.5,0.2,1,0,1.5c-0.1,0.4-0.4,0.8-0.8,1c-0.4,0.2-0.9,0.4-1.4,0.4h-8V369.1z M572.2,364.4l1-1l0.9,1l-0.9,1L572.2,364.4z"/>
<path class="st3" d="M575.1,372h0.2l0.2-0.1c0.4-0.1,0.8-0.2,1.1-0.4c0.2-0.1,0.4-0.2,0.5-0.4c0.1-0.2,0.2-0.5,0.1-0.8l-0.5-3.2
	l1.2-0.2l0.4,3.2c0.1,0.5,0,1-0.2,1.5c-0.2,0.4-0.5,0.7-0.9,0.9c-0.5,0.3-1,0.5-1.6,0.6l-0.2,0.1l-0.2,0.1L575.1,372z M578.8,370.5
	c-0.4,0-0.7-0.1-1-0.3c-0.3-0.2-0.5-0.5-0.6-0.9c-0.2-0.5-0.3-1.1-0.4-1.7v-0.2l1.1-0.2v0.1c0,0.4,0.1,0.8,0.2,1.1
	c0,0.2,0.1,0.3,0.2,0.5c0.1,0.1,0.2,0.1,0.4,0.1h0.1V370.5L578.8,370.5z"/>
<path class="st3" d="M578.8,369.1h8c0.2,0,0.4,0,0.7-0.1c0.2-0.1,0.3-0.2,0.3-0.4c0.1-0.2,0.1-0.5,0-0.7l-0.5-1.7l1.2-0.4l0.5,1.7
	c0.1,0.5,0.1,1,0,1.5c-0.1,0.4-0.4,0.8-0.8,1c-0.4,0.2-0.9,0.4-1.4,0.4h-8V369.1z M586.1,372.1l0.9-1l1,1l-1,0.9L586.1,372.1z"/>
<path class="st3" d="M597.5,370.5c-0.8,0-1.5,0-1.9,0c-0.3,0-0.7,0-1-0.1c-0.2,0-0.5-0.1-0.7-0.2l0,0c-0.5-0.2-0.8-0.5-1-1
	s-0.2-1.1,0-1.6l0.4-1.6l1.2,0.3L594,368c-0.1,0.2-0.1,0.4,0,0.6s0.2,0.3,0.4,0.3l0,0c0.1,0.1,0.3,0.1,0.4,0.1
	c0.3,0,0.6,0.1,0.9,0.1h1.8L597.5,370.5z M597.5,369.1h2.4c0.1,0,0.1,0,0.2,0c0.1,0,0.1,0,0.2-0.1c0.1-0.1,0.1-0.1,0.2-0.2
	c0-0.1,0-0.2,0-0.3c0-0.1,0-0.2-0.1-0.3l-2.5-3.5l0.3-1l4-1.5l0.4,1.3l-3.5,1.3l0.1-0.3l2,3c0.2,0.3,0.3,0.6,0.4,0.9
	c0.1,0.3,0.1,0.6,0,0.8c0,0.3-0.2,0.5-0.3,0.7c-0.2,0.2-0.4,0.3-0.6,0.5c-0.3,0.1-0.5,0.2-0.8,0.1h-2.4L597.5,369.1z M603.1,370.5
	c-0.3,0-0.6-0.1-0.9-0.2c-0.3-0.1-0.6-0.3-0.8-0.6c-0.3-0.3-0.5-0.6-0.7-1c-0.1-0.2-0.2-0.3-0.3-0.5l0.9-0.6l0.2,0.3l0.2,0.2
	c0.1,0.2,0.3,0.4,0.5,0.6c0.1,0.1,0.3,0.2,0.5,0.3c0.2,0.1,0.3,0.1,0.5,0.1h0.2v1.4L603.1,370.5z"/>
<path class="st3" d="M603.1,369.1h8.8c0.2,0,0.4,0,0.7-0.1c0.2-0.1,0.3-0.2,0.3-0.4c0.1-0.2,0.1-0.5,0-0.7l-0.4-1.7l1.2-0.4l0.5,1.7
	c0.2,0.5,0.2,1,0,1.5c-0.1,0.4-0.4,0.8-0.8,1c-0.4,0.2-0.9,0.4-1.3,0.3h-8.8L603.1,369.1z M610.1,372.1l0.8-0.9l0.8,0.9l-0.8,0.8
	L610.1,372.1z M612.2,372.1l0.8-0.9l0.8,0.9l-0.8,0.8L612.2,372.1z"/>
<path class="st3" d="M621.8,373.1c-0.9,0.3-1.8,0.2-2.5-0.3c-0.7-0.4-1.2-1.2-1.3-2c-0.2-1.1,0-2.1,0.4-3.1l1.2,0.5
	c-0.3,0.7-0.4,1.5-0.4,2.2c0,0.5,0.3,1,0.7,1.3c0.5,0.3,1.1,0.3,1.7,0.1h0.2h0.1c0.3-0.1,0.7-0.2,1-0.3c0.2-0.1,0.4-0.2,0.5-0.4
	c0.1-0.2,0.1-0.5,0.1-0.8s-0.2-1.3-0.4-3l1.2-0.2c0.3,1.7,0.4,2.7,0.4,3.1c0.1,0.5,0,1-0.1,1.5c-0.2,0.4-0.4,0.7-0.8,0.9
	c-0.5,0.3-1,0.5-1.5,0.6h-0.2L621.8,373.1z M620.2,367l1-1l1,1l-1,0.9L620.2,367z M625.2,370.5c-0.4,0-0.7-0.1-1-0.4
	s-0.6-0.7-0.7-1.1c-0.2-0.6-0.4-1.2-0.4-1.8l0,0l0,0l1.2-0.2c0,0.1,0,0.2,0,0.3c0.1,0.4,0.1,0.8,0.2,1.2c0,0.2,0.1,0.4,0.3,0.5
	c0.1,0.1,0.3,0.2,0.4,0.1h0.3v1.4H625.2z"/>
<path class="st3" d="M625.3,369.1h7.3c0.2,0,0.4,0,0.5-0.1c0.2-0.1,0.3-0.2,0.4-0.4l0.8-1.6c0.1-0.3,0.4-0.5,0.6-0.7
	c0.3-0.2,0.6-0.3,0.9-0.3c0.3,0,0.6,0.1,0.9,0.2c0.4,0.2,0.6,0.5,0.8,0.9s0.3,0.8,0.2,1.3c0,0.5-0.2,0.9-0.4,1.4
	c-0.1,0.2-0.3,0.4-0.5,0.5s-0.4,0.2-0.7,0.2s-0.5,0-0.7-0.2l-1.7-0.9l0.6-1.2l1.8,0.9h0.1h0.1V369c0.1-0.2,0.2-0.5,0.3-0.7
	s0.1-0.4,0-0.6s-0.2-0.3-0.3-0.4s-0.3-0.1-0.4-0.1c-0.1,0-0.3,0.1-0.4,0.2c-0.1,0.1-0.2,0.2-0.3,0.4l-0.7,1.3
	c-0.2,0.4-0.5,0.7-0.8,1c-0.3,0.2-0.7,0.3-1.1,0.3h-7.3L625.3,369.1z"/>
<path class="st3" d="M476.5,525.7c-0.2,0-0.5-0.1-0.6-0.3c-0.2-0.2-0.3-0.4-0.3-0.6c0-0.2,0.1-0.4,0.3-0.6c0.2-0.2,0.4-0.2,0.6-0.2
	c0.5,0,0.8,0.3,0.8,0.8l0,0c0,0.2-0.1,0.5-0.2,0.6C476.9,525.6,476.7,525.7,476.5,525.7z M475.8,517.8h1.4l-0.2,5.3h-1.1
	L475.8,517.8z"/>
<path class="st3" d="M478.6,523.2l0.8-0.6l2.8,1.5h0.1c0,0,0.1,0,0.1-0.1c0.1-0.2,0.2-0.5,0.3-0.7c0.1-0.2,0.1-0.4,0-0.6
	c-0.1-0.2-0.2-0.3-0.4-0.4c-0.1-0.1-0.3-0.1-0.4-0.1s-0.3,0.1-0.4,0.2c-0.1,0.1-0.2,0.2-0.3,0.4l-0.6,1.2l-1-0.6l0.8-1.5
	c0.1-0.3,0.4-0.5,0.6-0.7c0.3-0.2,0.6-0.3,0.9-0.3s0.6,0.1,0.9,0.2c0.3,0.2,0.6,0.5,0.8,0.9c0.2,0.4,0.3,0.8,0.2,1.3
	c0,0.5-0.2,0.9-0.4,1.4c-0.1,0.2-0.3,0.4-0.5,0.5s-0.4,0.2-0.7,0.2c-0.3,0-0.5,0-0.7-0.2l-1.8-0.9l0.2,4.3h-1.2L478.6,523.2z
	 M484.8,525.3c-0.4,0-0.7-0.1-1.1-0.3c-0.3-0.2-0.5-0.5-0.7-0.8c-0.2-0.4-0.2-0.8-0.2-1.2h1c0,0.2,0,0.3,0.1,0.5
	c0.1,0.1,0.2,0.2,0.3,0.3c0.2,0.1,0.3,0.1,0.5,0.1L484.8,525.3z"/>
<path class="st3" d="M484.6,523.9h8.9c0.2,0,0.5,0,0.7-0.2c0.1-0.1,0.2-0.3,0.1-0.5l-0.1-1.4l1.2-0.1l0.1,1.4c0,0.4,0,0.8-0.2,1.1
	s-0.4,0.6-0.7,0.8c-0.4,0.2-0.8,0.3-1.1,0.3h-8.9V523.9z M491.9,520l0.8-0.8l0.9,0.8l-0.9,0.8L491.9,520z M494,520l0.8-0.8l0.8,0.8
	l-0.8,0.8L494,520z M496.4,525.3c-0.5,0-1-0.1-1.4-0.5s-0.6-0.9-0.6-1.5l1.2-0.1c0,0.2,0,0.3,0.1,0.5c0.1,0.1,0.1,0.2,0.2,0.2
	c0.2,0,0.3,0.1,0.5,0.1L496.4,525.3L496.4,525.3z"/>
<path class="st3" d="M496.3,523.9h7.4c0.2,0,0.5,0,0.7-0.2c0.1-0.1,0.2-0.3,0.2-0.5v-1.4h1.1v1.4c0,0.3-0.1,0.7-0.2,1
	c-0.2,0.3-0.4,0.6-0.7,0.8c-0.3,0.2-0.7,0.3-1,0.3h-7.4L496.3,523.9z M506.4,525.3c-0.4,0-0.7-0.1-1-0.3s-0.5-0.5-0.6-0.8
	c-0.2-0.3-0.2-0.7-0.2-1h1.1c0,0.2,0.1,0.4,0.2,0.5c0.2,0.1,0.4,0.2,0.6,0.2h0.1c0.2,0,0.3,0,0.5-0.1c0.1-0.1,0.2-0.1,0.2-0.2
	c0-0.1,0.1-0.2,0.1-0.3v-1.4h1.1v1.4c0,0.3-0.1,0.7-0.2,1C507.8,524.9,507.1,525.4,506.4,525.3L506.4,525.3z M509.2,525.3
	c-0.4,0-0.7-0.1-1-0.3c-0.6-0.4-0.9-1-0.9-1.7h1.1c0,0.2,0.1,0.3,0.2,0.5c0.2,0.1,0.4,0.2,0.6,0.2s0.4,0,0.6-0.1
	c0.1,0,0.2-0.1,0.3-0.3c0-0.1,0-0.2,0-0.3l-0.4-1.3l1.1-0.3l0.4,1.4c0.1,0.4,0.1,0.8,0,1.2s-0.4,0.7-0.7,0.9
	C510.1,525.2,509.6,525.3,509.2,525.3z M512.3,525.3c-0.5,0-1.1-0.2-1.5-0.5c-0.4-0.4-0.7-0.9-0.8-1.4l1-0.4
	c0.1,0.3,0.2,0.5,0.4,0.7c0.2,0.2,0.5,0.3,0.8,0.3L512.3,525.3z"/>
<path class="st3" d="M521,524.3c-0.3-0.1-0.6-0.4-0.8-0.7s-0.3-0.6-0.4-1c0-0.4,0-0.8,0.2-1.1s0.4-0.6,0.7-0.8s0.6-0.3,1-0.4
	c0.3,0,0.7,0,1,0.2s0.6,0.4,0.8,0.7s0.3,0.7,0.4,1c0,0.4,0,0.8-0.2,1.1c-0.3,0.6-0.8,1.1-1.4,1.4c-0.7,0.4-1.5,0.5-2.3,0.5h-7.8V524
	h7.8c0.5,0,0.9,0,1.4-0.1c0.3-0.1,0.6-0.2,0.8-0.4s0.4-0.4,0.5-0.6c0.2-0.4,0-0.9-0.4-1.1c-0.1-0.1-0.3-0.1-0.4-0.1
	c-0.1,0-0.3,0-0.4,0.1c-0.1,0.1-0.2,0.2-0.3,0.3c-0.1,0.2-0.1,0.4-0.1,0.6c0.1,0.2,0.2,0.4,0.4,0.5l2.4,1.2c0.2,0.1,0.4,0.1,0.6,0
	c0.2-0.1,0.4-0.2,0.4-0.4c0.1-0.2,0.1-0.4,0-0.6c-0.1-0.2-0.2-0.4-0.4-0.5l-4-2l0.5-1.2l3.9,2.1c0.3,0.2,0.6,0.4,0.8,0.7
	s0.3,0.6,0.3,1c0,0.3,0,0.7-0.2,1s-0.4,0.6-0.7,0.8s-0.6,0.3-0.9,0.4c-0.3,0-0.7,0-1-0.2L521,524.3z"/>
<path class="st3" d="M533.9,529.2c-0.5,0.1-1.1,0.1-1.7,0c-0.5-0.1-1-0.4-1.4-0.8c-0.4-0.4-0.7-0.8-0.8-1.4c-0.1-0.5-0.1-1.1,0-1.6
	c0.1-0.6,0.4-1.1,0.9-1.4c0.5-0.5,1.1-0.8,1.8-0.9l3-0.8v0.3l-2.4-1.3c-0.2-0.1-0.4-0.1-0.6-0.1c-0.2,0-0.4,0.1-0.6,0.2
	c-0.2,0.1-0.3,0.3-0.5,0.4l-0.2,0.3l-1-0.7l0.2-0.4c0.2-0.4,0.5-0.7,0.9-0.9c0.3-0.2,0.7-0.3,1.1-0.3c0.4,0,0.8,0.1,1.2,0.3l3,1.7
	l-0.2,1.6l-3.6,1c-0.4,0.1-0.9,0.3-1.2,0.6c-0.3,0.2-0.4,0.5-0.5,0.8c-0.2,0.6,0,1.3,0.5,1.7c0.3,0.2,0.6,0.4,0.9,0.5
	c0.3,0.1,0.7,0.1,1.1,0l2.8-0.8l0.3,1.3L533.9,529.2z"/>
<path class="st3" d="M538.2,517.8l1.2-0.1l0.3,7.6l-1.2,0.1L538.2,517.8z"/>
<path class="st3" d="M540.1,526.8h0.2l0.2-0.1c0.4-0.1,0.8-0.2,1.1-0.4c0.2-0.1,0.4-0.2,0.5-0.4s0.2-0.5,0.1-0.8l-0.4-3.2l1.2-0.2
	l0.4,3.2c0.1,0.5,0,1-0.2,1.5c-0.2,0.4-0.5,0.7-0.9,0.9c-0.5,0.3-1,0.5-1.6,0.6l-0.2,0.1l-0.2,0.1L540.1,526.8z M543.9,525.3
	c-0.4,0-0.7-0.1-1-0.3s-0.5-0.5-0.6-0.8c-0.2-0.5-0.3-1.1-0.4-1.7v-0.2l1.1-0.2v0.1c0,0.4,0.1,0.8,0.2,1.2c0,0.2,0.1,0.3,0.2,0.5
	c0.1,0.1,0.2,0.1,0.4,0.1h0.2v1.4L543.9,525.3L543.9,525.3z"/>
<path class="st3" d="M543.8,523.9h7.3c0.6,0,1.2,0,1.6,0c0.5,0,0.9-0.1,1.4-0.2l2.7-0.7v0.3l-2.4-1.3l0,0c-0.2-0.1-0.4-0.1-0.6-0.1
	c-0.2,0-0.4,0.1-0.6,0.2c-0.2,0.1-0.3,0.3-0.4,0.5l-0.2,0.3l-1.1-0.7l0.2-0.4c0.2-0.4,0.5-0.7,0.9-1c0.3-0.2,0.7-0.3,1.1-0.3
	c0.4,0,0.8,0.1,1.2,0.3l2.8,1.7l-0.2,1.6l-3.2,0.9c-0.5,0.1-1,0.2-1.5,0.3c-0.5,0-1.1,0.1-1.7,0.1h-7.3V523.9z M553.5,526.9l1-1
	l0.9,1l-0.9,1L553.5,526.9z"/>
<path class="st3" d="M566.3,525.3c-0.8,0-1.5,0-1.9,0c-0.3,0-0.7,0-1-0.1c-0.2,0-0.5-0.1-0.7-0.2l0,0c-0.5-0.2-0.8-0.5-1-1
	s-0.2-1.1,0-1.6l0.4-1.6l1.2,0.3l-0.4,1.7c0,0.2,0,0.4,0,0.6c0.1,0.2,0.2,0.3,0.4,0.3l0,0c0.1,0.1,0.3,0.1,0.4,0.1
	c0.3,0,0.6,0.1,0.9,0.1h1.8L566.3,525.3z M566.3,523.9h2.4c0.1,0,0.1,0,0.2,0c0.1,0,0.1,0,0.2-0.1c0.1-0.1,0.1-0.1,0.2-0.2
	c0-0.1,0-0.2,0-0.3s0-0.2-0.1-0.3l-2.5-3.5l0.3-1l4-1.5l0.4,1.3l-3.5,1.3l0.1-0.3l2,3c0.2,0.3,0.3,0.6,0.4,0.9
	c0.1,0.3,0.1,0.6,0,0.8c-0.1,0.5-0.5,0.9-0.9,1.1c-0.3,0.1-0.5,0.2-0.8,0.2h-2.4L566.3,523.9z M571.9,525.3c-0.3,0-0.6-0.1-0.9-0.2
	c-0.3-0.1-0.6-0.3-0.8-0.6c-0.3-0.3-0.5-0.6-0.7-1c-0.1-0.2-0.2-0.4-0.3-0.5l0.9-0.6l0.2,0.3c0.1,0.1,0.1,0.2,0.2,0.2
	c0.1,0.2,0.3,0.4,0.5,0.6c0.1,0.1,0.3,0.2,0.5,0.3s0.3,0.1,0.5,0.1h0.1v1.4H571.9z"/>
<path class="st3" d="M571.9,523.9h8.8c0.2,0,0.4,0,0.7-0.1c0.2-0.1,0.3-0.2,0.3-0.3c0.1-0.2,0.1-0.5,0-0.7l-0.4-1.7l1.2-0.3l0.5,1.7
	c0.1,0.5,0.1,1,0,1.5c-0.1,0.4-0.4,0.8-0.8,1c-0.4,0.2-0.9,0.4-1.3,0.3H572L571.9,523.9z M578.9,526.9l0.8-0.8l0.8,0.8l-0.8,0.8
	L578.9,526.9z M581,526.9l0.8-0.8l0.8,0.8l-0.8,0.8L581,526.9z"/>
<path class="st3" d="M590.6,527.9c-0.9,0.3-1.8,0.2-2.5-0.3c-0.7-0.4-1.2-1.2-1.3-2c-0.2-1.1,0-2.1,0.4-3.2l1.2,0.5
	c-0.3,0.7-0.4,1.5-0.4,2.2c0,0.5,0.3,1,0.7,1.3c0.5,0.3,1.1,0.3,1.7,0.1h0.2h0.1c0.3-0.1,0.7-0.2,1-0.3c0.2-0.1,0.4-0.2,0.5-0.4
	s0.1-0.5,0.1-0.8s-0.2-1.3-0.4-3l1.2-0.2c0.3,1.7,0.4,2.7,0.4,3.1c0.1,0.5,0.1,1-0.1,1.5c-0.2,0.4-0.4,0.7-0.8,0.9
	c-0.5,0.3-1,0.5-1.5,0.6l-0.2,0.1L590.6,527.9z M589,521.8l0.9-1l1,1l-1,1L589,521.8z M593.9,525.3c-0.4,0-0.7-0.1-1-0.4
	c-0.3-0.3-0.6-0.7-0.7-1.1c-0.2-0.6-0.4-1.2-0.4-1.8l0,0l0,0l1.2-0.2c0,0.1,0,0.2,0,0.3c0.1,0.4,0.1,0.8,0.2,1.2
	c0,0.2,0.1,0.4,0.3,0.5c0.1,0.1,0.3,0.1,0.4,0.1h0.3v1.4H593.9z"/>
<path class="st3" d="M594.1,523.9h7.3c0.2,0,0.4,0,0.5-0.1c0.2-0.1,0.3-0.2,0.4-0.4l0.8-1.6c0.1-0.3,0.4-0.5,0.6-0.7
	c0.3-0.2,0.6-0.3,0.9-0.3c0.3,0,0.6,0.1,0.9,0.2c0.4,0.2,0.6,0.5,0.8,0.9s0.3,0.8,0.2,1.3c0,0.5-0.2,0.9-0.4,1.4
	c-0.1,0.2-0.3,0.4-0.5,0.5c-0.4,0.3-1,0.3-1.4,0.1l-1.7-0.9l0.6-1.2l1.8,0.9h0.1h0.1v-0.1c0.1-0.2,0.2-0.5,0.3-0.7s0.1-0.4,0-0.6
	c-0.1-0.2-0.2-0.3-0.3-0.4c-0.1-0.1-0.3-0.1-0.4-0.1c-0.1,0-0.3,0.1-0.4,0.2c-0.1,0.1-0.2,0.2-0.3,0.4l-0.7,1.3
	c-0.2,0.4-0.5,0.7-0.8,1c-0.3,0.2-0.7,0.3-1.2,0.3H594L594.1,523.9z"/>
<path class="st3" d="M445.8,674.7c-0.5,0-0.9-0.4-0.9-0.9c0-0.2,0.1-0.4,0.3-0.6c0.2-0.2,0.4-0.3,0.6-0.3c0.5,0,0.9,0.4,0.9,0.8
	c0,0.2-0.1,0.5-0.3,0.6C446.3,674.6,446,674.7,445.8,674.7z M445.1,666.8h1.4l-0.1,5.3h-1.1L445.1,666.8z"/>
<path class="st3" d="M447.9,672.2l0.8-0.6l2.8,1.5h0.1c0.1,0,0.1,0,0.1-0.1c0.1-0.2,0.2-0.5,0.3-0.8c0.1-0.2,0.1-0.4,0-0.6
	c-0.1-0.2-0.2-0.3-0.4-0.4c-0.1-0.1-0.3-0.1-0.4-0.1s-0.3,0.1-0.4,0.2c-0.1,0.1-0.2,0.2-0.3,0.4L450,673l-1-0.6l0.8-1.5
	c0.1-0.3,0.4-0.5,0.6-0.7c0.5-0.3,1.2-0.4,1.8-0.1c0.4,0.2,0.6,0.5,0.8,0.9c0.2,0.4,0.3,0.8,0.2,1.3c0,0.5-0.2,0.9-0.4,1.4
	c-0.1,0.2-0.3,0.4-0.5,0.5s-0.4,0.2-0.7,0.2c-0.2,0-0.5,0-0.7-0.2l-1.8-0.9l0.2,4.3h-1.2L447.9,672.2z M454.1,674.3
	c-0.4,0-0.8-0.1-1.1-0.3c-0.3-0.2-0.5-0.5-0.7-0.8c-0.2-0.4-0.2-0.8-0.2-1.2h1c0,0.2,0,0.3,0.1,0.5c0.1,0.1,0.2,0.2,0.3,0.3
	c0.2,0.1,0.3,0.1,0.5,0.1L454.1,674.3z"/>
<path class="st3" d="M454,673h8.9c0.2,0,0.5,0,0.7-0.2c0.1-0.1,0.2-0.3,0.2-0.5l-0.1-1.4l1.2-0.1l0.1,1.4c0,0.4,0,0.8-0.2,1.1
	c-0.1,0.3-0.4,0.6-0.7,0.7c-0.4,0.2-0.7,0.3-1.1,0.3h-9V673z M461.2,669.1l0.8-0.8l0.8,0.8l-0.8,0.8L461.2,669.1z M463.4,669.1
	l0.8-0.8l0.9,0.8l-0.9,0.8L463.4,669.1z M465.8,674.4c-0.5,0-1-0.2-1.4-0.5c-0.4-0.4-0.6-0.9-0.6-1.5l1.2-0.1c0,0.2,0,0.3,0.1,0.5
	c0,0.1,0.1,0.2,0.2,0.2c0.2,0,0.3,0.1,0.5,0.1L465.8,674.4L465.8,674.4z"/>
<path class="st3" d="M465.6,673h7.4c0.2,0,0.5,0,0.7-0.2c0.1-0.1,0.2-0.3,0.2-0.5v-1.4h1.2v1.4c0,0.3-0.1,0.7-0.2,1
	c-0.2,0.3-0.4,0.6-0.7,0.8c-0.3,0.2-0.7,0.3-1.1,0.3h-7.4L465.6,673z M475.8,674.4c-0.4,0-0.7-0.1-1-0.3s-0.5-0.5-0.6-0.8
	c-0.2-0.3-0.2-0.7-0.2-1h1.1c0,0.2,0.1,0.4,0.2,0.5c0.2,0.1,0.4,0.2,0.6,0.2h0.1c0.2,0,0.3,0,0.5-0.1c0.1-0.1,0.2-0.1,0.2-0.2
	c0-0.1,0.1-0.2,0-0.3V671h1.1v1.4c0,0.3-0.1,0.7-0.2,1C477.2,674,476.5,674.4,475.8,674.4L475.8,674.4z M478.5,674.4
	c-0.4,0-0.7-0.1-1-0.3c-0.6-0.4-0.9-1-0.9-1.7h1.1c0,0.2,0.1,0.3,0.2,0.5c0.2,0.1,0.4,0.2,0.6,0.2s0.4,0,0.6-0.1
	c0.1,0,0.2-0.1,0.3-0.2c0-0.1,0-0.2,0-0.3L479,671l1.1-0.3l0.4,1.4c0.1,0.4,0.1,0.8,0,1.2s-0.4,0.7-0.7,0.9
	C479.4,674.3,479,674.4,478.5,674.4L478.5,674.4z M481.6,674.4c-0.5,0-1-0.2-1.4-0.5c-0.4-0.4-0.7-0.9-0.8-1.4l1-0.4
	c0.1,0.3,0.2,0.5,0.4,0.7c0.2,0.2,0.5,0.3,0.8,0.3V674.4z"/>
<path class="st3" d="M490.3,673.3c-0.3-0.2-0.6-0.4-0.8-0.7c-0.2-0.3-0.3-0.6-0.4-1c0-0.4,0-0.8,0.2-1.1s0.4-0.6,0.7-0.8
	c0.9-0.6,2.1-0.4,2.8,0.4c0,0,0,0.1,0.1,0.1c0.2,0.3,0.3,0.7,0.4,1.1c0,0.4,0,0.8-0.2,1.1c-0.3,0.6-0.8,1.1-1.4,1.4
	c-0.7,0.4-1.5,0.5-2.3,0.5h-7.8V673h7.8c0.5,0,0.9,0,1.4-0.1c0.3-0.1,0.6-0.2,0.8-0.4c0.2-0.2,0.4-0.4,0.5-0.6
	c0.1-0.2,0.1-0.4,0-0.6c-0.1-0.2-0.2-0.4-0.4-0.5c-0.1-0.1-0.3-0.1-0.4-0.1s-0.3,0-0.4,0.1s-0.2,0.2-0.3,0.3
	c-0.1,0.2-0.1,0.4-0.1,0.6c0.1,0.2,0.2,0.4,0.4,0.5l2.4,1.2c0.2,0.1,0.4,0.1,0.6,0s0.3-0.2,0.4-0.4s0.1-0.4,0-0.6
	c-0.1-0.2-0.2-0.4-0.4-0.5l-4-2l0.6-1.2l3.9,2.1c0.3,0.2,0.6,0.4,0.8,0.7c0.2,0.3,0.3,0.6,0.3,1c0,0.3,0,0.7-0.2,1s-0.4,0.6-0.7,0.8
	c-0.3,0.2-0.6,0.3-0.9,0.3s-0.7,0-1-0.2L490.3,673.3z"/>
<path class="st3" d="M503.1,677c-0.8,0.3-1.8,0.2-2.5-0.3c-0.7-0.4-1.2-1.2-1.3-2c-0.2-1.1,0-2.2,0.4-3.2l1.2,0.5
	c-0.3,0.7-0.4,1.5-0.4,2.2c0,0.5,0.3,1,0.7,1.3c0.5,0.3,1.1,0.3,1.7,0.1h0.1h0.1c0.3-0.1,0.7-0.2,1-0.3c0.2-0.1,0.4-0.2,0.5-0.3
	c0.1-0.2,0.1-0.4,0.1-0.6c0-0.1-0.2-0.3-0.5-0.4c-0.4-0.2-0.7-0.3-1.1-0.4l0.4-1.3l0,0c0.5,0.2,1,0.5,1.5,0.9
	c0.5,0.2,0.8,0.7,0.9,1.2c0.1,0.4,0,0.8-0.2,1.2c-0.2,0.3-0.5,0.6-0.8,0.8c-0.5,0.3-1,0.4-1.5,0.6H503.1L503.1,677z M506.5,674.4
	c-0.3,0-0.6,0-0.9,0s-0.5-0.1-0.8-0.2c-0.3-0.1-0.7-0.2-1.1-0.3l-0.3-0.1l-0.3-0.1l0.4-1.3l0,0h0.1c0.9,0.3,1.5,0.4,1.9,0.5
	s0.7,0.1,1.1,0.1L506.5,674.4z"/>
<path class="st3" d="M506.4,673h8.9c0.2,0,0.5,0,0.7-0.2c0.1-0.1,0.2-0.3,0.2-0.5L516,671l1.2-0.1l0.1,1.4c0,0.4,0,0.8-0.2,1.1
	c-0.1,0.3-0.4,0.6-0.7,0.7c-0.4,0.2-0.7,0.3-1.2,0.3h-8.9L506.4,673z M513.7,669.1l0.8-0.8l0.8,0.8l-0.8,0.8L513.7,669.1z
	 M515.8,669.1l0.8-0.8l0.8,0.8l-0.8,0.8L515.8,669.1z M518.2,674.4c-0.5,0-1-0.2-1.4-0.5c-0.4-0.4-0.6-0.9-0.6-1.5l1.2-0.1
	c0,0.2,0,0.3,0.1,0.5c0,0.1,0.1,0.2,0.2,0.2c0.2,0,0.3,0.1,0.5,0.1V674.4z"/>
<path class="st3" d="M518.1,673h7.3c0.7,0,1.4,0,2.1-0.2c0.5-0.1,1-0.2,1.4-0.5c0.3-0.2,0.6-0.5,0.7-0.9c0-0.1,0-0.1,0-0.2
	c0-0.1-0.1-0.1-0.1-0.2c-0.1,0-0.1,0-0.2,0l-1.9,0.2l1.2,1.5c0.1,0.1,0.3,0.1,0.4,0.1c0.3,0,0.5,0.1,0.8,0.1s0.8,0,1.3,0h0.2v1.4
	H531c-0.8,0-1.3,0-1.8-0.1c-0.4,0-0.8-0.1-1.1-0.3s-0.6-0.4-0.8-0.7l-1.5-2l0.3-1.1l2.7-0.4c0.4-0.1,0.8,0,1.1,0.3
	c0.3,0.2,0.5,0.5,0.7,0.9c0.1,0.4,0.1,0.8,0,1.1c-0.2,0.5-0.6,0.9-1.1,1.2c-0.6,0.4-1.2,0.6-1.9,0.8s-1.4,0.3-2.1,0.3h-7.3
	L518.1,673z"/>
<path class="st3" d="M531,673h7.8c0.2,0,0.5,0,0.7-0.2c0.1-0.1,0.2-0.3,0.2-0.5l-0.1-1.4l1.2-0.1l0.1,1.4c0,0.4,0,0.8-0.2,1.1
	s-0.4,0.6-0.7,0.7c-0.3,0.2-0.7,0.3-1.1,0.3H531V673z M538.4,669.1l1-1l0.9,1l-0.9,0.9L538.4,669.1z M541.7,674.4
	c-0.5,0-1-0.2-1.4-0.5c-0.4-0.4-0.6-0.9-0.6-1.5l1.2-0.1c0,0.2,0,0.3,0.1,0.5c0,0.1,0.1,0.2,0.2,0.2c0.1,0.1,0.3,0.1,0.5,0.1V674.4z
	"/>
<path class="st3" d="M541.5,673h7.2c0.2,0,0.5,0,0.7-0.2c0.2-0.1,0.3-0.3,0.3-0.6l1.2,0.1c0,0.4-0.1,0.8-0.3,1.1s-0.5,0.5-0.8,0.7
	s-0.7,0.2-1.1,0.2h-7.2L541.5,673z M551.3,674.4c-0.3,0-0.6-0.1-0.9-0.3c-0.3-0.2-0.5-0.5-0.6-0.8s-0.2-0.7-0.1-1l0.1-1.4l1.2,0.1
	l-0.1,1.4c0,0.2,0,0.3,0.1,0.5c0.1,0.1,0.2,0.2,0.3,0.2V674.4z M551.3,673h3.5c0.2,0,0.3,0,0.5-0.1c0.1-0.1,0.3-0.2,0.4-0.3
	c0.1-0.1,0.1-0.2,0.1-0.4c0-0.3-0.1-0.5-0.3-0.7s-0.5-0.3-0.7-0.3s-0.4,0.1-0.5,0.2c-0.2,0.1-0.4,0.3-0.5,0.5
	c-0.2,0.2-0.4,0.5-0.7,1l-1,1.3l-1-0.8l0.9-1.3c0.4-0.6,0.7-1,1-1.3c0.2-0.3,0.5-0.5,0.8-0.7s0.7-0.2,1-0.2c0.4,0,0.8,0.1,1.1,0.3
	s0.6,0.5,0.8,0.9s0.3,0.8,0.3,1.2s-0.1,0.8-0.3,1.1s-0.5,0.6-0.8,0.8s-0.7,0.3-1.1,0.3h-3.5V673z"/>
<path class="st3" d="M564.7,678.2c-0.5,0.1-1.1,0.1-1.7,0c-0.5-0.1-1-0.4-1.4-0.8c-0.4-0.4-0.7-0.9-0.8-1.4s-0.1-1.1,0-1.6
	c0.2-0.6,0.5-1,0.9-1.4c0.5-0.5,1.1-0.8,1.8-0.9l3-0.8v0.3l-2.5-1.3c-0.2-0.1-0.4-0.1-0.6-0.1c-0.2,0-0.4,0.1-0.6,0.2
	c-0.2,0.1-0.3,0.3-0.5,0.4l-0.2,0.3l-1-0.7l0.2-0.4c0.2-0.4,0.5-0.7,0.9-0.9c0.3-0.2,0.7-0.3,1.1-0.3c0.4,0,0.8,0.1,1.2,0.3l3,1.7
	l-0.2,1.6l-3.6,1c-0.4,0.1-0.9,0.3-1.2,0.6c-0.3,0.2-0.4,0.5-0.5,0.8s-0.1,0.6,0,0.9c0.1,0.3,0.3,0.6,0.5,0.8
	c0.3,0.2,0.6,0.4,0.9,0.5c0.3,0.1,0.7,0.1,1.1,0l2.8-0.8l0.3,1.3L564.7,678.2z"/>
<path class="st3" d="M569,666.8l1.2-0.1l0.3,7.6l-1.2,0.1L569,666.8z"/>
<path class="st3" d="M571,675.8h0.2c0.1,0,0.1,0,0.2-0.1c0.4-0.1,0.8-0.2,1.1-0.4c0.2-0.1,0.4-0.2,0.5-0.4s0.2-0.5,0.1-0.8l-0.4-3.2
	l1.2-0.2l0.4,3.2c0.1,0.5,0,1-0.2,1.5c-0.2,0.4-0.5,0.7-0.9,0.9c-0.5,0.3-1,0.5-1.6,0.6l-0.2,0.1l-0.2,0.1L571,675.8z M574.8,674.3
	c-0.4,0-0.7-0.1-1-0.3s-0.5-0.5-0.6-0.8c-0.2-0.5-0.3-1.1-0.4-1.7v-0.2l1.1-0.2v0.1c0,0.4,0.1,0.8,0.2,1.1c0,0.2,0.1,0.3,0.2,0.5
	c0.1,0.1,0.2,0.1,0.4,0.1h0.1V674.3L574.8,674.3z"/>
<path class="st3" d="M574.7,673h7.2v1.4h-7.2V673z M581.8,673h1.8v1.4h-1.8V673z M582.8,673h3.5c0.2,0,0.3,0,0.5-0.1
	s0.3-0.2,0.4-0.3c0.1-0.1,0.1-0.2,0.1-0.4c0-0.3-0.1-0.5-0.3-0.7s-0.4-0.3-0.7-0.3c-0.2,0-0.4,0.1-0.5,0.2c-0.2,0.1-0.4,0.3-0.5,0.5
	c-0.2,0.2-0.4,0.5-0.7,1l-1,1.3l-0.9-0.8l0.9-1.3c0.4-0.5,0.7-1,1-1.3c0.2-0.3,0.5-0.5,0.8-0.7s0.7-0.2,1-0.2c0.4,0,0.8,0.1,1.1,0.3
	s0.6,0.5,0.8,0.9s0.3,0.8,0.3,1.2s-0.1,0.8-0.3,1.1s-0.5,0.6-0.8,0.8s-0.7,0.3-1.1,0.3h-3.5L582.8,673z M583,666.8l1.2-0.1l0.2,5.6
	l-1.2,0.6L583,666.8z"/>
<path class="st3" d="M597,674.3h-1.9c-0.3,0-0.7,0-1-0.1c-0.2,0-0.5-0.1-0.7-0.2l0,0c-0.5-0.2-0.8-0.5-1-1s-0.2-1.1,0-1.6l0.4-1.6
	l1.2,0.3l-0.4,1.7c-0.1,0.2-0.1,0.4,0,0.6c0.1,0.2,0.2,0.3,0.4,0.3l0,0c0.1,0.1,0.3,0.1,0.4,0.1c0.3,0,0.6,0,0.9,0c0.4,0,1,0,1.8,0
	L597,674.3z M597,673h2.4h0.2c0.1,0,0.1,0,0.2-0.1c0.1,0,0.1-0.1,0.2-0.2c0-0.1,0-0.2,0-0.3s0-0.2-0.1-0.3l-2.5-3.5l0.3-1l4-1.5
	l0.4,1.3l-3.5,1.3l0.1-0.3l2,3c0.2,0.3,0.3,0.6,0.4,0.9c0.1,0.3,0.1,0.6,0,0.8c-0.1,0.5-0.5,0.9-0.9,1.1c-0.3,0.1-0.5,0.2-0.8,0.2
	H597L597,673z M602.6,674.3c-0.3,0-0.6-0.1-0.9-0.2c-0.3-0.1-0.6-0.3-0.8-0.6c-0.3-0.3-0.5-0.6-0.7-1c-0.1-0.2-0.2-0.4-0.3-0.5
	l0.9-0.6c0,0.1,0.1,0.2,0.2,0.3c0,0.1,0.1,0.2,0.2,0.2c0.1,0.2,0.3,0.4,0.5,0.6c0.1,0.1,0.3,0.2,0.4,0.3c0.2,0.1,0.3,0.1,0.5,0.1
	h0.2v1.4H602.6z"/>
<path class="st3" d="M602.6,673h8.8c0.2,0,0.4,0,0.7-0.1c0.2-0.1,0.3-0.2,0.3-0.3c0.1-0.2,0.1-0.5,0-0.7l-0.4-1.7l1.2-0.3l0.5,1.7
	c0.2,0.5,0.2,1,0,1.5c-0.1,0.4-0.4,0.8-0.8,1c-0.4,0.2-0.9,0.4-1.3,0.3h-8.8L602.6,673z M609.6,676l0.8-0.8l0.8,0.8l-0.8,0.8
	L609.6,676z M611.7,676l0.8-0.8l0.8,0.8l-0.8,0.8L611.7,676z"/>
<path class="st3" d="M621.3,677c-0.9,0.3-1.8,0.2-2.5-0.3c-0.7-0.4-1.2-1.2-1.3-2c-0.2-1.1,0-2.2,0.3-3.2l1.2,0.4
	c-0.3,0.7-0.4,1.5-0.4,2.2c0,0.5,0.3,1,0.7,1.3c0.5,0.3,1.1,0.3,1.7,0.1h0.2h0.1c0.3-0.1,0.7-0.2,1-0.3c0.2-0.1,0.4-0.2,0.5-0.4
	s0.1-0.5,0.1-0.8s-0.2-1.3-0.5-3l1.2-0.2c0.3,1.7,0.4,2.7,0.5,3.1c0.1,0.5,0,1-0.1,1.5c-0.2,0.4-0.4,0.7-0.8,0.9
	c-0.5,0.3-1,0.5-1.5,0.6h-0.2h-0.2V677z M619.7,670.9l1-1l0.9,1l-0.9,1L619.7,670.9z M624.6,674.4c-0.4,0-0.7-0.1-1-0.4
	c-0.3-0.3-0.6-0.7-0.7-1.1c-0.2-0.6-0.4-1.2-0.5-1.8l0,0l0,0l1.2-0.2c0,0.1,0,0.2,0,0.3c0.1,0.4,0.1,0.8,0.2,1.2
	c0,0.2,0.1,0.4,0.3,0.5c0.1,0.1,0.3,0.2,0.4,0.1h0.3v1.4H624.6z"/>
<path class="st3" d="M624.8,673h7.2c0.2,0,0.4,0,0.5-0.1c0.2-0.1,0.3-0.2,0.4-0.4l0.8-1.6c0.1-0.3,0.4-0.5,0.6-0.7
	c0.3-0.2,0.6-0.3,0.9-0.3c0.3,0,0.6,0.1,0.9,0.2c0.4,0.2,0.6,0.5,0.8,0.9s0.3,0.8,0.2,1.3c0,0.5-0.2,0.9-0.4,1.4
	c-0.1,0.2-0.3,0.4-0.5,0.5s-0.4,0.2-0.7,0.2s-0.5,0-0.7-0.2l-1.7-0.9l0.6-1.2l1.8,0.9h0.1h0.1v-0.1c0.1-0.2,0.2-0.5,0.3-0.7
	s0.1-0.4,0-0.6c-0.1-0.2-0.2-0.3-0.3-0.4c-0.1-0.1-0.3-0.1-0.4-0.1c-0.1,0-0.3,0.1-0.4,0.2c-0.1,0.1-0.2,0.2-0.3,0.4L634,673
	c-0.2,0.4-0.5,0.7-0.8,1c-0.3,0.2-0.7,0.3-1.2,0.3h-7.2V673z"/>
<path class="st7" d="M536,468.2c0.7,0.1,0.4,0.6,0.4,1c-0.6,3.6-0.6,7.3,0.1,10.9c0.9,4.7,2.6,5.7,7,4c1.3-0.5,2.5-1.1,3.9-1.8
	c-0.7,5-1.4,4.7-2.1,9.6h12.5c-1.2-5.6-2.4-6.1-3.6-11.7c-0.3-1.1-0.8-2.1-1-3.1c-0.2-0.8-0.1-1.3,0.7-1.6c1.5-0.9,2.3-2.6,2.1-4.3
	c-0.1-1.3-1-2.4-2.2-2.8c-1.6-0.4-3.2-0.4-4.4,1s-1.7,1.4-2.1-0.4c-0.5-2.8-2.4-5.1-5.1-5.9c-2.2-0.8-2.4-1-3.8,1
	C537.4,465.3,536.7,466.7,536,468.2z"/>
<path class="st8" d="M536,468.2c0.6-0.3,1-0.8,1.2-1.5c0.5-1.6,1.5-3,2.8-4c0.3-0.2,0.6-0.6,1-0.1c0.7,0.8,1.7,1.3,2.7,1.5
	c1.3,0.3,2.3,1.4,2.6,2.8c0.2,1.2,0.7,2.4,1.4,3.5c0.7,1,1,1,1.5,0c1.1-2.2,2.9-2.2,5-1.6c1.2,0.4,1.5,1.5,1.6,2.6
	c0.1,1.7-0.9,3.3-2.6,3.9c-0.3,0.1-0.5,0.4-0.4,0.8l0,0c0.3,1.5,0.3,3,1.5,4.1c1.5-0.3,3,0.2,4,1.3c1,1,2.6,1.1,3.8,0.3
	c0.3-0.2,0.7-0.2,1,0.1c1.2,0.9,2.9,1,4.2,0.1c1.3-0.8,1.9-2.3,1.5-3.7c0-0.3-0.2-0.6,0.2-0.8c1.8-1.2,1.5-2.9,1-4.5
	c-0.3-0.7-0.2-1.4,0.2-2c0.6-1.1,0.6-2.4,0-3.5c-0.2-0.5-0.2-1.1,0-1.6c1-2.3-0.1-5-2.5-5.9c-0.1-0.1-0.3-0.1-0.4-0.1
	c-0.2-0.1-0.6-0.1-0.6-0.2c-0.2-2-2.3-2.4-3.2-3.9s-2.1-2.7-4.1-1.9c-0.4,0.2-0.5-0.1-0.7-0.4c-1.1-1.4-3-1.9-4.7-1.3
	c-0.6,0.2-1-0.3-1.5-0.2c-1.8,0.3-3.1-0.7-4.7-1.3c-1.7-0.8-3.7-0.6-5.2,0.5c-0.4,0.3-0.9,0.3-1.3,0c-2.2-1-4.7-0.1-5.8,2.1
	c0,0.1-0.1,0.1-0.1,0.2c-0.1,0.3-0.2,0.6-0.6,0.7c-2.4,0.8-3,2.5-1.9,4.7c0.1,0.3,0.3,0.5,0.5,0.8c0.6,0.6,1,1,0.2,1.9
	c-0.6,0.6-0.2,1.7,0.3,2.4c0.3,0.4,0.5,0.7,0,1.3c-0.5,0.5-0.6,1.4-0.2,2C534.1,468.1,535.1,468.4,536,468.2z"/>
<path class="st1" d="M552,635c0.6,0.3,0.3,0.7,0.3,1.1c-0.8,5.7-1.6,5-2.4,10.7H565c-1.6-7.3-3.2-8.3-4.7-15.6
	c-0.1-0.5-0.1-0.9-0.1-1.4c-0.4-0.7-0.9-1.4-1.5-2c-0.8-0.8-1-2-0.5-3c0.7-1.7,0-3.7-1.5-4.7c-0.7-0.7-1.6-0.9-2.5-0.6
	c-0.9,0.4-0.9,1.3-0.9,2.2c0,3.2-0.3,6.4-0.7,9.6C552.4,632.4,551.6,633.6,552,635z"/>
<path class="st3" d="M552,635c1.4-4.3,1.5-8.8,1.7-13.2c0-0.7-0.3-1.8,0.5-2.1c1-0.2,1.9,0.2,2.6,0.9c1.3,1.1,1.7,3,0.8,4.4
	c-0.6,0.7-0.5,1.7,0.2,2.3l0,0c0.8,0.8,1.1,2.1,2.4,2.4c4.1-3.1,5.4-7.3,4.6-12.3c-0.4-2-1-3.9-1.9-5.6c-2-4.4-8.1-6.5-11.7-6.1
	c-3.1,0.2-6.2,0.8-9.1,1.8c-2.3,0.8-2.7,1.7-1.8,4c0.2,0.4,0.4,0.7,0.6,1.1c1,1.1,2.5,1.6,4,1.4c2.9-0.2,4.4,1.7,5.8,3.7
	c0.2,0.3,0.3,0.6,0.3,0.9c-0.3,3-0.5,6.1-1.8,8.9c-0.9,2-1.8,2.4-3.9,2c-1.7-0.4-3.4-0.9-5-1.6c-0.7-0.3-1.4-0.6-2.1-0.2
	c-1.6,1.2-0.3,2,0.3,3c0.4,0.6,1,1.1,1.8,1.5c0.5,0.3,1.1,0.5,1,1.2s-0.8,0.5-1.3,0.7c-0.2,0.1-0.4,0.2-0.5,0.3
	c-0.2,4.1,0.4,4.7,4.4,4C547,638,549.9,637.3,552,635z"/>
<path class="st1" d="M538.4,627.6c2.3,0.3,4.2,1.6,6.4,2.1c3,0.6,4.2,0,5.2-2.8c0.9-2.8,1.4-5.6,1.6-8.5c0-0.4-0.1-0.8-0.4-1.2
	c-1.6-2.3-3.4-4.3-6.6-3.8c-1.3,0-2.5-0.3-3.6-1c-1.9,3.5-2.3,7.4-2.5,11.2C538.4,625,538.4,626.3,538.4,627.6z"/>
<path class="st1" d="M539.7,634.4c0.8-0.2,2.1,0.3,2.3-0.8s-1-1.5-1.8-2.1c-0.5-0.3-1-0.6-1.5-0.9
	C538.9,631.9,539.2,633.2,539.7,634.4z"/>
<path class="st1" d="M538.9,302.8c-2.8,2.8-2.8,6.5-3.2,10.1c-0.5,3.6-0.2,7.3,0.9,10.7c1.1,3.3,2.5,4.1,5.8,3.1
	c1.8-0.5,3.5-1.4,5.7-2.3c-0.8,5.6-1.5,5.7-2.3,11h13.7c-1.2-5.5-2.3-5.9-3.5-11.4c0.2-0.5,0.1-1-0.3-1.3c-3.3-3.4-5.5-7.7-9.1-11
	c-2.3-2.2-4.3-4.6-5.9-7.3C540.4,303.8,540.2,302.6,538.9,302.8z"/>
<path class="st9" d="M558,323.5c4.3-0.3,6.9-2.4,8.2-6.6c2.6-8.7,0.5-14.3-7.5-18.5c-1.2-0.7-2.3-1.6-3.2-2.7
	c-1.5-1.8-3.5-2.6-5.7-1c-0.4,2.7,0.6,5.3,1.2,7.8c1.7,6.5,3.6,13,5.9,19.4C557.1,322.6,557.4,323.1,558,323.5z"/>
<path class="st10" d="M558,323.5c-1.9-6.4-3.8-12.7-5.8-19c-1-3.2-1.1-6.7-2.5-9.8c-0.1,0-0.3,0-0.4,0.1c-1.6,0.3-1.2,1.5-1,2.4
	c1,4.9,2.5,9.7,4.4,14.4c-2-4.7-3.4-9.7-5.1-14.5c-0.3-1-0.4-2.1-1.3-2.8l-1.7,0.5c-0.8,1.1-0.1,2.2,0.2,3.2
	c2.1,5.8,4.1,11.7,6.7,16c-3.2-5.4-5.8-11.1-8-17c-0.3-0.8-0.5-1.9-1.8-1.8l-1,0.2c-0.9,1.4,0.1,2.5,0.6,3.7
	c2.9,7.5,6.9,14.5,12,20.8C554.5,321.4,555.4,323.6,558,323.5L558,323.5z"/>
<path class="st11" d="M557.9,323.5c-3.5-1.2-5-4.5-6.9-7.3c-4.4-6.4-7.9-13.4-10.4-20.7c-2.7,0.4-3.6,1.8-2.9,4.1
	c0.3,1.1,0.7,2.1,1.1,3.2c5.1,7.6,11.8,13.9,17.2,21.2C556.8,323.9,557.5,324.1,557.9,323.5z"/>
<path class="st12" d="M541.8,295.3c1.5,1.8,2,4.1,2.8,6.2c2.2,5.4,5.1,10.5,8.5,15.3c-2.8-7.3-6.1-14.4-8.3-22
	C543.6,294,542.5,294,541.8,295.3z"/>
<path class="st13" d="M546.4,294.3c0.8,5.1,2.9,9.8,4.7,14.5c0.5,1.4,1.2,2.6,2.1,3.8c-0.9-3.1-1.8-6.3-2.6-9.4c-0.5-2-1-4-1.6-6
	c-0.3-0.9-0.5-1.7,0.3-2.3C548.4,294.5,547.5,293.3,546.4,294.3z"/>
<ellipse transform="matrix(0.1602 -0.9871 0.9871 0.1602 110.6391 787.6407)" class="st14" cx="518.2" cy="328.8" rx="6.6" ry="6.6"/>
<polyline class="st14" points="514.9,329.7 516.8,331.6 522,326.4 "/>
<polygon class="st15" points="516.8,333 514.2,330.4 515.6,329 516.8,330.2 521.3,325.7 522.7,327.1 "/>
<ellipse transform="matrix(0.1602 -0.9871 0.9871 0.1602 -43.84 919.0722)" class="st14" cx="518.2" cy="485.3" rx="6.6" ry="6.6"/>
<polyline class="st14" points="514.9,486.2 516.8,488.1 522,482.9 "/>
<polygon class="st15" points="516.8,489.5 514.2,486.9 515.6,485.5 516.8,486.6 521.3,482.2 522.7,483.6 "/>
<ellipse transform="matrix(0.9239 -0.3827 0.3827 0.9239 -205.5101 247.0315)" class="st14" cx="518.2" cy="640.1" rx="6.6" ry="6.6"/>
<polyline class="st14" points="514.9,641 516.8,642.9 522,637.7 "/>
<polygon class="st15" points="516.8,644.3 514.2,641.7 515.6,640.3 516.8,641.5 521.3,637 522.7,638.4 "/>
<path class="st3" d="M425.9,292.3H421c-1.1-0.1-2.1,0.3-3,0.9c-0.8,0.7-1.2,1.7-1.1,2.8v11.5c0,0.2,0.1,0.4,0.2,0.6l0.1,0.1l0.1,0.1
	c0.3,0.3,0.6,0.5,1,0.5c0.2,0,0.4-0.1,0.6-0.2l4.6-2.6l4.6,2.6c0.2,0.1,0.4,0.2,0.6,0.2c0.4,0,0.7-0.1,1-0.4s0.4-0.6,0.4-1v-11.6
	C430.1,293.6,428.6,292.3,425.9,292.3z M428.9,307.5v0.1l-0.1,0.1h-0.1l-4.6-2.6l0,0c-0.3-0.2-0.8-0.2-1.1,0l-4.6,2.6h-0.1
	c-0.1,0-0.1,0-0.1-0.1l0,0l0,0V296c0-1.7,1-2.5,3-2.5h5c2,0,3,0.8,3,2.3L428.9,307.5z"/>
<path class="st3" d="M425.9,446.3H421c-1.1,0-2.1,0.3-3,0.9c-0.8,0.7-1.2,1.7-1.1,2.7v11.5c0,0.2,0.1,0.4,0.2,0.6l0.1,0.1l0.1,0.1
	c0.4,0.5,1.1,0.6,1.7,0.3l4.6-2.6l4.6,2.6c0.2,0.1,0.4,0.2,0.6,0.2c0.4,0,0.7-0.1,1-0.4s0.4-0.6,0.4-1v-11.6
	C430.1,447.6,428.6,446.3,425.9,446.3z M428.9,461.5c0,0.1-0.1,0.2-0.2,0.2l0,0h-0.1L424,459l0,0c-0.3-0.2-0.8-0.2-1.1,0l-4.6,2.6
	h-0.1c-0.1,0-0.1,0-0.1-0.1l0,0l0,0V450c0-1.7,1-2.5,3-2.5h5c2,0,3,0.8,3,2.3L428.9,461.5z"/>
<path class="st3" d="M425.9,603.6H421c-1.1-0.1-2.1,0.3-3,0.9c-0.8,0.7-1.2,1.7-1.1,2.8v11.5c0,0.2,0.1,0.5,0.2,0.7l0.1,0.1l0.1,0.1
	c0.3,0.3,0.6,0.5,1,0.5c0.2,0,0.4-0.1,0.6-0.2l4.6-2.6l4.6,2.6c0.2,0.1,0.4,0.2,0.6,0.2c0.4,0,0.7-0.1,1-0.4c0.3-0.3,0.4-0.6,0.4-1
	v-11.6C430.1,604.9,428.6,603.6,425.9,603.6z M428.9,618.8L428.9,618.8l-0.1,0.2h-0.1l-4.6-2.6l0,0c-0.3-0.2-0.8-0.2-1.1,0l-4.6,2.6
	h-0.1c-0.1,0-0.1,0-0.1-0.1l0,0l0,0v-11.6c0-1.7,1-2.5,3-2.5h5c2,0,3,0.8,3,2.3L428.9,618.8z"/>
<rect x="406.9" y="390.9" class="st16" width="268.2" height="31.5"/>
<g id="Iconly_Two-tone_Heart">
	<g id="Heart-5">
		<path id="Path_33961-2" class="st2" d="M540.8,414.3c-1.9-1.1-3.6-2.4-5.3-3.9c-1.1-1-2-2.3-2.5-3.8c-0.9-2.8,0.2-6,3.2-6.9
			c1.6-0.5,3.4-0.2,4.7,0.8l0,0c1.4-1,3.1-1.3,4.7-0.8c2.7,0.9,4.2,3.8,3.3,6.6c0,0.1-0.1,0.2-0.1,0.3c-0.5,1.4-1.4,2.7-2.5,3.8
			c-1.6,1.5-3.4,2.8-5.3,3.9l-0.2,0.1L540.8,414.3z"/>
	</g>
</g>
<rect x="406.9" y="546.5" class="st16" width="268.2" height="31.5"/>
<g id="Iconly_Two-tone_Heart-2">
	<g id="Heart-5-2">
		<path id="Path_33961-2-2" class="st2" d="M540.8,569.9c-1.9-1.1-3.6-2.4-5.3-3.9c-1.1-1-2-2.3-2.5-3.8c-0.9-2.8,0.2-6,3.2-6.9
			c1.6-0.5,3.4-0.2,4.7,0.8l0,0c1.4-1,3.1-1.3,4.7-0.8c2.7,0.9,4.2,3.8,3.3,6.6c0,0.1-0.1,0.2-0.1,0.3c-0.5,1.4-1.4,2.7-2.5,3.8
			c-1.6,1.5-3.4,2.8-5.3,3.9L540.8,569.9L540.8,569.9z"/>
	</g>
</g>
<rect x="406.9" y="702.2" class="st16" width="268.2" height="31.5"/>
<g id="Iconly_Two-tone_Heart-3">
	<g id="Heart-5-3">
		<path id="Path_33961-2-3" class="st2" d="M540.8,725.6c-1.9-1.1-3.6-2.4-5.3-3.9c-1.1-1-2-2.3-2.5-3.8c-0.9-2.8,0.2-6,3.2-6.9
			c1.6-0.5,3.4-0.2,4.7,0.8l0,0c1.4-1,3.1-1.3,4.7-0.8c2.7,0.9,4.2,3.8,3.3,6.6c0,0.1-0.1,0.2-0.1,0.3c-0.5,1.4-1.4,2.7-2.5,3.8
			c-1.6,1.5-3.4,2.8-5.3,3.9L540.8,725.6L540.8,725.6z"/>
	</g>
</g>
<path class="st3" d="M198,519.5c-1.1,0.3-2.3,0.2-3.4-0.4c-0.9-0.6-1.6-1.6-1.7-2.7c-0.2-1.4,0-2.9,0.5-4.2l1.5,0.6
	c-0.4,0.9-0.6,2-0.5,3c0,0.7,0.4,1.3,1,1.7c0.7,0.3,1.5,0.4,2.2,0.2h0.2h0.2c0.5-0.1,0.9-0.2,1.4-0.4c0.3-0.1,0.5-0.3,0.6-0.5
	c0.1-0.3,0.2-0.7,0.1-1c0-0.3-0.2-1.7-0.6-4l1.6-0.3c0.3,2.3,0.5,3.6,0.6,4.1c0.1,0.7,0.1,1.4-0.2,2c-0.2,0.5-0.6,0.9-1.1,1.2
	c-0.6,0.4-1.3,0.6-2,0.8l-0.3,0.1L198,519.5z M202.9,516c-0.4,0-0.9-0.1-1.2-0.4c-0.4-0.3-0.7-0.6-0.9-1c-0.3-0.4-0.4-0.9-0.5-1.4
	l1.1-0.5v0.1c0,0.3,0.1,0.5,0.3,0.8c0.1,0.2,0.3,0.3,0.5,0.4c0.2,0.1,0.5,0.1,0.8,0.1h0.1c0.3,0,0.5-0.1,0.8-0.3
	c0.1-0.2,0.2-0.4,0.2-0.6v-1.8h1.5v1.8c0,0.4-0.1,0.9-0.3,1.3c-0.2,0.4-0.5,0.7-0.9,1C203.9,515.8,203.4,516,202.9,516L202.9,516z
	 M206.6,516c-0.5,0-1-0.1-1.4-0.4c-0.4-0.2-0.7-0.6-0.9-1s-0.3-0.8-0.3-1.3h1.5c0,0.2,0.1,0.4,0.2,0.6c0.2,0.2,0.5,0.3,0.8,0.3
	s0.5,0,0.7-0.1s0.3-0.2,0.4-0.3c0.1-0.1,0.1-0.3,0-0.5l-0.5-1.8l1.5-0.4l0.5,1.8c0.2,0.5,0.2,1,0,1.5s-0.5,0.9-0.9,1.2
	C207.7,515.9,207.2,516,206.6,516L206.6,516z M210.7,516c-0.7,0-1.4-0.2-1.9-0.7s-0.9-1.2-1.1-1.9l1.4-0.5c0.1,0.4,0.3,0.7,0.6,1
	c0.3,0.2,0.7,0.4,1.1,0.4v1.7H210.7z"/>
<path class="st3" d="M210.6,514.2h11.7c0.3,0,0.6,0,0.9-0.1c0.2-0.1,0.4-0.3,0.4-0.5c0.1-0.3,0.1-0.6,0-0.9l-0.6-2.2l1.6-0.5
	l0.6,2.3c0.2,0.6,0.2,1.4,0,2c-0.2,0.5-0.6,1-1.1,1.3s-1.2,0.5-1.8,0.5h-11.7L210.6,514.2L210.6,514.2z M219.8,518.2l1.2-1.2
	l1.1,1.1l-1.1,1.2L219.8,518.2z M222.7,518.2l1.1-1.1l1.1,1.1l-1.1,1.1L222.7,518.2z"/>
<path class="st3" d="M227.5,518h0.2c1.2-0.3,2-0.5,2.4-0.6s0.7-0.3,0.9-0.5c0.2-0.3,0.2-0.7,0.1-1l-0.3-2.4c0-0.5-0.2-0.9-0.5-1.3
	c-0.2-0.3-0.6-0.4-0.9-0.4c-0.2,0-0.5,0.1-0.6,0.2c-0.2,0.1-0.3,0.3-0.4,0.5c-0.1,0.2-0.1,0.5-0.1,0.7c0,0.3,0.1,0.5,0.3,0.7
	s0.5,0.2,0.8,0.2h4v1.8h-4c-0.7,0-1.4-0.2-1.9-0.7s-0.8-1.2-0.8-1.9c0-0.6,0-1.1,0.3-1.6c0.2-0.5,0.5-0.9,0.9-1.3
	c0.9-0.7,2.1-0.7,3-0.2c0.5,0.3,0.8,0.7,1.1,1.2s0.5,1.1,0.5,1.8l0.3,2.3c0.1,0.7,0,1.4-0.3,2.1c-0.3,0.5-0.8,1-1.4,1.2
	c-1,0.4-2,0.7-3.1,0.9l0,0h-0.1L227.5,518z"/>
<path class="st3" d="M233.5,514.2h10.4c0.3,0,0.6,0,0.9-0.2c0.2-0.2,0.2-0.4,0.2-0.6l-0.2-1.8l1.6-0.2l0.2,1.8c0.1,0.5,0,1-0.3,1.5
	c-0.2,0.4-0.5,0.8-0.9,1c-0.5,0.2-1,0.4-1.5,0.3h-10.4V514.2z M243.4,509l1.3-1.3l1.3,1.3l-1.3,1.3L243.4,509z M247.6,516
	c-0.7,0-1.4-0.2-1.9-0.7s-0.8-1.3-0.8-2l1.6-0.2c0,0.2,0,0.4,0.1,0.6c0.1,0.1,0.2,0.2,0.3,0.3c0.2,0.1,0.4,0.1,0.6,0.1L247.6,516z"
	/>
<path class="st3" d="M247.5,514.2h10.6c0.3,0,0.6,0,0.9-0.1c0.2-0.1,0.4-0.3,0.4-0.5c0.1-0.3,0.1-0.6,0-0.9l-0.6-2.2l1.6-0.5
	l0.6,2.2c0.2,0.7,0.2,1.3,0,2c-0.2,0.6-0.6,1-1,1.3c-0.5,0.3-1.2,0.5-1.8,0.5h-10.6v-1.8H247.5z M257.2,518.2l1.3-1.3l1.3,1.3
	l-1.3,1.3L257.2,518.2z"/>
<path class="st3" d="M268.9,514.9c-0.4,0-0.8,0-1.1-0.2c-0.4-0.2-0.7-0.4-1-0.7s-0.5-0.6-0.6-1c-0.1-0.5-0.2-0.9-0.1-1.4
	c0.1-0.5,0.3-0.9,0.6-1.3c0.3-0.4,0.7-0.6,1.1-0.8l2.5-0.8l0.5,1.6l-2.5,0.9c-0.3,0.1-0.5,0.2-0.6,0.5c-0.1,0.2-0.2,0.5-0.1,0.7
	c0.1,0.5,0.6,0.8,1.1,0.7l1.9-0.3l0.3,1.8l-1.2,0.2L268.9,514.9z M273,516c-0.6,0-1.1-0.1-1.6-0.4c-0.5-0.3-0.9-0.7-1.1-1.2
	c-0.3-0.5-0.4-1-0.4-1.6v-4.5h1.6v4.5c0,0.2,0.1,0.5,0.2,0.7s0.3,0.4,0.5,0.5s0.5,0.2,0.8,0.2h0.3v1.8H273z"/>
<path class="st3" d="M273.1,514.2h9.5v1.8h-9.5V514.2z M282.6,514.2h0.4c0.2,0,0.5,0,0.7-0.1c0.1-0.1,0.3-0.2,0.3-0.3
	c0.1-0.1,0.1-0.3,0.1-0.5l-0.3-7.3l1.6-0.1l0.3,7.3c0,0.5-0.1,1-0.3,1.4c-0.2,0.4-0.5,0.8-0.9,1c-0.5,0.3-1,0.4-1.5,0.4h-0.3
	L282.6,514.2z"/>
<path class="st3" d="M290.5,516c-0.6,0-1.1-0.1-1.6-0.3c-0.4-0.2-0.7-0.6-0.9-1c-0.2-0.6-0.3-1.3-0.3-1.9l-0.3-6.8l1.6-0.1l0.3,6.9
	v0.2c0,0.3,0,0.5,0.1,0.8c0,0.2,0.2,0.3,0.3,0.3c0.3,0.1,0.5,0.1,0.8,0.1h0.1v1.8L290.5,516L290.5,516z"/>
<path class="st3" d="M290.5,514.2h9.5v1.8h-9.5V514.2z M299.9,514.2h0.8c0.5,0,1.1-0.1,1.6-0.2c0.6-0.1,1.1-0.2,1.6-0.4
	s0.8-0.4,0.9-0.6l0.1-0.5c0-0.4-0.1-0.8-0.5-1c-0.2-0.1-0.4-0.2-0.6-0.2s-0.4,0-0.6,0.1s-0.4,0.2-0.5,0.4c-0.1,0.2-0.2,0.3-0.2,0.6
	v0.6c0.2,0.2,0.4,0.4,0.6,0.6c0.4,0.2,0.8,0.4,1.3,0.5c0.7,0.1,1.3,0.2,2,0.2h0.9v1.8h-0.9c-0.9,0-1.8-0.2-2.6-0.5
	c-0.8-0.3-1.5-0.7-2.2-1.2c-0.5-0.3-0.8-0.9-0.8-1.5l0.1-0.8c0-0.5,0.2-1,0.5-1.4s0.7-0.7,1.1-0.9c0.5-0.2,1-0.3,1.5-0.2
	c0.5,0,0.9,0.2,1.3,0.5c0.8,0.6,1.2,1.6,1.1,2.6v0.7c-0.1,0.6-0.5,1.1-1,1.3c-0.7,0.5-1.5,0.8-2.3,1c-0.8,0.3-1.7,0.4-2.5,0.4H300
	L299.9,514.2z M301.3,507.1l1.1-1.1l1.1,1.1l-1.1,1.1L301.3,507.1z M304.2,507.1l1.1-1.1l1.1,1.1l-1.1,1.1L304.2,507.1z"/>
<path class="st3" d="M307.1,514.2h9.6c0.3,0,0.5-0.1,0.7-0.2c0.2-0.1,0.4-0.3,0.5-0.5l1.1-2.1c0.2-0.4,0.5-0.8,0.9-1
	c0.3-0.2,0.7-0.4,1.1-0.4s0.8,0.1,1.2,0.3c0.5,0.3,0.8,0.7,1.1,1.1c0.3,0.5,0.4,1.1,0.3,1.7c0,0.6-0.2,1.3-0.5,1.8
	c-0.1,0.3-0.4,0.5-0.6,0.7c-0.3,0.2-0.6,0.3-0.9,0.3s-0.7,0-1-0.2l-2.3-1.2l0.8-1.5l2.4,1.2l0.1,0.1h0.1l0.1-0.1
	c0.2-0.3,0.3-0.6,0.4-1c0.1-0.3,0.1-0.6,0-0.8s-0.3-0.4-0.5-0.5s-0.3-0.1-0.5-0.1s-0.4,0.1-0.5,0.2c-0.2,0.1-0.3,0.3-0.4,0.5
	l-0.9,1.7c-0.3,0.5-0.6,0.9-1.1,1.3c-0.4,0.3-1,0.5-1.5,0.5h-9.6L307.1,514.2z"/>
<path class="st17" d="M485,134.9h112c8.6,0,15.5,6.9,15.5,15.5l0,0c0,8.6-6.9,15.5-15.5,15.5H485c-8.6,0-15.5-6.9-15.5-15.5l0,0
	C469.5,141.9,476.4,134.9,485,134.9z"/>
<polygon class="st18" points="541,66.2 456.4,66.2 541,150.8 625.6,66.2 "/>
<image style="overflow:visible;opacity:0.6;enable-background:new    ;" width="300" height="301" xlink:href="9789296D.png"  transform="matrix(1 0 0 1 391 0)">
</image>
<ellipse transform="matrix(0.3827 -0.9239 0.9239 0.3827 195.6756 592.2343)" class="st0" cx="541" cy="149.7" rx="29.7" ry="29.7"/>
<g id="Iconly_Light-outline_Search">
	<g id="Search-6">
		<path id="Search-7" class="st1" d="M553.7,165l-0.1-0.1l-4.5-4.4c-2.5,1.9-5.5,3-8.6,3c-7.5-0.2-13.4-6.4-13.2-13.8
			c0.2-7.5,6.4-13.4,13.8-13.2c7.4,0.2,13.3,6.2,13.2,13.6c0,3.4-1.3,6.7-3.7,9.1l4.5,4.3c0.4,0.4,0.4,1,0,1.4l0,0l0,0
			C554.7,165.3,554.1,165.4,553.7,165L553.7,165z M528.7,149.9c-0.1,6.5,5,11.8,11.5,12c6.5,0.1,11.8-5,12-11.5s-5-11.8-11.5-12
			c-0.1,0-0.2,0-0.2,0C534,138.4,528.8,143.6,528.7,149.9C528.7,150,528.7,150,528.7,149.9L528.7,149.9z"/>
	</g>
</g>
<path class="st16" d="M314,19.1h454c15.8,0,28.6,12.8,28.6,28.6l0,0c0,15.8-12.8,28.6-28.6,28.6H314c-15.8,0-28.6-12.8-28.6-28.6
	l0,0C285.4,32,298.2,19.1,314,19.1z"/>
<g id="Iconly_Light-outline_Search-2">
	<g id="Search-6-2">
		<path id="Search-7-2" class="st3" d="M329.9,64.3l-0.1-0.1l-5.3-5.2c-2.9,2.3-6.5,3.5-10.1,3.5c-8.8-0.2-15.7-7.5-15.5-16.2
			s7.5-15.7,16.2-15.5c8.6,0.2,15.5,7.2,15.5,15.9c0,4-1.5,7.8-4.3,10.7l5.2,5.1c0.5,0.5,0.5,1.2,0,1.7l0,0
			C331.1,64.6,330.4,64.6,329.9,64.3L329.9,64.3z M300.7,46.7c-0.2,7.6,5.8,13.9,13.4,14s13.9-5.8,14-13.4c0.2-7.6-5.8-13.9-13.4-14
			c-0.1,0-0.2,0-0.3,0C306.9,33.2,300.8,39.2,300.7,46.7z"/>
	</g>
</g>
<path class="st3" d="M374.7,53.1c-0.7,0-1.4-0.6-1.4-1.3l0,0c0-0.4,0.1-0.7,0.4-0.9c0.3-0.3,0.6-0.4,1-0.4c0.3,0,0.7,0.1,0.9,0.4
	c0.2,0.2,0.4,0.6,0.4,0.9c0,0.4-0.1,0.7-0.4,1C375.5,53,375.1,53.1,374.7,53.1z M373.6,40.9h2.2l-0.3,8.2h-1.8L373.6,40.9z"/>
<path class="st3" d="M384.1,56.7c-1.3,0.4-2.8,0.2-4-0.4c-1.1-0.7-1.8-1.8-2-3.1c-0.2-1.7,0-3.3,0.5-4.9l1.8,0.7
	c-0.4,1.1-0.6,2.3-0.6,3.5c0,0.8,0.5,1.6,1.1,2c0.8,0.4,1.7,0.5,2.6,0.2h0.2c0.1,0,0.1,0,0.2,0c0.5-0.1,1.1-0.3,1.6-0.5
	c0.3-0.1,0.6-0.3,0.8-0.5c0.2-0.3,0.2-0.6,0.1-0.9c0-0.2-0.3-0.4-0.8-0.6c-0.5-0.3-1.1-0.5-1.7-0.7l0.6-2h0.1
	c0.8,0.4,1.6,0.8,2.3,1.3c0.7,0.4,1.2,1,1.4,1.8c0.1,0.6,0,1.3-0.3,1.9c-0.3,0.5-0.7,1-1.3,1.3c-0.7,0.4-1.5,0.7-2.3,0.9
	c-0.1,0-0.2,0.1-0.2,0.1L384.1,56.7z M389.4,52.6c-0.5,0-1,0-1.4-0.1s-0.8-0.1-1.3-0.3c-0.4-0.1-1-0.3-1.8-0.5l-0.5-0.1l-0.5-0.2
	l0.6-2h0.1h0.1c1.4,0.4,2.4,0.7,3,0.8c0.5,0.1,1.1,0.2,1.7,0.2L389.4,52.6z"/>
<path class="st3" d="M389.2,50.5h24.5c0.3,0,0.7,0,1-0.2c0.2-0.1,0.4-0.3,0.5-0.5c0.1-0.4,0.1-0.7-0.1-1.1l-0.7-2.6l1.8-0.5l0.7,2.6
	c0.2,0.8,0.2,1.6,0,2.3c-0.2,0.6-0.6,1.2-1.2,1.5c-0.6,0.4-1.4,0.6-2.1,0.5h-24.5v-2H389.2z M412.7,43.1l1.5-1.5l1.5,1.5l-1.5,1.5
	L412.7,43.1z"/>
<path class="st3" d="M418.1,41.7c0-0.5,0.2-0.9,0.5-1.3c0.4-0.3,0.9-0.4,1.4-0.3l1.8,0.3c0.2,0.1,0.4,0,0.6-0.1
	c0.1-0.1,0.2-0.2,0.2-0.4v-0.1l1-0.1v0.4c0,0.5-0.2,0.9-0.5,1.3c-0.4,0.3-0.9,0.4-1.4,0.3l-1.8-0.3c-0.2-0.1-0.4,0-0.6,0.1
	c-0.1,0.1-0.2,0.2-0.2,0.4V42l-1,0.1V41.7z M419.8,42.6l1.9-0.1l0.4,10l-1.9,0.1L419.8,42.6z"/>
<path class="st3" d="M430.3,52.6c-0.4,0-0.7-0.1-0.9-0.4c-0.3-0.3-0.4-0.6-0.4-1s0.1-0.7,0.4-0.9c0.2-0.2,0.6-0.4,0.9-0.4
	c0.4,0,0.7,0.1,0.9,0.4c0.3,0.2,0.4,0.6,0.4,0.9c0,0.4-0.1,0.7-0.4,1C431,52.5,430.7,52.6,430.3,52.6z M429.1,50.8l1.3-2.8l1,0.4
	l-1.3,2.8L429.1,50.8z"/>
<path class="st3" d="M440.1,56.7c-1.3,0.4-2.8,0.2-4-0.4c-1.1-0.7-1.8-1.8-2-3.1c-0.2-1.7-0.1-3.3,0.5-4.9l1.8,0.7
	c-0.4,1.1-0.6,2.3-0.6,3.5c0,0.8,0.5,1.6,1.1,2c0.8,0.4,1.7,0.5,2.6,0.2h0.2c0.1,0,0.1,0,0.2,0c0.5-0.1,1.1-0.3,1.6-0.5
	c0.3-0.1,0.6-0.3,0.8-0.5c0.2-0.3,0.2-0.6,0.1-0.9c0-0.2-0.3-0.4-0.8-0.6c-0.5-0.3-1.1-0.5-1.7-0.7l0.6-2h0.1
	c0.8,0.4,1.6,0.8,2.4,1.3c0.7,0.4,1.2,1,1.4,1.8c0.1,0.6,0,1.3-0.3,1.9c-0.3,0.5-0.7,1-1.3,1.3c-0.7,0.4-1.5,0.7-2.3,0.9
	c-0.1,0-0.1,0.1-0.2,0.1L440.1,56.7z M445.3,52.6c-0.5,0-1,0-1.4-0.1s-0.8-0.1-1.3-0.3c-0.4-0.1-1-0.3-1.8-0.5l-0.5-0.1l-0.4-0.2
	l0.6-2h0.1h0.1c1.4,0.4,2.4,0.7,3,0.8c0.5,0.1,1.1,0.2,1.7,0.2L445.3,52.6z"/>
<path class="st3" d="M445.2,50.5h24.5c0.3,0,0.7,0,1-0.2c0.2-0.1,0.4-0.3,0.5-0.5c0.1-0.4,0.1-0.7-0.1-1.1l-0.7-2.6l1.8-0.5l0.7,2.6
	c0.2,0.8,0.2,1.6,0,2.3c-0.2,0.6-0.6,1.2-1.2,1.5c-0.6,0.4-1.4,0.6-2.1,0.5h-24.5v-2H445.2z M468.7,43.1l1.5-1.5l1.5,1.5l-1.5,1.5
	L468.7,43.1z"/>
<path class="st3" d="M474.1,41.7c0-0.5,0.2-0.9,0.5-1.3c0.4-0.3,0.9-0.4,1.4-0.3l1.8,0.3c0.2,0.1,0.4,0,0.6-0.1
	c0.1-0.1,0.2-0.2,0.2-0.4v-0.1l1-0.1v0.4c0,0.5-0.2,0.9-0.5,1.3c-0.4,0.3-0.9,0.4-1.4,0.3l-1.7-0.3c-0.2-0.1-0.4,0-0.6,0.1
	c-0.1,0.1-0.2,0.2-0.2,0.4V42l-1,0.1L474.1,41.7L474.1,41.7z M475.8,42.6l1.9-0.1l0.4,10.1l-1.9,0.1L475.8,42.6z"/>
<path class="st3" d="M490.4,56.7c-1.3,0.4-2.8,0.2-4-0.4c-1.1-0.7-1.8-1.8-2-3.1c-0.2-1.7,0-3.3,0.6-4.9l1.8,0.7
	c-0.4,1.1-0.6,2.3-0.6,3.5c0,0.8,0.5,1.6,1.1,2c0.8,0.4,1.7,0.5,2.6,0.2h0.2h0.2c0.6-0.1,1.1-0.3,1.6-0.5c0.3-0.1,0.6-0.4,0.7-0.7
	c0.2-0.4,0.2-0.8,0.1-1.2s-0.3-2-0.7-4.7l1.9-0.3c0.4,2.6,0.6,4.2,0.7,4.8c0.1,0.8,0.1,1.6-0.2,2.3c-0.3,0.6-0.7,1.1-1.2,1.4
	c-0.7,0.4-1.5,0.7-2.3,0.9l-0.3,0.1L490.4,56.7z M487.9,47.1l1.5-1.5l1.5,1.5l-1.5,1.5L487.9,47.1z M495.6,52.6
	c-0.6,0-1.1-0.2-1.6-0.6c-0.5-0.5-0.9-1-1.1-1.7c-0.3-0.9-0.6-1.9-0.7-2.8c0,0,0,0,0-0.1c0,0,0,0,0-0.1l1.9-0.3c0,0.2,0,0.3,0,0.4
	c0.1,0.8,0.3,1.5,0.4,1.9c0.1,0.3,0.2,0.6,0.4,0.8c0.2,0.2,0.4,0.2,0.7,0.2h0.5v2.1L495.6,52.6z"/>
<path class="st3" d="M495.8,50.5h25.9c0.4,0,0.7-0.1,1-0.2c0.2-0.2,0.3-0.5,0.2-0.7l-0.2-2.1l1.9-0.2l0.2,2.1c0.1,0.6,0,1.2-0.3,1.7
	c-0.2,0.5-0.6,0.9-1.1,1.2s-1.2,0.4-1.8,0.4h-25.8L495.8,50.5L495.8,50.5z M518.7,44.5l1.3-1.4l1.3,1.3l-1.3,1.3L518.7,44.5z
	 M522,44.5l1.3-1.3l1.3,1.3l-1.3,1.3L522,44.5z M526.1,52.6c-0.8,0-1.6-0.2-2.2-0.8c-0.6-0.6-0.9-1.5-0.9-2.3l1.9-0.2
	c0,0.2,0.1,0.4,0.1,0.7c0.1,0.2,0.2,0.3,0.4,0.3c0.2,0.1,0.5,0.1,0.7,0.1V52.6z"/>
<path class="st3" d="M526,50.5h23.5c0.4,0,0.7-0.1,1-0.3c0.2-0.2,0.3-0.5,0.3-0.8v-2.1h1.8v2.1c0,0.5-0.1,1-0.3,1.5s-0.6,0.9-1,1.2
	c-0.5,0.3-1.1,0.5-1.6,0.5H526V50.5z M553.7,52.6c-0.5,0-1.1-0.1-1.5-0.5c-0.4-0.3-0.8-0.7-1-1.2s-0.3-1-0.3-1.5h1.7
	c0,0.3,0.1,0.5,0.3,0.8c0.2,0.2,0.6,0.3,0.9,0.3h0.2c0.2,0,0.5-0.1,0.7-0.2c0.1-0.1,0.3-0.2,0.3-0.4c0.1-0.2,0.1-0.3,0.1-0.5v-2.2
	h1.8v2.1c0,0.5-0.1,1-0.3,1.5s-0.6,0.9-1,1.2C554.9,52.4,554.3,52.6,553.7,52.6L553.7,52.6z M558.1,52.6c-0.6,0-1.1-0.2-1.6-0.5
	s-0.8-0.7-1.1-1.2c-0.2-0.5-0.4-1-0.4-1.5h1.7c0,0.3,0.1,0.5,0.3,0.7s0.6,0.3,0.9,0.3c0.3,0,0.6,0,0.9-0.2c0.2-0.1,0.3-0.2,0.4-0.4
	c0.1-0.2,0.1-0.4,0-0.5l-0.6-2.1l1.7-0.5l0.6,2.1c0.2,0.6,0.2,1.2,0,1.8s-0.5,1-1,1.4C559.4,52.5,558.7,52.6,558.1,52.6L558.1,52.6z
	 M562.9,52.6c-0.8,0-1.6-0.3-2.3-0.8c-0.6-0.6-1.1-1.4-1.3-2.2l1.6-0.6c0.1,0.4,0.3,0.9,0.7,1.1c0.3,0.3,0.8,0.4,1.2,0.4L562.9,52.6
	z"/>
<path class="st3" d="M562.7,50.5h23.4c1,0,1.8,0,2.5-0.1s1.4-0.2,2.1-0.4l4.2-1v0.5l-3.7-2l0,0c-0.3-0.2-0.6-0.2-0.9-0.2
	c-0.3,0-0.6,0.1-0.9,0.3c-0.3,0.2-0.5,0.4-0.7,0.7l-0.3,0.5l-1.7-1l0.3-0.6c0.3-0.6,0.8-1.1,1.4-1.5c0.5-0.3,1.1-0.5,1.8-0.5
	s1.3,0.2,1.9,0.5l4.4,2.6l-0.3,2.5l-5,1.4c-0.8,0.2-1.6,0.3-2.4,0.4c-0.8,0.1-1.7,0.1-2.7,0.1h-23.6v-2.2H562.7z M589.8,55l1.5-1.5
	l1.5,1.5l-1.5,1.5L589.8,55z"/>
<path class="st3" d="M601.4,54.9l0.3-0.1l0.3-0.1c0.6-0.2,1.2-0.3,1.7-0.6c0.3-0.1,0.6-0.4,0.8-0.7c0.2-0.4,0.2-0.8,0.2-1.2l-0.7-5
	l2-0.2l0.7,5c0.1,0.8,0.1,1.6-0.2,2.3c-0.3,0.6-0.8,1.1-1.3,1.4c-0.8,0.4-1.6,0.8-2.5,1c-0.1,0-0.2,0.1-0.3,0.1s-0.2,0.1-0.3,0.1
	L601.4,54.9z"/>
<path class="st3" d="M611.7,52.6c-0.5,0-1.1-0.1-1.6-0.3c-0.4-0.2-0.7-0.5-1-0.8s-0.4-0.7-0.4-1.1c0-0.1,0-0.3,0-0.5s0-0.4,0-0.6
	h1.8c0,0.1,0,0.2,0,0.4s0,0.3,0,0.4l0,0c0,0.2,0.1,0.3,0.3,0.3c0.2,0.1,0.4,0.1,0.7,0.1h1.6c0.4,0.1,0.8-0.1,1.1-0.3
	c0.2-0.2,0.2-0.6,0.1-0.8c-0.3-0.7-0.6-1.5-1-2.2c-0.5-0.9-1-1.7-1.6-2.5l1.5-1.2c0.7,0.9,1.3,1.9,1.9,2.9c0.5,0.8,0.9,1.7,1.1,2.6
	c0.2,0.6,0.2,1.3,0,1.9c-0.2,0.6-0.6,1.1-1.1,1.4c-0.6,0.4-1.4,0.5-2.1,0.5L611.7,52.6z"/>
<path class="st3" d="M625.3,51.3c-0.4,0.1-0.9,0-1.3-0.2c-0.4-0.2-0.8-0.5-1.2-0.8c-0.3-0.3-0.6-0.8-0.7-1.2
	c-0.2-0.5-0.2-1.1-0.1-1.7c0.1-0.6,0.4-1.1,0.7-1.5c0.4-0.4,0.8-0.7,1.3-0.9l3-1l0.6,1.9l-3,1c-0.3,0.1-0.5,0.3-0.7,0.6
	c-0.1,0.3-0.2,0.5-0.1,0.8c0.1,0.3,0.2,0.5,0.5,0.7c0.2,0.2,0.5,0.2,0.8,0.2l2.2-0.4l0.3,2.1l-1.4,0.2L625.3,51.3z M630.1,52.6
	c-0.7,0-1.3-0.2-1.8-0.5c-0.6-0.3-1-0.8-1.3-1.4c-0.3-0.6-0.5-1.2-0.5-1.9v-5.2h1.9v5.2c0,0.3,0.1,0.6,0.2,0.8
	c0.2,0.3,0.4,0.5,0.6,0.6c0.3,0.1,0.6,0.2,0.9,0.2h0.3v2.1h-0.3V52.6z"/>
<path class="st3" d="M630.3,50.5h23.3v2.1h-23.3V50.5z M653.4,50.5h3.7c0.1,0,0.2,0,0.3,0s0.2-0.1,0.2-0.1c0.1-0.1,0.2-0.2,0.2-0.3
	c0.1-0.1,0.1-0.3,0-0.4c0-0.1-0.1-0.3-0.2-0.4l-3.8-5.5l0.4-1.6l6.3-2.3l0.7,2l-5.4,2l0.1-0.5l3.2,4.6c0.3,0.4,0.5,0.9,0.6,1.4
	c0.1,0.4,0.1,0.9,0,1.3c-0.1,0.4-0.3,0.8-0.5,1.1s-0.6,0.5-0.9,0.7c-0.4,0.2-0.8,0.2-1.3,0.2h-3.7L653.4,50.5z"/>
<path class="st3" d="M665.8,54.9l0.3-0.1l0.3-0.1c0.6-0.2,1.2-0.3,1.7-0.6c0.3-0.1,0.6-0.4,0.8-0.7c0.2-0.4,0.2-0.8,0.2-1.2l-0.7-5
	l1.9-0.3l0.7,5c0.1,0.8,0.1,1.6-0.2,2.3c-0.3,0.6-0.8,1.1-1.3,1.4c-0.8,0.4-1.6,0.8-2.5,1c-0.1,0-0.2,0.1-0.3,0.1s-0.2,0.1-0.3,0.1
	L665.8,54.9z M667.8,44.2l1.5-1.5l1.5,1.5l-1.5,1.5L667.8,44.2z M671.7,52.6c-0.5,0-1-0.1-1.5-0.4c-0.4-0.3-0.7-0.8-0.9-1.3
	c-0.3-0.8-0.5-1.7-0.6-2.6V48l1.8-0.3v0.1c0.1,0.6,0.2,1.2,0.3,1.8c0,0.3,0.2,0.5,0.3,0.7c0.2,0.1,0.4,0.2,0.6,0.2h0.1L671.7,52.6
	L671.7,52.6z"/>
<path class="st3" d="M671.6,50.5h25.8c0.4,0,0.7-0.1,1-0.2c0.2-0.2,0.3-0.5,0.2-0.7l-0.2-2.1l1.9-0.2l0.2,2.1c0.1,0.6,0,1.2-0.3,1.7
	c-0.2,0.5-0.6,0.9-1.1,1.2s-1.2,0.4-1.8,0.4h-25.8L671.6,50.5L671.6,50.5z M694.4,55.1l1.3-1.3l1.3,1.3l-1.3,1.3L694.4,55.1z
	 M697.7,55.1l1.3-1.3l1.3,1.3l-1.3,1.3L697.7,55.1z M701.9,52.6c-0.8,0.1-1.6-0.2-2.2-0.8c-0.6-0.6-0.9-1.5-0.9-2.3l1.9-0.2
	c0,0.2,0.1,0.5,0.2,0.7c0.1,0.2,0.2,0.3,0.4,0.3c0.2,0.1,0.5,0.1,0.7,0.1v2.2H701.9z"/>
<path class="st3" d="M701.7,50.5h23.4c1,0,1.8,0,2.5-0.1c0.7,0,1.4-0.2,2.1-0.4l4.2-1v0.5l-3.7-2l0,0c-0.3-0.2-0.6-0.2-0.9-0.2
	c-0.3,0-0.6,0.1-0.9,0.3c-0.3,0.2-0.5,0.4-0.7,0.7l-0.3,0.5l-1.7-1l0.3-0.6c0.3-0.6,0.8-1.1,1.4-1.5c0.5-0.3,1.1-0.5,1.8-0.5
	s1.3,0.2,1.9,0.5l4.4,2.6l-0.3,2.5l-5,1.4c-0.8,0.2-1.6,0.3-2.4,0.4c-0.8,0.1-1.7,0.1-2.7,0.1h-23.6v-2.2H701.7z M727.2,55l1.3-1.3
	l1.3,1.3l-1.3,1.3L727.2,55z M729,57.4l1.1-1.1l1.1,1.1l-1.1,1.1L729,57.4z M730.5,55l1.3-1.3l1.3,1.3l-1.3,1.3L730.5,55z"/>
<path class="st3" d="M735.7,54.9l0.3-0.1l0.3-0.1c0.6-0.1,1.2-0.3,1.7-0.6c0.3-0.1,0.6-0.4,0.8-0.7c0.2-0.4,0.2-0.8,0.2-1.2l-0.7-5
	l1.9-0.3l0.7,5c0.1,0.8,0.1,1.6-0.2,2.3c-0.3,0.6-0.8,1.1-1.3,1.4c-0.8,0.4-1.6,0.8-2.5,1c-0.1,0-0.2,0.1-0.3,0.1l-0.3,0.1
	L735.7,54.9z M741.6,52.6c-0.5,0-1.1-0.1-1.5-0.4c-0.4-0.3-0.7-0.8-0.9-1.3c-0.3-0.8-0.5-1.7-0.6-2.6V48l1.8-0.3v0.1
	c0.1,0.6,0.2,1.2,0.3,1.8c0,0.3,0.2,0.5,0.3,0.7c0.2,0.1,0.4,0.2,0.6,0.2h0.1L741.6,52.6L741.6,52.6z"/>
<path class="st3" d="M767.3,51c-0.5-0.2-1-0.6-1.3-1.1s-0.5-1-0.6-1.6s0.1-1.2,0.3-1.7s0.6-1,1.1-1.3c0.4-0.3,1-0.5,1.5-0.6
	c0.6,0,1.1,0.1,1.6,0.3s1,0.6,1.3,1.1s0.5,1.1,0.6,1.6c0.1,0.6-0.1,1.2-0.3,1.7c-0.5,1-1.3,1.7-2.2,2.2c-1.1,0.6-2.4,0.9-3.6,0.8
	h-24.2v-2.1h24.2c0.7,0,1.4-0.1,2.1-0.2c0.5-0.1,0.9-0.3,1.3-0.6c0.3-0.3,0.6-0.6,0.7-1c0.1-0.3,0.2-0.6,0-0.9
	c-0.1-0.3-0.3-0.6-0.6-0.7c-0.2-0.1-0.4-0.2-0.7-0.2c-0.2,0-0.4,0.1-0.6,0.2c-0.2,0.1-0.3,0.3-0.4,0.5c-0.2,0.3-0.2,0.6-0.1,0.9
	c0.1,0.3,0.3,0.6,0.7,0.7l3.7,1.8c0.3,0.1,0.6,0.2,0.9,0.1c0.3-0.1,0.6-0.3,0.7-0.6c0.1-0.3,0.1-0.6,0-0.9c-0.1-0.3-0.3-0.6-0.6-0.7
	l-6.1-3.2l0.9-1.9l6.2,3.3c0.5,0.3,0.9,0.6,1.2,1.1c1,1.4,0.6,3.4-0.8,4.4c-0.4,0.3-0.9,0.5-1.4,0.6c-0.5,0-1.1,0-1.6-0.3L767.3,51z
	"/>
<polygon class="st18" points="258.2,620.4 327.9,620.4 258.2,535.8 188.6,620.4 "/>
<image style="overflow:visible;opacity:0.6;enable-background:new    ;" width="449" height="383" xlink:href="9789296E.png"  transform="matrix(1 0 0 1 12 91)">
</image>
<rect x="132.7" y="210.4" class="st6" width="207.7" height="142.3"/>
<rect x="132.7" y="210.4" class="st16" width="207.7" height="39.9"/>
<path class="st1" d="M255.9,251.6c4.4,4.4,4.4,10.3,5.1,15.8c0.7,5.7,0.2,11.4-1.5,16.9c-1.7,5.2-3.9,6.5-9.1,4.9
	c-2.8-0.8-5.5-2.2-8.9-3.6c1.2,8.8,2.4,8.9,3.5,17.2h-21.6c1.8-8.7,3.6-9.3,5.4-18c-0.3-0.7-0.1-1.5,0.4-2.1
	c5.2-5.4,8.7-12.1,14.2-17.2c3.6-3.4,6.7-7.2,9.3-11.4C253.6,253.1,253.8,251.2,255.9,251.6z"/>
<path class="st9" d="M226,284.2c-6.7-0.5-10.9-3.8-12.9-10.5c-4.1-13.7-0.8-22.4,11.8-29.1c1.9-1.1,3.7-2.5,5.1-4.2
	c2.3-2.7,5.5-4.1,9-1.5c0.7,4.3-0.9,8.3-1.9,12.3c-2.6,10.3-5.7,20.5-9.3,30.5C227.5,282.7,226.9,283.6,226,284.2z"/>
<path class="st10" d="M226,284.2c3-10,6-20,9.1-29.9c1.6-5.1,1.8-10.5,3.9-15.4c0.2-0.1,0.4,0,0.6,0.1c2.5,0.4,1.9,2.4,1.6,3.8
	c-1.6,7.7-4,15.3-7,22.6c3.1-7.4,5.4-15.2,8-22.8c0.5-1.5,0.6-3.3,2-4.4l2.6,0.8c1.3,1.8,0.2,3.5-0.4,5.1
	c-3.4,9.1-6.4,18.3-10.5,25.2c5-8.5,9.2-17.4,12.6-26.7c0.5-1.3,0.8-3,2.9-2.8l1.6,0.3c1.4,2.2-0.2,4-0.9,5.8
	c-4.5,11.8-10.9,22.8-18.8,32.7C231.5,281,230,284.4,226,284.2L226,284.2z"/>
<path class="st11" d="M226,284.2c5.5-2,7.8-7.1,10.8-11.4c6.9-10,12.4-21,16.3-32.6c4.2,0.7,5.7,2.8,4.6,6.5c-0.5,1.7-1.1,3.3-1.7,5
	c-8,12-18.5,21.8-27.1,33.3C227.9,284.7,226.8,285,226,284.2z"/>
<path class="st12" d="M251.4,239.8c-2.4,2.8-3.1,6.4-4.4,9.7c-3.5,8.5-7.9,16.5-13.3,24c4.4-11.5,9.6-22.6,13-34.5
	C248.6,237.8,250.2,237.8,251.4,239.8z"/>
<path class="st13" d="M244.2,238.2c-1.2,8-4.5,15.3-7.4,22.8c-0.8,2.1-1.9,4.1-3.3,5.9c1.4-4.9,2.8-9.9,4.1-14.8
	c0.9-3.1,1.6-6.3,2.5-9.4c0.4-1.4,0.7-2.6-0.5-3.7C241.1,238.6,242.3,236.7,244.2,238.2z"/>
<path class="st3" d="M158.1,326.5c-0.6,0-1.1-0.5-1.1-1.1l0,0c0-0.3,0.1-0.6,0.3-0.8c0.2-0.2,0.5-0.3,0.8-0.3s0.6,0.1,0.8,0.3
	c0.2,0.2,0.3,0.5,0.3,0.8s-0.1,0.6-0.3,0.8C158.7,326.4,158.4,326.5,158.1,326.5z M157.2,316.7h1.8l-0.2,6.6h-1.4L157.2,316.7z"/>
<path class="st3" d="M160.8,323.4l1.1-0.7l3.5,1.8c0.1,0,0.1,0,0.2,0c0.1,0,0.1-0.1,0.1-0.1c0.2-0.3,0.3-0.6,0.3-0.9
	c0.1-0.3,0.1-0.5,0-0.8c-0.1-0.2-0.2-0.4-0.5-0.5c-0.1-0.1-0.3-0.1-0.5-0.1s-0.3,0.1-0.5,0.2s-0.3,0.3-0.4,0.5l-0.8,1.5l-1.3-0.8
	l1-1.9c0.2-0.4,0.5-0.7,0.8-0.9c0.3-0.2,0.7-0.3,1.1-0.4c0.4,0,0.8,0.1,1.1,0.3c0.4,0.2,0.8,0.6,1,1.1s0.3,1.1,0.3,1.6
	c0,0.6-0.2,1.2-0.5,1.7c-0.1,0.3-0.4,0.5-0.6,0.7c-0.2,0.2-0.5,0.3-0.8,0.3s-0.6,0-0.9-0.2l-2.2-1.1l0.2,5.4H161L160.8,323.4z
	 M168.5,326.1c-0.5,0-0.9-0.1-1.3-0.4c-0.4-0.2-0.7-0.6-0.8-1c-0.2-0.5-0.3-1-0.3-1.5h1.3c0,0.2,0,0.4,0.1,0.6s0.2,0.3,0.4,0.4
	s0.4,0.1,0.6,0.1V326.1z"/>
<path class="st3" d="M168.4,324.4h11.2c0.3,0,0.6,0,0.8-0.2s0.2-0.4,0.2-0.6l-0.2-1.7l1.5-0.2l0.2,1.7c0,0.5,0,0.9-0.2,1.4
	c-0.2,0.4-0.5,0.7-0.9,0.9c-0.4,0.2-0.9,0.3-1.4,0.3h-11.2L168.4,324.4L168.4,324.4z M177.4,319.5l1.1-1.1l1.1,1.1l-1.1,1
	L177.4,319.5z M180.1,319.5l1-1.1l1.1,1.1l-1.1,1L180.1,319.5z M183.1,326.1c-0.7,0-1.3-0.2-1.8-0.6c-0.5-0.5-0.7-1.2-0.7-1.9
	l1.5-0.1c0,0.2,0.1,0.4,0.1,0.6c0.1,0.1,0.2,0.2,0.3,0.3c0.2,0.1,0.4,0.1,0.6,0.1L183.1,326.1L183.1,326.1z"/>
<path class="st3" d="M183,324.4h9.3c0.3,0,0.6,0,0.8-0.2c0.1-0.2,0.2-0.4,0.2-0.6v-1.7h1.4v1.7c0,0.4-0.1,0.8-0.3,1.2
	c-0.2,0.4-0.5,0.7-0.9,1s-0.9,0.4-1.3,0.4H183V324.4z M195.7,326.1c-0.4,0-0.9-0.1-1.2-0.4c-0.4-0.2-0.6-0.6-0.8-1s-0.3-0.8-0.3-1.2
	h1.4c0,0.2,0.1,0.4,0.3,0.6s0.5,0.3,0.7,0.2h0.1c0.2,0,0.4,0,0.6-0.1c0.1-0.1,0.2-0.2,0.3-0.3c0-0.1,0.1-0.3,0.1-0.4v-1.7h1.4v1.7
	c0,0.4-0.1,0.8-0.3,1.2c-0.2,0.4-0.5,0.8-0.8,1C196.6,326,196.2,326.1,195.7,326.1z M199.2,326.1c-0.5,0-0.9-0.1-1.3-0.4
	c-0.4-0.3-0.7-0.6-0.9-1s-0.3-0.8-0.3-1.2h1.4c0,0.2,0.1,0.4,0.3,0.6s0.5,0.3,0.7,0.2c0.2,0,0.5,0,0.7-0.1c0.1-0.1,0.3-0.2,0.3-0.3
	c0-0.1,0-0.3,0-0.4l-0.4-1.7l1.4-0.4l0.5,1.7c0.2,0.5,0.2,1,0,1.5c-0.2,0.4-0.4,0.8-0.8,1.1C200.2,326,199.7,326.1,199.2,326.1
	L199.2,326.1z M203.1,326.1c-0.7,0-1.3-0.2-1.8-0.7s-0.9-1.1-1-1.8l1.3-0.5c0.1,0.4,0.3,0.7,0.6,0.9c0.3,0.2,0.6,0.3,1,0.3
	L203.1,326.1z"/>
<path class="st3" d="M202.9,324.4h11c0.3,0,0.6,0,0.8-0.1s0.3-0.2,0.4-0.4c0.1-0.3,0.1-0.6,0-0.9l-0.5-2.1l1.5-0.4l0.6,2.2
	c0.2,0.6,0.2,1.2,0,1.8c-0.2,0.5-0.5,0.9-1,1.2c-0.5,0.3-1.1,0.4-1.7,0.4h-11L202.9,324.4z M211.7,328.1l1.1-1.1l1.1,1.1l-1.1,1
	L211.7,328.1z M214.4,328.1l1-1.1l1.1,1.1l-1.1,1L214.4,328.1z"/>
<path class="st3" d="M217.5,328l0.3-0.1l0.3-0.1c0.5-0.1,0.9-0.3,1.4-0.5c0.3-0.1,0.5-0.3,0.7-0.5c0.2-0.3,0.2-0.6,0.1-1l-0.6-4
	l1.5-0.2l0.6,4c0.1,0.6,0.1,1.3-0.2,1.8c-0.2,0.5-0.6,0.9-1.1,1.2c-0.6,0.3-1.3,0.6-2,0.8c-0.1,0-0.2,0.1-0.3,0.1l-0.3,0.1
	L217.5,328z M218,319.6l1-1.1l1.1,1.1l-1,1.1L218,319.6z M219.5,317.7l0.9-0.9l0.9,0.9l-0.9,0.9L219.5,317.7z M222.2,326.1
	c-0.4,0-0.9-0.1-1.2-0.3c-0.3-0.3-0.6-0.6-0.7-1.1c-0.2-0.7-0.4-1.4-0.5-2.1v-0.2l1.4-0.2v0.1c0,0.5,0.1,1,0.2,1.4
	c0,0.2,0.1,0.4,0.3,0.6c0.1,0.1,0.3,0.2,0.5,0.1h0.1L222.2,326.1L222.2,326.1z M220.6,319.6l1.1-1.1l1.1,1.1l-1.1,1L220.6,319.6z
	 M222.2,324.4h1v1.7h-1V324.4z"/>
<path class="st3" d="M223.1,324.4h11c0.3,0,0.6,0,0.8-0.1s0.4-0.2,0.4-0.4c0.1-0.3,0.1-0.6,0-0.9l-0.6-2.1l1.5-0.4l0.6,2.2
	c0.2,0.6,0.2,1.2,0,1.8c-0.2,0.5-0.5,0.9-1,1.2c-0.5,0.3-1.1,0.4-1.7,0.4h-11V324.4z M232.3,318.4l1-1.1l1.1,1.1l-1.1,1L232.3,318.4
	z M234.9,318.4l1.1-1.1l1.1,1.1l-1.1,1.1L234.9,318.4z"/>
<path class="st3" d="M238.7,316.6l1.5-0.1l0.4,9.5l-1.5,0.1L238.7,316.6z"/>
<path class="st3" d="M241.1,328l0.3-0.1l0.3-0.1c0.5-0.1,0.9-0.3,1.4-0.5c0.3-0.1,0.5-0.3,0.7-0.5c0.1-0.3,0.2-0.6,0.1-1l-0.6-4
	l1.5-0.2l0.6,4c0.1,0.6,0.1,1.3-0.2,1.8c-0.2,0.5-0.6,0.9-1.1,1.2c-0.6,0.3-1.3,0.6-2,0.8c-0.1,0-0.2,0.1-0.3,0.1l-0.3,0.1
	L241.1,328z M245.8,326.1c-0.4,0-0.9-0.1-1.2-0.3c-0.3-0.3-0.6-0.6-0.7-1.1c-0.2-0.7-0.4-1.4-0.5-2.1v-0.2l1.4-0.2v0.1
	c0,0.5,0.1,1,0.2,1.4c0,0.2,0.1,0.4,0.3,0.6c0.1,0.1,0.3,0.2,0.5,0.1h0.1L245.8,326.1L245.8,326.1z"/>
<path class="st3" d="M245.8,324.4H257c0.3,0,0.6,0,0.8-0.2c0.2-0.2,0.2-0.4,0.2-0.6l-0.1-1.7l1.5-0.2l0.1,1.7c0.1,0.5,0,1-0.2,1.4
	s-0.5,0.7-0.9,0.9c-0.4,0.2-0.9,0.3-1.4,0.3h-11.2V324.4z M254.8,319.5l1-1.1l1.1,1.1l-1.1,1L254.8,319.5z M257.5,319.5l1-1.1
	l1.1,1.1l-1.1,1L257.5,319.5z M260.5,326.1c-0.7,0-1.3-0.2-1.8-0.6c-0.5-0.5-0.7-1.2-0.8-1.9l1.5-0.1c0,0.2,0.1,0.4,0.1,0.6
	c0.1,0.1,0.2,0.2,0.3,0.3c0.2,0.1,0.4,0.1,0.6,0.1L260.5,326.1L260.5,326.1z"/>
<path class="st3" d="M260.4,324.4h9.6c0.3,0,0.6,0,0.8-0.2c0.1-0.2,0.2-0.4,0.2-0.6v-1.7h1.4v1.7c0,0.4-0.1,0.8-0.3,1.2
	c-0.4,0.9-1.3,1.4-2.2,1.4h-9.6L260.4,324.4z M273.4,326.1c-0.5,0-0.9-0.1-1.3-0.4s-0.7-0.6-0.8-1c-0.2-0.4-0.3-0.8-0.3-1.2h1.4
	c0,0.2,0.1,0.5,0.2,0.6c0.2,0.2,0.5,0.3,0.7,0.2h0.1c0.3,0,0.5-0.1,0.7-0.3c0.1-0.2,0.2-0.4,0.2-0.6v-1.7h1.4v1.7
	c0,0.4-0.1,0.8-0.3,1.2c-0.2,0.4-0.4,0.8-0.8,1C274.4,326,273.9,326.1,273.4,326.1z M276.8,326.1c-0.5,0-0.9-0.1-1.3-0.4
	c-0.4-0.2-0.7-0.6-0.8-1c-0.2-0.4-0.3-0.8-0.3-1.3h1.4c0,0.2,0.1,0.5,0.2,0.6c0.2,0.2,0.5,0.2,0.7,0.2s0.5,0,0.7-0.1
	s0.3-0.2,0.3-0.4c0.1-0.3,0-0.6-0.1-0.9l-0.6-2.1l1.5-0.4l0.6,2.1c0.2,0.6,0.2,1.3,0,1.9c-0.1,0.5-0.5,1-0.9,1.3
	C277.9,325.9,277.3,326.1,276.8,326.1L276.8,326.1z"/>
<path class="st3" d="M281.1,316.6l1.5-0.1l0.4,9.5l-1.5,0.1L281.1,316.6z"/>
<path class="st3" d="M292.9,329.4c-1.1,0.3-2.2,0.2-3.2-0.4c-0.9-0.6-1.5-1.5-1.6-2.5c-0.2-1.3-0.1-2.7,0.4-4l1.5,0.6
	c-0.4,0.9-0.5,1.8-0.5,2.8c0,0.7,0.4,1.3,0.9,1.6c0.6,0.3,1.4,0.4,2.1,0.2h0.2h0.2c0.4-0.1,0.9-0.2,1.3-0.4c0.3-0.1,0.5-0.3,0.6-0.5
	c0.1-0.3,0.2-0.7,0.1-1c0-0.3-0.2-1.6-0.6-3.8l1.5-0.3c0.3,2.1,0.5,3.4,0.6,3.8c0.1,0.6,0.1,1.3-0.2,1.9c-0.2,0.5-0.6,0.9-1,1.2
	c-0.6,0.3-1.2,0.6-1.9,0.7l-0.3,0.1L292.9,329.4z M290.9,321.7l1.2-1.2l1.2,1.2l-1.2,1.2L290.9,321.7z M297.1,326.1
	c-0.5,0-0.9-0.2-1.3-0.5c-0.4-0.4-0.7-0.8-0.9-1.4c-0.3-0.7-0.5-1.5-0.6-2.3l0,0l0,0l1.5-0.3c0,0.1,0,0.3,0,0.4
	c0.1,0.5,0.2,1,0.3,1.5c0,0.3,0.2,0.5,0.3,0.7c0.1,0.1,0.3,0.2,0.5,0.2h0.4v1.7L297.1,326.1z"/>
<path class="st3" d="M297.3,324.4h9.1c0.2,0,0.5,0,0.7-0.2c0.2-0.1,0.4-0.3,0.5-0.5l1-2c0.2-0.4,0.5-0.7,0.8-0.9
	c0.3-0.2,0.7-0.3,1.1-0.4c0.4,0,0.8,0.1,1.1,0.3c0.4,0.2,0.8,0.6,1,1.1s0.3,1.1,0.3,1.6c0,0.6-0.2,1.2-0.5,1.7
	c-0.1,0.3-0.3,0.5-0.6,0.7c-0.3,0.2-0.5,0.3-0.9,0.3c-0.3,0-0.6-0.1-0.9-0.2l-2.2-1.1l0.7-1.5l2.3,1.2l0.1,0.1h0.1v-0.1
	c0.2-0.3,0.3-0.6,0.3-0.9c0.1-0.3,0.1-0.5,0-0.8c-0.1-0.2-0.2-0.4-0.4-0.5c-0.2-0.1-0.3-0.1-0.5-0.1s-0.3,0.1-0.5,0.2
	s-0.3,0.3-0.4,0.5l-0.8,1.6c-0.2,0.5-0.6,0.9-1,1.2c-0.4,0.3-0.9,0.4-1.4,0.4h-9.1L297.3,324.4z"/>
<circle class="st14" cx="279.7" cy="293.5" r="8.3"/>
<polyline class="st14" points="275.5,294.7 277.9,297 284.4,290.5 "/>
<polygon class="st15" points="277.9,298.4 274.8,295.4 276.3,294 277.9,295.6 283.7,289.8 285.1,291.3 "/>
<image style="overflow:visible;opacity:0.1;enable-background:new    ;" width="388" height="675" xlink:href="9789296F.png"  transform="matrix(1 0 0 1 664 121)">
</image>
<rect x="754" y="210.4" class="st6" width="207.8" height="493.6"/>
<rect x="794.7" y="330" class="st1" width="126.5" height="0.5"/>
<rect x="794.7" y="454.1" class="st1" width="126.5" height="0.5"/>
<rect x="794.7" y="585.8" class="st1" width="126.5" height="0.5"/>
<rect x="953.6" y="481.6" class="st19" width="8.3" height="76.9"/>
<rect x="953.6" y="608.2" class="st19" width="8.3" height="76.9"/>
<rect x="953.6" y="355.1" class="st19" width="8.3" height="76.9"/>
<circle class="st19" cx="876.7" cy="663.8" r="7.6"/>
<polygon class="st15" points="875,668.4 872.2,665.5 873.6,664.1 875,665.5 880.3,660.3 881.7,661.7 "/>
<g class="st20">
	<path class="st1" d="M897.4,633.6c-2.6,4.9-2.8,10.2-2.5,15.5c0.1,2,0.5,4,1.3,5.9c1,2.2,2,2.8,4.5,2.4c2.4-0.6,4.8-1.5,7-2.8
		c-0.4,2.5-0.7,4.9-1,7.3c-0.4,2.9-0.8,5.7-1.3,8.6c-0.1,0.6,0.1,0.8,0.7,0.8c4.2,0,8.4,0,12.5,0c1.1,0,0.5-0.7,0.5-1.1
		c-1.4-6.8-2.9-13.6-4.4-20.4c0-0.3-0.2-0.6-0.4-0.8c-0.7-0.7-0.6-1.3-0.1-2c1.8-3,0.4-5.6-3.2-5.7c-0.6,0-1.2-0.3-1.7-0.8
		s-1.1-1-1.7-1.3c-0.5-0.2-1.1-0.4-0.9-1.1s0.3-1.7,1.3-1.9c0.9-0.2,1.8-0.3,2.7-0.3c1,0,1.9-0.1,2.9-0.4c0.3-0.1,0.6-0.3,0.5-0.6
		s-0.3-0.5-0.6-0.5c-0.4-0.1-0.9-0.1-1.3-0.1c-4.6,0.1-9.2-0.2-13.8-0.9C898.1,633.3,897.7,633.2,897.4,633.6z"/>
	<path class="st21" d="M897.4,633.6c5.5,1.1,11,1.1,16.6,1.3c-0.7,0.6-1.6,0.5-2.4,0.6s-1.5,0.1-2.2,0.1c-2.5,0.2-2.8,0.6-3.3,3
		c-0.1,0.5,0,0.7,0.5,0.7c0.3,0,0.6,0.1,0.8,0.3c1.6,1.2,3.1,2.3,5.4,2.5c1.9,0.1,2.4,2.8,1.2,4.7s-1.1,1.9,0.7,3.1
		c1-0.3,1.9-1,2.5-1.9c2.2-3,3.4-6.6,3.3-10.3c-0.1-3.7-2.4-7.1-5.9-8.5c-4.3-1.9-9.1-2-13.5-0.3c-1.9,0.6-3.4,2.1-3.9,4
		C897.2,633.1,897.1,633.3,897.4,633.6z"/>
</g>
<rect x="787.8" y="502.4" class="st16" width="69" height="38.3"/>
<path class="st3" d="M808.4,527.4c-0.8,0.2-1.6,0.1-2.4-0.3c-0.6-0.4-1.1-1.1-1.2-1.9c-0.2-1-0.1-2,0.3-2.9l1.5,0.6
	c-0.2,0.5-0.3,1.1-0.3,1.7c0,0.4,0.2,0.8,0.5,1c0.4,0.2,0.8,0.2,1.3,0.1h0.2h0.1c0.3-0.1,0.5-0.1,0.8-0.2c0.1,0,0.2-0.1,0.3-0.3
	c0-0.2,0-0.3,0-0.5s-0.2-1.1-0.4-2.6l1.5-0.2c0.2,1.5,0.3,2.3,0.4,2.6c0.1,0.5,0,0.9-0.1,1.3c-0.1,0.4-0.4,0.7-0.7,0.9
	c-0.4,0.3-0.9,0.5-1.4,0.6h-0.2L808.4,527.4z M806.7,521.6l1-1l1,1l-1,1L806.7,521.6z M811.3,525.1c-0.3,0-0.7-0.1-0.9-0.3
	c-0.3-0.3-0.6-0.6-0.7-1c-0.2-0.5-0.4-1.1-0.5-1.7l0,0l0,0l1.5-0.2c0,0.1,0,0.2,0,0.2c0.1,0.4,0.1,0.8,0.2,1c0,0.1,0.1,0.3,0.2,0.4
	c0.1,0,0.2,0.1,0.2,0.1h0.3v1.7L811.3,525.1z"/>
<path class="st3" d="M811.4,523.4h2.2h0.1h0.1c0,0,0,0,0-0.1v-0.1v-0.1l-2.1-3l0.3-1.3l3.5-1.3l0.5,1.6l-2.7,1l0.1-0.4l1.5,2.3
	c0.2,0.3,0.3,0.6,0.4,0.9c0.1,0.3,0.1,0.5,0.1,0.8c0,0.2-0.1,0.5-0.3,0.7s-0.4,0.4-0.6,0.5c-0.3,0.1-0.6,0.2-0.9,0.2h-2.1
	L811.4,523.4z M811.4,523.4L811.4,523.4v1.7l0,0V523.4z"/>
<path class="st3" d="M822.2,527.4c-0.8,0.2-1.6,0.2-2.3-0.3c-0.7-0.4-1.1-1.1-1.2-1.9c-0.2-1-0.1-2,0.3-2.9l1.5,0.6
	c-0.2,0.5-0.3,1.1-0.3,1.7c0,0.4,0.2,0.8,0.5,1c0.4,0.2,0.8,0.2,1.2,0.1h0.2h0.2c0.3-0.1,0.5-0.1,0.8-0.3c0.1-0.1,0.2-0.2,0.3-0.3
	c0-0.2,0-0.4,0-0.5l-0.2-6.2l1.5-0.1l0.2,6.2c0,0.4,0,0.9-0.2,1.3c-0.1,0.3-0.4,0.6-0.7,0.9c-0.4,0.3-0.8,0.5-1.2,0.6L822.2,527.4z"
	/>
<path class="st3" d="M828.3,525.1c-0.4,0-0.8-0.1-1.2-0.2c-0.3-0.2-0.5-0.4-0.7-0.7c-0.2-0.4-0.2-0.9-0.3-1.4l-0.2-4.4l1.5-0.1
	l0.2,4.5v0.1c0,0.1,0,0.3,0,0.4c0,0.1,0.1,0.1,0.1,0.1c0.1,0,0.3,0,0.4,0h0.1L828.3,525.1L828.3,525.1z"/>
<path class="st3" d="M828.3,523.4h0.6c0.1,0,0.3,0,0.4,0c0.1,0,0.1-0.1,0.1-0.2l-0.1-1.2l1.5-0.2l0.1,1.2c0,0.4,0,0.8-0.2,1.1
	s-0.4,0.6-0.7,0.8s-0.7,0.3-1.1,0.3h-0.6V523.4z M828.7,526.5l1-1l1,1l-1,1L828.7,526.5z M831.3,525.1c-0.5,0-1-0.2-1.4-0.5
	c-0.4-0.4-0.6-0.9-0.6-1.5l1.5-0.2c0,0.1,0,0.2,0,0.3l0.1,0.1c0.1,0,0.2,0,0.3,0L831.3,525.1z"/>
<path class="st3" d="M831.3,523.4h0.8c0.2,0,0.3,0,0.5,0c0.1,0,0.1-0.1,0.2-0.2c0-0.1,0-0.3,0-0.4l-0.4-1.4l1.5-0.4l0.4,1.4
	c0.1,0.5,0.1,1,0,1.4s-0.4,0.8-0.7,1c-0.4,0.3-0.9,0.4-1.3,0.4h-0.8L831.3,523.4z M831.5,519.4l1-1l1,1l-1,1L831.5,519.4z"/>
<path class="st3" d="M836.9,525.1c-0.3,0-0.6-0.1-0.9-0.2c-0.3-0.1-0.5-0.3-0.6-0.6c-0.1-0.2-0.2-0.5-0.2-0.8V523h1.4v0.3l0,0
	c0,0,0,0,0,0.1h0.1h1.4c0.1,0,0.2,0,0.2-0.1s0-0.1,0-0.2c-0.2-0.4-0.4-0.8-0.6-1.1c-0.3-0.5-0.5-0.9-0.9-1.3l1.2-1
	c0.4,0.5,0.7,1.1,1.1,1.6c0.3,0.5,0.5,0.9,0.6,1.5c0.1,0.4,0.1,0.8,0,1.2s-0.4,0.7-0.7,0.9c-0.4,0.2-0.8,0.3-1.2,0.3L836.9,525.1z"
	/>
<path class="st1" d="M903.5,533.5l-1.1,7.5h14l-1.7-7.6c-0.4-0.4-1-0.7-1.6-0.7c-3.7-0.6-4.2-1-4.6-4.7c-0.3-2.9-0.1-5.8-0.1-8.7
	c0-1.3,0.7-2.5,1.8-3.1c1.4-0.9,1.9-2.6,1.3-4.1c-0.5-1.6-1.9-2.6-3.5-2.6c-4.2,0.1-7.4-2.2-10.5-4.4c-3.6-2.6-3.5-2.7-4.9,1.5
	c-1.2,5.2-2.1,10.4-0.8,15.7c1.3,5.1,3.8,6.5,8.8,4.8c3-1,3.1-1,2.7,2.2C903,530.7,902.4,532.1,903.5,533.5z"/>
<path class="st21" d="M892.9,506.6l1.6-3.5c2.5,4,6.7,5,10.2,7c0.8,0.4,1.7,0.4,2.5,0.1c1.6-0.5,3.2,0.4,3.7,2
	c0.7,1.7-0.1,3-1.6,3.8c-0.8,0.4-1.6,0.6-1.6,1.8c0,3.9-0.3,7.7,0.3,11.6c0.4,2.9,1.6,4.4,4.8,3.9c0.7,0,1.3,0,2,0.1
	c3.1-0.1,6.2-0.3,9.3-0.2c2,0.1,2.4-0.7,2.4-2.5c-0.1-3.9-0.8-7.5-3.7-10.4c-3.3-3.3-4.5-7.3-4.6-11.8c-0.1-6.6-5.4-12.1-12-12.3
	c-7.1-0.4-12.6,3.5-13.7,9.8C892,506.5,892.4,506.6,892.9,506.6z"/>
<path class="st21" d="M892.9,506.6l-0.5-0.6c-2.4,7.7-3.5,15.8-3.4,23.9c0,2.4,0.8,3.9,3.8,3.7c3.6-0.3,7.2,0,10.7,0
	c0.4-2.9,0.7-5.7,1.2-8.9c-2,0.8-3.8,1.7-5.6,2.2c-3.5,1.1-5,0.3-6.1-3.3C891.2,517.9,891.8,512.2,892.9,506.6z"/>
<rect x="787.8" y="632.3" class="st22" width="69" height="38.3"/>
<g class="st20">
	<path class="st3" d="M808.4,657.4c-0.8,0.2-1.6,0.1-2.4-0.3c-0.6-0.4-1.1-1.1-1.2-1.9c-0.2-1-0.1-2,0.3-2.9l1.5,0.6
		c-0.2,0.5-0.3,1.1-0.3,1.7c0,0.4,0.2,0.8,0.5,1c0.4,0.2,0.8,0.2,1.3,0.1h0.2h0.1c0.3-0.1,0.5-0.1,0.8-0.2c0.1,0,0.2-0.1,0.3-0.3
		c0-0.2,0-0.3,0-0.5s-0.2-1.1-0.4-2.6l1.5-0.3c0.2,1.5,0.3,2.3,0.4,2.6c0.1,0.5,0,0.9-0.1,1.3c-0.1,0.4-0.4,0.7-0.7,0.9
		c-0.4,0.3-0.9,0.5-1.4,0.6l-0.2,0.1L808.4,657.4z M806.7,651.7l1-1l1,1l-1,1L806.7,651.7z M811.3,655.2c-0.3,0-0.7-0.1-0.9-0.3
		c-0.3-0.3-0.6-0.6-0.7-1c-0.2-0.5-0.4-1.1-0.5-1.7l0,0l0,0l1.5-0.2c0,0.1,0,0.2,0,0.2c0.1,0.4,0.1,0.8,0.2,1c0,0.1,0.1,0.3,0.2,0.4
		c0.1,0,0.2,0.1,0.2,0.1h0.3v1.7L811.3,655.2z"/>
	<path class="st3" d="M811.4,653.5h2.2h0.1h0.1v-0.1v-0.1v-0.1l-2.1-3l0.3-1.3l3.5-1.3l0.5,1.6l-2.7,1l0.1-0.4l1.5,2.3
		c0.2,0.3,0.3,0.6,0.4,0.9c0.1,0.3,0.1,0.5,0.1,0.8c0,0.2-0.1,0.5-0.3,0.7s-0.4,0.4-0.6,0.5c-0.3,0.1-0.6,0.2-0.9,0.2h-2.1
		L811.4,653.5z M811.4,653.5L811.4,653.5v1.7l0,0V653.5z"/>
	<path class="st3" d="M822.2,657.4c-0.8,0.2-1.6,0.2-2.3-0.3c-0.7-0.4-1.1-1.1-1.2-1.9c-0.2-1-0.1-2,0.3-2.9l1.5,0.6
		c-0.2,0.5-0.3,1.1-0.3,1.7c0,0.4,0.2,0.8,0.5,1c0.4,0.2,0.8,0.2,1.2,0.1h0.2h0.2c0.3-0.1,0.5-0.1,0.8-0.3c0.1-0.1,0.2-0.2,0.3-0.3
		c0-0.2,0-0.4,0-0.5l-0.2-6.2l1.5-0.1l0.2,6.2c0,0.4,0,0.9-0.2,1.3c-0.1,0.3-0.4,0.6-0.7,0.9c-0.4,0.3-0.8,0.5-1.2,0.6L822.2,657.4z
		"/>
	<path class="st3" d="M828.3,655.2c-0.4,0-0.8-0.1-1.2-0.2c-0.3-0.2-0.5-0.4-0.7-0.7c-0.2-0.4-0.2-0.9-0.3-1.4l-0.2-4.4l1.5-0.1
		l0.2,4.5v0.1c0,0.1,0,0.3,0,0.4c0,0.1,0.1,0.1,0.1,0.1c0.1,0,0.3,0,0.4,0h0.1L828.3,655.2L828.3,655.2z"/>
	<path class="st3" d="M828.3,653.5h0.6c0.1,0,0.3,0,0.4,0c0.1,0,0.1-0.1,0.1-0.2l-0.1-1.2l1.5-0.2l0.1,1.2c0,0.4,0,0.8-0.2,1.1
		s-0.4,0.6-0.7,0.8s-0.7,0.3-1.1,0.3h-0.6V653.5z M828.7,656.6l1-1l1,1l-1,1L828.7,656.6z M831.3,655.2c-0.5,0-1-0.2-1.4-0.5
		c-0.4-0.4-0.6-0.9-0.6-1.5l1.5-0.2c0,0.1,0,0.2,0,0.3l0.1,0.1c0.1,0,0.2,0,0.3,0L831.3,655.2z"/>
	<path class="st3" d="M831.3,653.5h0.8c0.2,0,0.3,0,0.5,0c0.1,0,0.1-0.1,0.2-0.2c0-0.1,0-0.3,0-0.4l-0.4-1.4l1.5-0.4l0.4,1.4
		c0.1,0.5,0.1,1,0,1.4s-0.4,0.8-0.7,1c-0.4,0.3-0.9,0.4-1.3,0.4h-0.8L831.3,653.5z M831.5,649.5l1-1l1,1l-1,1L831.5,649.5z"/>
	<path class="st3" d="M836.9,655.2c-0.3,0-0.6,0-0.9-0.2c-0.3-0.1-0.5-0.3-0.6-0.6c-0.1-0.2-0.2-0.5-0.2-0.8V653h1.4v0.3l0,0
		c0,0,0,0,0,0.1h0.1h1.4c0.1,0,0.2,0,0.2-0.1s0-0.1,0-0.2c-0.2-0.4-0.4-0.8-0.6-1.1c-0.3-0.5-0.5-0.9-0.9-1.3l1.2-1
		c0.4,0.5,0.7,1.1,1.1,1.6c0.3,0.5,0.5,0.9,0.6,1.5c0.1,0.4,0.1,0.8,0,1.2s-0.4,0.7-0.7,0.9c-0.4,0.2-0.8,0.3-1.2,0.3H836.9z"/>
</g>
<path class="st21" d="M912.8,393c0.6,0.5,1.2,1,1.8,1.4c0.8,0.6,1.9,0.6,2.7,0c0.8-0.5,1-1.5,0.7-2.3c-0.1-0.2-0.3-0.6-0.1-0.6
	c1.6-0.3,1.8-2.2,3.2-2.8c1.4-0.5,2.6-1.4,3.5-2.5c0.5-0.7,1.1-1.5,0.6-2.4s-0.3-1.3,0.4-1.9c2.2-2.1,1.5-4.9-1.3-5.9
	c-0.5-0.2-1-0.3-1.6-0.4c0.6-1.2,1.1-2.4,1.3-3.7c0.6-3.5-1.8-5.7-5.3-4.7c-0.7,0.2-1.3,0.5-2,0.8c-0.3-0.4-0.2-0.8-0.2-1.2
	c-0.5-4.1-3.9-5.9-7.5-3.9c-1.3,0.7-2.1,0.9-3.3-0.1c-2.1-1.7-4.5-1.1-6,1.3c-0.5,0.9-1,1.2-1.9,0.4c-0.3-0.3-0.7-0.5-1.1-0.7
	c-1.9-0.9-2.9-0.2-2.7,1.9c0,0.4,0.1,0.9,0.2,1.3c0.2,1.2,0.5,2.4-1.5,2.3c-0.6,0-1.1,0.4-1.1,1c0,0.1,0,0.2,0,0.2
	c0.1,0.8-0.3,0.7-0.9,0.6s-1.3-0.4-1.8,0.2s0.1,1.3,0.4,1.8c0.4,0.6,0.8,1.2,1.4,1.7c0.7,0.8,1.8,1.2,0.8,2.7
	c-0.6,0.9,0.6,1.8,2.5,2c1.8,0.8,3.4-0.1,4.9-1c1.1-0.6,2.3-1,3.5-1.2c0.7-0.1,1,0.1,1.2,0.8c0.7,2.3,1.2,2.6,3.5,2.6
	c1.2,0,2.4-0.1,3.6-0.3c-1.3,0.1-2.7,0.3-4,0.6c-1.1,0.4-1.3,0.8-0.7,1.8c0.2,0.3,0.3,0.5,0.5,0.7c1.2,1.7,1.2,1.7,3,0.8
	s3.3-0.5,4.2,0.9c0.7,1.2,0.4,2.1-0.8,3.1c-0.6,0.5-1.8,0.6-1.6,1.5C911.2,391,911.8,392.2,912.8,393z"/>
<path class="st1" d="M912.8,393c-0.2-0.3-0.3-0.6-0.5-0.9c-0.5-0.7-0.8-1.5-1-2.4c0-0.9,1.3-0.8,1.8-1.4c1-0.7,1.4-1.9,1-3
	c-0.3-1.3-1.4-2.2-2.7-2.3c-0.6-0.1-1.3,0-1.8,0.3c-0.7,0.4-1.7,1.2-1.9,1.1c-0.7-0.7-1.4-1.6-1.9-2.5c-0.5-0.7,0-0.8,0.6-0.9
	c1.5-0.3,3.1-0.6,4.7-1.1c-1.4,0-2.8,0-4.2,0c-2.4,0-2.9-0.4-3.3-2.7c-0.1-0.9-0.3-0.9-1.1-0.8c-1.7,0.2-3.4,0.9-4.9,1.8
	c-1.2,0.6-2.6,0.9-3.9,0.8c-1.5,5.3-1.5,11-0.3,16.4c0.1,0.6,0.3,1.1,0.6,1.6c0.9,2.3,2,2.8,4.4,2.4c2.5-0.6,4.8-1.5,7-2.8
	c-0.4,2.6-0.7,5-1,7.4c-0.4,2.8-0.8,5.6-1.2,8.5c-0.1,0.6,0,0.8,0.6,0.8c4.2,0,8.3,0,12.5,0c0.8,0,0.6-0.5,0.5-0.9
	c-1.2-5.8-2.5-11.6-3.7-17.4C912.9,394.4,912.5,393.8,912.8,393z"/>
<rect x="787.8" y="374.4" class="st16" width="69" height="38.3"/>
<path class="st3" d="M808.4,399.2c-0.8,0.2-1.6,0.1-2.4-0.3c-0.6-0.4-1.1-1.1-1.2-1.9c-0.2-1-0.1-2,0.3-2.9l1.5,0.6
	c-0.2,0.5-0.3,1.1-0.3,1.7c0,0.4,0.2,0.8,0.5,1c0.4,0.2,0.8,0.2,1.3,0.1h0.2h0.1c0.3-0.1,0.5-0.1,0.8-0.2c0.1-0.1,0.2-0.1,0.3-0.3
	c0-0.2,0-0.3,0-0.5s-0.2-1.1-0.4-2.6l1.5-0.3c0.2,1.5,0.3,2.3,0.4,2.6c0.1,0.5,0,0.9-0.1,1.4c-0.1,0.4-0.4,0.7-0.7,0.9
	c-0.4,0.3-0.9,0.5-1.4,0.6h-0.2L808.4,399.2z M806.7,393.5l1-1l1,1l-1,1L806.7,393.5z M811.3,397c-0.3,0-0.7-0.1-0.9-0.3
	c-0.3-0.3-0.6-0.6-0.7-1c-0.2-0.5-0.4-1.1-0.5-1.7v-0.1l1.5-0.2c0,0.1,0,0.2,0,0.2c0.1,0.5,0.1,0.8,0.2,1c0,0.1,0.1,0.3,0.2,0.4
	c0.1,0.1,0.2,0.1,0.2,0.1h0.3v1.7L811.3,397z"/>
<path class="st3" d="M811.4,395.2h2.2h0.1h0.1c0,0,0,0,0-0.1V395v-0.1l-2.1-3l0.3-1.3l3.5-1.3l0.6,1.6l-2.7,1l0.1-0.4l1.5,2.3
	c0.2,0.3,0.3,0.6,0.4,0.9c0.1,0.3,0.1,0.5,0.1,0.8c0,0.2-0.1,0.5-0.3,0.7s-0.4,0.4-0.6,0.5c-0.3,0.1-0.6,0.2-0.9,0.2h-2.1
	L811.4,395.2z M811.4,395.2L811.4,395.2v1.8l0,0V395.2z"/>
<path class="st3" d="M822.2,399.2c-0.8,0.2-1.6,0.2-2.3-0.2c-0.7-0.4-1.1-1.1-1.2-1.9c-0.2-1-0.1-2,0.3-2.9l1.5,0.6
	c-0.2,0.5-0.3,1.1-0.3,1.7c0,0.4,0.2,0.8,0.5,1c0.4,0.2,0.8,0.2,1.2,0.1h0.2h0.2c0.3-0.1,0.5-0.2,0.8-0.3c0.1-0.1,0.2-0.2,0.3-0.3
	c0-0.2,0-0.4,0-0.5l-0.2-6.2l1.5-0.1l0.2,6.2c0,0.4,0,0.9-0.2,1.3c-0.1,0.3-0.4,0.6-0.7,0.9c-0.4,0.3-0.8,0.5-1.2,0.6L822.2,399.2z"
	/>
<path class="st3" d="M828.3,397c-0.4,0-0.8-0.1-1.2-0.2c-0.3-0.2-0.5-0.4-0.7-0.7c-0.2-0.4-0.2-0.9-0.3-1.4l-0.2-4.4l1.5-0.1
	l0.2,4.5v0.1c0,0.1,0,0.3,0,0.4s0.1,0.1,0.1,0.1c0.1,0,0.3,0,0.4,0h0.1L828.3,397L828.3,397z"/>
<path class="st3" d="M828.3,395.2h0.6c0.1,0,0.3,0,0.4,0c0.1,0,0.1-0.1,0.1-0.2l-0.1-1.2l1.5-0.1l0.1,1.2c0,0.4,0,0.8-0.2,1.1
	c-0.2,0.3-0.4,0.6-0.7,0.8c-0.3,0.2-0.7,0.3-1.1,0.3h-0.6V395.2z M828.7,398.4l1-1l1,1l-1,1L828.7,398.4z M831.3,396.9
	c-0.5,0-1-0.1-1.4-0.5s-0.6-0.9-0.6-1.5l1.5-0.2c0,0.1,0,0.2,0,0.3l0.1,0.1c0.1,0,0.2,0,0.3,0L831.3,396.9z"/>
<path class="st3" d="M831.3,395.2h0.8c0.2,0,0.3,0,0.5-0.1c0.1,0,0.2-0.1,0.2-0.2s0-0.3,0-0.4l-0.4-1.4l1.5-0.4l0.4,1.4
	c0.1,0.5,0.1,1,0,1.4s-0.4,0.8-0.7,1c-0.4,0.3-0.9,0.4-1.4,0.4h-0.8L831.3,395.2L831.3,395.2z M831.5,391.2l1-1l1,1l-1,1
	L831.5,391.2z"/>
<path class="st3" d="M836.9,397c-0.3,0-0.6-0.1-0.9-0.2c-0.3-0.1-0.5-0.3-0.6-0.6c-0.1-0.2-0.2-0.5-0.2-0.8v-0.6h1.4v0.3l0,0
	c0,0,0,0,0,0.1h0.1h1.4c0.1,0,0.2,0,0.2-0.1s0-0.2,0-0.2c-0.2-0.4-0.4-0.8-0.6-1.1c-0.3-0.5-0.5-0.9-0.9-1.4l1.2-1
	c0.4,0.5,0.7,1.1,1.1,1.6c0.3,0.5,0.5,0.9,0.6,1.5c0.1,0.4,0.1,0.8,0,1.2c-0.1,0.4-0.4,0.7-0.7,0.9c-0.4,0.2-0.8,0.3-1.2,0.3
	L836.9,397z"/>
<circle class="st19" cx="876" cy="275.8" r="7.6"/>
<polygon class="st15" points="874.3,280.4 871.4,277.6 872.8,276.1 874.3,277.6 879.5,272.4 881,273.8 "/>
<path class="st21" d="M910.6,265.2c1.1-0.3,2.1-1.1,2.5-2.2c1.8-2.8,2.5-6.1,2.2-9.4c-0.1-0.9,0.1-1.2,1.1-1.2
	c4.5-0.1,8.2-3.6,8.5-8.1c0.2-4.6-3.1-8.6-7.7-9.2c-4.5-0.5-8.6,2.5-9.5,6.9c-0.3,1.3-0.5,1.6-1.9,1.3c-3.3-0.9-6.7-0.6-9.8,0.8
	c-1.7,0.6-3,2.1-3.4,3.9c-0.5,2.6,0.5,4.6,2.6,6.1c1.8,1.2,3.7,2.2,5.6,3.1c0.6,0.3,1.4,0.2,1.8-0.4c0.6-0.5,1.3-0.9,2.1-0.9
	c1.6-0.2,3,1,3.2,2.5c0,0.3,0,0.6,0,0.9c-0.3,1.2,0.1,2.4,1,3.3C909.6,263.2,909.6,264.5,910.6,265.2z"/>
<path class="st1" d="M910.6,265.2c-0.4-1.5-1.1-2.9-2.2-4c-0.4-0.4-0.3-0.8-0.2-1.3c0.6-1.5,0-3.2-1.4-4.1s-3.3-0.7-4.5,0.6
	c-0.4,0.4-0.6,0.6-1.2,0.4c-1.8-0.8-3.5-1.8-5.2-2.8c-2.2-1.5-3.6-3.4-3.3-6.1c-1.2,5.7-2.7,11.5-1.7,17.4c0.2,1.8,0.7,3.6,1.5,5.3
	c0.9,1.7,1.9,2.1,3.8,1.8c2.5-0.6,5-1.5,7.2-2.9c-0.4,2.6-0.7,5-1,7.4c-0.4,2.8-0.8,5.6-1.2,8.5c-0.1,0.7,0.2,0.8,0.8,0.8
	c4.1,0,8.1,0,12.2,0c1,0,0.8-0.5,0.6-1.1c-1.3-6.2-2.7-12.4-4-18.6C910.7,266.1,910.6,265.7,910.6,265.2z"/>
<rect x="787.8" y="247.9" class="st16" width="69" height="38.3"/>
<path class="st3" d="M808.4,271.7c-0.8,0.2-1.6,0.1-2.4-0.3c-0.6-0.4-1.1-1.1-1.2-1.9c-0.2-1-0.1-2,0.3-2.9l1.5,0.6
	c-0.2,0.5-0.3,1.1-0.3,1.7c0,0.4,0.2,0.8,0.5,1c0.4,0.2,0.8,0.2,1.3,0.1h0.2h0.1c0.3-0.1,0.5-0.1,0.8-0.3c0.1,0,0.2-0.1,0.3-0.3
	c0-0.2,0-0.3,0-0.5l-0.4-2.6l1.5-0.3c0.2,1.5,0.3,2.3,0.4,2.6c0.1,0.5,0,0.9-0.1,1.4c-0.1,0.4-0.4,0.7-0.7,0.9
	c-0.4,0.3-0.9,0.5-1.4,0.6h-0.2L808.4,271.7z M806.7,265.9l1-1l1,1l-1,1L806.7,265.9z M811.3,269.4c-0.3,0-0.7-0.1-0.9-0.3
	c-0.3-0.3-0.6-0.6-0.7-1c-0.2-0.5-0.4-1.1-0.5-1.7l0,0l0,0l1.5-0.2c0,0.1,0,0.2,0,0.2c0.1,0.5,0.1,0.8,0.2,1c0,0.1,0.1,0.3,0.2,0.4
	c0.1,0.1,0.2,0.1,0.2,0.1h0.3v1.7L811.3,269.4z"/>
<path class="st3" d="M811.4,267.7h2.3h0.1c0,0,0,0,0-0.1v-0.1v-0.1l-2.1-3l0.3-1.3l3.5-1.3l0.5,1.6l-2.7,1l0.1-0.4l1.5,2.3
	c0.2,0.3,0.3,0.6,0.4,0.9c0.1,0.3,0.1,0.5,0.1,0.8c0,0.2-0.1,0.5-0.3,0.7s-0.4,0.4-0.6,0.5c-0.3,0.1-0.6,0.2-0.9,0.2h-2.1
	L811.4,267.7z M811.4,267.7L811.4,267.7v1.7l0,0V267.7z"/>
<path class="st3" d="M822.2,271.7c-0.8,0.2-1.6,0.2-2.3-0.3c-0.7-0.4-1.1-1.1-1.2-1.9c-0.2-1-0.1-2,0.3-2.9l1.5,0.6
	c-0.2,0.5-0.3,1.1-0.3,1.7c0,0.4,0.2,0.8,0.5,1c0.4,0.2,0.8,0.2,1.2,0.1h0.2h0.2c0.3-0.1,0.5-0.2,0.8-0.3c0.1-0.1,0.2-0.2,0.3-0.3
	c0-0.2,0-0.4,0-0.5l-0.2-6.3l1.5-0.1l0.2,6.2c0,0.4,0,0.9-0.2,1.3c-0.1,0.3-0.4,0.6-0.7,0.9c-0.4,0.3-0.8,0.5-1.2,0.6L822.2,271.7z"
	/>
<path class="st3" d="M828.3,269.4c-0.4,0-0.8-0.1-1.2-0.2c-0.3-0.2-0.5-0.4-0.7-0.8s-0.2-0.9-0.3-1.4l-0.2-4.4l1.5-0.1l0.2,4.5v0.1
	c0,0.1,0,0.3,0,0.4s0.1,0.1,0.1,0.1c0.1,0,0.3,0,0.4,0h0.1L828.3,269.4L828.3,269.4z"/>
<path class="st3" d="M828.3,267.7h0.6c0.1,0,0.3,0,0.4,0c0.1,0,0.1-0.1,0.1-0.2l-0.1-1.2l1.5-0.1l0.1,1.2c0,0.4,0,0.8-0.2,1.1
	c-0.2,0.3-0.4,0.6-0.7,0.7c-0.3,0.2-0.7,0.3-1.1,0.3h-0.6V267.7z M828.7,270.9l1-1l1,1l-1,1L828.7,270.9z M831.3,269.4
	c-0.5,0-1-0.2-1.4-0.5c-0.4-0.4-0.6-0.9-0.6-1.5l1.5-0.1c0,0.1,0,0.2,0,0.3c0,0.1,0.1,0.1,0.1,0.1c0.1,0,0.2,0,0.3,0L831.3,269.4z"
	/>
<path class="st3" d="M831.3,267.7h0.8c0.2,0,0.3,0,0.5,0c0.1,0,0.2-0.1,0.2-0.2s0-0.3,0-0.4l-0.4-1.4l1.5-0.4l0.4,1.4
	c0.1,0.5,0.1,1,0,1.4s-0.4,0.8-0.7,1c-0.4,0.3-0.9,0.4-1.3,0.4h-0.8L831.3,267.7z M831.5,263.7l1-1l1,1l-1,1L831.5,263.7z"/>
<path class="st3" d="M836.9,269.4c-0.3,0-0.6-0.1-0.9-0.2c-0.3-0.1-0.5-0.3-0.6-0.6c-0.1-0.2-0.2-0.5-0.2-0.8v-0.6h1.4v0.3l0,0
	c0,0,0,0,0,0.1h1.5c0.1,0,0.2,0,0.2-0.1s0-0.2,0-0.2c-0.2-0.4-0.4-0.8-0.6-1.1c-0.3-0.5-0.5-0.9-0.9-1.3l1.2-1
	c0.4,0.5,0.7,1.1,1.1,1.6c0.3,0.5,0.5,0.9,0.6,1.5c0.1,0.4,0.1,0.8,0,1.2c-0.1,0.4-0.4,0.7-0.7,0.9c-0.4,0.2-0.8,0.3-1.2,0.3
	L836.9,269.4z"/>
<rect x="953.6" y="228.5" class="st19" width="8.3" height="76.9"/>
<image style="overflow:visible;opacity:0.6;enable-background:new    ;" width="448" height="548" xlink:href="9789298A.png"  transform="matrix(1 0 0 1 0 471)">
</image>
<rect x="120.1" y="590.4" class="st6" width="207.7" height="307"/>
<g>
	<path class="st2" d="M239.8,676.9h-42.3v-43.1h24.7v-7h-24.7c-3.9,0-7,3.1-7.1,7v42.3c0,3.9,3.2,7,7.1,7h42.3c3.9,0,7-3.2,7-7
		v-24.7h-7V676.9z"/>
	<path class="st2" d="M246.9,616.2h-7v10.6h-10.6v7h10.6v10.6h7v-10.5h10.6v-7H247v-10.7H246.9z"/>
	<rect x="204.6" y="640.9" class="st2" width="28.2" height="7"/>
	<polygon class="st2" points="204.6,651.5 204.6,658.5 232.8,658.5 232.8,651.5 222.2,651.5 	"/>
	<rect x="204.6" y="662.1" class="st2" width="28.2" height="7"/>
</g>
<rect x="120.1" y="866" class="st16" width="207.7" height="31.5"/>
<g id="Iconly_Two-tone_Heart-4">
	<g id="Heart-5-4">
		<path id="Path_33961-2-4" class="st2" d="M223.8,889.8c-1.9-1.1-3.6-2.4-5.3-3.9c-1.1-1-2-2.3-2.5-3.8c-1.1-2.7,0.2-5.7,2.9-6.8
			c0.1,0,0.2-0.1,0.3-0.1c1.6-0.5,3.4-0.2,4.8,0.7l0,0c1.4-1,3.1-1.3,4.7-0.8c2.7,0.9,4.2,3.8,3.4,6.5c0,0.1-0.1,0.2-0.1,0.3
			c-0.5,1.4-1.4,2.7-2.5,3.8c-1.6,1.5-3.4,2.8-5.3,3.9l-0.2,0.1L223.8,889.8z"/>
	</g>
</g>
<rect x="229.3" y="763.6" class="st1" width="83" height="4.7"/>
<rect x="265.5" y="746.3" class="st1" width="46.8" height="4.7"/>
<rect x="229.3" y="713.2" class="st23" width="83" height="16.5"/>
<rect x="229.3" y="780.9" class="st1" width="83" height="4.7"/>
<rect x="229.3" y="798.2" class="st1" width="83" height="4.7"/>
<rect x="229.3" y="814.8" class="st1" width="83" height="4.7"/>
<rect x="229.3" y="832.1" class="st1" width="83" height="4.7"/>
<g>
	<g>
		<defs>
			<rect id="SVGID_1_" x="134.4" y="729.7" width="84.3" height="107.1"/>
		</defs>
		<clipPath id="SVGID_2_">
			<use xlink:href="#SVGID_1_"  style="overflow:visible;"/>
		</clipPath>
		<g class="st24">
			
				<image style="overflow:visible;enable-background:new    ;" width="3905" height="2929" xlink:href="C:\Users\Jeyran\Downloads\jj-ying-7JX0-bfiuxQ-unsplash (4).jpg"  transform="matrix(4.000000e-02 0 0 4.000000e-02 100.42 725.54)">
			</image>
		</g>
	</g>
</g>
<g>
	<rect x="134.4" y="729.7" width="84.3" height="107.1"/>
</g>
<image style="overflow:visible;opacity:0.6;enable-background:new    ;" width="346" height="347" xlink:href="E6D2FEA1.png"  transform="matrix(1 0 0 1 85 265)">
</image>
<circle class="st5" cx="258.2" cy="437.5" r="52.6"/>
<g>
	<path class="st25" d="M273.7,456.6h-33.3v-33.9h19.4v-5.5h-19.4c-3.1,0-5.5,2.5-5.5,5.5V456c0,3.1,2.5,5.5,5.5,5.5h33.3
		c3.1,0,5.5-2.5,5.5-5.5v-19.4h-5.5V456.6z"/>
	<path class="st25" d="M279.3,408.9h-5.5v8.3h-8.3v5.5h8.3v8.3h5.5v-8.3h8.3v-5.5h-8.3V408.9z"/>
	<rect x="246" y="428.3" class="st25" width="22.2" height="5.5"/>
	<polygon class="st25" points="246,436.6 246,442.1 268.2,442.1 268.2,436.6 259.9,436.6 	"/>
	<rect x="246" y="444.9" class="st25" width="22.2" height="5.5"/>
</g>
<polygon class="st18" points="910.6,735.1 980.2,735.1 910.6,650.6 841,735.1 "/>
<image style="overflow:visible;opacity:0.6;enable-background:new    ;" width="499" height="439" xlink:href="E6D2FEA3.png"  transform="matrix(1 0 0 1 614.76 596.33)">
</image>
<rect x="735.2" y="716" class="st6" width="257.8" height="198.1"/>
<path class="st1" d="M920.2,782.3c-5.7,10.8-6.2,22.5-5.4,34.3c0.2,4.5,1.2,8.9,2.8,13.1c2.1,5,4.5,6.2,9.9,5.2s10.1-3.4,15.3-6.1
	c-0.8,5.6-1.5,10.8-2.2,16c-0.9,6.3-1.8,12.7-2.8,19c-0.2,1.3,0.2,1.7,1.4,1.7c9.2,0,18.5,0,27.7,0c2.3,0,1.2-1.5,1-2.4
	c-3.2-15-6.4-30-9.6-45c-0.1-0.6-0.4-1.2-0.8-1.7c-1.5-1.5-1.3-2.8-0.3-4.5c4.1-6.6,0.8-12.4-7-12.5c-1.4,0-2.7-0.6-3.7-1.7
	c-1.1-1.2-2.3-2.2-3.8-2.9c-1.1-0.5-2.4-0.8-2.1-2.4c0.4-1.7,0.6-3.7,2.8-4.2c2-0.5,4-0.7,6-0.7c2.1,0,4.3-0.3,6.3-0.9
	c0.6-0.2,1.2-0.5,1.2-1.3s-0.7-1-1.3-1.2c-0.9-0.2-1.9-0.3-2.9-0.3c-10.2,0.2-20.3-0.4-30.4-1.9
	C921.8,781.8,920.9,781.5,920.2,782.3z"/>
<path class="st21" d="M920.2,782.3c12.1,2.5,24.3,2.4,36.6,2.8c-1.6,1.4-3.5,1.1-5.3,1.4c-1.6,0.3-3.2,0.1-4.8,0.3
	c-5.5,0.5-6.2,1.3-7.3,6.7c-0.3,1.2,0,1.5,1.1,1.6c0.6,0,1.3,0.2,1.8,0.6c3.6,2.5,6.8,5.1,11.9,5.4c4.1,0.2,5.3,6.3,2.7,10.3
	c-2.5,3.8-2.4,4.2,1.5,6.9c2.3-0.7,4.2-2.2,5.5-4.2c4.8-6.8,7.6-14.3,7.2-22.7c-0.4-8.8-5-15.1-13-18.7c-9.7-4.4-19.7-4.4-29.7-0.7
	c-4.2,1.5-7.4,4.2-8.6,8.8C919.7,781.2,919.4,781.8,920.2,782.3z"/>
<rect x="765.3" y="759.3" class="st16" width="105.9" height="58.8"/>
<path class="st3" d="M797,797.4c-1.2,0.4-2.5,0.2-3.6-0.4c-1-0.6-1.7-1.7-1.9-2.9c-0.2-1.5-0.1-3,0.5-4.4l2.2,0.9
	c-0.3,0.8-0.5,1.7-0.5,2.7c0,0.6,0.3,1.1,0.8,1.5c0.6,0.3,1.3,0.3,1.9,0.1h0.2h0.2c0.4-0.1,0.8-0.2,1.2-0.4c0.2-0.1,0.4-0.2,0.5-0.4
	s0.1-0.5,0-0.7c0-0.3-0.3-1.7-0.6-4l2.3-0.4l0.6,4c0.1,0.7,0.1,1.4-0.1,2.1c-0.2,0.6-0.6,1.1-1.1,1.4c-0.6,0.4-1.4,0.7-2.1,0.9
	l-0.3,0.1L797,797.4z M794.4,788.5l1.6-1.5l1.6,1.6l-1.6,1.6L794.4,788.5z M801.4,793.9c-0.5,0-1-0.2-1.5-0.5
	c-0.5-0.4-0.9-1-1.1-1.6c-0.4-0.8-0.6-1.7-0.7-2.5c0,0,0,0,0-0.1v-0.1l2.3-0.4c0,0.1,0,0.3,0,0.4c0.1,0.7,0.2,1.2,0.3,1.5
	c0,0.2,0.1,0.4,0.2,0.6c0.1,0.1,0.2,0.1,0.4,0.1h0.4v2.6H801.4z"/>
<path class="st3" d="M801.5,791.3h3.3c0.1,0,0.1,0,0.2,0h0.1v-0.1v-0.1c0-0.1,0-0.1-0.1-0.1l-3.2-4.5l0.5-2l5.3-2l0.8,2.5l-4.2,1.5
	l0.2-0.6l2.4,3.5c0.3,0.4,0.5,0.9,0.6,1.3c0.1,0.4,0.1,0.8,0.1,1.2c-0.1,0.4-0.2,0.7-0.4,1c-0.3,0.3-0.6,0.6-1,0.8s-0.9,0.3-1.4,0.3
	h-3.3L801.5,791.3z M801.6,791.3L801.6,791.3v2.6l0,0V791.3z"/>
<path class="st3" d="M818.2,797.4c-1.2,0.4-2.5,0.2-3.6-0.4c-1-0.7-1.7-1.7-1.8-2.9c-0.3-1.5-0.1-3,0.5-4.4l2.2,0.9
	c-0.3,0.8-0.5,1.7-0.5,2.6c0,0.6,0.3,1.2,0.8,1.5c0.6,0.3,1.3,0.3,1.9,0.1l0.3-0.1l0.2-0.1c0.4-0.1,0.8-0.2,1.2-0.4
	c0.2-0.1,0.4-0.2,0.5-0.4c0.1-0.3,0.1-0.5,0.1-0.8l-0.4-9.5l2.3-0.1l0.4,9.5c0,0.7,0,1.4-0.3,2c-0.2,0.5-0.5,1-1,1.3
	c-0.6,0.4-1.2,0.7-1.9,0.9L818.2,797.4z"/>
<path class="st3" d="M827.5,793.9c-0.6,0-1.2-0.1-1.8-0.4c-0.5-0.3-0.8-0.7-1-1.1c-0.2-0.7-0.4-1.4-0.4-2.1l-0.3-6.7l2.3-0.1
	l0.3,6.9v0.2c0,0.2,0,0.4,0,0.6c0,0.1,0.1,0.2,0.2,0.2c0.2,0,0.4,0,0.6,0h0.2v2.6L827.5,793.9z"/>
<path class="st3" d="M827.5,791.3h0.9c0.2,0,0.4,0,0.6-0.1c0.1,0,0.1-0.2,0.1-0.3l-0.2-1.8l2.3-0.2l0.2,1.8c0.1,0.6,0,1.2-0.3,1.7
	c-0.2,0.5-0.6,0.9-1.1,1.2s-1.1,0.4-1.7,0.4h-0.9L827.5,791.3z M828.2,796.1l1.6-1.6l1.6,1.6l-1.6,1.6L828.2,796.1z M832.2,793.9
	c-0.8,0-1.6-0.2-2.1-0.8c-0.6-0.6-0.9-1.4-0.9-2.2l2.3-0.2c0,0.1,0,0.3,0.1,0.4c0,0.1,0.1,0.1,0.2,0.2c0.1,0,0.3,0,0.5,0
	L832.2,793.9L832.2,793.9z"/>
<path class="st3" d="M832,791.3h1.2c0.2,0,0.5,0,0.7-0.1c0.1,0,0.2-0.1,0.3-0.3c0-0.2,0-0.4-0.1-0.6l-0.6-2.2l2.3-0.7l0.6,2.2
	c0.2,0.7,0.2,1.5,0,2.2c-0.2,0.6-0.6,1.2-1.1,1.5c-0.6,0.4-1.3,0.6-2.1,0.6H832V791.3z M832.3,785.2l1.6-1.6l1.6,1.6l-1.6,1.6
	L832.3,785.2z"/>
<path class="st3" d="M840.7,793.9c-0.5,0-1-0.1-1.4-0.3s-0.8-0.5-1-0.9c-0.2-0.3-0.4-0.8-0.4-1.2v-0.9h2.2v0.5l0,0
	c0,0.1,0,0.1,0,0.1h0.1h2.1c0.2,0,0.3,0,0.4-0.1c0-0.1,0-0.2,0-0.4c-0.3-0.6-0.6-1.2-0.9-1.7c-0.4-0.7-0.8-1.4-1.3-2.1l1.9-1.6
	c0.6,0.8,1.1,1.6,1.6,2.5c0.4,0.7,0.8,1.5,1,2.2c0.2,0.6,0.2,1.3,0,1.9c-0.2,0.5-0.5,1-1,1.3s-1.2,0.5-1.8,0.5L840.7,793.9z"/>
<rect x="765.3" y="818.1" class="st16" width="105.9" height="58.8"/>
<path class="st3" d="M789.8,853.9h0.2c1.1-0.3,1.9-0.4,2.3-0.6c0.3-0.1,0.6-0.2,0.8-0.4c0.1-0.2,0.1-0.5,0.1-0.7l-0.3-2.3
	c0-0.4-0.1-0.7-0.3-1c-0.2-0.2-0.4-0.3-0.7-0.3c-0.2,0-0.3,0-0.4,0.1c-0.1,0.1-0.2,0.2-0.3,0.4s-0.1,0.3-0.1,0.5s0.1,0.3,0.2,0.4
	c0.2,0.1,0.4,0.1,0.5,0.1h4.3v2.6h-4.3c-0.8,0-1.6-0.3-2.1-0.8c-0.6-0.6-0.9-1.4-0.9-2.2c-0.1-0.6,0-1.3,0.3-1.9
	c0.2-0.6,0.6-1.1,1.1-1.4c0.5-0.4,1-0.6,1.6-0.6s1.2,0.1,1.7,0.4c0.5,0.3,0.9,0.8,1.2,1.3c0.3,0.6,0.5,1.3,0.6,1.9l0.3,2.3
	c0.1,0.8,0,1.6-0.3,2.3c-0.3,0.6-0.9,1.1-1.5,1.3c-1,0.4-2.1,0.7-3.2,1h-0.1h-0.1L789.8,853.9z"/>
<path class="st3" d="M796,850.1h0.7c0.2,0,0.4,0,0.6-0.1c0.1-0.1,0.1-0.2,0.1-0.4v-1.8h2.2v1.8c0,0.5-0.1,1-0.3,1.5s-0.6,0.9-1,1.2
	c-0.5,0.3-1,0.5-1.6,0.5H796V850.1z M800.2,852.7c-0.5,0-1.1-0.2-1.5-0.5s-0.8-0.7-1-1.2c-0.2-0.4-0.3-0.9-0.3-1.4h2.2
	c0,0.1,0,0.3,0.1,0.4c0.1,0.1,0.3,0.1,0.5,0.1h0.1c0.2,0,0.4,0,0.5-0.1s0.1-0.2,0.1-0.4v-1.8h2.2v1.8c0,0.5-0.1,1-0.3,1.5
	s-0.6,0.9-1,1.2C801.3,852.6,800.8,852.7,800.2,852.7L800.2,852.7z M799,845l1.4-1.4l1.4,1.4l-1.4,1.4L799,845z M800.9,842.7
	l1.1-1.1l1.1,1.1l-1.1,1.1L800.9,842.7z M803.8,852.7c-0.5,0-1.1-0.1-1.5-0.5c-0.4-0.3-0.8-0.7-1-1.2s-0.3-1-0.3-1.5h2.2
	c0,0.1,0,0.3,0.1,0.4c0.2,0.1,0.3,0.1,0.5,0.1s0.4,0,0.5-0.1s0.2-0.2,0.2-0.3c0-0.2,0-0.4-0.1-0.6l-0.6-2.2l2.3-0.7l0.6,2.2
	c0.2,0.7,0.2,1.4,0,2.2c-0.1,0.6-0.5,1.2-1,1.6C805.1,852.5,804.5,852.7,803.8,852.7L803.8,852.7z M802.2,845l1.4-1.4l1.4,1.4
	l-1.4,1.4L802.2,845z"/>
<path class="st3" d="M816.8,856.2c-1.2,0.4-2.5,0.2-3.6-0.4c-1-0.6-1.7-1.7-1.8-2.9c-0.2-1.5-0.1-3,0.5-4.4l2.2,0.9
	c-0.3,0.8-0.5,1.7-0.5,2.7c0,0.6,0.3,1.2,0.8,1.5c0.6,0.3,1.3,0.3,1.9,0.1l0.3-0.1l0.2-0.1c0.4-0.1,0.8-0.2,1.2-0.4
	c0.2-0.1,0.4-0.2,0.5-0.4c0.1-0.3,0.1-0.5,0.1-0.8l-0.4-9.5l2.3-0.1l0.4,9.5c0,0.7,0,1.4-0.3,2c-0.2,0.5-0.5,1-1,1.3
	c-0.6,0.4-1.2,0.7-1.9,0.9L816.8,856.2z M821.4,852.7c-0.5,0-1.1-0.1-1.5-0.4c-0.4-0.3-0.8-0.6-1.1-1.1s-0.4-1.1-0.4-1.6l2.3-0.1
	c0,0.2,0,0.4,0.2,0.5s0.4,0.2,0.5,0.1h0.3v2.6H821.4z"/>
<path class="st3" d="M821.5,850.1L821.5,850.1c0.3,0,0.5,0,0.8-0.1c0.2-0.1,0.3-0.3,0.2-0.5l2.3,0.2c0,0.6-0.2,1.1-0.5,1.6
	c-0.3,0.4-0.7,0.8-1.2,1s-1,0.4-1.6,0.4h-0.1L821.5,850.1L821.5,850.1z M825,852.7c-0.5,0-1-0.1-1.4-0.4c-0.4-0.3-0.7-0.7-0.9-1.2
	s-0.3-1.1-0.2-1.6l0.2-1.8l2.3,0.2l-0.2,1.8c0,0.1,0,0.2,0,0.3l0.1,0.1L825,852.7z M825,850.1h4.8c0.2,0,0.3,0,0.4-0.1
	c0.1-0.1,0.3-0.2,0.3-0.3c0.1-0.1,0.1-0.2,0.1-0.3c0-0.2-0.1-0.5-0.3-0.7s-0.4-0.3-0.7-0.2c-0.2,0-0.4,0.1-0.5,0.2
	c-0.2,0.2-0.4,0.3-0.5,0.5c-0.2,0.3-0.5,0.7-0.9,1.2l-1.3,1.8l-1.8-1.7l1.2-1.6c0.6-0.8,1-1.4,1.4-1.8c0.3-0.4,0.7-0.7,1.2-0.9
	c0.4-0.2,0.9-0.3,1.4-0.3c0.6,0,1.2,0.2,1.7,0.5s0.9,0.8,1.2,1.3c0.3,0.6,0.4,1.2,0.4,1.8s-0.1,1.1-0.4,1.6
	c-0.3,0.5-0.7,0.9-1.2,1.2s-1,0.5-1.6,0.5H825V850.1z M833.8,852.7c-0.5,0-0.9-0.1-1.3-0.3c-0.4-0.2-0.8-0.4-1.1-0.7l1.6-1.9
	c0.1,0.1,0.2,0.2,0.3,0.2c0.2,0.1,0.3,0.1,0.5,0.1h0.2v2.6L833.8,852.7L833.8,852.7z"/>
<path class="st3" d="M833.9,850.1h2.8c0.2,0,0.4,0,0.6-0.1c0.1,0,0.1-0.2,0.1-0.3l-0.2-1.8l2.3-0.2l0.2,1.8c0.1,0.6,0,1.2-0.3,1.7
	c-0.2,0.5-0.6,0.9-1.1,1.2s-1.1,0.4-1.7,0.4h-2.8v-2.7H833.9z M834.2,845.2l1.4-1.4l1.4,1.4l-1.4,1.4L834.2,845.2z M837.3,845.2
	l1.4-1.4l1.4,1.4l-1.4,1.4L837.3,845.2z M840.5,852.7c-0.8,0-1.6-0.2-2.2-0.8c-0.6-0.6-0.9-1.4-0.9-2.2l2.3-0.2c0,0.1,0,0.3,0.1,0.4
	c0,0.1,0.1,0.1,0.2,0.1c0.2,0,0.3,0,0.5,0L840.5,852.7L840.5,852.7z"/>
<path class="st3" d="M840.3,850.1h0.2c0.2,0,0.4,0,0.5-0.1s0.3-0.2,0.3-0.3l1.1-2.1c0.2-0.5,0.6-0.8,1-1.1s0.8-0.4,1.3-0.4
	s1,0.1,1.4,0.3c0.5,0.3,1,0.7,1.2,1.3c0.3,0.6,0.4,1.3,0.4,1.9c0,0.7-0.2,1.4-0.6,2c-0.2,0.3-0.4,0.6-0.8,0.9
	c-0.3,0.2-0.7,0.3-1.1,0.4c-0.4,0-0.8-0.1-1.1-0.3l-2.3-1.2l1.1-2.2l2.5,1.3h-0.1h-0.1h-0.1c0.1-0.2,0.3-0.5,0.3-0.8
	c0.1-0.2,0.1-0.4,0-0.6c0-0.2-0.2-0.3-0.3-0.4c-0.1-0.1-0.3-0.1-0.4-0.1c-0.2,0-0.3,0.1-0.4,0.2c-0.1,0.2-0.3,0.3-0.4,0.5l-0.8,1.5
	c-0.3,0.6-0.7,1.1-1.2,1.4c-0.5,0.3-1.1,0.5-1.7,0.5H840L840.3,850.1z"/>
<line class="st26" x1="772.5" y1="818.1" x2="863.4" y2="818.1"/>
</svg>
