<svg xmlns="http://www.w3.org/2000/svg" width="116.662" height="38" viewBox="0 0 116.662 38">
  <g id="Group_76" data-name="Group 76" transform="translate(-1751.338 -33)">
    <g id="TB-Logo" transform="translate(1836.465 33)">
      <path id="Path_8" data-name="Path 8" d="M13.56,21.129V32.481a16.317,16.317,0,0,1-6.78-3l-.158-.158A16.361,16.361,0,0,1,0,16.556V0A16.766,16.766,0,0,1,5.361,1.892,8.665,8.665,0,0,1,6.78,3a12.817,12.817,0,0,1,3,2.838A16.867,16.867,0,0,1,13.56,16.241v.473H11.2a4.576,4.576,0,0,0-4.573,4.573H13.56Z" transform="translate(0)" fill="#000019"/>
      <path id="Path_9" data-name="Path 9" d="M24.96,3.4V19.325h0v.315a16.8,16.8,0,0,1-6.78,13.4l-.158.158A17.6,17.6,0,0,1,11.4,36.039V19.168h2.207A4.576,4.576,0,0,0,18.18,14.6H12.188A14.5,14.5,0,0,1,14.4,10.18,18.03,18.03,0,0,1,18.18,6.238c.158-.158.473-.315.631-.473a18.144,18.144,0,0,1,3.942-1.892A11.047,11.047,0,0,1,24.96,3.4Z" transform="translate(6.575 1.961)" fill="#000019"/>
    </g>
    <g id="TB-Type-FA" transform="translate(1751.389 36.438)">
      <path id="Path_17" data-name="Path 17" d="M13.2,21.264l2.594,2.594,2.594-2.594L15.794,18.8Z" transform="translate(3.933 5.581)" fill="#707070"/>
      <path id="Path_18" data-name="Path 18" d="M23.877,5.9a2.886,2.886,0,0,0-1.945,3.5l.778,2.723c.778,3.112-.389,4.669-3.761,4.669H13.372l-.259-2.983a9.536,9.536,0,0,0-2.334-5.576,5.617,5.617,0,0,0-4.8-1.945A5.98,5.98,0,0,0,1.442,8.753,7.424,7.424,0,0,0,.015,14.2a6.515,6.515,0,0,0,1.816,4.28,5.783,5.783,0,0,0,4.28,1.556h4.8v.13c.259,1.945-.259,3.242-1.427,3.891s-4.02,1.427-8.429,2.334l.519,2.983q2.14-.389,3.5-.778c.908-.259,1.816-.519,2.853-.778a17.32,17.32,0,0,0,2.334-.908,7.8,7.8,0,0,0,1.686-1.167,4.054,4.054,0,0,0,1.167-1.427,10.8,10.8,0,0,0,.519-1.945,7.839,7.839,0,0,0,0-2.464h5.317a7.318,7.318,0,0,0,5.576-2.2c1.3-1.556,1.556-3.631.908-6.355ZM6.11,16.923h0c-2.075,0-3.242-1.037-3.372-2.983a4.348,4.348,0,0,1,.778-3.112A3.154,3.154,0,0,1,6.11,9.4a3.148,3.148,0,0,1,2.723,1.167,6.1,6.1,0,0,1,1.3,3.631l.259,2.723Z" transform="translate(0 1.751)" fill="#707070"/>
      <path id="Path_19" data-name="Path 19" d="M39.758,2.594,37.294,0,34.7,2.594l2.594,2.594Z" transform="translate(10.315)" fill="#707070"/>
      <path id="Path_20" data-name="Path 20" d="M44.747,17.7c1.3-1.556,1.686-3.631.908-6.355L44.228,5.9h0a2.784,2.784,0,0,0-1.945,3.5l.778,2.723c.778,3.112-.389,4.669-3.761,4.669H34.632l-.519-2.983a9.536,9.536,0,0,0-2.334-5.576,5.617,5.617,0,0,0-4.8-1.945,5.776,5.776,0,0,0-4.539,2.464,7.26,7.26,0,0,0-1.427,5.317,6.515,6.515,0,0,0,1.816,4.28,5.783,5.783,0,0,0,4.28,1.556h4.8v.13c.259,1.945-.259,3.242-1.427,3.891s-4.02,1.427-8.429,2.334l.519,2.983q2.14-.389,3.5-.778c.908-.259,1.816-.519,2.853-.778a17.32,17.32,0,0,0,2.334-.908,7.8,7.8,0,0,0,1.686-1.167,4.054,4.054,0,0,0,1.167-1.427,10.8,10.8,0,0,0,.519-1.945,7.839,7.839,0,0,0,0-2.464h4.409A6.764,6.764,0,0,0,44.747,17.7ZM27.11,16.923h0c-2.075,0-3.242-1.037-3.372-2.983a4.348,4.348,0,0,1,.778-3.112,3.377,3.377,0,0,1,5.317-.259,6.1,6.1,0,0,1,1.3,3.631l.259,2.723H27.11Z" transform="translate(6.234 1.751)" fill="#707070"/>
      <path id="Path_21" data-name="Path 21" d="M59.039,2.5,56.7.3,54.5,2.5l2.2,2.2Z" transform="translate(16.193 0.089)" fill="#707070"/>
      <path id="Path_22" data-name="Path 22" d="M60.676,5.9h0a2.784,2.784,0,0,0-1.945,3.5l.778,2.723c.908,3.112-.389,4.669-3.761,4.669H50.561a2.276,2.276,0,0,1-1.945-.778,10.057,10.057,0,0,1-.908-3.631c-.13-1.037-.259-1.686-.259-1.816v-.13l-.13-1.3a2.8,2.8,0,0,0-2.334,3.242l1.037,7.781a1.645,1.645,0,0,0,.13.778,4.279,4.279,0,0,1-2.334,3.891A37.311,37.311,0,0,1,38.5,26.52l.648,2.853c3.631-1.037,6.1-2.075,7.781-3.372,1.556-1.3,2.2-3.372,1.816-6.225a8.757,8.757,0,0,0,1.816.259h5.317a7.027,7.027,0,0,0,5.447-2.2c1.3-1.427,1.686-3.5.908-6.225Z" transform="translate(11.443 1.751)" fill="#707070"/>
      <path id="Path_23" data-name="Path 23" d="M54.139,2.5,51.8.3,49.6,2.5l2.2,2.2Z" transform="translate(14.738 0.089)" fill="#707070"/>
    </g>
  </g>
</svg>