<svg width="26" height="26" viewBox="0 0 26 26" fill="none" xmlns="http://www.w3.org/2000/svg">
<path d="M7 16.5V19H9.5L16.8733 11.6267L14.3733 9.12667L7 16.5ZM8.94667 17.6667H8.33333V17.0533L14.3733 11.0133L14.9867 11.6267L8.94667 17.6667ZM18.8067 8.75333L17.2467 7.19333C17.1133 7.06 16.9467 7 16.7733 7C16.6 7 16.4333 7.06667 16.3067 7.19333L15.0867 8.41333L17.5867 10.9133L18.8067 9.69333C19.0667 9.43333 19.0667 9.01333 18.8067 8.75333V8.75333Z" fill="#757575"/>
<path d="M9 2H17V0H9V2ZM24 9V17H26V9H24ZM17 24H9V26H17V24ZM2 17V9H0V17H2ZM9 24C5.13401 24 2 20.866 2 17H0C0 21.9706 4.02944 26 9 26V24ZM24 17C24 20.866 20.866 24 17 24V26C21.9706 26 26 21.9706 26 17H24ZM17 2C20.866 2 24 5.13401 24 9H26C26 4.02944 21.9706 0 17 0V2ZM9 0C4.02944 0 0 4.02944 0 9H2C2 5.13401 5.13401 2 9 2V0Z" fill="#757575"/>
</svg>
