<svg width="26" height="26" viewBox="0 0 26 26" fill="none" xmlns="http://www.w3.org/2000/svg">
<path d="M16.3333 7H8.33333C7.59333 7 7 7.6 7 8.33333V17.6667C7 18.4 7.59333 19 8.33333 19H17.6667C18.4 19 19 18.4 19 17.6667V9.66667L16.3333 7ZM17.6667 17.6667H8.33333V8.33333H15.78L17.6667 10.22V17.6667ZM13 13C11.8933 13 11 13.8933 11 15C11 16.1067 11.8933 17 13 17C14.1067 17 15 16.1067 15 15C15 13.8933 14.1067 13 13 13ZM9 9H15V11.6667H9V9Z" fill="#757575"/>
<path d="M9 2H17V0H9V2ZM24 9V17H26V9H24ZM17 24H9V26H17V24ZM2 17V9H0V17H2ZM9 24C5.13401 24 2 20.866 2 17H0C0 21.9706 4.02944 26 9 26V24ZM24 17C24 20.866 20.866 24 17 24V26C21.9706 26 26 21.9706 26 17H24ZM17 2C20.866 2 24 5.13401 24 9H26C26 4.02944 21.9706 0 17 0V2ZM9 0C4.02944 0 0 4.02944 0 9H2C2 5.13401 5.13401 2 9 2V0Z" fill="#757575"/>
</svg>
