<svg version="1" xmlns="http://www.w3.org/2000/svg" width="682.667" height="682.667" viewBox="0 0 512.000000 512.000000"><path d="M0 256v256h512V0H0v256zm189.9-85.7c29.2 10.5 50.1 37.8 52.7 68.8l.7 7.7-9.5.3c-8.4.4-10 .7-14.4 3.4-3.7 2.3-5.6 4.4-7.6 8.4-1.6 3-2.8 6.4-2.8 7.5 0 1.8.6 2.1 4.2 2.1 2.4 0 10 .2 17.1.3l12.7.2v55.2l-3.2-.7c-8.4-1.9-20.8-7.3-28.9-12.7-14-9.4-24.6-22.1-30.6-36.8-4.9-12.3-5.3-16.3-5.3-63.8v-44.4l3.3.7c1.7.4 7 2.1 11.6 3.8zM334 234.4c0 46.1-.5 51.4-5.6 64.2-4.1 10.2-8.9 17.8-16.2 25.6-11.8 12.5-21.7 18.1-44.9 25.3-1 .4-1.3-8.2-1.3-40.4v-40.9l9.8-.4c8.7-.3 10.3-.6 14-3 4.4-2.9 8.6-9.2 9.7-14.6l.7-3.2h-15.1c-11.6 0-15.1-.3-15.1-1.3 0-2 6.6-15.3 10.1-20.4 10.1-14.6 28.1-27 46.9-32.2 7.7-2.1 7-6 7 41.3z"/></svg>