<svg width="24" height="24" viewBox="0 0 24 24" fill="none" xmlns="http://www.w3.org/2000/svg">
<path d="M10.8539 13.1912V19.2013C9.61378 18.9607 8.44214 18.4307 7.42694 17.6512L7.34409 17.5875C6.33072 16.7945 5.50329 15.7726 4.92406 14.5987C4.34483 13.4248 4.02889 12.1294 4 10.81V2C4.94532 2.18281 5.85296 2.53512 6.68248 3.04125C6.94087 3.19644 7.19062 3.36671 7.43054 3.55125C8.00469 3.99162 8.52276 4.50616 8.97231 5.0825C10.1925 6.64093 10.8572 8.59075 10.8539 10.6012V10.81H9.71197C9.1069 10.81 8.52661 11.0602 8.09876 11.5056C7.67091 11.951 7.43054 12.5551 7.43054 13.185L10.8539 13.1912ZM18.9289 5.0825C18.2091 5.3291 17.5248 5.67645 16.8949 6.115C16.7856 6.19 16.6775 6.26875 16.5731 6.35C15.8123 6.93289 15.1507 7.64442 14.6158 8.455C14.1384 9.17797 13.7688 9.97195 13.5195 10.81H16.5719C16.5719 11.1229 16.5125 11.4328 16.3971 11.7218C16.2816 12.0107 16.1125 12.2731 15.8994 12.4938C15.6863 12.7145 15.4334 12.8892 15.1552 13.0078C14.877 13.1264 14.579 13.1866 14.2784 13.185H13.1425V22C14.356 21.7649 15.5042 21.2526 16.5046 20.5L16.5731 20.45C17.6361 19.6375 18.5004 18.5757 19.0958 17.3506C19.6912 16.1255 20.0009 14.7717 20 13.3988V13.1975V4.8C19.6369 4.86904 19.2787 4.96342 18.9277 5.0825H18.9289Z" fill="#191919"/>
</svg>
