<svg width="88" height="24" viewBox="0 0 88 24" fill="none" xmlns="http://www.w3.org/2000/svg">
<path d="M2 6.60296C2 5.98227 2.24651 5.387 2.68531 4.9481C3.1241 4.50921 3.71924 4.26264 4.33979 4.26264H16.0777C16.0777 4.88333 15.8312 5.4786 15.3924 5.91749C14.9536 6.35639 14.3585 6.60296 13.7379 6.60296H10.2829V19.9844H7.81307V6.60296H2ZM24.4126 14.7993H16.4001C16.4001 16.5727 17.44 17.9197 19.2052 17.9197C19.83 17.9182 20.4412 17.7376 20.9665 17.3993C21.4917 17.0611 21.909 16.5793 22.169 16.0111L24.1656 16.7912C23.0217 19.0145 21.6984 19.9792 19.2052 19.9792C15.4798 19.9792 13.9329 16.8354 13.9329 14.1414C13.9329 11.4474 15.4928 8.30619 19.2052 8.30619C22.8189 8.30619 24.4048 11.2472 24.4048 13.7825L24.4126 14.7993ZM16.4469 12.8464H21.9454C21.7426 11.4318 20.7989 10.3761 19.2052 10.3761C17.7026 10.3761 16.7147 11.385 16.4469 12.8464ZM29.1493 19.805H26.8096V8.49082H29.1493V10.3761C29.4768 9.76898 29.958 9.25866 30.5448 8.89627C31.1316 8.53389 31.8033 8.33219 32.4926 8.31139C32.9841 8.30453 33.4723 8.39283 33.9303 8.57143L33.5247 10.7037C33.1239 10.4698 32.6653 10.3535 32.2015 10.3683C31.3721 10.3683 30.6416 10.8181 30.0463 11.7361C29.4509 12.654 29.1493 13.9152 29.1493 15.5976V19.805ZM35.9945 8.49082H38.3343V10.4203C38.7043 9.77768 39.2374 9.24424 39.8798 8.87392C40.5221 8.5036 41.2508 8.30954 41.9922 8.31139C43.9914 8.31139 45.3147 9.54396 45.3147 11.6919V19.805H42.9749V12.4408C42.9749 11.073 42.3925 10.3761 41.2253 10.3761C40.4453 10.3761 39.7642 10.8259 39.1818 11.6997C38.5995 12.5734 38.3291 13.7435 38.3291 15.2257V19.805H35.9893L35.9945 8.49082ZM47.6935 14.1466C47.6443 12.6186 48.182 11.1298 49.1961 9.98602C50.2074 8.86267 51.5775 8.30359 53.2596 8.30359C54.9416 8.30359 56.2831 8.86007 57.2944 9.99382C58.3144 11.1356 58.8603 12.6237 58.8205 14.1544C58.8605 15.6851 58.3147 17.1734 57.2944 18.315C56.284 19.4383 54.9373 20 53.2544 20C51.5723 20 50.2022 19.4383 49.1909 18.315C48.1749 17.1692 47.6371 15.6772 47.6883 14.1466H47.6935ZM50.1632 14.1466C50.1378 15.1011 50.4204 16.0384 50.9692 16.8198C51.2321 17.1763 51.5783 17.4629 51.9776 17.6547C52.3769 17.8464 52.817 17.9374 53.2596 17.9197C53.6991 17.9398 54.1367 17.8496 54.5326 17.6575C54.9285 17.4654 55.2702 17.1775 55.5266 16.8198C56.0929 16.0459 56.3847 15.1052 56.3559 14.1466C56.3851 13.196 56.0929 12.2633 55.5266 11.4994C55.2717 11.1386 54.9309 10.847 54.5352 10.6509C54.1394 10.4547 53.701 10.3603 53.2596 10.3761C52.8152 10.3628 52.3744 10.4582 51.9753 10.654C51.5761 10.8498 51.2308 11.14 50.9692 11.4994C50.4183 12.2702 50.1336 13.1995 50.158 14.1466H50.1632ZM74.0655 14.1466C74.0163 12.6186 74.554 11.1298 75.5681 9.98602C76.5795 8.86267 77.9469 8.30359 79.6316 8.30359C81.3162 8.30359 82.6603 8.86267 83.6716 9.98602C84.6926 11.1272 85.2385 12.6157 85.1977 14.1466C85.2404 15.6777 84.6942 17.1669 83.6716 18.3072C82.6612 19.4305 81.3145 19.9922 79.6316 19.9922C77.9469 19.9922 76.5795 19.4305 75.5681 18.3072C74.5522 17.1642 74.0126 15.6753 74.0603 14.1466H74.0655ZM76.5353 14.1466C76.5098 15.1011 76.7924 16.0384 77.3412 16.8198C77.6041 17.1763 77.9503 17.4629 78.3496 17.6547C78.7489 17.8464 79.189 17.9374 79.6316 17.9197C80.0711 17.9398 80.5088 17.8496 80.9047 17.6575C81.3006 17.4654 81.6422 17.1775 81.8986 16.8198C82.4649 16.0459 82.7568 15.1052 82.7279 14.1466C82.7572 13.196 82.465 12.2633 81.8986 11.4994C81.6437 11.1386 81.303 10.847 80.9072 10.6509C80.5114 10.4547 80.073 10.3603 79.6316 10.3761C79.1872 10.3628 78.7464 10.4582 78.3473 10.654C77.9481 10.8498 77.6028 11.14 77.3412 11.4994C76.7903 12.2702 76.5056 13.1995 76.5301 14.1466H76.5353ZM67.0513 8.40241C66.4494 8.42187 65.8599 8.5784 65.3277 8.86007C64.8188 9.07599 64.372 9.41565 64.0278 9.8482V4H61.688V19.8934H66.9187C68.8062 19.8934 70.2438 19.2485 71.1277 18.0055C71.7959 17.0746 72.1469 15.8108 72.1469 14.235C72.1469 10.6439 70.3738 8.40241 67.0513 8.40241ZM63.8926 18.0055V14.5132C63.8926 14.4222 63.8926 14.3286 63.8926 14.235C63.8926 14.1414 63.8926 14.0504 63.8926 13.9594C63.8855 13.073 64.1675 12.2084 64.6959 11.4968C64.9416 11.1765 65.2576 10.9169 65.6197 10.7383C65.9817 10.5597 66.3799 10.4668 66.7835 10.4668C67.1872 10.4668 67.5854 10.5597 67.9474 10.7383C68.3094 10.9169 68.6255 11.1765 68.8711 11.4968C69.4093 12.1703 69.6797 13.0908 69.6797 14.235C69.6797 15.3792 69.4197 16.3023 68.8711 16.9966C68.6284 17.3167 68.3135 17.5749 67.9521 17.7503C67.5907 17.9256 67.193 18.0131 66.7913 18.0055H63.8926Z" fill="#191919"/>
</svg>
