<svg id="Layer_1" data-name="Layer 1" xmlns="http://www.w3.org/2000/svg" viewBox="0 0 742.47 807.31"><defs><style>.cls-1{fill:#e0e0e0;}.cls-2{fill:#424242;}.cls-3{fill:#c8c8c8;}.cls-4{fill:#191919;}.cls-5{fill:#757575;}.cls-6{fill:#0898df;}.cls-7{fill:#fefefe;}</style></defs><path class="cls-1" d="M254.9,538.43c-2.14,4.37-6.11,8.3-2.14,13.81,1.47,2,3.65,2,5.31,3.2-4,3.54-7.69,7.43-11.82,10.84-10.63.41-21.26.11-31.88.13-12.76,0-25.52-.4-38.29.07-9,.33-18,0-26.91.06-21.42.15-42.84-.37-64.26.16-8.13.2-16.4.22-24.36-1.23a42.88,42.88,0,0,1-23.46-12C25.43,541.76,23.2,527.59,23.4,512.2c.21-15.94.09-31.89.21-47.82.1-13.23-.7-26.49.5-39.78a113.23,113.23,0,0,0-.42-19.36,78.34,78.34,0,0,1,.44-19.83,9.89,9.89,0,0,0,.05-2.49c-1.66-20.07-.35-40.19-.75-60.28-.32-16.19-1-32.51.09-48.79.44-6.89.06-13.94,0-20.91C23.5,241,24,229.05,24,217.11c0-8.78-1.22-17.62-.63-26.37.64-9.47-.27-18.89.25-28.35.42-7.42.3-14.94.22-22.42q-.28-28.11-.32-56.22c0-8.8-.41-17.66,1.86-26.28,4.22-16.07,14-26.36,30.26-31.36C65.79,23,75.78,24.68,85.81,24c4.3-.31,8.64-.12,13-.09,3.89,0,5.8,1.87,6.36,5.54.2,1.32.3,2.65.43,4a16.11,16.11,0,0,0,16.21,14.53c22.12,0,44.23-.39,66.35-.26,7.64,0,15.29.46,22.93.23,12.26-.38,17.85-5.51,19.5-17.57.74-5.43,1.5-6.25,6.9-6.32,11.3-.13,22.67-1,33.88.22,15.28,1.62,27.66,8.67,35.41,22.64a45.44,45.44,0,0,1,5.56,23.46c-.3,17.78-.62,35.58-.38,53.35.14,10.93.52,21.92.52,32.85,0,14.26-.76,28.55-.39,42.81.54,20.92.31,41.83.19,62.74q-.17,26.9-.21,53.79c-.05,15.61.57,31.25.26,46.85-.33,17.44.26,34.87-.06,52.3-.33,4.11-2.38,7.6-4.32,11-12.69,22.56-24.52,45.57-36.21,68.67-2,4-3.64,8.18-5.31,12.33-.6,1.48-1.29,3.62-3.22,3.21-1.55-.32-1.42-2.43-1.53-3.9a36.82,36.82,0,0,0-.82-3.89c.05-6.64-.29-13.26-.28-19.89,0-3.68-1.41-5.18-5-5.05-16.25.55-32.5-1.41-48.75.21-4.13.42-8.27-.6-12.44-.09-2.28.27-3.1,1-3.12,3.37-.06,10,.2,19.92.26,29.88,0,5.54.49,6.05,6,6q27.41-.12,54.83,0c2.47,0,5-.34,7.33.92a2,2,0,0,1,.85,2.18C258.12,526,257.38,532.5,254.9,538.43Z"/><path class="cls-2" d="M311.08,415.34c-.05-12.79-.14-25.58-.13-38.37,0-17.34.61-34.69,0-52-.35-9.52-.88-19.17-.44-28.54.67-14.11-.16-28.16.3-42.24.5-14.89-.06-29.81,0-44.71.06-13.92-.08-27.85.18-41.78.19-9.94-.17-20-.5-30-.58-17.73.7-35.51.28-53.25-.21-8.75,1.33-17.56-1-26.34a50.68,50.68,0,0,0-5.8-13.31c-6.54-10.66-17-16.26-28.76-18.87-7.16-1.58-14.67-.17-22-.51-5.71-.26-11.39.13-17.07-.15-2.86-.14-4.06.68-4.08,3.92,0,8.39-3.25,15.08-11.38,18.72-4.35,2-9,1.48-13.49,1.61-9.44.28-18.91-.25-28.36-.48-10.48-.26-21,0-31.44.16-8.59.12-17.2-.56-25.83.28-6.86.68-16.21-5.51-17.24-14.53s-1-9.21-10.31-9.46c-10.57-.27-21.36-1.41-31.66.25s-20.1,5.91-27.06,14.79a44,44,0,0,0-9.87,26.77c-.32,16-.15,32-.1,48.06,0,12.49.39,25,.26,37.46-.12,11.54-.95,23.08-1,34.63-.05,9.18,1.11,18.4.79,27.56-.35,9.92.39,19.85-.62,29.78-.52,5,.05,10.22.12,15.33.15,10-.05,19.93-.12,29.9-.09,10.53.05,21.08.05,31.6,0,12,.77,24.08.68,36.07-.06,7.46.14,14.94,0,22.4-.15,10.26-.52,20.5-.13,30.79s-.09,20.75-.37,31.12c-.21,8-.06,16.14,0,24.22,0,10.27-.2,20.56-.06,30.79s-1.29,20.43.46,30.4c1.36,7.71,4.14,15.07,9.57,21.55C45.2,561.29,58.26,564.56,73.63,565c12.74.39,25.48.14,38.18.1,10.13,0,20.37,0,30.53-.19,10.36-.23,20.94.51,31.32.06,11.77-.51,23.5,1.36,35.29-.39,5.41-.81,11.12.6,16.71.7,7.09.13,14.2,0,21.3-.09,1.16,1.36.6,2.82.17,4.21-1.64,5.35-3.56,10.61-5.12,16-.58,2-1.62,3.62-4,3.72-4.63,2.24-9.7.74-14.2.37-5.18-.43-10.31-.06-15.43-.22-12.26-.38-24.54.08-36.81.19-12,.1-24,.29-36,.26-15.33,0-30.66-.48-46-.3-10.19.12-20.5.94-30.48-.65a76.37,76.37,0,0,1-23.3-7.66,62.73,62.73,0,0,1-19.59-15.74,64.59,64.59,0,0,1-14-30.67C.22,523.8,1,512.9.67,502c-.3-9.15.37-18.29-.34-27.45-.52-6.66.33-13.45.25-20.2-.12-10.32.17-20.64-.48-31-.21-3.35.59-6.76.63-10.14.13-9.91.25-19.83.12-29.74-.18-13.32-.72-26.64-.85-40-.06-6.87,1.08-13.8.52-20.62-.67-8.15.72-16.24-.11-24.37a56.88,56.88,0,0,1,0-10.68c.81-9.15-.13-18.28-.2-27.41-.08-11.44.11-22.86.43-34.3C1,213,.15,199.88.56,186.77,1,174,.32,161.2.48,148.41c.21-17.28.06-34.62,0-51.92,0-8.16.76-16.5.2-24.53-.57-8.38.85-16.18,2.83-23.9a42.32,42.32,0,0,1,6-13.68A108.89,108.89,0,0,1,20.07,21C24.82,16,30.94,12.61,36.71,8.76c9.75-6.5,20.78-8,31.61-8.22C80.24.27,92.26.7,104.21.62c13.63-.09,27.24.72,40.88.11,12.8-.58,25.65-.07,38.47-.31S209.15.85,222,.57C232.5.34,243.07.27,253.61,0c15.09-.33,30,1.34,43.79,7.36,10.92,4.76,19.27,13.18,26.17,23.11C329,38.26,331,47.29,334.5,55.74a10.68,10.68,0,0,1,.39,3.94c.06,11.73-.47,23.49.31,35.17.59,8.87-.76,17.62-.26,26.43.44,7.86.8,15.74.73,23.6-.1,10.21-1.39,20.46-.82,30.61.65,11.79-.49,23.55.49,35.34.48,5.62-.42,11.44-.26,17.19.43,15.4-.35,30.79.25,46.21.32,8.25-.32,16.66.12,24.94.36,6.77-.31,13.5-.08,20.26.3,8.8.28,17.73.1,26.6-.13,6.45-.28,13,0,19.48.33,7.61-.55,15.36-.61,23.06-.53,2.48-2.52,3.9-4.22,5.39a85.41,85.41,0,0,0-16,19.56C313.91,414.72,313.4,417,311.08,415.34Z"/><path class="cls-3" d="M348.83,745.35c2-10.85.87-21.87,1.7-32.8,1.44-19,2.72-38,5.17-56.92a186.91,186.91,0,0,0-1.35-54.91c-1.85-11.16-1-22.63-.31-33.89a308,308,0,0,1,6.89-48.16c4.53-20.37,9.9-40.56,15-60.8,1.15-4.54,2.91-8.87,6.81-11.9,3.3-2.56,6.3-1.78,8,2a15.91,15.91,0,0,1,1,8.34c-2.82,28.16,4.56,54.37,16.32,79.36,7.12,15.13,13.64,30.38,16,46.87,1.7,11.79,5.58,23.29,5.57,35.27,0,15.39-3.81,29.77-12.66,42.75-4.48,6.57-8.44,13.73-9.15,21.85-.94,10.59,5.35,18.39,11,26.46,12.61,17.92,28.9,33,39.58,52.4,5,9.06,7.79,18.57,5.47,29.15a6.61,6.61,0,0,1-5.06,5.4c-14.53,4.66-29.16,9.25-44.35,10.92-17.73,1.95-34.77-.88-50.16-10.68-1.41-.89-2.7-2-4.47-2-6.68-4.95-9.9-11.84-10.77-19.88-.83-7.71-1.81-15.42-1.66-23.21C347.47,749,347.19,746.92,348.83,745.35Z"/><path class="cls-4" d="M444.6,339.68c-3.9-6.42-9.3-11.68-11.6-19.43-2.82-9.53-4.87-19.13-5.12-28.87a82.81,82.81,0,0,1,5-31.4c3.29-2.26,3.66.62,4.13,2.56,1.27,5.26-.61,10.55-.19,15.85a23.58,23.58,0,0,1-.47,5.17c3.36-4.55,6.93-8.3,11.94-10.49a12.9,12.9,0,0,1,10.64.06,8.91,8.91,0,0,1,5.86,8c.29,3.7-1.85,5.88-4.88,7.39-3.92,2-7.7,3.84-8.34,9-.79,6.42,2.08,9.9,8.53,9.84a22.26,22.26,0,0,0,8.21-1.92,8.19,8.19,0,0,1,8.83,1.34c4.25,3.35,12.17,2.38,15.79-1.65,3.81-4.25,2.08-10.43-3.65-13.08-2.62-1.2-5.5-1.27-8.27-1.8a16.35,16.35,0,0,1-8.65-4.64c-4.21-4.16-3.53-9.56,1.7-12.39a17.62,17.62,0,0,1,12.06-2c6.08,1.19,11.77,3.55,17.53,5.71,3.85,1.44,6.06,4.64,7.95,8s3.88,4.15,7,1.43,6.82-3.94,10.63-5.3c7.4-2.63,13.69-6.85,13.69-15.77,0-8.09,2.35-15.74,3.47-23.62.4-2.77,1.45-5.39,1.77-8.18.07-8.17-.35-16.21-3.76-23.87-3.58-8-4.67-16.49-4.2-25.26.25-4.53-.3-4.53-4.37-2.66-9.74,4.47-19.75,7.41-30.77,6.63-9.25-.66-18.54.14-27.65-2.75-7.48-2.38-14.79-4.89-21.4-9.24-4.59-3-5.93-2.45-7.69,3s-1.49,11.56-3.86,17.07c8.46-2.64,15.89-.62,22.52,5,2.12,1.79,4.22,3.55,1.66,6.56-2.39,2.81-5.78,3.57-8.27,1.26-4.24-3.94-9-5-14.67-4.57-2.67.19-4.36.12-4.53,3.25a3.83,3.83,0,0,1-1.49,2.53c-2.31,1.23-4.63,2.36-7.09.35-4-10.57-1.94-20.72,1.33-31.11a37.41,37.41,0,0,1,8.44-14.22c1.42-1.56.81-2.33.29-3.77-2.28-6.35-3.45-12.53-.07-19.2,2.93-5.78,7-8.79,13.28-8.39,3.11.2,4.46-1,5.89-3.61,1.95-3.61,4.22-7.33,7.23-10,4.58-4.08,10.19-6.43,16.65-5.7s13.21,1.42,18.29,6.46c1.37,1.36,2.11,0,2.77-.8,2.12-2.39,4.8-2.21,7.69-2.47a46.47,46.47,0,0,1,20.83,3.14c1.23.47,3,.56,3.35,1.88,2,6.56,8.19,6.72,13,8.73,6.18,2.55,9.16,7.13,9.94,13.46.15,1.27-.3,3.12,1.84,2.48,5.53-1.64,10,1.18,13.83,4a45.28,45.28,0,0,1,12.88,14,104.61,104.61,0,0,1,5.32,12.09c3.58,8.78,3.34,17.86,3.06,27.08-.3,10.27-2.83,20-5.29,29.9-1.18,4.75-4.15,8.07-7.68,11.1-2.23,2.57-5.07,3.43-8.43,3.46-10,.08-19.36,9.35-19,19.34.27,8.66-2.86,16.62-4.22,24.93-1.82,9.31-4.13,18.48-8.19,27.11-4.19,12.9-11.33,23-25.61,25.71-7.37,1.42-14.13,5-21.6,5.94-8.9,1.16-18.24,3.47-26.72.94C462.1,350.43,451.66,348.06,444.6,339.68Z"/><path class="cls-3" d="M655.48,489.39a13.89,13.89,0,0,0-8.62-10.09c-2.17-.93-3-3.55-2.2-6,1.23-3.62,4.31-4.62,7.78-4.82.43,2-1.56,2.7-2.29,4.08-1.51,2.86-.66,4.58,2.51,4.48a17,17,0,0,0,7.94-2.47,2.6,2.6,0,0,0,1.56-2.83c-.29-1.31-1.46-1.63-2.64-1.87-2.35-.49-5,.57-7.07-1.4a64.83,64.83,0,0,1,12.73-3.11c.09,0,.24-.29.23-.29-.33-.29-.67-.55-1-.82.7-2.47,2.86-2,4.52-2a32.18,32.18,0,0,0,14.48-3.35c8.58-4.14,16.16-2,23.48,2.86,5.71,3.81,10.38,8.84,15.5,13.34,1.8,1.59,3.58,3.32,6.24,3.37.54-2-.68-2.8-1.66-3.6-6.46-5.24-12.39-11.1-19-16.09-8.6-6.45-18-6.59-27.43-2.42-8.48,3.76-16.93,4.17-25.8,2.1-3-.7-5.93-2.38-9.19-1.13-3.47-4.94-2.48-8.49,3-10.8,1.29,1.93-1.9,5.12,1.79,6.38,3.41,1.16,6.52.06,9.56-1.32a2.56,2.56,0,0,0,1.74-2.73c-.25-1.66-1.62-1.92-3-2a18.57,18.57,0,0,0-4.93.39c-1.79.34-3.61.74-5.18-.68,4.76-2.91,10.22-3.54,15.51-4.32,14.17-2.08,28.33-3.46,40.63,6.62,1.18,1,3.54,3.55,4.81-.38,4.27.47,5.37-.58,4.12-4.71a41,41,0,0,0-20.48-25.16c-2.91-1.57-6-2.77-8.57-5-.24-5.47,3.29-7.25,7.84-8,1.53,4.2,10.42,9.25,14.6,8.42,2-.39,2.1-2.38,3.33-3.37,11.39,2.36,17.67,10.62,20.86,20.62,4.47,14,7.59,28.46,11,42.79,1.08,4.58-.68,8.85-3.35,12.67-9,12.93-18.75,25.34-28.85,37.42-8.86,10.6-11,22.31-10.1,35.66,1.84,26.93,8.44,53.44,6.58,80.69-1.57,23.17-7.6,44.85-21.28,63.76-6.27,8.67-13.23,17-22.39,23.14-4.63,3.1-8.61,3.4-13.15-.06a106.06,106.06,0,0,1-23-23.29c3-5.38,3.61-11.38,4.16-17.32,1.63-17.72,5.91-35,8.67-52.49a231.94,231.94,0,0,1,9.78-38.51c2.94-8.63,6.65-17,8.63-25.94,3.41-15.38,6.62-30.78,8.28-46.47.62-5.87.42-11.94,4.23-17.18,4-5.56,9.57-8,16-9,4.9-.76,5.26-1.6,2.38-5.48-4.78-6.47-5.87-6.73-13.67-3.93-3.59,1.29-7.12,2.91-11,2.89-1.32,0-2.94,0-3.51-1.36-.65-1.57.86-2.31,1.95-3,1.43-.88,3.11-1.68,3.6-3.31,1.54-5,5.8-6.55,10-8.14,13.43-5.09,13.42-5,26.61,1.1A46.7,46.7,0,0,1,719.87,489c.89-3.74-.84-5.43-2.47-6.72-8-6.38-17.3-10.47-26.83-14a8,8,0,0,0-5.87.46,192.91,192.91,0,0,0-24.17,11.82c-2.33,1.35-3.51,2.8-2.31,5.62C659.32,488.79,657.69,489.44,655.48,489.39Z"/><path class="cls-5" d="M348.83,745.35c-.32,9.41.75,18.73,1.6,28.07a28.93,28.93,0,0,0,8.55,18.4c.52.52.6,1.46.89,2.21-17.43,9-26.78,8-41.71-4.85-1.77-1.52-3.6-3-5.2-4.66C297.61,768.38,279.69,754.91,265,738c-16.33-18.8-32.53-37.72-45.52-59.06a15.94,15.94,0,0,1-1.7-13.24c7.13-24.49,13.9-49.08,20.79-73.64.31-1.08.93-2.26-.62-3a8.17,8.17,0,0,0,2.87-3.82c2-6.71,4.06-13.4,6.1-20.1,2.79-4.29,6-8.05,11.11-9.77,11.69-2.76,22.53,1.85,33.63,4,14.32,2.79,28.17,7.14,41.14,14,2.07,4.49-1.56,6.65-3.9,9.24s-4.93,1.12-7.31,0c-8.13-4-16.46-7-25.7-7-9.63,0-16.52,4.58-21,12.73-10.77,19.57-18.87,40.27-25.37,61.61a16.51,16.51,0,0,1-1.44,3.71c-4.35,7.29-2.5,14,1.73,20.56,3.07,4.78,6.29,9.42,10.63,13.14,9.79,8.4,16.31,19.64,25.18,28.87C290.23,721,294.29,726.31,299,731c7.76,7.63,16.81,9.2,26.9,4.7,4.18-1.85,7.93-5,12.93-4.56,3.92,1.6,4.77,5.61,6.77,8.7C346.79,741.6,347.77,743.5,348.83,745.35Z"/><path class="cls-3" d="M338.87,731.12c-8.59,3.18-16.18,9.29-26.26,8.13-4.84-.55-9-1.66-12.45-5.28-10.39-11-20.78-21.88-29.66-34.19-3.57-4.93-8.53-8.84-12.81-13.26-5.6-5.77-10.24-12.16-12.8-19.92a13.4,13.4,0,0,1,.21-9.24c6.32-16.93,12.33-34,19-50.74a109.64,109.64,0,0,1,11.52-22c6-8.53,14.83-11.57,25.4-10.14,7.23,1,13.71,3.65,20.21,6.61,6.14,2.8,11-.48,11.57-7.64,7.5,7,4,15.28,2,22.94-5.59,22-15,42.41-27,61.61a65.69,65.69,0,0,1-5.73,7.49c-2.42,2.86-2.89,5.77-1.12,9.15,7.85,15,17.59,28.8,27.94,42.18C332.5,721.4,335.58,726.34,338.87,731.12Z"/><path class="cls-3" d="M311.08,415.34c4.05-1.17,4.41-5.42,6.23-8.19,4.81-7.3,11.45-12.64,17.55-18.58.73-.39,1.48-.76,2.2-1.18,7.48-4.34,10.63-3.81,13.85,4.1,4.24,10.44,6.08,21.59,2.75,32.57-2.85,9.36-7.5,18.09-14.79,25-14.17,13.38-22.22,30.31-28.41,48.37a8.58,8.58,0,0,0,1.7,8.8,42.81,42.81,0,0,1,4.73,6.38c3.12,5.72.44,10.31-6.05,10.78-9.56.69-11.83,4.76-7.32,13.18,1.43,2.66,2.73,5.29,2.4,8.47-.6,5.62-6.1,9.69-11.09,7.17a81.24,81.24,0,0,0-31.39-8.48,10.52,10.52,0,0,1-8.54-5.28c-.51-7.22,2.79-13.48,5-20,.66-5-.71-10.36,2.3-15,1.6,1.82,0,4.21,1.3,6.56,2.47-5.52,4.66-10.84,7.2-16,11.49-23.18,23.43-46.12,36.15-68.65C308.66,422.2,310.49,419,311.08,415.34Z"/><path class="cls-3" d="M444.6,339.68c5.16,2.13,9.49,5.68,14.62,8,16.89,7.67,33.56,5.38,50.36.16a65.48,65.48,0,0,1,10.07-2.71c9.36-1.35,15.63-6.7,20.16-14.6,1.9-3.3,3.85-6.56,5.78-9.84a8.68,8.68,0,0,1,.6,8.51,4.63,4.63,0,0,0-.27,3.87c3.25,7.54,1.23,15-2.33,21.27-3.7,6.53-3.82,13.42-5.29,20.25-1.82,8.52-7.19,15.19-12.92,21.41a35,35,0,0,0-4,4.89c-3.33,5.24-6.36,5.28-12.22,3.29-5.46-1.85-8.93-6.83-14.64-8-.9-.18-1.71-1.51-2.29-2.47-1.61-2.67-3.62-4.57-6.89-5.11-2.15-.36-3.33-2.54-4.91-3.63-5.37-3.71-9.24-9.55-15.91-11.46-1.4-.4-3.06-.85-4-1.85-3.15-3.36-5.22-7.2-11-8-2.75-.4-4.63-6.36-7-9.76-2.84-4.09-1.63-7.79.85-11.48A15.64,15.64,0,0,0,444.6,339.68Z"/><path class="cls-5" d="M655.48,489.39c1-1,3.36-1.22,1.23-3.73-1.77-2.1-1.48-3.85,1.79-5.63,7.85-4.26,15.91-8,23.91-11.94a13.38,13.38,0,0,1,12.38.11c7.42,3.59,15,6.92,21.88,11.46a12.15,12.15,0,0,1,5.52,7.36c.24,1.08.5,2.48-.8,3.1a2.56,2.56,0,0,1-3.51-.9c-6.09-9.42-16.68-11.93-25.77-16.72a6.45,6.45,0,0,0-5.75-.14c-3.65,1.53-7.49,2.62-11.08,4.26-3.22,1.48-7,2.19-7.72,7.05-.4,2.66-3.56,4-6.48,4.83,5.51,2,10.49-.2,14.58-2.56,5.45-3.15,8.73-1.89,12.17,2.48,2,2.58,5.77,5.11,4.9,8.11-.77,2.62-5.2,1.73-8.09,2.16-8.49,1.26-15.8,9.07-16.52,17.81a255.59,255.59,0,0,1-4.44,32.27c-1.9,8.93-3.82,17.92-5.64,26.88A77.9,77.9,0,0,1,653,590.5a159.79,159.79,0,0,0-8.93,27.68c-3.59,15.58-5.79,31.41-8.8,47.08-2.1,10.89-2.58,21.94-4.74,32.78-.51,2.52-1.39,4.76-3.85,6-10.47-25.77-9-51.84-1.84-78,3.95-14.37,8.69-28.54,9.77-43.55,0-.43.51-.81.78-1.22,4.1-5.44,10-5.86,16.09-5.75,2.91-1.27,2.44-4.33,2.76-6.47,2.49-16.46,7.19-32.49,8.65-49.19.55-6.33,1.18-12.24-.84-18.28a2.66,2.66,0,0,1-.26-1.45C663.93,494,661,491,655.48,489.39Z"/><path class="cls-3" d="M424.68,684.49c0-9.57,7.27-14.22,13.8-10.68,8.9,4.84,18.32,8.51,27.41,12.9,6.85,3.3,14.37,4.92,21.45,7.61,8.92,3.39,18.59,4.35,27.19,8.71,3.73,1.9,7.12,4.09,6.92,8.79-.18,4.47-1.27,8.09-5.76,11.14-9.59,6.52-19.66,5.06-29.85,3.67a92.83,92.83,0,0,1-20.06-5c-11.94-4.54-23.46-10.28-32.22-20.43C428.62,695.46,424.45,689.84,424.68,684.49Z"/><path class="cls-3" d="M547.45,242c-1.61,9.44-2.9,18.92-4.13,28.43-.92,7.12-7.78,9.66-13.55,11.94-4,1.6-8.07,3-11.41,5.83-2.87,2.46-4.84,2.28-6.92-1.29-7-12.05-19.06-13.69-31.26-14.19-4.3-.18-8.74,1.65-9.4,7.09-.43,3.5,4.36,8,9.34,9.06,1.94.41,4,.44,5.94.7,5.59.73,10.24,5.39,10.45,10.43.2,4.69-3.17,8.25-9.08,9.68-4.48,1.08-8.72,1.82-12.2-2.6-1.81-2.3-4.53-1.63-6.86-.33a18.4,18.4,0,0,1-10.13,2c-4.45-.19-7.33-2.31-7.93-6.72s-.77-8.73,3.44-11.63a30.68,30.68,0,0,1,5.73-3c2.5-1,4.33-2.3,4.4-5.33a7.56,7.56,0,0,0-3.93-7c-4.69-2.9-10.14-2.37-15.38,1.36-4,2.85-6.56,6.91-9.62,10.86.3-6.23.32-12.49,1.06-18.66.28-2.36-.08-4.58,0-6.87s-1.57-2.05-3.12-1.74c.53-2.55-1.56-3.13-3.1-4.12a3.57,3.57,0,0,1,4-1.14c7.77,2.54,15.25.5,22.77-1.17a7.58,7.58,0,0,1,3.9-.1c1.95,2.51-.25,4.28-1.2,6.22-1.08,2.22-2.84,4.42-1.28,6.92s4.43,2.7,7.1,2.58c4.28-.2,8.55-.81,12.86-.5,3.13.23,4.29-1.42,4.62-4.44.29-2.63-1.28-5.72,1.56-7.86,2.58-.36,3.94,1.51,5.26,3.13,5.38,6.61,24.36,12,34.71,7.5,4.24-1.86,6.14-6.16,7.54-10.05,1.6-4.44,3.54-8.94,3.54-13.89,0-2.28,1.41-4,3.82-3.44C541.84,240.32,545,240.09,547.45,242Z"/><path class="cls-6" d="M460.65,253.77c-6.85,2.86-14.27,2.8-21.44,3.79-3,.41-5.95-2.7-9.42-1.7-4.27-2.84-5.6-6.59-6.6-11.87-1.75-9.21.68-17.59,1.95-26.24.56-3.83,3.67-6,7.43-7,2.51.6,4.72-1.05,7.17-.94,10.39-.4,20.27.51,28.24,8.53,4.39,4.41,10.51,3.24,16,3.4,2.79.08,5.58-.75,8.33-1.34,15.33-3.28,29.51-.63,42.72,7.84,4.35,2.79,9.76,3.1,14.38,5.38l-2,8.36a18.94,18.94,0,0,1-7.42-1.06c-2.35-1-3.58-.59-3.68,2.4a36.51,36.51,0,0,1-8.11,21.79c-4.21,5.29-10.66,5.49-16.51,4.86a52.76,52.76,0,0,1-19-5.88c-3.51-1.85-4.55-5.94-8.12-7.42-5.68-3.57-4.37-9.86-5.74-15.07-.36-1.37.12-3,0-4.44-.12-1.84.86-4.35-2.07-4.78a5.16,5.16,0,0,0-5.73,3c-2.64,5.33-5.56,10.5-8,15.93C462.61,252.37,462.62,254.09,460.65,253.77Z"/><path class="cls-3" d="M651.46,575.52c-5.52,1.49-11.22,2.46-16.09,5.75.48-19.15-3.64-37.26-10.76-55.06-5.26-13.16-12-25.58-17.75-38.46-1.74-3.87-3.88-7.56-5-11.68-.56-2-.64-4,1.33-5.39s3.62-1.12,5.62-.2c4.07,1.89,6.51,5.29,9.19,8.7a137,137,0,0,1,17.77,29.59,159.08,159.08,0,0,1,10.93,36.84c1.53,8.85,1.88,17.71,2.75,26.57C649.58,573.73,649.44,575.21,651.46,575.52Z"/><path class="cls-3" d="M508.13,623.6c1.49-8.45,5.72-15.11,8-22.45,2.09-6.59,4-13.19,5.71-19.93,2.47-10,3.53-20.1,5.07-30.18,1.23-8,.27-16.19,1.44-24.25.47-3.29,1-6.19,3.66-8.34,1.41-1.17,2.9-2.3,4.93-1.31a6.06,6.06,0,0,1,3.74,4.85,142.28,142.28,0,0,1-1.37,53.24A85.84,85.84,0,0,1,532,595.64c-3.31,6.46-6,13.25-10.62,19A27,27,0,0,1,508.13,623.6Z"/><path class="cls-3" d="M412,419.9c-1.07-13.29-2.72-26.25-2.87-39.22-.07-6.25-.67-12.51-.34-18.77.26-5,9.1-16.28,14.24-18.08,3.42-1.21,6.89-2.32,10.32-3.52a7.11,7.11,0,0,1,6.29.37c-6.33,2.43-11.08,5.54-15.93,8.48-6.14,3.72-9.16,8.95-8.91,16,.34,9.49.75,19,1.64,28.46a79.63,79.63,0,0,1,.39,12c-.23,4.16,1.46,5.28,4.9,3.31,5.8-3.33,11.59-7,17.55-9.67,5.4-2.39,10-6.72,16.43-7.26,3.31-.28,6.49,0,9,1.44,8.12,4.63,15.95,9.78,23.86,14.78a17.34,17.34,0,0,1,2.16,2.05c1.7,1.58.6,3-.24,4.44-1.31,2.24-2.29.5-3.51-.21-7.53-4.37-15.25-8.38-21.8-14.34-5.09-4.62-10.76-1.92-15.61.63C437.31,407.26,425.32,414.26,412,419.9Z"/><path class="cls-3" d="M553.78,293.59a26.06,26.06,0,0,1,1.38-12.2,25.1,25.1,0,0,0,1.43-12.76c-1-6.85,2.14-11.28,7.23-15,4.39-3.23,8.46-7,14.71-5.48,2.52.6,4.44-2,6.94-2.28a43.07,43.07,0,0,1-.68,14.34A48.72,48.72,0,0,1,574,281.38c-5.51,6.17-12.22,8.52-19.28,11.11C554.33,292.64,554.09,293.21,553.78,293.59Z"/><path class="cls-3" d="M453.52,655c9.23,2.92,19,3.68,28.28,6.34a108.57,108.57,0,0,1,10.64,3.8c2.93,1.18,5.94,2.25,4.91,6.7s-4.45,6-8,5.58c-13.89-1.73-27.72-4-39-13.38-1.52-1.27-4.08-2.17-2.94-5S450.26,654.58,453.52,655Z"/><path class="cls-3" d="M560.72,366.05a18.31,18.31,0,0,1,6.88,8.82c4.37,10.36,3,20.6-.58,30.93-3.43,10-6.37,20.11-9.46,30.19-.32,1-.69,1.89-1.78,2.12s-1.24-.87-1.71-1.48a210.19,210.19,0,0,1-16-23.82c-1.89-3.32-3.71-5-6.69-.85-1.15,1.63-2.82,3.52-5.37,1.53s-.13-3.49.59-5.07a18.27,18.27,0,0,1,2.18-3.32c3.7-4.93,7.58-4.88,11.06.31,4,6,7.87,12.06,11.72,18.14.73,1.16,1.45,2.62,2.77,2.57,1.83-.06,1.22-2.06,1.63-3.2,2.43-6.84,4.72-13.72,7.11-20.58,4-11.53,5.12-22.88-2-33.77A11,11,0,0,1,560.72,366.05Z"/><path class="cls-5" d="M645.5,457.36c-.26-2.51.64-2.63,2.89-1.91,8.41,2.68,17,4.35,25.78,2,4.42-1.17,8.44-3.45,13-4.5,9-2.09,16.45.69,23.22,6.25,5.7,4.68,11.28,9.52,17,14.2a14.47,14.47,0,0,1,3.1,3.15,2.49,2.49,0,0,1-.21,3.54c-1.15,1.21-2,.39-3-.12-6.7-3.27-10.91-9.52-16.69-13.87-2.76-2.07-5.34-4.38-8.55-5.84-5.82-2.64-11.56-3.64-17.5-.37-6.24,3.44-13.31,3.19-20.06,4.33C657.69,463.08,651,461.75,645.5,457.36Z"/><path class="cls-5" d="M684.52,413.63c9.69,3,17.75,8.26,23.73,16.56,3.43,4.76,6.26,9.7,6.76,15.78.17,2,.36,3.88-1.54,4.73s-2.59-1.58-4-2.21c-1.08-13.4-9.93-21.22-20.23-27.91C686.57,418.86,684.63,416.93,684.52,413.63Z"/><path class="cls-5" d="M710.29,410.65c.64,4.55-1.61,5.74-5.55,4.57a96,96,0,0,1-9.78-3.43c-2.71-1.14-4.5-3-2.6-6.19C698.94,405.15,705.41,405.08,710.29,410.65Z"/><path class="cls-3" d="M245.83,115c-1.52,11.24,0,22.48-.07,33.7-.1,17.84,1.25,35.71,0,53.48-.66,9.34,1.35,18.54-.27,28-.85,4.94-.05,10.72-.48,16.13-.23,2.81-.18,5.6,1.29,8.24,1.3,2.35,0,4.68-2.3,3.93-5.58-1.8-10.86.23-16.27.24-11.78,0-23.51-1.28-35.31-1.19-8.48.06-16.84,1.67-25.33,1.19-6.45-.36-12.91.36-19.37-.89-5.75-1.12-11.55.45-17.32.91-9.93.8-19.77-2.54-29.74-.45-2.12.44-3.37-1.33-3.33-3.42.23-12.18.64-24.37.82-36.55s-.32-24.38-.89-36.58c-.56-11.88.66-23.77.23-35.71-.23-6.49.49-13.21.69-19.83.11-3.51-1.42-6.8-1.06-10.36.37-3.75,1.86-5,5.85-4.63a210.23,210.23,0,0,0,34.77.1c6.17-.43,12.42.46,18.67.29,5.27-.13,10.6-.33,15.81-.26,9,.12,18.1-1.54,27.12.15a11,11,0,0,0,3.44.37c11.23-1.58,22.45.91,33.68.06a30.6,30.6,0,0,0,5.38-.77C244.91,110.42,246.14,112.09,245.83,115Z"/><path class="cls-1" d="M262.25,503.4c-.88,5,1,10.4-2.3,15l-37.78-.09c-9.79,0-19.59-.16-29.38-.06-3.14,0-2.93-1.69-2.84-3.85.39-9.94-1-19.89.12-29.82.34-2.94-2.42-6.64,0-8.46,1.94-1.45,5.69-.22,8.62-.24,17.32-.1,34.64.3,52,.18,3.71,0,9-1.41,10.68.53,1.92,2.22.3,7.27.81,11C262.86,492.9,261.64,498.15,262.25,503.4Z"/><path class="cls-2" d="M233.93,354.65c-15.89.47-31.78.33-47.65.49-12,.13-23.93.34-35.9.47-15,.16-30.08-.27-45.09.29-4,.15-7.89-.15-11.82-.39-1.9-.12-4-1.05-3.63-3.2A4,4,0,0,1,94,348.73c9.58.81,19.15-.17,28.72-.12,18.91.09,37.82.1,56.74-.09,16.37-.16,32.75.09,49.13-.59,5.08-.21,10.24.33,15.37-.22,2.41-.26,4.71.68,4.73,3.24s-1.89,3.93-4.78,3.75C240.58,354.49,237.25,354.65,233.93,354.65Z"/><path class="cls-2" d="M239.47,423.22c-15.43,1.08-30.89.13-46.33.31-23.08.28-46.17,0-69.26.07-6.33,0-12.66.61-19,.7a74.14,74.14,0,0,1-8.89-.8c-1.81-.19-3.58-1.21-3.3-3s1.65-3.8,4.1-3.56c13.5,1.33,27,.13,40.52.15,14.57,0,29.2-.64,43.78-.27,20.23.51,40.43-.59,60.65-.42,2.38,0,4.66.45,4.68,3.19,0,2.53-1.93,3.68-4.47,3.6C241.14,423.2,240.3,423.22,239.47,423.22Z"/><path class="cls-2" d="M100.78,338.65a7.49,7.49,0,1,1,.28-15,7.49,7.49,0,0,1-.28,15Z"/><path class="cls-2" d="M154,399.3a7.33,7.33,0,1,1-7.66-6.89A7.27,7.27,0,0,1,154,399.3Z"/><path class="cls-2" d="M154.34,330.42a7.2,7.2,0,0,1-7.38,7.15,7.31,7.31,0,1,1,7.38-7.15Z"/><path class="cls-2" d="M130.13,399.93a7.09,7.09,0,0,1-7.71,6.69,6.93,6.93,0,0,1-6.5-7.82,6.73,6.73,0,0,1,7.38-6.39A6.89,6.89,0,0,1,130.13,399.93Z"/><path class="cls-2" d="M100.35,392.4a6.73,6.73,0,0,1,6.79,7,7.11,7.11,0,0,1-7.09,6.82,7.2,7.2,0,0,1-6.83-7.12A6.79,6.79,0,0,1,100.35,392.4Z"/><path class="cls-2" d="M129.44,330.54a6.72,6.72,0,0,1-6.72,7,6.8,6.8,0,0,1-6.84-6.92,6.78,6.78,0,1,1,13.56-.1Z"/><path class="cls-3" d="M549.45,233.62c-5.76-.39-11.11-1.58-16.09-5-6.37-4.41-13.72-6.72-21.46-7.78-9.61-1.31-18.82,1.08-28.21,2.41-4.73.67-9.83-.4-14.65-1.66-3.07-.81-3-4.4-6.05-5.94-6.78-3.39-13.8-4.12-21-4.89a8.65,8.65,0,0,1-2.25-.93c.4-2.28.81-4.56,1.31-7.39,3.84,3.1,8-.74,12.08,1.17,2.68,1.26,5.66,1.88,7.66,4.29,3.37,4.05,5.95.57,7.76-1.39,2.22-2.4-1.22-3-2.44-4.1-4.53-4.27-10-5.82-16.16-5.92-3.13-.05-5,2.23-8.14,2.82,3-5.3,3.29-11.08,4.2-16.74A29.34,29.34,0,0,1,448.4,175c1.28-2.82,2.51-3.9,5.41-1.71,8,6.05,17.27,9.29,26.94,11.8,7.36,1.9,14.83,1.29,22.22,2,10.63,1.08,20.58-1.84,30.37-5.48a10,10,0,0,0,2.21-1.11c1.71-1.23,3.4-3.64,5.54-2.35,1.73,1.05.7,3.69.54,5.58-.91,10.67,1.73,20.47,5.91,30.24C550.12,220.08,549.5,227,549.45,233.62Z"/><path class="cls-5" d="M652.45,468.48c2.64,0,5.28,0,7.91,0a3.74,3.74,0,0,1,3.71,2.73c.62,1.76-.66,2.74-1.76,3.74-2.3,2.1-5.3,2.67-8.15,3.24-1.84.36-4.36,1.48-5.65-1.23s-.18-4.77,1.65-6.65a21.4,21.4,0,0,1,2.28-1.82Z"/><path class="cls-5" d="M648.5,446.57c3.81.22,7.4-1.64,11.27-1.18,1.79.22,3.28.56,3.63,2.61.28,1.71.24,3.47-1.51,4.35-3.73,1.88-7.67,3.19-11.89,2.14-3.8-.94-4.19-3.36-1.49-7.93Z"/><path class="cls-4" d="M460.65,253.77c3-6.29,6.27-12.51,9.06-18.91,1.7-3.91,4.84-4.3,8.15-3.93,3.84.44,2.25,3.27,2.22,5.71-.1,7,.66,13.9,4.54,20-1.25,3.42-.48,7-.72,10.48-.1,1.5,0,2.64-1.94,2.6-7.1-.15-14.18,1.66-21.29.29-4.54-.87-5.68-3.36-4-7.79C457.78,259.31,460.14,257,460.65,253.77Z"/><path class="cls-4" d="M474.62,300.84c-4.09.09-7.86-1.24-11.65-2.35-1.14-.34-2.77-.72-2.35-2.6s1.87-1.88,3.47-1.56c4.85.95,9.71,2,14.69,1,1.28-.25,2.83-.27,3.75-1,2.48-2,3.67-.43,4.53,1.47,1.12,2.45-1,3.41-2.64,3.77C481.21,300.23,477.9,300.43,474.62,300.84Z"/><path class="cls-3" d="M495.81,228.45c2.58-.17,6.49-.63,10.32-1.08,7-.83,13.14,2.71,19.87,2.8,1.29,0,2.87.78,2.26,3-.8,2.88.55,6.56-.3,8.61-1.85,4.39-.6,9.17-2.89,13.32-2.9,5.26-5.88,6-11.71,6s-10.73-1.82-15.82-4.11c-7-3.13-9.32-10.87-9.39-17.46a13.55,13.55,0,0,0-.52-3.35C486.22,230.56,488.48,228,495.81,228.45Z"/><path class="cls-3" d="M428,237.82c2.24-4.81.55-12.09,4.45-18.24.91-1.44,2-2.65,3.35-2.49,7.57.94,15.33,1.14,22.19,5.19,8.1,4.79,6.21,13.45,1.89,19.8-2.87,4.23-7.11,6.12-12.57,6.2-3.73.06-7.39-.3-11.08-.43C430.53,247.65,428.27,245.19,428,237.82Z"/><path class="cls-4" d="M187.07,163c11.33-5.45,22.43-5.64,32.82,2.09,12.34,9.19,15.28,25.78,7.2,39.12-7.62,12.57-23.83,17.05-38,10.49-10.44-3.25-15.37-11.28-17-21.24-1.74-10.95,1.31-20.69,10.15-28.12A9.24,9.24,0,0,1,187.07,163Z"/><path class="cls-2" d="M187.07,163c-14.53,10.26-16.62,24.44-11.88,36.83,2.61,6.81,7.84,11.24,13.89,14.87a103.34,103.34,0,0,1-10.37,2.82,26.6,26.6,0,0,1-17.63-2.76c-3.38,0-5.9-1.89-8.18-4.06-12.23-11.64-12.17-32.18,0-43.83,1.53-1.46,3.41-2,5.23-2.75C167.6,159.12,177.22,158,187.07,163Z"/><path class="cls-6" d="M158.14,164.08c-10.69,8.42-15.55,19.07-12,32.62,2.15,8.22,7.31,14.22,15,18-9,3.53-17.85,4.7-26.86-.21s-15.92-16.45-15-25.76c1.33-13,9.25-22.58,20.83-25.78C146.32,161.25,152.21,162.18,158.14,164.08Z"/><path class="cls-4" d="M509.54,204.79c8.8-.45,15.8,1.51,21.65,6.63,1.13,1,3.49,2.15,1.88,4.4s-3.08.75-4.69-.21c-7.23-4.3-14.84-6-23-2.81-2.87,1.12-2.88-1.28-3.72-2.69-1.12-1.87-.88-3.32,1.18-4.5C505.38,204.16,508.07,205.14,509.54,204.79Z"/><path class="cls-4" d="M509.67,237.85c2.25,1,5.15,1.77,4.86,5.18-.26,3-1.78,5.47-5.32,5.22-2.85-.2-5.08-1.69-5-4.82S506.27,238.37,509.67,237.85Z"/><path class="cls-4" d="M446.38,228.78c3,.8,5.28,2.51,5.18,5.7-.08,2.77-2.08,4.42-5,4.38a5,5,0,0,1-5.16-4.91C441.23,231.11,443.47,229.36,446.38,228.78Z"/><path class="cls-2" d="M170.59,202c-.32-1-.65-2.06-1-3.1a6.2,6.2,0,0,0-.82-3.47,7.46,7.46,0,0,1-.74-4.5,10.79,10.79,0,0,0,0-2.2,9.91,9.91,0,0,1,.14-3.6,60.13,60.13,0,0,1,2-8.39,2.61,2.61,0,0,1,.71-1.18c.69-1.72,2.29-2.91,2.74-4.78a2.35,2.35,0,0,1,1.14-1.29c.38-.23.71-.47.74-1a1.21,1.21,0,0,1,.44-1.25c1.64-1.46,2.88-3.32,4.7-4.6.31-.23.59-.51,1-.47,2.57-1.29,4.94-3,7.62-4.05a7,7,0,0,1,3.56-.91c.37.05.57-.21.82-.38a3.45,3.45,0,0,1,2.76-.59,1.08,1.08,0,0,0,1.16-.31,5.25,5.25,0,0,1,2.84-.14c1,.2,2.08-.47,3.18-.31a4.33,4.33,0,0,1,2.71,0,9.16,9.16,0,0,1,3.16.89c2.41.44,4.51,1.74,6.81,2.48,1.62,1,3.2,1.95,4.74,3.06s2.59,2.66,4.18,3.62a1.3,1.3,0,0,1,.35.31c4.06,4.77,7.32,10,8.42,16.27a45.86,45.86,0,0,1,1,8,27.76,27.76,0,0,1-1.23,9,32.54,32.54,0,0,1-2.78,6.53c-.89,1.49-1.79,3-2.73,4.46a11.92,11.92,0,0,1-3.57,3.64,4.94,4.94,0,0,0-1.07,1.07,4.24,4.24,0,0,1-1.9,1.5,2.31,2.31,0,0,0-1,.75,3,3,0,0,1-.86.78c-4.2,2.2-8.4,4.48-13.16,5.18a28.71,28.71,0,0,1-11.12-.18,1.26,1.26,0,0,0-.58,0c-3.27-1.11-6.65-2-9.56-3.92s-6.24-3.83-8.34-6.87c-1.16-1.68-2.86-3-3.61-5a3.15,3.15,0,0,1-1.72-2.44,4.34,4.34,0,0,0-.78-1.41A1.43,1.43,0,0,1,170.59,202Z"/><path class="cls-2" d="M234,208.71a9.85,9.85,0,0,0-1.58,2.15,11.83,11.83,0,0,1-4.17,4.29,1.94,1.94,0,0,0-.62.68,3.59,3.59,0,0,1-2.13,1.69,1.4,1.4,0,0,0-1,.9,6.88,6.88,0,0,1-2.53,1.35c-1.13.43-2,1.36-3.17,1.82a38.52,38.52,0,0,1-10.14,2.84,34.47,34.47,0,0,1-12.43-1.14,9.4,9.4,0,0,1-1.29-.52c1.08-.53,2.15-.05,3.19.09a27.05,27.05,0,0,0,11.56-1,20.72,20.72,0,0,0,6.16-2.42c1.64-1.15,3.88-1.31,5.08-3.23.31-.48,1.26-.42,1.8-.95,2.55-2.53,5.36-4.83,7.08-8.07a43.26,43.26,0,0,0,4-9.47,25.38,25.38,0,0,0,.81-7.6c-.38-7.11-1.77-14-6.07-20a8.85,8.85,0,0,0-1-1.26,6.17,6.17,0,0,1-1.77-2.24,2.4,2.4,0,0,0-1.21-1.22,3.2,3.2,0,0,1-1.5-1.56,1.6,1.6,0,0,0-.81-.81c-2.19-1.14-3.8-3.11-6-4.24,2.68,1,5.46,2.06,7.6,4a55.56,55.56,0,0,1,4.32,3.72,67,67,0,0,1,5.25,6.18,31.12,31.12,0,0,1,4,8.87c.64,3.95,1.44,7.88,1.21,11.94a26.21,26.21,0,0,1-1.07,6.3c-.16.52-.24,1.06-.35,1.59a6.8,6.8,0,0,1-.64,2.3C235.75,205.39,234.37,206.78,234,208.71Z"/><path class="cls-7" d="M230.27,190.7a21.52,21.52,0,0,1-2.18,10,30.18,30.18,0,0,1-4.84,7.72,21.34,21.34,0,0,1-3.68,3.29c-1.34.91-2.34,2.55-4.32,2.62-.59,0-1.14,1-1.87,1.29a29.24,29.24,0,0,1-10.87,2.81,25.77,25.77,0,0,1-14.26-3.1c-3-1.7-6.11-3.61-8.13-6.53-1-1.41-2.12-2.72-3-4.23a63.61,63.61,0,0,1-3.09-5.82,1,1,0,0,1-.08-.22c-.92-4.15-2-8.32-1.33-12.57.51-3.3.84-6.79,2.77-9.64a54.14,54.14,0,0,1,3.11-4.78c1.2-1.44,2.44-2.89,3.72-4.27a12.21,12.21,0,0,1,3.26-2.17c1.11-.62,2.19-1.38,3.35-2,1.58-.81,3.09-1.8,5-1.68.48,0,.67-.59,1.08-.6,1.86-.07,3.59-1.19,5.51-.67.15,0,.32.16.44.11,2.89-1.08,5.64.13,8.34.73a17.39,17.39,0,0,1,7.63,3.64c1.33,1.17,2.81,2.16,4.08,3.46a32.3,32.3,0,0,1,6.86,9.54,38.51,38.51,0,0,1,2.32,9.49A13.56,13.56,0,0,1,230.27,190.7Z"/><path class="cls-1" d="M196.42,162.07a3.51,3.51,0,0,0,.8,0c3.07-.8,6.14-.4,9.17.14A26.13,26.13,0,0,1,220,169.3a28.75,28.75,0,0,1,6.78,10.22,24,24,0,0,1,1,3.72,4.93,4.93,0,0,0,.61,1.75c.07.1.21.23.18.29-.55,1.41.23,2.8,0,4.2a5.66,5.66,0,0,0-.16.8c.14,4.48-1.41,8.53-3.22,12.51-.45,1-1.24,1.71-1.76,2.62a16.65,16.65,0,0,1-4.35,5.05c-1.12.85-2.13,2.15-3.77,2.44a8.31,8.31,0,0,0-2.74,1.27c-2.59,1.6-5.5,2-8.4,2.59-1.64.33-3.3-.22-4.88.42-.24.09-.43-.12-.64-.21a4,4,0,0,0-1.22-.38c-3,0-5.56-1.42-8.16-2.6-3.71-1.68-6.42-4.58-9.06-7.61-1.41-1.61-2.09-3.54-3.19-5.27-.84-1.33-.89-3-1.95-4.15a.76.76,0,0,1-.08-.77,2,2,0,0,0,0-1.15c-.91-2.88-.67-5.82-.57-8.77a26.25,26.25,0,0,1,9.84-18.4,68.72,68.72,0,0,1,6.62-3.86c1.55-.93,3.44-.78,4.81-2,.15-.14.52,0,.78,0Z"/><path class="cls-2" d="M201.84,208.73c.95-1.12.68-1.66.1-2.86-.8-1.63-1.6-1-2.68-.54s-2.35.8-3.53,1.19a1,1,0,0,1-1.35-.61A6.72,6.72,0,0,1,194,202a1.76,1.76,0,0,1,1.67-1.41c.28,0,.58,0,.66-.34a.68.68,0,0,0-.3-.81,2.6,2.6,0,0,1-.87-1.34c-1.61-3.83-3.25-7.65-4.83-11.49-.25-.62-.47-.81-1-.39a3.85,3.85,0,0,1-.73.37c-2.14.95-3.76.16-4.33-2.12a2.19,2.19,0,0,1,1.44-2.81c1.11-.44,2.24-.87,3.39-1.25.58-.19.62-.45.32-.92a15,15,0,0,1-1.4-2.81,1.49,1.49,0,0,1,.66-2,2.07,2.07,0,0,0,.62-.51,1.83,1.83,0,0,1,2.21-.62,2.09,2.09,0,0,1,1.59,1.81c0,1,1.1,1.34,1.39,2.18.08.25.41,0,.61-.08.35-.18.2-.46.12-.71a16.7,16.7,0,0,0-1.74-3.55c-.47-.84-.24-1.15.6-1.36a11.68,11.68,0,0,0,3.3-1.11c.46-.29.68,0,.9.37a11.5,11.5,0,0,1,1.19,2.91c.15.57.33.85,1.1.65,2.3-.6,4.62-.54,6.51,1.06a7,7,0,0,1,2.54,3.62,12.69,12.69,0,0,1,.38,3.6c0,.32,0,.64.48.5s.86.23,1.28.42a6.45,6.45,0,0,1,2.67,1.82,10.18,10.18,0,0,1,1.92,4,11.33,11.33,0,0,1,.45,2.6c-.31,2.54-1.23,4.79-3.51,6.19-.69.43-1,1.32-1.88,1.49a.25.25,0,0,0-.14.38c.65.92.25,2.22,1.16,3.08.56.52.24,1.29-.72,1.59a2.54,2.54,0,0,0-1.44,1c-.66.87-1.22.86-1.6-.1-.46-1.18-1.54-1.93-1.94-3.12-.07-.2-.1-.63-.52-.38s-.51.41-.28.85a9.94,9.94,0,0,1,.95,2.73c.18.94-.11,1.92-1,2.09A15.5,15.5,0,0,1,201.84,208.73Z"/><path class="cls-1" d="M206.49,188.72a3.77,3.77,0,0,1,3.29,1.88,3.5,3.5,0,0,1-.4,3.8,8.83,8.83,0,0,1-4.13,2.91,8.85,8.85,0,0,0-1.7.67c-1.06.75-1.55,0-1.9-.71a41.61,41.61,0,0,0-2.37-4.6c-.28-.42-.47-.88.28-1.27A31,31,0,0,1,206.49,188.72Z"/><path class="cls-1" d="M203.89,183.41a4.26,4.26,0,0,1-2.09,2.69,20.36,20.36,0,0,1-3.66,1.62c-.39.17-.49-.07-.61-.29-.65-1.2-1.3-2.41-1.92-3.64a.77.77,0,0,1,.3-1.16,15.18,15.18,0,0,1,5-1.91A2.67,2.67,0,0,1,203.89,183.41Z"/><path class="cls-4" d="M167,504v13.38a18.25,18.25,0,0,1-7.63-3.46l-.19-.14a19.17,19.17,0,0,1-5.38-6.65,20,20,0,0,1-2.06-8.44V479.07a18.1,18.1,0,0,1,6,2.32,16.87,16.87,0,0,1,1.67,1.13,19.42,19.42,0,0,1,3.43,3.41A20,20,0,0,1,167,498.22v.46h-2.55a5,5,0,0,0-3.59,1.55,5.41,5.41,0,0,0-1.48,3.74Zm18-18.06a18.07,18.07,0,0,0-4.53,2.3c-.25.17-.49.34-.72.52a19.48,19.48,0,0,0-4.36,4.69,20,20,0,0,0-2.44,5.24h6.8a5.39,5.39,0,0,1-.39,2,5.22,5.22,0,0,1-2.77,2.87,5,5,0,0,1-1.95.39h-2.53V523.6a18.42,18.42,0,0,0,7.49-3.34l.15-.11a19.37,19.37,0,0,0,5.62-6.9,20.25,20.25,0,0,0,2-8.8V485.3a19.54,19.54,0,0,0-2.39.63Z"/></svg>