<svg id="Layer_1" data-name="Layer 1" xmlns="http://www.w3.org/2000/svg" viewBox="0 0 652.91 697.51"><defs><style>.cls-1{fill:#c8c8c8;}.cls-2{fill:#424242;}.cls-3{fill:#191919;}.cls-4{fill:#0898df;}.cls-5{fill:#fefefe;}.cls-6{fill:#e0e0e0;}.cls-7{fill:#fdfefe;}.cls-8{fill:#b5dbf3;}.cls-9{fill:#fcfdfd;}.cls-10{fill:#fdfdfe;}</style></defs><path class="cls-1" d="M374.24,405.82a8,8,0,0,1-4.84-3.9c-.68-3.91-1.6-7.79-2-11.4-.53,3.24,2.51,6.62.94,10.29-3.55-2.57-4.75-6.73-6.91-10.24a41.55,41.55,0,0,1,.3-11.89c.41-2.67-.8-3.88-3.28-3.66-15.4,1.34-30.74-1.15-46.21-.29a284.86,284.86,0,0,1-36.25-.29c-6.16-.44-12.17.89-18.38.49a296.68,296.68,0,0,0-30.27-.3c-7.93.31-15.88.43-23.78.31-8.45-.13-16.91-.8-25.35-.18-11.44.83-22.88.11-34.3,0-9.7-.1-19.49-.24-29.08.13-8.17.33-16.36-1.29-24.53.31-5,1-10.12-.28-15.26,0-9.22.44-18.52-.71-27.82-.23-2.29.11-4.69-.15-6.31-2.25,2.87-7,.88-14.18,1-21.28.12-8.1-.73-16.2.14-24.28a33.48,33.48,0,0,0,.06-4.8c-.29-9.74,0-19.5-.46-29.23-.44-9,.21-18,.36-27,.16-9.44-1-18.88.18-28.37.51-4.18,0-8.74-.41-13-.65-6.12.59-12.13.14-18.22-1.05-14,1.26-27.9.57-41.87-.43-8.66.22-17.42-.14-26-.49-11.92.81-23.84-.58-35.8A46.76,46.76,0,0,1,42.44,87c.78-3.33.21-7-.19-10.53a7.23,7.23,0,0,1,.57-3.27c.22-2.82,2.16-3,4.31-2.76,11.25,1,22.57.89,33.8.91,16.52,0,33.06-.3,49.6-.28,14.57,0,29.18-.62,43.73-.48,13.7.13,27.42,1,41.12.39,18.52-.84,37.07,1.68,55.55-.78a29.83,29.83,0,0,1,6.47.22c9.89.83,19.77.08,29.64.28,9.28.19,18.57.45,27.86.54,6.47.06,12.9,0,19.37-.45s13.19.6,19.83.22c14.4-.84,28.83.59,43.26-.54,5.47-.42,11.76-2.22,16.11,3.59a2.84,2.84,0,0,0,2.72,1.05c5-1.18,5.3,2,5.77,5.59.61,4.63,1.68,9.1,4.88,12.87,2.61,3.08,2,7,1.43,10.55-1,5.86,1.55,9.94,5.91,13.33,1.38,1.07,3,2.11,4.55,1,6.7-4.8,15.08-6.24,21.7-11.12,2.95-2.17,6-4.26,7.61-7.2-5.36,3.64-10.37,8.68-18.34,8.41A19.87,19.87,0,0,1,455.22,102c-6.7-7.11-10.75-15.51-11.27-25.44-.51-9.57-3.32-18.61-6.5-27.57-1.45-9.45,4.06-15.88,9.74-22.21,1.37-1.53,3.26-1.55,5.1-1.16,11,2.39,21.73.08,32.39-2.44,5.44-1.29,5.88-1.11,8.36,4.05.36.75.56,1.72,1.2,2.15,8.78,5.87,6.51,15.9,9.42,24.14,1.61-.89.81-4.08,3.44-4.22,3.41,1.94,7.14,3.3,7.31,8.4.2,6.09-.94,11.54-5.15,16.11-2.71,2.94-5.76,4.5-9.72,1.91-1,7.11-1,14.12-6.53,19.61-2.08,2.06-1,5.8-.25,8.65,1.28,5.06.07,8.86-3.91,12.39-5.14,4.56-10.88,8.15-16.59,11.86-3.4,2.22-5.87,0-8-1.8-4-3.38-7.7-4.68-11.88-.44-.66.67-1.85.78-2.64,1.37-1.77,1.32-5.72.15-5.58,2.88.19,3.91,2.16,7.65,4.41,11,.9,1.31,2.13.13,3.12-.3,2.73-1.19,5.33-2.72,8.42-2.82a1,1,0,0,1,.17,1.42c-10.48,7.59-14.72,6.28-18.62-5.68-1-3-1-6.18-2.1-9.61-.05-.19-.64.76-.07.42.16-.1.28,0,.34.31,1.21,5.78,1,6.24-4.79,8.21-10.22,3.51-20.74,6.05-30.9,9.82-9.92,3.69-16.83,9.73-19.24,20.39A37.56,37.56,0,0,1,380,174.24c-5.54,9.23-8.44,19.57-11.48,29.71-3.72,12.42-5.23,25.4-8.13,38.05-1.06,4.66-.31,5.35,4.23,5.59,9.51.5,18.81,1.95,27.7,5.65,4.4,1.84,5.9.89,7.13-3.76A17.15,17.15,0,0,0,400,243a90.6,90.6,0,0,1,0-20.36,31.85,31.85,0,0,0-3.26-17.88c-1.66-3.29-2.86-6.9.72-10,1-.86.68-2.16.65-3.31a37.29,37.29,0,0,1,.11-6c.23-1.72.75-3.43,2.7-3.77,2.11-.37,2.88,1.39,3.48,2.92a40.66,40.66,0,0,1,2.25,13.22,101.14,101.14,0,0,0,6.84,34,116.12,116.12,0,0,1,6.66,21.42c.55,3,1,6,.33,8.92-1.2,5.07.16,9.52,2.48,13.89,1.25,2.35,2.4,4.75,3.57,7.14,2.23,4.57,2.9,8.76-1.76,12.47-2.9,2.31-1.53,5.12,0,7.62a37.59,37.59,0,0,1,5.92,16.22c-1.29,1.71-3,1.14-4.53.66-3.17-1-6.62-1.42-9.45-3.05-4.22-2.43-5-.4-5.42,3.18-.19,1.64-.54,3.27-.66,4.93a12.88,12.88,0,0,1-.43,2.39c-.94,13.64-3.15,27.16-3.34,40.84a12.75,12.75,0,0,1-.56,4.39c-1.22,2.34-3.51,2.55-5.6,2.22-3.31-.52-3.56.9-3.2,3.59a28.87,28.87,0,0,1-1,11.82c-1.39.88-1.25,2.24-.85,3.47.57,1.72.62,3.57-1,4.32-2.27,1.06-2.87-1.4-3.94-2.68-1.38-1.68-1.83-3.75-2.33-5.8-2.07-2-2-4.81-2.89-7.23-.64-1.66-1-3.49-2.72-4.55-2.14,5.16-1.58,7.8,2.64,12.55-1.46.6-4.37-.67-4.34,1,.05,3.33-.46,7.08,1.91,10a36.33,36.33,0,0,1,4.72,6.92c.92,1.87,1.48,4-.35,5.44s-3.5-.4-4.57-1.66c-2.08-2.44-5.66-2.79-7.38-5.62-.54-7.08-2.73-13.87-3.77-20.87-.11-.66-.85,0-.22-.23.17-.06.29.06.31.38.28,4.83,2,9.36,2.78,14.1C374.81,402.05,375.47,404,374.24,405.82Z"/><path class="cls-2" d="M40.86,372.67c5.39,1.81,10.94.16,16.34.77a71.89,71.89,0,0,0,15.92.13c6.38-.73,12.68.45,19.11-.22,4.31-.44,9.6-1,14.2,1a3.12,3.12,0,0,0,1.94.22c9.58-2.77,19.45-.87,29.1-1.1,8.62-.21,17.53-1.43,26.3.73,3.28.81,7-.6,10.57-.54,8,.15,16.08-1.44,24.13,0a30,30,0,0,0,5.2.2c10,0,20.05-.26,30.06-.33,5,0,10.38-.53,15.11-.16,11,.87,21.8-.57,32.68-.07,8.44.39,16.92-.12,25.34.14,7.28.23,14.48-.79,21.78-.27,9.84.71,19.72,1.77,29.62.5,4.41-.56,5.72.56,4.63,4.77-1,4,.59,8.35-1.51,12.2a76.42,76.42,0,0,0-17.69.12c-4.14.45-8.54-.27-12.85-.33-8.7-.11-17.4,1.19-26.06.22-8.39-.94-16.75.32-25.14.09-5.19-.14-10.38-.14-15.56-.65-2.38-.24-3.34,1.17-3.29,3.25.15,6.45.52,12.89.64,19.34.11,6.61-.15,13.23.1,19.83.16,4.32.23,8.82.15,13-.13,7.13.21,14.26.36,21.37.12,5.92-.31,11.87-.32,17.77,0,6.55-.48,13.24-.36,19.86.13,7,.54,14,.37,20.87-.14,5.4.06,10.9-.08,16.33-.22,8-2.08,16,.42,24,.39,1.25-.24,2.93-.71,4.31-1.86,5.57.81,11,.33,16.6-.57,6.75-.13,13.59-.08,20.39.06,6.6-1.32,13.16.25,19.83.64,2.73-.95,5.69-.64,8.78.38,3.94,1,8-.43,12-.74,2.16,1.54,2.7,3.2,2.76,5.94.23,11.91.7,17.82.37a174.71,174.71,0,0,1,26.58.1c4,.39,8.2-1,12.4-1,1.93,0,2.62.24,2.46,2.34a41.53,41.53,0,0,0,0,10.15c.51,3,0,5.48-4.7,5.24-9.83-.48-19.73.42-29.55-.13-7.95-.44-15.92,0-23.83-.16-12.05-.19-24.12.83-36.26,0a185.78,185.78,0,0,0-26.69-.06c-6.63.51-13.24-2-19.86.43-2,.77-4.82-.66-7.27-.76-1.27-.05-1.29-.8-1.45-1.51-1-4.59.84-9.22-.22-13.84-.28-1.22,1.09-1,1.78-.9,8.4,1,16.88.3,25.21.06,9.75-.28,19.65,2,29.26-.81,2.11-.62,3.25,1.63,5.41.81-1.72-5.4.27-10.9-.45-16.29-.62-4.61,1.86-9,.14-13.76-1-2.66.59-6.11.45-9.18-.63-14.11.05-28.23-.41-42.35-.35-10.83.26-21.71-.08-32.59-.26-8.28,1.12-16.63.58-24.86-.52-8.07.46-16.06.1-24-.35-7.59-1-15.15-.45-22.74.65-8.71.17-17.51-.32-26.11-.38-6.82,1.87-13.51-.19-20.52-1.25-4.22-.61-9.46-.06-14.09.42-3.55-.51-6.95.24-10.59.78-3.84-3.84-3.17-5.83-3.11-9.69.29-19.55-1.24-29-.11-10.11,1.22-19.92-1.72-30.09.42-7.83,1.64-16.34,0-24.55,0-4.39,0-9,.4-13.13.18-7-.36-13.94.51-20.9.4-6.1-.08-12.32-.09-18.3-.38-6.91-.34-13.93-.63-20.81-.54-6.62.1-13.45.61-20,.46-5.69-.13-11.6,1.08-17.24-.41-3.71-1-8.64,2-10.57-.4s.08-7-1-10.8c-.63-2.21-1.51-6.08,4-5.47C31.73,374.26,36.33,373.1,40.86,372.67Z"/><path class="cls-3" d="M409.12,326.7c.12-.59.25-1.18.37-1.77,2.54-.86,4.38.95,6.46,1.74,2.62,1,5.27,1.86,8,2.67,3.45,1,5.24.13,5.69-3.65.35-2.9.74-6.19,5-5.91a4.61,4.61,0,0,1,2.27.88c1.51,1.41,1.48,3.2,1.38,5.08-.32,6.09-.07,6.16,6.19,6.72a177.18,177.18,0,0,0,19.41,1,7.91,7.91,0,0,1,3.88.75c2,2,.71,4.4.8,6.6.18,4.15,0,8.31.05,12.47,0,3.78-1.23,6.17-5.58,5.57-1.45-.2-2.86.35-4.71.53,2.07-.12,3.68-.77,5.36-.42,1.48.32,3.22.61,3.71,2.16a49,49,0,0,1,2,21.26c-.38,3-1.23,3.31-6.53,3.83,1.05.94,3.53.33,3.34,2.29-.26,2.54-3,2.8-4.67,3.85,2.09-.64,3.73-2.32,5.76-3.18,2.61-1.12,4.34-.73,2.93,2.74-2.41,1.55-1.59,4.1-1.78,6.23-3,32.39-6.07,64.76-8.79,97.17-2.78,33.1-3.77,66.28-4.49,99.48-.46,20.56-1.32,41.12-2,61.67-5,2.67-9.88,1.38-14.77-.48-7.4-2.82-14.77-5.56-23-5.23-3.28.13-6,3-9.47,1.52-2.16-4.81-.34-9.34,2.78-12.38,10.11-9.91,10.45-21.16,6.12-33.52a48.58,48.58,0,0,1-1.64-7.81c-.69-4,0-7.62,3.08-10.51s3.48-6,2.5-10c-1.33-5.35-3.41-10.42-5.21-15.6a28.52,28.52,0,0,1-1.27-13.74c1-6.79,1.19-13.61-.77-20.28s-.66-13.19-.62-19.8a179.68,179.68,0,0,1,4.37-39c2-8.66-1.66-17.1-1.93-25.71-.62-19.94-3.86-39.65-5.51-59.5-.45-5.46-1.13-10.89-.95-16.4.1-3.24,1-5.42,4.15-7.19,9.29-5.26,12-14.4,13.46-24.1-1.34,8.63-3.67,16.79-11.05,22.53-1.41,1.1-2.9,2.65-4.86,1.65-1.8-.92-1.31-2.93-1.21-4.52.38-6.43.75-12.86,1.71-19.25A40,40,0,0,0,409.12,326.7Z"/><path class="cls-3" d="M502.3,321.11l2.92-.32c3.91-1.41,4,1.39,4.3,3.93.64,5.72.62,5.7,6.28,4.35A38.61,38.61,0,0,0,526,325.42c2.86-1.62,3.81-.26,4.05,2.4,3,27.18,5.8,54.37,3.28,81.76,2.22,3.73,1.47,7.8,1,11.69-1.08,9.42-.83,18.91-1.51,28.35-.42,5.95-1.14,11.9-1.23,17.89-.07,3.74,1.24,5.32,5,5.73,5.8.63,11.6.78,17.41.91,2.14,0,4.36-.13,6.24,1.29,1.15,2,.55,3.53-1.16,4.81-7.06,1.72-14.18,1.07-21.27.36-6.45-.64-6.38-.51-7.34,5.89-1.07,7.2.11,14.27.55,21.36.49,7.95,1.39,15.85-.32,23.77a6.17,6.17,0,0,0,.28,3.92c2.16,28.52,0,57-.25,85.55a72.89,72.89,0,0,0,3.22,23c.93,2.95,1.49,5.77-.72,8.41-3.58.81-6.52-1.67-10-1.83-8.45-.38-15.8,3.1-23.43,5.65-3.82,1.27-7.58,2.32-11.62,1.25-.31,0-.62-.08-.94-.11-1.43-1.91-.49-3.87,0-5.72,1.59-5.44,3.4-10.82,6.46-15.64,4.66-7.33,5.18-14.88,1.71-22.83a70.11,70.11,0,0,1-4.17-11.75c-1.51-6.25-2-12.44-.12-18.73,2.12-7.26,2-14.44-1.34-21.4a20.54,20.54,0,0,1-1.25-14.14,19.34,19.34,0,0,0-.3-11.33c-5-14.13-3.93-28.55-2.1-42.94,1.05-8.25.9-16.24-1.9-24.11a41.54,41.54,0,0,1-2.42-16.68c.52-8.26-1.07-16.22-3.24-24.12-2.64-9.63-4.5-19.43-6.44-29.22a10.49,10.49,0,0,1-.18-1.48c-.07-2.16-.67-4.76,1.13-6.15,2.07-1.6,3.65,1.17,5.37,1.49-.77-.71-2.14-1-3.1-1.88a8.58,8.58,0,0,1-1.69-1.82c-.84-1.45-.55-2.35,1.06-3.13.56-.26-.57-.41-.86-.69-1.37-1.33-.5-2.57.31-3.51,3.83-4.49,4.17-10,4.67-15.45.19-2.11-.32-4.5,1.87-5.88,1.43-.9,0-1.11-.17-1.69-2.83-8-2.39-16.11-.35-24.22,4.89-1.71,10.06-1.35,15.08-1.92,3.89-.43,5.7-1.87,5.49-5.84C500.73,324.72,500.69,322.66,502.3,321.11Z"/><path class="cls-2" d="M438.43,49.13c4.41,9.1,6,18.84,6.93,28.82,1.07,11.3,6.13,20.63,15.67,27.06,5.4,3.64,11.43,3.43,17,.46,4.45-2.38,8.42-5.65,13.33-9-3.43,8.12-9.43,12.24-16.19,15.56-5.35,2.61-11.36,3.9-15.9,8.1a2.59,2.59,0,0,1-2.69.77c-4.3-1.19-9.83-9-9.59-13.73.15-2.81.28-5.63.41-8.44.07-1.32.38-2.76-.81-3.73-6-4.94-5.39-12.1-6.52-19.12-4.11,1.94-7.4.87-9.69-3.11a3,3,0,0,0-3-1.48c-6.28.31-12.58.47-18.86.92-7.82.57-15.68-.8-23.4,0-6.22.64-12.49-1-18.57.8-2.31.7-4.1-.89-6.28-.8-7.34.32-14.71.83-22,.49-9.77-.46-19.57.71-29.34-.75-3-.45-6.33.12-9.4.36-4.6.37-9.21-1.57-13.72.25-3.75,1.51-7.47-.44-11-.81-5.81-.6-11.26,1.39-17,.66-6.21-.77-12.6-.34-18.9,0-4.92.25-10,.34-14.76.24-10.56-.21-21.11.9-31.61.25-9.81-.6-19.65-1.16-29.4-.8-6.26.23-12.68.58-18.83.52-9.79-.11-19.68.62-29.42-.6-5.42-.68-10.62,2.16-15.87.43-5.79-1.92-11.32.81-17,.52-7-.36-14.08-.38-21.1-.81-5.23-.33-10.51.86-15.73-.56-.57-.16-1.53,1.09-2.3,1.68-4.51-1-8.77-2-13.61-.39-4.55,1.5-6.3-3.54-5.62-6.09,1.12-4.17-.18-7.85-.62-12.52,3.49,2.42,6.56.49,9.57.83,5.75.66,11.48-.37,17.31.38,3.79.48,8-.41,12-.3,8.65.23,17.47,1.35,25.92.06,9.83-1.5,19.54.08,29.29-.35,7.75-.35,15.81-.5,23.72-.13,5,.23,10.13-.26,15.13.24s10-.54,15,.71a6.2,6.2,0,0,0,2.82-.2c9.52-2.12,19.19-.24,28.79-.71,8.71-.43,17.68-.13,26.54.13,14.71.42,29.52,1.81,44.1.56,10-.86,19.81.39,29.76-.4,7.72-.62,15.83.35,23.72.07,11.18-.4,22.35,1.24,33.39.54,10-.63,20-.36,30-.86a194.23,194.23,0,0,1,19.86.5c4,.21,8-.5,12.12.5,2.11.51,4.44-.87,5.7-3.14A5.18,5.18,0,0,1,433.1,50c2.17,1.33,2.36,4,3.46,5.45A7.81,7.81,0,0,1,438.43,49.13Z"/><path class="cls-2" d="M559.93,475.71c-8.92-.27-17.84-.1-26.72-1.42-2.71-.41-3.19-1.35-3.05-3.68q1.53-24.78,2.93-49.57c.21-3.81.18-7.64.26-11.46,3.07,1.6,4.24.41,4.07-2.76,2.48,2,4.68,3.32,4.73-1.69,0-1,.11-2.37,1.67-2.57,2.26,1.33,1.19,4.08,2.51,5.8,1.95,1.6,4.82,1.32,6.58,3.32a1.47,1.47,0,0,0,1.85.26c7.23-4.49,15.24-1.88,22.89-2.52,2.31-.2,4.65,0,7-.06a25.18,25.18,0,0,1,6.43-.23c2,.54,4.14-.14,6.14.57a88.06,88.06,0,0,0,17.62.56c10.83-.46,21.64.48,32.45.1,4.21-.15,5.66,1.95,5.65,5.62-.07,14.62-.33,29.25-.21,43.86,0,3.87-1.63,6.06-4.63,7.79a176.56,176.56,0,0,1-30.47,6.5c-12.17,1.6-24.43,2-36.64,3-1.8.15-3.71.07-4.84,1.92a2.33,2.33,0,0,1-1.36.8c-2.23-1.13-1.86-3.3-1.94-5.19-.13-3.09-.69-5.62-4.58-5.62-3.18,0-6.5-.4-6.88,4.2A2.76,2.76,0,0,1,559.93,475.71Z"/><path class="cls-2" d="M531.06,535.55c-1.22-1.23-.85-2.79-.82-4.25a301.42,301.42,0,0,0-1.79-36.66c-.46-4.53.46-9.22.83-13.83.23-2.9,2.6-2.26,4.18-2,8.58,1.15,17.19.94,25.8.92,1.9,2.77,2.09,7.1,7.23,6.75,3.26-.23,5.87-.64,6.79-4.27a3.69,3.69,0,0,1,1.68-2.36,4.48,4.48,0,0,0,.4-.36c1.34-1.22,3-1.21,4.68-1.24,21.22-.34,42.13-3.43,63-7.22,1.61-.3,3.2-.95,4.87-.33.06,18.24,0,36.48.24,54.72,0,4.62-2.45,5.68-6.21,5.69q-34.47.07-68.94.13c-12.5,0-25,.19-37.49-.33C531.18,530.69,530.85,532.4,531.06,535.55Z"/><path class="cls-4" d="M46.53,679.25c-6.41-10.5-9.8-22.11-12.79-33.93a160.89,160.89,0,0,1-3.89-24.83c1.69-1.74,3.93-1.62,6.07-1.63q37.14-.08,74.29,0c2.12,0,4.39-.13,6,1.8.4,10.24-2.85,19.9-4.86,29.74-2.1,10.26-6.49,19.68-11.4,28.86-1.34,1.62-3.23,1.62-5,1.54-14.75-.63-29.52.71-44.27-.21C49.11,680.5,47.59,680.61,46.53,679.25Z"/><path class="cls-4" d="M460.07,139.17c0-.37,0-.73,0-1.1,1-.66,1.88-1.35,2.84-2,7-4.63,9.17-4.44,15.37,1,1.06.94,1.51,1.81.8,3-6.84,11.08-3,23-2.42,34.54,1,20.7,3,41.35,4.49,62,1.64,22.34,3.1,44.69,5,67,.44,5.26-.67,9.27-4.63,12.73a77.09,77.09,0,0,0-6,6.58c-.74,1.27-.94,2.76-2,3.93-2.9,3.24-4.89,3.33-7.7,0a31.42,31.42,0,0,0-4.39-4.76c-8.1-6.73-10.53-14.8-9.07-25.57,2-15.08,2.29-30.43,3.47-45.65,2-26.15,3.43-52.34,5.77-78.46.48-5.29.59-10.6,1.15-15.89A22.44,22.44,0,0,0,461,145.83C460.2,143.73,458.9,141.61,460.07,139.17Z"/><path class="cls-2" d="M66.93,496.5c2.2-10.15,2.62-20.53,3.93-30.79,2.15-16.89,2.58-33.9,3.7-50.87.21-3.1-.59-6.26.6-9.9A234.11,234.11,0,0,1,93.4,457.41c3.1,13.58,6.27,27.29,6.8,41.36a6.43,6.43,0,0,0,.66,1.85c1.48,1.65,1,3.48.2,5.12-6.16,12.85-8.18,26.87-11.5,40.52A267.31,267.31,0,0,1,72.7,594.45c-.77,1.68-1,4.89-4.49,3.56-1.86-4.54-2-9.4-2.32-14.16-.9-15.2-1.69-30.41-2-45.64-.29-12.46,1.61-24.76,1.57-37.17C65.4,499.4,65.46,497.69,66.93,496.5Z"/><path class="cls-1" d="M586.11,410.59c-7.08,0-14.15.08-21.23.06-3.46,0-7-.35-9.35,3-.69,1-2.66,1.59-2.93.6-1.24-4.47-5.63-2.75-8.13-4.55,4.18-1.25,7.62-3.21,10-7.26,1.93-3.26,3-6.2,1.4-9.76.9-2.21,2.57-4.19,2-6.83-.08-2.69.36-5.41-.51-8.73-2.93,2.77-3.43,6-4.17,9-.65,2.18-.63,4.48-1.26,6.66-1.77,3.2-2.57,7.63-7.93,6.35-3.11-3.95-.64-8.24-.76-12.38-.73-7,1.6-13.82,1-20.82-.17-1.88.84-3.6,1.91-5,8.24-11.17,8.71-23.6,5.62-36.41-3-12.27-4.2-24.75-5.39-37.26-.32-3.38,1.05-5.78,4.3-7,8.85-3.37,17.83-3.25,26.88-1,2.86.7,4,2.47,3.65,5.51-1.58,13.3-2.65,26.67-4.63,39.91-2.72,18.29-3.82,36.47.22,54.7a40.57,40.57,0,0,1,.41,6.45c1.43,2.07,1.72,4.5,2.2,6.88-1.27,1.9-2.62,3.76-4,5.59-1.07,1.44-2.15,3.48-4.64,2.24a77.06,77.06,0,0,1,1.93-9.94c-.26,3.12-2.75,6.95-1.27,11.29-1.41,2.7-2.84,5.33-6.65,3.67.25-6.37,2.31-12.46,2.89-17.9-.05-1.55-1.15-.81-.51-1,.12,0,.19.05.2.26.17,5.11-1.73,9.9-2.32,14.9a18.15,18.15,0,0,0-.23,4.87c-.57,1.64.24,1.79,1.68,1.73,4.93-.19,9.86-.18,14.78,0C583.1,408.46,585.38,408,586.11,410.59Z"/><path class="cls-1" d="M69,598.63c7.16-12.75,11.53-26.6,16-40.4,4.2-12.9,6-26.39,9.67-39.43,1.75-6.2,5.53-11.66,6.21-18.18,6.33-10.37,11.81-21.36,21.1-29.6,3.57-3.17,7-6.57,11.16-9,.91-.53,2-1.84,3.06-.84,1.28,1.25-.18,2.38-.83,3.45a114.35,114.35,0,0,0-13.81,31.54,323.61,323.61,0,0,0-6.57,33.2c-.3,2-.88,4.3.53,6.27.4,9-1.29,17.75-3.8,26.34-4,13.81-9.51,26.94-18,38.7-1.36,1.89-2.39,4-4.83,4.82-6.93.59-13.86,1.29-20.74-.42C66.05,602.65,66.88,600.56,69,598.63Z"/><path class="cls-3" d="M480.23,335c0,5.82.19,11.64,0,17.46-.13,3.93.22,7.1,5.95,7-9.25.9-5.38,8.12-6.4,12.36-1.13,4.66-2.46,8.8-6,12.23,2.13,2.09,5.19-1.82,6.75,1.62-1.52,2.36-4.25.45-6.5,1.61,1.72,4.53,7.32,4.35,10.47,8.11-4.65.47-7.19-2.74-10.77-3.75-1.43,4.64.07,9.16,1,13.49,2.36,11.48,5.17,22.87,8,34.24.92,3.65.61,7.27.54,10.89-.13,6.52.28,12.88,2.73,19,4,10.16,1.95,20.56,1,30.91s-1.79,20.47,1.45,30.52c2,6.16,3.34,12.27,1.19,18.84a12.85,12.85,0,0,0,.92,9.7,31.87,31.87,0,0,1,1.92,24.53c-3,9.46-.33,18.47,3.58,26.94,4.61,10,4,18.91-2.16,28.14-3.64,5.47-5.18,12.14-6.57,18.64-2.7-.75-2.78-.75-2.86-3.49-.43-15.43-.79-30.86-1.24-46.29-.82-28.24-1-56.52-2.18-84.73-1.24-29.33-3.88-58.63-7.41-87.82-1.73-14.34-2.27-28.81-3.35-43.22.19-1.74.16-3.21-2.26-2s-4.72,2.45-7.14,3.57c-1.24.57-2.48,1.79-4.4.4,2.76-2.54,7.31-1.8,9.24-5.42-2-1.65-4.78.4-6.76-2a4.13,4.13,0,0,1,4.15-1.65c4.8.76,5.64-1.73,5.28-5.76a52.68,52.68,0,0,1,0-9c.27-3.4-.73-5.54-4.38-5.6-.11-2.36,2.28-1.18,2.88-2.78-3.33-3.07-7.75-1.3-12.19-2.29,2.71-.58,4.81-1.56,6.81-1.37,5.51.52,6-2.36,6-6.84,0-5.4-1.26-11,.92-16.25a1,1,0,0,1,1.44.24c1.79,4.14.68,8.5,1,12.76.11,1.65,0,3.32.1,5,.15,1.86.83,3.22,3,3.19s2.81-1.45,2.89-3.28c.19-4.14,0-8.29.09-12.43a18.74,18.74,0,0,1,.42-4.95C478,334,478.84,332.8,480.23,335Z"/><path class="cls-2" d="M28.83,529.56c-1-12.46-2.43-24.83-4.46-37.18-1.61-9.79-3.09-19.59-5.28-29.27-.79-3.51-1.48-7-2.46-11.71,8.21,8.81,12.79,18.53,17.26,28.24a169.25,169.25,0,0,1,11,32c0,.15.2.39.25.38a7.12,7.12,0,0,0,.87-.34c2.23.42,1.4,2.29,1.67,3.59,2.72,13.16,5.34,26.36,7.67,39.58,2.75,15.54,6.28,30.88,9.73,46.25.29,1.28.57,2.64-.42,3.81-2.71,1.46-5.49,1.2-8.29.38C49.24,596.54,45.13,586.2,41,575.92c-3.81-9.39-6.63-19.14-9.47-28.83C29.85,541.47,27.69,535.7,28.83,529.56Z"/><path class="cls-3" d="M64.71,604.27c-2.48-8.23-3.9-16.72-6-25-3.1-12.13-4.33-24.59-7.26-36.75-2.07-8.63-2.91-17.55-5.29-26.13-.46-1.64,1.3-3.2-.14-4.71,1.24-26.23,5-52.6-3.78-78.46,3,.19,4.65,3.13,6.19,5.19a80.36,80.36,0,0,1,14.17,31.92c1.84,8.68,2.8,17.48,4.34,26.19-.39,11.75-1.63,23.48-1.79,35.19-.21,15.43,1,30.89,1.89,46.33.37,6.88,1.27,13.74,1.92,20.61q-.7,2.77-1.43,5.57C66.61,605.35,65.67,605.29,64.71,604.27Z"/><path class="cls-1" d="M406.4,652.45c7.06-4.52,14.52-3.61,22-1.45a87.82,87.82,0,0,1,10.73,3.85c4.58,2,9.3,1.86,14.08,1.59-3.58,2.93-2.15,6.95-1.54,10.25,1.46,8,1.14,9.12-6.44,11.69a27,27,0,0,1-5.72,1.66c-6.24.63-11.65,2.18-14.06,8.94-.67,1.85-2.77,2.77-4.67,3.51-13,5.07-26.37,6.36-39.94,2.79-7.21-1.9-8.22-5.81-3.64-12.08a2.21,2.21,0,0,0,.37-.88c1.3-8.12,7.32-12.07,14-14.81s10.69-7.93,13.81-14.06A1.16,1.16,0,0,1,406.4,652.45Z"/><path class="cls-3" d="M406.4,652.45l-1,1a6.64,6.64,0,0,1-1-7.45c4.7-9.49,2.89-19.54,2.67-29.38-.59-26.59,0-53.15,1.24-79.7.62-13.27,1.82-26.52,2-39.78.27-16.78-2.64-33.4-3.11-50.18-.54-19.07-1.82-38.12-2.78-57.18-1.22-5.46-2.89-10.95.79-16.17.18-15.29,2.63-30.41,3.28-45.66,0-.43.43-.84.66-1.25,2.42,3.31,1.16,7,.93,10.52-.43,6.59-1.14,13.17-1.64,19.75-.08,1.09-.53,2.57.67,3.2,1.37.72,2.53-.41,3.54-1.2,6.59-5.11,9.2-12.36,10.71-20.18.19-1,.32-2,.6-2.9.12-.42.55-.75,1.6-2.1-.85,11.52-3.57,21-12.84,26.94-3.5,2.24-4.52,4.53-4.38,8.37A449.55,449.55,0,0,0,413,416.43a169.46,169.46,0,0,1,1.31,18.32,153.87,153.87,0,0,0,2.77,25.6c1,5,.06,10-1.18,14.76-2.82,10.69-2.87,21.57-3.88,32.44-1.09,11.64,3.92,22.79,2,33.9-2.33,13.67,3,25.37,6.48,37.64,1.13,4,.42,6.93-2.59,9.28-3.9,3-4.13,6.8-3.1,11.15,1.38,5.79,2.49,11.64,3.84,17.44,1.68,7.21-.13,13.35-5.07,18.79C409.34,640.46,405.21,645.33,406.4,652.45Z"/><path class="cls-1" d="M28.83,529.56c2,3.75,1.64,8,2.71,12,4.61,17.19,9.69,34.13,18,50,2.19,4.16,5.06,8.08,6.38,12.72a10.51,10.51,0,0,1-12.22,0A95.25,95.25,0,0,1,21.6,573c-8.17-18.4-9.68-38.2-12.76-57.71C6.9,502.91,4.72,490.56.48,478.7a4.23,4.23,0,0,1,0-3.81C6,478.83,9.38,484.52,12.69,490c7.14,11.74,11.79,24.59,15.28,37.86A9.21,9.21,0,0,0,28.83,529.56Z"/><path class="cls-3" d="M90,604.28a134.4,134.4,0,0,0,23.33-55.56c.76-4.34.23-8.9,2.15-13.07a97.14,97.14,0,0,1,19.75-32.15c7.14-7.61,15.47-14.14,26.15-17.28-3.05,5.21-7.53,9.07-11,13.78-7.16,9.85-12.08,20.66-15.93,32-4.36,12.88-6.12,26.56-11.64,39.08-5.08,11.53-9.62,23.42-18.61,32.75C99.61,607.16,94.84,606.7,90,604.28Z"/><path class="cls-3" d="M438.43,49.13c0,3-1.83,6-.69,9.28-2.15-2.52-4.08-5.08-4.64-8.43-1.46-10.93-2-21.91,2.88-32.14C441.79,5.6,453.44,2.34,465.46.4a39.32,39.32,0,0,1,14.86.76c9.78,2.22,12.87,5.61,13.45,15.52C502.15,15,506.92,19,508.2,28.94c.88,6.84-.18,13.58-1.1,20.32-1.29,2.76-1.52,6.08-5,8.48,1-7.2-3.51-13.24-2.22-20.13.08-.44,0-1.18-.26-1.37-4.49-3.09-8.05-6.78-9.22-12.4-.26-1.24-1.7-.58-2.58-.3-12.32,3.82-24.76,6-37.61,2.88a1.73,1.73,0,0,0-2.12.75C443.77,34,436.83,39.69,438.43,49.13Z"/><path class="cls-1" d="M488.22,657.55c11.26-.89,20.94-7.95,32.41-8.19,4.61-.1,8.8.65,12.68,3.12,3.47,6.43,7.3,12.21,14.7,15.18,6.33,2.54,12.25,6.33,13.44,14.09.31,2,2.79,1.84,3,4.14.63,5.53-.23,7.5-5.51,9.25-2.52.84-5.06,1.67-7.79,1.31a5,5,0,0,1-.61-2.37c-.87-5.64-.88-5.64,3.08-6.5-7.62,3-17.1,1.76-26.63.28a29,29,0,0,1-17.88-9.93,20.2,20.2,0,0,0-10.68-6.74c-3.61-.92-7.55-1.5-10.14-4.75Z"/><path class="cls-3" d="M90,604.28c4.76.12,9.53.68,14.25-.41,3.47,1.58,7.1.27,10.65.57,5.3.44,8.32,2.77,8.58,7,.33,5.13-2.12,8.22-7.32,9.25l-86.33-.18c-5.19-1.33-7.52-4.64-7.07-10,.32-3.72,3.44-5.9,8.65-6,4.1-.07,8.2-.11,12.29-.16H55.94a26.08,26.08,0,0,0,8.77,0l2.81-.08C75,604.22,82.52,604.93,90,604.28Z"/><path class="cls-1" d="M525.15,313.74c.53-11.2.86-22.47-1-33.52-4-23.67-.27-46.77,3.71-70,1.33-7.79,3.18-15.55,3.47-23.54.1-2.64.44-6.55,4-6.31,3.21.21,2.79,3.83,3,6.5.28,3.89-2.62,7.22-1.82,11.18,4.51-1,5.38-.22,4.23,4.13-.54,2.07-1.3,4.09-2,6.12-1.83,5.19-3.12,10.29-1.81,16a29.62,29.62,0,0,1-.23,12.87,24,24,0,0,0-.07,9.89c-3.9-4.28-3.32-10.19-5.75-16-1.63,6-3.53,11.13-3.55,16.63-.07,16.62-.15,33.24.1,49.85.08,5.11,1.15,10.21.66,15.37C527.19,313.71,526.42,314.66,525.15,313.74Z"/><path class="cls-3" d="M46.53,679.25l53.39,0a34.91,34.91,0,0,1,3.13,2.34,8,8,0,0,1,2.11,8.26c-.79,2.79-3.7,1.28-5.62,1.27-14.14-.11-28.27.37-42.43-.33a92.23,92.23,0,0,0-15.75.56C39.82,685.89,41.59,681.92,46.53,679.25Z"/><path class="cls-2" d="M480.23,335c-.66-.08-1.21-1.37-2-.18-2.95,2.14-6,2-9,.2l-.44-.05-.44,0c-8.74,0-17.46-.39-26.17-1.08-5.46-.43-6.69-1.65-5.54-7.2.42-2,1-3.83-.3-5.67,1.67-1.75,3.73-1,5.63-.75,7.06.82,14.17,1,21.25,1.63a3.86,3.86,0,0,1,.78.58c5.5,7,5.5,7,11.49.44,8.39,1.11,16.61-.52,24.86-1.61.65-.09,1.3-.13,1.95-.2,0,2.49-.22,5,0,7.46.33,3.64-1.26,5.12-4.77,5.29C491.76,334.13,486,334.58,480.23,335Z"/><path class="cls-3" d="M488.34,666.44c4.87,1.58,9.7,3.31,14.63,4.67a11.11,11.11,0,0,1,5.83,4.43c5.57,7.33,13.17,10.72,22,11.72,9.34,1.06,18.67,1.51,27.65-2-1.51,2.52-1.63,2.83-4,3.08-2.63.29-4.93.28-2.6,3.89.87,1.36-.1,2.89-.72,4.26a51.74,51.74,0,0,1-35.81-5.54,5.09,5.09,0,0,1-2.22-2.58c-2-6-6.84-7.42-12.39-8a38.38,38.38,0,0,1-8.21-1.75C486.13,676.45,484.89,672.68,488.34,666.44Z"/><path class="cls-3" d="M451.31,666.44c-4.87,1.58-9.7,3.31-14.63,4.67a11.07,11.07,0,0,0-5.83,4.43c-5.57,7.33-13.18,10.72-22,11.72-9.34,1.06-18.67,1.51-27.65-2,1.51,2.52,1.63,2.83,3.95,3.08,2.63.29,4.93.28,2.6,3.89-.87,1.36.1,2.89.72,4.26a51.74,51.74,0,0,0,35.81-5.54,5.07,5.07,0,0,0,2.21-2.58c2-6,6.85-7.42,12.4-8a38.38,38.38,0,0,0,8.21-1.75C453.52,676.45,454.75,672.68,451.31,666.44Z"/><path class="cls-1" d="M580,245.84c-3.54-8.38-3.36-17.1-4.79-25.5-2.82-16.48-5.6-33-11.39-48.75-7.09-19.28-22.25-30.86-39.66-40.05-3-1.6-6.58-2.43-8.55-6.14,4-.36,6.44,2.58,9.45,3.89,6.84,3,13.55,6.26,20.24,9.57,10.09,5,16.43,13.3,19.85,23.78a319.29,319.29,0,0,1,13.06,60c.82,6.56,3.3,12.86,3,19.58C581.1,243.27,581.62,244.49,580,245.84Z"/><path class="cls-3" d="M647.87,470.66c-6.47,3.34-13.75,3.53-20.66,4.61-16.33,2.54-32.77,4.63-49.38,4.41-.82,0-1.64-.15-2.47-.22-.59-2.85.58-3.77,3.43-3.84a430.19,430.19,0,0,0,48.37-4.18c7-1,13.65-4.1,20.91-3.81C648,468.64,647.94,469.65,647.87,470.66Z"/><path class="cls-2" d="M525.15,313.74,528,313c.41,5,2.69,9.71,2.05,14.84-1.09-.27-.28-3.46-2.92-1.61-4.26,3-9.49,3.56-14.36,5.05-3.87,1.18-4.48-.18-4.66-3.64-.13-2.41,2.25-6.4-2.91-6.83C512,318.69,519.11,317.8,525.15,313.74Z"/><path class="cls-3" d="M579.17,392.59c-3.66-1.4-1.34-4.52-1.95-6.79,2.8.14,5.59.38,8.39.41,7.18.06,11.31,4,11.45,11.12.08,4.12.09,8.24.13,12.37-2.11.53-4.25,1.86-6.3-.17-1.76-3.21-1.3-6.79-1.34-10.17-.06-3.87-1.68-5.33-5.29-5.58C582.55,393.66,580.55,394.3,579.17,392.59Z"/><path class="cls-1" d="M546.79,269.49c4.92-5,11.25-7.1,18.9-9.41-7.56-2-14.16-2-20.75-2.77a68.09,68.09,0,0,1,39.56-5.25c-10.53.92-21.26.6-32.15,4.55,15.91,1.26,25.32,3.56,31.27,8.12C570.13,257.75,558.44,263.31,546.79,269.49Z"/><path class="cls-2" d="M405.18,373.61c-1.76,5.32.55,10.83-.79,16.17a24.39,24.39,0,0,1-7.89.77c-2.28-2.85.55-5.67,0-8.55s-1.77-6.12-.69-8.13c1.42-2.65,4.79,2,7.4-.11C403.65,373.42,404.52,373.64,405.18,373.61Z"/><path class="cls-3" d="M543.26,386.8c2.42,3.77-.52,7.86.7,11.7.38,1.44.59,2.86-.54,4.11a31.8,31.8,0,0,1-.21,3.39c-.26,1.57,1.11,3.83-1.44,4.51-3,.8-3.45-1.81-4.35-3.69a114.91,114.91,0,0,1,.24-11.75C538.07,391.54,540.24,388.78,543.26,386.8Z"/><path class="cls-2" d="M385.41,390.63c-1.2-1.71-4.54.43-4.83-2.3-.45-4.06-1.22-8.35.29-12.22.91-2.34,2.54-.2,3.27.78,2.85,3.82,3.55,8.4,4.24,13C387.43,390.27,386.61,391.19,385.41,390.63Z"/><path class="cls-1" d="M480.49,139.72c.74-.29,1-.52,1.33-.5,3,.19,6.31,3.38,8.89,1.08,3-2.71,4.49-6.91,5.45-11,.76-3.23,1.14-6.54,1.9-11.14,2.08,7.41-1.89,21-6.6,23.93C487.39,144.7,484.09,141.93,480.49,139.72Z"/><path class="cls-2" d="M374.24,405.82c.55-6.95-3.29-13.35-2.43-20.35,1.37,7.06,4.36,13.84,3.59,21.26Z"/><path class="cls-2" d="M368.29,400.81l-1.82-11.07c2.15,3.82,3.52,7.79,2.93,12.18Z"/><path class="cls-5" d="M463.22,321.9c-.86,2.3-2.75,1.21-4.22,1.2A183,183,0,0,1,436.34,321l-1.95-.24c-1.17-1.06-3,.34-4.06-1-2.46-6.49-4.55-13.1-8.48-19-1.35-2-.94-4.5,1.73-5.92,4.13-2.19,4.21-5.59,2.52-9.35-1.09-2.43-2.23-4.84-3.52-7.16-3-5.32-4.92-10.56-3.42-17,1.25-5.38-.84-10.79-2.49-16-4-12.61-9.9-24.67-10.79-38.16-.37-5.62-.91-11.23-1.5-16.84-.3-2.87-.43-7.54-3.14-7.41-3.35.17-1.48,4.63-1.93,7.22-.42,2.35,1.82,5.38-2.4,6.8-1.43.48-.87,3.46.06,5,5.35,9.16,5.07,18.89,3.73,29-.6,4.53.41,9.26.61,13.89a17.86,17.86,0,0,1-.25,4.45c-1.56,7-3.13,7.92-9.55,5.21a69.66,69.66,0,0,0-28.64-5.33c-4,.07-5.17-1.4-4.39-4.93,5.55-25.16,8.79-51,22.09-73.88,2.21-3.82,3.36-8.29,4.74-12.55a21.08,21.08,0,0,1,10.34-12.24c9.83-5.46,20.71-8,31.3-11.35.94-.3,1.94-.44,2.88-.75,3-1,6.56-1.36,8.79-3.27,2.73-2.34-.6-5.77-.27-8.77a3,3,0,0,1,.9-1.8,135,135,0,0,0,5.82,19.63c1.57,4.06,3.52,4.69,7.13,3,2.55-1.18,5.24-2.06,7.87-3.07,6.61,10.68,3.63,22.26,2.88,33.53-2.13,32-4.54,63.92-6.87,95.88-.83,11.43-1.64,22.86-2.7,34.27-.49,5.19-.1,9.76,4.36,13.31A55.2,55.2,0,0,1,463.22,321.9Z"/><path class="cls-3" d="M114.84,283c0,11.11-.06,22.21-.13,33.32,0,2.5.38,3.6,3.58,3.58q73.89-.28,147.79-.19c31,0,62,.12,93.06,0,4.11,0,3.31,2.73,3.67,4.94.57,3.45-2.21,2.2-3.6,2.21q-54,.12-108,.08-45.24,0-90.49,0c-16.26,0-32.51-.11-48.77,0-3.69,0-4.33-1.49-4.32-4.73.1-24.55,0-49.09,0-73.63q0-55.2,0-110.4c0-8.14.15-16.28-.06-24.41-.1-4.1,2.67-3.47,5-3.61,3.18-.18,2.12,2.24,2.12,3.84q.12,42,.19,84.07c1.43,1.56,1.17,3.51,1.28,5.39.26,11,.16,22,0,33.08.24,2.2-.28,4.41.08,6.61,0,11.1.15,22.2-.09,33.31A10.66,10.66,0,0,1,114.84,283Z"/><path class="cls-3" d="M114.94,242.7c-.25-2-.77-4,0-6,.67-3.41,3.64-5.06,5.84-7.16,11-10.5,22-21.08,33.18-31.37a17.64,17.64,0,0,0,3.43-4.22,34.22,34.22,0,0,1,4.33-2.77c6.58-3.69,11.14-9.73,16.77-14.53,3.75-3.2,7.05-6.94,10.52-10.47,1.61-1.63,3.27-3.09,3.67-5.71.35-2.33,2.32-3.41,4.82-3.42,2.23,0,4.66.75,4.8,2.71.45,6.49,5.31,10.16,8.75,14.64,4.93,6.43,10.35,12.48,15.56,18.69a17,17,0,0,0,4.44,2.13c2,6.69,7.8,10.58,11.59,16,4.37,6.23,9.35,12,14.25,17.9,3.41,4.08,4.95,4.08,8.12-.11q8.87-11.7,16.94-24a21.89,21.89,0,0,1,3.61-3c4.39-4.08,7.1-9.43,10.68-14.13,1.69-2.22,3.72-4.23,5.14-6.61,1.33-2.22,2.67-2.23,4.92-1.64,8.92,2.36,17.92,4.42,26.86,6.7,1.82.46,3.52.88,5.23-.18,1.53.89,3.64.24,4.9,1.84,4.57,2.56,9.8,2.64,14.7,3.95,1.76.47,3.56.79,5.33,1.17,1.95.42,2.7,1.43,2.29,3.55-.53,2.68-2.34,1.38-3.45,1.13-7.9-1.82-15.75-3.8-23.62-5.73-1.95,1.14-3.94.21-5.92.16-7.37-1.87-14.79-3.57-22.15-5.49-3.52-.91-6-.44-8,2.76-3.58,5.78-8.28,10.75-11.86,16.52-1.08,1.19-1.77,2.71-3.07,3.72-5.11,3.07-7.52,8.51-10.89,13-2.56,3.4-5.47,6.6-7.64,10.31-1.22,2.11-2.51,4-2.63,6.73a4.8,4.8,0,0,1-5.27,4.84c-3.13-.16-5.42-2.06-5.43-5.34,0-2.6-1.18-4.21-2.72-6.06-7.48-9-14.81-18.11-22.15-27.21-.83-1-1.4-2.3-3-2.1-1.65-1.21-2.28-3.28-3.9-4.52-7-9.28-14.74-18-21.83-27.19-3.28-4.28-5.48-4.67-9.41-1.14-9.4,8.41-18.68,17-27.38,26.1a38.93,38.93,0,0,0-4.1,3.61c-14.63,13.28-28.49,27.38-43.31,40.45C117,242,116.41,243.25,114.94,242.7Z"/><path class="cls-2" d="M114.84,283c0-2,0-4.05-.07-6.08.73-1.27,1.11-2.67,2.26-3.77,8.76-8.4,17.55-16.77,26.7-24.75,2.44-2.13,4.3-4.34,5-7.72.94-4.46,5.94-6.74,9.21-3.85,6.37,5.63,14.46,6.34,21.87,9,2.09.72,4.17,1.48,6.3,2.08,6.14,1.74,12,4.26,18.22,5.9,1.65.55,3.29,1.13,4.26,2.74l62.76,19.71c8.15,2.57,11.38,1,15.24-6.67,3.17-6.31,6.82-12.39,10.14-18.64,1.06-2,2.27-3.94,1.58-6.54-.85-3.21.77-5.43,3.77-6.56s6,.75,6.47,2.93c1.46,6.58,7.65,8.8,11.14,13.44,3.36,4.47,7.68,5.47,13.34,2.92s12.25-3.85,18.41-5.73c.88-.27,1.58-.36,2.13.52,1,1.72.24,3-1.13,4-7.73,2.35-15.56,4.45-23.16,7.18-3.46,1.24-5.62.88-8.15-1.78-3.87-4.06-8.27-7.61-12.33-11.5-2.58-2.47-4.65-2.59-6.69.59-5.55,8.65-9.54,18.12-14.23,27.22-1.44,2.79.46,7.13-4,8.68-4.1,1.43-5.58-2.79-8.47-3.78-10-3.42-20.06-6.54-30.11-9.76-11-3.53-22-7.09-33-10.52-1.64-.52-3.36-1.61-5.24-.59-1.77.35-3.22-.63-4.8-1.1-4.53-1.53-9.11-2.86-13.64-4.36-2.28-.32-3.93-1.8-5.69-3.07-7.06-2.22-14-4.81-21.23-6.49a11.81,11.81,0,0,0-11.25,2.77C138.63,260.68,126.72,271.81,114.84,283Z"/><path class="cls-5" d="M398.4,273.92c1.5,4.11-1.44,6.85-3.16,9.93-.49.87-1.13.8-2,0-9.38-8.63-20.46-6.8-31.3-4.49-6.55,1.4-7.54,1.19-7.61-5.48,0-1.66,0-3.32,0-5-.67-5.66.25-7.86,5.28-8.71,14-2.35,26.47,1.08,37.08,10.72A7.39,7.39,0,0,1,398.4,273.92Z"/><path class="cls-4" d="M230.55,195.19c-3.33,3.09-2.55-1.56-4-2.1,2.82-7.75,5.58-15.53,8.5-23.25.71-1.88.35-3.5-.09-5.3-.79-3.18.32-5.72,3.53-6.62,3-.83,5.51-.07,6.69,3.31,2.14,6.13,7.82,9.27,12.07,13.53,8.59,8.61,17.67,16.74,26.59,25,.72.67.4,2,1.66,2.26-.19,1.74-.92,3-2.88,3-5.92-2.6-9.91-7.58-14.36-11.91-7.51-7.31-15.23-14.39-22.69-21.75-2.8-2.76-4.29-2.37-5.75,1.42-2.15,5.59-3.67,11.4-6.05,16.92C233,191.7,232.52,193.9,230.55,195.19Z"/><path class="cls-4" d="M287.5,209.77c-.21-1.77.31-3.15,2.09-3.85,3.77.17,5.44,3.45,7.87,5.5,5.13,4.33,7.61,4.56,12.41.05,5.91-5.55,11.88-11,17.65-16.74a15.8,15.8,0,0,1,5.23-3.69l5.78,1.06c-8.8,8.46-17.56,17-26.42,25.36-1.46,1.38-2.79,2.38-2.89,4.8a4.73,4.73,0,0,1-4.59,4.48c-2.42.26-4.83-.58-5.36-2.7C297.59,217.29,291.78,214.22,287.5,209.77Z"/><path class="cls-4" d="M343.28,188c-1.82-.12-4.12,1-4.9-1.84,11.12-10.56,22.36-21,33.28-31.74,4.59-4.53,10-8.29,12.75-14.71,1.44-3.41,4.69-4.42,8.38-.68-9.9,4.41-13.34,14.62-20.71,21.23-9.45,8.47-18.54,17.34-27.76,26.07A7.59,7.59,0,0,0,343.28,188Z"/><path class="cls-4" d="M182.94,253.17l5.94,1.93c3.71,3,4.18,7.69,6.1,11.63.77,1.57,1.18,3.33,2.41,5,2.25-3.95,2.39-8.69,5.53-12a4.66,4.66,0,0,1,4.15,1.94c-1.51,4.53-2.9,9.11-4.6,13.57-.85,2.25-1.48,4.13-.05,6.52a4.71,4.71,0,0,1-1,6.26c-1.8,1.47-3.76,2.62-6.31,1.05a5.14,5.14,0,0,1-2.3-6.43,9.08,9.08,0,0,0-.24-6.64C189.37,268.4,186.14,260.79,182.94,253.17Z"/><path class="cls-4" d="M161.71,191.18c-.15,2.46-1.83,2.9-3.84,2.91-1-.47-1.25-1.49-1.82-2.29-2.45-3.41-5.13-4-9-2.37-9.36,3.93-18.11,9.15-27.53,12.95-1.51.61-2.87,1.84-4.66.89,0-1.7,0-3.41,0-5.11,9.72-4.55,19.42-9.14,29.17-13.62,2.47-1.13,4.75-2.38,6.12-4.81,1.5-2.66,4-2.88,6.43-2.22s3.25,2.87,3.09,5.13A15.06,15.06,0,0,0,161.71,191.18Z"/><path class="cls-4" d="M208.61,256.55l-3.7-1.75c-1-1.65-.27-3.22.28-4.76,5.47-15.43,10.84-30.89,16.31-46.32.64-1.81.91-4,3.25-4.64a5.42,5.42,0,0,1,3,4.87q-8.85,25-17.71,50A17.73,17.73,0,0,1,208.61,256.55Z"/><path class="cls-2" d="M430.33,319.76c1.37.27,2.89-.05,4.06,1-4.92.39-3.42,4.7-3.76,7.19-.48,3.45-1.28,3.8-4.58,3.16-5.93-1.14-11.26-3.54-16.56-6.2a38.25,38.25,0,0,1,2.27-11.5A56.73,56.73,0,0,0,430.33,319.76Z"/><path class="cls-2" d="M473.46,60.69c-.16,3.35-.07,7.14,2,10.62A4.84,4.84,0,0,1,474.34,78c-2,1.61-4.22,2.73-6.88,1.33s-4.33-4-3.15-6.58C467,67,466,61.08,466.57,55.19c.19-2.06.69-4.61,3.73-4.32,2.86.28,3.13,2.55,3.16,4.83C473.48,57.2,473.46,58.69,473.46,60.69Z"/><path class="cls-6" d="M388.36,287.26c2.1,1.43,2.07,3.36,1.92,5.38-1.11,14.66-5.9,28.82-5.91,43.63,0,1.18-.05,2.83-1.42,2.76-1.72-.08-1.47-1.9-1.49-3.19C381.3,319.42,381.23,303,388.36,287.26Z"/><path class="cls-7" d="M390.41,257c1.09.31,2.18.64,3.27.91,6.2,1.57,7.51,3.56,6.35,9.64-.27,1.44-.43,2.89-.65,4.33-1.53.54-2.52-.51-3.53-1.31a47.11,47.11,0,0,0-21.77-10.09c-1.4-.23-3.62-.27-3.52-2,.12-2.1,2.44-1.8,4-1.84A120,120,0,0,1,390.41,257Z"/><path class="cls-5" d="M352.46,256c.37-1.35.75-2.69,1.12-4,10-.4,20-.33,29.77,2.55a27.45,27.45,0,0,0,2.9.52c-.09,2.3-1.94,2-3.23,1.88-9.45-.75-18.21,1.81-26.79,5.34a2.39,2.39,0,0,1-2.75-.33C352.29,260.06,352.56,258,352.46,256Z"/><path class="cls-8" d="M353.48,261.89c2.35.41,4-1.22,6-2a49,49,0,0,1,21.14-4.1c1.86.09,4,.84,5.66-.76,1.33.79,3.17.54,4.16,2-4.27,2-8.78.37-13.16.82-1.92.19-3.88,0-6,.66,10.67,2,19.68,7.13,28.15,13.4-.33.67-.66,1.34-1,2-9.9-9.34-21.52-14.14-35.24-12.95-7,.6-9.57,2.67-8.82,8C352.64,266.76,353.77,264.24,353.48,261.89Z"/><path class="cls-3" d="M441.65,48.75c5.35-5.4,14.12-6.78,18.88-3.93.85.51,1.79,1,1.52,2.23a1.58,1.58,0,0,1-1.84,1.29c-2.9-.57-5.72-1.65-8.75-1.2C448.64,47.56,445.82,48.06,441.65,48.75Z"/><path class="cls-3" d="M392.58,327.28c-1.93-1-4.8,1.32-4.64-2.54.14-3.5,1.48-5.22,5.36-5.16,3.41.05,3.75,1.63,3.92,4.42C397.51,329,393.69,325.76,392.58,327.28Z"/><path class="cls-3" d="M496.87,48.06c-1.38,1.18-2.43,0-3.54-.51-4-2-8-1.37-12.11-.38-1.08.27-2.4.5-2.86-1.05-.26-.9.25-1.43,1-2C483.64,41.18,494.1,43.47,496.87,48.06Z"/><path class="cls-3" d="M453.49,62a4.07,4.07,0,0,1-4.13-4.11c-.24-2.72,1.26-4.38,4-4.46,2.51-.07,4,1.27,4.08,3.85C457.58,60.05,455.83,61.3,453.49,62Z"/><path class="cls-6" d="M487.3,92.86c1.48-3,3.05-5.21,3.72-7.68a17.44,17.44,0,0,1,3-6.76C496.94,84.56,494.53,90,487.3,92.86Z"/><path class="cls-6" d="M384.92,357.13a10.9,10.9,0,0,1,1.68,1.36,25.13,25.13,0,0,1,5,9.52c.26.82.47,1.65-.34,2.22a1.48,1.48,0,0,1-2.14-.43c-2.82-3.3-3.1-7.83-5.51-11.36C383.29,358,383.76,357.19,384.92,357.13Z"/><path class="cls-3" d="M490.8,57.94c-.1,2.25-1.64,3.27-3.8,3.45-2.64.22-4-1.32-4.09-3.76a3.38,3.38,0,0,1,3.61-3.77C489,53.83,490.34,55.38,490.8,57.94Z"/><path class="cls-3" d="M459.4,88c7.66,1.21,14.37,1.86,21.66-.42C477.48,92.54,464.81,92.8,459.4,88Z"/><path class="cls-6" d="M499.34,60.58c-.32,2.57.56,5.82-2.78,6.23-1.9.23-1.31-2.3-1.26-3.64.1-2.69-.45-6.38,2.73-7C499.81,55.77,498.84,59.16,499.34,60.58Z"/><path class="cls-2" d="M463.65,408.59a15.5,15.5,0,0,1,.28,7.83c-1.79,10.09-2.77,20.26-3.77,30.46-1.42,14.62-2.08,29.31-4.55,43.84a147.62,147.62,0,0,0-2.17,25.18c.07,24.59-.23,49.19-1.23,73.75-.8,19.66-2.56,39.27-3.9,58.91-.06.93.2,2.25-1.19,2.31-1.16,0-1.55-1-1.71-2.06a4.2,4.2,0,0,1-.06-1c1.25-17.29-2.32-34.4-2-51.66a20.88,20.88,0,0,1,.95-5.35,42.88,42.88,0,0,0,.9-22.55c-1.64-6.66-.78-13.12.57-19.66,2.36-11.5,3.11-23.23,4.42-34.86.55-4.9-.77-9.87-1-14.84-.72-14.39,1.63-28.31,4.5-42.33,2.55-12.43,3.83-25.11,5.6-37.69C459.8,415.27,460.66,411.91,463.65,408.59Z"/><path class="cls-2" d="M530,376.65c0,7.7.24,15.41-.07,23.11-.28,7.08-1.63,14.14-1.66,21.22-.08,20.56-2.24,40.95-3.8,61.41-.78,10.32.73,20.82,1.24,31.23,0,1,.48,2,.44,2.94-.77,21.42,3.17,42.73,1.89,64.13-.57,9.39-.58,18.82-1.74,28.22s.69,18.48,2.09,27.65c.16,1.09,1.19,2.41-.29,3.05s-1.89-1-2.24-2c-2.84-7.78-5.51-15.65-5.62-24-.08-6-1.48-11.82-1.11-17.85a192.37,192.37,0,0,0-.44-28.08c-1.14-13.54.22-27.39,2.16-41,1-6.67-.1-13.59-.06-20.35.1-14.08-4.73-27.34-5.62-41.19a23.7,23.7,0,0,1,1.37-9.79,49.43,49.43,0,0,0,2.87-24.79c-1.64-11.61,1.18-23,4.1-34.32,1.68-6.53,3.21-13.1,4.82-19.65Z"/><path class="cls-6" d="M575,479.81c-1.23,7.7-4.24,9.6-11.81,7.59-4.26-1.13-3.27-4.8-3.89-7.71a4.45,4.45,0,0,0,.67-4c.29-8,4.05-10.5,11.85-7.95,2.16.7,2.33,2.46,2.6,4.31C574.77,474.64,573.5,477.33,575,479.81Z"/><path class="cls-9" d="M579.17,392.59c11.44-.37,11.3-1.36,11.64,11.55,0,1.8.05,3.59.08,5.39l-4.78,1.06c-5.47-1.79-11.09-.47-16.63-.75-2.41-.12-4.84,0-7.64,0l2.34-3c.38-.35.45-1.11,1.24-.93,2.35-.74,4-2.46,5.61-4.17-.32-.44-.24-.73.3-.87C575.08,399.16,574.86,393.72,579.17,392.59Z"/><path class="cls-5" d="M543.42,402.61c.38-1.35-1-2.92.54-4.11,4.91,1.06,4.8-4.08,7.34-5.94a3.72,3.72,0,0,1,5,.08c4,2.25,2,5.47.87,8a41.92,41.92,0,0,1-5.26,7.69c-2,2.58-4.92,1-7.4,1.36C543.7,407.42,544.85,404.82,543.42,402.61Z"/><path class="cls-6" d="M571.14,344.29c-3.28-8.42-2.19-16.23-1.76-23.76a196,196,0,0,1,3.74-30.87,11.17,11.17,0,0,1,.3-2c.76-1.81,1.57-4.64,3.56-4.17,2.27.53,1.15,3.38,1,5.19-1.2,11.79-2.25,23.61-3.91,35.34C573.14,330.44,573.94,337.1,571.14,344.29Z"/><path class="cls-6" d="M568.66,354.49c1.24,7.91,2.35,15,3.42,22,.12.83-.07,2-1.09,1.79a3.4,3.4,0,0,1-2.23-1.72C566,369.62,563.12,362.59,568.66,354.49Z"/><path class="cls-10" d="M552.2,385.76a15.85,15.85,0,0,1,2.86-8.27c.71-1,1.45-2.53,3-2,1.29.44,1.14,1.89,1.14,3,0,2.47,0,5-.07,7.42C556.79,387.49,554.47,387.6,552.2,385.76Z"/><path class="cls-3" d="M552.2,385.76l6.95.18c-.06,2.62,1.05,5.75-2.89,6.7l-5-.08C551,390.22,551,387.9,552.2,385.76Z"/><path class="cls-2" d="M565.42,405.85l-1.24.93c-.41-7.34,2.46-14.15,3.51-21.26C568.73,392.49,565.41,399,565.42,405.85Z"/><path class="cls-2" d="M571.33,400.81a6.38,6.38,0,0,1-.3.87c-1.95-4.46.64-8.27,1.63-12.3C573.57,393.37,571.63,397,571.33,400.81Z"/><path class="cls-3" d="M469.23,335l9-.19c0,6.1-.15,12.21.12,18.3.17,3.65-.95,4.9-4.71,4.86-3.57-.05-4.52-1.31-4.41-4.66C469.43,347.19,469.26,341.09,469.23,335Z"/><path class="cls-3" d="M478.32,368.62A20,20,0,0,1,474,381.48c-.66.87-1.49,2.1-2.73,1.78-1.47-.38-1-1.9-1-3-.06-4,.05-7.91-.06-11.86-.06-2.37.57-3.5,3.27-3.72C477.09,364.42,479.42,364.73,478.32,368.62Z"/><path class="cls-3" d="M477.65,362c-.4.92-1.32.81-2.07.76-1.57-.12-3.33.65-4.64-.69-.51-.52-.05-1.3.54-1.64a4.93,4.93,0,0,1,5.12.11C477.14,360.83,477.83,361.09,477.65,362Z"/><path class="cls-2" d="M440.48,660.42c2,.05,4.26-.32,4.73,2.44.4,2.38-1.14,3.81-3.07,4.58a50.64,50.64,0,0,1-6.65,1.93c-4.07,1-8,2.25-11,5.38-.67.69-1.51,1.78-2.48,1s-.62-2.1-.13-3.22C424.8,665.86,433.26,660.33,440.48,660.42Z"/><path class="cls-2" d="M400.68,678.47c-3.28-.19-6.32-.2-7.07-3.39-.86-3.68,2.65-4.27,4.92-5.06a21.41,21.41,0,0,1,7.72-1c1.84.08,4,.66,4.13,3.4a3.93,3.93,0,0,1-3.08,4.45C404.94,677.57,402.52,678,400.68,678.47Z"/><path class="cls-2" d="M471,21.2a19.86,19.86,0,0,1-3,0c-1.78-.26-3.34-1.16-3.27-3.09.06-1.64,1.69-1.9,3.06-1.82,2,.12,3.11-.25,2.7-2.68A2.88,2.88,0,0,1,472,11.24c2.79-.89,4.76-1.64,4.92-5.47.09-2.26,3.71-1.94,5.59-1.14,3,1.3,4.53,3.78,3.41,7.3C484.13,17.6,478.29,21.28,471,21.2Z"/><path class="cls-2" d="M506.17,28.45c-.35,2.15-1.61,3.09-3.19,2.67-3.89-1-4.12-4.73-5-7.76-.53-1.81,1.19-2.31,2.5-2C504.32,22.26,504.22,26.31,506.17,28.45Z"/><path class="cls-2" d="M528,666.89c4.14-1.51,8-2.47,11.87,1.1,1.57,1.45,4.25,1.67,6.37,2.58,1.61.69,3.92,1.07,3.7,3.39-.19,2-2.24,2.07-3.84,2.47C537.8,678.52,532.6,675.82,528,666.89Z"/><path class="cls-1" d="M180.13,247c-6.28-.84-11.95-3.84-18.09-5.14-1.78-.38-2.06-2-2.95-3.14a5.25,5.25,0,0,0-5.83-1.77c-1.92.49-3.44,1.89-3.26,3.89.35,3.85-2.4,5.64-4.63,7.73-10.16,9.49-20.4,18.91-30.6,28.35q.08-17.1.17-34.21,20.19-19,40.39-38c1.68-1.57,3.47-3,5.21-4.55,1.53.61,2.16,2,2.77,3.35,5.85,12.59,10.55,25.67,16.27,38.32C180.31,243.4,181.13,245.13,180.13,247Z"/><path class="cls-1" d="M114.87,203.27q16.83-8,33.65-16.05c3.46-1.64,7.63,1.45,9.35,6.87.48,3.14-2.35,4.12-4,5.68-12.91,12.39-25.95,24.64-38.95,36.93Z"/><path class="cls-1" d="M224.75,199.08q-9.93,27.85-19.84,55.72c-6.72-1-12.9-3.73-19.26-5.87-4.34-5.22-6-11.8-8.47-17.84-3.51-8.41-7.34-16.69-10.6-25.2-1.1-2.84-3.11-5.55-2-8.92,2-3.65,5.13-6.32,8.08-9.11,6.75-6.37,13.65-12.58,20.44-18.91,2.78-2.58,5.84-2.26,7.9.24C209.07,179,216.85,189.09,224.75,199.08Z"/><path class="cls-1" d="M230.55,195.19c2.81-7.92,5.58-15.86,8.45-23.76,1.4-3.86,3.47-4.41,6.34-1.7q18.71,17.63,37.33,35.33c-3.32,8.07-9.39,14.33-14.3,21.31-7.19,10.21-7.38,9.94-15.09.18-6.48-8.2-13.18-16.21-19.83-24.27C231.72,200.19,230.07,198.15,230.55,195.19Z"/><path class="cls-1" d="M332.75,191c-7.7,8.51-16.34,16-24.88,23.67-2.81,2.51-7.74,1.69-10.72-1.77a78.17,78.17,0,0,0-7.56-7c3.76-7.37,9.71-13.23,13.94-20.26,1.09-1.82,2.39-1.16,3.84-.81C315.82,186.94,324.29,189,332.75,191Z"/><path class="cls-4" d="M164.55,197q7.68,18.69,15.35,37.39c2,4.83,3.83,9.71,5.75,14.57-2.1.1-3.74-1.12-5.52-1.94L160.54,200.1C161.52,198.61,162.61,197.24,164.55,197Z"/><path class="cls-1" d="M202.92,259.76c-1,5.33-3.19,10.24-5.7,15.75l-8.34-20.42Z"/><path class="cls-3" d="M249.4,112.15v9.64a13.12,13.12,0,0,1-5.49-2.49l-.14-.1a13.94,13.94,0,0,1-3.88-4.79,14.63,14.63,0,0,1-1.48-6.07V94.21a12.92,12.92,0,0,1,4.3,1.67,11,11,0,0,1,1.2.82,13.64,13.64,0,0,1,2.47,2.45,14.29,14.29,0,0,1,3,8.85v.34h-1.83a3.61,3.61,0,0,0-2.59,1.11,3.9,3.9,0,0,0-1.07,2.69Zm13-13a13,13,0,0,0-3.26,1.66l-.52.37a14,14,0,0,0-3.14,3.38,14.33,14.33,0,0,0-1.76,3.78h4.9a4.07,4.07,0,0,1-.28,1.46,3.9,3.9,0,0,1-.8,1.23,3.6,3.6,0,0,1-1.19.83,3.45,3.45,0,0,1-1.41.28h-1.82v14.14a13.07,13.07,0,0,0,5.39-2.41l.11-.08a13.8,13.8,0,0,0,4-5,14.26,14.26,0,0,0,1.45-6.33V98.7a12.65,12.65,0,0,0-1.71.45Z"/></svg>