<svg id="Layer_1" data-name="Layer 1" xmlns="http://www.w3.org/2000/svg" viewBox="0 0 794.68 843.83"><defs><style>.cls-1{fill:#191919;}.cls-2{fill:#0898df;}.cls-3{fill:#424242;}.cls-4{fill:#c8c8c8;}.cls-5{fill:#fff;}.cls-6{fill:#e0e0e0;}.cls-7{fill:#284a6f;}.cls-8{fill:#284b6f;}.cls-9{fill:#24466a;}.cls-10{fill:#507c98;}.cls-11{fill:#8fafc3;}.cls-12{fill:#80a4bb;}.cls-13{fill:#6c96b0;}.cls-14{fill:#304e6f;}.cls-15{fill:#b9cbd6;}.cls-16{fill:#aeb9c6;}.cls-17{fill:#91aabc;}.cls-18{fill:#757575;}</style></defs><path class="cls-1" d="M34.84,422c-.39-2.39-.58-3.5,3-3.19,16.38,1.4,32.81.89,49.24.62,19.65-.32,39-3.12,58.49-5.26,3.4-.37,7.89-2.37,9.86-.9s1.71,6.33,2.41,9.7c4.48,21.55,9.85,42.91,13.77,64.58,3.74,20.63,7.44,41.28,11.81,61.78C185.51,559,186,569,189,578.51c.43,1.36.17,3,.23,4.43-2.2.34-2.21-1.6-2.78-2.81a39.41,39.41,0,0,1-3.11-12c-1.67-13.57-5.39-26.69-8.94-39.84-4.47-16.52-9.37-32.95-12.64-49.75-2.3-11.86-5.65-23.63-5.07-35.93.09-2.06.43-4.31-1.34-6.4-.51,14.9-1.84,29.39,2.9,43.8,3.47,10.54,6.39,21.31,9.36,32,4.1,14.78,6.56,29.84,8.89,45,1.58,10.21,6.89,19.29,9.3,29.27,2.4-.54,2.11-2.64,3.37-3.43,3.08,6.46,3.39,13.49,2.63,20.25-1.59,14.11-.33,28.09.59,42.1.69,10.43,1.8,20.83,2.68,31.24,1.22,14.3,3.2,28.5,5.18,42.71,1,7.51,1.35,15.14,3.89,22.39,1.06,3,0,5.09-2.92,6.39a57.43,57.43,0,0,0-5.17,2.92,9.57,9.57,0,0,1-5.1,2.78c-7.68,2.21-15,5.51-23,6.84l-5.82,1.3a5.79,5.79,0,0,1-1.35-3.66c-1.53-16.86-3.42-33.69-4.81-50.56-.54-6.58.54-13.2.39-19.85-.16-6.81-.48-13.61-1.19-20.34q-1.36-12.87-2.82-25.76a11.34,11.34,0,0,1,.87-6.33c6.93-14.42,6.59-28.43-2.16-42.09-3.22-5-4.34-10.94-4.7-16.66-.41-6.58-2.5-12.66-3.92-18.94-1.82-8.05-6.75-14.79-10.65-21.81-6.87-12.35-12.47-24.92-14-39.06-.44-4-1.41-7.9-4.24-11-2-2.22-3.62-2.11-4.38,1.15-1.5,6.44-3,12.87-4.08,19.41-3.18,1.12-1.55,4-2.14,6-4.1,14.38-5.78,29.26-8.84,43.86-2.93,13.93-4.72,28-6.26,42.13-.84,7.78-3.56,15.39-5.48,23.06-4.1,16.36-4.56,33.33-7.15,50-3,19.53-4,39.21-4.59,58.91a186.43,186.43,0,0,0,1,20.84c.35,4.38-1.8,6.39-5.62,7.44-2.55.71-5.07,1.53-7.6,2.3-6.23,3.51-13.4,3.11-20.08,4.77-2.93.72-6,2.19-9.09.19l-1.91-.15c.35-6.75,1.45-13.42,1.89-20.17.87-13.1,1.79-26.18,2-39.32.09-7.22,3.43-13.83,4.39-20.94,2-14.68,3.72-29.32,1.67-44.17-1-7.1.44-14.38-.53-21.42-2.3-16.62,2.63-32,7.56-47.29,3.27-10.13,2.3-19.92.67-30-1.87-11.65-2.85-23.42-4-35.16a25.22,25.22,0,0,1,2.23-12.67,27,27,0,0,0,2.07-12.65c-.5-9.29.18-18.69-1.5-27.86C41.67,443.08,39.16,432.27,34.84,422Z"/><path class="cls-1" d="M681.44,464.11c3.73,19,7.56,38,11.14,57,2.85,15.17,5.26,30.42,8.13,45.59,1.28,6.77,3.92,13.35,4.69,20.15.83,7.39,2.88,14.45,4.1,21.7,1.65,9.85,4,19.56,5.61,29.39,1.72,10.43,3.69,20.85,5.79,31.18,1.86,9.14,3.63,18.34,5.54,27.49,2.38,11.37,4.28,22.86,6.46,34.27,1.61,8.49,3.06,17,4.93,25.5,2.59,11.73,5.24,23.46,6.73,35.41a29.53,29.53,0,0,0,1.56,5.55c1.28,3.85-.07,5.54-3.53,6.44-2-.78-2.47-2.66-2.81-4.42C737.25,786.46,732.61,774,731,761c-5.61-46-16.55-90.87-25.63-136.16-8.41-42-17.71-83.74-24.94-126.27-1.55,13.24-.83,26.23-2.39,39.09-.26,2.16-.27,4.36-2.31,5.79q-1.69,30.78-3.38,61.56c-.81,3.78.34,7.68-.67,11.46-1.37,3.25-.72,6.65-.84,10-.27,7.49-.91,15-1.4,22.44-1,4.1.31,8.33-.74,12.43a12.26,12.26,0,0,1-.24,5.55c-1,4,.27,8.26-.75,12.32-.94,12.57-1.24,25.2-2.21,37.75-1.18,15.38-1.3,30.81-2.71,46.15-1.14,12.43-1.27,24.9-2.24,37.31-.74,9.3-1.29,18.6-1.76,27.91-.48,9.66-2.49,13-11.76,15-5.73,1.24-11.7.23-17.3-1.93-1.09-6.63-.66-13.27-.23-19.92.39-8.4.12-16.89,1.35-25.17,1.17-7.88.77-15.78,1.59-23.66,2.13-20.3,2.29-40.76,4.54-61.09,1.1-9.92.75-20,1.76-29.95,1.11-10.92.63-21.94,2.63-32.79,1.24-6.73.27-7.45-6.51-8-8.65-.69-17.28-1.75-25.89-2.88-2.78-.36-5.69.07-8.33-1.2-2.75-1.43-2-3.88-1.77-6.15q2.55-23,5.28-46,6.47-54.66,13.06-109.3c1.08-8.9,2.15-17.81,3.36-26.69.46-3.44-.61-5-4.16-4.94-5.14.16-10.3-.39-15.4.65-4.56.91-9.37-.93-13.79,1.27-2,3.62-2.11,7.69-2.69,11.57-4,26.44-8.5,52.8-12.66,79.21-3.92,24.93-8.39,49.77-11.71,74.78-.09,7.2-1,14.22-4.44,20.71C552.57,637,552.86,643,552,648.58c-1.46,9.82-3.38,19.59-4.58,29.42-1,8-2.47,15.89-3.81,23.75-1.89,11-3.19,22-5.21,33-2.17,11.85-4.33,23.73-5.54,35.78-.9,9-2.88,17.92-4.41,26.88-.78,4.59-1,9.41-2.64,13.68-1.37,3.54-4.88,5.83-8.91,6.63a8.34,8.34,0,0,1-1.49-.05c-12.3-.19-13.33-1.2-11.56-12.9,2.8-18.49,5.93-36.93,8.71-55.42,2.6-17.33,4.33-34.81,7.53-52,3.53-19,5.56-38.28,9.06-57.32,2.71-14.79,4.33-29.77,6.62-44.63,4.23-27.49,9.07-54.9,12.76-82.46,3-22,7-43.82,10.11-65.78.33-2.31.13-3.73-2.85-4.44-6.95-1.64-13.6-4.43-20.71-5.58a3.59,3.59,0,0,1-3.36-4.11c.1-2.32-.09-4.65,1-6.82,4-2.63,8.36-1.56,12.53-.85a41.27,41.27,0,0,0,12.84.55c6.57-.92,12.8,1.53,19.15,2.68,10.31,1.87,20.74,2.65,31.14,3.76a9.49,9.49,0,0,0,3-.33c9.62-1,19.38.15,28.92-2.89,3-.95,7,.44,10.56.93,7.15.38,14.21,1.22,20.8,4.32,4,.91,8.2-.37,12.23.71a50.88,50.88,0,0,0,15,.78c3.4-.4,6.14.88,9,2.76,2.69,1.74,1.8,2.85.49,4.5-4.09.94-8.2.62-12.3.14a95.8,95.8,0,0,1-10.44.11c-3.22-.29-4.13.75-3.81,3.82a36.2,36.2,0,0,1-.35,5.95A34.8,34.8,0,0,0,681.44,464.11Z"/><path class="cls-2" d="M633.54,227.6c.71,2.69-2,1.1-3.63,1.35-5,.77-10.1,1-15.12,2.31-13.92,3.5-25.64,10.16-34.66,21.5-6,7.47-10.08,15.88-14,24.48-2.45,5.37-1.18,11.13-2.18,16.67-2.11,11.69,1.68,22.26,6.47,32.87,6.55,14.51,17.48,24.2,31.19,31.15,5.25,2.66,11.06,4.22,16.61,6.28,1.73.83,1.56,2.44,1.39,3.87-2.46,20.84-4.55,41.71-7.33,62.51a5.33,5.33,0,0,1-.84,2.31c-5,2.4-9.92-.13-14.87-.29-12.5-.4-24.54-5.65-36.92-5.06-9.15.45-17.89-2.72-26.91-1.35-8.25-3.73-16.71-5.69-25.86-3.89-3.83.75-6.05-2.5-4.45-6.38a16,16,0,0,0,.51-11.6c-1-2.66-.3-5.22.33-7.83,1.71-7.11,2.92-14.19,2.57-21.65-.29-6.42,2.87-12.58,3-19.12s2-13.16.77-19.83a5.92,5.92,0,0,1,0-2.48c3.64-15.7,1.34-32.15,6.18-47.73,1.32-4.25.34-8.93.43-13.42.05-2.32-.46-4.79.28-6.95,3.94-11.48,4-23.46,5-35.34a3.86,3.86,0,0,1,1-2.25c.08-2.65,0-5.3.25-7.94.31-4.21,3.6-6.15,7.62-5.27A188.63,188.63,0,0,0,559.64,219c5.15.32,10.16,1.49,15.3,1.61,1.27.61,2.47-.26,3.72-.14,13.2,1.19,26.42,2.17,39.43,4.85"/><path class="cls-3" d="M724.45,337.22a51.31,51.31,0,0,1,2.48-12.63,4.76,4.76,0,0,0,.58-2.38c-2.22-8.39,1.31-16,2.82-23.92,2.48-13,.53-26.4,2.27-39.53.28-2.08.68-4.15,1-6.22a2.27,2.27,0,0,1,1.2-.81c6.93-1,7-1,8.2-8.06.55-3.13,1-6.17,5.41-4-.28,1.42-.68,2.82-.82,4.26-.25,2.44-1.12,5.21-.28,7.25.94,2.29,4.11.37,6.17,1.23s4,1.45,6,2.17c4.41,2.78,9.42.51,14,1.66,1.64-.06,3.47.35,4.87-.26,3.06-1.33,4.62.46,6.39,2.26s1,3.59,0,5.44a38.12,38.12,0,0,0-1.53,3.66c-.89,5,.43,10.12-.7,15.12-1.5,5.29-2.49,10.63-1.89,16.2a9.81,9.81,0,0,1-.36,4.93c-3,6.49-2,13.27-1.84,20s.3,13.32-3.57,19.24a.87.87,0,0,0-.19.46c.87,10.1-2.38,19.91-2.21,29.93.07,4.19.14,8.2-1.18,12.26-2.8,8.59-1.47,17.79-3.77,26.52a36.24,36.24,0,0,0-.3,16.29c.9,4.67-3.48,8-8.3,6.79L742.58,431c-4.35-1-8.82.3-13.17-.68-4.45-.45-8.89-1-13.34-1.3-3.17-.2-4.07-1.89-3.34-4.57,1-3.81,1.33-7.81,3-11.47.68-1.47,1.52-3.26,1.26-4.72-2.29-12.95,5.66-24.88,3.36-38.06-.92-5.26,3.35-10.92,3.34-16.82C724.73,348,723.4,342.56,724.45,337.22Z"/><path class="cls-4" d="M294.73,186.5a39.67,39.67,0,0,0,12.17,4.83,2.08,2.08,0,0,1-1.09.94c-3.28.93-6.86.32-9.95,2.29-2.71,1.73-5.2,3.86-7.5,4.24.71-.49,2.21-.81,3.58.9-9.52-.35-14.32,6.93-20.27,12.43q-8.4,7.76-17.06,15.23a20.35,20.35,0,0,1-9.12,4.89c-8.94,1.79-15.62,7.65-23,12.27-18.37,11.52-36.76,23-55.79,33.45-9.43,5.16-19.69,8.62-29.73,12.46-6,4.22-12.59,2.79-19.12,2.23-4.53-.7-8.37-3.1-12.2-5.31-6.44-3.72-12.79-7.59-19.55-10.72a14.28,14.28,0,0,1-4.85-4.16c-10.08-6.87-21.12-12.25-30.74-19.83a40.63,40.63,0,0,0-6-4.32c-4-2.09-3.13-4.26-.67-6.89A122.48,122.48,0,0,0,62.87,215c1.2-2.25,2.2-2.91,4.51-1.12a101.52,101.52,0,0,0,8.77,5.56c1.94.13,3.33,1.37,4.7,2.52,7.68,6.43,16,12.15,22.93,19.44a18.46,18.46,0,0,0,4.87,3.33,37.07,37.07,0,0,1,6.46,4.63c3.6,3.23,8.07,3.56,12.48,4.23,4,2.17,7.78.25,11.53-.68,16.17-4,32.28-8.46,47.57-15,12.67-5.45,26.09-10,36.05-20.39,1.95-2,4-3.95,4.86-6.78,2.23-7.5,8.27-11.68,14.13-16A20.33,20.33,0,0,0,247,189.6c2.8-2.55,6.14-4.39,9-6.92,4.82-1.49,9.63-3,14.46-4.46,1.86-.55,3.79-1.23,5.6.22-2.69,4.17-8,4.22-11,7,4.55-2,8.92-5.77,14.78-5.78a22.78,22.78,0,0,1,8.15,1.72c-5.27,3-11.42,4.21-16.42,8.31a71.27,71.27,0,0,1,17.19-8,7.08,7.08,0,0,1,5.27,3.54c-4.81,3-10.48,4.39-14.74,7.35C284.11,190.77,288.65,186.72,294.73,186.5Z"/><path class="cls-3" d="M522.49,227.73c-.25,11,.48,22.14-3.52,32.82-1.89,5.05-2,10.6-1.25,15.78.95,6.89-1.39,13.12-2.36,19.62-1.22,8.18-3.22,16.27-1.82,24.64a4.4,4.4,0,0,1,0,2c-3.62,11.74-1.19,24.1-3.61,35.92-3.1,15.17-1.86,31-6.94,45.84-8.71.56-17.25-.93-25.76-2.4a41.67,41.67,0,0,0-10.39-.63c-4.92.4-7.69-3.06-6.33-7.81a126.88,126.88,0,0,0,4.51-33.9c.12-9.89,1.86-19.8,3.35-29.63.73-4.77,1.75-9.46,1.43-14.32a106.27,106.27,0,0,1,3.92-37.48c5.1-16.8,3.51-33.46,3.64-50.27.05-5.39,3.7-8,8.55-5.56,6.08,3,12.67,4.07,19.28,4.13C511,226.52,516.77,226.51,522.49,227.73Z"/><path class="cls-3" d="M611.45,432.9c-1.05-7.3,1.12-14.35,1.76-21.51,1.41-15.75,4.18-31.36,5-47.18q3.66-31.59,7.32-63.2c.28-2.43.66-3.37,4-3a63.09,63.09,0,0,1,41.73,22.75c9.23,11.23,15.58,24.55,16.59,40.14.52,7.89-1.49,15-2.21,22.49a17.47,17.47,0,0,1-1.68,6.21c-4.31,8.38-8.52,16.75-15.86,23.19s-13.83,13.35-23.67,16.1l6.42,1.12c-7-.43-13.53,1.46-20.28,2.69C624.38,433.86,617.83,432.93,611.45,432.9Z"/><path class="cls-5" d="M262,352.19c-22.18,15.82-47.33,18.57-72.91,13.66-15.39-3-28.35-11.91-33.23-28.73a32.66,32.66,0,0,1-.74-5.8c-1.95-8.86,2.48-16.09,6.12-23.48,1.29-2.63,2.63-5.49,6-6.23,15.3-18.55,36.67-25.65,58.86-31.24,11.5-2.9,23.13-4.24,34.87-2,5.85,1.11,11.73,2.91,15.65,7.9,5.53,7,4.62,15.93-2,23.5-2.69,3.08-6,5.89-5.81,10.58-.1,3.29-1.75,5.12-5.06,5.53A11.88,11.88,0,0,0,260,317c-2.46,1.2-3.89,2.8-1.44,5.29,2.15,2.18,2,3.49-1.1,4.43-2.2.68-6.21.55-5.61,3.48.66,3.21,4.21,1,6.45.88,6.44-.2,12.89.19,19.31-.79,1.7-.26,4.34-.24,3.44,3.06l0,0c-4.45,2.12-9.27,2-14,2.26-4.12.22-8.27-.08-12.39.14-1.13.06-2.56.14-2.6,1.68,0,1.35,1.17,1.86,2.32,2.22,1.83.58,4,0,5.76,2-.58,1.88-2.56,2.16-4,3.08-2.49,1.64-2,2.93.31,4.34C258.28,350.13,261.32,349.12,262,352.19Z"/><path class="cls-1" d="M22.16,91.6c-2.3-2.35-5.64-.17-8.3-2.17A18.51,18.51,0,0,1,6.12,75.62C4.54,58.06,10.26,43,21.67,29.87c3.9-4.49,7.35-9.54,13.39-12.09C32.56,13.24,29.87,9,29.79,4c0-1.35-.3-3.43,1.37-3.88,1.9-.5,2.08,1.71,2.86,2.87a2.64,2.64,0,0,1,.17.47c1.59,3.68.61,9.72,5,10.57,3.44.67,7.54-2.74,11.48-3.87,19.21-5.5,37.93-6.26,55,6.4,4,3,7,6.48,7.06,11.91,0,2,.25,4.57,3.41,4.55.14,2.89-2.13,3.94-4.08,5.08a137.94,137.94,0,0,1-17.4,8.52c-7.42,3-14,7.3-20.93,11.21-9.08,5.15-17.74,11-27,15.79a20.41,20.41,0,0,0-6.56,5.16,49.47,49.47,0,0,1-13,11.46C25.62,91.07,24.22,92.53,22.16,91.6Z"/><path class="cls-3" d="M555.74,631.84c.3-7.11,3.78-13.75,3-21a4.23,4.23,0,0,1,3.19-1.19c5.63.58,11.28.75,16.92,1a3.06,3.06,0,0,1,2.89,2c2.18-7.7,2.63-15.37,3.23-22.94,2.19-27.68,6.27-55.15,8.75-82.78,1.07-11.92,2.92-23.73,3.71-35.7.58-8.73,2.8-17.37,2.59-26.23a3.34,3.34,0,0,1,.41-1.72c6.65-2.34,13.51-.73,20.26-1,2.12-.08,2.07,1.93,1.89,3.38-1.37,11-2.86,21.94-4.24,32.91-1.28,10.15-2.49,20.31-3.7,30.47-1.13,9.51-2.2,19-3.35,28.53q-1.77,14.74-3.65,29.48c-1.58,12.45-2.87,24.92-4.47,37.37-1.27,9.8-2.08,19.69-3.42,29.51-.11.87.57,1.86.88,2.79C585.64,635.51,570.64,634.14,555.74,631.84Z"/><path class="cls-3" d="M675.75,543.4c.62-4.75,1.87-9.51,1.73-14.23-.3-10.49,1.46-20.87,1.17-31.33,0-1.22-.57-3.16,1.19-3.35,2.44-.27,1.52,2,1.77,3.27,4.17,21.39,8.16,42.82,12.5,64.18C700.43,593,707.05,624,713.42,655.1c4.38,21.36,8.86,42.7,12.69,64.16,2.52,14.12,4.93,28.27,6.68,42.54s6.21,28.05,9.8,42c-.89,2-2.49,1.16-3.88.92s-2.89-.8-4.37-1c-8.33-.92-8.32-.9-9.86-9.13-3.13-16.59-6.33-33.17-9.4-49.77-3.94-21.32-7.67-42.68-11.7-64-4.74-25.05-9.74-50.06-14.55-75.11-3.66-19-7.2-38.12-10.8-57.19C677.67,546.66,678,544.47,675.75,543.4Z"/><path class="cls-1" d="M34.84,422c2.85,1.5,4.22,3.61,4.58,7a46.92,46.92,0,0,0,3.2,13.41c3.14,7.42,3.27,15.23,3.44,22.91.18,8.15,1.38,16.31.33,24.54-.41,3.18-2.54,5.27-3.26,8.21-1.79,7.35-.27,14.49.53,21.68,1,9,1.2,18.22,3.47,26.9,3.67,14.08-2.58,26.31-5.4,39.21-1.2,5.49-2.65,10.92-4.12,16.34-1,3.84.15,7.54.34,11.31.69,13.54.5,27.1,1.77,40.67.69,7.44-.54,15.42-1.62,23.15-1.24,8.82-3.36,17.36-5.41,26-.89,3.72-.53,7.78-.41,11.68.41,13.79-2.16,27.41-2.12,41.18,0,3.31-1.64,6.39-2.91,9.46-3.72,1.4-3.47-1.76-3.61-3.56-.5-6.25-.68-12.53-1.14-18.79a394.93,394.93,0,0,1-.63-50.68c.83-14.93,3.58-29.65,4.59-44.55.72-10.58,1.05-21.18,1.89-31.75,1-13.33,2.39-26.62,4.46-39.87A164.29,164.29,0,0,0,35,545.73c-.52-16,.63-32.1.85-48.16.2-14.06-.15-28.12-.71-42.18-.32-8.11-.06-16.24-.09-24.37C35,428,34.9,425,34.84,422Z"/><path class="cls-2" d="M127.59,253.59c-4.41,2.11-8.23.29-11.8-2-2.71-1.75-5.11-4-7.66-6-4.11-4.74-3.7-10.91-4.8-16.46-4.11-20.8-9.09-41.39-13.63-62.09-.29-1.3-.78-2.53-1.13-3.81-.81-3-2.42-3.64-5.54-3.12-5.44.9-11,2.15-16.53.43-1.66-2.85-4.6-2.8-7.33-3.3-10.61-1.94-21-4.65-30.44-10.05a3.75,3.75,0,0,1-3.24-1.61c-3.58-4.23-3.71-8.88-1.81-13.85s3.41-10,5.53-14.83c1.84-4.18,6.6-5.47,13-4.12a37.41,37.41,0,0,0,12.33,7.37q12.74,5.06,25.72,9.44c4.2,3,9.71,3.81,13.1,8.07l1.89,8.67a1.91,1.91,0,0,1,.13,2.32c-.28,6.84,3.12,12.77,5.08,19,6.64,21.12,14,42,20.81,63.07C123.72,238.21,125.5,246,127.59,253.59Z"/><path class="cls-1" d="M105.06,506.3a10.44,10.44,0,0,1-.28-6.77c1.38-5.08,2.33-10.29,3.4-15.46.54-2.65,1.37-3.33,4-1.6,4.44,2.93,6.16,7.34,6.81,12,1.58,11.55,3.89,22.68,10.17,32.85a162.15,162.15,0,0,1,12.39,23.82c3.3,8,5.72,16.4,6.09,25.46.22,5.41,1.39,11.46,4.93,16.39,5.19,7.25,6.89,15.74,7.39,24.34.3,5.06-1.75,10.42-3.89,14.6-3,5.81-2.17,11.18-1.69,16.74,1,11.32,3.35,22.6,3.4,33.91,0,6.61,1.54,13.37-.49,20.09-1.35,4.49.56,9.21,1,13.78,1.12,11.11,1.16,22.33,3.54,33.34.82,3.82.24,7.94.29,11.93-3,.83-3.4-1.59-3.82-3.38-2.45-10.63-4.93-21.26-7.06-32a350.42,350.42,0,0,1-6-52.66c-.64-13.91,0-27.88-.35-41.81-.21-9.26-1.14-18.51-1.71-27.76-.34-5.63-3.15-10.46-5.16-15.51q-13.29-33.42-27-66.67Q107.84,514.24,105.06,506.3Z"/><path class="cls-1" d="M93.37,137.64c-4.45-2.23-9.2-3.94-13.17-7.09-8.27-5.1-10.23-13.41-11.31-22.18-.81-6.56-.44-13.33-3.44-19.51a29.39,29.39,0,0,0-2.1-4c-1.89-2.68-4.41-4.19-7.71-3.25-3.6,1-3.9,4.14-4,7.24-.06,2.58,1.2,4.8,2,7.14,1.42,3.93.19,7.26-2.68,10-2.09,2-4.13,4.67-7.67,2.57.15-1.47.31-2.94.51-4.89-4.68,1.91-7.53.1-8.79-4.52-2.26.27-3.34,2.08-4.91,3.12s-3.48,2.07-3.87-1.07c-.21-1.7-1.14-1.73-2.38-1.6A26.37,26.37,0,0,1,20,100c-2.48-.13-5.38-.21-5.9-3.32s2.68-2.77,4.4-3.7a26.87,26.87,0,0,1,3.68-1.34A52.84,52.84,0,0,0,40.35,76.52C44,72,49.81,70.8,54.45,67.73A338.42,338.42,0,0,1,84,50c8.59-4.5,17.8-7.83,26.42-12.34a14.39,14.39,0,0,0,5.7-4.65,21.84,21.84,0,0,0,5.07-8.46c.51-1.7,1.24-4,3.55-3.36S129.15,23,129,25.91c-.11,2.43.27,5-1.73,7.07,3.15-1.37,3.9-4.23,5.15-6.75.56-1.11.63-2.74,2.54-2.5a3.48,3.48,0,0,1,2.83,2.51c2.4,6,0,11.11-3.67,15.58s-8.58,6.7-14,8.1a4.51,4.51,0,0,1-4.8,2c-7.73-1.33-15.25,1.57-20.79,5.25-7.17,4.76-16,9.62-17.92,19.56-2.64,13.71,4.62,23.92,19,27.47A38.39,38.39,0,0,0,109,105c3.29-.35,5.31.61,4.38,4.45-.14.62-.27,1.25-.41,1.88-2,2.78-5.36,2.23-8,3.5s-6.8,1.93-5.93,5.45c.81,3.3,4.73,1.75,7.41,1.64,1.58-.06,3.28-.94,4.46.91-.43,1.38-.83,2.78-1.31,4.15-2.91,8.45-4.79,9.84-13.77,10.27C95,137.32,94.19,137.52,93.37,137.64Z"/><path class="cls-1" d="M81.26,272.47c12.27,5.8,23.41,13.71,35.86,19.17,1.63,5.82,1.83,11.82,2.23,17.8-1,9.06,1.59,17.81,2.21,26.74.38,5.28,1.52,10.48,1.75,15.8.11,2.72-.9,4.11-3,5-9.37,3.92-19.28,6-29.13,8.25-2.51.57-3-.73-3.14-3q-2.48-36.49-5.18-73C82.42,283.65,81.79,278.06,81.26,272.47Z"/><path class="cls-4" d="M25.49,145.56l3.24,1.62C23.46,159.7,13.59,169.36,7.41,181.3c-7.46,14.4-6.73,28,3.14,41.42,6.85,9.3,15.38,16.43,24.77,22.72,4.43,3,8.51,6.33,12.73,9.55,3.07,2.34,2.45,4.37-.48,6.16-1.41.87-3,1.43-4.41,2.31a13.14,13.14,0,0,0-5.53,14.78A54.24,54.24,0,0,0,43.11,291c4.27,6.72,6,14,3,21.35-3.61,8.95-.38,17.31.67,25.89,1.28,10.49,2.43,21,1.45,31.57-.48,5.23-4.38,8.89-5.89,13.6-3.13,9.74-6.12,19.53-9.16,29.3a4,4,0,0,1-.26.95c-.74,1.16-.38,3.55-2.41,3.22s-1.24-2.45-1.1-3.76c.91-8.38,1.68-16.79,3-25.1,1.19-7.4.78-14.86,1.6-22.29,1.44-13.15,1.17-26.46,3.14-39.59.7-4.68-.68-9.27-1.28-13.83-1.71-13.06-6.79-25.21-11.12-37.52-5.06-14.34-10.07-28.73-16-42.71a129.92,129.92,0,0,1-7.3-21.52C-2,195.66.77,182,9.9,169.14,15.32,161.5,21.3,154.08,25.49,145.56Z"/><path class="cls-1" d="M214.06,780.52c7.75,6.47,15.93,12.37,25,16.74,7.47,3.59,16.1,3.13,23.95,5.66,4.72,1.52,9.67,2.76,10.82,8.71-9,4.54-18.67,5.82-28.57,5.82-2.5,0-5,.1-7.46.33-6.31.59-12.63.73-18.81-1.13-4.19-1.26-8.49-1.35-12.82-1.62-11.42-.7-22.89.31-34.29-1.08a33.43,33.43,0,0,1-2.85-24.32,5.63,5.63,0,0,1,4.68-1.24c12.09,1.88,22.88-2.48,33.68-6.87C209.54,780.65,211.63,779.4,214.06,780.52Z"/><path class="cls-4" d="M113.35,109.48c.14-2.73-.64-3.72-3.78-3.23A34,34,0,0,1,79.8,96.91c-7.6-7.22-6.87-23.21,1-30.06,3.49-3,7.62-5.42,9.73-9.82.2-.42.71-1,1.06-1,7.24.2,12.59-6.67,20.23-5.29a14.32,14.32,0,0,0,8.32-.83,42.37,42.37,0,0,1-.87,22.47,48.23,48.23,0,0,0-1.7,10.72c-.41,5.77,2.64,9.88,6.83,13.55,1.84,1.62,5.89,2.77,3.94,6.34a7.33,7.33,0,0,1-9.1,3.32C115.47,105,114.3,106.54,113.35,109.48Z"/><path class="cls-1" d="M66.5,160.52c6.24-1.71,12.94,0,19.1-2.58,2.28-1,3,.66,3.66,2.72,3.87,12.31,6.07,25,8.84,37.57,3.48,15.75,6.7,31.56,10,47.34-3.9-.76-5.6-4.36-8.35-6.58-8-6.41-15.77-13-23.63-19.55C73.44,199.72,71.31,179.9,66.5,160.52Z"/><path class="cls-4" d="M29.16,765.8c8.59-1.59,17.19-3.16,25.78-4.79,1.13-.21,2.23-.63,3.39-.17-.28,14.18-.82,28.39,4.93,41.86.56,6.3-3.06,11.22-9,12.06-5.29.75-10.4.07-14.74-3.22-4.92-3.72-9.57-7.77-12-13.69.66-5.41.31-10.91,1.61-16.28A38.61,38.61,0,0,0,29.16,765.8Z"/><path class="cls-4" d="M214.06,780.52c-10,3.51-19.55,8-30.21,9.67-5.15.81-9.86-1.21-14.8-.56,2.44-9,3.18-18,.1-27.11a3.26,3.26,0,0,0-1.2-2c8.91-4.51,18.62-6.71,28.08-9.62.35,7.79,3.77,14.3,8.7,20C207.64,774.28,210.94,777.32,214.06,780.52Z"/><path class="cls-3" d="M774.5,148.63c-11.6-3.29-16.69-8.7-16.89-17.95a18.49,18.49,0,0,1,16.1-19,18.53,18.53,0,0,1,8.57,35.87c-.91.34-1.81.72-2.71,1.08A3.8,3.8,0,0,1,774.5,148.63Z"/><path class="cls-1" d="M27.47,797.85c3,3.24,6,6.52,9.07,9.72a20.4,20.4,0,0,0,7.8,5.11c8,2.87,16.7,1.72,18.92-10,4,6.94,8.73,13.45,11.72,20.94-4.19,7.41-11.74,9.66-19,9.85-10.55.26-21.3-1-29.73-8.83C23.49,815.58,25.12,806.7,27.47,797.85Z"/><path class="cls-4" d="M43.37,108.56c7.83-1.07,11.46-7.26,8.3-14.13a21.4,21.4,0,0,1-1.19-2.74c-1.41-4.53.39-9.9,3.71-11.28,4.23-1.75,8.26.18,11.2,4.87,3.79,6,4.46,12.88,4.58,19.6A37.24,37.24,0,0,0,80.2,130.55c-7.33-1.24-13.81-5-20.8-7.2a62,62,0,0,1-14.29-6.54c-1.55-1-3.24-1.76-2.89-4.06C43.61,111.63,43,110,43.37,108.56Z"/><path class="cls-4" d="M167.27,301.61C161.13,309,157,317.3,155.9,326.93c-.18,1.47-.51,2.93-.78,4.39-3.58-.36-7.17-.74-10.76-1.07s-3.91-3-4.21-5.68c-.64-5.69-1.28-11.38-2-17.07a8.66,8.66,0,0,0-.91-2.23c-1.32-3.3-1.92-6.59.05-9.88A189.21,189.21,0,0,0,167.27,301.61Z"/><path class="cls-1" d="M171.9,814c.52-.38,1.14-1.2,1.53-1.1,7,1.8,14.13.13,21.12.11,14,0,27.55,4.5,41.47,3.55,11.91-.81,24.16.06,35.47-5.14a2.69,2.69,0,0,1,2.36.26c.85,6.41-1.1,9.4-7.93,9.64-16.74.58-33.53,1.54-50.21-1a53.3,53.3,0,0,0-16.34-.22,77,77,0,0,1-18.88.26C176.36,819.9,173.23,818.14,171.9,814Z"/><path class="cls-2" d="M354.75,198.05c8.23-2.94,16.23-3.28,24.57.3,5.71,2.45,12.16,2.2,18.61,1.83a18.75,18.75,0,0,1-13.25,10.28c-6.59,1.55-13,4-20,2.92-4.49-.71-8.8-1.63-12-5.17C351.05,204.35,352.18,201.05,354.75,198.05Z"/><path class="cls-4" d="M774.5,148.63l5.07,0q-2.34,18.67-4.69,37.37c-1.79,14.25-3.54,28.5-5.39,42.74-.87,6.72-2,13.39-2.93,20.1-.54,3.89-.58,7.51,5.16,6.68.55-.08,1.19.47,1.78.73-3.07.66-6.24-.62-9.38,1.63-2.1,1.51-3.07-2.11-4.64-3.29,2-.32,1.89-1.82,2.09-3.36,2.19-17.19,4.82-34.34,6.59-51.57,1.56-15.08,4.64-30,5.47-45.13A58.74,58.74,0,0,1,774.5,148.63Z"/><path class="cls-4" d="M281.05,333.3c-.35-3.09-2.71-1.83-4.24-1.75-7.79.4-15.57,1-23.35,1.53-2,.15-3.76,0-4.17-2.35s1.11-3.46,2.9-4.08c2.17-.75,4.47-1.15,7.05-1.78-1.31-2-5-2.6-3.9-5.84,1.26-3.58,4.74-4,7.78-4.44s5.15-1.06,5.75-4.26c.11,1.79.65,2.89,2.82,3.22a19,19,0,0,1,9.25,4.42c2.36,2,3.31,4.2.1,6.38-5,.63-10.06-.85-14.06.18,4-.15,9-.8,13.89.75C281.22,327.94,283.28,330.57,281.05,333.3Z"/><path class="cls-1" d="M291.94,199.7c-1.71-.45-3.56.51-5.6-.73,6.56-3.85,12.18-9.28,20.56-7.64L333,195.64c2.05.48,3.36,1.61,2.57,3.82-1,2.72-1.7,5.94-5.83,5.22-11.89-.91-23.48-4.36-35.49-4.25A8.19,8.19,0,0,1,291.94,199.7Z"/><path class="cls-4" d="M262,352.19c-1.57-2-4.05-.77-6-1.71s-3.95-1.45-3.84-3.92c.11-2.15,1.87-2.93,3.76-3.41,1.07-.27,2.1-.73,4.23-1.49-3.24-.32-5.36-.25-7.32-.79a4.19,4.19,0,0,1-3.36-4.41c.27-2,2.49-1.77,4.11-1.85q13.7-.66,27.41-1.27c-.11,1.85-1.44,3-2.59,4.12-1.78,1.84-3.45,3.05-2.84,6.58.55,3.19-2.51,6-6.41,6.26A21,21,0,0,0,262,352.19Z"/><path class="cls-1" d="M680.13,145.66a2.29,2.29,0,0,1,2.85,3.23c-1.49,3.09-.75,6.74-1.1,10-1.6,14.63-2.77,29.3-5,43.88-1.34,8.82-1.62,17.81-2.37,26.72a24.28,24.28,0,0,1-.21,3c-.23,1.2-.92,2.39-2.23,2.31-1.47-.09-1.62-1.48-1.55-2.67.35-5.62.58-11.26,1.15-16.86,1.2-11.68,2.62-23.34,3.89-35,1.13-10.36,2.19-20.73,3.25-31.11a4.92,4.92,0,0,0,0-.94,2.4,2.4,0,0,1,1.26-2.46Z"/><path class="cls-3" d="M137.3,295.39c-.43,3.29,1.14,6.6-.05,9.88-6.1.8-11.56,4.36-17.9,4.17-2.54-5.71-2.87-11.69-2.23-17.8A67.23,67.23,0,0,0,137,290.43C137.09,292.09,137.2,293.74,137.3,295.39Z"/><path class="cls-2" d="M583.55,161.65c-7.6-2.13-11.15-6.66-9.78-12.48a10.25,10.25,0,0,1,9.52-8.14c4.83-.13,8.23,2.3,10,6.72,1.73,4.22.1,9-3.82,11.87-.94.67-2,1.21-3,1.81A2.13,2.13,0,0,1,583.55,161.65Z"/><path class="cls-1" d="M26.23,824.66c1.52-1.13,2.47.2,3.4.93,5.27,4.11,11.43,5.24,17.87,6.14a35.69,35.69,0,0,0,18.76-2.07c3.53-1.41,5.41-4.63,8.72-6,2,4.41.81,7.88-3.53,9.84a45.18,45.18,0,0,1-35.17,1.31A16.23,16.23,0,0,1,26.23,824.66Z"/><path class="cls-4" d="M95.39,148.63c0-.77-.09-1.54-.13-2.32,13.88,3.49,25.93,17.4,27.56,33.71.71,7.12,1.47,14.4.63,21.76-.81,7.12-.18,14.4-.18,19.7a195.34,195.34,0,0,1-3-38.39,26.06,26.06,0,0,0-4-14.64C111.09,159.92,105.07,152.37,95.39,148.63Z"/><path class="cls-4" d="M61.17,197c0-1.33,0-2.15,0-3,0-1.43-.41-3.18,1.69-3.57,1.72-.31,2.67.71,3.51,2.13,2.76,4.64,3.58,9.87,4.72,15a3.55,3.55,0,0,1-2,4.16c-1.83,1-2.7-.6-3.71-1.59Q59.26,204.13,53.16,198c-.89-.9-2.17-1.84-1.21-3.37s2.59-1.33,4-.68C57.53,194.68,59,195.73,61.17,197Z"/><path class="cls-4" d="M140.24,342.72c.07-1.55.21-2.92,1.66-3s1.11,1.38,1.32,2.28c2.08,8.66,3.27,17.5,5.75,26.1,2.41,8.37,4,17,6.14,25.42,1.24,5,1.65,10.14,4.09,14.78.57,1.11,1.67,2.69,0,3.45-2,.92-2.51-1.13-2.87-2.46-1.6-5.91-3.13-11.84-4.54-17.79-3.65-15.41-7.22-30.84-10.84-46.26C140.7,344.3,140.41,343.35,140.24,342.72Z"/><path class="cls-1" d="M256,182.68c-1.61,4.08-5.27,5.52-9,6.92L227.86,187a19.35,19.35,0,0,1-3.91-.64c-1.48-.53-3.45-.94-3.18-3.17.3-2.57,2.44-1.67,3.92-1.76C235.15,180.79,245.51,183,256,182.68Z"/><path class="cls-3" d="M329.73,204.68c4.63-2.32,5.9-5.85,3.26-9,7.28.59,14.39,2.65,21.76,2.41q-1,5.08-2.06,10.16c-6-1.61-12.17-2.11-18.32-2.77C332.82,205.28,331.09,206,329.73,204.68Z"/><path class="cls-4" d="M580.75,161.65l3-.22c-.8,12.31-1.84,24.6-3.59,36.84-1,7.31-1,14.78-1.5,22.18-1.15,2.59-2.37,3.15-3.72.14.84-7,1.8-14,2.47-21C578.62,186.94,579.65,174.29,580.75,161.65Z"/><path class="cls-6" d="M748.44,239.64c-2.21-.9-3.94-1-4,2.16a23.39,23.39,0,0,1-.29,2.47c-1.21,9.64-1.21,9.64-10.52,8.27.55-2.55,1.08-5.11,1.65-7.67C736.57,239.09,742.81,236.61,748.44,239.64Z"/><path class="cls-4" d="M110.9,122.86c-3.09.21-6.17.51-9.26.6-1.81.05-4-.14-4.62-2-.68-2.2.67-4.11,2.56-5.39,4-2.72,8.78-3.46,13.36-4.67-.25,1.73-.49,3.45-.73,5.17a7.59,7.59,0,0,1-4.34,2.14c1.08.34,2.31-.25,3.19.7Z"/><path class="cls-7" d="M288.71,181.73c-1.76,1.4-18.16,9.38-20.2,9.39a36.31,36.31,0,0,1,19.43-9.73A2.14,2.14,0,0,0,288.71,181.73Z"/><path class="cls-8" d="M294.73,186.5l-18.55,8.62-.68-1.34A47.08,47.08,0,0,1,294,185.27Z"/><path class="cls-9" d="M279.79,179.66c-6.19,2.78-12.66,4.94-18.33,8.93,3.18-6,9.55-7.06,14.56-10.15A4.33,4.33,0,0,1,279.79,179.66Z"/><path class="cls-3" d="M280.87,325.28H264.61c5.36-2.68,10.89-2,16.43-.93A1.51,1.51,0,0,1,280.87,325.28Z"/><path class="cls-1" d="M111.06,119.37c-2.23-.42-5.78,3.07-6.2.09-.32-2.25,4.47-2.64,7.35-2.93C112.48,117.74,111.7,118.53,111.06,119.37Z"/><path class="cls-10" d="M629.52,821.44l.23,19.92C627.76,834.74,628.54,828.09,629.52,821.44Z"/><path class="cls-11" d="M724.45,337.22c-.55,5.36,1.49,10.85-.71,16.14C724.3,348,722.24,342.51,724.45,337.22Z"/><path class="cls-12" d="M782.57,282.43c.56-5-1.24-10.16.7-15.12C783,272.34,784.8,277.48,782.57,282.43Z"/><path class="cls-13" d="M729.41,430.3c4.4.06,8.86-1,13.17.68C738.18,431,733.72,432,729.41,430.3Z"/><path class="cls-14" d="M696.07,443.26l12.3-.13A24.52,24.52,0,0,1,696.07,443.26Z"/><path class="cls-14" d="M683.87,435.08c-4.08-.19-8.24,1-12.23-.71C675.69,435,679.87,433.5,683.87,435.08Z"/><path class="cls-14" d="M668.72,661.3c.18-4.15-1-8.38.74-12.43C669.48,653,669.78,657.2,668.72,661.3Z"/><path class="cls-14" d="M667.73,679.17c.2-4.11-1.08-8.31.75-12.32C668.27,671,669.13,675.13,667.73,679.17Z"/><path class="cls-14" d="M681.44,464.11a14.85,14.85,0,0,1,0-11Z"/><path class="cls-14" d="M671.7,616.42c.15-3.83-.9-7.72.67-11.46C672.49,608.8,672.82,612.65,671.7,616.42Z"/><path class="cls-3" d="M63.59,744.89c-4.87-4.73-3.94-10.9-3.08-16.26,1.28-8.08.55-16.17,1.47-24.26,1.56-13.65,1.55-27.48,1.23-41.25a47.05,47.05,0,0,1,3-18c4.58-12.08,6.14-25,9.77-37.35,1.28-4.37,0-9-.92-13.28-2.12-9.4.43-18.41,1.37-27.56.53-5.25,1.4-10.46,2.17-15.68,1-6.65,4.45-12.42,6.8-18.59a59.8,59.8,0,0,0,3.83-18.35c.38-7.33,3.46-14.07,5-21.16.28-1.28.85-3.2,2.87-2.84s2.13,2.27,2.08,4A129.89,129.89,0,0,1,93,528.82a218.82,218.82,0,0,0-9.09,50.57C82.65,597.58,81,615.85,76,633.66c-3.63,12.84-3.65,26.44-5.89,39.6-3.4,20-4.31,40.07-5,60.24C65,737.26,64,741,63.59,744.89Z"/><path class="cls-3" d="M189.15,582.85c0,1,0,2-.07,3,0,1.33.08,2.82-1.81,3s-2.55-.87-3.16-2.49c-7.31-19.09-10.72-39.07-14.21-59.1-1.86-10.71-5.6-21.09-8.54-31.6-4.09-14.63-9.71-29-8.15-44.61.49-4.8,1-9.47,0-14.25-.29-1.31-.51-3.2,1.73-3.47s2.3,1.63,2.66,3a14.55,14.55,0,0,1,.5,4.41c-.35,9.85,1.78,19.33,3.52,29,4.91,27.07,13,53.28,20,79.79a127.49,127.49,0,0,1,3.32,20c.47,4.9,2.3,9.17,4.24,13.5Z"/><path class="cls-3" d="M187,690c.64-13.82-3-25.31-4.44-37.07-1.29-10.19-.1-20.14,1.77-30.09.23-1.26,1.11-2.59,2.78-2.26s1.87,1.32,1.67,3c-1.54,12.56.77,25,1,37.52.23,12,2.33,23.69,3.37,35.54a114.43,114.43,0,0,0,3.2,19c1.36,5.13,1.26,10.52,3.3,15.5.58,1.43,1.27,3.59-.9,4.25-1.86.57-3.17-1.19-3.64-2.74-2.32-7.71-6.71-15-6.86-23.13C188.16,702.41,186.32,695.39,187,690Z"/><path class="cls-15" d="M629.77,443.38c6.87,1.13,13.35.77,19.78.55,4.41-.16,5.39,1.46,5.11,5.53-.94,13.49-2.34,26.94-3.09,40.46-.83,14.75-1.72,29.55-3.58,44.27-1,8-.45,16.19-1,24.31-1.28,17.61-3.33,35.18-3.37,52.88,0,4.06-1.65,5.8-6.58,4.89-6.76-1.26-13.81-1.25-20.74-1.33-4.4-.05-6.43-1.74-5.65-6.06,2.69-14.72,3.79-29.66,5.62-44.47,1.17-9.53,2.4-19.1,3.47-28.66,1.59-14.11,3.45-28.22,4.6-42.32.86-10.41,3.25-20.59,3.5-31.09C628,456.1,630,449.84,629.77,443.38Z"/><path class="cls-16" d="M601,444c1.72,1,.88,2.72.85,4.08-.23,10.9-2.85,21.54-3.43,32.45-.54,10.16-2.34,20.26-3.46,30.4-1.19,10.77-2.25,21.55-3.76,32.3-1,7.44-1.31,15-2.21,22.58-1.66,13.91-2.76,27.88-4.2,41.82-.33,3.18-.47,5.46-5.66,4.72a192.75,192.75,0,0,0-20.34-1.49c2.19-11.3,3.24-22.77,5.29-34.11,1.49-8.2,3.2-16.47,3.75-24.94.6-9.16,3.21-18.16,4.62-27.29,1.83-11.87,4.11-23.66,5.39-35.65.72-6.76,2.68-13.5,3.81-20.3,1.36-8.2,2.42-16.45,3.61-24.67A98.47,98.47,0,0,1,601,444Z"/><path class="cls-17" d="M601,444l-15.73-.1c5-1.51,10.14-.36,15.21-.6A1.63,1.63,0,0,0,601,444Z"/><path class="cls-6" d="M110.05,277.09c-.69,2.73-2.48,2.12-4.17,1.14-5.74-3.32-11.58-6.5-17.1-10.14-9.66-6.39-19.66-12.3-28.62-19.71-1.63-1.36-4-3.17-2.86-5,1.55-2.46,3.65.14,5,1.19,14.16,11.25,29.62,20.52,45,29.89C108.39,275.08,109.89,275.34,110.05,277.09Z"/><path class="cls-6" d="M142.87,280.28c-1.63.1-2.88-.17-3.25-1.44a2.48,2.48,0,0,1,2-3c16.54-4.69,31.25-13.52,46.85-20.34,1.2-.53,2.89-1.81,4,.07s-.6,2.85-1.87,3.42c-15,6.72-29.14,15.1-44.77,20.34C144.73,279.69,143.62,280,142.87,280.28Z"/><path class="cls-4" d="M222.9,315.44c2.25-5.16,6.73-7.47,11.83-7.86,5.32-.41,10.2-2.84,15.63-2.64,2,.07,4.1-1.17,6.08-2,1.49-.62,2.81-.92,4.12.32,1.53,1.44,1.12,3,.27,4.52a15.78,15.78,0,0,1-13.14,8.58c-1.91.17-4-.73-5.71.89-4.27,4-9.58,4.68-15,4.1C223.88,321,222.08,318.91,222.9,315.44Z"/><path class="cls-1" d="M212.09,286.05c5,0,8.31,3.15,8.22,7.91-.11,5.25-5,8.87-12.29,9a8.33,8.33,0,0,1-8.66-7.84C199.23,290,204.69,286.06,212.09,286.05Z"/><path class="cls-3" d="M196,311c0,4.21-7,9.38-12.51,9.23-3.6-.1-7.86-4.58-7.9-8.32,0-4.15,6.49-9.4,11.83-9.52C191.78,302.28,196,306.5,196,311Z"/><path class="cls-4" d="M207.33,357.55c-4.91,0-8.39-3.32-8.36-7.91,0-5.1,5.55-9.33,12.14-9.32a8,8,0,0,1,7.86,8C218.9,353.4,213.65,357.57,207.33,357.55Z"/><path class="cls-18" d="M181.58,346.31c-5.77-.11-9.5-3.47-9.43-8.5.06-4.38,5.84-8.34,11.9-8.17,5,.15,8.2,3.57,8,8.73C191.94,343.23,187.71,346.43,181.58,346.31Z"/><path class="cls-2" d="M239.7,294.35c-5.14,0-8.69-3.32-8.65-8.09,0-4.95,4.41-8.67,10.15-8.64,4.6,0,8.62,3.69,8.61,7.85C249.79,290.19,245.05,294.36,239.7,294.35Z"/><path class="cls-18" d="M222.9,315.44c.28,3.83,2.65,4.92,6.11,4.88,4.57-.05,8.73-1.67,13-3.05,1.85.27,2.26,1,1,2.56-2.62,3.16-14.1,5.35-17.48,3C223,321.13,221,318.87,222.9,315.44Z"/><path class="cls-3" d="M97.13,23.13c-.82,2.91-3,3.89-6.24,2.93C86,24.62,81.27,22.71,76,22.34a21.1,21.1,0,0,0-6.25.25,5.12,5.12,0,0,1-6.24-3.7c-.91-2.88,1.94-4.49,4-4.67,9.29-.81,18.43.16,26.91,4.46A4.62,4.62,0,0,1,97.13,23.13Z"/><path class="cls-1" d="M86,42.94C91,38.68,97.17,36.48,103.18,34,98.27,38.52,91.81,40.18,86,42.94Z"/><path class="cls-1" d="M55.46,62.21,48,69.11C49.87,66.37,51.92,63.85,55.46,62.21Z"/><path class="cls-1" d="M55,62.8c1.81-2.38,3.66-4.37,6.32-5.53C59.66,59.44,58.4,62,55,62.8Z"/><path class="cls-1" d="M67.31,52.27c1.94-1.8,3.3-2.49,5.63-2.47C71.39,51.94,70,52.75,67.31,52.27Z"/><path class="cls-1" d="M106.27,67.73c1,0,2,0,3,0s1.71.5,1.76,1.43-.76,1.45-1.66,1.45c-5.58,0-10.66,2.14-15.86,3.73-.82.25-1.77.53-2.19-.36-.52-1.1.2-1.89,1.21-2.33A41.58,41.58,0,0,1,106.27,67.73Z"/><path class="cls-1" d="M102.3,85.3c.09-1.65.13-3.72,2.72-3.55a3.16,3.16,0,0,1,2.78,3.53c-.12,1.83-.61,4.28-3.15,4.28S102.36,87.3,102.3,85.3Z"/><path class="cls-3" d="M55.12,89.55c-.06-3.2,0-5.18,3-5,2.47.1,4.32,1,4.18,3.75a7.14,7.14,0,0,0,1.85,5.39,2.39,2.39,0,0,1,0,3.55,3.26,3.26,0,0,1-4.05.74C56.13,96,55.42,92.33,55.12,89.55Z"/><path class="cls-3" d="M273.5,340.28a15.63,15.63,0,0,1-10.76,1.55C266.76,339.79,270,339.09,273.5,340.28Z"/><path class="cls-1" d="M681.76,123.07l-1.25,12.2a16.7,16.7,0,0,1-6.63-3.85l-.16-.15a17.6,17.6,0,0,1-4.29-6.57,18.32,18.32,0,0,1-1.09-7.88l1.82-17.88a16.4,16.4,0,0,1,5.23,2.67,14.32,14.32,0,0,1,1.41,1.19,17.48,17.48,0,0,1,2.81,3.42,18.22,18.22,0,0,1,2.68,11.59l0,.43-2.32-.24a4.61,4.61,0,0,0-3.42,1.08,5,5,0,0,0-1.7,3.27Zm18.07-14.79a16.69,16.69,0,0,0-4.35,1.68c-.23.13-.47.26-.7.41a17.65,17.65,0,0,0-4.41,3.87,17.86,17.86,0,0,0-2.71,4.55l6.2.63a5.06,5.06,0,0,1-.55,1.82,4.75,4.75,0,0,1-1.17,1.46,4.55,4.55,0,0,1-1.61.89,4.68,4.68,0,0,1-1.82.18l-2.31-.24-1.82,17.9a16.8,16.8,0,0,0,7.14-2.35l.15-.09a17.74,17.74,0,0,0,5.76-5.77,18.42,18.42,0,0,0,2.65-7.84l0-.4,1.74-17a15.56,15.56,0,0,0-2.24.35Z"/></svg>